<svg width="280" height="280" viewBox="0 0 280 280" fill="none" xmlns="http://www.w3.org/2000/svg">
  <rect width="280" height="280" rx="32" fill="white" />
  <path
    d="M68.3671 159.321C68.5243 164.562 69.3468 169.76 70.8147 174.788C75.8526 191.431 93.7403 204.485 110.384 205.887H110.832C103.476 201.028 97.8393 193.928 94.7397 185.615C87.4174 165.364 100.859 139.153 122.581 129.934C131.207 126.489 140.633 125.63 149.73 127.458C158.827 129.287 167.21 133.726 173.878 140.246C188.91 154.991 188.38 174.561 188.155 177.552C187.52 189.341 182.847 200.541 174.938 209.228C156.153 229.231 126.721 224.798 117.563 223.416C108.12 221.883 98.9818 218.826 90.4972 214.363C82.3776 210.115 74.921 204.681 68.3671 198.236C69.3666 200.546 88.2332 242.121 130.943 247.482C136.022 248.122 164.23 251.071 187.849 230.654C199.285 220.739 207.36 207.448 210.938 192.652C214.516 177.855 213.418 162.297 207.797 148.165C204.195 139.025 198.797 130.718 191.929 123.748C178.732 110.844 161.318 103.273 142.977 102.465C124.53 101.805 106.558 108.466 92.904 121.025C92.904 96.966 92.8496 72.9065 92.7408 48.8469C90.7012 37.5665 76.4237 30.2867 68 32.349C68.0612 138.678 68.3467 99.1245 68.1632 143.153L68.3671 159.321Z"
    fill="#222343" />
</svg>
  