<svg width="32" height="32" viewBox="0 0 32 32" fill="none" xmlns="http://www.w3.org/2000/svg">
<path opacity="0.85" d="M15.959 7.53325C15.2924 7.53325 14.719 7.29325 14.239 6.81991C13.759 6.34658 13.519 5.77325 13.519 5.09991C13.519 4.42658 13.759 3.85991 14.2324 3.37991C14.7057 2.89991 15.279 2.65991 15.9524 2.65991C16.6257 2.65991 17.1924 2.89991 17.6724 3.37325C18.1524 3.84658 18.3924 4.41991 18.3924 5.09325C18.3924 5.76658 18.1524 6.33325 17.679 6.81325C17.2057 7.29325 16.6324 7.53325 15.959 7.53325ZM24.0857 29.3332C23.799 29.3332 23.5657 29.2399 23.3724 29.0466C23.179 28.8532 23.0857 28.6199 23.0857 28.3332V22.3666H15.9524C15.2924 22.3666 14.7257 22.1332 14.259 21.6599C13.7924 21.1866 13.5524 20.6266 13.5524 19.9666V11.7332C13.5524 11.0332 13.7724 10.4599 14.219 10.0066C14.6657 9.55325 15.2457 9.33325 15.9657 9.33325C16.459 9.33325 16.8857 9.43325 17.2457 9.63325C17.6057 9.83325 18.0324 10.2199 18.519 10.7999C19.3657 11.7799 20.2657 12.6199 21.219 13.3199C22.1724 14.0199 23.219 14.4599 24.3524 14.6399C24.599 14.6866 24.8057 14.7932 24.9724 14.9732C25.139 15.1532 25.2257 15.3666 25.2257 15.6066C25.2257 15.9132 25.119 16.1732 24.9057 16.3732C24.6924 16.5732 24.4324 16.6532 24.119 16.6066C23.139 16.4532 22.1524 16.1132 21.1524 15.5866C20.1524 15.0599 19.1857 14.4132 18.2524 13.6332V19.7332H22.6857C23.3457 19.7332 23.9124 19.9666 24.379 20.4399C24.8524 20.9132 25.0857 21.4732 25.0857 22.1332V28.3332C25.0857 28.6199 24.9924 28.8532 24.799 29.0466C24.6057 29.2399 24.3657 29.3332 24.079 29.3332H24.0857Z" fill="#222343"/>
<path opacity="0.52" d="M17.6001 22.8666C17.6001 20.4066 15.6001 18.3999 13.1334 18.3999C10.6734 18.3999 8.66675 20.4066 8.66675 22.8666C8.66675 25.3266 10.6734 27.3332 13.1334 27.3332C15.5934 27.3332 17.6001 25.3266 17.6001 22.8666Z" fill="#222343"/>
<path d="M13.1334 18.4001C15.6001 18.4001 17.6001 20.4068 17.6001 22.8668C17.6001 25.3268 15.5934 27.3335 13.1334 27.3335C10.6734 27.3335 8.66675 25.3268 8.66675 22.8668C8.66675 20.4068 10.6734 18.4001 13.1334 18.4001ZM13.1334 16.4001C9.56008 16.4001 6.66675 19.2935 6.66675 22.8668C6.66675 26.4401 9.56008 29.3335 13.1334 29.3335C16.7067 29.3335 19.6001 26.4401 19.6001 22.8668C19.6001 19.2935 16.7067 16.4001 13.1334 16.4001Z" fill="#222343"/>
</svg>
