<svg width="32" height="32" viewBox="0 0 32 32" fill="none" xmlns="http://www.w3.org/2000/svg">
<g opacity="0.52">
<path d="M20 26.6667C17.02 26.6667 14.5 25.6334 12.4334 23.5667C10.3667 21.5 9.33337 18.98 9.33337 16C9.33337 13.02 10.3667 10.5 12.4334 8.43337C14.5 6.36671 17.02 5.33337 20 5.33337C22.98 5.33337 25.5 6.36671 27.5667 8.43337C29.6334 10.5 30.6667 13.02 30.6667 16C30.6667 18.98 29.6334 21.5 27.5667 23.5667C25.5 25.6334 22.98 26.6667 20 26.6667Z" fill="#222343"/>
<path d="M3.66663 11.6666C3.37996 11.6666 3.13996 11.5733 2.95329 11.3866C2.76663 11.2 2.66663 10.96 2.66663 10.6666C2.66663 10.3733 2.75996 10.14 2.95329 9.95329C3.13996 9.76663 3.37996 9.66663 3.66663 9.66663H6.99996C7.28663 9.66663 7.52663 9.75996 7.71329 9.95329C7.89996 10.14 7.99996 10.38 7.99996 10.6666C7.99996 10.9533 7.90663 11.1933 7.71329 11.3866C7.52663 11.5733 7.28663 11.6666 6.99996 11.6666H3.66663Z" fill="#222343"/>
<path d="M3.66663 22.3333C3.37996 22.3333 3.13996 22.24 2.95329 22.0533C2.76663 21.8666 2.66663 21.6266 2.66663 21.3333C2.66663 21.04 2.75996 20.8066 2.95329 20.6133C3.13996 20.4266 3.37996 20.3333 3.66663 20.3333H6.99996C7.28663 20.3333 7.52663 20.4266 7.71329 20.6133C7.89996 20.8 7.99996 21.04 7.99996 21.3333C7.99996 21.6266 7.90663 21.86 7.71329 22.0533C7.52663 22.24 7.28663 22.3333 6.99996 22.3333H3.66663Z" fill="#222343"/>
</g>
<path d="M2.33337 17C2.04671 17 1.80671 16.9066 1.61337 16.72C1.42671 16.5333 1.33337 16.2933 1.33337 16C1.33337 15.7066 1.42671 15.4733 1.61337 15.28C1.80004 15.0933 2.04004 15 2.33337 15H7.00004C7.28671 15 7.52671 15.0933 7.71337 15.28C7.90004 15.4666 8.00004 15.7066 8.00004 16C8.00004 16.2933 7.90671 16.5266 7.71337 16.72C7.52671 16.9066 7.28671 17 7.00004 17H2.33337Z" fill="#222343"/>
<path d="M20 17C19.4467 17 19 16.5533 19 16V11.6666C19 11.1133 19.4467 10.6666 20 10.6666C20.5534 10.6666 21 11.1133 21 11.6666V16C21 16.5533 20.5534 17 20 17Z" fill="#222343"/>
<g opacity="0.85">
<path fill-rule="evenodd" clip-rule="evenodd" d="M19.9999 5.33325C17.0199 5.33325 14.4999 6.36659 12.4333 8.43325C10.3666 10.4999 9.33325 13.0199 9.33325 15.9999C9.33325 18.9799 10.3666 21.4999 12.4333 23.5666C14.4999 25.6333 17.0199 26.6666 19.9999 26.6666C22.9799 26.6666 25.4999 25.6333 27.5666 23.5666C29.6333 21.4999 30.6666 18.9799 30.6666 15.9999C30.6666 13.0199 29.6333 10.4999 27.5666 8.43325C25.4999 6.36659 22.9799 5.33325 19.9999 5.33325ZM19.9999 7.33325C22.4466 7.33325 24.4599 8.15325 26.1533 9.84659C27.8466 11.5399 28.6666 13.5533 28.6666 15.9999C28.6666 18.4466 27.8466 20.4599 26.1533 22.1533C24.4599 23.8466 22.4466 24.6666 19.9999 24.6666C17.5533 24.6666 15.5399 23.8466 13.8466 22.1533C12.1533 20.4599 11.3333 18.4466 11.3333 15.9999C11.3333 13.5533 12.1533 11.5399 13.8466 9.84659C15.5399 8.15325 17.5533 7.33325 19.9999 7.33325Z" fill="#222343"/>
<path d="M23.3733 20.3466C23.1199 20.3466 22.8666 20.2533 22.6666 20.06L19.2933 16.7133C18.8999 16.3266 18.8999 15.6933 19.2933 15.3C19.6799 14.9066 20.3132 14.9066 20.7066 15.3L24.0799 18.6466C24.4732 19.0333 24.4732 19.6666 24.0799 20.06C23.8866 20.2533 23.6266 20.3533 23.3733 20.3533V20.3466Z" fill="#222343"/>
</g>
</svg>
