<svg width="32" height="32" viewBox="0 0 32 32" fill="none" xmlns="http://www.w3.org/2000/svg">
<path d="M26.5001 28C23.9201 28 21.2934 27.38 18.6134 26.1333C15.9334 24.8867 13.4534 23.12 11.1601 20.8333C8.86674 18.5467 7.10674 16.06 5.86007 13.38C4.61341 10.7 3.99341 8.07335 3.99341 5.49335C3.99341 5.06668 4.13341 4.70668 4.42008 4.42001C4.70674 4.13335 5.06007 3.99335 5.49341 3.99335H10.1601C10.4734 3.99335 10.7401 4.10668 10.9601 4.32668C11.1801 4.54668 11.3401 4.82668 11.4267 5.16001L12.3267 9.34668C12.3734 9.66668 12.3667 9.95335 12.3134 10.2067C12.2601 10.46 12.1401 10.68 11.9534 10.8667L8.62674 14.2267C9.20674 15.2067 9.81341 16.1133 10.4601 16.96C11.1067 17.8067 11.8134 18.6067 12.5934 19.36C13.4134 20.2067 14.2801 20.98 15.1934 21.68C16.1067 22.38 17.0601 23 18.0601 23.5333L21.2267 20.2667C21.4467 20.02 21.7067 19.8533 22.0001 19.7667C22.2934 19.68 22.5801 19.6533 22.8601 19.7L26.8267 20.5667C27.1601 20.6533 27.4401 20.8333 27.6601 21.1C27.8801 21.3667 27.9934 21.6667 27.9934 22V26.5C27.9934 26.9267 27.8534 27.2867 27.5667 27.5733C27.2801 27.86 26.9267 28 26.4934 28H26.5001Z" fill="currentColor"/>
<path opacity="0.85" d="M26.9999 8.26666H18.4666C17.9143 8.26666 17.4666 8.71438 17.4666 9.26666C17.4666 9.81895 17.9143 10.2667 18.4666 10.2667H26.9999C27.5522 10.2667 27.9999 9.81895 27.9999 9.26666C27.9999 8.71438 27.5522 8.26666 26.9999 8.26666Z" fill="currentColor"/>
<path opacity="0.85" d="M21.7334 4.99999V13.5333C21.7334 14.0856 22.1811 14.5333 22.7334 14.5333C23.2857 14.5333 23.7334 14.0856 23.7334 13.5333V4.99999C23.7334 4.44771 23.2857 3.99999 22.7334 3.99999C22.1811 3.99999 21.7334 4.44771 21.7334 4.99999Z" fill="currentColor"/>
</svg>
