<svg width="32" height="32" viewBox="0 0 32 32" fill="none" xmlns="http://www.w3.org/2000/svg">
<path opacity="0.85" d="M29.9734 12.0533L15.0401 18.52C12.7667 19.5067 10.4534 20.3933 8.10674 21.1733L6.72008 21.6333C5.01341 22.2067 3.17341 21.28 2.60008 19.5733L1.26008 15.54C1.11341 15.1133 1.43341 14.6667 1.89341 14.6667L3.94008 15.3L6.30008 16L10.9401 13.9667L15.5801 11.94L15.6334 11.9133L24.0134 8.24665C26.1601 7.30665 28.6734 7.87999 30.2001 9.66665L30.4534 9.95999C31.0401 10.6467 30.8001 11.6933 29.9734 12.0533Z" fill="#222343"/>
<path d="M17.0933 11.2801L15.5799 11.9467L11.6799 13.6534L7.5266 11.8601C7.07994 11.5867 7.11327 10.9267 7.59327 10.6934C8.49994 10.2534 9.51327 10.1067 10.5066 10.2601L17.0866 11.2801H17.0933Z" fill="#222343"/>
<path d="M22.0533 13.5934L17.4399 24.2334C17.1266 24.9601 16.6599 25.6067 16.0599 26.1334L14.6599 27.3667C14.1999 27.7734 13.4733 27.3867 13.5599 26.7801L14.9399 16.6134L22.0533 13.6001V13.5934Z" fill="#222343"/>
</svg>
