<svg width="32" height="32" viewBox="0 0 32 32" fill="none" xmlns="http://www.w3.org/2000/svg">
<g opacity="0.85">
<path fill-rule="evenodd" clip-rule="evenodd" d="M16 2.66666C8.63335 2.66666 2.66669 8.63332 2.66669 16C2.66669 23.3667 8.63335 29.3333 16 29.3333C23.3667 29.3333 29.3334 23.3667 29.3334 16C29.3334 8.63332 23.3667 2.66666 16 2.66666ZM21.6667 19.3333C20.84 19.3333 20.1 19.02 19.5134 18.5267C18.7267 19.62 17.4467 20.3333 16 20.3333C13.6134 20.3333 11.6667 18.3867 11.6667 16C11.6667 13.6133 13.6134 11.6667 16 11.6667C18.3867 11.6667 20.3334 13.6133 20.3334 16C20.3334 16.7333 20.9334 17.3333 21.6667 17.3333C22.4 17.3333 23 16.7333 23 16C23 12.14 19.86 8.99999 16 8.99999C12.14 8.99999 9.00002 12.14 9.00002 16C9.00002 19.86 12.14 23 16 23H20.32C20.8734 23 21.32 23.4467 21.32 24C21.32 24.5533 20.8734 25 20.32 25H16C11.04 25 7.00002 20.96 7.00002 16C7.00002 11.04 11.04 6.99999 16 6.99999C20.96 6.99999 25 11.04 25 16C25 17.84 23.5067 19.3333 21.6667 19.3333Z" fill="#222343"/>
<path d="M16 18.3333C17.2887 18.3333 18.3334 17.2887 18.3334 16C18.3334 14.7113 17.2887 13.6667 16 13.6667C14.7114 13.6667 13.6667 14.7113 13.6667 16C13.6667 17.2887 14.7114 18.3333 16 18.3333Z" fill="#222343"/>
</g>
<path opacity="0.2" d="M16 7C11.04 7 7 11.04 7 16C7 20.96 11.04 25 16 25H20.32C20.8733 25 21.32 24.5533 21.32 24C21.32 23.4467 20.8733 23 20.32 23H16C12.14 23 9 19.86 9 16C9 12.14 12.14 9 16 9C19.86 9 23 12.14 23 16C23 16.7333 22.4 17.3333 21.6667 17.3333C20.9333 17.3333 20.3333 16.7333 20.3333 16C20.3333 13.6133 18.3867 11.6667 16 11.6667C13.6133 11.6667 11.6667 13.6133 11.6667 16C11.6667 18.3867 13.6133 20.3333 16 20.3333C17.4467 20.3333 18.7267 19.62 19.5133 18.5267C20.0933 19.0267 20.84 19.3333 21.6667 19.3333C23.5067 19.3333 25 17.84 25 16C25 11.04 20.96 7 16 7ZM16 18.3333C14.7133 18.3333 13.6667 17.2867 13.6667 16C13.6667 14.7133 14.7133 13.6667 16 13.6667C17.2867 13.6667 18.3333 14.7133 18.3333 16C18.3333 17.2867 17.2867 18.3333 16 18.3333Z" fill="#222343"/>
</svg>
