<svg width="32" height="32" viewBox="0 0 32 32" fill="none" xmlns="http://www.w3.org/2000/svg">
<path opacity="0.52" d="M13.3734 27.2867C13.3734 27.2867 13.6667 25.5867 15.4534 25.5867H20.7467C20.7467 25.5867 24.6267 25.6334 27.1534 22.16C28.6267 20.1334 28.94 19.6267 28.94 19.6267L29.4734 18.82C30.2334 17.68 29.9267 16.14 28.7867 15.3733C27.7267 14.66 26.3 14.8533 25.4734 15.8333L23.3667 18.54C22.3867 19.8 20.78 20.4067 19.2067 20.1C15.3867 19.36 8.41335 18.3533 6.44002 20.26C4.72002 21.92 4.31335 24.1 4.31335 24.1C4.31335 24.1 12.1734 26.74 13.36 27.2867H13.3734Z" fill="#222343"/>
<path opacity="0.52" d="M20.94 18.1333H11.8133C10.5733 18.1333 9.33999 18.3933 8.23999 18.9666C4.89999 20.7 4.32666 24.1 4.32666 24.1C4.32666 24.1 8.33333 25.5133 13.3733 27.2866C14.38 23.7533 18.2 23.14 20.04 23.0533H21.0467C22.4267 23.0533 23.5467 21.9133 23.5067 20.52C23.4667 19.1266 22.2933 18.1333 20.9467 18.1333H20.94Z" fill="#222343"/>
<path d="M3.67998 23.8733L1.89331 29.6066H13.4466L14.04 27.52L3.67998 23.8733Z" fill="#222343"/>
<path d="M16.5266 13.5866L12.48 9.52663C12.0933 9.13329 12.0933 8.49996 12.48 8.11329C12.8733 7.72663 13.5066 7.72663 13.8933 8.11329L17.2333 11.46L24.32 4.37996C24.7133 3.98663 25.3466 3.98663 25.7333 4.37996C26.1266 4.77329 26.1266 5.40663 25.7333 5.79329L17.94 13.58C17.5466 13.9733 16.9133 13.9733 16.5266 13.58V13.5866Z" fill="#222343"/>
</svg>
