<svg width="32" height="32" viewBox="0 0 32 32" fill="none" xmlns="http://www.w3.org/2000/svg">
<path d="M17.0599 16.3402C17.0466 16.1135 16.9933 15.8868 16.8999 15.6735C16.7866 15.4268 16.6466 15.2135 16.4666 15.0335L8.76659 7.3335H11.8333C12.1199 7.3335 12.3533 7.24016 12.5466 7.04683C12.7399 6.86016 12.8333 6.62683 12.8333 6.34016C12.8333 6.0535 12.7399 5.8135 12.5466 5.62016C12.3533 5.42683 12.1199 5.3335 11.8333 5.3335H6.33325C6.05325 5.3335 5.81325 5.42683 5.61992 5.62016C5.42659 5.8135 5.33325 6.04683 5.33325 6.3335V11.8335C5.33325 12.1135 5.42659 12.3535 5.61992 12.5468C5.80659 12.7402 6.03992 12.8335 6.32659 12.8335C6.61325 12.8335 6.85325 12.7402 7.04659 12.5468C7.23992 12.3535 7.33325 12.1135 7.33325 11.8335V8.7335L14.9399 16.3402L15.0666 16.4668V25.6668C15.0666 25.9468 15.1599 26.1868 15.3533 26.3802C15.5266 26.5602 15.7399 26.6535 15.9999 26.6602C16.0199 26.6668 16.0399 26.6668 16.0599 26.6668C16.3466 26.6668 16.5866 26.5735 16.7799 26.3802C16.9733 26.1868 17.0666 25.9468 17.0666 25.6668V16.4668C17.0666 16.4268 17.0666 16.3802 17.0666 16.3402H17.0599Z" fill="currentColor"/>
<path opacity="0.85" d="M26.6667 6.3335V11.8335C26.6667 12.1135 26.5733 12.3535 26.3867 12.5468C26.1933 12.7402 25.96 12.8335 25.6733 12.8335C25.3867 12.8335 25.1467 12.7402 24.9533 12.5468C24.76 12.3535 24.6667 12.1135 24.6667 11.8335V8.7335L17.06 16.3402C17.0467 16.1135 16.9933 15.8868 16.9 15.6735C16.7867 15.4268 16.6467 15.2135 16.4667 15.0335L16 14.5668L23.2333 7.3335H20.1667C19.8867 7.3335 19.6467 7.24016 19.4533 7.04683C19.26 6.86016 19.1667 6.62683 19.1667 6.34016C19.1667 6.0535 19.26 5.8135 19.4533 5.62016C19.6467 5.42683 19.8867 5.3335 20.1667 5.3335H25.6667C25.9533 5.3335 26.1867 5.42683 26.38 5.62016C26.5733 5.8135 26.6667 6.04683 26.6667 6.3335Z" fill="currentColor"/>
</svg>
