<svg width="32" height="32" viewBox="0 0 32 32" fill="none" xmlns="http://www.w3.org/2000/svg">
<path opacity="0.5" d="M20.4067 5.55335C19.0467 4.96669 17.56 4.66669 16 4.66669C14.46 4.66669 12.9867 4.96669 11.6267 5.55335C10.2467 6.14669 9.02002 6.96669 7.99335 7.98669C6.96669 9.00002 6.14669 10.2134 5.55335 11.5934C4.96669 12.9534 4.66669 14.46 4.66669 16C4.66669 17.54 4.96669 19.0134 5.55335 20.3734C6.15335 21.7534 6.97335 22.9734 8.00002 24C9.02669 25.0267 10.2467 25.8534 11.6267 26.4467C12.9867 27.0334 14.44 27.3334 16 27.3334C17.56 27.3334 19.0467 27.0334 20.4067 26.4467C21.7867 25.8467 23 25.0267 24.0134 24.0067C25.0334 22.98 25.8467 21.76 26.4467 20.3734C27.0334 19.0134 27.3334 17.56 27.3334 16C27.3334 14.44 27.0334 12.9534 26.4467 11.5934C25.8534 10.2067 25.0334 8.99335 24.02 7.98002C23.0067 6.96669 21.7867 6.14669 20.4067 5.55335Z" fill="#222343"/>
<path d="M16 4.66669C17.56 4.66669 19.0467 4.96669 20.4067 5.55335C21.7867 6.14669 23.0067 6.96669 24.02 7.98002C25.0333 8.99335 25.8533 10.2067 26.4467 11.5934C27.0333 12.9534 27.3334 14.44 27.3334 16C27.3334 17.56 27.0333 19.0134 26.4467 20.3734C25.8467 21.76 25.0334 22.98 24.0134 24.0067C23 25.0267 21.7867 25.8467 20.4067 26.4467C19.0467 27.0334 17.56 27.3334 16 27.3334C14.44 27.3334 12.9867 27.0334 11.6267 26.4467C10.2467 25.8534 9.02669 25.0267 8.00002 24C6.97335 22.9734 6.15335 21.7534 5.55335 20.3734C4.96669 19.0134 4.66669 17.54 4.66669 16C4.66669 14.46 4.96669 12.9534 5.55335 11.5934C6.14669 10.2134 6.96669 9.00002 7.99335 7.98669C9.02002 6.96669 10.2467 6.14669 11.6267 5.55335C12.9867 4.96669 14.46 4.66669 16 4.66669ZM16 2.66669C14.18 2.66669 12.4534 3.01335 10.8334 3.71335C9.21335 4.41335 7.79335 5.36669 6.58002 6.56669C5.36669 7.76669 4.41335 9.18002 3.71335 10.8C3.01335 12.42 2.66669 14.1534 2.66669 16C2.66669 17.8467 3.02002 19.5467 3.71335 21.1667C4.41335 22.7867 5.36669 24.2067 6.58002 25.42C7.79335 26.6334 9.20669 27.5867 10.8334 28.2867C12.46 28.9867 14.18 29.34 16 29.34C17.82 29.34 19.58 28.9867 21.2 28.2867C22.82 27.5867 24.2334 26.6334 25.4334 25.42C26.6334 24.2067 27.5867 22.7934 28.2867 21.1667C28.9867 19.5467 29.3334 17.82 29.3334 16C29.3334 14.18 28.9867 12.42 28.2867 10.8C27.5867 9.18002 26.6334 7.76669 25.4334 6.56669C24.2334 5.36669 22.82 4.42002 21.2 3.71335C19.58 3.01335 17.8467 2.66669 16 2.66669Z" fill="#222343"/>
<path d="M16.7 20.1667L20.1667 16.7C20.5534 16.3134 20.5534 15.6867 20.1667 15.3L16.7 11.8334C16.3134 11.4467 15.6867 11.4467 15.3 11.8334C14.9134 12.22 14.9134 12.8467 15.3 13.2334L17.0667 15H11.9867C11.44 15 11 15.44 11 15.9867V16.0067C11 16.5534 11.44 16.9934 11.9867 16.9934H17.0667L15.3 18.76C14.9134 19.1467 14.9134 19.7734 15.3 20.16C15.6867 20.5467 16.3134 20.5467 16.7 20.16V20.1667Z" fill="#222343"/>
</svg>
