<svg width="32" height="32" viewBox="0 0 32 32" fill="none" xmlns="http://www.w3.org/2000/svg">
<path d="M27.6001 7.99998C27.6001 8.26665 27.5001 8.49998 27.3001 8.69998L23.8334 12.1667C23.6334 12.3667 23.4001 12.4667 23.1334 12.4667C22.8668 12.4667 22.6334 12.3667 22.4334 12.1667C22.2334 11.9667 22.1268 11.7267 22.1134 11.4467C22.1068 11.1733 22.2001 10.9333 22.4001 10.7333L24.1334 8.99998H21.3334C20.1334 8.99998 19.1134 9.41998 18.2668 10.2667C17.4201 11.1133 17.0001 12.1333 17.0001 13.3333V19.3666C17.0001 20.9867 16.4401 22.3867 15.3201 23.5533C14.1934 24.72 12.8201 25.32 11.2001 25.3667C11.2001 25.3667 11.2001 25.36 11.1868 25.36C11.2801 25.0333 11.3334 24.6867 11.3334 24.3333C11.3334 24 11.2868 23.6733 11.2001 23.3666C12.2668 23.32 13.1668 22.9133 13.9001 22.1333C14.6334 21.3533 15.0001 20.4333 15.0001 19.3666V13.3333C15.0001 11.58 15.6134 10.08 16.8534 8.84665C18.0801 7.61332 19.5801 6.99998 21.3334 6.99998H24.1334L22.4001 5.26665C22.2001 5.06665 22.1068 4.83332 22.1134 4.56665C22.1268 4.29998 22.2334 4.06665 22.4334 3.86665C22.6334 3.66665 22.8668 3.56665 23.1334 3.56665C23.4001 3.56665 23.6334 3.66665 23.8334 3.86665L27.3001 7.29998C27.5001 7.49998 27.6001 7.73332 27.6001 7.99998Z" fill="currentColor"/>
<g opacity="0.85">
<path d="M24.5 25.9L23.0667 27.3C22.8667 27.48 22.6333 27.5733 22.3667 27.5866C22.1 27.6 21.8667 27.5 21.6667 27.3C21.4667 27.1 21.3733 26.8666 21.38 26.6C21.3867 26.3333 21.4867 26.1 21.6667 25.9L23.0667 24.4666L21.6667 23.0666C21.4667 22.8666 21.3667 22.6333 21.3667 22.3666C21.3667 22.1 21.4667 21.8666 21.6667 21.6666C21.8667 21.4666 22.1 21.3666 22.3667 21.3666C22.6333 21.3666 22.8667 21.4666 23.0667 21.6666L24.5 23.0666L25.9 21.6666C26.1 21.4666 26.3333 21.36 26.6 21.3466C26.8667 21.3333 27.1 21.4333 27.3 21.6333C27.5 21.8333 27.6 22.0733 27.6 22.3533C27.6 22.6333 27.5 22.8733 27.3 23.0733L25.9 24.4733L27.3 25.9066C27.5 26.1066 27.6 26.34 27.6 26.6066C27.6 26.8733 27.5 27.1066 27.3 27.3066C27.1 27.5066 26.8667 27.6066 26.6 27.6066C26.3333 27.6066 26.1 27.5066 25.9 27.3066L24.5 25.9066V25.9Z" fill="currentColor"/>
<path d="M7.53333 8.96662L6.1 10.3666C5.9 10.5466 5.66667 10.64 5.4 10.6533C5.13333 10.6666 4.9 10.5666 4.7 10.3666C4.5 10.1666 4.40667 9.93329 4.41333 9.66662C4.42 9.39995 4.52 9.16662 4.7 8.96662L6.1 7.53329L4.7 6.13329C4.5 5.93329 4.4 5.69995 4.4 5.43329C4.4 5.16662 4.5 4.93329 4.7 4.73329C4.9 4.53329 5.13333 4.43329 5.4 4.43329C5.66667 4.43329 5.9 4.53329 6.1 4.73329L7.53333 6.13329L8.93333 4.73329C9.13333 4.53329 9.36667 4.42662 9.63333 4.41329C9.9 4.39996 10.1333 4.49996 10.3333 4.69996C10.5333 4.89996 10.6333 5.13996 10.6333 5.41996C10.6333 5.69996 10.5333 5.93996 10.3333 6.13996L8.93333 7.53996L10.3333 8.97329C10.5333 9.17329 10.6333 9.40662 10.6333 9.67329C10.6333 9.93995 10.5333 10.1733 10.3333 10.3733C10.1333 10.5733 9.9 10.6733 9.63333 10.6733C9.36667 10.6733 9.13333 10.5733 8.93333 10.3733L7.53333 8.97329V8.96662Z" fill="currentColor"/>
<path d="M11.2 23.3666C11.1733 23.2666 11.14 23.1666 11.1067 23.0733C11.08 22.9866 11.0467 22.9066 11.0067 22.8266C10.9733 22.7466 10.9333 22.6666 10.8867 22.5866C10.8333 22.48 10.7733 22.38 10.7067 22.2866C10.5733 22.0866 10.42 21.9066 10.26 21.74C9.76 21.2466 9.12 20.8866 8.40667 20.74C8.28667 20.72 8.16667 20.7 8.04 20.6866C7.92 20.6733 7.79333 20.6666 7.66667 20.6666C5.64667 20.6666 4 22.3133 4 24.3333C4 26.3533 5.64667 28 7.66667 28C7.8 28 7.93333 27.9933 8.06667 27.9733C8.16667 27.9733 8.26667 27.9533 8.36667 27.9333C8.39333 27.9333 8.42 27.92 8.45333 27.9133C8.55333 27.8933 8.66 27.8666 8.76 27.8333C8.87333 27.8 8.98667 27.76 9.09333 27.7133H9.1C9.32 27.6133 9.52 27.5 9.71333 27.3733C9.81333 27.3066 9.90667 27.24 10 27.16C10.08 27.0933 10.16 27.0266 10.2333 26.9466C10.26 26.9266 10.28 26.9 10.3133 26.8733C10.4533 26.72 10.5867 26.56 10.7067 26.38C10.9133 26.0733 11.08 25.7266 11.1867 25.36C11.28 25.0333 11.3333 24.6866 11.3333 24.3333C11.3333 24 11.2867 23.6733 11.2 23.3666ZM9.32667 24.5066C9.28667 24.8933 9.10667 25.2533 8.84667 25.5133C8.62 25.74 8.32667 25.9 8 25.9666C7.89333 25.9866 7.78 26 7.66667 26C7.55333 26 7.44 25.9866 7.33333 25.9666C7.06 25.9133 6.81333 25.7933 6.61333 25.6266C6.52667 25.5533 6.44667 25.4733 6.37333 25.3866C6.20667 25.1866 6.08667 24.94 6.03333 24.6666C6.01333 24.56 6 24.4466 6 24.3333C6 24.22 6.01333 24.1066 6.03333 24C6.1 23.6733 6.26 23.38 6.48667 23.1533C6.74667 22.8933 7.10667 22.7133 7.49333 22.6733C7.55333 22.6666 7.60667 22.6666 7.66667 22.6666C7.72667 22.6666 7.78 22.6666 7.84 22.6733C8.62 22.7533 9.24667 23.38 9.32667 24.16C9.33333 24.22 9.33333 24.2733 9.33333 24.3333C9.33333 24.3933 9.33333 24.4466 9.32667 24.5066Z" fill="currentColor"/>
</g>
</svg>
