<svg width="32" height="32" viewBox="0 0 32 32" fill="none" xmlns="http://www.w3.org/2000/svg">
<path d="M6.46658 21.2335L9.79991 24.5669C9.99991 24.7669 10.0999 25.0002 10.0999 25.2735C10.0999 25.5469 10.0066 25.7802 9.81324 25.9735C9.60658 26.1669 9.36658 26.2669 9.09991 26.2669C8.83324 26.2669 8.59991 26.1669 8.40658 25.9669L3.37324 20.9335C3.25991 20.8202 3.18658 20.7069 3.13991 20.5935C3.09324 20.4802 3.07324 20.3602 3.07324 20.2269C3.07324 20.0935 3.09324 19.9735 3.13991 19.8669C3.18658 19.7602 3.25991 19.6469 3.37324 19.5335L8.40658 14.5002C8.60658 14.3002 8.83991 14.2002 9.10658 14.2002C9.37324 14.2002 9.61324 14.3002 9.81991 14.5002C10.0132 14.7002 10.1066 14.9335 10.1066 15.2002C10.1066 15.4669 10.0066 15.7002 9.80658 15.9002L6.47324 19.2335H16.0066C16.2932 19.2335 16.5266 19.3269 16.7199 19.5202C16.9132 19.7135 17.0066 19.9535 17.0066 20.2402C17.0066 20.5269 16.9132 20.7602 16.7199 20.9535C16.5266 21.1402 16.2932 21.2402 16.0066 21.2402H6.47324L6.46658 21.2335Z" fill="currentColor"/>
<path opacity="0.85" d="M25.5333 12.7666H16C15.7133 12.7666 15.48 12.6732 15.2867 12.4799C15.0933 12.2866 15 12.0466 15 11.7599C15 11.4732 15.0933 11.2399 15.2867 11.0466C15.48 10.8599 15.7133 10.7599 16 10.7599H25.5333L22.2 7.42656C22 7.22656 21.9 6.99323 21.9 6.7199C21.9 6.44656 21.9933 6.21323 22.1867 6.0199C22.3933 5.82656 22.6333 5.72656 22.9 5.72656C23.1667 5.72656 23.4 5.82656 23.6 6.02656L28.6333 11.0599C28.7467 11.1732 28.82 11.2866 28.8667 11.3999C28.9133 11.5132 28.9333 11.6332 28.9333 11.7666C28.9333 11.8999 28.9133 12.0199 28.8667 12.1266C28.82 12.2332 28.7467 12.3466 28.6333 12.4599L23.6 17.4932C23.4 17.6932 23.1667 17.7932 22.9 17.7932C22.6333 17.7932 22.3933 17.6932 22.1867 17.4932C21.9933 17.2932 21.9 17.0599 21.9 16.7932C21.9 16.5266 22 16.2932 22.2 16.0932L25.5333 12.7599V12.7666Z" fill="currentColor"/>
</svg>
