<svg width="32" height="32" viewBox="0 0 32 32" fill="none" xmlns="http://www.w3.org/2000/svg">
<g clip-path="url(#clip0_4016_5604)">
<path opacity="0.85" d="M25.9467 10.6666L27 8.33328L29.3334 7.27994C29.8534 7.03994 29.8534 6.30661 29.3334 6.06661L27 5.01328L25.9467 2.66661C25.7067 2.14661 24.9734 2.14661 24.7334 2.66661L23.68 4.99994L21.3334 6.05328C20.8134 6.29328 20.8134 7.02661 21.3334 7.26661L23.6667 8.31994L24.72 10.6666C24.96 11.1866 25.7067 11.1866 25.9467 10.6666Z" fill="currentColor"/>
<path opacity="0.85" d="M15.3333 12.6666L13.2133 7.99997C12.7466 6.95997 11.2533 6.95997 10.7866 7.99997L8.66664 12.6666L3.99997 14.7866C2.95997 15.2666 2.95997 16.7466 3.99997 17.2133L8.66664 19.3333L10.7866 24C11.2666 25.04 12.7466 25.04 13.2133 24L15.3333 19.3333L20 17.2133C21.04 16.7333 21.04 15.2533 20 14.7866L15.3333 12.6666Z" fill="currentColor"/>
<path opacity="0.52" d="M24.72 21.3334L23.6667 23.6667L21.3334 24.72C20.8134 24.96 20.8134 25.6934 21.3334 25.9334L23.6667 26.9867L24.72 29.3334C24.96 29.8534 25.6934 29.8534 25.9334 29.3334L26.9867 27L29.3334 25.9467C29.8534 25.7067 29.8534 24.9734 29.3334 24.7334L27 23.68L25.9467 21.3334C25.7067 20.8134 24.96 20.8134 24.72 21.3334Z" fill="currentColor"/>
</g>
<defs>
<clipPath id="clip0_4016_5604">
<rect width="32" height="32" fill="white"/>
</clipPath>
</defs>
</svg>
