<svg width="32" height="32" viewBox="0 0 32 32" fill="none" xmlns="http://www.w3.org/2000/svg">
<path opacity="0.52" d="M19.4804 5.3333C19.047 3.81997 17.6537 2.71997 16.0004 2.71997C14.347 2.71997 12.9537 3.81997 12.5204 5.3333C12.427 5.64664 12.3804 5.98664 12.3804 6.3333C12.3804 6.67997 12.427 7.0133 12.5204 7.3333C12.8604 8.52664 13.807 9.4733 15.0004 9.8133C15.3204 9.90664 15.6537 9.9533 16.0004 9.9533C16.347 9.9533 16.6804 9.90664 17.0004 9.8133C18.1937 9.4733 19.1404 8.52664 19.4804 7.3333C19.5737 7.0133 19.6204 6.67997 19.6204 6.3333C19.6204 5.98664 19.5737 5.64664 19.4804 5.3333Z" fill="#222343"/>
<g opacity="0.85">
<path d="M11.2536 17.4866C11.2202 17.1866 11.1469 16.9133 11.0336 16.6733L7.00024 6.93994L2.96691 16.6733C2.85357 16.9199 2.78024 17.1866 2.74691 17.4866C2.71357 17.7866 2.72024 18.0266 2.76691 18.2066C2.98691 19.0066 3.49357 19.6733 4.28024 20.2066C5.06691 20.7399 5.97357 21.0066 7.00024 21.0066C8.02691 21.0066 8.92691 20.7399 9.72024 20.2066C10.5136 19.6733 11.0136 19.0066 11.2402 18.2066C11.2869 18.0266 11.2869 17.7933 11.2536 17.4866ZM9.14024 17.3333H4.85357L6.99357 12.1599L9.13357 17.3333H9.14024Z" fill="#222343"/>
<path d="M29.2536 17.4866C29.2202 17.1866 29.1469 16.9133 29.0336 16.6733L25.0002 6.93994L20.9669 16.6733C20.8536 16.9199 20.7802 17.1866 20.7469 17.4866C20.7136 17.7866 20.7202 18.0266 20.7669 18.2066C20.9869 19.0066 21.4936 19.6733 22.2802 20.2066C23.0669 20.7399 23.9736 21.0066 25.0002 21.0066C26.0269 21.0066 26.9269 20.7399 27.7202 20.2066C28.5069 19.6733 29.0136 19.0066 29.2336 18.2066C29.2802 18.0266 29.2869 17.7933 29.2536 17.4866ZM27.1402 17.3333H22.8536L24.9936 12.1599L27.1336 17.3333H27.1402Z" fill="#222343"/>
<path d="M17.0002 9.81323V25.9666H15.0002V9.81323C15.3202 9.90657 15.6536 9.95323 16.0002 9.95323C16.3469 9.95323 16.6802 9.90657 17.0002 9.81323Z" fill="#222343"/>
</g>
<path d="M28.0002 6.33325C28.0002 6.88659 27.5536 7.33325 27.0002 7.33325H19.4802C19.5736 7.01325 19.6202 6.67992 19.6202 6.33325C19.6202 5.98659 19.5736 5.64659 19.4802 5.33325H27.0002C27.5536 5.33325 28.0002 5.77992 28.0002 6.33325Z" fill="#222343"/>
<path d="M12.3803 6.33325C12.3803 6.67992 12.427 7.01325 12.5203 7.33325H5.01367C4.46034 7.33325 4.01367 6.88659 4.01367 6.33325C4.01367 5.77992 4.46034 5.33325 5.01367 5.33325H12.5203C12.427 5.64659 12.3803 5.98659 12.3803 6.33325Z" fill="#222343"/>
<path d="M29.3337 26.9666C29.3337 27.5132 28.887 27.9666 28.3337 27.9666H3.66699C3.11366 27.9666 2.66699 27.5132 2.66699 26.9666C2.66699 26.4199 3.11366 25.9666 3.66699 25.9666H28.3337C28.887 25.9666 29.3337 26.4132 29.3337 26.9666Z" fill="#222343"/>
<path d="M16.0002 7.96012C16.8986 7.96012 17.6269 7.23184 17.6269 6.33345C17.6269 5.43507 16.8986 4.70679 16.0002 4.70679C15.1018 4.70679 14.3735 5.43507 14.3735 6.33345C14.3735 7.23184 15.1018 7.96012 16.0002 7.96012Z" fill="#222343"/>
</svg>
