<svg width="32" height="32" viewBox="0 0 32 32" fill="none" xmlns="http://www.w3.org/2000/svg">
<g clip-path="url(#clip0_4016_5487)">
<path opacity="0.85" fill-rule="evenodd" clip-rule="evenodd" d="M21.42 26.0001C21.52 26.7267 21.7134 27.3935 22.0001 28.0001H3.66675C3.11348 28.0001 2.66685 27.5534 2.66675 27.0001C2.66675 26.4468 3.11341 26.0001 3.66675 26.0001H6.00008V10.6733H3.66675C3.11344 10.6733 2.66679 10.2266 2.66675 9.67331V9.36016C2.66675 8.54026 3.16667 7.80687 3.92651 7.50014L15.2533 2.96628C15.7333 2.77296 16.2603 2.77295 16.7403 2.96628L28.0736 7.50014C28.8335 7.80687 29.3334 8.54026 29.3334 9.36016V9.67331C29.3334 10.2266 28.8867 10.6733 28.3334 10.6733H26.0001V19.0203L23.3334 20.3537V10.6733H17.3334V26.0001H21.42ZM14.6667 26.0001V10.6733H8.66675V26.0001H14.6667Z" fill="currentColor"/>
<path d="M31.8534 21.4466C31.7534 21.28 31.6134 21.1533 31.4334 21.0666L27.1001 18.9C26.9667 18.8333 26.8201 18.8 26.6601 18.8C26.5001 18.8 26.3601 18.8333 26.2334 18.9L26.0001 19.02L23.3334 20.3533L21.9001 21.0666C21.7201 21.1533 21.5867 21.28 21.4867 21.4466C21.3867 21.6133 21.3334 21.7866 21.3334 21.9666V24.7333C21.3334 25.1733 21.3601 25.6 21.4201 26C21.5201 26.7266 21.7134 27.3933 22.0001 28C22.1801 28.3866 22.4001 28.7533 22.6534 29.1C23.5267 30.28 24.7334 31.1866 26.2668 31.8333L26.6667 31.9C26.8467 31.9 26.9801 31.88 27.0667 31.8333C28.6001 31.1866 29.8067 30.28 30.6867 29.1C31.5601 27.92 32.0001 26.4666 32.0001 24.7333V21.9666C32.0001 21.7866 31.9534 21.6133 31.8534 21.4466ZM30.2334 23.7333L26.6667 27.3C26.4667 27.5 26.2334 27.6 25.9667 27.6C25.7001 27.6 25.4667 27.5 25.2668 27.3L23.5334 25.5666C23.4001 25.4333 23.3334 25.28 23.3334 25.1C23.3334 24.92 23.4001 24.7666 23.5334 24.6333C23.6667 24.5 23.8201 24.4333 24.0001 24.4333C24.1801 24.4333 24.3334 24.5 24.4667 24.6333L25.9667 26.1333L29.3001 22.8C29.4334 22.6666 29.5868 22.6 29.7668 22.6C29.9468 22.6 30.1001 22.6666 30.2334 22.8C30.3667 22.9333 30.4334 23.0866 30.4334 23.2666C30.4334 23.4466 30.3667 23.6 30.2334 23.7333Z" fill="currentColor"/>
<path d="M8.00008 12.6666H6.66675C5.56008 12.6666 4.66675 11.7733 4.66675 10.6666H10.0001C10.0001 11.7733 9.10675 12.6666 8.00008 12.6666Z" fill="currentColor"/>
<path d="M13.3334 10.6666H18.6667C18.6667 11.7733 17.7734 12.6666 16.6667 12.6666H15.3334C14.2267 12.6666 13.3334 11.7733 13.3334 10.6666Z" fill="currentColor"/>
<path d="M27.3334 10.6666C27.3334 11.22 27.1067 11.72 26.7467 12.08C26.5401 12.2866 26.2867 12.4533 26.0001 12.5466C25.7934 12.6266 25.5667 12.6666 25.3334 12.6666H24.0001C23.7667 12.6666 23.5401 12.6266 23.3334 12.5466C22.5534 12.28 22.0001 11.54 22.0001 10.6666H27.3334Z" fill="currentColor"/>
<path d="M10.0001 26H4.66675C4.66675 25.4466 4.89341 24.9466 5.25341 24.5866C5.46008 24.38 5.71341 24.2133 6.00008 24.12C6.20675 24.04 6.43341 24 6.66675 24H8.00008C8.23341 24 8.46008 24.04 8.66675 24.12C9.44675 24.3866 10.0001 25.1266 10.0001 26Z" fill="currentColor"/>
<path d="M18.6667 26H13.3334C13.3334 25.4466 13.5601 24.9466 13.9201 24.5866C14.1267 24.38 14.3801 24.2133 14.6667 24.12C14.8734 24.04 15.1001 24 15.3334 24H16.6667C16.9001 24 17.1267 24.04 17.3334 24.12C18.1134 24.3866 18.6667 25.1266 18.6667 26Z" fill="currentColor"/>
</g>
<defs>
<clipPath id="clip0_4016_5487">
<rect width="32" height="32" fill="white"/>
</clipPath>
</defs>
</svg>
