<svg width="32" height="32" viewBox="0 0 32 32" fill="none" xmlns="http://www.w3.org/2000/svg">
<path opacity="0.32" d="M16.3933 5.30672C16.2467 5.20005 16.1 5.18005 16 5.18005C15.9 5.18005 15.7533 5.20005 15.6067 5.30672L4.92666 13.0601C4.69333 13.2334 4.6 13.5334 4.68666 13.8067L8.76666 26.3667C8.85333 26.6401 9.11333 26.8267 9.4 26.8267H22.6C22.8867 26.8267 23.1467 26.6401 23.2333 26.3667L27.3133 13.8134C27.4067 13.5334 27.3067 13.2401 27.0733 13.0667L16.3933 5.30672Z" fill="#222343"/>
<path d="M11.3133 18.1933C11.3133 18.4 11.3667 18.8467 11.48 19.2067C11.82 20.2933 13.0133 21.1533 14.1267 21.2467H14.16C13.6267 20.8933 13.2667 20.4267 13.08 19.9133C12.5933 18.5867 13.4867 16.8733 14.94 16.2733C16.12 15.7867 17.5 16.1133 18.3733 16.9533C19.38 17.92 19.3467 19.2 19.3333 19.4C19.3267 19.58 19.26 20.6267 18.4467 21.4733C17.1867 22.7867 15.22 22.4933 14.6067 22.4C14.4467 22.3733 13.68 22.2533 12.7867 21.8C12.2467 21.52 11.7467 21.1667 11.3067 20.7467C11.3733 20.9 12.6333 23.62 15.4933 23.9667C15.8333 24.0067 17.72 24.2 19.3 22.8667C20.5733 21.7933 20.8533 20.4 20.9133 20.04C21.06 19.1733 20.96 18.28 20.6333 17.46C20.3933 16.86 20.0333 16.32 19.5733 15.86C18.24 14.5467 16.5533 14.4733 16.3 14.4667C15.0867 14.4333 13.86 14.84 12.9467 15.6733C12.9467 14.1 12.94 12.52 12.9333 10.9467C12.7933 10.2067 11.8467 9.73334 11.28 9.86C11.28 16.84 11.3 14.2467 11.28 17.1333L11.2933 18.1933H11.3133Z" fill="#222343"/>
<path d="M16 5.18005C16.1 5.18005 16.2467 5.20005 16.3933 5.30672L27.0733 13.0667C27.3067 13.2401 27.4067 13.5334 27.3133 13.8134L23.2333 26.3667C23.1467 26.6401 22.8867 26.8267 22.6 26.8267H9.4C9.11333 26.8267 8.85333 26.6401 8.76667 26.3667L4.68667 13.8067C4.6 13.5334 4.69333 13.2334 4.92667 13.0601L15.6067 5.30672C15.7533 5.20005 15.9 5.18005 16 5.18005ZM16 3.18005C15.4467 3.18005 14.9 3.34672 14.4333 3.68672L3.75333 11.4467C2.82 12.1267 2.42667 13.3267 2.78667 14.4267L6.86667 26.9801C7.22667 28.0801 8.24667 28.8201 9.4 28.8201H22.6C23.7533 28.8201 24.78 28.0734 25.1333 26.9801L29.2133 14.4267C29.5733 13.3267 29.18 12.1267 28.2467 11.4467L17.5667 3.68672C17.1 3.34672 16.5467 3.18005 16 3.18005Z" fill="#222343"/>
</svg>
