<svg width="32" height="32" viewBox="0 0 32 32" fill="none" xmlns="http://www.w3.org/2000/svg">
<path opacity="0.85" d="M12.6667 2.66675C8.61337 2.66675 5.33337 5.94675 5.33337 10.0001C5.33337 14.0534 8.61337 17.3334 12.6667 17.3334C16.72 17.3334 20 14.0534 20 10.0001C20 5.94675 16.72 2.66675 12.6667 2.66675ZM14.8734 12.6934C14.5134 13.0601 14.0334 13.3001 13.4334 13.4134V13.8867C13.4334 14.0867 13.3734 14.2467 13.2467 14.3667C13.12 14.4867 12.96 14.5467 12.76 14.5467C12.56 14.5467 12.4 14.4867 12.2734 14.3667C12.1467 14.2467 12.0867 14.0867 12.0867 13.8867V13.4534C11.3734 13.3667 10.76 13.1534 10.2534 12.8267C10.14 12.7534 10.0534 12.6734 10.0067 12.5867C9.96004 12.5001 9.93337 12.3801 9.93337 12.2267C9.93337 12.0334 9.98671 11.8667 10.1 11.7267C10.2134 11.5867 10.3467 11.5134 10.5 11.5134C10.58 11.5134 10.6534 11.5267 10.7334 11.5534C10.8134 11.5801 10.9134 11.6267 11.0334 11.7001C11.3134 11.8534 11.58 11.9667 11.8267 12.0267C12.0734 12.0867 12.3334 12.1201 12.6067 12.1201C12.9467 12.1201 13.2067 12.0667 13.38 11.9534C13.56 11.8401 13.6467 11.6734 13.6467 11.4467C13.6467 11.3134 13.5934 11.2001 13.4867 11.1134C13.38 11.0267 13.2467 10.9601 13.0934 10.9067C12.94 10.8534 12.7067 10.7934 12.4067 10.7134C11.9267 10.5934 11.5267 10.4667 11.22 10.3401C10.9134 10.2134 10.6467 10.0201 10.42 9.75342C10.1934 9.48675 10.08 9.12675 10.08 8.68008C10.08 8.16675 10.26 7.72008 10.62 7.34008C10.98 6.96008 11.4534 6.70675 12.0467 6.58675V6.10675C12.0467 5.91341 12.1134 5.75341 12.24 5.62675C12.3667 5.50008 12.5267 5.44008 12.72 5.44008C12.9134 5.44008 13.08 5.50008 13.2067 5.62675C13.3334 5.74675 13.3934 5.90675 13.3934 6.10675V6.56008C13.9267 6.64675 14.4467 6.84675 14.9534 7.16675C15.0667 7.24675 15.1534 7.32675 15.2 7.42008C15.2467 7.51341 15.2734 7.62675 15.2734 7.76008C15.2734 7.95342 15.2134 8.12008 15.1 8.26008C14.9867 8.40008 14.8467 8.47341 14.6934 8.47341C14.6134 8.47341 14.54 8.46008 14.4734 8.43341C14.4 8.40675 14.3 8.36008 14.1667 8.28675C14.12 8.26008 14.02 8.20675 13.8667 8.12675C13.7134 8.04675 13.5467 7.98008 13.3667 7.93341C13.1934 7.88675 13 7.86008 12.8 7.86008C12.5134 7.86008 12.2734 7.92008 12.0934 8.04675C11.9134 8.17341 11.8267 8.34008 11.8267 8.55341C11.8267 8.76675 11.9267 8.91342 12.1334 9.01342C12.34 9.11342 12.66 9.22008 13.1067 9.32008C13.58 9.42675 13.9734 9.54675 14.28 9.66675C14.5867 9.78675 14.8467 9.98675 15.0734 10.2534C15.3 10.5201 15.4067 10.8867 15.4067 11.3401C15.4067 11.8601 15.2267 12.3067 14.8734 12.6734V12.6934Z" fill="currentColor"/>
<path opacity="0.2" d="M14.28 9.68663C13.9733 9.56663 13.5867 9.44663 13.1067 9.33996C12.66 9.23996 12.34 9.13329 12.1334 9.03329C11.9267 8.93329 11.8267 8.77329 11.8267 8.57329C11.8267 8.37329 11.9133 8.19329 12.0933 8.06663C12.2733 7.93996 12.5067 7.87996 12.8 7.87996C13 7.87996 13.1867 7.90663 13.3667 7.95329C13.5467 7.99996 13.7067 8.06663 13.8667 8.14663C14.02 8.22663 14.12 8.27996 14.1667 8.30663C14.3 8.37996 14.4067 8.42663 14.4733 8.45329C14.5467 8.47996 14.62 8.49329 14.6934 8.49329C14.8467 8.49329 14.98 8.41996 15.1 8.27996C15.22 8.13996 15.2733 7.97329 15.2733 7.77996C15.2733 7.64663 15.2467 7.53329 15.2 7.43996C15.1533 7.34663 15.0667 7.25996 14.9533 7.18663C14.4467 6.86663 13.9267 6.65996 13.3933 6.57996V6.12663C13.3933 5.92663 13.3333 5.76663 13.2067 5.64663C13.08 5.52663 12.92 5.45996 12.72 5.45996C12.52 5.45996 12.3667 5.51996 12.24 5.64663C12.1134 5.77329 12.0467 5.93329 12.0467 6.12663V6.60663C11.4533 6.72663 10.98 6.97996 10.62 7.35996C10.26 7.73996 10.08 8.18663 10.08 8.69996C10.08 9.14663 10.1933 9.50663 10.42 9.77329C10.6467 10.04 10.9133 10.2333 11.22 10.36C11.5267 10.4866 11.9267 10.6066 12.4067 10.7333C12.7067 10.8133 12.94 10.8733 13.0933 10.9266C13.2467 10.98 13.38 11.0466 13.4867 11.1333C13.5933 11.22 13.6467 11.3333 13.6467 11.4666C13.6467 11.6933 13.56 11.86 13.38 11.9733C13.2 12.0866 12.9467 12.14 12.6067 12.14C12.3267 12.14 12.0667 12.1066 11.8267 12.0466C11.5867 11.9866 11.32 11.8733 11.0333 11.72C10.9133 11.6466 10.8134 11.6 10.7334 11.5733C10.6534 11.5466 10.58 11.5333 10.5 11.5333C10.3467 11.5333 10.2133 11.6066 10.1 11.7466C9.98668 11.8866 9.93335 12.0533 9.93335 12.2466C9.93335 12.3933 9.96002 12.5133 10.0067 12.6066C10.0534 12.7 10.14 12.78 10.2533 12.8466C10.76 13.1733 11.3733 13.3866 12.0867 13.4733V13.9066C12.0867 14.1066 12.1467 14.2666 12.2733 14.3866C12.4 14.5066 12.56 14.5666 12.76 14.5666C12.96 14.5666 13.12 14.5066 13.2467 14.3866C13.3734 14.2666 13.4333 14.1066 13.4333 13.9066V13.4333C14.04 13.32 14.52 13.0733 14.8733 12.7133C15.2267 12.3533 15.4067 11.9066 15.4067 11.38C15.4067 10.9266 15.2933 10.56 15.0733 10.2933C14.8533 10.0266 14.5867 9.82663 14.28 9.70663V9.68663Z" fill="currentColor"/>
<path d="M18.0333 22.36L16.2867 26.26C16.2 26.4467 16.0667 26.6 15.8933 26.7067L11.8933 29.1467C11.7333 29.2467 11.5533 29.2933 11.3733 29.2933C11.04 29.2933 10.7067 29.1267 10.52 28.8133C10.2333 28.3467 10.38 27.7267 10.8533 27.44L14.5867 25.16L16.9133 19.96C16.9133 19.96 16.9267 19.9267 16.94 19.9133C16.6267 20.8733 17.0867 21.94 18.0333 22.36Z" fill="currentColor"/>
<path d="M24 14C25.1046 14 26 13.1046 26 12C26 10.8954 25.1046 10 24 10C22.8954 10 22 10.8954 22 12C22 13.1046 22.8954 14 24 14Z" fill="currentColor"/>
<path opacity="0.85" d="M24.3001 28.2001L23.6601 22.9401C23.6134 22.5734 23.3667 22.2601 23.0201 22.1267L20.2001 21.0601L22.5601 16.9667C23.1467 15.9601 22.7467 14.6667 21.6934 14.1667L20.8601 13.7667C20.8601 13.7667 20.8401 13.7667 20.8334 13.7601C20.7067 13.7001 20.5667 13.6667 20.4201 13.6667H16.5001C16.2801 13.6667 16.0667 13.7401 15.8934 13.8734L13.2734 15.8734C12.8334 16.2067 12.7534 16.8334 13.0867 17.2734C13.2867 17.5334 13.5801 17.6667 13.8801 17.6667C14.0934 17.6667 14.3067 17.6001 14.4867 17.4601L16.8401 15.6667H19.3401L17.1134 19.5267C17.0401 19.6534 16.9867 19.7801 16.9467 19.9134C16.6534 20.8134 17.0467 21.8067 17.8801 22.2734C17.9534 22.3267 18.0334 22.3801 18.1201 22.4134L21.7534 23.7867L22.3201 28.4467C22.3801 28.9534 22.8134 29.3267 23.3134 29.3267C23.3534 29.3267 23.3934 29.3267 23.4334 29.3201C23.9801 29.2534 24.3734 28.7534 24.3067 28.2067L24.3001 28.2001Z" fill="currentColor"/>
</svg>
