<svg width="32" height="32" viewBox="0 0 32 32" fill="none" xmlns="http://www.w3.org/2000/svg">
<g opacity="0.85">
<path d="M20.3333 9.33341C19.6667 9.33341 19.1333 9.13341 18.6667 8.66675C18.2 8.20008 18 7.66675 18 7.00008C18 6.33341 18.2 5.80008 18.6667 5.33341C19.1333 4.86675 19.6667 4.66675 20.3333 4.66675C21 4.66675 21.5333 4.86675 22 5.33341C22.4667 5.80008 22.6667 6.33341 22.6667 7.00008C22.6667 7.66675 22.4667 8.20008 22 8.66675C21.5333 9.13341 21 9.33341 20.3333 9.33341Z" fill="#222343"/>
<path d="M14.0668 15.0668L16.4001 17.4001C16.6001 17.6001 16.7334 17.8001 16.8668 18.0668C16.9334 18.3335 17.0001 18.5335 17.0001 18.8001V23.0668C17.0001 23.3335 16.9334 23.6001 16.7334 23.8001C16.5334 24.0001 16.3334 24.0668 16.0001 24.0668C15.6668 24.0668 15.4668 24.0001 15.2668 23.8001C15.0668 23.6001 15.0001 23.4001 15.0001 23.0668V18.8001L11.2668 15.0668C11.0668 14.9335 10.9334 14.7335 10.8001 14.5335C10.6668 14.3335 10.6001 14.0668 10.6001 13.8668C10.6001 13.6668 10.6001 13.2668 10.7334 13.0001C10.8668 12.7335 11.0001 12.4668 11.2001 12.2668L14.5334 8.93348C14.7334 8.73348 14.9334 8.60015 15.2001 8.53348C15.4668 8.46681 15.6668 8.40015 15.9334 8.40015C16.2001 8.40015 16.6001 8.46681 16.8668 8.66681C17.1334 8.80015 17.4001 9.00015 17.6668 9.26681L19.6668 11.4668C20.1334 11.9335 20.6001 12.3335 21.2001 12.6668C21.8001 13.0001 22.3334 13.2001 22.9334 13.2668C23.2001 13.2668 23.4668 13.4668 23.6668 13.6668C23.8668 13.8668 23.9334 14.0668 23.9334 14.4001C23.9334 14.7335 23.8001 14.9335 23.6001 15.1335C23.4001 15.3335 23.1334 15.4001 22.9334 15.4001C22.0001 15.2668 21.1334 15.0001 20.2668 14.6001C19.4668 14.2001 18.7334 13.6001 18.1334 12.9335L17.2668 11.9335L13.9334 15.2668L14.0668 15.0668Z" fill="#222343"/>
</g>
<path d="M11.8001 18.2001C10.7334 17.1334 9.46675 16.6667 8.00008 16.6667C6.53341 16.6667 5.26675 17.2001 4.20008 18.2001C3.13341 19.2667 2.66675 20.5334 2.66675 22.0001C2.66675 23.4667 3.20008 24.7334 4.20008 25.8001C5.26675 26.8667 6.53341 27.3334 8.00008 27.3334C9.46675 27.3334 10.7334 26.8001 11.8001 25.8001C12.8667 24.7334 13.3334 23.4667 13.3334 22.0001C13.3334 20.5334 12.8001 19.2667 11.8001 18.2001ZM10.3334 24.4001C9.66675 25.0667 8.86675 25.4001 7.93341 25.4001C7.00008 25.4001 6.20008 25.0667 5.53341 24.4001C4.86675 23.7334 4.53341 22.9334 4.53341 22.0001C4.53341 21.0667 4.86675 20.2667 5.53341 19.6001C6.20008 18.9334 7.00008 18.6001 7.93341 18.6001C8.86675 18.6001 9.66675 18.9334 10.3334 19.6001C11.0001 20.2667 11.3334 21.0667 11.3334 22.0001C11.3334 22.9334 11.0001 23.7334 10.3334 24.4001Z" fill="#222343"/>
<path d="M27.8001 18.2001C26.7334 17.1334 25.4667 16.6667 24.0001 16.6667C22.5334 16.6667 21.2667 17.2001 20.2001 18.2001C19.1334 19.2667 18.6667 20.5334 18.6667 22.0001C18.6667 23.4667 19.2001 24.7334 20.2001 25.8001C21.2667 26.8667 22.5334 27.3334 24.0001 27.3334C25.4667 27.3334 26.7334 26.8001 27.8001 25.8001C28.8667 24.7334 29.3334 23.4667 29.3334 22.0001C29.3334 20.5334 28.8001 19.2667 27.8001 18.2001ZM26.4001 24.4001C25.7334 25.0667 24.9334 25.4001 24.0001 25.4001C23.0667 25.4001 22.2667 25.0667 21.6001 24.4001C20.9334 23.7334 20.6001 22.9334 20.6001 22.0001C20.6001 21.0667 20.9334 20.2667 21.6001 19.6001C22.2667 18.9334 23.0667 18.6001 24.0001 18.6001C24.9334 18.6001 25.7334 18.9334 26.4001 19.6001C27.0667 20.2667 27.4001 21.0667 27.4001 22.0001C27.4001 22.9334 27.0667 23.7334 26.4001 24.4001Z" fill="#222343"/>
<g opacity="0.52">
<path d="M10.3334 24.4001C9.66678 25.0668 8.86678 25.4001 7.93345 25.4001C7.00011 25.4001 6.20011 25.0668 5.53345 24.4001C4.86678 23.7334 4.53345 22.9334 4.53345 22.0001C4.53345 21.0668 4.86678 20.2668 5.53345 19.6001C6.20011 18.9334 7.00011 18.6001 7.93345 18.6001C8.86678 18.6001 9.66678 18.9334 10.3334 19.6001C11.0001 20.2668 11.3334 21.0668 11.3334 22.0001C11.3334 22.9334 11.0001 23.7334 10.3334 24.4001Z" fill="#222343"/>
<path d="M26.4001 24.4001C25.7334 25.0668 24.9334 25.4001 24.0001 25.4001C23.0668 25.4001 22.2668 25.0668 21.6001 24.4001C20.9334 23.7334 20.6001 22.9334 20.6001 22.0001C20.6001 21.0668 20.9334 20.2668 21.6001 19.6001C22.2668 18.9334 23.0668 18.6001 24.0001 18.6001C24.9334 18.6001 25.7334 18.9334 26.4001 19.6001C27.0668 20.2668 27.4001 21.0668 27.4001 22.0001C27.4001 22.9334 27.0668 23.7334 26.4001 24.4001Z" fill="#222343"/>
</g>
</svg>
