<svg width="32" height="32" viewBox="0 0 32 32" fill="none" xmlns="http://www.w3.org/2000/svg">
<path opacity="0.52" d="M11.1667 26H25.5V22.6667H11.1667C10.2467 22.6667 9.5 23.4134 9.5 24.3334C9.5 25.2534 10.2467 26 11.1667 26Z" fill="#222343"/>
<path d="M23.5 26H11.2733C10.4 26 9.60666 25.3734 9.51999 24.5067C9.41999 23.5067 10.2 22.6667 11.18 22.6667H25.8333C26.7533 22.6667 27.5 21.92 27.5 21V4.33335C27.5 3.41335 26.7533 2.66669 25.8333 2.66669H10.1667C7.95999 2.66669 6.16666 4.46002 6.16666 6.66669V25.3334C6.16666 27.54 7.95999 29.3334 10.1667 29.3334H25.8333C26.7533 29.3334 27.5 28.5867 27.5 27.6667C27.5 26.7467 26.7533 26 25.8333 26H23.5ZM11.5 10.6667H22.1667V12H11.5V10.6667ZM11.5 13.3334H22.1667V14.6667H11.5V13.3334Z" fill="#222343"/>
</svg>
