<svg width="32" height="32" viewBox="0 0 32 32" fill="none" xmlns="http://www.w3.org/2000/svg">
<g clip-path="url(#clip0_4027_6539)">
<path opacity="0.2" d="M19.5667 8.66667V14.6667H13V7H17.9C18.3733 7 18.7667 7.16 19.0867 7.48C19.4067 7.8 19.5667 8.19333 19.5667 8.66667Z" fill="currentColor"/>
<path fill-rule="evenodd" clip-rule="evenodd" d="M17.9003 5C18.9001 5.00009 19.7535 5.35321 20.4667 6.06641C21.18 6.77974 21.5331 7.64699 21.5331 8.66699V14.667H23.5673V12.667C23.5673 12.4071 23.6207 12.1538 23.7206 11.9072C23.8206 11.6606 23.9604 11.4466 24.1337 11.2666L25.4999 9.86719C25.7466 9.62052 26.0338 9.51974 26.3671 9.56641C26.7003 9.61312 26.9472 9.78733 27.1005 10.1006L31.2333 17.8672C31.4132 18.2004 31.4002 18.5269 31.2069 18.8535C31.0137 19.1801 30.7204 19.3397 30.3339 19.3398H25.5673C25.014 19.3398 24.5466 19.1472 24.1532 18.7539C23.7599 18.3606 23.5673 17.8932 23.5673 17.3398V16.667H21.5331V19.833C21.9798 20.193 22.3203 20.6131 22.5536 21.1064C22.787 21.5998 22.9003 22.1203 22.9003 22.667C22.9002 23.6869 22.5462 24.5533 21.8329 25.2666C21.1196 25.9798 20.2532 26.333 19.2333 26.333C18.4133 26.333 17.687 26.0863 17.0536 25.5996C16.4203 25.113 15.98 24.4801 15.7333 23.7002H10.9999V6C10.9999 5.71333 11.0937 5.48044 11.287 5.28711C11.4804 5.09378 11.7199 5 11.9999 5H17.9003ZM19.2402 21C18.7668 21 18.3736 21.1605 18.0536 21.4805C17.727 21.7938 17.5663 22.1868 17.5663 22.6602C17.5664 23.1334 17.7268 23.5267 18.0468 23.8467C18.3601 24.1732 18.7532 24.333 19.2265 24.333C19.6998 24.333 20.0932 24.1734 20.4198 23.8535C20.7398 23.5402 20.9003 23.1462 20.9003 22.6729C20.9002 22.1998 20.7396 21.807 20.4198 21.4805C20.1066 21.1605 19.7134 21.0001 19.2402 21ZM12.9999 16.667V21.667H15.7001C15.9201 20.8872 16.3597 20.247 17.0195 19.7471C17.6728 19.2471 18.4133 19 19.2333 19H19.5663V16.667H12.9999ZM12.9999 7V14.667H19.5663V8.66699C19.5663 8.19384 19.4066 7.8004 19.0868 7.48047C18.7669 7.16056 18.3735 7.00009 17.9003 7H12.9999Z" fill="currentColor"/>
<path d="M4.99992 19C2.97992 19 1.33325 20.6467 1.33325 22.6667C1.33325 23.0267 1.38659 23.3733 1.48659 23.7C1.92659 25.22 3.33992 26.3333 4.99992 26.3333C6.65992 26.3333 8.07325 25.22 8.51325 23.7C8.61325 23.3733 8.66659 23.0267 8.66659 22.6667C8.66659 20.6467 7.01992 19 4.99992 19ZM4.99992 24.3333C4.47325 24.3333 3.99992 24.0867 3.69325 23.7C3.46659 23.42 3.33325 23.06 3.33325 22.6667C3.33325 21.7467 4.07992 21 4.99992 21C5.91992 21 6.66659 21.7467 6.66659 22.6667C6.66659 23.06 6.53325 23.42 6.30659 23.7C5.99992 24.0867 5.52659 24.3333 4.99992 24.3333Z" fill="currentColor"/>
<g opacity="0.85">
<path d="M19.5666 16.6667V19.0001H19.2333C18.4133 19.0001 17.6733 19.2467 17.0199 19.7467C16.3599 20.2467 15.9199 20.8867 15.6999 21.6667H12.9999V16.6667H19.5666Z" fill="currentColor"/>
<path d="M10.9999 11.6667V23.7001H8.51325C8.61325 23.3734 8.66659 23.0267 8.66659 22.6667C8.66659 20.6467 7.01992 19.0001 4.99992 19.0001C2.97992 19.0001 1.33325 20.6467 1.33325 22.6667V13.6667C1.33325 12.5601 2.22659 11.6667 3.33325 11.6667H10.9999Z" fill="currentColor"/>
</g>
</g>
<defs>
<clipPath id="clip0_4027_6539">
<rect width="32" height="32" fill="white"/>
</clipPath>
</defs>
</svg>
