<svg width="32" height="32" viewBox="0 0 32 32" fill="none" xmlns="http://www.w3.org/2000/svg">
<path d="M20.6667 22.6667C21.2223 22.6667 21.6945 22.4722 22.0834 22.0833C22.4723 21.6944 22.6667 21.2222 22.6667 20.6667C22.6667 20.1111 22.4723 19.6389 22.0834 19.25C21.6945 18.8611 21.2223 18.6667 20.6667 18.6667C20.1112 18.6667 19.639 18.8611 19.2501 19.25C18.8612 19.6389 18.6667 20.1111 18.6667 20.6667C18.6667 21.2222 18.8612 21.6944 19.2501 22.0833C19.639 22.4722 20.1112 22.6667 20.6667 22.6667ZM8.66675 22.6667C9.2223 22.6667 9.69453 22.4722 10.0834 22.0833C10.4723 21.6944 10.6667 21.2222 10.6667 20.6667C10.6667 20.1111 10.4723 19.6389 10.0834 19.25C9.69453 18.8611 9.2223 18.6667 8.66675 18.6667C8.11119 18.6667 7.63897 18.8611 7.25008 19.25C6.86119 19.6389 6.66675 20.1111 6.66675 20.6667C6.66675 21.2222 6.86119 21.6944 7.25008 22.0833C7.63897 22.4722 8.11119 22.6667 8.66675 22.6667ZM4.66675 29.3333C4.11119 29.3333 3.63897 29.1389 3.25008 28.75C2.86119 28.3611 2.66675 27.8889 2.66675 27.3333V17.8C2.66675 17.6444 2.67786 17.4889 2.70008 17.3333C2.7223 17.1778 2.75564 17.0333 2.80008 16.9L5.46675 9.33333C5.60008 8.93333 5.83897 8.61111 6.18341 8.36667C6.52786 8.12222 6.91119 8 7.33342 8H11.9667C12.3445 8 12.6612 8.12778 12.9167 8.38333C13.1723 8.63889 13.3001 8.95556 13.3001 9.33333C13.3001 9.71111 13.1723 10.0278 12.9167 10.2833C12.6612 10.5389 12.3445 10.6667 11.9667 10.6667H7.80008L6.40008 14.6667H14.3667C14.5667 14.6667 14.7612 14.7111 14.9501 14.8C15.139 14.8889 15.3001 15.0222 15.4334 15.2C16.3223 16.2889 17.3945 17.1389 18.6501 17.75C19.9056 18.3611 21.2445 18.6667 22.6667 18.6667C23.089 18.6667 23.5001 18.6389 23.9001 18.5833C24.3001 18.5278 24.7001 18.4444 25.1001 18.3333C25.4779 18.2222 25.8334 18.2833 26.1667 18.5167C26.5001 18.75 26.6667 19.0556 26.6667 19.4333V27.3333C26.6667 27.8889 26.4723 28.3611 26.0834 28.75C25.6945 29.1389 25.2223 29.3333 24.6667 29.3333C24.1112 29.3333 23.639 29.1389 23.2501 28.75C22.8612 28.3611 22.6667 27.8889 22.6667 27.3333V26.6667H6.66675V27.3333C6.66675 27.8889 6.4723 28.3611 6.08341 28.75C5.69453 29.1389 5.2223 29.3333 4.66675 29.3333Z" fill="#222343"/>
<g opacity="0.52">
<path d="M10.0834 22.0833C9.69453 22.4722 9.2223 22.6667 8.66675 22.6667C8.11119 22.6667 7.63897 22.4722 7.25008 22.0833C6.86119 21.6944 6.66675 21.2222 6.66675 20.6667C6.66675 20.1111 6.86119 19.6389 7.25008 19.25C7.63897 18.8611 8.11119 18.6667 8.66675 18.6667C9.2223 18.6667 9.69453 18.8611 10.0834 19.25C10.4723 19.6389 10.6667 20.1111 10.6667 20.6667C10.6667 21.2222 10.4723 21.6944 10.0834 22.0833Z" fill="#222343"/>
<path d="M22.0834 22.0833C21.6945 22.4722 21.2223 22.6667 20.6667 22.6667C20.1112 22.6667 19.639 22.4722 19.2501 22.0833C18.8612 21.6944 18.6667 21.2222 18.6667 20.6667C18.6667 20.1111 18.8612 19.6389 19.2501 19.25C19.639 18.8611 20.1112 18.6667 20.6667 18.6667C21.2223 18.6667 21.6945 18.8611 22.0834 19.25C22.4723 19.6389 22.6667 20.1111 22.6667 20.6667C22.6667 21.2222 22.4723 21.6944 22.0834 22.0833Z" fill="#222343"/>
<path d="M22.6667 15.9996C20.8056 15.9996 19.2292 15.3538 17.9376 14.0621C16.6459 12.7704 16.0001 11.194 16.0001 9.33293C16.0001 7.76349 16.4654 6.25654 17.3959 4.8121C18.3265 3.36765 19.6042 2.10376 21.2292 1.02043C21.5348 0.812097 21.8508 0.801681 22.1772 0.989181C22.5036 1.17668 22.6667 1.45793 22.6667 1.83293V2.91626C22.6667 3.38849 22.8299 3.78432 23.1563 4.10376C23.4827 4.42321 23.882 4.58293 24.3542 4.58293C24.5904 4.58293 24.8161 4.53085 25.0313 4.42668C25.2466 4.32251 25.4376 4.17321 25.6042 3.97876C25.7154 3.83987 25.8577 3.75307 26.0313 3.71835C26.2049 3.68362 26.3681 3.72182 26.5209 3.83293C27.3959 4.45793 28.0834 5.25654 28.5834 6.22876C29.0834 7.20099 29.3334 8.23571 29.3334 9.33293C29.3334 11.194 28.6876 12.7704 27.3959 14.0621C26.1042 15.3538 24.5279 15.9996 22.6667 15.9996Z" fill="#222343"/>
</g>
</svg>
