<svg width="32" height="32" viewBox="0 0 32 32" fill="none" xmlns="http://www.w3.org/2000/svg">
<path opacity="0.85" d="M22.6467 10.4533C22.6134 10.26 22.5534 10.0666 22.4667 9.87996L19.7667 3.47996C19.6534 3.1933 19.4734 2.96663 19.2334 2.79996C18.9867 2.6333 18.7134 2.54663 18.4 2.54663H5.63337C5.33337 2.54663 5.06003 2.6333 4.8067 2.79996C4.56003 2.96663 4.38003 3.1933 4.2667 3.47996L1.60003 9.87996C1.51337 10.0666 1.45337 10.26 1.42003 10.4533C1.3867 10.6466 1.3667 10.8466 1.3667 11.0466V20.88C1.3667 21.3466 1.5267 21.74 1.85337 22.06C2.18003 22.3866 2.57337 22.5466 3.04003 22.5466C3.5067 22.5466 3.90003 22.38 4.23337 22.0533C4.5667 21.72 4.73337 21.32 4.73337 20.8466V19.88H9.3667V19.0466C9.3667 18.8466 9.3867 18.6466 9.42003 18.4533C9.45337 18.26 9.51337 18.0666 9.60003 17.88L12.2667 11.48C12.38 11.1933 12.56 10.9666 12.8067 10.8C13.06 10.6333 13.3334 10.5466 13.6334 10.5466H22.66C22.66 10.5133 22.66 10.4866 22.6467 10.4533ZM8.24003 15.3466C7.9067 15.68 7.5067 15.8466 7.04003 15.8466C6.57337 15.8466 6.17337 15.68 5.8467 15.3466C5.5267 15.0133 5.3667 14.62 5.3667 14.1666C5.3667 13.7133 5.5267 13.3133 5.85337 12.98C6.18003 12.6466 6.57337 12.48 7.04003 12.48C7.5067 12.48 7.90003 12.6466 8.23337 12.9733C8.5667 13.3066 8.73337 13.7066 8.73337 14.18C8.73337 14.6266 8.5667 15.0133 8.24003 15.3466ZM4.33337 8.47996L5.9667 4.54663H18.0667L19.7 8.47996H4.33337Z" fill="#222343"/>
<g opacity="0.32">
<path d="M8.73325 14.18C8.73325 14.6266 8.56659 15.0133 8.23992 15.3466C7.90658 15.68 7.50659 15.8466 7.03992 15.8466C6.57325 15.8466 6.17325 15.68 5.84659 15.3466C5.52659 15.0133 5.36659 14.62 5.36659 14.1666C5.36659 13.7133 5.52658 13.3133 5.85325 12.98C6.17992 12.6466 6.57325 12.48 7.03992 12.48C7.50659 12.48 7.89992 12.6466 8.23325 12.9733C8.56659 13.3066 8.73325 13.7066 8.73325 14.18Z" fill="#222343"/>
<path d="M19.6999 8.47996H4.33325L5.96659 4.54663H18.0666L19.6999 8.47996Z" fill="#222343"/>
</g>
<path d="M22.6667 5.26668C22.1134 5.26668 21.6667 4.82002 21.6667 4.26668V1.93335C21.6667 1.38002 22.1134 0.93335 22.6667 0.93335C23.22 0.93335 23.6667 1.38002 23.6667 1.93335V4.26668C23.6667 4.82002 23.22 5.26668 22.6667 5.26668Z" fill="#222343"/>
<path d="M30.3334 10.3333H28C27.4467 10.3333 27 9.88668 27 9.33335C27 8.78002 27.4467 8.33335 28 8.33335H30.3334C30.8867 8.33335 31.3334 8.78002 31.3334 9.33335C31.3334 9.88668 30.8867 10.3333 30.3334 10.3333Z" fill="#222343"/>
<path d="M26.0134 6.91335C25.76 6.91335 25.5 6.81335 25.3067 6.62002C24.9134 6.22668 24.9134 5.59335 25.3067 5.20668L26.96 3.56002C27.3534 3.16668 27.9867 3.16668 28.3734 3.56002C28.7667 3.95335 28.7667 4.58668 28.3734 4.97335L26.72 6.62002C26.5267 6.81335 26.2667 6.91335 26.0134 6.91335Z" fill="#222343"/>
<path d="M30.6467 18.4534C30.6134 18.26 30.5534 18.0667 30.4667 17.88L27.7667 11.48C27.6534 11.1933 27.4734 10.9667 27.2334 10.8C26.9867 10.6333 26.7134 10.5467 26.4 10.5467H13.6334C13.3334 10.5467 13.06 10.6333 12.8067 10.8C12.56 10.9667 12.38 11.1933 12.2667 11.48L9.60003 17.88C9.51337 18.0667 9.45337 18.26 9.42003 18.4534C9.3867 18.6467 9.3667 18.8467 9.3667 19.0467V28.88C9.3667 29.3467 9.5267 29.74 9.85337 30.06C10.18 30.3867 10.5734 30.5467 11.04 30.5467C11.5067 30.5467 11.9 30.38 12.2334 30.0534C12.5667 29.72 12.7334 29.32 12.7334 28.8467V27.88H27.3334V28.88C27.3334 29.3467 27.4934 29.74 27.82 30.06C28.1467 30.3867 28.54 30.5467 29.0067 30.5467C29.4734 30.5467 29.8667 30.38 30.2 30.0534C30.5334 29.72 30.7 29.32 30.7 28.8467V19.0467C30.7 18.8467 30.68 18.6467 30.6467 18.4534ZM16.24 23.3467C15.9067 23.68 15.5067 23.8467 15.04 23.8467C14.5734 23.8467 14.1734 23.68 13.8467 23.3467C13.5267 23.0133 13.3667 22.62 13.3667 22.1667C13.3667 21.7134 13.5267 21.3134 13.8534 20.98C14.18 20.6467 14.5734 20.48 15.04 20.48C15.5067 20.48 15.9 20.6467 16.2334 20.9733C16.5667 21.3067 16.7334 21.7067 16.7334 22.18C16.7334 22.6267 16.5667 23.0133 16.24 23.3467ZM26.2067 23.3467C25.8734 23.68 25.4734 23.8467 25.0067 23.8467C24.54 23.8467 24.14 23.68 23.8134 23.3467C23.4934 23.0133 23.3334 22.62 23.3334 22.1667C23.3334 21.7134 23.4934 21.3134 23.82 20.98C24.1467 20.6467 24.54 20.48 25.0067 20.48C25.4734 20.48 25.8667 20.6467 26.2 20.9733C26.5334 21.3067 26.7 21.7067 26.7 22.18C26.7 22.6267 26.5334 23.0133 26.2067 23.3467ZM12.3334 16.48L13.9667 12.5467H26.0667L27.7 16.48H12.3334Z" fill="#222343"/>
<g opacity="0.52">
<path d="M27.6999 16.48H12.3333L13.9666 12.5466H26.0666L27.6999 16.48Z" fill="#222343"/>
<path d="M16.7333 22.18C16.7333 22.6266 16.5666 23.0133 16.2399 23.3466C15.9066 23.68 15.5066 23.8466 15.0399 23.8466C14.5733 23.8466 14.1733 23.68 13.8466 23.3466C13.5266 23.0133 13.3666 22.62 13.3666 22.1666C13.3666 21.7133 13.5266 21.3133 13.8533 20.98C14.1799 20.6466 14.5733 20.48 15.0399 20.48C15.5066 20.48 15.8999 20.6466 16.2333 20.9733C16.5666 21.3066 16.7333 21.7066 16.7333 22.18Z" fill="#222343"/>
<path d="M26.6999 22.18C26.6999 22.6266 26.5333 23.0133 26.2066 23.3466C25.8733 23.68 25.4733 23.8466 25.0066 23.8466C24.5399 23.8466 24.1399 23.68 23.8133 23.3466C23.4933 23.0133 23.3333 22.62 23.3333 22.1666C23.3333 21.7133 23.4933 21.3133 23.8199 20.98C24.1466 20.6466 24.5399 20.48 25.0066 20.48C25.4733 20.48 25.8666 20.6466 26.1999 20.9733C26.5333 21.3066 26.6999 21.7066 26.6999 22.18Z" fill="#222343"/>
</g>
</svg>
