<svg width="32" height="32" viewBox="0 0 32 32" fill="none" xmlns="http://www.w3.org/2000/svg">
<path opacity="0.52" d="M26.6667 5.33331H10.6667C9.19391 5.33331 8 6.52722 8 7.99998V18.6666C8 20.1394 9.19391 21.3333 10.6667 21.3333H26.6667C28.1394 21.3333 29.3333 20.1394 29.3333 18.6666V7.99998C29.3333 6.52722 28.1394 5.33331 26.6667 5.33331Z" fill="#222343"/>
<path d="M9.33332 18.6533C11.5425 18.6533 13.3333 16.8625 13.3333 14.6533C13.3333 12.4442 11.5425 10.6533 9.33332 10.6533C7.12418 10.6533 5.33332 12.4442 5.33332 14.6533C5.33332 16.8625 7.12418 18.6533 9.33332 18.6533Z" fill="#222343"/>
<path d="M8.26666 20H10.3933C13.4867 20 16 22.4533 16 25.5467C16 26.1667 15.5 26.6667 14.88 26.6667H3.78666C3.16666 26.6667 2.66666 26.1667 2.66666 25.5467C2.66666 22.4533 5.17332 20 8.26666 20Z" fill="#222343"/>
</svg>
