<svg width="32" height="32" viewBox="0 0 32 32" fill="none" xmlns="http://www.w3.org/2000/svg">
<path opacity="0.32" d="M29.3333 7.33325C29.3333 6.22659 28.44 5.33325 27.3333 5.33325H4.66666C3.55999 5.33325 2.66666 6.22659 2.66666 7.33325V24.5733C2.66666 25.6799 3.55999 26.5733 4.66666 26.5733H27.3333C28.44 26.5733 29.3333 25.6799 29.3333 24.5733V7.33325Z" fill="#222343"/>
<path d="M17.72 10.3467C17.72 10.9 18.1667 11.3467 18.72 11.3467H21.8867L15.98 17.2533L11.38 12.6533C10.9867 12.26 10.3534 12.26 9.9667 12.6533L2.67337 19.9667V22.8L10.6734 14.7733L15.2734 19.3733C15.6667 19.7667 16.3 19.7667 16.6867 19.3733L23.3267 12.7333V15.9C23.3267 16.4533 23.7734 16.9 24.3267 16.9C24.88 16.9 25.3267 16.4533 25.3267 15.9V10.3467C25.3267 9.79335 24.88 9.34668 24.3267 9.34668H18.72C18.1667 9.34668 17.72 9.79335 17.72 10.3467Z" fill="#222343"/>
<path opacity="0.85" d="M29.3333 7.33325C29.3333 6.22659 28.44 5.33325 27.3333 5.33325H4.66666C3.55999 5.33325 2.66666 6.22659 2.66666 7.33325V24.5733C2.66666 25.6799 3.55999 26.5733 4.66666 26.5733H27.3333C28.44 26.5733 29.3333 25.6799 29.3333 24.5733V7.33325ZM4.66666 24.5733V7.33325H27.3333V24.5733H4.66666Z" fill="#222343"/>
</svg>
