<svg width="32" height="32" viewBox="0 0 32 32" fill="none" xmlns="http://www.w3.org/2000/svg">
<path d="M12.5534 14.1934L5.86011 20.8867C5.63344 20.2267 5.10678 19.7 4.44678 19.4734L11.1401 12.78C11.3668 13.44 11.8934 13.9667 12.5534 14.1934Z" fill="currentColor"/>
<path d="M19.2201 16.4734C18.5601 16.7 18.0401 17.22 17.8068 17.88L14.1201 14.1934C14.7801 13.96 15.3001 13.4334 15.5334 12.7734L19.2201 16.4734Z" fill="currentColor"/>
<path d="M27.5534 12.5267L22.1934 17.8867C21.9668 17.2267 21.4401 16.7 20.7801 16.4734L26.1401 11.1067C26.3734 11.7734 26.8934 12.2934 27.5534 12.5267Z" fill="currentColor"/>
<g opacity="0.52">
<path d="M30.6668 10.3333C30.6668 11.62 29.6268 12.6667 28.3335 12.6667C28.0602 12.6667 27.8002 12.62 27.5535 12.5267C26.8935 12.2933 26.3735 11.7733 26.1402 11.1067C26.0535 10.8667 26.0068 10.6 26.0068 10.3333C26.0068 9.04667 27.0468 8 28.3335 8C29.6202 8 30.6668 9.04667 30.6668 10.3333Z" fill="currentColor"/>
<path d="M22.3332 18.6663C22.3332 19.953 21.2865 20.9997 19.9998 20.9997C18.7132 20.9997 17.6665 19.953 17.6665 18.6663C17.6665 18.393 17.7132 18.1263 17.8065 17.8797C18.0398 17.2197 18.5598 16.6997 19.2198 16.473C19.4665 16.3797 19.7265 16.333 19.9998 16.333C20.2732 16.333 20.5332 16.3797 20.7798 16.473C21.4398 16.6997 21.9665 17.2263 22.1932 17.8863C22.2865 18.133 22.3332 18.393 22.3332 18.6663Z" fill="currentColor"/>
<path d="M15.6667 12.0003C15.6667 12.267 15.62 12.5337 15.5333 12.7737C15.3 13.4337 14.78 13.9603 14.12 14.1937C13.8733 14.287 13.6067 14.3337 13.3333 14.3337C13.06 14.3337 12.8 14.287 12.5533 14.1937C11.8933 13.967 11.3667 13.4403 11.14 12.7803C11.0467 12.5337 11 12.2737 11 12.0003C11 10.7137 12.0467 9.66699 13.3333 9.66699C14.62 9.66699 15.6667 10.7137 15.6667 12.0003Z" fill="currentColor"/>
<path d="M6.00016 21.6663C6.00016 22.953 4.9535 23.9997 3.66683 23.9997C2.38016 23.9997 1.3335 22.953 1.3335 21.6663C1.3335 20.3797 2.38016 19.333 3.66683 19.333C3.94016 19.333 4.20016 19.3797 4.44683 19.473C5.10683 19.6997 5.6335 20.2263 5.86016 20.8863C5.9535 21.133 6.00016 21.393 6.00016 21.6663Z" fill="currentColor"/>
</g>
</svg>
