<svg width="32" height="32" viewBox="0 0 32 32" fill="none" xmlns="http://www.w3.org/2000/svg">
<g opacity="0.85">
<path d="M6.68678 18.1133C6.60012 18.1133 6.50678 18.0933 6.42012 18.0466C6.33345 18 6.26678 17.9266 6.22012 17.8133L5.65345 16.58L4.42012 16.0133C4.30678 15.9666 4.23345 15.9 4.18678 15.8133C4.14012 15.7266 4.12012 15.6333 4.12012 15.5466C4.12012 15.46 4.14012 15.3666 4.18678 15.28C4.23345 15.1933 4.30678 15.1266 4.42012 15.08L5.65345 14.5133L6.22012 13.28C6.26678 13.1666 6.33345 13.0933 6.42012 13.0466C6.50678 13 6.60012 12.98 6.68678 12.98C6.77345 12.98 6.86678 13 6.95345 13.0466C7.04012 13.0933 7.10678 13.1666 7.15345 13.28L7.72012 14.5133L8.95345 15.08C9.13345 15.1666 9.22012 15.3266 9.22012 15.5466C9.22012 15.7666 9.13345 15.9266 8.95345 16.0133L7.72012 16.58L7.15345 17.8133C7.10678 17.9266 7.04012 18 6.95345 18.0466C6.86678 18.0933 6.77345 18.1133 6.68678 18.1133Z" fill="currentColor"/>
<path d="M20.6531 12.6202C20.5665 12.6202 20.4731 12.6002 20.3865 12.5535C20.2998 12.5069 20.2331 12.4335 20.1865 12.3202L19.4198 10.6535L17.7531 9.88688C17.6398 9.84021 17.5665 9.77355 17.5198 9.68688C17.4731 9.60021 17.4531 9.50688 17.4531 9.42021C17.4531 9.33355 17.4731 9.24021 17.5198 9.15355C17.5665 9.06688 17.6398 9.00021 17.7531 8.95355L19.4198 8.18688L20.1865 6.52021C20.2331 6.40688 20.2998 6.33355 20.3865 6.28688C20.4731 6.24022 20.5665 6.22021 20.6531 6.22021C20.7398 6.22021 20.8331 6.24022 20.9198 6.28688C21.0065 6.33355 21.0731 6.40688 21.1198 6.52021L21.8865 8.18688L23.5531 8.95355C23.6665 9.00021 23.7398 9.06688 23.7865 9.15355C23.8331 9.24021 23.8531 9.33355 23.8531 9.42021C23.8531 9.50688 23.8331 9.60021 23.7865 9.68688C23.7398 9.77355 23.6665 9.84021 23.5531 9.88688L21.8865 10.6535L21.1198 12.3202C21.0731 12.4335 21.0065 12.5069 20.9198 12.5535C20.8331 12.6002 20.7398 12.6202 20.6531 12.6202Z" fill="currentColor"/>
</g>
<path d="M12.6334 17.6667L7.44678 22.8533C7.34678 22.5133 7.14678 22.2067 6.90011 21.96C6.66011 21.7267 6.36678 21.54 6.03345 21.4333L11.2134 16.2533C11.4334 16.92 11.9601 17.4467 12.6334 17.6667Z" fill="currentColor"/>
<path d="M17.9601 18.76C17.2934 18.9867 16.7668 19.5133 16.5468 20.18L14.0334 17.6667C14.3668 17.56 14.6601 17.3733 14.9001 17.14C15.1468 16.8933 15.3468 16.5867 15.4468 16.2467L17.9601 18.76Z" fill="currentColor"/>
<path d="M25.9668 15L20.7801 20.1867C20.6801 19.8467 20.4801 19.54 20.2334 19.2933C19.9934 19.0533 19.7001 18.8733 19.3734 18.76L24.5468 13.5867C24.7668 14.2533 25.2934 14.78 25.9668 15Z" fill="currentColor"/>
<g opacity="0.52">
<path d="M7.56676 23.5532C7.56676 23.7465 7.5401 23.9398 7.48676 24.1198C7.39343 24.5132 7.1801 24.8598 6.9001 25.1398C6.5001 25.5332 5.94676 25.7798 5.33343 25.7798C4.1001 25.7798 3.1001 24.7865 3.1001 23.5532C3.1001 22.3198 4.1001 21.3198 5.33343 21.3198C5.5801 21.3198 5.81343 21.3598 6.03343 21.4332C6.36676 21.5398 6.6601 21.7265 6.9001 21.9598C7.14676 22.2065 7.34676 22.5132 7.44676 22.8532C7.46676 22.8932 7.47343 22.9332 7.48676 22.9798C7.5401 23.1598 7.56676 23.3532 7.56676 23.5532Z" fill="currentColor"/>
<path d="M15.5668 15.5468C15.5668 15.7468 15.5401 15.9401 15.4868 16.1201C15.4734 16.1668 15.4668 16.2068 15.4468 16.2468C15.3468 16.5868 15.1468 16.8935 14.9001 17.1401C14.6601 17.3735 14.3668 17.5601 14.0334 17.6668C13.8134 17.7401 13.5801 17.7801 13.3334 17.7801C13.0868 17.7801 12.8534 17.7401 12.6334 17.6668C11.9601 17.4468 11.4334 16.9201 11.2134 16.2535C11.1401 16.0335 11.1001 15.7935 11.1001 15.5468C11.1001 14.3135 12.1001 13.3135 13.3334 13.3135C13.9468 13.3135 14.5001 13.5601 14.9001 13.9601C15.1801 14.2401 15.3934 14.5868 15.4868 14.9801C15.5401 15.1601 15.5668 15.3468 15.5668 15.5468Z" fill="currentColor"/>
<path d="M20.8998 20.8798C20.8998 21.0798 20.8731 21.2732 20.8198 21.4532C20.7264 21.8465 20.5131 22.1932 20.2331 22.4732C19.8331 22.8665 19.2798 23.1131 18.6664 23.1131C17.4331 23.1131 16.4331 22.1198 16.4331 20.8798C16.4331 20.6332 16.4731 20.3998 16.5464 20.1798C16.7664 19.5132 17.2931 18.9865 17.9598 18.7598C18.1798 18.6865 18.4198 18.6465 18.6664 18.6465C18.9131 18.6465 19.1531 18.6865 19.3731 18.7598C19.6998 18.8732 19.9931 19.0532 20.2331 19.2932C20.4798 19.5398 20.6798 19.8465 20.7798 20.1865C20.7998 20.2265 20.8064 20.2665 20.8198 20.3132C20.8731 20.4932 20.8998 20.6798 20.8998 20.8798Z" fill="currentColor"/>
<path d="M28.8998 12.8867C28.8998 13.08 28.8731 13.2733 28.8198 13.4533C28.7264 13.8467 28.5131 14.1933 28.2331 14.4733C27.8331 14.8667 27.2798 15.1133 26.6664 15.1133C26.4198 15.1133 26.1864 15.0733 25.9664 15C25.2931 14.78 24.7664 14.2533 24.5464 13.5867C24.4731 13.3667 24.4331 13.1333 24.4331 12.8867C24.4331 11.6467 25.4331 10.6533 26.6664 10.6533C27.2798 10.6533 27.8331 10.9 28.2331 11.2933C28.5131 11.5733 28.7264 11.92 28.8198 12.3133C28.8731 12.4933 28.8998 12.6867 28.8998 12.8867Z" fill="currentColor"/>
</g>
</svg>
