<svg width="32" height="32" viewBox="0 0 32 32" fill="none" xmlns="http://www.w3.org/2000/svg">
<path opacity="0.2" d="M14.0333 19.0333L10.7667 15.7667C10.5667 15.5667 10.32 15.4667 10.0333 15.4667C9.74668 15.4667 9.50001 15.5667 9.30001 15.7667C9.08001 15.9867 8.96667 16.2533 8.96667 16.5467C8.96667 16.8467 9.06667 17.1 9.26667 17.2933L13.3333 21.36C13.5133 21.54 13.7467 21.6267 14.0333 21.6267C14.32 21.6267 14.5533 21.54 14.7333 21.36L22.7333 13.36C22.9333 13.16 23.0333 12.9133 23.0333 12.6267C23.0333 12.34 22.92 12.08 22.7 11.86C22.5 11.66 22.2533 11.56 21.9533 11.56C21.6533 11.56 21.3933 11.6733 21.1733 11.8933L14.0333 19.0333Z" fill="#222343"/>
<path opacity="0.85" d="M28.3001 10.7667C27.6134 9.14669 26.6668 7.73335 25.4668 6.53335C24.2667 5.33335 22.8534 4.38669 21.2334 3.70002C19.6134 3.01335 17.8667 2.66669 16.0001 2.66669C14.1334 2.66669 12.3534 3.01335 10.7334 3.70002C9.11342 4.38669 7.70008 5.33335 6.50008 6.53335C5.30008 7.73335 4.36008 9.14669 3.68675 10.7667C3.00675 12.3867 2.66675 14.1334 2.66675 16C2.66675 17.8667 3.00675 19.6467 3.68675 21.2667C4.36675 22.8867 5.30008 24.3 6.50008 25.5C7.70008 26.7 9.11342 27.64 10.7334 28.3134C12.3534 28.9934 14.1134 29.3334 16.0001 29.3334C17.8867 29.3334 19.6134 28.9934 21.2334 28.3134C22.8534 27.6334 24.2667 26.6934 25.4668 25.5C26.6668 24.3 27.6134 22.8867 28.3001 21.2667C28.9868 19.6467 29.3334 17.8867 29.3334 16C29.3334 14.1134 28.9868 12.3867 28.3001 10.7667ZM22.7334 13.3667L14.7334 21.3667C14.5534 21.5467 14.3201 21.6334 14.0334 21.6334C13.7467 21.6334 13.5134 21.5467 13.3334 21.3667L9.26675 17.3C9.06675 17.1 8.96675 16.8467 8.96675 16.5534C8.96675 16.26 9.08008 15.9934 9.30008 15.7667C9.50008 15.5667 9.74675 15.4667 10.0334 15.4667C10.3201 15.4667 10.5667 15.5667 10.7667 15.7667L14.0334 19.0334L21.1667 11.9C21.3867 11.68 21.6467 11.5667 21.9467 11.5667C22.2467 11.5667 22.5001 11.6667 22.6934 11.8667C22.9134 12.0867 23.0267 12.3467 23.0267 12.6334C23.0267 12.92 22.9267 13.1667 22.7267 13.3667H22.7334Z" fill="#222343"/>
</svg>
