<svg width="32" height="32" viewBox="0 0 32 32" fill="none" xmlns="http://www.w3.org/2000/svg">
<path opacity="0.52" d="M25.0333 24.6467H8.36668C6.96668 24.6467 5.78001 24.16 4.80001 23.18C3.82001 22.2 3.33334 21.0133 3.33334 19.6133C3.33334 18.1867 3.81334 16.9933 4.76668 16.0267C5.72001 15.06 6.88668 14.58 8.26668 14.58H8.90001C8.90001 12.56 9.58001 10.8467 10.9467 9.44668C12.3133 8.04668 13.98 7.34668 15.9333 7.34668C17.8867 7.34668 19.5467 8.04668 20.9 9.44668C22.2533 10.8467 22.9333 12.56 22.9333 14.58V17.38H25.0333C26.0333 17.38 26.8867 17.7333 27.6 18.4467C28.3133 19.16 28.6667 20.0133 28.6667 21.0133C28.6667 22.0133 28.3133 22.8667 27.6 23.58C26.8867 24.2933 26.0333 24.6467 25.0333 24.6467Z" fill="#222343"/>
<path d="M8.36666 26.6466C6.41333 26.6466 4.74666 25.9666 3.38666 24.5933C2.01999 23.2266 1.33333 21.5666 1.33333 19.6133C1.33333 17.88 1.88666 16.36 2.99999 15.0466C4.11333 13.7333 5.52 12.9466 7.23333 12.68C7.68 10.5266 8.72 8.75997 10.3667 7.3933C12.0133 6.02663 13.9133 5.33997 16.0667 5.33997C18.5533 5.33997 20.6533 6.24663 22.3667 8.0533C24.08 9.86663 24.9333 12.04 24.9333 14.5666V15.3666C26.5333 15.32 27.8867 15.84 29 16.92C30.1133 18 30.6667 19.36 30.6667 21C30.6667 22.5333 30.1133 23.8533 29 24.9666C27.8867 26.08 26.5667 26.6333 25.0333 26.6333H8.36666V26.6466ZM8.36666 24.6466H25.0333C26.0333 24.6466 26.8867 24.2933 27.6 23.58C28.3133 22.8666 28.6667 22.0133 28.6667 21.0133C28.6667 20.0133 28.3133 19.16 27.6 18.4466C26.8867 17.7333 26.0333 17.38 25.0333 17.38H22.9333V14.58C22.9333 12.56 22.2533 10.8466 20.9 9.44663C19.5467 8.04663 17.8867 7.34663 15.9333 7.34663C13.98 7.34663 12.3133 8.04663 10.9467 9.44663C9.58 10.8466 8.9 12.56 8.9 14.58H8.26666C6.88666 14.58 5.72 15.06 4.76666 16.0266C3.81333 16.9933 3.33333 18.1866 3.33333 19.6133C3.33333 21.0133 3.81999 22.2 4.79999 23.18C5.77999 24.16 6.96666 24.6466 8.36666 24.6466V24.6466Z" fill="#222343"/>
</svg>
