<svg width="32" height="32" viewBox="0 0 32 32" fill="none" xmlns="http://www.w3.org/2000/svg">
<path opacity="0.85" d="M28.9999 16.9467C27.8866 15.8734 26.5333 15.3534 24.9333 15.4V14.6C24.9333 12.0667 24.0799 9.89337 22.3666 8.08003C20.6533 6.27337 18.5533 5.3667 16.0666 5.3667C13.9133 5.3667 12.0133 6.0467 10.3666 7.41337C8.71992 8.78003 7.67992 10.5467 7.23325 12.7C5.51992 12.9667 4.11325 13.7534 2.99992 15.0667C1.88659 16.38 1.33325 17.9 1.33325 19.6334C1.33325 21.5867 2.01992 23.2467 3.38659 24.6134C4.75325 25.98 6.41325 26.6667 8.36659 26.6667H25.0333C26.5666 26.6667 27.8866 26.1134 28.9999 25C30.1133 23.8867 30.6666 22.5667 30.6666 21.0334C30.6666 19.3867 30.1133 18.0267 28.9999 16.9467ZM20.7333 15.7L14.4333 22C14.2333 22.2 13.9999 22.3 13.7333 22.3C13.4666 22.3 13.2333 22.2 13.0333 22L9.73325 18.7334C9.55325 18.5534 9.46659 18.3267 9.46659 18.0467C9.46659 17.7667 9.55325 17.5467 9.73325 17.3667C9.91325 17.1867 10.1399 17.0934 10.4199 17.08C10.6933 17.0734 10.9199 17.1534 11.0999 17.3334L13.7666 20L19.3999 14.3667C19.5799 14.1867 19.7999 14.1 20.0666 14.1C20.3333 14.1 20.5533 14.1867 20.7333 14.3667C20.9133 14.5467 20.9999 14.7667 20.9999 15.0334C20.9999 15.3 20.9133 15.52 20.7333 15.7Z" fill="currentColor"/>
<path opacity="0.2" d="M20.9999 15.0334C20.9999 15.3001 20.9132 15.5201 20.7332 15.7001L14.4332 22.0001C14.2332 22.2001 13.9999 22.3001 13.7332 22.3001C13.4666 22.3001 13.2332 22.2001 13.0332 22.0001L9.73322 18.7334C9.55322 18.5534 9.46655 18.3268 9.46655 18.0468C9.46655 17.7668 9.55322 17.5468 9.73322 17.3668C9.91322 17.1868 10.1399 17.0934 10.4199 17.0801C10.6932 17.0734 10.9199 17.1534 11.0999 17.3334L13.7666 20.0001L19.3999 14.3668C19.5799 14.1868 19.7999 14.1001 20.0666 14.1001C20.3332 14.1001 20.5532 14.1868 20.7332 14.3668C20.9132 14.5468 20.9999 14.7668 20.9999 15.0334Z" fill="currentColor"/>
<path opacity="0.85" d="M16.0666 7.36646C17.9999 7.36646 19.5866 8.05312 20.9133 9.45979C22.2733 10.8998 22.9333 12.5798 22.9333 14.5998V17.4531L24.9866 17.3931C25.0333 17.3931 25.0733 17.3931 25.1199 17.3931C26.1199 17.3931 26.9066 17.7065 27.6066 18.3798C28.3266 19.0798 28.6666 19.9198 28.6666 21.0265C28.6666 22.0331 28.3199 22.8398 27.5866 23.5798C26.8466 24.3198 26.0399 24.6598 25.0333 24.6598H8.36659C6.95325 24.6598 5.77992 24.1798 4.79992 23.1931C3.81325 22.2065 3.33325 21.0398 3.33325 19.6265C3.33325 18.3731 3.72659 17.2998 4.52659 16.3531C5.32659 15.4131 6.31325 14.8598 7.53992 14.6665L8.91325 14.4531L9.19325 13.0931C9.54659 11.3798 10.3466 10.0198 11.6466 8.94646C12.9333 7.87979 14.3799 7.35979 16.0666 7.35979M16.0666 5.36646C13.9133 5.36646 12.0133 6.04645 10.3666 7.41312C8.71992 8.77979 7.67992 10.5398 7.23325 12.6998C5.51992 12.9665 4.11325 13.7531 2.99992 15.0665C1.88659 16.3798 1.33325 17.8998 1.33325 19.6331C1.33325 21.5865 2.01992 23.2531 3.37992 24.6198C4.74659 25.9865 6.40659 26.6665 8.36659 26.6665H25.0333C26.5666 26.6665 27.8866 26.1131 28.9999 24.9998C30.1133 23.8865 30.6666 22.5665 30.6666 21.0331C30.6666 19.3865 30.1133 18.0265 28.9999 16.9531C27.9333 15.9198 26.6399 15.3998 25.1199 15.3998C25.0599 15.3998 24.9933 15.3998 24.9333 15.3998V14.5998C24.9333 12.0665 24.0799 9.89312 22.3666 8.08646C20.6533 6.27312 18.5533 5.37312 16.0666 5.37312V5.36646Z" fill="currentColor"/>
</svg>
