<svg width="48" height="48" viewBox="0 0 48 48" fill="none" xmlns="http://www.w3.org/2000/svg">
<g clip-path="url(#clip0_4489_286)">
<path opacity="0.85" d="M39.12 4.88C38.53 4.29 37.83 4 37 4H9.5C9.08 4 8.72 4.14 8.43 4.43C8.14 4.72 8 5.07 8 5.5V42.5C8 42.93 8.14 43.28 8.43 43.57C8.72 43.86 9.07 44 9.5 44H37C37.83 44 38.53 43.71 39.12 43.12C39.71 42.53 40 41.83 40 41V7C40 6.18 39.71 5.47 39.12 4.88ZM31.39 15.23L31.82 15.56C32 15.7 32.05 15.96 31.92 16.16L31.44 16.85C31.34 17 31.34 17.2 31.44 17.36L31.92 18.05C32.06 18.24 32.02 18.51 31.83 18.65L31.16 19.17C31.02 19.28 30.96 19.47 31.01 19.64L31.25 20.45C31.32 20.68 31.2 20.92 30.98 21L30.18 21.28C30.01 21.34 29.89 21.5 29.89 21.69L29.87 22.53C29.87 22.76 29.68 22.95 29.44 22.96L28.76 22.98L28.06 18.76C28.04 18.61 28.09 18.45 28.2 18.34L31.37 15.25C31.37 15.25 31.38 15.24 31.39 15.23ZM24.92 9.21C25.11 9.08 25.38 9.12 25.52 9.3L26.04 9.97C26.15 10.12 26.34 10.18 26.51 10.12L27.32 9.88C27.55 9.81 27.78 9.93 27.86 10.16L28.15 10.95C28.21 11.12 28.37 11.24 28.56 11.24L29.4 11.26C29.63 11.27 29.82 11.46 29.83 11.69L29.86 12.53C29.86 12.72 29.98 12.88 30.15 12.94L30.95 13.22C31.17 13.29 31.29 13.53 31.23 13.76L31.03 14.43L26.73 13.77C26.57 13.75 26.44 13.65 26.37 13.51L24.42 9.55L24.92 9.21ZM26.92 17.23C26.92 18.88 25.58 20.23 23.92 20.23C22.26 20.23 20.92 18.88 20.92 17.23C20.92 15.58 22.27 14.23 23.92 14.23C25.57 14.23 26.92 15.57 26.92 17.23ZM17.03 13.27L17.82 12.98C17.99 12.92 18.11 12.76 18.11 12.58L18.13 11.73C18.13 11.5 18.33 11.31 18.56 11.3L19.4 11.28C19.59 11.27 19.75 11.15 19.81 10.98L20.09 10.18C20.16 9.96 20.4 9.84 20.63 9.91L21.44 10.14C21.61 10.19 21.8 10.13 21.91 9.99L22.42 9.32C22.57 9.13 22.83 9.08 23.03 9.22L23.54 9.57L21.57 13.5C21.5 13.64 21.37 13.73 21.22 13.76L16.92 14.38L16.75 13.81C16.68 13.59 16.8 13.35 17.03 13.27ZM18.01 37.7C18.36 37.7 18.64 37.82 18.87 38.05C19.1 38.28 19.21 38.57 19.21 38.9C19.21 39.23 19.1 39.52 18.87 39.75C18.64 39.98 18.36 40.1 18.01 40.1H13.17C12.87 40.1 12.6 39.99 12.37 39.78C12.14 39.56 12.02 39.3 12.02 39V29.3C12.02 28.95 12.14 28.67 12.37 28.44C12.58 28.23 12.84 28.13 13.14 28.12L13.21 28.11H17.99C18.34 28.11 18.62 28.23 18.85 28.46C19.08 28.69 19.19 28.98 19.19 29.31C19.19 29.64 19.08 29.93 18.85 30.16C18.62 30.39 18.34 30.51 17.99 30.51H14.4V37.71H17.99L18.01 37.7ZM19.12 23.01H18.6C18.37 23 18.18 22.81 18.17 22.57L18.15 21.73C18.14 21.55 18.02 21.39 17.85 21.32L17.05 21.05C16.83 20.97 16.71 20.73 16.78 20.5L17.01 19.7C17.06 19.52 17 19.33 16.86 19.22L16.18 18.71C16 18.57 15.95 18.3 16.09 18.11L16.56 17.41C16.66 17.26 16.66 17.06 16.56 16.91L16.08 16.22C15.95 16.02 15.99 15.76 16.17 15.61L16.62 15.27L19.72 18.32C19.83 18.43 19.88 18.58 19.85 18.74L19.12 23.01ZM20.68 24.38C20.46 24.45 20.22 24.33 20.14 24.11L19.93 23.54L23.73 21.57C23.87 21.5 24.03 21.5 24.17 21.57L28.07 23.62L27.92 24.08C27.84 24.3 27.6 24.42 27.37 24.36L26.56 24.12C26.39 24.07 26.2 24.13 26.09 24.28L25.58 24.95C25.43 25.14 25.17 25.18 24.98 25.05L24.28 24.57C24.13 24.47 23.93 24.47 23.78 24.57L23.08 25.05C22.89 25.19 22.63 25.15 22.48 24.96L21.97 24.29C21.85 24.15 21.66 24.09 21.49 24.14L20.68 24.38ZM28.48 39.75C28.25 39.98 27.97 40.1 27.62 40.1H22.78C22.48 40.1 22.21 39.99 21.98 39.78C21.75 39.56 21.63 39.3 21.63 39V29.3C21.63 28.95 21.75 28.67 21.98 28.44C22.21 28.21 22.5 28.1 22.83 28.1C23.16 28.1 23.45 28.21 23.68 28.44C23.91 28.67 24.03 28.95 24.03 29.3V37.7H27.62C27.97 37.7 28.25 37.82 28.48 38.05C28.71 38.28 28.82 38.57 28.82 38.9C28.82 39.23 28.71 39.52 28.48 39.75ZM35.64 30.15C35.41 30.38 35.13 30.5 34.78 30.5H33.58V38.9C33.58 39.25 33.46 39.53 33.23 39.76C33 39.99 32.71 40.1 32.38 40.1C32.05 40.1 31.76 39.99 31.53 39.76C31.3 39.53 31.18 39.25 31.18 38.9V30.5H29.98C29.63 30.5 29.35 30.38 29.12 30.15C28.89 29.92 28.78 29.63 28.78 29.3C28.78 28.97 28.89 28.68 29.12 28.45C29.35 28.22 29.63 28.1 29.98 28.1H34.77C35.12 28.1 35.4 28.22 35.63 28.45C35.86 28.68 35.97 28.97 35.97 29.3C35.97 29.63 35.86 29.92 35.63 30.15H35.64Z" fill="#222343"/>
<g opacity="0.2">
<path d="M27.6201 37.7H24.0301V29.3C24.0301 28.95 23.9101 28.67 23.6801 28.44C23.4501 28.21 23.1601 28.1 22.8301 28.1C22.5001 28.1 22.2101 28.21 21.9801 28.44C21.7501 28.67 21.6301 28.95 21.6301 29.3V39C21.6301 39.3 21.7501 39.56 21.9801 39.78C22.2101 40 22.4801 40.1 22.7801 40.1H27.6201C27.9701 40.1 28.2501 39.98 28.4801 39.75C28.7101 39.52 28.8201 39.23 28.8201 38.9C28.8201 38.57 28.7101 38.28 28.4801 38.05C28.2501 37.82 27.9701 37.7 27.6201 37.7Z" fill="#222343"/>
<path d="M35.64 28.45C35.41 28.22 35.13 28.1 34.78 28.1H29.99C29.64 28.1 29.36 28.22 29.13 28.45C28.9 28.68 28.79 28.97 28.79 29.3C28.79 29.63 28.9 29.92 29.13 30.15C29.36 30.38 29.64 30.5 29.99 30.5H31.19V38.9C31.19 39.25 31.31 39.53 31.54 39.76C31.77 39.99 32.06 40.1 32.39 40.1C32.72 40.1 33.01 39.99 33.24 39.76C33.47 39.53 33.59 39.25 33.59 38.9V30.5H34.79C35.14 30.5 35.42 30.38 35.65 30.15C35.88 29.92 35.99 29.63 35.99 29.3C35.99 28.97 35.88 28.68 35.65 28.45H35.64Z" fill="#222343"/>
<path d="M18.01 30.5C18.36 30.5 18.64 30.38 18.87 30.15C19.1 29.92 19.21 29.63 19.21 29.3C19.21 28.97 19.1 28.68 18.87 28.45C18.64 28.22 18.36 28.1 18.01 28.1H13.23H13.16C12.86 28.13 12.61 28.23 12.39 28.44C12.16 28.67 12.04 28.95 12.04 29.3V39C12.04 39.3 12.16 39.56 12.39 39.78C12.62 40 12.89 40.1 13.19 40.1H18.03C18.38 40.1 18.66 39.98 18.89 39.75C19.12 39.52 19.23 39.23 19.23 38.9C19.23 38.57 19.12 38.28 18.89 38.05C18.66 37.82 18.38 37.7 18.03 37.7H14.44V30.5H18.03H18.01Z" fill="#222343"/>
<path d="M16.9201 14.38L21.2201 13.76C21.3701 13.73 21.5001 13.64 21.5701 13.5L23.5401 9.56999L23.0301 9.21999C22.8301 9.07999 22.5701 9.12999 22.4201 9.31999L21.9101 9.98999C21.8001 10.13 21.6101 10.19 21.4401 10.14L20.6301 9.90999C20.4001 9.83999 20.1601 9.95999 20.0901 10.18L19.8101 10.98C19.7501 11.15 19.5901 11.27 19.4001 11.28L18.5601 11.3C18.3301 11.31 18.1401 11.5 18.1301 11.73L18.1101 12.58C18.1101 12.76 17.9901 12.92 17.8201 12.98L17.0301 13.27C16.8001 13.35 16.6801 13.59 16.7501 13.81L16.9201 14.38Z" fill="#222343"/>
<path d="M26.7299 13.77L31.0299 14.43L31.2299 13.76C31.2899 13.53 31.1699 13.29 30.9499 13.22L30.1499 12.94C29.9799 12.88 29.8599 12.72 29.8599 12.53L29.8299 11.69C29.8299 11.46 29.6299 11.27 29.3999 11.26L28.5599 11.24C28.3699 11.24 28.2099 11.12 28.1499 10.95L27.8599 10.16C27.7799 9.92999 27.5499 9.80999 27.3199 9.87999L26.5099 10.12C26.3399 10.18 26.1499 10.12 26.0399 9.96999L25.5199 9.29999C25.3799 9.11999 25.1099 9.07999 24.9199 9.20999L24.4199 9.54999L26.3699 13.51C26.4399 13.65 26.5699 13.75 26.7299 13.77Z" fill="#222343"/>
<path d="M28.06 18.76L28.76 22.98L29.44 22.96C29.68 22.96 29.87 22.76 29.87 22.53L29.89 21.69C29.89 21.5 30.01 21.34 30.18 21.28L30.98 21C31.2 20.92 31.32 20.68 31.25 20.45L31.01 19.64C30.96 19.47 31.01 19.28 31.16 19.17L31.83 18.65C32.02 18.51 32.06 18.24 31.92 18.05L31.44 17.36C31.34 17.2 31.34 17 31.44 16.85L31.92 16.16C32.05 15.96 32 15.7 31.82 15.56L31.39 15.23C31.39 15.23 31.39 15.23 31.37 15.25L28.2 18.34C28.09 18.45 28.04 18.61 28.06 18.76Z" fill="#222343"/>
<path d="M22.4799 24.96C22.6299 25.15 22.8899 25.19 23.0799 25.05L23.7799 24.57C23.9299 24.47 24.1299 24.47 24.2799 24.57L24.9799 25.05C25.1699 25.18 25.4299 25.14 25.5799 24.95L26.0899 24.28C26.1999 24.13 26.3899 24.07 26.5599 24.12L27.3699 24.36C27.5999 24.42 27.8399 24.3 27.9199 24.08L28.0699 23.62L24.1699 21.57C24.0299 21.5 23.8699 21.5 23.7299 21.57L19.9299 23.54L20.1399 24.11C20.2199 24.33 20.4599 24.45 20.6799 24.38L21.4899 24.14C21.6599 24.09 21.8499 24.14 21.9699 24.29L22.4799 24.96Z" fill="#222343"/>
<path d="M16.62 15.27L16.17 15.61C15.99 15.76 15.95 16.02 16.08 16.22L16.56 16.91C16.66 17.06 16.66 17.26 16.56 17.41L16.09 18.11C15.95 18.3 16 18.57 16.18 18.71L16.86 19.22C17 19.33 17.06 19.52 17.01 19.7L16.78 20.5C16.71 20.73 16.83 20.97 17.05 21.05L17.85 21.32C18.02 21.39 18.14 21.55 18.15 21.73L18.17 22.57C18.18 22.81 18.37 23 18.6 23H19.12L19.85 18.74C19.88 18.58 19.83 18.43 19.72 18.32L16.62 15.27Z" fill="#222343"/>
<path d="M23.9199 20.23C25.5768 20.23 26.9199 18.8868 26.9199 17.23C26.9199 15.5731 25.5768 14.23 23.9199 14.23C22.2631 14.23 20.9199 15.5731 20.9199 17.23C20.9199 18.8868 22.2631 20.23 23.9199 20.23Z" fill="#222343"/>
</g>
</g>
<defs>
<clipPath id="clip0_4489_286">
<rect width="48" height="48" fill="white"/>
</clipPath>
</defs>
</svg>
