<svg width="32" height="32" viewBox="0 0 32 32" fill="none" xmlns="http://www.w3.org/2000/svg">
<path d="M8.6 24.7334C8.2 24.3334 8 23.8667 8 23.3334V6.66675H6C5.46667 6.66675 5 6.86675 4.6 7.26675C4.2 7.66675 4 8.13341 4 8.66675V27.3334C4 27.8667 4.2 28.3334 4.6 28.7334C5 29.1334 5.46667 29.3334 6 29.3334H20.6667C21.2 29.3334 21.6667 29.1334 22.0667 28.7334C22.4667 28.3334 22.6667 27.8667 22.6667 27.3334V25.3334H10C9.46667 25.3334 9 25.1334 8.6 24.7334Z" fill="currentColor"/>
<path opacity="0.52" d="M26.0667 3.26675C25.6667 2.86675 25.2 2.66675 24.6667 2.66675H10C9.46667 2.66675 9 2.86675 8.6 3.26675C8.2 3.66675 8 4.13341 8 4.66675V23.3334C8 23.8667 8.2 24.3334 8.6 24.7334C9 25.1334 9.46667 25.3334 10 25.3334H24.6667C25.2 25.3334 25.6667 25.1334 26.0667 24.7334C26.4667 24.3334 26.6667 23.8667 26.6667 23.3334V4.66675C26.6667 4.13341 26.4667 3.66675 26.0667 3.26675Z" fill="currentColor"/>
</svg>
