<svg width="32" height="32" viewBox="0 0 32 32" fill="none" xmlns="http://www.w3.org/2000/svg">
<path opacity="0.32" d="M30 4H2C0.895431 4 0 4.89543 0 6V26C0 27.1046 0.895431 28 2 28H30C31.1046 28 32 27.1046 32 26V6C32 4.89543 31.1046 4 30 4Z" fill="#222343"/>
<path opacity="0.85" d="M30 6V26H2V6H30ZM30 4H2C0.893333 4 0 4.89333 0 6V26C0 27.1067 0.893333 28 2 28H30C31.1067 28 32 27.1067 32 26V6C32 4.89333 31.1067 4 30 4Z" fill="#222343"/>
<path d="M26.1867 19.6C26.1 19.4466 25.98 19.3333 25.8334 19.2666C25.6867 19.2 25.5267 19.1666 25.3534 19.1666H23.5534C23.3534 18.6133 23.2134 18.0933 23.14 17.62C23.06 17.14 23.0267 16.6133 23.0267 16.0333C23.0267 15.4533 23.0667 14.9333 23.14 14.4666C23.22 14 23.36 13.48 23.5534 12.9H25.3534C25.5334 12.9 25.6934 12.8666 25.8334 12.8C25.9734 12.7333 26.0934 12.62 26.1867 12.4666L27.2867 10.9C27.44 10.7 27.5067 10.48 27.4867 10.2333C27.4667 9.98664 27.3667 9.77997 27.1867 9.59997L25.8534 8.26664C25.6734 8.08664 25.46 7.99331 25.2 7.97997C24.9467 7.96664 24.7267 8.05331 24.5534 8.23331C23.5334 9.23331 22.74 10.4133 22.1867 11.7666C21.6334 13.12 21.3534 14.5466 21.3534 16.0333C21.3534 17.52 21.6334 18.9466 22.1867 20.3C22.74 21.6533 23.5334 22.8333 24.5534 23.8333C24.7334 24.0133 24.9467 24.0933 25.2 24.0866C25.4534 24.0733 25.6734 23.98 25.8534 23.8L27.1867 22.4666C27.3667 22.2866 27.4667 22.08 27.4867 21.8333C27.5067 21.5866 27.44 21.3666 27.2867 21.1666L26.1867 19.6Z" fill="#222343"/>
<path d="M10.9867 18.6666C12.1 18.6666 13.04 18.28 13.82 17.5C14.6 16.72 14.9867 15.78 14.9867 14.6666C14.9867 13.5533 14.6 12.6133 13.82 11.8333C13.04 11.0533 12.1 10.6666 10.9867 10.6666C9.87338 10.6666 8.93338 11.0533 8.15338 11.8333C7.37338 12.6133 6.98671 13.5533 6.98671 14.6666C6.98671 15.78 7.37338 16.72 8.15338 17.5C8.93338 18.28 9.87338 18.6666 10.9867 18.6666Z" fill="#222343"/>
<path d="M15.9467 22.3666C14.4334 21.48 12.78 21.0333 10.98 21.0333C9.18005 21.0333 7.54005 21.48 5.99338 22.3666C4.44671 23.2533 3.18671 24.4666 2.21338 26H19.7134C18.7134 24.4666 17.46 23.2533 15.9467 22.3666Z" fill="#222343"/>
</svg>
