<svg width="32" height="32" viewBox="0 0 32 32" fill="none" xmlns="http://www.w3.org/2000/svg">
<path opacity="0.32" d="M30 4H2C0.89543 4 0 4.89543 0 6V26C0 27.1046 0.89543 28 2 28H30C31.1046 28 32 27.1046 32 26V6C32 4.89543 31.1046 4 30 4Z" fill="currentColor"/>
<path d="M13.7667 17.2C13.0134 17.9533 12.0801 18.3333 10.9667 18.3333C9.85339 18.3333 8.92005 17.9533 8.16672 17.2C7.41339 16.4467 7.03339 15.5133 7.03339 14.4C7.03339 13.2867 7.41339 12.3533 8.16672 11.6C8.92005 10.8467 9.85339 10.4667 10.9667 10.4667C12.0801 10.4667 13.0134 10.8467 13.7667 11.6C14.5201 12.3533 14.9001 13.2867 14.9001 14.4C14.9001 15.5133 14.5201 16.4467 13.7667 17.2Z" fill="currentColor"/>
<path d="M19.6334 26H2.30005C3.28005 24.3533 4.52005 23.1133 6.03338 22.2667C7.54672 21.42 9.18672 21 10.9667 21C12.7467 21 14.3867 21.42 15.8867 22.2667C17.3867 23.1133 18.6334 24.3533 19.6334 26Z" fill="currentColor"/>
<path fill-rule="evenodd" clip-rule="evenodd" d="M27.3867 8.61331C27.2001 8.42665 26.9601 8.33331 26.6667 8.33331H19.7334C19.4467 8.33331 19.2067 8.42665 19.0134 8.61331C18.8267 8.79998 18.7334 9.03998 18.7334 9.33331V13.5333C18.7334 13.82 18.8267 14.06 19.0134 14.2533C19.2001 14.44 19.4401 14.5333 19.7334 14.5333H26.6667C26.9534 14.5333 27.1934 14.44 27.3867 14.2533C27.5734 14.0666 27.6667 13.8266 27.6667 13.5333V9.33331C27.6667 9.04665 27.5734 8.80665 27.3867 8.61331ZM26.6667 10.6666L23.2334 13.3L19.7334 10.6666V9.33331L23.2001 11.9666L26.6667 9.33331V10.6666Z" fill="currentColor"/>
<path opacity="0.85" d="M30 6V26H2V6H30ZM30 4H2C0.893333 4 0 4.89333 0 6V26C0 27.1067 0.893333 28 2 28H30C31.1067 28 32 27.1067 32 26V6C32 4.89333 31.1067 4 30 4Z" fill="currentColor"/>
</svg>
