<svg width="32" height="32" viewBox="0 0 32 32" fill="none" xmlns="http://www.w3.org/2000/svg">
<path opacity="0.52" d="M28.7867 5.63998L12.1467 22.1266C11.6734 21.1533 10.8867 20.36 9.92004 19.8733L13.8267 16L16.08 13.7733L26.56 3.38665C27.18 2.77332 28.1867 2.77998 28.8 3.39998C29.4134 4.01998 29.4134 5.02665 28.7867 5.63998Z" fill="#222343"/>
<path opacity="0.52" d="M28.8 28.6C28.4934 28.9133 28.08 29.0666 27.6734 29.0666C27.2667 29.0666 26.8667 28.92 26.56 28.6133L16.08 18.2266L13.8267 16L9.92004 12.1266C10.8867 11.64 11.6734 10.8466 12.1467 9.87329L16.08 13.7733L18.3267 16L28.7867 26.36C29.4134 26.9733 29.4134 27.98 28.8 28.6Z" fill="#222343"/>
<g opacity="0.85">
<path d="M12.1466 22.1266C11.6733 21.1533 10.8866 20.36 9.91996 19.8733C9.24663 19.5266 8.47996 19.3333 7.66663 19.3333C4.90663 19.3333 2.66663 21.5733 2.66663 24.3333C2.66663 27.0933 4.90663 29.3333 7.66663 29.3333C10.4266 29.3333 12.6666 27.0933 12.6666 24.3333C12.6666 23.54 12.48 22.7933 12.1466 22.1266ZM7.66663 27.3333C6.00663 27.3333 4.66663 25.9933 4.66663 24.3333C4.66663 22.6733 6.00663 21.3333 7.66663 21.3333C9.32663 21.3333 10.6666 22.6733 10.6666 24.3333C10.6666 25.9933 9.32663 27.3333 7.66663 27.3333Z" fill="#222343"/>
<path d="M16.08 16.8C16.4371 16.8 16.7266 16.5104 16.7266 16.1533C16.7266 15.7961 16.4371 15.5066 16.08 15.5066C15.7228 15.5066 15.4333 15.7961 15.4333 16.1533C15.4333 16.5104 15.7228 16.8 16.08 16.8Z" fill="#222343"/>
<path d="M7.66663 2.66663C4.90663 2.66663 2.66663 4.90663 2.66663 7.66663C2.66663 10.4266 4.90663 12.6666 7.66663 12.6666C8.47996 12.6666 9.24663 12.4733 9.91996 12.1266C10.8866 11.64 11.6733 10.8466 12.1466 9.87329C12.48 9.20663 12.6666 8.45996 12.6666 7.66663C12.6666 4.90663 10.4266 2.66663 7.66663 2.66663ZM4.66663 7.66663C4.66663 6.00663 6.00663 4.66663 7.66663 4.66663C9.32663 4.66663 10.6666 6.00663 10.6666 7.66663C10.6666 9.32663 9.32663 10.6666 7.66663 10.6666C6.00663 10.6666 4.66663 9.32663 4.66663 7.66663Z" fill="#222343"/>
</g>
</svg>
