<svg width="32" height="32" viewBox="0 0 32 32" fill="none" xmlns="http://www.w3.org/2000/svg">
<path opacity="0.32" fill-rule="evenodd" clip-rule="evenodd" d="M23.8888 24.2176C21.8008 26.2911 19.1725 27.3278 16.0172 27.3278L15.9972 27.3212C12.8419 27.3212 10.1602 26.2246 7.95881 24.0315C5.75743 21.8383 4.65674 19.1667 4.65674 16.0232C4.65674 14.4946 4.95693 13.0259 5.5573 11.6169C6.15768 10.208 6.99154 8.98516 8.04553 7.94175C9.09953 6.89835 10.347 6.0809 11.7812 5.48277C13.2154 4.88464 14.7564 4.6188 16.4041 4.68526C16.5842 6.4132 17.2913 7.92846 18.5254 9.2377C19.7596 10.5469 21.2805 11.3179 23.0816 11.5638C23.2618 12.6936 23.722 13.6971 24.4692 14.5744C25.2163 15.4516 26.1903 16.1096 27.391 16.5548C27.1442 19.592 25.9768 22.144 23.8888 24.2176Z" fill="#222343"/>
<path d="M14.0228 13.438C14.5964 13.438 15.0834 13.2387 15.4836 12.8333C15.8838 12.4346 16.0839 11.9428 16.0839 11.3713C16.0839 10.7998 15.8838 10.3147 15.4769 9.91602C15.0767 9.51731 14.5831 9.31795 14.0094 9.31795C13.4358 9.31795 12.9489 9.51731 12.5487 9.92267C12.1485 10.3214 11.9483 10.8131 11.9483 11.3846C11.9483 11.9561 12.1485 12.4412 12.5553 12.8399C12.9556 13.2387 13.4491 13.438 14.0228 13.438ZM11.3547 20.0833C11.9283 20.0833 12.4153 19.884 12.8155 19.4786C13.2157 19.0799 13.4158 18.5881 13.4158 18.0166C13.4158 17.4451 13.2157 16.96 12.8088 16.5613C12.4086 16.1626 11.915 15.9632 11.3414 15.9632C10.7677 15.9632 10.2808 16.1626 9.88057 16.568C9.48036 16.9667 9.28025 17.4584 9.28025 18.0299C9.28025 18.6014 9.48036 19.0865 9.88724 19.4852C10.2875 19.884 10.7811 20.0833 11.3547 20.0833ZM20.0193 21.3459C20.3995 21.3459 20.713 21.2197 20.9732 20.9605C21.2333 20.7013 21.36 20.389 21.36 20.0102C21.36 19.6314 21.2333 19.3191 20.9732 19.0599C20.713 18.8008 20.3995 18.6745 20.0193 18.6745C19.6391 18.6745 19.3256 18.8008 19.0655 19.0599C18.8053 19.3191 18.6786 19.6314 18.6786 20.0102C18.6786 20.389 18.8053 20.7013 19.0655 20.9605C19.3256 21.2197 19.6391 21.3459 20.0193 21.3459ZM16.0172 29.3203C14.1962 29.3203 12.4686 28.9681 10.8478 28.2703C9.22689 27.5725 7.80613 26.6223 6.59214 25.4128C5.37816 24.2034 4.42432 22.7946 3.72394 21.1731C3.02357 19.5517 2.67004 17.8372 2.67004 16.023C2.67004 14.2089 3.02357 12.4877 3.72394 10.8729C4.42432 9.25814 5.37816 7.83605 6.5788 6.61996C7.77945 5.40387 9.1802 4.44031 10.7811 3.72926C12.3819 3.01822 14.0828 2.66602 15.8838 2.66602C16.5975 2.66602 17.1711 2.83215 17.6047 3.16441C18.0383 3.49668 18.3118 4.01501 18.4251 4.72605C18.6052 6.00859 19.1589 7.10507 20.0927 8.00218C21.0265 8.89929 22.1271 9.43756 23.3945 9.61698C23.8614 9.68344 24.2282 9.86286 24.4951 10.1486C24.7619 10.4344 24.9486 10.8464 25.062 11.378C25.1754 12.0625 25.4622 12.6805 25.9292 13.2254C26.3961 13.7703 26.9497 14.1956 27.5967 14.5079C28.2838 14.8402 28.764 15.2389 29.0308 15.7041C29.2976 16.1692 29.3843 16.754 29.2976 17.4651C29.1442 19.1065 28.684 20.6415 27.9302 22.0835C27.1765 23.5256 26.2026 24.7815 25.0087 25.8581C23.8147 26.9346 22.4606 27.7786 20.9265 28.4032C19.3923 29.0212 17.7581 29.3335 16.0172 29.3335V29.3203ZM16.0172 27.3267C19.1722 27.3267 21.8003 26.29 23.8881 24.2167C25.9759 22.1433 27.1431 19.5916 27.3899 16.5547C26.1893 16.1094 25.2154 15.4515 24.4684 14.5744C23.7213 13.6972 23.2611 12.6938 23.081 11.5641C21.28 11.3182 19.7592 10.5473 18.5252 9.2382C17.2912 7.92908 16.5842 6.41396 16.4041 4.68618C14.7565 4.61973 13.2157 4.88554 11.7816 5.48362C10.3475 6.08169 9.10015 6.89906 8.04626 7.94237C6.99236 8.98568 6.15858 10.2084 5.55826 11.6172C4.95794 13.026 4.65777 14.4946 4.65777 16.023C4.65777 19.1663 5.75836 21.8377 7.95954 24.0306C10.1607 26.2236 12.8422 27.32 15.9972 27.32L16.0172 27.3267Z" fill="#222343"/>
</svg>
