<svg width="32" height="32" viewBox="0 0 32 32" fill="none" xmlns="http://www.w3.org/2000/svg">
<path opacity="0.85" d="M26 2.66663H6V29.3333H12V25.8333C12 25.28 12.4467 24.8333 13 24.8333H19C19.5533 24.8333 20 25.28 20 25.8333V29.3333H26V2.66663ZM12 21.6933C12 22.2466 11.5533 22.6933 11 22.6933H9C8.44667 22.6933 8 22.2466 8 21.6933V19.6933C8 19.14 8.44667 18.6933 9 18.6933H11C11.5533 18.6933 12 19.14 12 19.6933V21.6933ZM12 15.6866C12 16.24 11.5533 16.6866 11 16.6866H9C8.44667 16.6866 8 16.24 8 15.6866V13.6866C8 13.1333 8.44667 12.6866 9 12.6866H11C11.5533 12.6866 12 13.1333 12 13.6866V15.6866ZM12 9.67996C12 10.2333 11.5533 10.68 11 10.68H9C8.44667 10.68 8 10.2333 8 9.67996V7.67996C8 7.12663 8.44667 6.67996 9 6.67996H11C11.5533 6.67996 12 7.12663 12 7.67996V9.67996ZM18 21.6933C18 22.2466 17.5533 22.6933 17 22.6933H15C14.4467 22.6933 14 22.2466 14 21.6933V19.6933C14 19.14 14.4467 18.6933 15 18.6933H17C17.5533 18.6933 18 19.14 18 19.6933V21.6933ZM18 15.6866C18 16.24 17.5533 16.6866 17 16.6866H15C14.4467 16.6866 14 16.24 14 15.6866V13.6866C14 13.1333 14.4467 12.6866 15 12.6866H17C17.5533 12.6866 18 13.1333 18 13.6866V15.6866ZM18 9.67996C18 10.2333 17.5533 10.68 17 10.68H15C14.4467 10.68 14 10.2333 14 9.67996V7.67996C14 7.12663 14.4467 6.67996 15 6.67996H17C17.5533 6.67996 18 7.12663 18 7.67996V9.67996ZM24 21.68C24 22.2333 23.5533 22.68 23 22.68H21C20.4467 22.68 20 22.2333 20 21.68V19.68C20 19.1266 20.4467 18.68 21 18.68H23C23.5533 18.68 24 19.1266 24 19.68V21.68ZM24 15.6866C24 16.24 23.5533 16.6866 23 16.6866H21C20.4467 16.6866 20 16.24 20 15.6866V13.6866C20 13.1333 20.4467 12.6866 21 12.6866H23C23.5533 12.6866 24 13.1333 24 13.6866V15.6866ZM24 9.66663C24 10.22 23.5533 10.6666 23 10.6666H21C20.4467 10.6666 20 10.22 20 9.66663V7.66663C20 7.11329 20.4467 6.66663 21 6.66663H23C23.5533 6.66663 24 7.11329 24 7.66663V9.66663Z" fill="#222343"/>
<g opacity="0.2">
<path d="M9 6.68001H11C11.5523 6.68001 12 7.12773 12 7.68001V9.68001C12 10.2323 11.5523 10.68 11 10.68H9C8.44772 10.68 8 10.2323 8 9.68001V7.68001C8 7.12773 8.44772 6.68001 9 6.68001Z" fill="#222343"/>
<path d="M21 12.6867H23C23.5523 12.6867 24 13.1344 24 13.6867V15.6867C24 16.239 23.5523 16.6867 23 16.6867H21C20.4477 16.6867 20 16.239 20 15.6867V13.6867C20 13.1344 20.4477 12.6867 21 12.6867Z" fill="#222343"/>
<path d="M17 6.68008H15C14.4477 6.68008 14 7.1278 14 7.68008V9.68008C14 10.2324 14.4477 10.6801 15 10.6801H17C17.5523 10.6801 18 10.2324 18 9.68008V7.68008C18 7.1278 17.5523 6.68008 17 6.68008Z" fill="#222343"/>
<path d="M23 6.66675H21C20.4477 6.66675 20 7.11446 20 7.66675V9.66675C20 10.219 20.4477 10.6667 21 10.6667H23C23.5523 10.6667 24 10.219 24 9.66675V7.66675C24 7.11446 23.5523 6.66675 23 6.66675Z" fill="#222343"/>
<path d="M11 12.6867H9C8.44772 12.6867 8 13.1345 8 13.6867V15.6867C8 16.239 8.44772 16.6867 9 16.6867H11C11.5523 16.6867 12 16.239 12 15.6867V13.6867C12 13.1345 11.5523 12.6867 11 12.6867Z" fill="#222343"/>
<path d="M17 12.6867H15C14.4477 12.6867 14 13.1345 14 13.6867V15.6867C14 16.239 14.4477 16.6867 15 16.6867H17C17.5523 16.6867 18 16.239 18 15.6867V13.6867C18 13.1345 17.5523 12.6867 17 12.6867Z" fill="#222343"/>
<path d="M11 18.6934H9C8.44772 18.6934 8 19.1411 8 19.6934V21.6934C8 22.2457 8.44772 22.6934 9 22.6934H11C11.5523 22.6934 12 22.2457 12 21.6934V19.6934C12 19.1411 11.5523 18.6934 11 18.6934Z" fill="#222343"/>
<path d="M17 18.6934H15C14.4477 18.6934 14 19.1411 14 19.6934V21.6934C14 22.2457 14.4477 22.6934 15 22.6934H17C17.5523 22.6934 18 22.2457 18 21.6934V19.6934C18 19.1411 17.5523 18.6934 17 18.6934Z" fill="#222343"/>
<path d="M23 18.6801H21C20.4477 18.6801 20 19.1278 20 19.6801V21.6801C20 22.2324 20.4477 22.6801 21 22.6801H23C23.5523 22.6801 24 22.2324 24 21.6801V19.6801C24 19.1278 23.5523 18.6801 23 18.6801Z" fill="#222343"/>
<path d="M19 24.8334H13C12.4467 24.8334 12 25.28 12 25.8334V29.3334H20V25.8334C20 25.28 19.5533 24.8334 19 24.8334Z" fill="#222343"/>
</g>
<path d="M27 2.66663H5C4.44772 2.66663 4 3.11434 4 3.66663C4 4.21891 4.44772 4.66663 5 4.66663H27C27.5523 4.66663 28 4.21891 28 3.66663C28 3.11434 27.5523 2.66663 27 2.66663Z" fill="#222343"/>
<path d="M27 28.3333C26.9533 28.3333 26.9067 28.34 26.8533 28.3466C26.56 27.6066 25.84 27.08 25 27.08C24.16 27.08 23.38 27.6533 23.1133 28.44C22.98 28.3733 22.8267 28.3266 22.6667 28.3266C22.1133 28.3266 21.6667 28.7733 21.6667 29.3266H28C28 28.7733 27.5533 28.3266 27 28.3266V28.3333Z" fill="#222343"/>
<path d="M4.97333 28.3333C4.43333 28.3466 4 28.7866 4 29.3333H6V27.26C5.53333 27.4733 5.16667 27.8533 4.97333 28.3333Z" fill="#222343"/>
</svg>
