<svg width="32" height="32" viewBox="0 0 32 32" fill="none" xmlns="http://www.w3.org/2000/svg">
<path opacity="0.52" d="M29.3334 6C29.3334 5.46667 29.1334 5 28.7334 4.6C28.3334 4.2 27.8667 4 27.3334 4H4.66675C4.13341 4 3.66675 4.2 3.26675 4.6C2.86675 5 2.66675 5.46667 2.66675 6V20H29.3334V6ZM10.0001 18C7.06675 18 4.66675 15.6 4.66675 12.6667C4.66675 9.73333 7.06675 7.33333 10.0001 7.33333C12.9334 7.33333 15.3334 9.73333 15.3334 12.6667C15.3334 15.6 12.9334 18 10.0001 18Z" fill="#222343"/>
<g opacity="0.85">
<path d="M19.9333 27.3334H12.2C11.9333 27.3334 11.6666 27.4 11.4666 27.6C11.2666 27.8 11.2 28 11.2 28.3334C11.2 28.6667 11.2666 28.8667 11.4666 29.0667C11.6666 29.2667 11.8666 29.3334 12.2 29.3334H19.9333C20.2 29.3334 20.4666 29.2667 20.6666 29.0667C20.8666 28.8667 20.9333 28.6667 20.9333 28.3334C20.9333 28 20.8666 27.8 20.6666 27.6C20.4666 27.4 20.2666 27.3334 19.9333 27.3334Z" fill="#222343"/>
<path d="M2.66675 20V22C2.66675 23.1334 3.53341 24 4.66675 24H27.3334C28.4667 24 29.3334 23.1334 29.3334 22V20H2.66675Z" fill="#222343"/>
<path d="M10.0001 7.33337C7.06675 7.33337 4.66675 9.73337 4.66675 12.6667C4.66675 15.6 7.06675 18 10.0001 18V7.33337Z" fill="#222343"/>
</g>
<path opacity="0.52" d="M10 18C12.9333 18 15.3333 15.6 15.3333 12.6666H10V18Z" fill="#222343"/>
<path opacity="0.32" d="M10 18C12.9333 18 15.3333 15.6 15.3333 12.6666H10V18Z" fill="#222343"/>
<path d="M18 24H14V27.3334H18V24Z" fill="#222343"/>
<path d="M10 7.33337V12.6667H15.3333C15.3333 9.73337 12.9333 7.33337 10 7.33337Z" fill="#222343"/>
<path d="M27.3333 18H25.3333V9.00004C25.3333 8.46671 25.8 8.00004 26.3333 8.00004C26.8667 8.00004 27.3333 8.46671 27.3333 9.00004V18Z" fill="#222343"/>
<path d="M23.3333 18H21.3333V11.6667C21.3333 11.1334 21.8 10.6667 22.3333 10.6667C22.8667 10.6667 23.3333 11.1334 23.3333 11.6667V18Z" fill="#222343"/>
<path d="M19.3333 18H17.3333V14.3334C17.3333 13.8 17.8 13.3334 18.3333 13.3334C18.8667 13.3334 19.3333 13.8 19.3333 14.3334V18Z" fill="#222343"/>
</svg>
