<svg width="32" height="32" viewBox="0 0 32 32" fill="none" xmlns="http://www.w3.org/2000/svg">
<path opacity="0.52" d="M2 24C2 27.3133 4.68667 30 8 30V18C4.68667 18 2 20.6867 2 24Z" fill="#222343"/>
<path d="M14 24H8V30C11.3133 30 14 27.3133 14 24Z" fill="#222343"/>
<path opacity="0.85" d="M27.3334 5.33325H4.66675C3.56008 5.33325 2.66675 6.22659 2.66675 7.33325V21.2533C3.66008 19.3199 5.67341 17.9999 8.00008 17.9999C11.3134 17.9999 14.0001 20.6799 14.0001 23.9999C14.0001 24.9199 13.7934 25.7866 13.4201 26.5666H27.3334C28.4401 26.5666 29.3334 25.6733 29.3334 24.5666V7.33325C29.3334 6.22659 28.4401 5.33325 27.3334 5.33325ZM19.3134 24.5666H17.3134V20.8999C17.3134 20.3466 17.7601 19.8999 18.3134 19.8999C18.8667 19.8999 19.3134 20.3466 19.3134 20.8999V24.5666ZM18.5601 14.4399L14.4801 9.70659L6.28008 16.0799C6.10008 16.2199 5.88008 16.2933 5.66675 16.2933C5.36675 16.2933 5.07341 16.1599 4.87341 15.9066C4.53341 15.4733 4.61341 14.8399 5.04675 14.4999L13.9934 7.53992C14.4134 7.21325 15.0201 7.27325 15.3667 7.67992L19.4467 12.4133L25.7134 7.53992C26.1534 7.19992 26.7801 7.27992 27.1134 7.71325C27.4534 8.14658 27.3734 8.77992 26.9401 9.11992L19.9267 14.5733C19.5067 14.8999 18.9001 14.8399 18.5534 14.4333L18.5601 14.4399ZM23.3134 24.5666H21.3134V18.2333C21.3134 17.6799 21.7601 17.2333 22.3134 17.2333C22.8667 17.2333 23.3134 17.6799 23.3134 18.2333V24.5666ZM27.3334 24.5666H25.3334V15.5666C25.3334 15.0133 25.7801 14.5666 26.3334 14.5666C26.8867 14.5666 27.3334 15.0133 27.3334 15.5666V24.5666Z" fill="#222343"/>
<g opacity="0.2">
<path d="M8 18V24H14C14 20.6867 11.3133 18 8 18Z" fill="#222343"/>
<path d="M26.3333 14.5667C25.7799 14.5667 25.3333 15.0133 25.3333 15.5667V24.5666H27.3333V15.5667C27.3333 15.0133 26.8866 14.5667 26.3333 14.5667Z" fill="#222343"/>
<path d="M22.3132 17.2334C21.7599 17.2334 21.3132 17.6801 21.3132 18.2334V24.5667H23.3132V18.2334C23.3132 17.6801 22.8666 17.2334 22.3132 17.2334Z" fill="#222343"/>
<path d="M18.3132 19.8999C17.7599 19.8999 17.3132 20.3466 17.3132 20.8999V24.5666H19.3132V20.8999C19.3132 20.3466 18.8666 19.8999 18.3132 19.8999Z" fill="#222343"/>
<path d="M27.12 7.7201C26.78 7.28677 26.1534 7.20677 25.72 7.54677L19.4534 12.4201L15.3734 7.68677C15.0267 7.2801 14.42 7.2201 14 7.54677L5.05336 14.5068C4.62002 14.8468 4.54002 15.4734 4.88002 15.9134C5.08002 16.1668 5.37336 16.3001 5.67336 16.3001C5.88669 16.3001 6.10669 16.2334 6.28669 16.0868L14.4867 9.71344L18.5667 14.4468C18.9134 14.8534 19.52 14.9134 19.94 14.5868L26.9534 9.13344C27.3867 8.79344 27.4667 8.16677 27.1267 7.72677L27.12 7.7201Z" fill="#222343"/>
</g>
</svg>
