<svg width="32" height="32" viewBox="0 0 32 32" fill="none" xmlns="http://www.w3.org/2000/svg">
<g opacity="0.85">
<path d="M13.3333 4H5.33333C4.59695 4 4 4.59695 4 5.33333V16C4 16.7364 4.59695 17.3333 5.33333 17.3333H13.3333C14.0697 17.3333 14.6667 16.7364 14.6667 16V5.33333C14.6667 4.59695 14.0697 4 13.3333 4Z" fill="#222343"/>
<path d="M26.6666 14.6667H18.6666C17.9302 14.6667 17.3333 15.2637 17.3333 16.0001V26.6667C17.3333 27.4031 17.9302 28.0001 18.6666 28.0001H26.6666C27.403 28.0001 27.9999 27.4031 27.9999 26.6667V16.0001C27.9999 15.2637 27.403 14.6667 26.6666 14.6667Z" fill="#222343"/>
</g>
<path d="M13.3333 20H5.33333C4.59695 20 4 20.597 4 21.3333V26.6667C4 27.403 4.59695 28 5.33333 28H13.3333C14.0697 28 14.6667 27.403 14.6667 26.6667V21.3333C14.6667 20.597 14.0697 20 13.3333 20Z" fill="#222343"/>
<path d="M26.6666 4H18.6666C17.9302 4 17.3333 4.59695 17.3333 5.33333V10.6667C17.3333 11.403 17.9302 12 18.6666 12H26.6666C27.403 12 27.9999 11.403 27.9999 10.6667V5.33333C27.9999 4.59695 27.403 4 26.6666 4Z" fill="#222343"/>
</svg>
