<svg width="32" height="32" viewBox="0 0 32 32" fill="none" xmlns="http://www.w3.org/2000/svg">
<path d="M28 9.33333C28 10.7133 26.8933 11.9467 24.6867 13.0333C22.4733 14.1267 19.58 14.6667 16 14.6667C12.42 14.6667 9.52667 14.1267 7.32 13.0333C5.10667 11.9467 4 10.7133 4 9.33333C4 7.95333 5.10667 6.7 7.32 5.62C9.52667 4.54 12.42 4 16 4C19.58 4 22.4733 4.54 24.6867 5.62C26.8933 6.7 28 7.93333 28 9.33333Z" fill="#222343"/>
<path d="M28 19.6667V23C28 23.8933 27.5867 24.6533 26.7467 25.2867C25.92 25.92 24.8867 26.4333 23.6467 26.8333C22.4133 27.2333 21.1133 27.5333 19.7333 27.72C18.3533 27.9067 17.1133 28 16 28C14.8867 28 13.6733 27.9067 12.28 27.72C10.8933 27.5333 9.58667 27.2333 8.34667 26.82C7.12 26.4067 6.08 25.8867 5.24667 25.2533C4.41333 24.62 4 23.8667 4 23V19.6667C4 20.5333 4.41333 21.2867 5.25333 21.92C6.08 22.5533 7.12 23.0733 8.34667 23.4867C9.58667 23.9 10.8933 24.2 12.28 24.3867C13.6733 24.5733 14.9133 24.6667 16 24.6667C17.0867 24.6667 18.3533 24.5733 19.7333 24.3867C21.1133 24.2 22.4133 23.9 23.6467 23.5C24.8867 23.1 25.92 22.5867 26.7467 21.9533C27.5867 21.32 28 20.56 28 19.6667Z" fill="#222343"/>
<path d="M28 13V16.3333C28 17.2267 27.5867 17.9867 26.7467 18.62C25.92 19.2533 24.8867 19.7667 23.6467 20.1667C22.4133 20.5667 21.1133 20.8667 19.7333 21.0533C18.3533 21.24 17.1133 21.3333 16 21.3333C14.8867 21.3333 13.6733 21.24 12.28 21.0533C10.8933 20.8667 9.58667 20.5667 8.34667 20.1533C7.12 19.74 6.08 19.22 5.24667 18.5867C4.41333 17.9533 4 17.2 4 16.3333V13C4 13.8667 4.41333 14.62 5.25333 15.2533C6.08 15.8867 7.12 16.4067 8.34667 16.82C9.58667 17.2333 10.8933 17.5333 12.28 17.72C13.6733 17.9067 14.9133 18 16 18C17.0867 18 18.3533 17.9067 19.7333 17.72C21.1133 17.5333 22.4133 17.2333 23.6467 16.8333C24.8867 16.4333 25.92 15.92 26.7467 15.2867C27.5867 14.6533 28 13.8933 28 13Z" fill="#222343"/>
<g opacity="0.32">
<path d="M28 9.33334V13C28 13.8933 27.5867 14.6533 26.7467 15.2867C25.92 15.92 24.8867 16.4333 23.6467 16.8333C22.4133 17.2333 21.1133 17.5333 19.7333 17.72C18.3533 17.9067 17.1133 18 16 18C14.8867 18 13.6733 17.9067 12.28 17.72C10.8933 17.5333 9.58667 17.2333 8.34667 16.82C7.12 16.4067 6.08 15.8867 5.25333 15.2533C4.41333 14.62 4 13.8667 4 13V9.33334C4 10.7133 5.10667 11.9467 7.32 13.0333C9.52667 14.1267 12.42 14.6667 16 14.6667C19.58 14.6667 22.4733 14.1267 24.6867 13.0333C26.8933 11.9467 28 10.7133 28 9.33334Z" fill="#222343"/>
<path d="M28 16.3333V19.6667C28 20.56 27.5867 21.32 26.7467 21.9533C25.92 22.5867 24.8867 23.1 23.6467 23.5C22.4133 23.9 21.1133 24.2 19.7333 24.3867C18.3533 24.5733 17.1133 24.6667 16 24.6667C14.8867 24.6667 13.6733 24.5733 12.28 24.3867C10.8933 24.2 9.58667 23.9 8.34667 23.4867C7.12 23.0733 6.08 22.5533 5.25333 21.92C4.41333 21.2867 4 20.5333 4 19.6667V16.3333C4 17.2 4.41333 17.9533 5.24667 18.5867C6.08 19.22 7.12 19.74 8.34667 20.1533C9.58667 20.5667 10.8933 20.8667 12.28 21.0533C13.6733 21.24 14.9133 21.3333 16 21.3333C17.0867 21.3333 18.3533 21.24 19.7333 21.0533C21.1133 20.8667 22.4133 20.5667 23.6467 20.1667C24.8867 19.7667 25.92 19.2533 26.7467 18.62C27.5867 17.9867 28 17.2267 28 16.3333Z" fill="#222343"/>
</g>
</svg>
