<svg width="32" height="32" viewBox="0 0 32 32" fill="none" xmlns="http://www.w3.org/2000/svg">
<g clip-path="url(#clip0_4093_963)">
<path d="M12.98 1.33325H19.02C19.3867 1.33325 19.6867 1.63325 19.6867 1.99992V5.33325H12.3134V1.99992C12.3134 1.63325 12.6134 1.33325 12.98 1.33325Z" fill="#222343"/>
<path opacity="0.85" d="M7.33329 5.33325H24.6666C25.7733 5.33325 26.6666 6.23325 26.6666 7.33325V14.8133L24.6666 14.1666V7.33325H7.33329L7.3333 14.1666L15.3866 11.5666C15.5866 11.4999 15.7933 11.4666 16 11.4666V28.5999C15.22 28.5999 14.44 28.4999 13.6533 28.2999C12.86 28.0999 12.1133 27.8132 11.4 27.4332C11.2866 27.3932 11.1733 27.3532 11.0466 27.3199C10.9266 27.2866 10.8 27.2666 10.6666 27.2666C10.5333 27.2666 10.4066 27.2866 10.2866 27.3199C10.16 27.3532 10.0466 27.3932 9.9333 27.4332C9.21997 27.8332 8.47997 28.1399 7.69997 28.3532C7.18663 28.4932 6.66663 28.5865 6.14663 28.6265L2.70663 16.6799C2.55997 16.1666 2.84663 15.6199 3.35997 15.4532L5.3333 14.8132L5.33329 7.33325C5.33329 6.23325 6.22663 5.33325 7.33329 5.33325Z" fill="#222343"/>
<path opacity="0.52" d="M7.33329 7.33325V14.1666L15.3866 11.5666C15.5866 11.4999 15.7933 11.4666 16 11.4666V28.5999C15.22 28.5999 14.44 28.4999 13.6533 28.2999C12.86 28.0999 12.1133 27.8132 11.4 27.4332C11.2866 27.3932 11.1733 27.3532 11.0466 27.3199C10.9266 27.2865 10.8 27.2665 10.6666 27.2665C10.5333 27.2665 10.4066 27.2865 10.2866 27.3199C10.16 27.3532 10.0466 27.3932 9.93329 27.4332C9.21996 27.8332 8.47996 28.1399 7.69996 28.3532C7.18663 28.4932 6.66663 28.5865 6.14663 28.6265C5.87329 28.6532 5.60663 28.6665 5.33329 28.6665H3.66663C3.38663 28.6665 3.14663 28.7665 2.95329 28.9532C2.75996 29.1399 2.66663 29.3732 2.66663 29.6599C2.66663 29.9465 2.75996 30.1865 2.95329 30.3799C3.14663 30.5732 3.38663 30.6665 3.66663 30.6665H5.33329C6.24663 30.6665 7.14663 30.5532 8.03329 30.3199C8.89996 30.0932 9.75329 29.7665 10.6 29.3332C10.61 29.3265 10.6216 29.3215 10.6333 29.3165C10.645 29.3115 10.6566 29.3065 10.6666 29.2999C10.6766 29.3065 10.6883 29.3115 10.7 29.3165C10.7116 29.3215 10.7233 29.3265 10.7333 29.3332C11.58 29.7665 12.44 30.0932 13.3333 30.3199C14.2466 30.5532 15.1333 30.6665 16 30.6665C16.8666 30.6665 17.7533 30.5532 18.6666 30.3199C19.56 30.0932 20.42 29.7665 21.2666 29.3332C21.2766 29.3265 21.2883 29.3215 21.3 29.3165C21.3116 29.3115 21.3233 29.3065 21.3333 29.2999C21.3433 29.3065 21.355 29.3115 21.3666 29.3165C21.3783 29.3215 21.39 29.3265 21.4 29.3332C22.2466 29.7665 23.1 30.0932 23.9666 30.3199C24.8533 30.5532 25.7533 30.6665 26.6666 30.6665H28.3333C28.62 30.6665 28.8533 30.5732 29.0466 30.3865C29.24 30.1999 29.3333 29.9599 29.3333 29.6732C29.3333 29.3865 29.24 29.1532 29.0466 28.9599C28.8533 28.7665 28.62 28.6665 28.3333 28.6665H26.6666C26.3933 28.6665 26.1266 28.6532 25.8533 28.6265L29.2933 16.6799C29.44 16.1666 29.1533 15.6199 28.64 15.4532L24.6666 14.1666V7.33325H7.33329Z" fill="#222343"/>
<path opacity="0.52" d="M25.8533 27.4201C25.3333 27.3801 24.8133 27.2867 24.3 27.1467C23.52 26.9334 22.78 26.6267 22.0666 26.2267C21.9533 26.1867 21.84 26.1467 21.7133 26.1134C21.5933 26.0801 21.4666 26.0601 21.3333 26.0601C21.2 26.0601 21.0733 26.0801 20.9533 26.1134C20.8266 26.1467 20.7133 26.1867 20.6 26.2267C19.8866 26.6067 19.14 26.8934 18.3533 27.0934C17.56 27.2934 16.78 27.3934 16 27.3934C15.22 27.3934 14.44 27.2934 13.6533 27.0934C12.86 26.8934 12.1133 26.6067 11.4 26.2267C11.2866 26.1867 11.1733 26.1467 11.0466 26.1134C10.9266 26.0801 10.8 26.0601 10.6666 26.0601C10.5333 26.0601 10.4066 26.0801 10.2866 26.1134C10.16 26.1467 10.0466 26.1867 9.93331 26.2267C9.21997 26.6267 8.47997 26.9334 7.69997 27.1467C7.18664 27.2867 6.66664 27.3801 6.14664 27.4201C6.03331 27.4334 5.91997 27.4401 5.80664 27.4467L6.14664 28.6267C6.66664 28.5867 7.18664 28.4934 7.69997 28.3534C8.47997 28.1401 9.21997 27.8334 9.93331 27.4334C10.0466 27.3934 10.16 27.3534 10.2866 27.3201C10.4066 27.2867 10.5333 27.2667 10.6666 27.2667C10.8 27.2667 10.9266 27.2867 11.0466 27.3201C11.1733 27.3534 11.2866 27.3934 11.4 27.4334C12.1133 27.8134 12.86 28.1001 13.6533 28.3001C14.44 28.5001 15.22 28.6001 16 28.6001C16.78 28.6001 17.56 28.5001 18.3533 28.3001C19.14 28.1001 19.8866 27.8134 20.6 27.4334C20.7133 27.3934 20.8266 27.3534 20.9533 27.3201C21.0733 27.2867 21.2 27.2667 21.3333 27.2667C21.4666 27.2667 21.5933 27.2867 21.7133 27.3201C21.84 27.3534 21.9533 27.3934 22.0666 27.4334C22.78 27.8334 23.52 28.1401 24.3 28.3534C24.8133 28.4934 25.3333 28.5867 25.8533 28.6267L26.1933 27.4467C26.08 27.4401 25.9666 27.4334 25.8533 27.4201Z" fill="#222343"/>
</g>
<defs>
<clipPath id="clip0_4093_963">
<rect width="32" height="32" fill="white"/>
</clipPath>
</defs>
</svg>
