<svg width="32" height="32" viewBox="0 0 32 32" fill="none" xmlns="http://www.w3.org/2000/svg">
<path opacity="0.52" d="M18.68 8.80008V3.25341C18.3067 2.88008 17.7933 2.66675 17.2667 2.66675H6.06665C4.95998 2.66675 4.06665 3.56008 4.06665 4.66675V27.3334C4.06665 28.4401 4.95998 29.3334 6.06665 29.3334H23.4C24.5066 29.3334 25.4 28.4401 25.4 27.3334V10.8001H20.68C19.5733 10.8001 18.68 9.90675 18.68 8.80008Z" fill="currentColor"/>
<path opacity="0.2" d="M20.6799 9.38675H24.8133L18.6799 3.25342V7.38675C18.6799 8.49342 19.5733 9.38675 20.6799 9.38675Z" fill="currentColor"/>
<path d="M20.6799 9.38672C19.5732 9.38672 18.6799 8.49339 18.6799 7.38672V8.80005C18.6799 9.90672 19.5732 10.8001 20.6799 10.8001H25.3999C25.3999 10.2667 25.1866 9.76005 24.8132 9.38672H20.6799Z" fill="currentColor"/>
<path d="M21.6666 25.6667C22.7132 25.6667 23.5866 25.3134 24.2866 24.6134C24.9866 23.9134 25.3399 23.0401 25.3399 21.9934C25.3399 20.9467 24.9866 20.0734 24.2866 19.3734C23.5866 18.6734 22.7132 18.3201 21.6666 18.3201C20.6199 18.3201 19.7466 18.6734 19.0466 19.3734C18.3466 20.0734 17.9932 20.9467 17.9932 21.9934C17.9932 23.0401 18.3466 23.9134 19.0466 24.6134C19.7466 25.3134 20.6199 25.6667 21.6666 25.6667ZM29.1666 29.5001C28.9666 29.7001 28.7332 29.8001 28.4666 29.8001C28.1999 29.8001 27.9666 29.7001 27.7666 29.5001L24.8999 26.6334C24.4332 26.9467 23.9266 27.1934 23.3799 27.3867C22.8332 27.5801 22.2599 27.6734 21.6599 27.6734C20.0799 27.6734 18.7399 27.1201 17.6399 26.0201C16.5399 24.92 15.9866 23.5801 15.9866 22.0001C15.9866 20.4201 16.5399 19.0801 17.6399 17.9801C18.7399 16.8801 20.0799 16.3267 21.6599 16.3267C23.2399 16.3267 24.5799 16.8801 25.6799 17.9801C26.7799 19.0801 27.3332 20.4201 27.3332 22.0001C27.3332 22.6001 27.2399 23.1734 27.0466 23.7201C26.8599 24.2667 26.6066 24.7734 26.2932 25.2401L29.1599 28.1067C29.3599 28.3067 29.4599 28.5401 29.4599 28.8067C29.4599 29.0734 29.3599 29.3067 29.1599 29.5067L29.1666 29.5001Z" fill="currentColor"/>
</svg>
