<svg width="32" height="32" viewBox="0 0 32 32" fill="none" xmlns="http://www.w3.org/2000/svg">
<path opacity="0.85" d="M26.4999 10.0134C26.3866 9.76008 26.2466 9.54008 26.0666 9.36675L19.9666 3.26675C19.7866 3.08675 19.5733 2.94675 19.3133 2.83341C19.0599 2.72008 18.7999 2.66675 18.5333 2.66675H7.33325C6.79992 2.66675 6.33325 2.86675 5.93325 3.26675C5.53325 3.66675 5.33325 4.13341 5.33325 4.66675V27.3334C5.33325 27.8667 5.53325 28.3334 5.93325 28.7334C6.33325 29.1334 6.79992 29.3334 7.33325 29.3334H24.6666C25.1999 29.3334 25.6666 29.1334 26.0666 28.7334C26.4666 28.3334 26.6666 27.8667 26.6666 27.3334V10.8001C26.6666 10.5334 26.6133 10.2734 26.4999 10.0134ZM18.9999 16.3334C19.2799 16.3334 19.5199 16.4267 19.7133 16.6201C19.9066 16.8134 19.9999 17.0467 19.9999 17.3334V21.6667C19.9999 21.9467 19.9066 22.1867 19.7133 22.3801C19.5199 22.5734 19.2866 22.6667 18.9999 22.6667H16.9999V23.5001C16.9999 23.6334 16.9466 23.7534 16.8533 23.8467C16.7599 23.9401 16.6333 24.0001 16.4999 24.0001H15.4999C15.3666 24.0001 15.2466 23.9467 15.1466 23.8467C15.0466 23.7467 14.9999 23.6334 14.9999 23.5001V22.6667H12.9999C12.7199 22.6667 12.4799 22.5734 12.2866 22.3867C12.0933 22.2001 11.9999 21.9601 11.9999 21.6734C11.9999 21.3867 12.0933 21.1467 12.2866 20.9534C12.4799 20.7601 12.7133 20.6667 12.9999 20.6667H17.9999V18.3334H12.9999C12.7199 18.3334 12.4799 18.2401 12.2866 18.0467C12.0933 17.8534 11.9999 17.6201 11.9999 17.3334V13.0001C11.9999 12.7201 12.0933 12.4801 12.2866 12.2867C12.4799 12.0934 12.7133 12.0001 12.9999 12.0001H14.9999V11.1667C14.9999 11.0334 15.0533 10.9134 15.1466 10.8134C15.2466 10.7134 15.3666 10.6667 15.4999 10.6667H16.4999C16.6333 10.6667 16.7533 10.7201 16.8533 10.8134C16.9533 10.9134 16.9999 11.0334 16.9999 11.1667V12.0001H18.9999C19.2799 12.0001 19.5199 12.0934 19.7133 12.2801C19.9066 12.4667 19.9999 12.7067 19.9999 12.9934C19.9999 13.2801 19.9066 13.5201 19.7133 13.7134C19.5199 13.9067 19.2866 14.0001 18.9999 14.0001H13.9999V16.3334H18.9999Z" fill="currentColor"/>
<path opacity="0.2" d="M19 14.0001C19.28 14.0001 19.52 13.9067 19.7133 13.7134C19.9067 13.5201 20 13.2801 20 12.9934C20 12.7067 19.9067 12.4734 19.7133 12.2801C19.52 12.0934 19.2867 12.0001 19 12.0001H17V11.1667C17 11.0334 16.9467 10.9134 16.8533 10.8134C16.7533 10.7134 16.6333 10.6667 16.5 10.6667H15.5C15.3667 10.6667 15.2467 10.7201 15.1467 10.8134C15.0467 10.9134 15 11.0334 15 11.1667V12.0001H13C12.72 12.0001 12.48 12.0934 12.2867 12.2867C12.0933 12.4801 12 12.7134 12 13.0001V17.3334C12 17.6134 12.0933 17.8534 12.2867 18.0467C12.48 18.2401 12.7133 18.3334 13 18.3334H18V20.6667H13C12.72 20.6667 12.48 20.7601 12.2867 20.9534C12.0933 21.1467 12 21.3867 12 21.6734C12 21.9601 12.0933 22.1934 12.2867 22.3867C12.48 22.5734 12.7133 22.6667 13 22.6667H15V23.5001C15 23.6334 15.0533 23.7534 15.1467 23.8467C15.24 23.9401 15.3667 24.0001 15.5 24.0001H16.5C16.6333 24.0001 16.7533 23.9467 16.8533 23.8467C16.9533 23.7467 17 23.6334 17 23.5001V22.6667H19C19.28 22.6667 19.52 22.5734 19.7133 22.3801C19.9067 22.1867 20 21.9534 20 21.6667V17.3334C20 17.0534 19.9067 16.8134 19.7133 16.6201C19.52 16.4267 19.2867 16.3334 19 16.3334H14V14.0001H19Z" fill="currentColor"/>
</svg>
