<svg width="32" height="32" viewBox="0 0 32 32" fill="none" xmlns="http://www.w3.org/2000/svg">
<path opacity="0.85" d="M10.3999 24C9.26659 24 8.18325 23.8 7.14992 23.4C6.11659 23 5.18881 22.4111 4.36659 21.6333C3.29992 20.6333 2.5277 19.45 2.04992 18.0833C1.57214 16.7167 1.33325 15.3 1.33325 13.8333C1.33325 12.1 1.75547 10.6944 2.59992 9.61667C3.44436 8.53889 4.6777 8 6.29992 8C6.61103 8 6.90547 8.02778 7.18325 8.08333C7.46103 8.13889 7.74436 8.22222 8.03325 8.33333L15.9999 11.3L23.9666 8.33333C24.2555 8.22222 24.5388 8.13889 24.8166 8.08333C25.0944 8.02778 25.3888 8 25.6999 8C27.3221 8 28.5555 8.53889 29.3999 9.61667C30.2444 10.6944 30.6666 12.1 30.6666 13.8333C30.6666 15.3 30.4277 16.7167 29.9499 18.0833C29.4721 19.45 28.6999 20.6333 27.6333 21.6333C26.811 22.4111 25.8833 23 24.8499 23.4C23.8166 23.8 22.7333 24 21.5999 24C20.1333 24 18.8888 23.6667 17.8666 23L16.3333 22H15.6666L14.1333 23C13.111 23.6667 11.8666 24 10.3999 24ZM11.6333 18.6667C12.2777 18.6667 12.7888 18.5167 13.1666 18.2167C13.5444 17.9167 13.7333 17.5111 13.7333 17C13.7333 16.1333 13.1555 15.3056 11.9999 14.5167C10.8444 13.7278 9.63325 13.3333 8.36659 13.3333C7.72214 13.3333 7.21103 13.4833 6.83325 13.7833C6.45547 14.0833 6.26659 14.4889 6.26659 15C6.26659 15.8667 6.84436 16.6944 7.99992 17.4833C9.15547 18.2722 10.3666 18.6667 11.6333 18.6667ZM20.3666 18.6667C21.6333 18.6667 22.8444 18.2722 23.9999 17.4833C25.1555 16.6944 25.7333 15.8667 25.7333 15C25.7333 14.4667 25.5499 14.0556 25.1833 13.7667C24.8166 13.4778 24.2999 13.3333 23.6333 13.3333C22.3666 13.3333 21.1555 13.7278 19.9999 14.5167C18.8444 15.3056 18.2666 16.1333 18.2666 17C18.2666 17.5111 18.4499 17.9167 18.8166 18.2167C19.1833 18.5167 19.6999 18.6667 20.3666 18.6667Z" fill="#222343"/>
<g opacity="0.2">
<path d="M13.1666 18.2167C12.7888 18.5167 12.2777 18.6667 11.6333 18.6667C10.3666 18.6667 9.15549 18.2723 7.99993 17.4834C6.84438 16.6945 6.2666 15.8667 6.2666 15C6.2666 14.4889 6.45549 14.0834 6.83327 13.7834C7.21105 13.4834 7.72216 13.3334 8.3666 13.3334C9.63327 13.3334 10.8444 13.7278 11.9999 14.5167C13.1555 15.3056 13.7333 16.1334 13.7333 17C13.7333 17.5112 13.5444 17.9167 13.1666 18.2167Z" fill="#222343"/>
<path d="M23.9999 17.4834C22.8444 18.2723 21.6333 18.6667 20.3666 18.6667C19.6999 18.6667 19.1833 18.5167 18.8166 18.2167C18.4499 17.9167 18.2666 17.5112 18.2666 17C18.2666 16.1334 18.8444 15.3056 19.9999 14.5167C21.1555 13.7278 22.3666 13.3334 23.6333 13.3334C24.2999 13.3334 24.8166 13.4778 25.1833 13.7667C25.5499 14.0556 25.7333 14.4667 25.7333 15C25.7333 15.8667 25.1555 16.6945 23.9999 17.4834Z" fill="#222343"/>
</g>
</svg>
