<svg width="32" height="32" viewBox="0 0 32 32" fill="none" xmlns="http://www.w3.org/2000/svg">
<path d="M11.2078 19.663L10.5007 20.3701L11.9338 21.8032L12.6409 21.0961L11.2078 19.663Z" fill="currentColor"/>
<g opacity="0.85">
<path d="M10.4933 20.3732L11.9267 21.8065L10.4867 23.2465C10.2933 23.4398 10.0667 23.5332 9.81334 23.5265C9.81334 23.5265 9.81334 23.5332 9.8 23.5332H9.78667C9.78667 23.5332 9.73334 23.5198 9.70667 23.5132C9.48001 23.4932 9.27334 23.4065 9.1 23.2332L3.03334 17.1665C2.83334 16.9665 2.74 16.7265 2.74667 16.4465C2.76 16.1732 2.86667 15.9332 3.06667 15.7332C3.26667 15.5332 3.50667 15.4332 3.78 15.4332C4.05334 15.4332 4.3 15.5332 4.5 15.7332L9.8 21.0665L10.4933 20.3732Z" fill="currentColor"/>
<path d="M23.6333 9.67984C23.6333 9.95984 23.5333 10.1998 23.3333 10.3998L14.0733 19.6598L12.64 18.2265L21.9 8.9665C22.1 8.7665 22.34 8.6665 22.6133 8.6665C22.8867 8.6665 23.1333 8.7665 23.3333 8.9665C23.5333 9.1665 23.6333 9.4065 23.6333 9.67984Z" fill="currentColor"/>
</g>
<path opacity="0.85" d="M29.3 9.67984C29.3 9.95984 29.2 10.1998 29 10.3998L16.1666 23.2332C15.9666 23.4332 15.7333 23.5332 15.4666 23.5332C15.2 23.5332 14.9666 23.4332 14.7666 23.2332L8.69995 17.1665C8.49995 16.9665 8.40662 16.7265 8.41995 16.4465C8.42662 16.1732 8.53328 15.9332 8.73328 15.7332C8.93328 15.5332 9.17328 15.4332 9.45328 15.4332C9.73328 15.4332 9.96662 15.5332 10.1666 15.7332L12.64 18.2265L14.0733 19.6598L15.4666 21.0665L27.5666 8.9665C27.7666 8.7665 28.0066 8.6665 28.2866 8.6665C28.5666 8.6665 28.7999 8.7665 29 8.9665C29.2 9.1665 29.3 9.4065 29.3 9.67984Z" fill="currentColor"/>
</svg>
