<svg width="32" height="32" viewBox="0 0 32 32" fill="none" xmlns="http://www.w3.org/2000/svg">
<path opacity="0.85" d="M12 16.0067C12 13.8 13.7933 12.0067 16 12.0067V2.66669C8.63329 2.66669 2.66663 8.63335 2.66663 16C2.66663 23.3667 8.63329 29.3334 16 29.3334V20.0067C13.7933 20.0067 12 18.2134 12 16.0067Z" fill="#222343"/>
<path d="M20 16H29.3333C29.3333 8.63335 23.3667 2.66669 16 2.66669V12.0067C18.2067 12.0067 20 13.7934 20 16Z" fill="#222343"/>
<path opacity="0.32" d="M20 16C20 18.2067 18.2067 20 16 20V29.3267C23.3667 29.3267 29.3333 23.36 29.3333 15.9933H20V16Z" fill="#222343"/>
</svg>
