<svg width="32" height="32" viewBox="0 0 32 32" fill="none" xmlns="http://www.w3.org/2000/svg">
<path d="M20.0001 11.6666V14.14C19.7667 14.1266 19.5334 14.1133 19.3001 14.0866C18.8534 14.0466 18.4134 13.98 17.9801 13.8933C17.9601 13.8866 17.9334 13.8866 17.9134 13.88C17.7201 13.84 17.5267 13.8 17.3334 13.7466C17.3001 13.7466 17.2667 13.7333 17.2334 13.7266C17.1001 13.6933 16.9667 13.6533 16.8401 13.6133C16.7001 13.58 16.5667 13.54 16.4334 13.4933C16.2534 13.4333 16.0734 13.3733 15.8934 13.3066C15.7467 13.26 15.6001 13.2 15.4601 13.1466C15.3801 13.1133 15.3067 13.08 15.2334 13.0466C15.0734 12.9866 14.9134 12.9133 14.7601 12.84C14.7467 12.84 14.7267 12.8266 14.7134 12.82C14.5267 12.7266 14.3467 12.64 14.1601 12.54C14.1401 12.5266 14.1201 12.52 14.0934 12.5066C13.9134 12.4066 13.7334 12.3066 13.5601 12.2C13.3867 12.1 13.2201 12 13.0601 11.8933C12.9801 11.84 12.9067 11.7866 12.8267 11.74C12.7001 11.6533 12.5734 11.5666 12.4534 11.4733C12.2734 11.3466 12.1001 11.2133 11.9267 11.0733C11.5934 10.8066 11.2734 10.5266 10.9667 10.2266C10.8001 10.0666 10.6334 9.89998 10.4734 9.72664C10.5067 9.52664 10.5467 9.31998 10.5934 9.11998C11.1201 6.77331 12.2134 4.69331 13.6934 2.99998C14.2467 2.36664 15.2734 2.68664 15.4201 3.51331C15.6934 5.06664 16.2201 6.55331 16.9667 7.90664C17.7467 9.31998 18.7734 10.5933 20.0001 11.6666Z" fill="#222343"/>
<path d="M29.1267 6.93998L27.9867 8.43331H27.9801L26.6934 7.21998C26.3267 6.87331 26.1667 6.36664 26.2534 5.87331L26.3534 5.33331H28.3334C29.1601 5.33331 29.6267 6.28664 29.1267 6.93998Z" fill="#222343"/>
<path opacity="0.85" fill-rule="evenodd" clip-rule="evenodd" d="M27.9867 8.4333V15.7133C27.9934 15.8 28.0001 15.8933 28.0001 15.98C28.0001 16.0733 27.9934 16.1666 27.9867 16.2599L27.9867 16.4733H27.9801C27.7667 20.9266 24.6734 24.62 20.5201 25.7266C19.7467 25.9333 18.9467 26.0533 18.1134 26.0666C17.3267 26.06 16.5534 25.9866 15.8067 25.8466L11.0266 29.4666C7.89997 29.2533 5.05331 28.02 2.82664 26.0933C2.21997 25.5733 2.43997 24.58 3.20664 24.3666L9.17331 22.7C6.17331 20.1266 4.26672 16.3 4.26672 12.04C4.26672 9.6333 4.87339 7.36663 5.94672 5.38663C6.34672 4.6533 7.42006 4.7333 7.74006 5.50664C8.34672 6.96663 9.18672 8.29997 10.2201 9.4533C10.2738 9.51605 10.3306 9.57578 10.3884 9.63656C10.4166 9.66618 10.445 9.69605 10.4734 9.72663C10.6334 9.89997 10.8001 10.0666 10.9667 10.2266C11.2734 10.5266 11.5934 10.8066 11.9267 11.0733C12.1001 11.2133 12.2734 11.3466 12.4534 11.4733C12.5734 11.5666 12.7001 11.6533 12.8267 11.74C12.8836 11.7732 12.9372 11.8097 12.9921 11.8473C13.0144 11.8625 13.037 11.8779 13.0601 11.8933C13.2201 12 13.3867 12.1066 13.5601 12.2C13.7334 12.3133 13.9134 12.4133 14.0934 12.5066C14.1028 12.5114 14.1114 12.5152 14.1195 12.5189C14.1342 12.5255 14.1471 12.5314 14.1601 12.54C14.3401 12.64 14.5267 12.7333 14.7134 12.82C14.7165 12.8215 14.7201 12.8235 14.7238 12.8255C14.7358 12.8322 14.7499 12.84 14.7601 12.84C14.9134 12.9133 15.0734 12.9866 15.2334 13.0466C15.3067 13.08 15.3801 13.1133 15.4601 13.1466C15.6001 13.2066 15.7467 13.26 15.8934 13.3066C16.0734 13.3733 16.2534 13.4333 16.4334 13.4933C16.5667 13.54 16.7001 13.58 16.8401 13.6133C16.9734 13.66 17.1001 13.6933 17.2334 13.7266C17.2445 13.7289 17.2556 13.7318 17.2667 13.7348C17.2889 13.7407 17.3112 13.7466 17.3334 13.7466C17.5267 13.8 17.7201 13.84 17.9134 13.88C17.9234 13.8833 17.9351 13.885 17.9467 13.8866C17.9584 13.8883 17.9701 13.89 17.9801 13.8933C18.4134 13.98 18.8534 14.0466 19.3001 14.0866C19.5334 14.1133 19.7667 14.1333 20.0001 14.14V9.3333C20.0001 7.12663 21.7934 5.3333 24.0001 5.3333H26.3534L26.2534 5.8733C26.1667 6.36664 26.3267 6.8733 26.6934 7.21997L27.9801 8.4333H27.9867ZM22.5401 9.3333C22.5401 9.88663 22.9867 10.3333 23.5401 10.3333C24.0934 10.3333 24.5401 9.88663 24.5401 9.3333C24.5401 8.77997 24.0934 8.3333 23.5401 8.3333C22.9867 8.3333 22.5401 8.77997 22.5401 9.3333Z" fill="#222343"/>
<path opacity="0.2" d="M23.54 10.3333C24.0923 10.3333 24.54 9.88554 24.54 9.33325C24.54 8.78097 24.0923 8.33325 23.54 8.33325C22.9878 8.33325 22.54 8.78097 22.54 9.33325C22.54 9.88554 22.9878 10.3333 23.54 10.3333Z" fill="#222343"/>
</svg>
