<svg width="32" height="32" viewBox="0 0 32 32" fill="none" xmlns="http://www.w3.org/2000/svg">
<path d="M7.32666 26.6666C6.79333 26.6666 6.32666 26.4666 5.92666 26.0666C5.52666 25.6666 5.32666 25.1999 5.32666 24.6666V20.8999C5.32666 20.6132 5.41999 20.3799 5.61333 20.1866C5.80666 19.9932 6.04666 19.8999 6.33333 19.8999C6.61999 19.8999 6.85333 19.9932 7.04666 20.1866C7.23333 20.3799 7.33333 20.6132 7.33333 20.8999V24.6666H24.6667V20.8999C24.6667 20.6132 24.76 20.3799 24.9533 20.1866C25.1467 19.9932 25.3867 19.8999 25.6733 19.8999C25.96 19.8999 26.1933 19.9932 26.3867 20.1866C26.5733 20.3799 26.6733 20.6132 26.6733 20.8999V24.6666C26.6733 25.1999 26.4733 25.6666 26.0733 26.0666C25.6733 26.4666 25.2067 26.6666 24.6733 26.6666H7.32666Z" fill="#222343"/>
<path opacity="0.85" d="M15.9934 21.1666C15.8601 21.1666 15.7401 21.1466 15.6334 21.0999C15.5267 21.0533 15.4134 20.9799 15.3001 20.8666L10.2667 15.8333C10.0667 15.6266 9.9734 15.3866 9.98007 15.1133C9.9934 14.8399 10.0934 14.5999 10.2867 14.3999C10.4934 14.1999 10.7401 14.0999 11.0134 14.0999C11.2867 14.0999 11.5334 14.1999 11.7334 14.3999L15.0001 17.6999V6.33325C15.0001 6.04659 15.0934 5.81325 15.2867 5.61992C15.4801 5.42659 15.7201 5.33325 16.0067 5.33325C16.2934 5.33325 16.5267 5.42659 16.7201 5.61992C16.9067 5.81325 17.0067 6.04659 17.0067 6.33325V17.6999L20.3067 14.3999C20.5001 14.1999 20.7334 14.1066 21.0067 14.1133C21.2734 14.1266 21.5134 14.2333 21.7201 14.4333C21.9134 14.6333 22.0067 14.8733 22.0067 15.1533C22.0067 15.4333 21.9067 15.6733 21.7067 15.8733L16.7067 20.8733C16.5934 20.9866 16.4801 21.0599 16.3667 21.1066C16.2534 21.1533 16.1334 21.1733 16.0001 21.1733L15.9934 21.1666Z" fill="#222343"/>
</svg>
