<svg width="32" height="32" viewBox="0 0 32 32" fill="none" xmlns="http://www.w3.org/2000/svg">
<path opacity="0.52" d="M27.2201 27.9333H4.66675C3.56008 27.9333 2.66675 27.04 2.66675 25.9333V12.6C2.66675 13.36 3.08675 14.02 3.71341 14.36L14.9934 20.88C14.9934 20.88 15.0067 20.8866 15.0134 20.8933L16.0001 21.46L27.2201 27.9333Z" fill="currentColor"/>
<path opacity="0.85" d="M29.3334 12.6V25.9333C29.3334 27.04 28.4334 27.9333 27.3334 27.9333H27.2201L16.0001 21.46L15.0134 20.8933C15.6268 21.24 16.3868 21.2333 17.0001 20.88L28.2868 14.36C28.9134 14.02 29.3334 13.36 29.3334 12.6Z" fill="currentColor"/>
<path d="M29.3334 12.6C29.3334 13.36 28.9134 14.02 28.2867 14.36L17.0001 20.88C16.3867 21.2333 15.6267 21.24 15.0134 20.8933C15.0134 20.8933 15.0001 20.8933 14.9934 20.88L3.71341 14.36C3.08675 14.02 2.66675 13.36 2.66675 12.6C2.66675 11.9133 3.01341 11.3 3.54675 10.94C3.60675 10.9 3.67341 10.86 3.73341 10.8266L15.0001 4.32665C15.6134 3.97331 16.3801 3.97331 16.9934 4.32665L28.2601 10.8266C28.3267 10.86 28.3934 10.9 28.4534 10.94C28.9801 11.3 29.3334 11.9133 29.3334 12.6Z" fill="currentColor"/>
</svg>
