<svg width="32" height="32" viewBox="0 0 32 32" fill="none" xmlns="http://www.w3.org/2000/svg">
<g opacity="0.52">
<path d="M19.6668 25.3333H9.36676C9.11343 25.3333 8.86009 25.2266 8.70009 25.0333C8.47343 24.7599 8.38009 24.4466 8.40009 24.0999C8.53343 22.1866 8.80676 20.4333 9.22009 18.8333C9.62676 17.2333 10.2001 15.5999 10.9334 13.9333C11.6668 12.2666 12.4601 10.9066 13.3201 9.84659C14.1734 8.79325 15.0134 8.26658 15.8601 8.26658C15.7668 8.26658 14.7601 8.37325 17.3668 13.0666L16.1334 16.9999L19.6668 24.8333V25.3333Z" fill="currentColor"/>
<path d="M26.6667 17.0134V30.1668C26.6667 30.4401 26.4401 30.6668 26.1667 30.6668C25.8934 30.6668 25.6667 30.4401 25.6667 30.1668V17.0134C25.6667 16.4601 25.2134 16.0068 24.6601 16.0068C24.1068 16.0068 23.6534 16.4601 23.6534 17.0134V18.0068C23.6534 18.2801 23.4334 18.5068 23.1534 18.5068C22.8734 18.5068 22.6534 18.2801 22.6534 18.0068V17.0134C22.6534 16.9734 22.6534 16.9401 22.6534 16.9001C22.6934 16.1801 23.1134 15.5534 23.7267 15.2334C24.0001 15.0868 24.3134 15.0068 24.6467 15.0068C25.7534 15.0068 26.6534 15.9068 26.6534 17.0134H26.6667Z" fill="currentColor"/>
<path d="M16.9401 2.53325C16.9401 3.19992 16.4001 3.73992 15.7334 3.73992C15.5534 3.73992 15.3868 3.69992 15.2334 3.62659C14.8201 3.43992 14.5334 3.01992 14.5334 2.53325C14.5334 1.87325 15.0734 1.33325 15.7334 1.33325C16.2134 1.33325 16.6268 1.61325 16.8201 2.01992C16.9001 2.17325 16.9401 2.34659 16.9401 2.53325Z" fill="currentColor"/>
</g>
<g opacity="0.85">
<path d="M23.7333 15.2333C23.12 15.5533 22.7 16.18 22.66 16.9C21.66 16.6333 20.6667 16.1466 19.6667 15.4333C18.6667 14.72 17.9 13.9333 17.3667 13.0666C14.76 8.37331 15.7667 8.26664 15.86 8.26664C16.48 8.26664 16.9867 8.49998 17.38 8.96664C17.7667 9.43331 18.18 10.1666 18.6267 11.1666C19.0733 12.1866 19.7267 13.0266 20.5933 13.68C21.46 14.34 22.5067 14.8533 23.7267 15.2333H23.7333Z" fill="currentColor"/>
<path d="M20.0333 4.34664C20.0333 5.69998 18.9333 6.79998 17.58 6.79998C16.2267 6.79998 15.1267 5.69998 15.1267 4.34664C15.1267 4.09331 15.1667 3.85331 15.2333 3.62664C15.3867 3.69998 15.5533 3.73998 15.7333 3.73998C16.4 3.73998 16.94 3.19998 16.94 2.53331C16.94 2.34664 16.9 2.17331 16.82 2.01998C17.06 1.93331 17.3133 1.89331 17.58 1.89331C18.9333 1.89331 20.0333 2.99331 20.0333 4.34664Z" fill="currentColor"/>
<path d="M11.08 26.2466L9.26666 28.6666C9.08666 28.8866 9.01999 29.1333 9.06666 29.4C9.11332 29.6666 9.24666 29.8866 9.46666 30.0666C9.68666 30.2466 9.93332 30.3133 10.2 30.2666C10.4667 30.22 10.6867 30.0866 10.8667 29.8666L13.58 26.2466L14.2667 25.3333H11.7667L11.08 26.2466Z" fill="currentColor"/>
<path d="M17.6667 25.3333V29.6666C17.6667 30.22 18.1133 30.6666 18.6667 30.6666C19.22 30.6666 19.6667 30.22 19.6667 29.6666V25.3333H17.6667Z" fill="currentColor"/>
</g>
<g opacity="0.52">
<path d="M14.2667 25.3333L13.5801 26.2466H11.0801L11.7667 25.3333H14.2667Z" fill="currentColor"/>
<path d="M19.6667 25.3333H17.6667V26.2466H19.6667V25.3333Z" fill="currentColor"/>
</g>
</svg>
