<svg width="32" height="32" viewBox="0 0 32 32" fill="none" xmlns="http://www.w3.org/2000/svg">
<g clip-path="url(#clip0_4024_6076)">
<path opacity="0.85" d="M27.9867 10.8868C27.9733 10.7868 27.9467 10.6802 27.9 10.5668L25.3 2.70016C25.1667 2.28016 24.9267 1.94683 24.5733 1.70016C24.2267 1.4535 23.8333 1.3335 23.4 1.3335H8.6C8.16667 1.3335 7.77333 1.4535 7.42667 1.70016C7.07333 1.94683 6.83333 2.28016 6.7 2.70016L4.1 10.5668C4.05333 10.6802 4.02667 10.7868 4.02 10.8868C4.00667 10.9935 4 11.0935 4 11.2002V21.3335C4 21.7068 4.12667 22.0202 4.38667 22.2802C4.64 22.5402 4.95333 22.6668 5.32667 22.6668C5.7 22.6668 6.01333 22.5402 6.27333 22.2802C6.53333 22.0202 6.66667 21.7068 6.66667 21.3335V19.8668H25.3V21.3002C25.3 21.6802 25.4333 22.0002 25.7 22.2668C25.9667 22.5335 26.2867 22.6668 26.66 22.6668C27.0333 22.6668 27.3467 22.5402 27.6067 22.2802C27.8667 22.0202 28 21.7068 28 21.3335V11.2002C28 11.0935 27.9933 10.9935 27.9867 10.8868ZM10.82 15.6735C10.4733 16.0268 10.04 16.2002 9.52667 16.2002C9.01333 16.2002 8.57333 16.0268 8.20667 15.6802C7.84667 15.3402 7.66667 14.9068 7.66667 14.3935C7.66667 13.8802 7.84667 13.4402 8.21333 13.0735C8.57333 12.7135 9.01333 12.5335 9.53333 12.5335C10.0533 12.5335 10.46 12.7135 10.8067 13.0802C11.16 13.4402 11.3333 13.8802 11.3333 14.4002C11.3333 14.9202 11.16 15.3268 10.82 15.6735ZM23.82 15.6735C23.46 16.0268 23.02 16.2002 22.5 16.2002C21.98 16.2002 21.5733 16.0268 21.2267 15.6802C20.8733 15.3402 20.7 14.9068 20.7 14.3935C20.7 13.8802 20.8733 13.4402 21.22 13.0735C21.56 12.7135 21.9933 12.5335 22.5067 12.5335C23.02 12.5335 23.46 12.7135 23.8267 13.0802C24.1867 13.4402 24.3667 13.8802 24.3667 14.4002C24.3667 14.9202 24.1867 15.3268 23.82 15.6735ZM6.76667 8.86683L8.6 3.3335H23.4L25.2333 8.86683H6.76667Z" fill="currentColor"/>
<path opacity="0.32" d="M25.2333 8.86659H6.7666L8.59993 3.33325H23.3999L25.2333 8.86659Z" fill="currentColor"/>
<g opacity="0.2">
<path d="M9.53317 12.5332C9.01317 12.5332 8.57317 12.7132 8.21317 13.0732C7.8465 13.4399 7.6665 13.8732 7.6665 14.3932C7.6665 14.9132 7.8465 15.3399 8.2065 15.6799C8.57317 16.0265 9.0065 16.1999 9.5265 16.1999C10.0465 16.1999 10.4732 16.0265 10.8198 15.6732C11.1598 15.3265 11.3332 14.8999 11.3332 14.3999C11.3332 13.8999 11.1598 13.4399 10.8065 13.0799C10.4598 12.7132 10.0332 12.5332 9.53317 12.5332Z" fill="currentColor"/>
<path d="M23.8265 13.0799C23.4598 12.7132 23.0265 12.5332 22.5065 12.5332C21.9865 12.5332 21.5598 12.7132 21.2198 13.0732C20.8732 13.4399 20.6998 13.8732 20.6998 14.3932C20.6998 14.9132 20.8732 15.3399 21.2265 15.6799C21.5732 16.0265 21.9998 16.1999 22.4998 16.1999C22.9998 16.1999 23.4598 16.0265 23.8198 15.6732C24.1865 15.3265 24.3665 14.8999 24.3665 14.3999C24.3665 13.8999 24.1865 13.4399 23.8265 13.0799Z" fill="currentColor"/>
</g>
<path d="M17.2001 28V29.8333C17.2001 30.0133 17.1201 30.1533 16.9667 30.2533C16.8134 30.3533 16.6467 30.3533 16.4667 30.2667L10.6334 27.2C10.5201 27.1333 10.4801 27.04 10.5001 26.9133C10.5267 26.7933 10.6001 26.7267 10.7334 26.7267H14.6667V24.9933C14.6667 24.8133 14.7467 24.6733 14.9001 24.5733C15.0534 24.4733 15.2201 24.4733 15.4001 24.56L21.3334 27.5267C21.4467 27.5933 21.4867 27.6867 21.4534 27.8067C21.4201 27.9267 21.3334 27.9933 21.2001 27.9933H17.2001V28Z" fill="currentColor"/>
</g>
<defs>
<clipPath id="clip0_4024_6076">
<rect width="32" height="32" fill="white"/>
</clipPath>
</defs>
</svg>
