<svg width="32" height="32" viewBox="0 0 32 32" fill="none" xmlns="http://www.w3.org/2000/svg">
<path opacity="0.32" fill-rule="evenodd" clip-rule="evenodd" d="M27.6334 15.9801L16 27.6134V27.6201L4.3667 15.9867L16 4.35339L27.6334 15.9801Z" fill="#222343"/>
<path d="M17.4 29.0467C17.22 29.2267 17.0134 29.3667 16.7667 29.4601C16.52 29.5601 16.2667 29.6067 16 29.6067C15.7334 29.6067 15.48 29.5601 15.2334 29.4601C14.9867 29.3601 14.78 29.2201 14.6 29.0467L2.93336 17.3867C2.75336 17.2067 2.62002 17.0001 2.53336 16.7534C2.44669 16.5067 2.40002 16.2534 2.40002 15.9867C2.40002 15.7201 2.44669 15.4667 2.53336 15.2201C2.62002 14.9734 2.75336 14.7667 2.93336 14.5867L14.6 2.92005C14.78 2.74005 14.9867 2.60672 15.2334 2.52005C15.48 2.43339 15.7334 2.38672 16 2.38672C16.2667 2.38672 16.52 2.43339 16.7667 2.52005C17.0134 2.60672 17.22 2.74005 17.4 2.92005L29.0667 14.5867C29.2467 14.7667 29.38 14.9734 29.4667 15.2201C29.5534 15.4667 29.6 15.7201 29.6 15.9867C29.6 16.2534 29.5534 16.5067 29.4667 16.7534C29.38 17.0001 29.2467 17.2067 29.0667 17.3867L17.4 29.0534V29.0467ZM16 27.6134L27.6334 15.9801L16 4.35339L4.36669 15.9867L16 27.6201V27.6134Z" fill="#222343"/>
<g opacity="0.85">
<path d="M16 17.3201C16.2867 17.3201 16.5267 17.2267 16.72 17.0401C16.9067 16.8534 17 16.6134 17 16.3201V10.3201C17 10.0334 16.9067 9.7934 16.72 9.60674C16.5333 9.42007 16.2933 9.32007 16 9.32007C15.7067 9.32007 15.4733 9.4134 15.28 9.60674C15.0933 9.7934 15 10.0334 15 10.3201V16.3201C15 16.6067 15.0933 16.8467 15.28 17.0401C15.4667 17.2267 15.7067 17.3201 16 17.3201Z" fill="#222343"/>
<path d="M16 20.9866C16.2667 20.9866 16.5 20.8866 16.7 20.6866C16.9 20.4866 17 20.2532 17 19.9866C17 19.7199 16.9 19.4866 16.7 19.2866C16.5 19.0866 16.2667 18.9866 16 18.9866C15.7333 18.9866 15.5 19.0866 15.3 19.2866C15.1 19.4866 15 19.7199 15 19.9866C15 20.2532 15.1 20.4866 15.3 20.6866C15.5 20.8866 15.7333 20.9866 16 20.9866Z" fill="#222343"/>
</g>
</svg>
