<svg width="32" height="32" viewBox="0 0 32 32" fill="none" xmlns="http://www.w3.org/2000/svg">
<path opacity="0.2" d="M16.0333 21.4001L13.4 24.0334C13.2 24.2334 12.9666 24.3334 12.7 24.3334C12.4333 24.3334 12.2 24.2334 12 24.0334C11.8 23.8334 11.7 23.5934 11.7 23.3134C11.7 23.0334 11.8 22.8001 12 22.6001L14.6 20.0001L11.9666 17.4001C11.7666 17.2001 11.6666 16.9667 11.6666 16.7001C11.6666 16.4334 11.7666 16.2001 11.9666 16.0001C12.1666 15.8001 12.4066 15.7001 12.6866 15.7001C12.9666 15.7001 13.2066 15.8001 13.4066 16.0001L16.0066 18.5667L18.6066 15.9667C18.8066 15.7667 19.04 15.6667 19.3066 15.6667C19.5733 15.6667 19.8066 15.7667 20.0066 15.9667C20.2066 16.1667 20.3066 16.4067 20.3066 16.6867C20.3066 16.9667 20.2066 17.2001 20.0066 17.4001L17.44 20.0001L20.04 22.6001C20.24 22.8001 20.34 23.0334 20.34 23.3001C20.34 23.5667 20.24 23.8001 20.04 24.0001C19.84 24.2001 19.6 24.3001 19.32 24.3001C19.04 24.3001 18.8066 24.2001 18.6066 24.0001L16.04 21.4001H16.0333Z" fill="#222343"/>
<path d="M23.8333 3.74675C23.8333 3.14675 23.3467 2.66675 22.7533 2.66675C22.16 2.66675 21.6733 3.15341 21.6733 3.74675V4.66675H21.66V5.57341C21.66 6.17341 22.1467 6.65341 22.74 6.65341H22.7467C23.3467 6.65341 23.8267 6.16675 23.8267 5.57341V4.66675H23.84V3.74675H23.8333Z" fill="#222343"/>
<path fill-rule="evenodd" clip-rule="evenodd" d="M4 13V27.3333C4 28.44 4.89333 29.3333 6 29.3333H26C27.1067 29.3333 28 28.44 28 27.3333V13H4ZM20.0333 24C19.8333 24.2 19.5933 24.3 19.3133 24.3C19.0333 24.3 18.8 24.2 18.6 24L16.0333 21.4L13.4 24.0333C13.2 24.2333 12.9667 24.3333 12.7 24.3333C12.4333 24.3333 12.2 24.2333 12 24.0333C11.8 23.8333 11.7 23.5933 11.7 23.32C11.7 23.0467 11.8 22.8067 12 22.6L14.6 20L11.9667 17.4C11.7667 17.2 11.6667 16.9667 11.6667 16.7C11.6667 16.4333 11.7667 16.2 11.9667 16C12.1667 15.8 12.4067 15.7 12.6867 15.7C12.9667 15.7 13.2 15.8 13.4 16L16 18.5667L18.6 15.9667C18.8 15.7667 19.0333 15.6667 19.3 15.6667C19.5667 15.6667 19.8 15.7667 20 15.9667C20.2 16.1667 20.3 16.4067 20.3 16.68C20.3 16.9533 20.2 17.1933 20 17.4L17.4333 20L20.0333 22.6C20.2333 22.8 20.3333 23.0333 20.3333 23.3C20.3333 23.5667 20.2333 23.8 20.0333 24Z" fill="#222343"/>
<path d="M10.3266 3.74675C10.3266 3.14675 9.83996 2.66675 9.24663 2.66675C8.65329 2.66675 8.16663 3.15341 8.16663 3.74675V4.66675H8.16003V5.57341C8.16003 6.17341 8.6467 6.65341 9.24003 6.65341H9.2467C9.8467 6.65341 10.3267 6.16675 10.3267 5.57341V4.66675H10.3333V3.74675H10.3266Z" fill="#222343"/>
<path opacity="0.52" d="M26.0067 4.66675C27.1134 4.66675 28.0067 5.56008 28.0067 6.66675V13.0001H4.00671V6.66675C4.00671 5.56008 4.90005 4.66675 6.00671 4.66675H26.0067Z" fill="#222343"/>
</svg>
