<svg width="32" height="32" viewBox="0 0 32 32" fill="none" xmlns="http://www.w3.org/2000/svg">
<path opacity="0.52" d="M26 4.66675H23.8334V5.57341C23.8334 6.17341 23.3467 6.65341 22.7534 6.65341C22.16 6.65341 21.6734 6.16675 21.6734 5.57341V4.66675H10.3267V5.57341C10.3267 6.17341 9.84005 6.65341 9.24671 6.65341C8.65338 6.65341 8.16671 6.16675 8.16671 5.57341V4.66675H6.00671C4.90005 4.66675 4.00671 5.56008 4.00671 6.66675V13.0001H28.0067V6.66675C28.0067 5.56008 27.1134 4.66675 26.0067 4.66675H26Z" fill="#222343"/>
<path d="M10.3266 3.74675C10.3266 3.14675 9.83996 2.66675 9.24663 2.66675C8.65329 2.66675 8.16663 3.15341 8.16663 3.74675V4.66675H8.16003V5.57341C8.16003 6.17341 8.6467 6.65341 9.24003 6.65341H9.2467C9.8467 6.65341 10.3267 6.16675 10.3267 5.57341V4.66675H10.3333V3.74675H10.3266Z" fill="#222343"/>
<path d="M22.7533 2.66675C23.3467 2.66675 23.8333 3.14675 23.8333 3.74675H23.84V4.66675H23.8267V5.57341C23.8267 6.16675 23.3467 6.65341 22.7467 6.65341H22.74C22.1467 6.65341 21.66 6.17341 21.66 5.57341V4.66675H21.6733V3.74675C21.6733 3.15341 22.16 2.66675 22.7533 2.66675Z" fill="#222343"/>
<path d="M4 13V27.3333C4 28.44 4.89333 29.3333 6 29.3333H26C27.1067 29.3333 28 28.44 28 27.3333V13H4ZM21.2667 17.5667L15.1333 23.7C14.9333 23.9 14.7 24 14.4333 24C14.1667 24 13.9333 23.9 13.7333 23.7L10.5333 20.5333C10.3333 20.3333 10.2333 20.1 10.2333 19.8333C10.2333 19.5667 10.3333 19.3333 10.5333 19.1333C10.7333 18.9333 10.9667 18.8333 11.2333 18.8333C11.5 18.8333 11.7333 18.9333 11.9333 19.1333L14.4333 21.5667L19.8667 16.1333C20.0467 15.9533 20.2733 15.8667 20.5533 15.8667C20.8333 15.8667 21.0667 15.9667 21.2733 16.1667C21.4733 16.3667 21.5733 16.6 21.5733 16.8667C21.5733 17.1333 21.4733 17.3667 21.2733 17.5667H21.2667Z" fill="#222343"/>
<path opacity="0.2" d="M13.7333 23.7L10.5333 20.5334C10.3333 20.3334 10.2333 20.1 10.2333 19.8334C10.2333 19.5667 10.3333 19.3334 10.5333 19.1334C10.7333 18.9334 10.9666 18.8334 11.2333 18.8334C11.4999 18.8334 11.7333 18.9334 11.9333 19.1334L14.4333 21.5667L19.8666 16.1334C20.0466 15.9534 20.2733 15.8667 20.5466 15.8667C20.8199 15.8667 21.0599 15.9667 21.2666 16.1667C21.4666 16.3667 21.5666 16.6 21.5666 16.8667C21.5666 17.1334 21.4666 17.3667 21.2666 17.5667L15.1333 23.7C14.9333 23.9 14.6999 24 14.4333 24C14.1666 24 13.9333 23.9 13.7333 23.7Z" fill="#222343"/>
</svg>
