<svg width="32" height="32" viewBox="0 0 32 32" fill="none" xmlns="http://www.w3.org/2000/svg">
<g clip-path="url(#clip0_4072_814)">
<path opacity="0.52" d="M6 4.66675H26C27.1067 4.66675 28 5.56008 28 6.66675V13.0001H4V6.66675C4 5.56008 4.89333 4.66675 6 4.66675Z" fill="currentColor"/>
<path d="M4 13.0001V27.3334C4 28.4401 4.89333 29.3334 6 29.3334H26C27.1067 29.3334 28 28.4401 28 27.3334V13.0001H4ZM25.0533 26.4267C24.4333 27.0467 23.6667 27.3601 22.7533 27.3601C21.84 27.3601 21.0733 27.0467 20.4533 26.4267C19.8333 25.8067 19.52 25.0401 19.52 24.1267C19.52 23.2134 19.8333 22.4467 20.4533 21.8267C21.0733 21.2067 21.84 20.8934 22.7533 20.8934C23.6667 20.8934 24.4333 21.2067 25.0533 21.8267C25.6733 22.4467 25.9867 23.2134 25.9867 24.1267C25.9867 25.0401 25.6733 25.8067 25.0533 26.4267Z" fill="currentColor"/>
<path d="M22.7533 2.66675H22.7467C22.1502 2.66675 21.6667 3.15028 21.6667 3.74675V5.57341C21.6667 6.16988 22.1502 6.65341 22.7467 6.65341H22.7533C23.3498 6.65341 23.8333 6.16988 23.8333 5.57341V3.74675C23.8333 3.15028 23.3498 2.66675 22.7533 2.66675Z" fill="currentColor"/>
<path d="M9.24667 2.66675H9.24C8.64353 2.66675 8.16 3.15028 8.16 3.74675V5.57341C8.16 6.16988 8.64353 6.65341 9.24 6.65341H9.24667C9.84313 6.65341 10.3267 6.16988 10.3267 5.57341V3.74675C10.3267 3.15028 9.84313 2.66675 9.24667 2.66675Z" fill="currentColor"/>
</g>
<defs>
<clipPath id="clip0_4072_814">
<rect width="32" height="32" fill="white"/>
</clipPath>
</defs>
</svg>
