<svg width="32" height="32" viewBox="0 0 32 32" fill="none" xmlns="http://www.w3.org/2000/svg">
<path opacity="0.85" d="M29.3334 16C29.3334 8.63329 23.3667 2.66663 16.0001 2.66663C8.63341 2.66663 2.66675 8.63329 2.66675 16C2.66675 22.6533 7.54008 28.1733 13.9201 29.1733V19.8533H10.5334V16H13.9201V13.06C13.9201 9.71996 15.9134 7.87329 18.9534 7.87329C20.4134 7.87329 21.9401 8.13329 21.9401 8.13329V11.4133H20.2601C18.6067 11.4133 18.0867 12.44 18.0867 13.4933V15.9933H21.7867L21.1934 19.8466H18.0867V29.1666C24.4601 28.1666 29.3401 22.6533 29.3401 15.9933L29.3334 16Z" fill="#222343"/>
<path opacity="0.2" d="M21.1933 19.8533L21.7867 16H18.0867V13.5C18.0867 12.4467 18.6 11.42 20.26 11.42H21.94V8.14001C21.94 8.14001 20.4133 7.88 18.9533 7.88C15.9067 7.88 13.92 9.72667 13.92 13.0667V16.0067H10.5333V19.86H13.92V29.18C14.6 29.2867 15.2933 29.34 16 29.34C16.7067 29.34 17.4067 29.2867 18.08 29.18V19.86H21.1867L21.1933 19.8533Z" fill="#222343"/>
</svg>
