<svg width="32" height="32" viewBox="0 0 32 32" fill="none" xmlns="http://www.w3.org/2000/svg">
<path opacity="0.32" d="M22.8533 14.1134C22.8 14.1134 22.7467 14.1134 22.6933 14.1134C22.4933 14.1134 22.2933 14.1068 22.0933 14.1001C20.3333 14.0534 18.74 13.7268 17.3067 13.1134C17.1 13.0268 16.9 12.9334 16.7067 12.8334C16.66 12.8134 16.62 12.8001 16.5733 12.7801C16.5533 12.7734 16.54 12.7601 16.52 12.7534C16.24 12.6134 15.9667 12.4668 15.6933 12.3134C14.4267 11.6134 13.2933 10.7401 12.3 9.6801C12.08 9.45344 11.8667 9.2201 11.66 8.9801C10.9067 10.7801 9.82001 12.3534 8.40668 13.7001C7.00001 15.0401 5.38668 16.0801 3.56668 16.8134C3.56668 16.8534 3.56668 16.8934 3.56668 16.9334C3.58001 18.4401 3.84001 19.8401 4.33335 21.1334C4.35335 21.1934 4.37335 21.2534 4.40001 21.3134C4.51335 21.6001 4.64668 21.8801 4.78668 22.1534C4.81335 22.2068 4.83335 22.2534 4.86001 22.3068C5.37335 23.2801 6.04001 24.1801 6.86001 25.0134C7.14668 25.3068 7.44001 25.5734 7.74001 25.8268C9.69335 27.4201 12.18 28.3734 14.8867 28.3801C14.8867 28.3801 14.8867 28.3801 14.8933 28.3801C21.14 28.3801 26.22 23.2934 26.22 17.0468C26.22 16.7868 26.2067 16.5268 26.1933 16.2668C26.1867 16.1468 26.1734 16.0268 26.16 15.9134C26.1534 15.8268 26.14 15.7468 26.1333 15.6601L26.0667 15.2068C25.9867 14.7334 25.8867 14.2668 25.7467 13.8134C25.3067 13.9201 24.8267 14.0001 24.3067 14.0468C23.9333 14.0801 23.5333 14.0868 23.14 14.0934C23.04 14.0934 22.9467 14.1068 22.8467 14.1068L22.8533 14.1134Z" fill="#222343"/>
<g opacity="0.85">
<path d="M27.98 14.42C27.92 14.16 27.84 13.8667 27.76 13.58C27.6667 13.2334 27.56 12.9 27.44 12.5667C27.36 12.3267 27.2933 12.1067 27.2 11.8534V11.8734C25.8667 8.73338 23.3733 6.22005 20.26 4.84671H20.2733C20.2733 4.84671 20.2133 4.82005 20.18 4.80671C19.6667 4.58671 19.1333 4.40005 18.5867 4.24005C18.1933 4.11338 17.8267 4.01338 17.4867 3.94671C16.7 3.79338 15.84 3.71338 14.9 3.71338C13.0333 3.71338 11.2867 4.06005 9.66668 4.74671C8.04668 5.43338 6.63335 6.38005 5.43335 7.58005C4.23335 8.78005 3.28668 10.1934 2.60001 11.8134C1.91335 13.4334 1.56668 15.18 1.56668 17.0467C1.56668 18.9134 1.91335 20.66 2.60001 22.28C3.28668 23.9 4.23335 25.3134 5.43335 26.5134C6.63335 27.7134 8.04668 28.66 9.66668 29.3467C11.2867 30.0334 13.0267 30.38 14.8867 30.38C14.8867 30.38 14.8933 30.38 14.9 30.38C14.9 30.38 14.9067 30.38 14.9133 30.38C16.7733 30.38 18.5133 30.0267 20.1333 29.3334C21.7533 28.6334 23.1667 27.68 24.3667 26.48C25.5667 25.28 26.5133 23.8667 27.2 22.2467C27.8867 20.6267 28.2333 18.8934 28.2333 17.0467C28.2333 16.0467 28.1533 15.1667 27.98 14.4134V14.42ZM26.2333 17.0534C26.2333 23.3 21.1533 28.38 14.9067 28.3867C14.9067 28.3867 14.9067 28.3867 14.9 28.3867C12.1933 28.3867 9.70668 27.4267 7.75335 25.8334C7.45335 25.58 7.16001 25.3067 6.87335 25.02C6.05335 24.1867 5.38668 23.28 4.87335 22.3134C4.84668 22.2667 4.82668 22.2134 4.80001 22.16C4.66001 21.8867 4.52668 21.6067 4.41335 21.32C4.38668 21.26 4.37335 21.2 4.34668 21.14C3.84668 19.8467 3.59335 18.4467 3.58001 16.94C3.58001 16.9 3.58001 16.86 3.58001 16.82C5.40001 16.0867 7.01335 15.0467 8.42001 13.7067C9.83335 12.36 10.9133 10.7867 11.6733 8.98671C11.88 9.22671 12.1 9.46004 12.3133 9.68671C13.3067 10.7467 14.44 11.6267 15.7067 12.32C15.9733 12.4734 16.2533 12.62 16.5333 12.76C16.5533 12.7667 16.5667 12.78 16.5867 12.7867C16.6267 12.8067 16.6733 12.82 16.72 12.84C16.92 12.9334 17.12 13.0267 17.32 13.12C18.7533 13.7267 20.3467 14.0534 22.1067 14.1067C22.3067 14.1134 22.5067 14.12 22.7067 14.12C22.76 14.12 22.8133 14.12 22.8667 14.12C22.96 14.12 23.06 14.1134 23.16 14.1067C23.5533 14.1 23.9467 14.0934 24.3267 14.06C24.8467 14.0134 25.3267 13.94 25.7667 13.8267C25.9 14.28 26.0067 14.7467 26.0867 15.22L26.1533 15.6734C26.1667 15.76 26.1733 15.84 26.18 15.9267C26.1933 16.04 26.2067 16.16 26.2133 16.28C26.2333 16.54 26.24 16.8 26.24 17.06L26.2333 17.0534Z" fill="#222343"/>
<path d="M19.1267 16.68C18.6133 16.68 18.1867 16.8533 17.8467 17.2C17.5067 17.5467 17.3333 17.9733 17.3333 18.48C17.3333 18.9867 17.5067 19.42 17.8467 19.76C18.1867 20.1 18.62 20.28 19.1267 20.28C19.6333 20.28 20.0667 20.1067 20.4133 19.76C20.76 19.4133 20.9267 18.9867 20.9267 18.48C20.9267 17.9733 20.7533 17.54 20.4133 17.2C20.0733 16.86 19.64 16.68 19.1267 16.68Z" fill="#222343"/>
<path d="M10.6933 16.68C10.18 16.68 9.75333 16.8533 9.41333 17.2C9.07333 17.5467 8.89333 17.9733 8.89333 18.48C8.89333 18.9867 9.06667 19.42 9.41333 19.76C9.76 20.1 10.1867 20.28 10.6933 20.28C11.2 20.28 11.6333 20.1067 11.9733 19.76C12.3133 19.4133 12.4933 18.9867 12.4933 18.48C12.4933 17.9733 12.32 17.54 11.9733 17.2C11.6267 16.86 11.2 16.68 10.6933 16.68Z" fill="#222343"/>
</g>
<path opacity="0.85" d="M24.5 13.5133L22.6333 9.28666L18.5333 7.54L22.6333 5.84666L24.5 1.62L26.32 5.84666L30.4267 7.54L26.32 9.28666L24.5 13.5133Z" fill="#222343"/>
</svg>
