<svg width="32" height="32" viewBox="0 0 32 32" fill="none" xmlns="http://www.w3.org/2000/svg">
<g opacity="0.52">
<path d="M16.0001 19.3999C15.1534 19.3999 14.4334 19.0999 13.8334 18.4999C13.2334 17.8999 12.9334 17.1799 12.9334 16.3333C12.9334 15.4866 13.2334 14.7666 13.8334 14.1666C14.4334 13.5666 15.1534 13.2666 16.0001 13.2666C16.8468 13.2666 17.5668 13.5666 18.1668 14.1666C18.7668 14.7666 19.0668 15.4866 19.0668 16.3333C19.0668 17.1799 18.7668 17.8999 18.1668 18.4999C17.5668 19.0999 16.8468 19.3999 16.0001 19.3999Z" fill="currentColor"/>
<path d="M22.4001 27.9666H9.6001C9.75343 27.2333 10.0268 26.5466 10.4201 25.9133C10.7668 25.3466 11.1868 24.8466 11.6868 24.4266C11.7468 24.3666 11.8068 24.3133 11.8668 24.2666C12.4468 23.7999 13.0868 23.4399 13.7868 23.1799C14.4868 22.9266 15.2268 22.7999 16.0001 22.7999C16.7734 22.7999 17.5201 22.9266 18.2201 23.1799C18.9201 23.4399 19.5534 23.7999 20.1334 24.2666C20.1934 24.3133 20.2534 24.3666 20.3134 24.4266C20.8134 24.8466 21.2334 25.3466 21.5868 25.9133C21.9734 26.5466 22.2468 27.2333 22.4001 27.9666Z" fill="currentColor"/>
</g>
<path d="M7.80008 20.8C7.14675 20.8 6.59341 20.5667 6.12675 20.0933C5.66008 19.62 5.43341 19.0533 5.43341 18.3933C5.43341 17.7333 5.66675 17.1667 6.12675 16.7C6.59341 16.2333 7.14675 16 7.80008 16C8.45341 16 9.04008 16.2333 9.52008 16.7067C9.99341 17.18 10.2334 17.7467 10.2334 18.4067C10.2334 19.0667 9.99341 19.6333 9.52008 20.1C9.04008 20.5667 8.47341 20.8 7.80008 20.8Z" fill="currentColor"/>
<path d="M24.1667 20.8C23.5001 20.8 22.9267 20.5667 22.4467 20.0933C21.9734 19.62 21.7334 19.0533 21.7334 18.3933C21.7334 17.7333 21.9734 17.1667 22.4467 16.7C22.9201 16.2333 23.4934 16 24.1667 16C24.8401 16 25.3734 16.2333 25.8401 16.7067C26.3067 17.18 26.5334 17.7467 26.5334 18.4067C26.5334 19.0667 26.3001 19.6333 25.8401 20.1C25.3801 20.5667 24.8201 20.8 24.1667 20.8Z" fill="currentColor"/>
<path d="M29.3334 26.7667C29.3334 27.1 29.2067 27.38 28.9601 27.6133C28.7067 27.8467 28.4001 27.9667 28.0334 27.9667H22.4001C22.2467 27.2334 21.9734 26.5467 21.5868 25.9133C21.2334 25.3467 20.8134 24.8467 20.3134 24.4267C20.4401 24.3067 20.5734 24.1933 20.7201 24.08C20.9467 23.9067 21.1734 23.7533 21.4067 23.6133C21.4067 23.6067 21.4067 23.6 21.4067 23.6C21.4534 23.5734 21.5001 23.5534 21.5467 23.5333C22.1667 23.1733 22.8001 22.9534 23.4534 22.86C23.4601 22.8534 23.4734 22.8533 23.4867 22.8533C23.7134 22.82 23.9401 22.8 24.1734 22.8H24.2401C24.4734 22.8 24.7001 22.82 24.9267 22.8533C24.9401 22.8533 24.9534 22.8534 24.9601 22.86C25.6134 22.9534 26.2467 23.1733 26.8667 23.5333C26.9134 23.5534 26.9601 23.5734 27.0067 23.6C27.0067 23.6 27.0001 23.6067 27.0001 23.6133C27.2334 23.7533 27.4601 23.9067 27.6934 24.08C28.7867 24.94 29.3401 25.8334 29.3401 26.7667H29.3334Z" fill="currentColor"/>
<path d="M11.6867 24.4267C11.1867 24.8467 10.7667 25.3467 10.4201 25.9133C10.0267 26.5467 9.75341 27.2334 9.60008 27.9667H3.96675C3.60008 27.9667 3.29341 27.8467 3.04008 27.6133C2.79341 27.38 2.66675 27.1 2.66675 26.7667C2.66675 25.8334 3.21341 24.94 4.31341 24.08C4.54675 23.9067 4.77341 23.7533 5.00675 23.6133C5.00675 23.6067 5.00008 23.6 5.00008 23.6C5.04675 23.5734 5.09341 23.5534 5.14008 23.5333C5.76008 23.1733 6.39341 22.9534 7.04675 22.86C7.05341 22.8534 7.06675 22.8533 7.08008 22.8533C7.30675 22.82 7.53341 22.8 7.76675 22.8H7.83342C8.06675 22.8 8.29342 22.82 8.52008 22.8533C8.53341 22.8533 8.54675 22.8534 8.55341 22.86C9.20675 22.9534 9.84008 23.1733 10.4601 23.5333C10.5067 23.5534 10.5534 23.5734 10.6001 23.6C10.6001 23.6 10.5934 23.6067 10.5934 23.6133C10.8267 23.7533 11.0534 23.9067 11.2801 24.08C11.4267 24.1933 11.5601 24.3067 11.6867 24.4267Z" fill="currentColor"/>
<path d="M21.9001 7.13335V5.63335C21.9001 5.16002 22.0667 4.76002 22.3934 4.42668C22.7201 4.09335 23.1201 3.93335 23.5934 3.93335C24.0667 3.93335 24.4667 4.10002 24.8001 4.42668C25.1334 4.76002 25.3001 5.16002 25.3001 5.63335V9.68668" fill="currentColor"/>
<path opacity="0.85" d="M29.8667 13.1665C30.0934 13.3332 30.2267 13.5532 30.2667 13.8265C30.3067 14.0998 30.2401 14.3465 30.0667 14.5665C29.8934 14.7865 29.6734 14.9198 29.4134 14.9532C29.1534 14.9865 28.9201 14.9132 28.6934 14.7332L16.0001 5.19984L3.30005 14.7332C3.08005 14.9132 2.84005 14.9865 2.58005 14.9532C2.32005 14.9198 2.11339 14.7932 1.94672 14.5598C1.76005 14.3332 1.68672 14.0865 1.73339 13.8265C1.78005 13.5665 1.91339 13.3465 2.13339 13.1665L14.8001 3.5665C15.1601 3.29984 15.5601 3.1665 16.0067 3.1665C16.4534 3.1665 16.8467 3.29984 17.2001 3.5665L29.8667 13.1665Z" fill="currentColor"/>
</svg>
