<svg width="32" height="32" viewBox="0 0 32 32" fill="none" xmlns="http://www.w3.org/2000/svg">
<path d="M27.4133 10.0134H23.98C22.8733 10.0134 21.98 9.12009 21.98 8.01343V9.43343C21.98 10.5401 22.8733 11.4334 23.98 11.4334H28C28 10.9001 27.7866 10.3934 27.4133 10.0134Z" fill="#222343"/>
<path opacity="0.32" d="M23.98 10.0133H27.4134L21.9867 4.58667V8.02C21.9867 9.12667 22.88 10.02 23.9867 10.02L23.98 10.0133Z" fill="#222343"/>
<path opacity="0.85" d="M23.98 11.4334C22.8733 11.4334 21.98 10.54 21.98 9.43338V4.58671C21.6067 4.21338 21.1 4.00671 20.5667 4.00671H6C4.89333 4.00671 4 4.90005 4 6.00671V26.0067C4 27.1134 4.89333 28.0067 6 28.0067H26C27.1067 28.0067 28 27.1134 28 26.0067V11.44H23.98V11.4334ZM9.58 9.98671C9.76667 9.80005 10.0067 9.70005 10.3 9.70005H15C15.2867 9.70005 15.5267 9.79338 15.72 9.98671C15.9067 10.1734 16 10.4134 16 10.7C16 10.9867 15.9067 11.2267 15.72 11.4134C15.5333 11.6 15.2933 11.7 15 11.7H10.3C10.0133 11.7 9.77333 11.6067 9.58 11.4134C9.38667 11.22 9.3 10.9867 9.3 10.7C9.3 10.4134 9.39333 10.1734 9.58 9.98671ZM22.4133 22.02C22.2267 22.2067 21.9867 22.3067 21.6933 22.3067H10.3C10.0133 22.3067 9.77333 22.2134 9.58 22.02C9.39333 21.8334 9.3 21.5934 9.3 21.3067C9.3 21.02 9.39333 20.78 9.58 20.5934C9.76667 20.4067 10.0067 20.3067 10.3 20.3067H21.7C21.9867 20.3067 22.2267 20.4 22.42 20.5934C22.6133 20.7867 22.7 21.02 22.7 21.3067C22.7 21.5934 22.6067 21.8334 22.42 22.02H22.4133ZM22.4133 16.72C22.2267 16.9067 21.9867 17.0067 21.6933 17.0067H10.3C10.0133 17.0067 9.77333 16.9134 9.58 16.72C9.38667 16.5267 9.3 16.2934 9.3 16.0067C9.3 15.72 9.39333 15.48 9.58 15.2934C9.76667 15.1067 10.0067 15.0067 10.3 15.0067H21.7C21.9867 15.0067 22.2267 15.1 22.42 15.2934C22.6067 15.48 22.7 15.72 22.7 16.0067C22.7 16.2934 22.6067 16.5334 22.42 16.72H22.4133Z" fill="#222343"/>
<g opacity="0.2">
<path d="M21.7 20.3H10.3C10.0134 20.3 9.77338 20.3933 9.58005 20.5866C9.38672 20.78 9.30005 21.0133 9.30005 21.3C9.30005 21.5866 9.39338 21.8266 9.58005 22.0133C9.76672 22.2 10.0067 22.3 10.3 22.3H21.7C21.9867 22.3 22.2267 22.2066 22.42 22.0133C22.6067 21.8266 22.7 21.5866 22.7 21.3C22.7 21.0133 22.6067 20.7733 22.42 20.5866C22.2334 20.4 21.9934 20.3 21.7 20.3Z" fill="#222343"/>
<path d="M10.3 11.7H15C15.2867 11.7 15.5267 11.6066 15.72 11.4133C15.9134 11.22 16 10.9866 16 10.7C16 10.4133 15.9067 10.1733 15.72 9.98662C15.5334 9.79995 15.2934 9.69995 15 9.69995H10.3C10.0134 9.69995 9.77338 9.79328 9.58005 9.98662C9.39338 10.1733 9.30005 10.4133 9.30005 10.7C9.30005 10.9866 9.39338 11.2266 9.58005 11.4133C9.76672 11.6 10.0067 11.7 10.3 11.7Z" fill="#222343"/>
<path d="M10.3 17H21.7C21.9867 17 22.2267 16.9066 22.42 16.7133C22.6134 16.52 22.7 16.2866 22.7 16C22.7 15.7133 22.6067 15.4733 22.42 15.2866C22.2334 15.1 21.9934 15 21.7 15H10.3C10.0134 15 9.77338 15.0933 9.58005 15.2866C9.39338 15.4733 9.30005 15.7133 9.30005 16C9.30005 16.2866 9.39338 16.5266 9.58005 16.7133C9.76672 16.9 10.0067 17 10.3 17Z" fill="#222343"/>
</g>
</svg>
