<svg width="32" height="32" viewBox="0 0 32 32" fill="none" xmlns="http://www.w3.org/2000/svg">
<path opacity="0.85" d="M28.0001 9.46659V24.6666C28.0001 25.7733 27.1067 26.6666 26.0001 26.6666H8.66675C7.56008 26.6666 6.66675 25.7733 6.66675 24.6666V3.33325C6.66675 2.22659 7.56008 1.33325 8.66675 1.33325H19.8667C20.3934 1.33325 20.9067 1.54659 21.2801 1.91992V7.46659C21.2801 8.57325 22.1734 9.46659 23.2801 9.46659H28.0001Z" fill="currentColor"/>
<path d="M24.0001 26.6666V28.6666C24.0001 29.7733 23.1067 30.6666 22.0001 30.6666H4.66675C3.56008 30.6666 2.66675 29.7733 2.66675 28.6666V7.33325C2.66675 6.22659 3.56008 5.33325 4.66675 5.33325H6.66675V24.6666C6.66675 25.7733 7.56008 26.6666 8.66675 26.6666H24.0001Z" fill="currentColor"/>
<path d="M23.2801 8.05325C22.1734 8.05325 21.2801 7.15992 21.2801 6.05325V7.46658C21.2801 8.57325 22.1734 9.46658 23.2801 9.46658H28.0001C28.0001 8.93325 27.7867 8.42658 27.4134 8.05325H23.2801Z" fill="currentColor"/>
<path opacity="0.32" d="M23.28 8.05326H27.4134L21.28 1.91992V6.05326C21.28 7.15992 22.1734 8.05326 23.28 8.05326Z" fill="currentColor"/>
</svg>
