<svg width="32" height="32" viewBox="0 0 32 32" fill="none" xmlns="http://www.w3.org/2000/svg">
<g opacity="0.85">
<path d="M13.5667 25.4001C13.28 25.4001 13.0467 25.3067 12.8533 25.1134C12.66 24.9201 12.5667 24.6801 12.5667 24.3934C12.5667 24.1067 12.66 23.8734 12.8533 23.6801C13.0467 23.4934 13.28 23.3934 13.5667 23.3934H27C27.2867 23.3934 27.52 23.4867 27.7133 23.6801C27.9067 23.8734 28 24.1134 28 24.4001C28 24.6867 27.9067 24.9201 27.7133 25.1134C27.52 25.3001 27.2867 25.4001 27 25.4001H13.5667Z" fill="currentColor"/>
<path d="M13.5667 17.0001C13.28 17.0001 13.0467 16.9067 12.8533 16.7134C12.66 16.5201 12.5667 16.2801 12.5667 15.9934C12.5667 15.7067 12.66 15.4734 12.8533 15.2801C13.0467 15.0934 13.28 14.9934 13.5667 14.9934H27C27.2867 14.9934 27.52 15.0867 27.7133 15.2801C27.9067 15.4734 28 15.7134 28 16.0001C28 16.2867 27.9067 16.5201 27.7133 16.7134C27.52 16.9001 27.2867 17.0001 27 17.0001H13.5667Z" fill="currentColor"/>
<path d="M13.5667 8.56673C13.28 8.56673 13.0467 8.47339 12.8533 8.28006C12.66 8.08673 12.5667 7.84673 12.5667 7.56006C12.5667 7.27339 12.66 7.04006 12.8533 6.84673C13.0467 6.66006 13.28 6.56006 13.5667 6.56006H27C27.2867 6.56006 27.52 6.65339 27.7133 6.84673C27.9067 7.04006 28 7.28006 28 7.56673C28 7.85339 27.9067 8.08673 27.7133 8.28006C27.52 8.46673 27.2867 8.56673 27 8.56673H13.5667Z" fill="currentColor"/>
</g>
<path d="M6.30011 26.6335C5.68011 26.6335 5.14011 26.4202 4.70011 26.0002C4.25345 25.5802 4.03345 25.0468 4.03345 24.4135C4.03345 23.7802 4.25345 23.2468 4.68678 22.8135C5.12011 22.3802 5.65345 22.1602 6.28678 22.1602C6.92011 22.1602 7.44678 22.3802 7.87345 22.8268C8.29345 23.2735 8.50678 23.8068 8.50678 24.4268C8.50678 25.0468 8.29345 25.5468 7.86011 25.9802C7.42678 26.4135 6.91345 26.6268 6.30678 26.6268L6.30011 26.6335Z" fill="currentColor"/>
<path d="M6.30011 18.2335C5.68011 18.2335 5.14011 18.0135 4.70011 17.5802C4.25345 17.1402 4.03345 16.6202 4.03345 16.0002C4.03345 15.3802 4.25345 14.8602 4.70011 14.4202C5.14678 13.9802 5.68011 13.7668 6.30011 13.7668C6.92011 13.7668 7.42011 13.9868 7.85345 14.4202C8.28678 14.8602 8.50011 15.3802 8.50011 16.0002C8.50011 16.6202 8.28678 17.1402 7.85345 17.5802C7.42011 18.0202 6.90678 18.2335 6.30011 18.2335Z" fill="currentColor"/>
<path d="M6.26678 9.80016C5.65345 9.80016 5.12678 9.58016 4.68678 9.14683C4.24678 8.70683 4.03345 8.18683 4.03345 7.56683C4.03345 6.9535 4.25345 6.42683 4.68678 5.98683C5.12011 5.54683 5.64678 5.3335 6.26678 5.3335C6.88678 5.3335 7.40678 5.5535 7.84678 5.98683C8.28678 6.42016 8.50011 6.94683 8.50011 7.56683C8.50011 8.18683 8.28011 8.70683 7.84678 9.14683C7.41345 9.58683 6.88678 9.80016 6.26678 9.80016Z" fill="currentColor"/>
</svg>
