<svg width="32" height="32" viewBox="0 0 32 32" fill="none" xmlns="http://www.w3.org/2000/svg">
<path opacity="0.52" d="M26 4.66675C27.1067 4.66675 28 5.56008 28 6.66675H28.0067V13.0001H4.00671V6.66675C4.00671 5.56008 4.90005 4.66675 6.00671 4.66675H26Z" fill="#222343"/>
<path d="M10.3266 3.74675C10.3266 3.14675 9.83996 2.66675 9.24663 2.66675C8.65329 2.66675 8.16663 3.15341 8.16663 3.74675V4.66675H8.16003V5.57341C8.16003 6.17341 8.6467 6.65341 9.24003 6.65341H9.2467C9.8467 6.65341 10.3267 6.16675 10.3267 5.57341V4.66675H10.3333V3.74675H10.3266Z" fill="#222343"/>
<path d="M22.7533 2.66675C23.3467 2.66675 23.8333 3.14675 23.8333 3.74675H23.84V4.66675H23.8267V5.57341C23.8267 6.16675 23.3467 6.65341 22.7467 6.65341H22.74C22.1467 6.65341 21.66 6.17341 21.66 5.57341V4.66675H21.6733V3.74675C21.6733 3.15341 22.16 2.66675 22.7533 2.66675Z" fill="#222343"/>
<path d="M17.7333 27.4333C17.7333 27.1667 17.8333 26.9333 18.0333 26.7333C18.2333 26.5333 18.4667 26.4333 18.7333 26.4333C19 26.4333 19.2333 26.5333 19.4333 26.7333L22.0333 29.3333L27.4667 23.9C27.6067 23.76 27.7933 23.6867 28 23.66V13H4V27.3333C4 28.44 4.89333 29.3333 6 29.3333H19.2333L18.0333 28.1333C17.8333 27.9333 17.7333 27.7 17.7333 27.4333ZM12.3133 21.7333C12.1133 21.9333 11.88 22.0333 11.6133 22.0333C11.3467 22.0333 11.1133 21.9333 10.9133 21.7333L9.24667 20.0667L7.58 21.7333C7.38 21.9333 7.14667 22.0333 6.88 22.0333C6.61333 22.0333 6.38 21.9333 6.18 21.7333C5.98 21.5333 5.88 21.3 5.88 21.0333C5.88 20.7667 5.98 20.5333 6.18 20.3333L7.84667 18.6667L6.18 17C5.98 16.8 5.88 16.5667 5.88 16.3C5.88 16.0333 5.98 15.8 6.18 15.6C6.38 15.4 6.61333 15.3 6.88 15.3C7.14667 15.3 7.38 15.4 7.58 15.6L9.24667 17.2667L10.9133 15.6C11.1133 15.4 11.3467 15.3 11.6133 15.3C11.88 15.3 12.1133 15.4 12.3133 15.6C12.5133 15.8 12.6133 16.0333 12.6133 16.3C12.6133 16.5667 12.5133 16.8 12.3133 17L10.6467 18.6667L12.3133 20.3333C12.5133 20.5333 12.6133 20.7667 12.6133 21.0333C12.6133 21.3 12.5133 21.5333 12.3133 21.7333Z" fill="#222343"/>
<path d="M26 29.3333C27.1067 29.3333 28 28.44 28 27.3333V26.2067L24.8867 29.3333H26Z" fill="#222343"/>
<g opacity="0.2">
<path d="M28.8667 23.9334C28.6667 23.7334 28.4267 23.6334 28.1467 23.6334C28.0933 23.6334 28.0467 23.6534 28 23.66C27.7933 23.6867 27.6067 23.76 27.4667 23.9L22.0333 29.3334L19.4333 26.7334C19.2333 26.5334 19 26.4334 18.7333 26.4334C18.4667 26.4334 18.2333 26.5334 18.0333 26.7334C17.8333 26.9334 17.7333 27.1667 17.7333 27.4334C17.7333 27.7 17.8333 27.9334 18.0333 28.1334L21.3667 31.4667C21.5667 31.6667 21.8067 31.7667 22.0867 31.7667C22.3667 31.7667 22.5933 31.6667 22.7733 31.4667L28.0067 26.2067L28.8733 25.3334C29.0733 25.1334 29.1733 24.9 29.1733 24.6334C29.1733 24.3667 29.0733 24.1334 28.8733 23.9334H28.8667Z" fill="#222343"/>
<path d="M10.6467 18.6667L12.3133 17C12.5133 16.8 12.6133 16.5667 12.6133 16.3C12.6133 16.0334 12.5133 15.8 12.3133 15.6C12.1133 15.4 11.88 15.3 11.6133 15.3C11.3467 15.3 11.1133 15.4 10.9133 15.6L9.24667 17.2667L7.58001 15.6C7.38001 15.4 7.14667 15.3 6.88 15.3C6.61334 15.3 6.38001 15.4 6.18001 15.6C5.98001 15.8 5.88 16.0334 5.88 16.3C5.88 16.5667 5.98001 16.8 6.18001 17L7.84667 18.6667L6.18001 20.3334C5.98001 20.5334 5.88 20.7667 5.88 21.0334C5.88 21.3 5.98001 21.5334 6.18001 21.7334C6.38001 21.9334 6.61334 22.0334 6.88 22.0334C7.14667 22.0334 7.38001 21.9334 7.58001 21.7334L9.24667 20.0667L10.9133 21.7334C11.1133 21.9334 11.3467 22.0334 11.6133 22.0334C11.88 22.0334 12.1133 21.9334 12.3133 21.7334C12.5133 21.5334 12.6133 21.3 12.6133 21.0334C12.6133 20.7667 12.5133 20.5334 12.3133 20.3334L10.6467 18.6667Z" fill="#222343"/>
</g>
</svg>
