<svg width="32" height="32" viewBox="0 0 32 32" fill="none" xmlns="http://www.w3.org/2000/svg">
<path opacity="0.85" fill-rule="evenodd" clip-rule="evenodd" d="M18 2.66675H24.6667C25.7734 2.66675 26.6667 3.56008 26.6667 4.66675V27.3401C26.6667 28.4467 25.7734 29.3401 24.6667 29.3401H7.33337C6.22671 29.3401 5.33337 28.4467 5.33337 27.3401V12.9267C5.33337 12.4001 5.54671 11.8867 5.92004 11.5134L6.69705 10.7364L4.32495 8.36432L7.15338 5.53589L9.52547 7.90798L10.08 7.35341C10.4534 6.98008 10.96 6.76675 11.4934 6.76675H16V4.66675C16 3.56008 16.8934 2.66675 18 2.66675ZM22.5934 6.76008C23.5734 6.76008 24.36 6.00675 24.4334 5.04675V4.90008H18.24V6.76008H22.5934Z" fill="#222343"/>
<path d="M6.73839 5.09498L3.89161 7.94276C3.50636 8.32814 3.50541 8.95181 3.88949 9.33576C4.27358 9.71971 4.89724 9.71854 5.28249 9.33316L8.12928 6.48538C8.51453 6.09999 8.51548 5.47633 8.13139 5.09238C7.74731 4.70843 7.12364 4.70959 6.73839 5.09498Z" fill="#222343"/>
<path d="M22.1067 13.6601C22.5 13.2668 22.5 12.6334 22.1067 12.2468C21.7133 11.8601 21.08 11.8534 20.6933 12.2468L18.5867 14.3534H13.4133L11.3067 12.2468C10.9133 11.8534 10.28 11.8534 9.89332 12.2468C9.50665 12.6401 9.49999 13.2734 9.89332 13.6601L12 15.7668V20.9401L9.89332 23.0468C9.49999 23.4401 9.49999 24.0734 9.89332 24.4601C10.0867 24.6534 10.3467 24.7534 10.6 24.7534C10.8533 24.7534 11.1133 24.6534 11.3067 24.4601L13.4133 22.3534H18.5867L20.6933 24.4601C20.8867 24.6534 21.1467 24.7534 21.4 24.7534C21.6533 24.7534 21.9133 24.6534 22.1067 24.4601C22.5 24.0668 22.5 23.4334 22.1067 23.0468L20 20.9401V15.7668L22.1067 13.6601Z" fill="#222343"/>
</svg>
