<svg width="32" height="32" viewBox="0 0 32 32" fill="none" xmlns="http://www.w3.org/2000/svg">
<path d="M3 26.6666L5.39333 21.8866C5.56 21.5466 5.90667 21.3333 6.28667 21.3333H11.72C12.1 21.3333 12.4467 21.5466 12.6133 21.8866L15.0067 26.6666H3Z" fill="#222343"/>
<path d="M17 26.6666L19.3933 21.8866C19.56 21.5466 19.9067 21.3333 20.2867 21.3333H25.72C26.1 21.3333 26.4467 21.5466 26.6133 21.8866L29.0067 26.6666H17Z" fill="#222343"/>
<path opacity="0.85" d="M22 19.3333H10L12.3933 14.5533C12.56 14.2133 12.9067 14 13.2867 14H18.72C19.1 14 19.4467 14.2133 19.6133 14.5533L22.0067 19.3333H22Z" fill="#222343"/>
<g opacity="0.52">
<path d="M16 9.20004C15.4467 9.20004 15 8.75337 15 8.20004V5.95337C15 5.40004 15.4467 4.95337 16 4.95337C16.5533 4.95337 17 5.40004 17 5.95337V8.20004C17 8.75337 16.5533 9.20004 16 9.20004Z" fill="#222343"/>
<path d="M21.9667 11.0334C21.7133 11.0334 21.4533 10.9334 21.26 10.7401C20.8667 10.3534 20.8667 9.7134 21.26 9.32674L22.84 7.74674C23.2333 7.3534 23.8667 7.3534 24.2533 7.74674C24.6467 8.1334 24.6467 8.7734 24.2533 9.16007L22.6733 10.7401C22.48 10.9334 22.22 11.0334 21.9667 11.0334Z" fill="#222343"/>
<path d="M28 15.6667H25.8733C25.32 15.6667 24.8733 15.2201 24.8733 14.6667C24.8733 14.1134 25.32 13.6667 25.8733 13.6667H28C28.5533 13.6667 29 14.1134 29 14.6667C29 15.2201 28.5533 15.6667 28 15.6667Z" fill="#222343"/>
<path d="M6.24666 15.6667H4.12C3.56666 15.6667 3.12 15.2201 3.12 14.6667C3.12 14.1134 3.56666 13.6667 4.12 13.6667H6.24666C6.79999 13.6667 7.24666 14.1134 7.24666 14.6667C7.24666 15.2201 6.79999 15.6667 6.24666 15.6667Z" fill="#222343"/>
<path d="M9.96 10.9601C9.70666 10.9601 9.44666 10.8601 9.25333 10.6667L7.7 9.11341C7.30666 8.72007 7.30666 8.08674 7.7 7.70007C8.09333 7.31341 8.72666 7.30674 9.11333 7.70007L10.6667 9.25341C11.06 9.64674 11.06 10.2801 10.6667 10.6667C10.4733 10.8601 10.2133 10.9601 9.96 10.9601Z" fill="#222343"/>
</g>
</svg>
