<svg width="32" height="32" viewBox="0 0 32 32" fill="none" xmlns="http://www.w3.org/2000/svg">
<g opacity="0.52">
<path d="M23.6665 7.04661C22.7332 6.11327 21.5332 5.64661 20.0665 5.64661C18.5998 5.64661 17.3998 6.11327 16.4665 7.04661C16.3265 7.18661 16.1998 7.33327 16.0798 7.48661C16.2398 7.60661 16.3932 7.73994 16.5398 7.88661C16.7132 8.05994 16.8665 8.23994 17.0065 8.43327C17.6332 9.27327 17.9398 10.2933 17.9398 11.4866C17.9398 12.6799 17.6332 13.6999 17.0065 14.5399C16.9798 14.5799 16.9532 14.6133 16.9265 14.6466C17.7865 15.3133 18.8332 15.6466 20.0665 15.6466C21.5332 15.6466 22.7332 15.1799 23.6665 14.2466C24.5998 13.3133 25.0665 12.1133 25.0665 10.6466C25.0665 9.17994 24.5998 7.97994 23.6665 7.04661Z" fill="#222343"/>
<path d="M30.7334 23.2134V24.3467C30.7334 24.9001 30.54 25.3734 30.1534 25.7667C29.76 26.1534 29.2867 26.3467 28.7334 26.3467H24.6V25.3801C24.6 24.1201 24.2667 23.0001 23.6 22.0601C22.9734 21.1667 22.14 20.4801 21.12 20.0201C20.8467 19.9001 20.5734 19.7867 20.3 19.6801C18.8134 19.0334 17.3867 18.5401 16.0334 18.2001C16.0067 18.1934 15.98 18.1867 15.9534 18.1801C17.32 17.8467 18.6867 17.6801 20.0667 17.6801C21.4467 17.6801 22.8134 17.8534 24.1667 18.2001C25.52 18.5401 26.9467 19.0334 28.4334 19.6801C29.12 19.9934 29.68 20.4467 30.1 21.0467C30.52 21.6467 30.7334 22.3667 30.7334 23.2134Z" fill="#222343"/>
</g>
<path d="M24.6 25.3801V26.3467H20.6C21.1534 26.3467 21.6267 26.1534 22.0134 25.7667C22.4067 25.3734 22.6 24.9001 22.6 24.3467V23.2134C22.6 22.3667 22.3867 21.6467 21.9667 21.0467C21.5467 20.4467 20.9867 19.9934 20.3 19.6801C20.5734 19.7867 20.8467 19.9001 21.12 20.0201C22.14 20.4801 22.9734 21.1667 23.6 22.0601C24.2667 23.0001 24.6 24.1201 24.6 25.3801Z" fill="#222343"/>
<path d="M17.94 11.4867C17.94 12.68 17.6333 13.7 17.0067 14.54C16.98 14.58 16.9533 14.6134 16.9267 14.6467C16.7667 14.5267 16.6133 14.3934 16.4667 14.2467C16.2933 14.0734 16.14 13.8934 16 13.7C16.6267 12.86 16.9333 11.84 16.9333 10.6467C16.9333 9.45336 16.6267 8.43336 16 7.59336C16.0267 7.55336 16.0533 7.52003 16.08 7.48669C16.24 7.60669 16.3933 7.74003 16.54 7.88669C16.7133 8.06003 16.8667 8.24003 17.0067 8.43336C17.6333 9.27336 17.94 10.2934 17.94 11.4867Z" fill="#222343"/>
<g opacity="0.85">
<path d="M21.9666 21.0467C21.5466 20.4467 20.9866 19.9934 20.2999 19.6801C18.8133 19.0334 17.3866 18.5401 16.0333 18.2001C16.0066 18.1934 15.9799 18.1867 15.9533 18.1801C14.6266 17.8467 13.2866 17.6801 11.9333 17.6801C10.5799 17.6801 9.17993 17.8467 7.81993 18.1801C6.6266 18.4734 5.37994 18.8934 4.0866 19.4401C4.07994 19.4401 4.07327 19.4401 4.05994 19.4534C3.8866 19.5267 3.71327 19.6001 3.53327 19.6801C2.8666 19.9934 2.31993 20.4467 1.89993 21.0467C1.47993 21.6467 1.2666 22.3667 1.2666 23.2134V24.3467C1.2666 24.9001 1.45993 25.3734 1.8466 25.7667C2.23993 26.1534 2.71327 26.3467 3.2666 26.3467H20.5999C21.1533 26.3467 21.6266 26.1534 22.0133 25.7667C22.4066 25.3734 22.5999 24.9001 22.5999 24.3467V23.2134C22.5999 22.3667 22.3866 21.6467 21.9666 21.0467Z" fill="#222343"/>
<path d="M16.9333 10.6466C16.9333 11.8399 16.6267 12.8599 16 13.6999C15.86 13.8933 15.7067 14.0733 15.5333 14.2466C14.6 15.1799 13.4 15.6466 11.9333 15.6466C10.4667 15.6466 9.26668 15.1799 8.33335 14.2466C7.40002 13.3133 6.93335 12.1133 6.93335 10.6466C6.93335 9.17994 7.40002 7.97994 8.33335 7.04661C9.26668 6.11327 10.4667 5.64661 11.9333 5.64661C13.4 5.64661 14.6 6.11327 15.5333 7.04661C15.7067 7.21994 15.86 7.39994 16 7.59327C16.6267 8.43327 16.9333 9.45327 16.9333 10.6466Z" fill="#222343"/>
</g>
</svg>
