<svg width="32" height="32" viewBox="0 0 32 32" fill="none" xmlns="http://www.w3.org/2000/svg">
<g clip-path="url(#clip0_4072_818)">
<g opacity="0.52">
<path d="M8.68 20.1333C8.08667 19.7866 7.36 19.5666 6.52666 19.4466C6.52666 19.4466 6.52666 19.44 6.52666 19.4333C6.42666 19.4133 6.32666 19.4133 6.22666 19.4C6.16666 19.3933 6.10666 19.3866 6.04666 19.38C5.95333 19.3733 5.86666 19.3533 5.78 19.3533C5.56 19.3466 5.34 19.34 5.11333 19.34C5.09333 19.34 5.08 19.34 5.06 19.34C5.04666 19.34 5.04 19.34 5.02666 19.34C5.01333 19.34 5.00666 19.34 4.99333 19.34C4.97333 19.34 4.96 19.34 4.94 19.34C4.71333 19.34 4.48666 19.34 4.27333 19.3533C4.18 19.3533 4.09333 19.3733 4.00666 19.38C3.94666 19.38 3.88666 19.3933 3.82666 19.4C3.72666 19.4133 3.62 19.4133 3.52666 19.4333C3.52666 19.4333 3.52666 19.44 3.52666 19.4466C2.69333 19.5666 1.97333 19.7866 1.37333 20.1333C0.45333 20.6666 -0.0133362 21.3666 -0.0133362 22.2333V23C-0.0133362 23.2866 0.0799972 23.5266 0.266664 23.7133C0.453331 23.9 0.693331 24 0.986664 24H9.06C9.34666 24 9.58666 23.9066 9.77333 23.7133C9.96 23.5266 10.06 23.2866 10.06 23V22.2333C10.06 21.3666 9.6 20.6666 8.67333 20.1333H8.68Z" fill="#222343"/>
<path d="M5 18.3333C4.35333 18.3333 3.80666 18.1066 3.35333 17.6533C2.9 17.2 2.66666 16.6466 2.66666 16C2.66666 15.3533 2.89333 14.8066 3.35333 14.3466C3.80666 13.8933 4.36 13.6666 5 13.6666C5.64 13.6666 6.19333 13.8933 6.65333 14.3466C7.10666 14.8 7.33333 15.3533 7.33333 16C7.33333 16.6466 7.10666 17.1933 6.65333 17.6533C6.2 18.1066 5.64666 18.3333 5 18.3333Z" fill="#222343"/>
<path d="M27 18.3333C26.3534 18.3333 25.8067 18.1066 25.3534 17.6533C24.9 17.2 24.6667 16.6466 24.6667 16C24.6667 15.3533 24.8934 14.8066 25.3534 14.3466C25.8067 13.8933 26.36 13.6666 27 13.6666C27.64 13.6666 28.1934 13.8933 28.6467 14.3466C29.1 14.8 29.3334 15.3533 29.3334 16C29.3334 16.6466 29.1067 17.1933 28.6467 17.6533C28.1934 18.1066 27.64 18.3333 27 18.3333Z" fill="#222343"/>
<path d="M30.6467 20.1333C30.0533 19.7866 29.3267 19.5666 28.4933 19.4466C28.4933 19.4466 28.4933 19.44 28.4933 19.4333C28.3933 19.4133 28.2933 19.4133 28.1933 19.4C28.1333 19.3933 28.0733 19.3866 28.0133 19.38C27.92 19.3733 27.8333 19.3533 27.7467 19.3533C27.5267 19.3466 27.3067 19.34 27.08 19.34C27.06 19.34 27.0467 19.34 27.0267 19.34C27.0133 19.34 27.0067 19.34 26.9933 19.34C26.98 19.34 26.9733 19.34 26.96 19.34C26.94 19.34 26.9267 19.34 26.9067 19.34C26.68 19.34 26.4533 19.34 26.24 19.3533C26.1467 19.3533 26.06 19.3733 25.9733 19.38C25.9133 19.38 25.8533 19.3933 25.7933 19.4C25.6933 19.4133 25.5867 19.4133 25.4933 19.4333C25.4933 19.4333 25.4933 19.44 25.4933 19.4466C24.66 19.5666 23.94 19.7866 23.34 20.1333C22.42 20.6666 21.9533 21.3666 21.9533 22.2333V23C21.9533 23.2866 22.0467 23.5266 22.2333 23.7133C22.42 23.9 22.66 24 22.9533 24H31.0133C31.3 24 31.54 23.9066 31.7267 23.7133C31.9133 23.5266 32.0133 23.2866 32.0133 23V22.2333C32.0133 21.3666 31.5533 20.6666 30.6267 20.1333H30.6467Z" fill="#222343"/>
</g>
<path d="M9 24C8.71333 24 8.47333 23.9067 8.28667 23.72C8.1 23.5333 8 23.2933 8 23V21.8667C8 20.42 8.74 19.2533 10.2133 18.3533C11.6933 17.4533 13.62 17.0067 16 17.0067C18.38 17.0067 20.3333 17.46 21.8 18.3533C23.2667 19.2533 24 20.4267 24 21.8667V23C24 23.2867 23.9067 23.5267 23.72 23.72C23.5333 23.9133 23.2933 24 23 24H9Z" fill="#222343"/>
<path d="M16 16C14.8867 16 13.9467 15.6133 13.1667 14.8333C12.3867 14.0533 12 13.1133 12 12C12 10.8867 12.3867 9.94667 13.1667 9.16667C13.9467 8.38667 14.8867 8 16 8C17.1133 8 18.0533 8.38667 18.8333 9.16667C19.6133 9.94667 20 10.8867 20 12C20 13.1133 19.6133 14.0533 18.8333 14.8333C18.0533 15.6133 17.1133 16 16 16Z" fill="#222343"/>
</g>
<defs>
<clipPath id="clip0_4072_818">
<rect width="32" height="32" fill="white"/>
</clipPath>
</defs>
</svg>
