<svg width="32" height="32" viewBox="0 0 32 32" fill="none" xmlns="http://www.w3.org/2000/svg">
<path opacity="0.85" fill-rule="evenodd" clip-rule="evenodd" d="M19.2067 20.1C20.78 20.4067 22.3933 19.8067 23.3733 18.54L24.9933 16.4533V9.15334C24.9933 8.72 24.7867 8.32 24.4333 8.06667L16.7733 2.58667C16.3067 2.25334 15.6867 2.25334 15.22 2.58667L7.56 8.06667C7.20667 8.32 7 8.72 7 9.15334V19.8733C9.48 18.5133 15.68 19.4067 19.2067 20.0933V20.1ZM16.6667 10.0333H18V11.3667H16.6667V10.0333ZM16.6667 12.7H18V14.0333H16.6667V12.7ZM14 10.0333H15.3333V11.3667H14V10.0333ZM14 12.7H15.3333V14.0333H14V12.7Z" fill="#222343"/>
<path d="M3.68001 23.8733L1.89334 29.6066H13.4467L14.04 27.52L3.68001 23.8733Z" fill="#222343"/>
<path opacity="0.52" d="M13.3734 27.2867C13.3734 27.2867 13.6667 25.5867 15.4534 25.5867H20.7467C20.7467 25.5867 24.6267 25.6334 27.1534 22.16C28.6267 20.1334 28.94 19.6267 28.94 19.6267L29.4734 18.82C30.2334 17.68 29.9267 16.14 28.7867 15.3733C27.7267 14.66 26.3 14.8533 25.4734 15.8333L23.3667 18.54C22.3867 19.8 20.78 20.4067 19.2067 20.1C15.3867 19.36 8.41335 18.3533 6.44002 20.26C4.72002 21.92 4.31335 24.1 4.31335 24.1C4.31335 24.1 12.1734 26.74 13.36 27.2867H13.3734Z" fill="#222343"/>
<path opacity="0.52" d="M20.94 18.1333H11.8133C10.5733 18.1333 9.33999 18.3933 8.23999 18.9666C4.89999 20.7 4.32666 24.1 4.32666 24.1C4.32666 24.1 8.33333 25.5133 13.3733 27.2866C14.38 23.7533 18.2 23.14 20.04 23.0533H21.0467C22.4267 23.0533 23.5467 21.9133 23.5067 20.52C23.4667 19.1266 22.2933 18.1333 20.9467 18.1333H20.94Z" fill="#222343"/>
</svg>
