<svg width="32" height="32" viewBox="0 0 32 32" fill="none" xmlns="http://www.w3.org/2000/svg">
<path d="M7.84 18.4001L6.90667 19.3334C6.12667 20.1134 6.12667 21.3801 6.90667 22.1601C7.28667 22.5401 7.78667 22.7468 8.32 22.7468C8.56 22.7468 8.78667 22.7001 9.00667 22.6201C9.1 22.9068 9.25334 23.1734 9.48 23.4001C9.86 23.7801 10.36 23.9868 10.8933 23.9868C11.2467 23.9868 11.58 23.8868 11.8733 23.7268C11.9733 23.9668 12.1133 24.1868 12.3 24.3734C12.68 24.7534 13.18 24.9601 13.7133 24.9601C13.9667 24.9601 14.2067 24.9068 14.44 24.8201C14.22 24.7201 14.02 24.5868 13.8467 24.4134L7.83334 18.4001H7.84Z" fill="currentColor"/>
<path d="M8.77334 8.05342L7.3 7.32008C6.96 7.14675 6.54 7.30008 6.38667 7.65342L2.91334 15.7601C2.77334 16.0868 2.91334 16.4601 3.22667 16.6201L4.7 17.3534C5.04 17.5268 5.46 17.3734 5.61334 17.0201L5.84667 16.4734L9.08667 8.91342C9.08667 8.91342 9.09334 8.86008 9.1 8.84008C9.19334 8.53342 9.06 8.20008 8.76667 8.05342H8.77334Z" fill="currentColor"/>
<path d="M26.1533 16.4668L25.5333 17.2268L24.8867 18.3868L18.1067 11.7201L13.84 16.0001C13.46 16.3868 12.9533 16.6001 12.4133 16.6001C11.8733 16.6001 11.3867 16.3934 11.0133 16.0268C10.2267 15.2534 10.2133 13.9868 10.9867 13.2001L15.4533 8.66675C15.8267 8.28675 16.3267 8.07342 16.86 8.06675C17.1533 8.06675 17.44 8.13342 17.7 8.25342H17.7067L20.3667 9.38008H21.7267L22.88 8.83342L26.1467 16.4668H26.1533Z" fill="currentColor"/>
<g opacity="0.52">
<path d="M25.42 18.9199L24.88 18.3866L18.1 11.7199C18.1 11.7199 17.0667 12.7332 17.06 12.7266L13.8333 15.9999C13.4533 16.3866 12.9467 16.5999 12.4067 16.5999C11.8667 16.5999 11.38 16.3932 11.0067 16.0266C10.22 15.2532 10.2067 13.9866 10.98 13.1999L14.74 9.37991L10.5333 9.35325L9.09333 8.83325C9.09333 8.83325 9.09333 8.88658 9.08 8.90658L5.84 16.4666L7.06666 17.2266L7.61333 18.1599C7.64 18.2066 7.67333 18.2532 7.71333 18.2932L13.8333 24.4132C14.0067 24.5866 14.2067 24.7199 14.4267 24.8199C14.68 24.9332 14.96 24.9999 15.2467 24.9999C15.78 24.9999 16.2867 24.7932 16.66 24.4132C16.7533 24.3199 16.8333 24.2132 16.9067 24.1066C16.9133 24.0932 16.92 24.0799 16.9333 24.0599C16.98 23.9866 17.02 23.9132 17.0533 23.8399L17.1733 23.9599C17.5533 24.3399 18.0533 24.5466 18.5867 24.5466C19.12 24.5466 19.6267 24.3399 20 23.9599C20.1933 23.7666 20.3333 23.5466 20.4333 23.3132C20.5733 23.3932 20.7267 23.4532 20.88 23.4932C20.8933 23.4932 20.9 23.4999 20.9133 23.4999C21.0733 23.5399 21.2333 23.5666 21.4 23.5666C21.9333 23.5666 22.44 23.3599 22.8133 22.9799C22.8733 22.9199 22.9133 22.8532 22.9667 22.7866C23 22.7399 23.04 22.6999 23.0733 22.6466C23.1067 22.5932 23.1333 22.5399 23.16 22.4799C23.2 22.3999 23.24 22.3266 23.2667 22.2399C23.2667 22.2266 23.28 22.2132 23.2867 22.1932C23.3933 22.2332 23.5067 22.2666 23.62 22.2866C23.7 22.2999 23.78 22.3066 23.86 22.3132C23.8933 22.3132 23.9267 22.3266 23.96 22.3266C24.4933 22.3266 25 22.1199 25.3733 21.7399C25.7533 21.3599 25.96 20.8599 25.96 20.3266C25.96 19.7932 25.7533 19.2932 25.3733 18.9132L25.42 18.9199Z" fill="currentColor"/>
<path d="M24.7 7.31325L23.2267 8.04658C22.9133 8.20658 22.7733 8.57991 22.9133 8.90658L26.3867 17.0132C26.54 17.3666 26.9533 17.5199 27.3 17.3466L28.7733 16.6132C29.0867 16.4532 29.2267 16.0799 29.0867 15.7532L25.6133 7.64658C25.46 7.29325 25.0467 7.13991 24.7 7.31325Z" fill="currentColor"/>
</g>
</svg>
