<svg width="32" height="32" viewBox="0 0 32 32" fill="none" xmlns="http://www.w3.org/2000/svg">
<path opacity="0.52" d="M13.3734 27.2867C13.3734 27.2867 13.6667 25.5867 15.4534 25.5867H20.7467C20.7467 25.5867 24.6267 25.6334 27.1534 22.16C28.6267 20.1334 28.94 19.6267 28.94 19.6267L29.4734 18.82C30.2334 17.68 29.9267 16.14 28.7867 15.3733C27.7267 14.66 26.3 14.8533 25.4734 15.8333L23.3667 18.54C22.3867 19.8 20.78 20.4067 19.2067 20.1C15.3867 19.36 8.41335 18.3533 6.44002 20.26C4.72002 21.92 4.31335 24.1 4.31335 24.1C4.31335 24.1 12.1734 26.74 13.36 27.2867H13.3734Z" fill="#222343"/>
<g opacity="0.52">
<path d="M11.8133 18.1333C10.5733 18.1333 9.33999 18.3933 8.23999 18.9666C4.89999 20.7 4.32666 24.1 4.32666 24.1C4.32666 24.1 8.33333 25.5133 13.3733 27.2866C14.38 23.7533 18.2 23.14 20.04 23.0533H21.0467C22.4267 23.0533 23.5467 21.9133 23.5067 20.52C23.4667 19.1266 22.2933 18.1333 20.9467 18.1333H11.8133Z" fill="#222343"/>
<path d="M23.3333 4H8.66667C7.93029 4 7.33333 4.59695 7.33333 5.33333V13.3333C7.33333 14.0697 7.93029 14.6667 8.66667 14.6667H23.3333C24.0697 14.6667 24.6667 14.0697 24.6667 13.3333V5.33333C24.6667 4.59695 24.0697 4 23.3333 4Z" fill="#222343"/>
</g>
<path d="M3.68001 23.8732L1.89334 29.6066H13.4467L14.04 27.5199L3.68001 23.8732Z" fill="#222343"/>
<path d="M23.3333 5.61328H8.66667V7.61328H23.3333V5.61328Z" fill="#222343"/>
<path d="M22.6667 9.99995H22C21.6318 9.99995 21.3333 10.2984 21.3333 10.6666V11.3333C21.3333 11.7015 21.6318 11.9999 22 11.9999H22.6667C23.0349 11.9999 23.3333 11.7015 23.3333 11.3333V10.6666C23.3333 10.2984 23.0349 9.99995 22.6667 9.99995Z" fill="#222343"/>
</svg>
