<svg width="32" height="32" viewBox="0 0 32 32" fill="none" xmlns="http://www.w3.org/2000/svg">
<path opacity="0.85" d="M10.9467 4.94006H21.0534V13.9867C21.0534 14.7467 20.44 15.3601 19.68 15.3601H12.3267C11.5667 15.3601 10.9534 14.7467 10.9534 13.9867V4.94006H10.9467Z" fill="#222343"/>
<path d="M18.7133 7.20007H13.2933V9.29341H18.7133V7.20007Z" fill="#222343"/>
<path d="M3.68001 23.8733L1.89334 29.6066H13.4467L14.04 27.52L3.68001 23.8733Z" fill="#222343"/>
<path opacity="0.52" d="M13.3734 27.2867C13.3734 27.2867 13.6667 25.5867 15.4534 25.5867H20.7467C20.7467 25.5867 24.6267 25.6334 27.1534 22.16C28.6267 20.1334 28.94 19.6267 28.94 19.6267L29.4734 18.82C30.2334 17.68 29.9267 16.14 28.7867 15.3733C27.7267 14.66 26.3 14.8533 25.4734 15.8333L23.3667 18.54C22.3867 19.8 20.78 20.4067 19.2067 20.1C15.3867 19.36 8.41335 18.3533 6.44002 20.26C4.72002 21.92 4.31335 24.1 4.31335 24.1C4.31335 24.1 12.1734 26.74 13.36 27.2867H13.3734Z" fill="#222343"/>
<g opacity="0.52">
<path d="M21.2733 1.47339C21.6533 1.47339 21.96 1.78006 21.96 2.16006V4.94005H10.04V2.16006C10.04 1.78006 10.3467 1.47339 10.7267 1.47339H21.2733Z" fill="#222343"/>
<path d="M11.8133 18.1333C10.5733 18.1333 9.33999 18.3933 8.23999 18.9666C4.89999 20.7 4.32666 24.1 4.32666 24.1C4.32666 24.1 8.33333 25.5133 13.3733 27.2866C14.38 23.7533 18.2 23.14 20.04 23.0533H21.0467C22.4267 23.0533 23.5467 21.9133 23.5067 20.52C23.4667 19.1266 22.2933 18.1333 20.9467 18.1333H11.8133Z" fill="#222343"/>
</g>
</svg>
