<svg width="32" height="32" viewBox="0 0 32 32" fill="none" xmlns="http://www.w3.org/2000/svg">
<path opacity="0.85" d="M21.9467 10.8C20.84 10.8 19.9467 9.90663 19.9467 8.79996V3.25329C19.5734 2.87996 19.06 2.66663 18.5334 2.66663H7.33337C6.22671 2.66663 5.33337 3.55996 5.33337 4.66663V27.3333C5.33337 28.44 6.22671 29.3333 7.33337 29.3333H24.6667C25.7734 29.3333 26.6667 28.44 26.6667 27.3333V10.8H21.9467ZM11 16C11 15.5333 11.1667 15.14 11.5 14.82C11.8334 14.5 12.22 14.3333 12.6667 14.3333C13.1334 14.3333 13.5267 14.4933 13.8534 14.82C14.18 15.1466 14.3334 15.54 14.3334 16C14.3334 16.46 14.1734 16.8333 13.8534 17.1666C13.5334 17.5 13.1334 17.6666 12.6667 17.6666C12.2 17.6666 11.8334 17.5 11.5 17.1666C11.1667 16.8333 11 16.4466 11 16ZM12.6 23.7333C12.3334 23.7333 12.1 23.6333 11.9 23.4333C11.7 23.2333 11.6 23 11.6 22.7333C11.6 22.4666 11.7 22.2333 11.9 22.0333L18.7 15.2333C18.9 15.0333 19.1334 14.9333 19.4 14.9333C19.6667 14.9333 19.9 15.0333 20.1 15.2333C20.3 15.4333 20.4 15.6666 20.4 15.9333C20.4 16.2 20.3 16.4333 20.1 16.6333L13.3 23.4333C13.1 23.6333 12.8667 23.7333 12.6 23.7333ZM20.52 23.8333C20.2 24.1666 19.8 24.3333 19.3334 24.3333C18.8667 24.3333 18.5 24.1666 18.1667 23.8333C17.8334 23.5 17.6667 23.1133 17.6667 22.6666C17.6667 22.2 17.8334 21.8066 18.1667 21.4866C18.5 21.1666 18.8867 21 19.3334 21C19.8 21 20.1934 21.16 20.52 21.4866C20.8467 21.8133 21 22.2066 21 22.6666C21 23.1266 20.84 23.5 20.52 23.8333Z" fill="#222343"/>
<path d="M19.9467 7.38672V8.80005C19.9467 9.90672 20.84 10.8001 21.9467 10.8001H26.6667C26.6667 10.2667 26.4533 9.76005 26.08 9.38672H21.9467C20.84 9.38672 19.9467 8.49339 19.9467 7.38672Z" fill="#222343"/>
<path opacity="0.32" d="M21.9467 9.38663H26.08L19.9467 3.2533V7.38663C19.9467 8.4933 20.84 9.38663 21.9467 9.38663Z" fill="#222343"/>
<g opacity="0.2">
<path d="M13.8533 17.1667C14.1733 16.8334 14.3333 16.4467 14.3333 16C14.3333 15.5334 14.1733 15.14 13.8533 14.82C13.5333 14.5 13.1333 14.3334 12.6667 14.3334C12.2 14.3334 11.8333 14.4934 11.5 14.82C11.1667 15.1467 11 15.54 11 16C11 16.46 11.1667 16.8334 11.5 17.1667C11.8333 17.5 12.22 17.6667 12.6667 17.6667C13.1333 17.6667 13.5267 17.5 13.8533 17.1667Z" fill="#222343"/>
<path d="M19.3333 21C18.8867 21 18.5 21.16 18.1667 21.4867C17.8333 21.8134 17.6667 22.2067 17.6667 22.6667C17.6667 23.1267 17.8333 23.5 18.1667 23.8334C18.5 24.1667 18.8867 24.3334 19.3333 24.3334C19.8 24.3334 20.1933 24.1667 20.52 23.8334C20.8467 23.5 21 23.1134 21 22.6667C21 22.2 20.84 21.8067 20.52 21.4867C20.2 21.1667 19.8 21 19.3333 21Z" fill="#222343"/>
<path d="M20.4 15.9334C20.4 15.6667 20.3 15.4334 20.1 15.2334C19.9 15.0334 19.6667 14.9334 19.4 14.9334C19.1333 14.9334 18.9 15.0334 18.7 15.2334L11.9 22.0334C11.7 22.2334 11.6 22.4667 11.6 22.7334C11.6 23 11.7 23.2334 11.9 23.4334C12.1 23.6334 12.3333 23.7334 12.6 23.7334C12.8667 23.7334 13.1 23.6334 13.3 23.4334L20.1 16.6334C20.3 16.4334 20.4 16.2 20.4 15.9334Z" fill="#222343"/>
</g>
</svg>
