<svg width="32" height="32" viewBox="0 0 32 32" fill="none" xmlns="http://www.w3.org/2000/svg">
<path opacity="0.32" d="M16.0001 4.66663C12.8201 4.66663 10.1401 5.77996 7.94675 7.99996C5.76008 10.22 4.66675 12.8866 4.66675 16C4.66675 19.1133 5.76008 21.78 7.94675 24C10.1334 26.22 12.8201 27.3333 16.0001 27.3333C19.1801 27.3333 21.8067 26.22 24.0201 24C26.2334 21.78 27.3334 19.1133 27.3334 16C27.3334 12.8866 26.2267 10.22 24.0201 7.99996C21.8067 5.77996 19.1334 4.66663 16.0001 4.66663Z" fill="#222343"/>
<path fill-rule="evenodd" clip-rule="evenodd" d="M16 29.3334C14.1333 29.3334 12.3866 28.9934 10.7666 28.3134C9.14663 27.6334 7.73329 26.7001 6.53329 25.5001C5.33329 24.3001 4.38663 22.8867 3.69996 21.2667C3.01329 19.6467 2.66663 17.8867 2.66663 16.0001C2.66663 14.1134 3.01329 12.3867 3.69996 10.7667C4.38663 9.14675 5.33329 7.73341 6.53329 6.53341C7.73329 5.33341 9.14663 4.38675 10.7666 3.70008C12.3866 3.01341 14.1333 2.66675 16 2.66675C17.8666 2.66675 19.58 3.01341 21.2 3.70008C22.82 4.38675 24.2333 5.33341 25.4333 6.53341C26.6333 7.73341 27.5866 9.14675 28.2866 10.7667C28.9866 12.3867 29.34 14.1334 29.34 16.0001C29.34 17.8667 28.9933 19.6467 28.2866 21.2667C27.5866 22.8867 26.6333 24.3001 25.4333 25.5001C24.2333 26.7001 22.82 27.6401 21.2 28.3134C19.58 28.9934 17.8466 29.3334 16 29.3334ZM16 27.3334C19.1333 27.3334 21.8066 26.2201 24.02 24.0001C26.2333 21.7801 27.3333 19.1134 27.3333 16.0001C27.3333 12.8867 26.2266 10.2201 24.02 8.00008C21.8066 5.78008 19.1333 4.66675 16 4.66675C12.8666 4.66675 10.14 5.78008 7.95329 8.00008C5.76663 10.2201 4.66663 12.8867 4.66663 16.0001C4.66663 19.1134 5.75996 21.7801 7.95329 24.0001C10.14 26.2201 12.8266 27.3334 16 27.3334Z" fill="#222343"/>
<path d="M16.1333 23.7668C16.4866 23.7668 16.7866 23.6468 17.0333 23.4001C17.2799 23.1535 17.3999 22.8535 17.3999 22.5001C17.3999 22.1468 17.2799 21.8468 17.0333 21.6001C16.7866 21.3535 16.4866 21.2335 16.1333 21.2335C15.7799 21.2335 15.4799 21.3535 15.2333 21.6001C14.9866 21.8468 14.8666 22.1468 14.8666 22.5001C14.8666 22.8535 14.9866 23.1535 15.2333 23.4001C15.4799 23.6468 15.7799 23.7668 16.1333 23.7668Z" fill="#222343"/>
<path d="M16.0999 10.0001C16.8533 10.0001 17.4666 10.2068 17.9333 10.6201C18.3999 11.0335 18.6333 11.5601 18.6333 12.2001C18.6333 12.6468 18.4999 13.0868 18.2333 13.5201C17.9666 13.9535 17.5333 14.4268 16.9333 14.9335C16.3533 15.4468 15.8933 15.9801 15.5466 16.5468C15.1999 17.1135 15.0333 17.6268 15.0333 18.1001C15.0333 18.3468 15.1266 18.5401 15.3133 18.6868C15.4999 18.8335 15.7199 18.9068 15.9666 18.9068C16.2333 18.9068 16.4533 18.8201 16.6333 18.6401C16.8133 18.4601 16.9199 18.2401 16.9666 17.9735C17.0333 17.5268 17.1799 17.1335 17.4133 16.7935C17.6466 16.4535 18.0066 16.0735 18.4933 15.6801C19.1599 15.1268 19.6466 14.5668 19.9399 14.0135C20.2399 13.4601 20.3933 12.8335 20.3866 12.1468C20.3866 10.9668 19.9999 10.0268 19.2333 9.31345C18.4666 8.60012 17.4533 8.24679 16.1866 8.24679C15.3399 8.24679 14.5666 8.41345 13.8533 8.74679C13.1399 9.08012 12.5533 9.56679 12.0866 10.2135C11.9066 10.4601 11.8333 10.7068 11.8666 10.9668C11.8999 11.2268 12.0066 11.4201 12.1866 11.5535C12.4333 11.7335 12.6933 11.7868 12.9666 11.7201C13.2399 11.6535 13.4733 11.5001 13.6466 11.2535C13.9333 10.8535 14.2866 10.5468 14.6999 10.3335C15.1133 10.1201 15.5733 10.0135 16.0866 10.0135L16.0999 10.0001Z" fill="#222343"/>
</svg>
