<svg width="32" height="32" viewBox="0 0 32 32" fill="none" xmlns="http://www.w3.org/2000/svg">
<path d="M27.5001 9.26677C27.3868 9.51344 27.2068 9.69344 26.9468 9.81344C26.6934 9.94011 26.4468 9.94677 26.2001 9.83344L24.0668 9.03344L27.0734 20.2734C26.5068 19.8801 25.7868 19.4601 24.5534 19.4601C23.1601 19.4601 22.4201 19.9934 21.8268 20.4201C21.3534 20.7601 21.0401 20.9868 20.3334 20.9934L18.6334 14.4668C18.5868 14.3334 18.5068 14.2268 18.3868 14.1468C18.2601 14.0734 18.1334 14.0534 18.0001 14.1001L14.4668 15.0334C14.3334 15.0801 14.2268 15.1601 14.1468 15.2868C14.0734 15.4068 14.0534 15.5334 14.1001 15.6668L15.1534 19.5334C14.2734 19.6934 13.7201 20.0868 13.2601 20.4201C12.7734 20.7734 12.4534 21.0001 11.7068 21.0001C10.9601 21.0001 10.6334 20.7734 10.1468 20.4201C9.68678 20.0934 9.14011 19.6934 8.27344 19.5334L6.66678 13.7001L5.23344 15.5001C5.05344 15.7201 4.83344 15.8468 4.56678 15.8668C4.30011 15.8868 4.05344 15.8134 3.83344 15.6334C3.61344 15.4534 3.48011 15.2268 3.44678 14.9534C3.41344 14.6734 3.48678 14.4201 3.66678 14.2001L12.1334 3.80011C12.4001 3.46677 12.7468 3.24677 13.1668 3.13344C13.5868 3.02011 14.0001 3.04677 14.4001 3.20011L26.9334 7.96677C27.2001 8.08011 27.3868 8.25344 27.5001 8.50011C27.6134 8.74677 27.6134 9.00011 27.5001 9.26677Z" fill="currentColor"/>
<g opacity="0.85">
<path d="M28.4801 27.2466C27.9734 27.18 27.6868 26.9733 27.2868 26.6866C26.6934 26.26 25.9534 25.7266 24.5601 25.7266C23.1668 25.7266 22.4268 26.26 21.8334 26.6866C21.3468 27.04 21.0268 27.2666 20.2734 27.2666C19.5201 27.2666 19.2001 27.0333 18.7134 26.6866C18.1201 26.26 17.3801 25.7266 15.9868 25.7266C14.5934 25.7266 13.8534 26.26 13.2601 26.6866C12.7734 27.04 12.4534 27.2666 11.7068 27.2666C10.9601 27.2666 10.6401 27.0333 10.1468 26.6866C9.55344 26.26 8.81344 25.7266 7.4201 25.7266C6.02677 25.7266 5.28677 26.26 4.69344 26.6866C4.3001 26.9733 4.01344 27.18 3.5201 27.2466C2.97344 27.32 2.59344 27.8266 2.66677 28.3733C2.7401 28.92 3.24677 29.2933 3.79344 29.2266C4.7801 29.0933 5.3801 28.66 5.8601 28.3066C6.34677 27.9533 6.66677 27.7266 7.41344 27.7266C8.1601 27.7266 8.48677 27.96 8.97344 28.3066C9.56677 28.7333 10.3068 29.2666 11.7001 29.2666C13.0934 29.2666 13.8334 28.7333 14.4268 28.3066C14.9134 27.9533 15.2334 27.7266 15.9801 27.7266C16.7268 27.7266 17.0534 27.96 17.5401 28.3066C18.1334 28.7333 18.8734 29.2666 20.2668 29.2666C21.6601 29.2666 22.4001 28.7333 22.9934 28.3066C23.4801 27.9533 23.8001 27.7266 24.5534 27.7266C25.3068 27.7266 25.6268 27.96 26.1134 28.3066C26.6001 28.6533 27.2068 29.0933 28.2068 29.2266C28.7534 29.3 29.2601 28.9133 29.3268 28.3666C29.3934 27.82 29.0134 27.3133 28.4668 27.2466H28.4801Z" fill="currentColor"/>
<path d="M3.79344 22.96C4.7801 22.8266 5.3801 22.3933 5.86677 22.04C6.35344 21.6933 6.67344 21.46 7.4201 21.46C8.16677 21.46 8.49344 21.6933 8.9801 22.04C9.57344 22.4733 10.3068 23 11.7068 23C13.1068 23 13.8334 22.4666 14.4268 22.04C14.9134 21.6933 15.2334 21.46 15.9868 21.46C16.7401 21.46 17.0534 21.6933 17.5401 22.04C18.1334 22.4733 18.8734 23 20.2668 23C21.6601 23 22.4001 22.4733 22.9934 22.04C23.4868 21.6933 23.8068 21.46 24.5534 21.46C25.3001 21.46 25.6268 21.6933 26.1134 22.04C26.6001 22.3933 27.2068 22.8333 28.2134 22.96C28.7601 23.04 29.2601 22.6466 29.3334 22.1C29.4068 21.5533 29.0201 21.0533 28.4734 20.98C27.9668 20.9133 27.6801 20.7066 27.2801 20.42C27.2134 20.3733 27.1468 20.32 27.0734 20.2733C26.5068 19.88 25.7868 19.46 24.5534 19.46C23.1601 19.46 22.4201 19.9933 21.8268 20.42C21.3534 20.76 21.0401 20.9866 20.3334 20.9933C20.3134 21 20.2934 21 20.2668 21C19.5201 21 19.2001 20.7733 18.7134 20.42C18.1134 19.9933 17.3801 19.46 15.9868 19.46C15.6801 19.46 15.4068 19.4866 15.1534 19.5333C14.2734 19.6933 13.7201 20.0866 13.2601 20.42C12.7734 20.7733 12.4534 21 11.7068 21C10.9601 21 10.6334 20.7733 10.1468 20.42C9.68677 20.0933 9.1401 19.6933 8.27344 19.5333C8.0201 19.4866 7.7401 19.46 7.4201 19.46C6.02677 19.46 5.28677 19.9933 4.69344 20.42C4.3001 20.7066 4.01344 20.9133 3.5201 20.98C2.97344 21.0533 2.59344 21.56 2.66677 22.1066C2.7401 22.6533 3.24677 23.0266 3.79344 22.96Z" fill="currentColor"/>
</g>
</svg>
