<svg width="32" height="32" viewBox="0 0 32 32" fill="none" xmlns="http://www.w3.org/2000/svg">
<path opacity="0.52" d="M4 25.3666V12.66C4 12.2266 4.21333 11.82 4.56667 11.5733L14.5667 4.51331C15.0267 4.18664 15.6467 4.18664 16.1067 4.51331L26.1067 11.5733C26.46 11.82 26.6733 12.2266 26.6733 12.66V25.3666H12V16.0333H6.66667V25.3666H4Z" fill="#222343"/>
<path d="M27.8467 22.1001L26.62 18.5934C26.4333 18.0601 25.9267 17.7001 25.36 17.7001H18.5733C18 17.7001 17.4867 18.0668 17.3067 18.6134L16.1333 22.1268C16.04 22.4001 15.9933 22.6801 15.9933 22.9668V27.3601C15.9933 27.7268 16.2933 28.0268 16.66 28.0268H17.3267C17.6933 28.0268 17.9933 27.7268 17.9933 27.3601V26.7401H25.9933V27.3601C25.9933 27.7268 26.2933 28.0268 26.66 28.0268H27.3267C27.6933 28.0268 27.9933 27.7268 27.9933 27.3601V22.9801C27.9933 22.6801 27.94 22.3801 27.8467 22.1001ZM19.0533 19.7001H24.8867L25.5467 21.5801H18.4267L19.0533 19.7001ZM19.3667 25.1601C18.8133 25.1601 18.3667 24.7134 18.3667 24.1601C18.3667 23.6068 18.8133 23.1601 19.3667 23.1601C19.92 23.1601 20.3667 23.6068 20.3667 24.1601C20.3667 24.7134 19.92 25.1601 19.3667 25.1601ZM24.6667 25.1601C24.1133 25.1601 23.6667 24.7134 23.6667 24.1601C23.6667 23.6068 24.1133 23.1601 24.6667 23.1601C25.22 23.1601 25.6667 23.6068 25.6667 24.1601C25.6667 24.7134 25.22 25.1601 24.6667 25.1601Z" fill="#222343"/>
<path d="M11.9933 16.0334H6.66V25.3668H11.9933V16.0334Z" fill="#222343"/>
</svg>
