<svg width="32" height="32" viewBox="0 0 32 32" fill="none" xmlns="http://www.w3.org/2000/svg">
<path d="M25.9733 6C25.9733 6 25.98 6.00667 25.9867 6.01333L26 6.02667V25.9667C26 25.9667 25.9933 25.9733 25.9867 25.98L25.9733 25.9933H6.02667C6.02667 25.9933 6.02 25.9867 6.01333 25.98L6 25.9667V6.02667C6 6.02667 6.00667 6.02 6.01333 6.01333L6.02667 6H25.9667M26 4H6C5.46667 4 5 4.2 4.6 4.6C4.2 5 4 5.46667 4 6V26C4 26.5333 4.2 27 4.6 27.4C5 27.8 5.46667 28 6 28H26C26.5333 28 27 27.8 27.4 27.4C27.8 27 28 26.5333 28 26V6C28 5.46667 27.8 5 27.4 4.6C27 4.2 26.5333 4 26 4Z" fill="#222343"/>
<path opacity="0.85" fill-rule="evenodd" clip-rule="evenodd" d="M23.1667 22.7667C23.3667 22.7667 23.5133 22.68 23.6 22.5C23.6867 22.32 23.68 22.1467 23.5667 21.9667L19.6667 16.7667C19.5533 16.6333 19.42 16.5667 19.2667 16.5667C19.1133 16.5667 18.98 16.6333 18.8667 16.7667L14.8667 21.9333L12.1667 18.2333C12.0533 18.1 11.92 18.0333 11.7667 18.0333C11.6133 18.0333 11.48 18.1 11.3667 18.2333L8.5 21.9667C8.36667 22.1467 8.34667 22.32 8.43333 22.5C8.52 22.68 8.66667 22.7667 8.86667 22.7667H23.1667ZM25.9733 6H6.02667L6 6.02667V25.9667L6.02667 25.9933H25.9733L26 25.9667V6.02667L25.9733 6Z" fill="#222343"/>
<path opacity="0.2" d="M23.5999 22.5C23.5132 22.68 23.3666 22.7667 23.1666 22.7667H8.86657C8.66657 22.7667 8.5199 22.68 8.43323 22.5C8.34657 22.32 8.36657 22.1467 8.4999 21.9667L11.3666 18.2333C11.4799 18.1 11.6132 18.0333 11.7666 18.0333C11.9199 18.0333 12.0532 18.1 12.1666 18.2333L14.8666 21.9333L18.8666 16.7666C18.9799 16.6333 19.1132 16.5667 19.2666 16.5667C19.4199 16.5667 19.5532 16.6333 19.6666 16.7666L23.5666 21.9667C23.6799 22.1467 23.6866 22.32 23.5999 22.5Z" fill="#222343"/>
</svg>
