<svg width="32" height="32" viewBox="0 0 32 32" fill="none" xmlns="http://www.w3.org/2000/svg">
<path opacity="0.32" d="M16.0001 27.3334C22.2593 27.3334 27.3334 22.2593 27.3334 16.0001C27.3334 9.74085 22.2593 4.66675 16.0001 4.66675C9.74085 4.66675 4.66675 9.74085 4.66675 16.0001C4.66675 22.2593 9.74085 27.3334 16.0001 27.3334Z" fill="#222343"/>
<path d="M16.0001 27.3334C9.75341 27.3334 4.66675 22.2467 4.66675 16.0001C4.66675 9.75341 9.75341 4.66675 16.0001 4.66675C22.2467 4.66675 27.3334 9.75341 27.3334 16.0001C27.3334 22.2467 22.2467 27.3334 16.0001 27.3334ZM16.0001 29.3334C23.3667 29.3334 29.3334 23.3667 29.3334 16.0001C29.3334 8.63341 23.3667 2.66675 16.0001 2.66675C8.63341 2.66675 2.66675 8.63341 2.66675 16.0001C2.66675 23.3667 8.63341 29.3334 16.0001 29.3334Z" fill="#222343"/>
<path d="M16.0001 11.5334C16.3134 11.5334 16.5734 11.4267 16.7867 11.2134C16.9934 11.0067 17.1001 10.7401 17.1001 10.4334C17.1001 10.1267 16.9934 9.86008 16.7867 9.64675C16.5734 9.43341 16.3134 9.33341 16.0001 9.33341C15.6867 9.33341 15.4267 9.43341 15.2134 9.64675C15.0067 9.86008 14.9001 10.1201 14.9001 10.4334C14.9001 10.7467 15.0067 11.0001 15.2134 11.2134C15.4267 11.4267 15.6867 11.5334 16.0001 11.5334Z" fill="#222343"/>
<path d="M15.1867 22.5801C15.3801 22.7667 15.6201 22.8667 15.9067 22.8667C16.1934 22.8667 16.4267 22.7667 16.6201 22.5801C16.8067 22.3867 16.9001 22.1467 16.9001 21.8667V15.4334C16.9001 15.1467 16.8067 14.9134 16.6134 14.7201C16.4201 14.5267 16.1801 14.4334 15.8934 14.4334C15.6067 14.4334 15.3734 14.5267 15.1801 14.7201C14.9934 14.9134 14.9001 15.1467 14.9001 15.4334V21.8667C14.9001 22.1467 14.9934 22.3867 15.1867 22.5801Z" fill="#222343"/>
</svg>
