<svg width="32" height="32" viewBox="0 0 32 32" fill="none" xmlns="http://www.w3.org/2000/svg">
<path opacity="0.85" d="M26.6667 25.2534V22.7467L25.4334 24.0001L26.6667 25.2534ZM21.9467 10.8001C20.84 10.8001 19.9467 9.90675 19.9467 8.80008V3.25341C19.5734 2.88008 19.06 2.66675 18.5334 2.66675H7.33337C6.22671 2.66675 5.33337 3.56675 5.33337 4.66675V27.3334C5.33337 28.4401 6.22671 29.3334 7.33337 29.3334H24.6667C25.6267 29.3334 26.4267 28.6601 26.62 27.7601C26.4267 27.7267 26.2534 27.6401 26.1 27.5001L24 25.4334L21.9 27.5001C21.7 27.6801 21.4667 27.7734 21.2 27.7867C20.9334 27.7934 20.7 27.7001 20.5 27.5001C20.3 27.3001 20.2 27.0667 20.2 26.8001C20.2 26.5334 20.3 26.3001 20.5 26.1001L22.6 24.0001L20.5 21.9001C20.3 21.7001 20.2 21.4667 20.2 21.2001C20.2 20.9334 20.3 20.7001 20.5 20.5001C20.7 20.3001 20.9334 20.2001 21.2 20.2001C21.4667 20.2001 21.7 20.3001 21.9 20.5001L24 22.6001L26.1 20.5001C26.2667 20.3334 26.4534 20.2401 26.6667 20.2134V10.8001H21.9467ZM7.77337 5.12008C8.04004 4.86008 8.35337 4.73341 8.70671 4.73341C9.08004 4.73341 9.40004 4.86008 9.65337 5.12008C9.91337 5.37341 10.04 5.69341 10.04 6.06675C10.04 6.42008 9.91337 6.73341 9.65337 7.00008C9.40004 7.26675 9.08004 7.40008 8.70671 7.40008C8.35337 7.40008 8.04004 7.26675 7.77337 7.00008C7.50671 6.73341 7.37337 6.42008 7.37337 6.06675C7.37337 5.69341 7.50671 5.37341 7.77337 5.12008ZM14.6067 11.9334C14.3467 12.2001 14.0334 12.3334 13.66 12.3334C13.3067 12.3334 12.9934 12.2001 12.7267 11.9334C12.46 11.6667 12.3267 11.3601 12.3267 11.0001C12.3267 10.6401 12.46 10.3134 12.7267 10.0534C12.9934 9.80008 13.3067 9.66675 13.66 9.66675C14.0334 9.66675 14.3467 9.80008 14.6067 10.0534C14.8667 10.3134 14.9934 10.6267 14.9934 11.0001C14.9934 11.3734 14.8667 11.6667 14.6067 11.9334ZM14.7 6.44008L9.09337 12.0401C8.90004 12.2401 8.64671 12.3334 8.38671 12.3334C8.12671 12.3334 7.88004 12.2401 7.68004 12.0401C7.29337 11.6534 7.29337 11.0201 7.68004 10.6267L13.2867 5.02675C13.68 4.63341 14.3134 4.63341 14.7 5.02675C15.0934 5.41341 15.0934 6.04675 14.7 6.44008Z" fill="#222343"/>
<path d="M19.9467 7.38672V8.80005C19.9467 9.90672 20.84 10.8001 21.9467 10.8001H26.6667C26.6667 10.2667 26.4533 9.76005 26.08 9.38672H21.9467C20.84 9.38672 19.9467 8.49339 19.9467 7.38672Z" fill="#222343"/>
<path d="M26.6667 18.3267C25.8534 17.9401 24.9467 17.7267 23.9934 17.7267C20.5334 17.7267 17.7267 20.5334 17.7267 23.9934C17.7267 26.2467 18.92 28.2267 20.7067 29.3334C21.6667 29.9201 22.7934 30.2601 23.9934 30.2601C27.4534 30.2601 30.26 27.4534 30.26 23.9934C30.26 21.4867 28.7867 19.3267 26.6667 18.3267ZM27.5 26.1001C27.68 26.3001 27.7734 26.5334 27.7867 26.8001C27.7934 27.0667 27.7 27.3001 27.5 27.5001C27.3 27.7001 27.0667 27.7934 26.8 27.7867C26.74 27.7867 26.68 27.7734 26.62 27.7601C26.4267 27.7267 26.2534 27.6401 26.1 27.5001L24 25.4334L21.9 27.5001C21.7 27.6801 21.4667 27.7734 21.2 27.7867C20.9334 27.7934 20.7 27.7001 20.5 27.5001C20.3 27.3001 20.2 27.0667 20.2 26.8001C20.2 26.5334 20.3 26.3001 20.5 26.1001L22.6 24.0001L20.5 21.9001C20.3 21.7001 20.2 21.4667 20.2 21.2001C20.2 20.9334 20.3 20.7001 20.5 20.5001C20.7 20.3001 20.9334 20.2001 21.2 20.2001C21.4667 20.2001 21.7 20.3001 21.9 20.5001L24 22.6001L26.1 20.5001C26.2667 20.3334 26.4534 20.2401 26.6667 20.2134C26.7067 20.2001 26.7534 20.2001 26.8 20.2001C27.0667 20.2001 27.3 20.3001 27.5 20.5001C27.7 20.7001 27.7934 20.9334 27.7867 21.2001C27.7734 21.4667 27.68 21.7001 27.5 21.9001L25.4334 24.0001L27.5 26.1001Z" fill="#222343"/>
<g opacity="0.2">
<path d="M8.70675 7.39347C9.08008 7.39347 9.39341 7.26014 9.65341 6.99347C9.91341 6.72681 10.0401 6.41347 10.0401 6.06014C10.0401 5.68681 9.91341 5.37347 9.65341 5.11347C9.39341 4.85347 9.08008 4.72681 8.70675 4.72681C8.33341 4.72681 8.04008 4.85347 7.77341 5.11347C7.50675 5.37347 7.37341 5.68681 7.37341 6.06014C7.37341 6.43347 7.50675 6.72681 7.77341 6.99347C8.04008 7.26014 8.35341 7.39347 8.70675 7.39347Z" fill="#222343"/>
<path d="M13.66 9.6667C13.3067 9.6667 12.9934 9.79337 12.7267 10.0534C12.46 10.3134 12.3267 10.6267 12.3267 11C12.3267 11.3734 12.46 11.6667 12.7267 11.9334C12.9934 12.2 13.3067 12.3334 13.66 12.3334C14.0334 12.3334 14.3467 12.2 14.6067 11.9334C14.8667 11.6667 14.9934 11.3534 14.9934 11C14.9934 10.6267 14.8667 10.3134 14.6067 10.0534C14.3467 9.79337 14.0334 9.6667 13.66 9.6667Z" fill="#222343"/>
<path d="M13.2867 5.02004L7.68004 10.6267C7.2867 11.02 7.2867 11.6534 7.68004 12.04C7.87337 12.2334 8.13337 12.3334 8.3867 12.3334C8.64004 12.3334 8.90004 12.2334 9.09337 12.04L14.7 6.43337C15.0934 6.04004 15.0934 5.4067 14.7 5.02004C14.3067 4.63337 13.6734 4.6267 13.2867 5.02004Z" fill="#222343"/>
<path d="M27.5 26.1C27.68 26.3 27.7733 26.5333 27.7867 26.8C27.7933 27.0667 27.7 27.3 27.5 27.5C27.3 27.7 27.0667 27.7933 26.8 27.7867C26.74 27.7867 26.68 27.7733 26.62 27.76C26.4267 27.7267 26.2533 27.64 26.1 27.5L24 25.4333L21.9 27.5C21.7 27.68 21.4667 27.7733 21.2 27.7867C20.9333 27.7933 20.7 27.7 20.5 27.5C20.3 27.3 20.2 27.0667 20.2 26.8C20.2 26.5333 20.3 26.3 20.5 26.1L22.6 24L20.5 21.9C20.3 21.7 20.2 21.4667 20.2 21.2C20.2 20.9333 20.3 20.7 20.5 20.5C20.7 20.3 20.9333 20.2 21.2 20.2C21.4667 20.2 21.7 20.3 21.9 20.5L24 22.6L26.1 20.5C26.2667 20.3333 26.4533 20.24 26.6667 20.2133C26.7067 20.2 26.7533 20.2 26.8 20.2C27.0667 20.2 27.3 20.3 27.5 20.5C27.7 20.7 27.7933 20.9333 27.7867 21.2C27.7733 21.4667 27.68 21.7 27.5 21.9L25.4333 24L27.5 26.1Z" fill="#222343"/>
</g>
<path opacity="0.32" d="M21.9467 9.38675H26.08L19.9467 3.25342V7.38675C19.9467 8.49342 20.84 9.38675 21.9467 9.38675Z" fill="#222343"/>
</svg>
