<svg width="32" height="32" viewBox="0 0 32 32" fill="none" xmlns="http://www.w3.org/2000/svg">
<path opacity="0.85" d="M4.66663 2.66675H27.3333C28.44 2.66675 29.3333 3.56008 29.3333 4.66675V9.66675C29.3333 10.2201 28.8866 10.6667 28.3333 10.6667H3.66663C3.11329 10.6667 2.66663 10.2201 2.66663 9.66675V4.66675C2.66663 3.56008 3.55996 2.66675 4.66663 2.66675Z" fill="#222343"/>
<path opacity="0.52" d="M26.9667 4H5.03333C4.46 4 4 4.46 4 5.03333V27.3334C4 28.4401 4.89333 29.3334 6 29.3334H26C27.1067 29.3334 28 28.4401 28 27.3334V5.03333C28 4.46 27.54 4 26.9667 4Z" fill="#222343"/>
<path d="M19 17.8999H13C12.4467 17.8999 12 17.4532 12 16.8999C12 16.3466 12.4467 15.8999 13 15.8999H19C19.5533 15.8999 20 16.3466 20 16.8999C20 17.4532 19.5533 17.8999 19 17.8999Z" fill="#222343"/>
</svg>
