<svg width="32" height="32" viewBox="0 0 32 32" fill="none" xmlns="http://www.w3.org/2000/svg">
<path fill-rule="evenodd" clip-rule="evenodd" d="M27.6548 17.1533C28.1415 16.4599 28.1415 15.5333 27.6548 14.8466L22.8348 8.03325C22.5481 7.63325 22.2015 7.30659 21.8015 7.05326C21.4015 6.79992 20.9548 6.66659 20.4681 6.66659H6.50814C5.98814 6.66659 5.48147 6.84659 5.10147 7.19992C4.67481 7.59992 4.46814 8.08659 4.46814 8.66659V23.2933C4.46814 23.8133 4.64814 24.3199 5.00147 24.6999C5.40147 25.1266 5.88814 25.3333 6.46814 25.3333H20.4681C20.9548 25.3333 21.4015 25.2066 21.8015 24.9533C22.2015 24.6999 22.5481 24.3666 22.8348 23.9666L27.6548 17.1533ZM25.9681 15.9999L20.8348 23.3333H6.46814V8.66659H20.8348L25.9681 15.9999Z" fill="#222343"/>
<path opacity="0.52" d="M6.46814 23.3332H20.8348L25.9681 15.9998L20.8348 8.6665H6.46814" fill="#222343"/>
</svg>
