<svg width="32" height="32" viewBox="0 0 32 32" fill="none" xmlns="http://www.w3.org/2000/svg">
<g clip-path="url(#clip0_4093_940)">
<path opacity="0.52" d="M27.3333 5.33331H4.66663C3.55996 5.33331 2.66663 6.22665 2.66663 7.33331V24H29.3333V7.33331C29.3333 6.22665 28.44 5.33331 27.3333 5.33331Z" fill="currentColor"/>
<path opacity="0.32" d="M29.3333 22V24H2.66663V22H29.3333Z" fill="currentColor"/>
<path opacity="0.85" d="M0.0466309 24H32.0466V24.6667C32.0466 25.7733 31.1533 26.6667 30.0466 26.6667H2.04663C0.939964 26.6667 0.0466309 25.7733 0.0466309 24.6667V24Z" fill="currentColor"/>
<path d="M19 10.6666C19.5534 10.6666 20 10.22 20 9.66665C20 9.11331 19.5534 8.66665 19 8.66665H17V8.33331C17 7.77998 16.5534 7.33331 16 7.33331C15.4467 7.33331 15 7.77998 15 8.33331V8.66665H13C12.7134 8.66665 12.4734 8.75998 12.28 8.94665C12.0867 9.13331 12 9.37331 12 9.66665V14C12 14.2866 12.0934 14.5266 12.28 14.7133C12.4667 14.9 12.7067 15 13 15H18V17.3333H13C12.4467 17.3333 12 17.78 12 18.3333C12 18.8866 12.4467 19.3333 13 19.3333H15V19.6666C15 20.22 15.4467 20.6666 16 20.6666C16.5534 20.6666 17 20.22 17 19.6666V19.3333H19C19.2867 19.3333 19.5267 19.24 19.72 19.0466C19.9134 18.8533 20 18.62 20 18.3333V14C20 13.7133 19.9067 13.4733 19.72 13.28C19.5334 13.0866 19.2934 13 19 13H14V10.6666H19Z" fill="currentColor"/>
<path d="M18.9267 26H13.0667C12.4 26 11.7734 25.6666 11.4 25.1066L10.66 24H21.3267L20.5867 25.1066C20.2134 25.66 19.5934 26 18.92 26H18.9267Z" fill="currentColor"/>
</g>
<defs>
<clipPath id="clip0_4093_940">
<rect width="32" height="32" fill="white"/>
</clipPath>
</defs>
</svg>
