<svg width="32" height="32" viewBox="0 0 32 32" fill="none" xmlns="http://www.w3.org/2000/svg">
<g clip-path="url(#clip0_4093_974)">
<path opacity="0.52" d="M4.66663 5.33325H27.3333C28.44 5.33325 29.3333 6.22659 29.3333 7.33325V23.9999H2.66663V7.33325C2.66663 6.22659 3.55996 5.33325 4.66663 5.33325Z" fill="currentColor"/>
<path opacity="0.32" d="M29.3333 22V24H2.66663V22H29.3333Z" fill="currentColor"/>
<path opacity="0.85" d="M0.0466309 24H32.0466V24.6667C32.0466 25.7733 31.1533 26.6667 30.0466 26.6667H2.04663C0.939964 26.6667 0.0466309 25.7733 0.0466309 24.6667V24Z" fill="currentColor"/>
<path d="M18.9267 26H13.0667C12.4 26 11.7734 25.6666 11.4 25.1066L10.66 24H21.3267L20.5867 25.1066C20.2134 25.66 19.5934 26 18.92 26H18.9267Z" fill="currentColor"/>
<path d="M15.0334 14.68L12.7534 14.6533C12.4867 14.64 12.2534 14.54 12.06 14.36C11.8667 14.18 11.7667 13.9466 11.7667 13.6666C11.7667 13.3866 11.86 13.1466 12.0467 12.96C12.2334 12.7733 12.4734 12.68 12.7534 12.68H15.0534V10.38C15.0534 10.1 15.1467 9.85998 15.3334 9.67331C15.52 9.48664 15.76 9.39331 16.04 9.39331C16.32 9.39331 16.56 9.48664 16.7467 9.67331C16.9334 9.85998 17.0267 10.1 17.0267 10.38V12.68H19.3267C19.6067 12.68 19.8467 12.7733 20.0334 12.96C20.22 13.1466 20.3134 13.3866 20.3134 13.6666C20.3134 13.9466 20.2134 14.18 20.02 14.36C19.8267 14.54 19.5934 14.64 19.3267 14.6533L17.0467 14.68L17.02 16.96C17.0067 17.2266 16.9067 17.46 16.7267 17.6533C16.5467 17.8466 16.3134 17.9466 16.0334 17.9466C15.7534 17.9466 15.52 17.8466 15.34 17.6533C15.16 17.46 15.06 17.2266 15.0467 16.96L15.02 14.68H15.0334Z" fill="currentColor"/>
</g>
<defs>
<clipPath id="clip0_4093_974">
<rect width="32" height="32" fill="white"/>
</clipPath>
</defs>
</svg>
