<svg width="32" height="32" viewBox="0 0 32 32" fill="none" xmlns="http://www.w3.org/2000/svg">
<path d="M23.6866 15.3134C23.1333 15.3134 22.6866 14.8667 22.6866 14.3134V10.7267L12.7066 20.7067C12.5133 20.9 12.2533 21 11.9999 21C11.7466 21 11.4866 20.9 11.2933 20.7067C10.8999 20.3134 10.8999 19.68 11.2933 19.2934L21.2733 9.31337H17.6866C17.1333 9.31337 16.6866 8.86671 16.6866 8.31337C16.6866 7.82671 17.0399 7.42004 17.4999 7.33337H7.33325V24.6667H24.6666V14.4934C24.5799 14.96 24.1733 15.3134 23.6866 15.3134Z" fill="#222343"/>
<path opacity="0.2" d="M16.6866 8.31335C16.6866 8.86669 17.1333 9.31335 17.6866 9.31335H21.2733L11.2933 19.2934C10.9 19.6867 10.9 20.32 11.2933 20.7067C11.4866 20.9 11.7466 21 12 21C12.2533 21 12.5133 20.9 12.7066 20.7067L22.6866 10.7267V14.3134C22.6866 14.8667 23.1333 15.3134 23.6866 15.3134C24.24 15.3134 24.6866 14.8667 24.6866 14.3134V7.31335H17.6866C17.1333 7.31335 16.6866 7.76002 16.6866 8.31335Z" fill="#222343"/>
<path opacity="0.85" d="M24.6666 5.33337H7.33325C6.22659 5.33337 5.33325 6.22671 5.33325 7.33337V24.6667C5.33325 25.7734 6.22659 26.6667 7.33325 26.6667H24.6666C25.7733 26.6667 26.6666 25.7734 26.6666 24.6667V7.33337C26.6666 6.22671 25.7733 5.33337 24.6666 5.33337ZM24.6866 14.3134C24.6866 14.3734 24.6799 14.4334 24.6666 14.4934V24.6667H7.33325V7.33337H17.4999C17.5599 7.32004 17.6199 7.31337 17.6866 7.31337H24.6866V14.3134Z" fill="#222343"/>
</svg>
