<svg width="32" height="32" viewBox="0 0 32 32" fill="none" xmlns="http://www.w3.org/2000/svg">
<path d="M17.7867 20.8132H16.4533V13.2932C16 13.3265 15.54 13.3265 15.0867 13.2932V20.8132H13.7533V13.0999C13.4933 13.0465 13.2333 12.9732 12.98 12.8999L12.8133 12.8465C11.76 12.5199 11.0533 11.5665 11.0533 10.4599C11.0533 9.3532 11.96 8.44653 13.0667 8.44653C14.1733 8.44653 15.0867 9.3532 15.0867 10.4599V11.9532C15.54 11.9932 16 11.9932 16.4533 11.9532V10.4599C16.4533 9.34653 17.36 8.44653 18.4733 8.44653C19.5867 8.44653 20.4867 9.3532 20.4867 10.4599C20.4867 11.5665 19.78 12.5199 18.7267 12.8465L18.56 12.8999C18.3067 12.9799 18.0467 13.0465 17.7867 13.0999V20.8132ZM13.0667 9.77987C12.6933 9.77987 12.3867 10.0865 12.3867 10.4599C12.3867 10.9732 12.7133 11.4199 13.2067 11.5665L13.3733 11.6199C13.5 11.6599 13.6267 11.6932 13.7533 11.7265V10.4599C13.7533 10.0865 13.4467 9.77987 13.0667 9.77987ZM18.4667 9.77987C18.0867 9.77987 17.78 10.0865 17.78 10.4599V11.7265C17.9067 11.6932 18.0333 11.6599 18.16 11.6199L18.3267 11.5665C18.82 11.4132 19.1467 10.9732 19.1467 10.4599C19.1467 10.0865 18.84 9.77987 18.4667 9.77987Z" fill="#222343"/>
<path d="M16 29.5267C15.2467 29.5267 14.6067 29.2667 14.08 28.7467C13.5533 28.2267 13.3 27.5867 13.3 26.8267H18.7C18.7 27.58 18.44 28.22 17.92 28.7467C17.4 29.2733 16.76 29.5267 16 29.5267Z" fill="#222343"/>
<path d="M19.62 22.8267H12.3333C11.7811 22.8267 11.3333 23.2744 11.3333 23.8267C11.3333 24.3789 11.7811 24.8267 12.3333 24.8267H19.62C20.1723 24.8267 20.62 24.3789 20.62 23.8267C20.62 23.2744 20.1723 22.8267 19.62 22.8267Z" fill="#222343"/>
<path opacity="0.52" d="M10.5333 20.8132C9.06666 19.8599 7.90666 18.6599 7.04666 17.2265C6.19333 15.7932 5.76666 14.1799 5.76666 12.3799C5.76666 9.66655 6.75333 7.32655 8.73333 5.34655C10.7133 3.36655 13.0533 2.37988 15.7667 2.37988C18.48 2.37988 20.82 3.36655 22.8 5.34655C24.78 7.32655 25.7667 9.66655 25.7667 12.3799C25.7667 14.1799 25.3467 15.7932 24.5 17.2265C23.6533 18.6599 22.4867 19.8532 21 20.8132H10.5333Z" fill="#222343"/>
</svg>
