<svg width="32" height="32" viewBox="0 0 32 32" fill="none" xmlns="http://www.w3.org/2000/svg">
<g opacity="0.32">
<path d="M7.46666 24.6533C8.53441 24.6533 9.39999 23.7877 9.39999 22.72C9.39999 21.6522 8.53441 20.7866 7.46666 20.7866C6.39891 20.7866 5.53333 21.6522 5.53333 22.72C5.53333 23.7877 6.39891 24.6533 7.46666 24.6533Z" fill="#222343"/>
<path d="M24.3667 24.6533C25.4344 24.6533 26.3 23.7877 26.3 22.72C26.3 21.6522 25.4344 20.7866 24.3667 20.7866C23.2989 20.7866 22.4333 21.6522 22.4333 22.72C22.4333 23.7877 23.2989 24.6533 24.3667 24.6533Z" fill="#222343"/>
<path d="M28.8333 17.8467L25.1333 12.92H22.6333V17.8467H28.8333Z" fill="#222343"/>
<path d="M3.33337 20.7002H4.06671C4.44671 20.1002 4.92004 19.6202 5.50004 19.2668C6.08004 18.9135 6.72004 18.7335 7.43337 18.7335C8.14671 18.7335 8.79337 18.9202 9.38004 19.2868C9.96671 19.6535 10.4534 20.1268 10.8267 20.7002H20.6267V7.3335H3.33337V20.7002Z" fill="#222343"/>
</g>
<path d="M30.6134 16.9468C30.58 16.8468 30.5334 16.7535 30.4667 16.6668L26.4334 11.3002C26.3467 11.1668 26.2334 11.0668 26.1 11.0002C25.9667 10.9335 25.8134 10.9002 25.6334 10.9002H22.6334V7.3335C22.6334 6.78016 22.44 6.30683 22.0467 5.92016C21.6534 5.5335 21.1867 5.3335 20.6334 5.3335H3.33337C2.80004 5.3335 2.33337 5.5335 1.93337 5.9335C1.53337 6.3335 1.33337 6.80016 1.33337 7.3335V20.7002C1.33337 21.2535 1.52671 21.7268 1.92004 22.1135C2.31337 22.5002 2.78004 22.7002 3.33337 22.7002H3.53337C3.53337 23.8135 3.92004 24.7468 4.68671 25.5002C5.45337 26.2535 6.38004 26.6335 7.46671 26.6335C8.55337 26.6335 9.48004 26.2535 10.2467 25.5002C11.0134 24.7468 11.3934 23.8135 11.3934 22.7002H20.4267C20.4267 23.8135 20.8067 24.7468 21.5734 25.5002C22.34 26.2535 23.2667 26.6335 24.3534 26.6335C25.44 26.6335 26.3734 26.2535 27.1334 25.5002C27.9 24.7468 28.2867 23.8135 28.2867 22.7002H29.6534C29.94 22.7002 30.18 22.6068 30.3734 22.4202C30.5667 22.2335 30.6534 21.9935 30.6534 21.7002V17.2668C30.6534 17.1535 30.6334 17.0468 30.6 16.9468H30.6134ZM20.6334 20.6935H10.8334C10.4534 20.1135 9.97337 19.6402 9.38671 19.2802C8.80004 18.9135 8.14671 18.7268 7.44004 18.7268C6.73337 18.7268 6.08671 18.9068 5.50671 19.2602C4.92671 19.6135 4.45337 20.0935 4.07337 20.6935H3.34004V7.3335H20.64V20.7002L20.6334 20.6935ZM8.83337 24.0602C8.45337 24.4402 8.00004 24.6268 7.46671 24.6268C6.93337 24.6268 6.48004 24.4402 6.10004 24.0602C5.72004 23.6802 5.53337 23.2268 5.53337 22.6935C5.53337 22.1602 5.72004 21.7068 6.10004 21.3268C6.48004 20.9468 6.93337 20.7602 7.46671 20.7602C8.00004 20.7602 8.45337 20.9468 8.83337 21.3268C9.21337 21.7068 9.40004 22.1602 9.40004 22.6935C9.40004 23.2268 9.21337 23.6802 8.83337 24.0602ZM25.7334 24.0602C25.3534 24.4402 24.9 24.6268 24.3667 24.6268C23.8334 24.6268 23.38 24.4402 23 24.0602C22.62 23.6802 22.4334 23.2268 22.4334 22.6935C22.4334 22.1602 22.62 21.7068 23 21.3268C23.38 20.9468 23.8334 20.7602 24.3667 20.7602C24.9 20.7602 25.3534 20.9468 25.7334 21.3268C26.1134 21.7068 26.3 22.1602 26.3 22.6935C26.3 23.2268 26.1134 23.6802 25.7334 24.0602ZM22.6334 17.8268V12.8935H25.1334L28.8334 17.8268H22.6334Z" fill="#222343"/>
</svg>
