<svg width="32" height="32" viewBox="0 0 32 32" fill="none" xmlns="http://www.w3.org/2000/svg">
<path opacity="0.85" d="M20.3333 10.8666V7.76659C20.3333 6.54659 19.9133 5.49992 19.0666 4.63325C18.22 3.76659 17.2 3.33325 16 3.33325C14.8 3.33325 13.78 3.76659 12.9333 4.63325C12.0866 5.49992 11.6666 6.54659 11.6666 7.76659V10.8666H9.66663V7.76659C9.66663 5.98659 10.2866 4.46659 11.52 3.21325C12.7066 2.01325 14.3133 1.33325 16 1.33325C17.7533 1.33325 19.2466 1.95992 20.48 3.21325C21.7133 4.46659 22.3266 5.98659 22.3266 7.75992V10.8599H20.3266L20.3333 10.8666Z" fill="#222343"/>
<path opacity="0.52" d="M24.5666 29.3334H7.35325C6.92659 29.3334 6.49325 29.22 6.15992 28.96C5.61325 28.5334 5.33325 27.9934 5.33325 27.3334V12.9067C5.33325 12.3867 5.51325 11.88 5.86659 11.5C6.26659 11.0734 6.75325 10.8667 7.33325 10.8667H24.6266C25.1466 10.8667 25.6533 11.0467 26.0333 11.4C26.4599 11.8 26.6666 12.2867 26.6666 12.8667V27.2334C26.6666 28.3934 25.7266 29.3334 24.5666 29.3334Z" fill="#222343"/>
<path d="M16 22.6666C16.7133 22.6666 17.32 22.4199 17.82 21.9333C18.32 21.4466 18.5667 20.8533 18.5667 20.1666C18.5667 19.4799 18.3133 18.8933 17.82 18.3466C17.3267 17.7999 16.7133 17.5266 16 17.5266C15.2867 17.5266 14.68 17.7999 14.18 18.3466C13.68 18.8933 13.4333 19.4999 13.4333 20.1666C13.4333 20.8333 13.6867 21.4466 14.18 21.9333C14.6734 22.4199 15.2867 22.6666 16 22.6666Z" fill="#222343"/>
</svg>
