<svg width="32" height="32" viewBox="0 0 32 32" fill="none" xmlns="http://www.w3.org/2000/svg">
<path opacity="0.52" d="M18.6666 24.0334C18.6666 22.2334 19.2866 20.7134 20.5333 19.4667C21.7799 18.22 23.2999 17.6 25.0999 17.6C25.6466 17.6 26.1666 17.6667 26.6666 17.78V12.8667C26.6666 12.2867 26.4533 11.8 26.0333 11.4C25.6599 11.0467 25.1466 10.8667 24.6266 10.8667H7.33325C6.75325 10.8667 6.26659 11.08 5.86659 11.5C5.51325 11.8734 5.33325 12.3867 5.33325 12.9067V27.3334C5.33325 27.9934 5.60659 28.5334 6.15992 28.96C6.49992 29.22 6.92659 29.3334 7.35325 29.3334H21.4066C21.0999 29.12 20.8066 28.88 20.5333 28.6C19.2866 27.3534 18.6666 25.8334 18.6666 24.0334Z" fill="#222343"/>
<path d="M29.6666 19.4665C28.8 18.5999 27.8 18.0465 26.6666 17.7799C26.1666 17.6665 25.6466 17.5999 25.1 17.5999C23.3 17.5999 21.78 18.2199 20.5333 19.4665C19.2866 20.7132 18.6666 22.2332 18.6666 24.0332C18.6666 25.8332 19.2866 27.3532 20.5333 28.5999C20.8133 28.8799 21.1 29.1199 21.4066 29.3332C22.4733 30.0865 23.7 30.4665 25.1 30.4665C26.9 30.4665 28.42 29.8465 29.6666 28.5999C30.9133 27.3532 31.5333 25.8332 31.5333 24.0332C31.5333 22.2332 30.9133 20.7132 29.6666 19.4665ZM23.5533 19.9132C23.9866 19.4799 24.5 19.2665 25.1066 19.2665C25.7133 19.2665 26.24 19.4732 26.6733 19.8865C26.6733 19.8865 26.6866 19.8932 26.6866 19.8999C27.12 20.3199 27.3333 20.8465 27.3333 21.4665C27.3333 22.0865 27.1133 22.6132 26.6866 23.0532C26.6866 23.0532 26.6733 23.0599 26.6733 23.0665C26.24 23.4865 25.72 23.6999 25.1066 23.6999C24.4933 23.6999 23.9866 23.4865 23.5533 23.0532C23.12 22.6199 22.9 22.0932 22.9 21.4665C22.9 20.8399 23.12 20.3465 23.5533 19.9132ZM27.1666 27.6132C26.9666 27.7199 26.76 27.8065 26.5533 27.8799C26.0866 28.0465 25.6066 28.1332 25.1 28.1332C24.3666 28.1332 23.68 27.9599 23.0333 27.6132C22.3866 27.2665 21.8666 26.7999 21.4666 26.1999C22.0466 25.8865 22.6333 25.6399 23.2333 25.4532C23.8333 25.2665 24.4533 25.1665 25.1 25.1665C25.64 25.1665 26.16 25.2465 26.6666 25.3799C26.7666 25.4065 26.8666 25.4199 26.9666 25.4465C27.5666 25.6332 28.1533 25.8865 28.7333 26.1932C28.3333 26.7932 27.8133 27.2665 27.1666 27.6065V27.6132Z" fill="#222343"/>
<path opacity="0.85" d="M20.3333 10.8666V7.76659C20.3333 6.54659 19.9133 5.49992 19.0666 4.63325C18.22 3.76659 17.2 3.33325 16 3.33325C14.8 3.33325 13.78 3.76659 12.9333 4.63325C12.0866 5.49992 11.6666 6.54659 11.6666 7.76659V10.8666H9.66663V7.76659C9.66663 5.98659 10.2866 4.46659 11.52 3.21325C12.7066 2.01325 14.3133 1.33325 16 1.33325C17.7533 1.33325 19.2466 1.95992 20.48 3.21325C21.7133 4.46659 22.3266 5.98659 22.3266 7.75992V10.8599H20.3266L20.3333 10.8666Z" fill="#222343"/>
</svg>
