<svg width="32" height="32" viewBox="0 0 32 32" fill="none" xmlns="http://www.w3.org/2000/svg">
<path opacity="0.52" d="M23.3333 8.00659H8.66663C7.56206 8.00659 6.66663 8.90202 6.66663 10.0066V26.0066C6.66663 27.1112 7.56206 28.0066 8.66663 28.0066H23.3333C24.4379 28.0066 25.3333 27.1112 25.3333 26.0066V10.0066C25.3333 8.90202 24.4379 8.00659 23.3333 8.00659Z" fill="#222343"/>
<path d="M9.99996 29.3397C10.7333 29.3397 11.3333 28.7397 11.3333 28.0063H8.66663C8.66663 28.7397 9.26663 29.3397 9.99996 29.3397Z" fill="#222343"/>
<path d="M22 29.3397C22.7333 29.3397 23.3333 28.7397 23.3333 28.0063H20.6666C20.6666 28.7397 21.2666 29.3397 22 29.3397Z" fill="#222343"/>
<path d="M12 8.00658V3.99325C12 3.25991 12.6 2.65991 13.3333 2.65991H18.6666C19.4 2.65991 20 3.25991 20 3.99325V8.00658H18.6666V3.99325H13.3333V8.00658H12Z" fill="#222343"/>
<path opacity="0.32" d="M22.3733 9.95996H9.70663C9.15435 9.95996 8.70663 10.4077 8.70663 10.96V24.96C8.70663 25.5122 9.15435 25.96 9.70663 25.96H22.3733C22.9256 25.96 23.3733 25.5122 23.3733 24.96V10.96C23.3733 10.4077 22.9256 9.95996 22.3733 9.95996Z" fill="#222343"/>
<g opacity="0.85">
<path d="M12.3333 12.673C12.3333 12.3048 12.0348 12.0063 11.6666 12.0063C11.2984 12.0063 11 12.3048 11 12.673V23.3397C11 23.7079 11.2984 24.0063 11.6666 24.0063C12.0348 24.0063 12.3333 23.7079 12.3333 23.3397V12.673Z" fill="#222343"/>
<path d="M16.6666 12.673C16.6666 12.3048 16.3682 12.0063 16 12.0063C15.6318 12.0063 15.3333 12.3048 15.3333 12.673V23.3397C15.3333 23.7079 15.6318 24.0063 16 24.0063C16.3682 24.0063 16.6666 23.7079 16.6666 23.3397V12.673Z" fill="#222343"/>
<path d="M21 12.673C21 12.3048 20.7015 12.0063 20.3333 12.0063C19.9651 12.0063 19.6666 12.3048 19.6666 12.673V23.3397C19.6666 23.7079 19.9651 24.0063 20.3333 24.0063C20.7015 24.0063 21 23.7079 21 23.3397V12.673Z" fill="#222343"/>
</g>
</svg>
