<svg width="32" height="32" viewBox="0 0 32 32" fill="none" xmlns="http://www.w3.org/2000/svg">
<path d="M18.6667 21.3335C16.8201 21.3335 15.2467 20.6802 13.9467 19.3801C12.6467 18.0801 11.9934 16.5068 11.9934 14.6602C11.9934 12.8135 12.6467 11.2401 13.9467 9.94015C15.2467 8.64015 16.8201 7.98682 18.6667 7.98682C20.5134 7.98682 22.0867 8.64015 23.3867 9.94015C24.6867 11.2401 25.3401 12.8135 25.3401 14.6602C25.3401 15.3735 25.2267 16.0602 25.0067 16.7268C24.7867 17.3935 24.4534 18.0135 24.0067 18.5935L28.6401 23.2268C28.8401 23.4268 28.9401 23.6602 28.9401 23.9268C28.9401 24.1935 28.8401 24.4268 28.6401 24.6268C28.4401 24.8268 28.2067 24.9268 27.9401 24.9268C27.6734 24.9268 27.4401 24.8268 27.2401 24.6268L22.6067 19.9935C22.0267 20.4402 21.4067 20.7735 20.7401 20.9935C20.0734 21.2135 19.3867 21.3268 18.6734 21.3268L18.6667 21.3335ZM18.6601 19.3335C19.9534 19.3335 21.0601 18.8801 21.9667 17.9735C22.8801 17.0668 23.3334 15.9668 23.3334 14.6735C23.3334 13.3802 22.8801 12.2735 21.9734 11.3668C21.0667 10.4535 19.9667 10.0002 18.6734 10.0002C17.3801 10.0002 16.2734 10.4535 15.3667 11.3602C14.4534 12.2668 14.0001 13.3668 14.0001 14.6602C14.0001 15.9535 14.4534 17.0602 15.3601 17.9668C16.2667 18.8802 17.3667 19.3335 18.6601 19.3335Z" fill="currentColor"/>
<g opacity="0.85">
<path d="M15.7132 23.62C15.5198 23.4267 15.2865 23.3333 14.9998 23.3333H3.6665C3.3865 23.3333 3.1465 23.4267 2.95317 23.62C2.75984 23.8067 2.6665 24.0467 2.6665 24.3333C2.6665 24.62 2.75984 24.86 2.95317 25.0467C3.1465 25.24 3.37984 25.3333 3.6665 25.3333H14.9998C15.2798 25.3333 15.5198 25.24 15.7132 25.0467C15.9065 24.86 15.9998 24.62 15.9998 24.3333C15.9998 24.0467 15.9065 23.8067 15.7132 23.6133V23.62Z" fill="currentColor"/>
<path d="M3.6665 18.3333H8.33317C8.61317 18.3333 8.85317 18.24 9.0465 18.0467C9.23984 17.86 9.33317 17.62 9.33317 17.3333C9.33317 17.0467 9.23984 16.8067 9.0465 16.6133C8.85317 16.42 8.61984 16.3267 8.33317 16.3267H3.6665C3.3865 16.3267 3.1465 16.42 2.95317 16.6133C2.75984 16.8 2.6665 17.04 2.6665 17.3267C2.6665 17.6133 2.75984 17.8533 2.95317 18.04C3.1465 18.2333 3.37984 18.3267 3.6665 18.3267V18.3333Z" fill="currentColor"/>
<path d="M3.6665 11.3333H8.33317C8.61317 11.3333 8.85317 11.24 9.0465 11.0467C9.23984 10.86 9.33317 10.62 9.33317 10.3333C9.33317 10.0467 9.23984 9.80666 9.0465 9.61333C8.85317 9.41999 8.61984 9.32666 8.33317 9.32666H3.6665C3.3865 9.32666 3.1465 9.41999 2.95317 9.61333C2.75984 9.79999 2.6665 10.04 2.6665 10.3267C2.6665 10.6133 2.75984 10.8533 2.95317 11.04C3.1465 11.2333 3.37984 11.3267 3.6665 11.3267V11.3333Z" fill="currentColor"/>
</g>
</svg>
