<svg width="32" height="32" viewBox="0 0 32 32" fill="none" xmlns="http://www.w3.org/2000/svg">
<path d="M22.84 5.34009L17.5133 10.6601H14.48L9.15332 5.34009H22.84Z" fill="#222343"/>
<path opacity="0.52" d="M20.0334 16.2268C18.9734 15.2601 17.5467 14.6668 16 14.6668C14.4534 14.6668 13.0267 15.2601 11.9667 16.2268C11.8934 16.2934 11.8267 16.3601 11.76 16.4268H11.7534L5.99336 10.6668L5.65336 10.3268C4.87336 9.54675 4.87336 8.28009 5.65336 7.50009L7.22003 5.92675C7.59336 5.55342 8.10669 5.34009 8.63336 5.34009H9.15336L16 12.1868L20.0334 16.2268Z" fill="#222343"/>
<path opacity="0.32" d="M20.44 16.6334C20.3733 16.5667 20.3067 16.4934 20.24 16.4267C20.1733 16.3601 20.1067 16.2934 20.0333 16.2267C18.9733 15.2601 17.5467 14.6667 16 14.6667C14.4533 14.6667 13.0267 15.2601 11.9667 16.2267C11.8933 16.2934 11.8267 16.3601 11.76 16.4267C10.6733 17.5201 10 19.0134 10 20.6667C10 22.3201 10.6733 23.8267 11.76 24.9134C12.84 25.9934 14.3467 26.6667 16 26.6667C17.6533 26.6667 19.16 25.9934 20.24 24.9134C21.3267 23.8267 22 22.3267 22 20.6667C22 19.1134 21.4067 17.7001 20.44 16.6334ZM16 24.3201C13.98 24.3201 12.3467 22.6867 12.3467 20.6667C12.3467 18.6467 13.98 17.0134 16 17.0134C18.02 17.0134 19.6533 18.6467 19.6533 20.6667C19.6533 22.6867 18.02 24.3201 16 24.3201Z" fill="#222343"/>
<g opacity="0.85">
<path d="M26.3466 7.49318C27.1266 8.27318 27.1266 9.53984 26.3466 10.3198L20.2333 16.4265H20.2266L15.9933 12.1865L17.5066 10.6665L22.8333 5.33984H23.36C23.8933 5.33984 24.4 5.55318 24.7733 5.92651L26.34 7.49318H26.3466Z" fill="#222343"/>
<path d="M16 17.0133C13.98 17.0133 12.3467 18.6466 12.3467 20.6666C12.3467 22.6866 13.98 24.3199 16 24.3199C18.02 24.3199 19.6533 22.6866 19.6533 20.6666C19.6533 18.6466 18.02 17.0133 16 17.0133Z" fill="#222343"/>
</g>
</svg>
