<svg width="32" height="32" viewBox="0 0 32 32" fill="none" xmlns="http://www.w3.org/2000/svg">
<path opacity="0.52" d="M23.3332 6.6665H8.6665C7.56193 6.6665 6.6665 7.56193 6.6665 8.6665V23.3332C6.6665 24.4377 7.56193 25.3332 8.6665 25.3332H23.3332C24.4377 25.3332 25.3332 24.4377 25.3332 23.3332V8.6665C25.3332 7.56193 24.4377 6.6665 23.3332 6.6665Z" fill="#222343"/>
<path opacity="0.52" d="M23.3332 8.6665V23.3332H8.6665V8.6665H23.3332ZM23.3332 6.6665H8.6665C7.55984 6.6665 6.6665 7.55984 6.6665 8.6665V23.3332C6.6665 24.4398 7.55984 25.3332 8.6665 25.3332H23.3332C24.4398 25.3332 25.3332 24.4398 25.3332 23.3332V8.6665C25.3332 7.55984 24.4398 6.6665 23.3332 6.6665Z" fill="#222343"/>
<path d="M18.6732 12.5998H13.3265C12.9252 12.5998 12.5998 12.9252 12.5998 13.3265V18.6732C12.5998 19.0745 12.9252 19.3998 13.3265 19.3998H18.6732C19.0745 19.3998 19.3998 19.0745 19.3998 18.6732V13.3265C19.3998 12.9252 19.0745 12.5998 18.6732 12.5998Z" fill="#222343"/>
<path d="M25.3332 11.8664H26.6799C27.2332 11.8664 27.6799 12.3131 27.6799 12.8664C27.6799 13.4198 27.2332 13.8664 26.6799 13.8664H25.3332V11.8664Z" fill="#222343"/>
<path d="M25.3332 17.8664H26.6799C27.2332 17.8664 27.6799 18.3131 27.6799 18.8664C27.6799 19.4198 27.2332 19.8664 26.6799 19.8664H25.3332V17.8664Z" fill="#222343"/>
<path d="M6.66649 19.8664H5.31982C4.76649 19.8664 4.31982 19.4198 4.31982 18.8664C4.31982 18.3131 4.76649 17.8664 5.31982 17.8664H6.66649V19.8664Z" fill="#222343"/>
<path d="M6.66649 13.8664H5.31982C4.76649 13.8664 4.31982 13.4198 4.31982 12.8664C4.31982 12.3131 4.76649 11.8664 5.31982 11.8664H6.66649V13.8664Z" fill="#222343"/>
<path d="M19.9997 25.3332V26.6799C19.9997 27.2332 19.5531 27.6799 18.9997 27.6799C18.4464 27.6799 17.9997 27.2332 17.9997 26.6799V25.3332H19.9997Z" fill="#222343"/>
<path d="M13.9997 25.3332V26.6799C13.9997 27.2332 13.5531 27.6799 12.9997 27.6799C12.4464 27.6799 11.9997 27.2332 11.9997 26.6799V25.3332H13.9997Z" fill="#222343"/>
<path d="M11.9997 6.66649V5.31982C11.9997 4.76649 12.4464 4.31982 12.9997 4.31982C13.5531 4.31982 13.9997 4.76649 13.9997 5.31982V6.66649H11.9997Z" fill="#222343"/>
<path d="M17.9997 6.66649V5.31982C17.9997 4.76649 18.4464 4.31982 18.9997 4.31982C19.5531 4.31982 19.9997 4.76649 19.9997 5.31982V6.66649H17.9997Z" fill="#222343"/>
</svg>
