<svg width="32" height="32" viewBox="0 0 32 32" fill="none" xmlns="http://www.w3.org/2000/svg">
<path d="M16 18.5668C15.0466 18.5668 14.2466 18.2202 13.6 17.5335C12.9533 16.8468 12.6333 16.0135 12.6333 15.0335V6.66683C12.6333 5.74016 12.96 4.9535 13.6133 4.30683C14.2666 3.66016 15.06 3.3335 16 3.3335C16.94 3.3335 17.7266 3.66016 18.3866 4.30683C19.04 4.9535 19.3733 5.74016 19.3733 6.66683V15.0335C19.3733 16.0135 19.0533 16.8468 18.4066 17.5335C17.76 18.2202 16.96 18.5668 16.0066 18.5668H16Z" fill="currentColor"/>
<path opacity="0.85" d="M15.0001 27.6669V24.1335C12.8667 23.8869 11.0134 23.0269 9.44675 21.5469C7.88008 20.0669 6.97341 18.2402 6.72675 16.0602C6.68008 15.7735 6.75341 15.5335 6.94675 15.3269C7.14008 15.1269 7.37341 15.0269 7.66675 15.0269C7.96008 15.0269 8.19341 15.1269 8.38008 15.3269C8.56675 15.5269 8.68675 15.7735 8.73341 16.0602C9.00008 17.8602 9.83341 19.3335 11.2267 20.4802C12.6201 21.6269 14.2067 22.2002 15.9934 22.2002C17.7801 22.2002 19.4001 21.6269 20.7867 20.4802C22.1734 19.3335 23.0067 17.8602 23.2734 16.0602C23.3201 15.7735 23.4334 15.5269 23.6267 15.3269C23.8201 15.1269 24.0601 15.0269 24.3467 15.0269C24.6334 15.0269 24.8667 15.1269 25.0601 15.3269C25.2467 15.5269 25.3201 15.7735 25.2801 16.0602C25.0334 18.2135 24.1334 20.0402 22.5801 21.5269C21.0267 23.0135 19.1667 23.8802 17.0134 24.1269V27.6602C17.0134 27.9469 16.9201 28.1802 16.7267 28.3735C16.5334 28.5669 16.2934 28.6602 16.0067 28.6602C15.7201 28.6602 15.4867 28.5669 15.2934 28.3735C15.1067 28.1802 15.0067 27.9469 15.0067 27.6602L15.0001 27.6669Z" fill="currentColor"/>
</svg>
