<svg width="32" height="32" viewBox="0 0 32 32" fill="none" xmlns="http://www.w3.org/2000/svg">
<path opacity="0.32" d="M13.3333 24.0001C11.82 24.0001 10.42 23.7267 9.11996 23.1867C7.81996 22.6467 6.69329 21.8934 5.73329 20.9334C4.77329 19.9734 4.01996 18.8467 3.47996 17.5467C2.93996 16.2467 2.66663 14.8467 2.66663 13.3334C2.66663 11.8201 2.93996 10.4467 3.47996 9.14675C4.01996 7.84675 4.77329 6.72008 5.73329 5.76008C6.69329 4.80008 7.81996 4.04675 9.11996 3.49341C10.42 2.94008 11.82 2.66675 13.3333 2.66675C14.8466 2.66675 16.22 2.94008 17.52 3.49341C18.82 4.04675 19.9466 4.80008 20.9066 5.76008C21.8666 6.72008 22.62 7.84675 23.1733 9.14675C23.7266 10.4467 24 11.8401 24 13.3334C24 14.8267 23.7266 16.2467 23.1733 17.5467C22.62 18.8467 21.8666 19.9734 20.9066 20.9334C19.9466 21.8934 18.82 22.6467 17.52 23.1867C16.22 23.7267 14.8266 24.0001 13.3333 24.0001Z" fill="#222343"/>
<path opacity="0.52" fill-rule="evenodd" clip-rule="evenodd" d="M13.34 2.67334C11.8267 2.67334 10.4267 2.94667 9.12667 3.50001C7.82667 4.05334 6.70001 4.80667 5.74001 5.76667C4.78001 6.72667 4.02667 7.85334 3.48667 9.15334C2.94667 10.4533 2.67334 11.8467 2.67334 13.34C2.67334 14.8333 2.94667 16.2533 3.48667 17.5533C4.02667 18.8533 4.78001 19.98 5.74001 20.94C6.70001 21.9 7.82667 22.6533 9.12667 23.1933C10.4267 23.7333 11.8267 24.0067 13.34 24.0067C14.8533 24.0067 16.2267 23.7333 17.5267 23.1933C18.8267 22.6533 19.9533 21.9 20.9133 20.94C21.8733 19.98 22.6267 18.8533 23.18 17.5533C23.7333 16.2533 24.0067 14.8533 24.0067 13.34C24.0067 11.8267 23.7333 10.4533 23.18 9.15334C22.6267 7.85334 21.8733 6.72667 20.9133 5.76667C19.9533 4.80667 18.8267 4.05334 17.5267 3.50001C16.2267 2.94667 14.8333 2.67334 13.34 2.67334ZM13.3333 4.66667C14.5467 4.66667 15.6933 4.89334 16.74 5.33334C17.7933 5.78001 18.72 6.40001 19.4933 7.17334C20.2667 7.94667 20.8867 8.87334 21.3333 9.92667C21.7733 10.9667 22 12.1133 22 13.3333C22 14.5533 21.7733 15.72 21.3333 16.7667C20.8867 17.82 20.2667 18.7467 19.4933 19.52C18.72 20.2933 17.8 20.9067 16.7467 21.34C15.7 21.78 14.5533 22 13.3333 22C12.1133 22 10.94 21.78 9.89334 21.34C8.84667 20.9 7.92001 20.2867 7.15334 19.52C6.38001 18.7467 5.76667 17.8267 5.33334 16.7733C4.89334 15.7267 4.67334 14.5667 4.67334 13.3333C4.67334 12.1 4.89334 10.9667 5.33334 9.92001C5.77334 8.86667 6.38667 7.94667 7.15334 7.18001C7.92667 6.40667 8.85334 5.78667 9.90667 5.34001C10.9533 4.90001 12.1067 4.67334 13.34 4.67334" fill="#222343"/>
<path d="M13.3334 20.0001C13.8867 20.0001 14.3334 19.5534 14.3334 19.0001V18.6667H16.3334C16.62 18.6667 16.86 18.5734 17.0534 18.3867C17.24 18.2001 17.3334 17.9601 17.3334 17.6667V13.3334C17.3334 13.0467 17.24 12.8067 17.0534 12.6134C16.8667 12.4267 16.6267 12.3334 16.3334 12.3334H11.3334V10.0001H16.3334C16.8867 10.0001 17.3334 9.55341 17.3334 9.00008C17.3334 8.44675 16.8867 8.00008 16.3334 8.00008H14.3334V7.66675C14.3334 7.11341 13.8867 6.66675 13.3334 6.66675C12.78 6.66675 12.3334 7.11341 12.3334 7.66675V8.00008H10.3334C10.0467 8.00008 9.80671 8.09341 9.61337 8.28008C9.42671 8.46675 9.33337 8.70675 9.33337 9.00008V13.3334C9.33337 13.6201 9.42671 13.8601 9.61337 14.0534C9.80004 14.2467 10.04 14.3401 10.3334 14.3334H15.3334V16.6667H10.3334C9.78004 16.6667 9.33337 17.1134 9.33337 17.6667C9.33337 18.2201 9.78004 18.6667 10.3334 18.6667H12.3334V19.0001C12.3334 19.5534 12.78 20.0001 13.3334 20.0001Z" fill="#222343"/>
<path d="M28.4134 19.5801C27.18 18.3467 25.7067 17.7334 24 17.7334C22.2934 17.7334 20.7867 18.3467 19.5667 19.5801C18.3467 20.8134 17.7334 22.3001 17.7334 24.0334C17.7334 25.7667 18.3467 27.1801 19.5667 28.4134C20.7867 29.6467 22.2667 30.2601 24 30.2601C25.7334 30.2601 27.1867 29.6467 28.4134 28.4134C29.6467 27.1801 30.2667 25.7201 30.2667 24.0334C30.2667 22.3467 29.6534 20.8134 28.4134 19.5801ZM27.9867 24.6934C27.7934 24.8734 27.56 24.9734 27.2934 24.9867L25.0134 25.0134L24.9867 27.2934C24.9734 27.5601 24.8734 27.7934 24.6934 27.9867C24.5134 28.1801 24.28 28.2801 24 28.2801C23.72 28.2801 23.4867 28.1801 23.3067 27.9867C23.1267 27.7934 23.0267 27.5601 23.0134 27.2934L22.9867 25.0134L20.7067 24.9867C20.44 24.9734 20.2067 24.8734 20.0134 24.6934C19.82 24.5134 19.72 24.2801 19.72 24.0001C19.72 23.7201 19.8134 23.4801 20 23.2934C20.1867 23.1067 20.4267 23.0134 20.7067 23.0134H23.0067V20.7134C23.0067 20.4334 23.1 20.1934 23.2867 20.0067C23.4734 19.8201 23.7134 19.7267 23.9934 19.7267C24.2734 19.7267 24.5134 19.8201 24.7 20.0067C24.8867 20.1934 24.98 20.4334 24.98 20.7134V23.0134H27.28C27.56 23.0134 27.8 23.1067 27.9867 23.2934C28.1734 23.4801 28.2667 23.7201 28.2667 24.0001C28.2667 24.2801 28.1667 24.5134 27.9734 24.6934H27.9867Z" fill="#222343"/>
<path opacity="0.2" d="M27.2933 23.0066H24.9933V20.7066C24.9933 20.4266 24.8999 20.1866 24.7133 20C24.5266 19.8133 24.2866 19.72 24.0066 19.72C23.7266 19.72 23.4866 19.8133 23.2999 20C23.1133 20.1866 23.0199 20.4266 23.0199 20.7066V23.0066H20.7199C20.4399 23.0066 20.1999 23.1 20.0133 23.2866C19.8266 23.4733 19.7333 23.7133 19.7333 23.9933C19.7333 24.2733 19.8333 24.5066 20.0266 24.6866C20.2199 24.8666 20.4533 24.9666 20.7199 24.98L22.9999 25.0066L23.0266 27.2866C23.0399 27.5533 23.1399 27.7866 23.3199 27.98C23.4999 28.1733 23.7333 28.2733 24.0133 28.2733C24.2933 28.2733 24.5266 28.1733 24.7066 27.98C24.8866 27.7866 24.9866 27.5533 24.9999 27.2866L25.0266 25.0066L27.3066 24.98C27.5733 24.9666 27.8066 24.8666 27.9999 24.6866C28.1933 24.5066 28.2933 24.2733 28.2933 23.9933C28.2933 23.7133 28.1999 23.4733 28.0133 23.2866C27.8266 23.1 27.5866 23.0066 27.3066 23.0066H27.2933Z" fill="#222343"/>
</svg>
