<svg width="32" height="32" viewBox="0 0 32 32" fill="none" xmlns="http://www.w3.org/2000/svg">
<path opacity="0.85" d="M18.8334 15.1666C18.0534 14.3866 17.1134 14 16.0001 14C14.8867 14 13.9467 14.3866 13.1667 15.1666C12.3867 15.9466 12.0001 16.8866 12.0001 18C12.0001 19.1133 12.3867 20.0533 13.1667 20.8333C13.9467 21.6133 14.8867 22 16.0001 22C17.1134 22 18.0534 21.6133 18.8334 20.8333C19.6134 20.0533 20.0001 19.1133 20.0001 18C20.0001 16.8866 19.6134 15.9466 18.8334 15.1666ZM28.7467 9.91998C28.3601 9.52665 27.8867 9.33331 27.3334 9.33331H17.0001V11.3333H24.0001C24.0001 12.2666 24.3201 13.0533 24.9667 13.7C25.6134 14.3466 26.4001 14.6666 27.3334 14.6666V21.3333C26.4001 21.3333 25.6134 21.6533 24.9667 22.3C24.3201 22.9466 24.0001 23.7333 24.0001 24.6666H8.00008C8.00008 23.7333 7.68008 22.9466 7.03341 22.3C6.38675 21.6533 5.60008 21.3333 4.66675 21.3333V14.6666C5.60008 14.6666 6.38675 14.3466 7.03341 13.7C7.68008 13.0533 8.00008 12.2666 8.00008 11.3333H15.0001V9.33331H4.66675C4.11341 9.33331 3.64008 9.52665 3.25341 9.91998C2.86008 10.3066 2.66675 10.78 2.66675 11.3333V24.6666C2.66675 25.22 2.86008 25.6933 3.25341 26.0866C3.64008 26.4733 4.11341 26.6666 4.66675 26.6666H27.3334C27.8867 26.6666 28.3601 26.4733 28.7467 26.0866C29.1401 25.6933 29.3334 25.22 29.3334 24.6666V11.3333C29.3334 10.78 29.1401 10.3066 28.7467 9.91998ZM12.0001 18C12.0001 19.1133 12.3867 20.0533 13.1667 20.8333C13.9467 21.6133 14.8867 22 16.0001 22C17.1134 22 18.0534 21.6133 18.8334 20.8333C19.6134 20.0533 20.0001 19.1133 20.0001 18C20.0001 16.8866 19.6134 15.9466 18.8334 15.1666C18.0534 14.3866 17.1134 14 16.0001 14C14.8867 14 13.9467 14.3866 13.1667 15.1666C12.3867 15.9466 12.0001 16.8866 12.0001 18ZM18.8334 15.1666C18.0534 14.3866 17.1134 14 16.0001 14C14.8867 14 13.9467 14.3866 13.1667 15.1666C12.3867 15.9466 12.0001 16.8866 12.0001 18C12.0001 19.1133 12.3867 20.0533 13.1667 20.8333C13.9467 21.6133 14.8867 22 16.0001 22C17.1134 22 18.0534 21.6133 18.8334 20.8333C19.6134 20.0533 20.0001 19.1133 20.0001 18C20.0001 16.8866 19.6134 15.9466 18.8334 15.1666Z" fill="#222343"/>
<path opacity="0.2" d="M24.9667 13.7C24.3201 13.0533 24.0001 12.2666 24.0001 11.3333H17.0001C17.0001 11.8866 16.5534 12.3333 16.0001 12.3333C15.4467 12.3333 15.0001 11.8866 15.0001 11.3333H8.00008C8.00008 12.2666 7.68008 13.0533 7.03341 13.7C6.38675 14.3466 5.60008 14.6666 4.66675 14.6666V21.3333C5.60008 21.3333 6.38675 21.6533 7.03341 22.3C7.68008 22.9466 8.00008 23.7333 8.00008 24.6666H24.0001C24.0001 23.7333 24.3201 22.9466 24.9667 22.3C25.6134 21.6533 26.4001 21.3333 27.3334 21.3333V14.6666C26.4001 14.6666 25.6134 14.3466 24.9667 13.7ZM18.8334 20.8333C18.0534 21.6133 17.1134 22 16.0001 22C14.8867 22 13.9467 21.6133 13.1667 20.8333C12.3867 20.0533 12.0001 19.1133 12.0001 18C12.0001 16.8866 12.3867 15.9466 13.1667 15.1666C13.9467 14.3866 14.8867 14 16.0001 14C17.1134 14 18.0534 14.3866 18.8334 15.1666C19.6134 15.9466 20.0001 16.8866 20.0001 18C20.0001 19.1133 19.6134 20.0533 18.8334 20.8333Z" fill="#222343"/>
<path d="M20.7401 8.06002C20.5401 8.27335 20.2735 8.38668 20.0001 8.38668C19.7601 8.38668 19.5135 8.30002 19.3268 8.12002L17.0001 5.99335V11.3334C17.0001 11.8867 16.5535 12.3334 16.0001 12.3334C15.4468 12.3334 15.0001 11.8867 15.0001 11.3334V5.99335L12.6735 8.12002C12.2668 8.49335 11.6335 8.46668 11.2601 8.06002C10.8868 7.65335 10.9201 7.02002 11.3268 6.64668L15.3268 2.98668C15.3268 2.98668 15.3401 2.98002 15.3468 2.97335C15.4335 2.90002 15.5268 2.84002 15.6335 2.79335C15.6468 2.79335 15.6535 2.78668 15.6668 2.78668C15.7735 2.74668 15.8801 2.72668 15.9935 2.72668H16.0068C16.1201 2.72668 16.2268 2.74668 16.3335 2.78668C16.3468 2.78668 16.3535 2.79335 16.3668 2.79335C16.4735 2.84002 16.5668 2.90002 16.6535 2.97335C16.6535 2.98002 16.6668 2.98002 16.6735 2.98668L20.6735 6.64668C21.0801 7.02002 21.1135 7.65335 20.7401 8.06002Z" fill="#222343"/>
</svg>
