<svg width="32" height="32" viewBox="0 0 32 32" fill="none" xmlns="http://www.w3.org/2000/svg">
<path opacity="0.52" d="M1.02678 13.0466C0.413451 12.4333 0.440117 11.42 1.09345 10.8533C5.22678 7.25329 10.4601 5.28662 16.0001 5.28662C21.5401 5.28662 26.6601 7.21329 30.7734 10.74C31.4334 11.3066 31.4668 12.3133 30.8601 12.9333C30.3068 13.4933 29.4201 13.5333 28.8201 13.02C25.2468 9.95995 20.7468 8.29329 16.0001 8.29329C11.2534 8.29329 6.65345 9.99995 3.06012 13.1266C2.46678 13.64 1.58012 13.6133 1.02012 13.06L1.02678 13.0466Z" fill="#222343"/>
<path opacity="0.52" d="M27.4068 18.1333C26.8135 18.6467 25.9468 18.6067 25.3735 18.0733C22.8468 15.6933 19.5001 14.3533 16.0001 14.3533C12.8335 14.3533 9.82679 15.4267 7.40012 17.3933C6.79345 17.8867 5.92012 17.86 5.37345 17.3C4.76012 16.68 4.78679 15.6533 5.46012 15.1C8.42678 12.6733 12.1135 11.3467 16.0001 11.3467C20.2735 11.3467 24.3535 12.98 27.4335 15.88C28.0868 16.5 28.0868 17.5333 27.4068 18.1267V18.1333Z" fill="#222343"/>
<path d="M14.8001 26.4866C14.1534 26.2399 13.7067 25.7799 13.4467 25.0999C13.1867 24.4199 13.2201 23.7732 13.5334 23.1466L21.4334 6.81324C21.5001 6.65991 21.6201 6.54657 21.7867 6.47991C21.9534 6.41324 22.1267 6.39991 22.3067 6.44657C22.4867 6.49324 22.6267 6.59324 22.7401 6.74657C22.8534 6.89991 22.8867 7.06657 22.8401 7.24657L18.2401 25.0799C18.0601 25.7266 17.6201 26.1932 16.9201 26.4799C16.2201 26.7666 15.5134 26.7666 14.8001 26.4799V26.4866Z" fill="#222343"/>
</svg>
