<svg width="32" height="32" viewBox="0 0 32 32" fill="none" xmlns="http://www.w3.org/2000/svg">
<g opacity="0.85">
<path d="M26.6666 24.3334C26.6666 24.6201 26.5733 24.8601 26.3866 25.0467C26.1933 25.2401 25.9533 25.3334 25.6666 25.3334H25.4133L9.09325 9.01341C9.25992 8.72675 9.44659 8.45341 9.64658 8.18008C10.7466 6.70675 12.1999 5.77341 13.9999 5.40008V4.66675C13.9999 4.10675 14.1933 3.64008 14.5799 3.24675C14.9733 2.86008 15.4466 2.66675 15.9999 2.66675C16.5533 2.66675 17.0266 2.86008 17.4199 3.24675C17.8066 3.64008 17.9999 4.10675 17.9999 4.66675V5.40008C19.7999 5.77341 21.2533 6.70675 22.3533 8.18008C23.4533 9.66008 23.9999 11.3334 23.9999 13.2001V23.3334H25.6666C25.9533 23.3334 26.1933 23.4267 26.3866 23.6134C26.5733 23.8067 26.6666 24.0401 26.6666 24.3334Z" fill="currentColor"/>
<path d="M7.99992 13.2001V23.3334H6.33325C6.04659 23.3334 5.80659 23.4267 5.61325 23.6134C5.42659 23.8067 5.33325 24.0401 5.33325 24.3334C5.33325 24.6267 5.42659 24.8601 5.61325 25.0467C5.80659 25.2401 6.04659 25.3334 6.33325 25.3334H21.1599L8.05992 12.2334C8.01992 12.5467 7.99992 12.8734 7.99992 13.2001Z" fill="currentColor"/>
</g>
<path d="M13.3334 25.3334V26.6667C13.3334 27.4 13.5934 28.0267 14.1134 28.5467C14.6334 29.0667 15.2601 29.3334 16.0001 29.3334C16.7401 29.3334 17.3601 29.0734 17.8801 28.5467C18.4001 28.0267 18.6667 27.4 18.6667 26.6667V25.3334H13.3334Z" fill="currentColor"/>
<path d="M22.5867 25.3334H21.1601L8.06006 12.2334C8.10006 11.82 8.16673 11.4134 8.27339 11.02L22.5867 25.3334Z" fill="currentColor"/>
<path opacity="0.52" d="M27.3733 28.7068C27.18 28.9001 26.92 29.0001 26.6666 29.0001C26.4133 29.0001 26.1533 28.9001 25.96 28.7068L22.5866 25.3335L8.27329 11.0201L3.29329 6.04012C2.89996 5.64679 2.89996 5.01345 3.29329 4.62679C3.68662 4.23345 4.31329 4.23345 4.70662 4.62679L27.3733 27.2935C27.7666 27.6801 27.7666 28.3135 27.3733 28.7068Z" fill="currentColor"/>
</svg>
