<svg width="32" height="32" viewBox="0 0 32 32" fill="none" xmlns="http://www.w3.org/2000/svg">
<path opacity="0.85" d="M6.33333 25.3332C6.04666 25.3332 5.80666 25.2399 5.61333 25.0466C5.41999 24.8532 5.32666 24.6199 5.32666 24.3266C5.32666 24.0332 5.41999 23.7999 5.61333 23.6066C5.79999 23.4199 6.03999 23.3199 6.33333 23.3199H7.99999V13.1866C7.99999 11.3199 8.55333 9.64656 9.65333 8.16656C10.7533 6.68656 12.2067 5.75989 14.0067 5.37989V4.64656C14.0067 4.09323 14.2 3.61989 14.5933 3.22656C14.9867 2.83323 15.4533 2.63989 16.0133 2.63989C16.5733 2.63989 17.04 2.83323 17.4333 3.22656C17.82 3.61323 18.02 4.08656 18.02 4.64656V5.37989C19.82 5.75989 21.2733 6.68656 22.3733 8.16656C23.4733 9.64656 24.0267 11.3199 24.0267 13.1866V23.3199H25.6933C25.98 23.3199 26.22 23.4132 26.4133 23.6066C26.6 23.7932 26.7 24.0332 26.7 24.3266C26.7 24.6199 26.6067 24.8532 26.4133 25.0466C26.22 25.2399 25.9867 25.3332 25.6933 25.3332H6.33333Z" fill="currentColor"/>
<path d="M13.3333 25.3334V26.6667C13.3333 27.4001 13.5933 28.0267 14.1133 28.5467C14.6333 29.0667 15.2599 29.3334 15.9999 29.3334C16.7399 29.3334 17.3599 29.0734 17.8799 28.5467C18.3999 28.0267 18.6666 27.4001 18.6666 26.6667V25.3334H13.3333Z" fill="currentColor"/>
<path d="M27.9999 10.6334C28.1333 10.1867 28.1999 9.72675 28.1999 9.25342C28.1999 8.78008 28.1333 8.31342 27.9999 7.86675L28.4999 7.46675C28.7199 7.28675 28.8533 7.06675 28.8999 6.80008C28.9466 6.53341 28.8866 6.28008 28.7333 6.03341L28.5999 5.83341C28.4466 5.58675 28.2399 5.43341 27.9866 5.36675C27.7333 5.30008 27.4799 5.32008 27.2399 5.43341L26.7066 5.70008C26.3266 5.38675 25.9333 5.11342 25.5266 4.86675C25.1133 4.62008 24.6733 4.43341 24.2066 4.30008L24.1066 3.53341C24.0599 3.28675 23.9533 3.08675 23.7733 2.92008C23.5933 2.75341 23.3866 2.66675 23.1399 2.66675H22.9066C22.6599 2.66675 22.4466 2.75341 22.2533 2.93341C22.0666 3.11341 21.9466 3.32008 21.9066 3.56675L21.8399 4.30008C21.3733 4.43341 20.9333 4.62008 20.5266 4.86675C20.1133 5.11342 19.7199 5.38675 19.3399 5.70008L18.8066 5.43341C18.5599 5.32008 18.3133 5.30008 18.0599 5.36675C17.8066 5.43341 17.5999 5.58675 17.4466 5.83341L17.3133 6.03341C17.1599 6.28008 17.0999 6.53341 17.1466 6.80008C17.1933 7.06675 17.3266 7.28675 17.5466 7.46675L18.0466 7.86675C17.9133 8.31342 17.8466 8.77342 17.8466 9.25342C17.8466 9.73342 17.9133 10.1934 18.0466 10.6334L17.5466 11.0334C17.3266 11.2134 17.1933 11.4267 17.1466 11.6801C17.0999 11.9334 17.1599 12.1867 17.3133 12.4267L17.4466 12.6267C17.5999 12.8467 17.7999 13.0001 18.0466 13.0801C18.2933 13.1601 18.5333 13.1401 18.7799 13.0267L19.3466 12.7601C19.6999 13.0934 20.0933 13.3801 20.5133 13.6267C20.9333 13.8734 21.3799 14.0601 21.8466 14.1934L21.9133 14.8934C21.9599 15.1401 22.0733 15.3467 22.2599 15.5267C22.4466 15.7067 22.6666 15.7934 22.9133 15.7934H23.1466C23.3933 15.7934 23.5999 15.7134 23.7799 15.5401C23.9599 15.3667 24.0666 15.1667 24.1133 14.9201L24.2133 14.1867C24.6799 14.0534 25.1266 13.8667 25.5466 13.6201C25.9666 13.3734 26.3599 13.0867 26.7133 12.7534L27.2799 13.0201C27.5266 13.1334 27.7666 13.1534 28.0133 13.0867C28.2599 13.0201 28.4599 12.8734 28.6133 12.6534L28.7466 12.4201C28.8999 12.1734 28.9599 11.9267 28.9133 11.6734C28.8666 11.4201 28.7333 11.2001 28.5133 11.0267L28.0133 10.6267L27.9999 10.6334ZM25.3999 11.6334C24.7333 12.3001 23.9333 12.6334 22.9999 12.6334C22.0666 12.6334 21.2666 12.3001 20.5999 11.6334C19.9333 10.9667 19.5999 10.1667 19.5999 9.23342C19.5999 8.30008 19.9333 7.50008 20.5999 6.83342C21.2666 6.16675 22.0666 5.83341 22.9999 5.83341C23.9333 5.83341 24.7333 6.16675 25.3999 6.83342C26.0666 7.50008 26.3999 8.30008 26.3999 9.23342C26.3999 10.1667 26.0666 10.9667 25.3999 11.6334Z" fill="currentColor"/>
</svg>
