<svg width="32" height="32" viewBox="0 0 32 32" fill="none" xmlns="http://www.w3.org/2000/svg">
<path opacity="0.85" d="M27.4133 4.58667C27.0267 4.19333 26.5533 4 26 4H6C5.44667 4 4.97333 4.19333 4.58667 4.58667C4.19333 4.97333 4 5.44667 4 6V29.1H4.00667C4.13333 29.1 4.24667 29.0467 4.36 28.94L5.63333 27.6667C5.74667 27.56 5.86667 27.5 6 27.5C6.13333 27.5 6.25333 27.56 6.36667 27.6667L7.63333 28.9333C7.74667 29.0467 7.86667 29.1 8 29.1C8.13333 29.1 8.25333 29.0467 8.36667 28.9333L9.63333 27.6667C9.74667 27.56 9.86667 27.5 10 27.5C10.1333 27.5 10.2533 27.56 10.3667 27.6667L11.6333 28.9333C11.7467 29.0467 11.8667 29.1 12 29.1C12.1333 29.1 12.2533 29.0467 12.3667 28.9333L13.6333 27.6667C13.7467 27.56 13.8667 27.5 14 27.5C14.1333 27.5 14.2533 27.56 14.3667 27.6667L15.6333 28.9333C15.7467 29.0467 15.8667 29.1 16 29.1C16.1333 29.1 16.2533 29.0467 16.3667 28.9333L17.6333 27.6667C17.7467 27.56 17.8667 27.5 18 27.5C18.1333 27.5 18.2533 27.56 18.3667 27.6667L19.6333 28.9333C19.7467 29.0467 19.8667 29.1 20 29.1C20.0867 29.1 20.1733 29.0733 20.2533 29.0267C20.2933 29 20.3267 28.9733 20.3667 28.9333L21.6333 27.6667C21.7467 27.56 21.8667 27.5 22 27.5C22.1333 27.5 22.2533 27.56 22.3667 27.6667L23.6333 28.9333C23.7467 29.0467 23.8667 29.1 24 29.1C24.1333 29.1 24.2533 29.0467 24.3667 28.9333L25.6333 27.6667C25.7467 27.56 25.8667 27.5 26 27.5C26.1333 27.5 26.2533 27.56 26.3667 27.6667L27.64 28.94C27.7533 29.0467 27.8667 29.1 27.9933 29.1H28V6C28 5.44667 27.8067 4.97333 27.4133 4.58667ZM8.28 9.58667C8.47333 9.39333 8.71333 9.3 9 9.3H23C23.2867 9.3 23.5267 9.39333 23.72 9.58667C23.9067 9.77333 24 10.0133 24 10.3C24 10.5867 23.9067 10.8267 23.72 11.02C23.5267 11.2067 23.2867 11.3 23 11.3H9C8.71333 11.3 8.47333 11.2067 8.28 11.02C8.09333 10.8267 8 10.5933 8 10.3C8 10.0067 8.09333 9.77333 8.28 9.58667ZM16.2733 22.42C16.08 22.6067 15.8467 22.7 15.5533 22.7H9C8.71333 22.7 8.47333 22.6067 8.28 22.42C8.09333 22.2267 8 21.9933 8 21.7C8 21.4067 8.09333 21.1733 8.28 20.9867C8.47333 20.7933 8.71333 20.7 9 20.7H15.5533C15.8467 20.7 16.08 20.7933 16.2733 20.9867C16.46 21.1733 16.5533 21.4133 16.5533 21.7C16.5533 21.9867 16.46 22.2267 16.2733 22.42ZM9 17C8.71333 17 8.47333 16.9067 8.28 16.72C8.09333 16.5267 8 16.2933 8 16C8 15.7067 8.09333 15.4733 8.28 15.2867C8.47333 15.0933 8.71333 15 9 15H20.38C20.6733 15 20.9133 15.0933 21.1 15.2867C21.2867 15.4733 21.38 15.7133 21.38 16C21.38 16.2867 21.2867 16.5267 21.1 16.72C20.9133 16.9067 20.6733 17 20.38 17H9ZM27.4 23.5L24 26.8333C23.8467 26.9933 23.6667 27.0667 23.4667 27.0667C23.2667 27.0667 23.0867 26.9933 22.9333 26.8333L21.4667 25.3667C21.2667 25.1667 21.1667 24.9333 21.1667 24.6667C21.1667 24.4 21.2667 24.1667 21.4667 23.9667C21.6667 23.7667 21.9067 23.6667 22.1867 23.6667C22.4667 23.6667 22.7 23.7667 22.9 23.9667L23.4667 24.5333L25.9667 22.0667C26.1667 21.8667 26.4067 21.7667 26.6867 21.7667C26.9667 21.7667 27.2 21.8667 27.4 22.0667C27.6 22.2667 27.7 22.5067 27.7 22.7867C27.7 23.0667 27.6 23.3 27.4 23.5Z" fill="currentColor"/>
<path d="M28.8533 19.9533C28.58 19.68 28.2933 19.44 28 19.2266C26.9533 18.48 25.7666 18.1 24.4333 18.1C22.7 18.1 21.22 18.72 20 19.9533C18.78 21.1866 18.1666 22.6666 18.1666 24.4C18.1666 26.1333 18.78 27.5533 20 28.7866C20.08 28.8666 20.1666 28.9533 20.2533 29.0266C21.42 30.1 22.82 30.6333 24.4333 30.6333C26.1466 30.6333 27.6133 30.02 28.8533 28.7866C30.08 27.5533 30.7 26.0933 30.7 24.4C30.7 22.7066 30.08 21.1866 28.8533 19.9533ZM21.4666 23.9666C21.6666 23.7666 21.9066 23.6666 22.1866 23.6666C22.4666 23.6666 22.7 23.7666 22.9 23.9666L23.4666 24.5333L25.9666 22.0666C26.1666 21.8666 26.4066 21.7666 26.6866 21.7666C26.9666 21.7666 27.2 21.8666 27.4 22.0666C27.6 22.2666 27.7 22.5066 27.7 22.7866C27.7 23.0666 27.6 23.3 27.4 23.5L24 26.8333C23.8466 26.9933 23.6666 27.0666 23.4666 27.0666C23.2666 27.0666 23.0866 26.9933 22.9333 26.8333L21.4666 25.3666C21.2666 25.1666 21.1666 24.9333 21.1666 24.6666C21.1666 24.4 21.2666 24.1666 21.4666 23.9666Z" fill="currentColor"/>
<g opacity="0.2">
<path d="M15.5533 20.7H9C8.71333 20.7 8.47333 20.7934 8.28 20.98C8.08667 21.1667 8 21.4067 8 21.7C8 21.9934 8.09333 22.2267 8.28 22.4134C8.46667 22.6 8.70667 22.7 9 22.7H15.5533C15.84 22.7 16.08 22.6067 16.2733 22.4134C16.4667 22.22 16.5533 21.9867 16.5533 21.7C16.5533 21.4134 16.46 21.1734 16.2733 20.98C16.0867 20.7867 15.8467 20.7 15.5533 20.7Z" fill="currentColor"/>
<path d="M20.38 15H9C8.71333 15 8.47333 15.0934 8.28 15.2867C8.09333 15.4734 8 15.7134 8 16C8 16.2867 8.09333 16.5267 8.28 16.72C8.46667 16.9067 8.70667 17 9 17H20.38C20.6667 17 20.9067 16.9067 21.1 16.72C21.2867 16.5334 21.38 16.2934 21.38 16C21.38 15.7067 21.2867 15.4734 21.1 15.2867C20.9133 15.1 20.6733 15 20.38 15Z" fill="currentColor"/>
<path d="M23 9.30005H9C8.71333 9.30005 8.47333 9.39338 8.28 9.58005C8.08667 9.76672 8 10.0067 8 10.3C8 10.5934 8.09333 10.8267 8.28 11.0134C8.46667 11.2 8.70667 11.3 9 11.3H23C23.2867 11.3 23.5267 11.2067 23.72 11.0134C23.9133 10.82 24 10.5867 24 10.3C24 10.0134 23.9067 9.77338 23.72 9.58005C23.5333 9.38672 23.2933 9.30005 23 9.30005Z" fill="currentColor"/>
<path d="M27.7 22.7867C27.7 23.06 27.6 23.3 27.4 23.5L24 26.8334C23.8467 26.9934 23.6667 27.0667 23.4667 27.0667C23.2667 27.0667 23.0867 26.9934 22.9333 26.8334L21.4667 25.3667C21.2667 25.1667 21.1667 24.9334 21.1667 24.6667C21.1667 24.4 21.2667 24.1667 21.4667 23.9667C21.6667 23.7667 21.9067 23.6667 22.1867 23.6667C22.4667 23.6667 22.7 23.7667 22.9 23.9667L23.4667 24.5334L25.9667 22.0667C26.1667 21.8667 26.4067 21.7667 26.6867 21.7667C26.9667 21.7667 27.2 21.8667 27.4 22.0667C27.6 22.2667 27.7 22.5067 27.7 22.7867Z" fill="currentColor"/>
</g>
</svg>
