<svg width="32" height="32" viewBox="0 0 32 32" fill="none" xmlns="http://www.w3.org/2000/svg">
<path opacity="0.85" d="M27.4 4.6C27 4.2 26.5333 4 26 4H6C5.46667 4 5 4.2 4.6 4.6C4.2 5 4 5.46667 4 6V26C4 26.5333 4.2 27 4.6 27.4C5 27.8 5.46667 28 6 28H26C26.5333 28 27 27.8 27.4 27.4C27.8 27 28 26.5333 28 26V6C28 5.46667 27.8 5 27.4 4.6ZM9.52 9.58C9.70667 9.39333 9.94667 9.3 10.2333 9.3H21.7667C22.0533 9.3 22.2933 9.39333 22.48 9.58C22.6733 9.77333 22.7667 10.0133 22.7667 10.3C22.7667 10.5867 22.6733 10.8267 22.48 11.0133C22.2933 11.2067 22.0533 11.3 21.7667 11.3H10.2333C9.94667 11.3 9.70667 11.2067 9.52 11.0133C9.32667 10.8267 9.23333 10.5867 9.23333 10.3C9.23333 10.0133 9.32667 9.77333 9.52 9.58ZM9.52 15.28C9.70667 15.0933 9.94667 15 10.2333 15H21.7667C22.0533 15 22.2933 15.0933 22.48 15.28C22.6733 15.4733 22.7667 15.7067 22.7667 16C22.7667 16.2933 22.6733 16.5267 22.48 16.7133C22.2933 16.9067 22.0533 17 21.7667 17H10.2333C9.94667 17 9.70667 16.9067 9.52 16.7133C9.32667 16.5267 9.23333 16.2867 9.23333 16C9.23333 15.7133 9.32667 15.4733 9.52 15.28ZM16.0133 22.4133C15.8267 22.6067 15.5867 22.7 15.2933 22.7H10.2333C9.94667 22.7 9.70667 22.6067 9.52 22.4133C9.32667 22.2267 9.23333 21.9867 9.23333 21.7C9.23333 21.4133 9.32667 21.1733 9.52 20.98C9.70667 20.7933 9.94667 20.7 10.2333 20.7H15.2933C15.5867 20.7 15.8267 20.7933 16.0133 20.98C16.2 21.1733 16.2933 21.4067 16.2933 21.7C16.2933 21.9933 16.2 22.2267 16.0133 22.4133ZM26.7 26.7C26.5667 26.8333 26.4133 26.9 26.2333 26.9C26.0533 26.9 25.9 26.8333 25.7667 26.7L23.6333 24.5667C23.52 24.4533 23.4467 24.34 23.4 24.2333C23.3533 24.12 23.3333 24 23.3333 23.8667V20.6667C23.3333 20.4867 23.4 20.3333 23.5333 20.2C23.6667 20.0667 23.82 20 24 20C24.18 20 24.3333 20.0667 24.4667 20.2C24.6 20.3333 24.6667 20.4867 24.6667 20.6667V23.7333L26.7 25.7667C26.8333 25.9 26.9 26.0533 26.9 26.2333C26.9 26.4133 26.8333 26.5667 26.7 26.7Z" fill="#222343"/>
<path d="M28.4133 19.5799C28.2799 19.4466 28.1399 19.3199 27.9999 19.1999C26.8599 18.2199 25.5266 17.7333 23.9999 17.7333C22.2666 17.7333 20.7866 18.3466 19.5666 19.5799C18.3466 20.8133 17.7333 22.2999 17.7333 24.0333C17.7333 25.5333 18.2199 26.8599 19.1933 27.9999C19.3066 28.1399 19.4333 28.2799 19.5666 28.4133C20.7866 29.6466 22.2666 30.2666 23.9999 30.2666C25.7333 30.2666 27.1866 29.6466 28.4133 28.4133C29.6533 27.1799 30.2666 25.7199 30.2666 24.0333C30.2666 22.3466 29.6533 20.8133 28.4133 19.5799ZM23.3333 20.6666C23.3333 20.4866 23.3999 20.3333 23.5333 20.1999C23.6666 20.0666 23.8199 19.9999 23.9999 19.9999C24.1799 19.9999 24.3333 20.0666 24.4666 20.1999C24.5999 20.3333 24.6666 20.4866 24.6666 20.6666V23.7333L26.6999 25.7666C26.8333 25.8999 26.8999 26.0533 26.8999 26.2333C26.8999 26.4133 26.8333 26.5666 26.6999 26.6999C26.5666 26.8333 26.4133 26.8999 26.2333 26.8999C26.0533 26.8999 25.8999 26.8333 25.7666 26.6999L23.6333 24.5666C23.5199 24.4533 23.4466 24.3399 23.3999 24.2333C23.3533 24.1199 23.3333 23.9999 23.3333 23.8666V20.6666Z" fill="#222343"/>
<g opacity="0.2">
<path d="M15.2935 20.6999H10.2335C9.94679 20.6999 9.70679 20.7932 9.52012 20.9799C9.33346 21.1666 9.23346 21.4066 9.23346 21.6999C9.23346 21.9932 9.32679 22.2266 9.52012 22.4132C9.70679 22.5999 9.94679 22.6999 10.2335 22.6999H15.2935C15.5801 22.6999 15.8201 22.6066 16.0135 22.4132C16.2001 22.2266 16.2935 21.9866 16.2935 21.6999C16.2935 21.4132 16.2001 21.1732 16.0135 20.9799C15.8268 20.7932 15.5868 20.6999 15.2935 20.6999Z" fill="#222343"/>
<path d="M21.7667 14.9999H10.2334C9.94673 14.9999 9.70673 15.0933 9.52006 15.2866C9.3334 15.4799 9.2334 15.7133 9.2334 15.9999C9.2334 16.2866 9.32673 16.5266 9.52006 16.7199C9.7134 16.9133 9.94673 16.9999 10.2334 16.9999H21.7667C22.0534 16.9999 22.2934 16.9066 22.4801 16.7199C22.6667 16.5333 22.7667 16.2933 22.7667 15.9999C22.7667 15.7066 22.6734 15.4733 22.4801 15.2866C22.2934 15.0999 22.0534 14.9999 21.7667 14.9999Z" fill="#222343"/>
<path d="M21.7667 9.29993H10.2334C9.94673 9.29993 9.70673 9.39326 9.52006 9.57993C9.3334 9.76659 9.2334 10.0066 9.2334 10.2999C9.2334 10.5933 9.32673 10.8266 9.52006 11.0199C9.70673 11.2066 9.94673 11.2999 10.2334 11.2999H21.7667C22.0534 11.2999 22.2934 11.2066 22.4801 11.0199C22.6667 10.8333 22.7667 10.5933 22.7667 10.2999C22.7667 10.0066 22.6734 9.77326 22.4801 9.57993C22.2934 9.39326 22.0534 9.29993 21.7667 9.29993Z" fill="#222343"/>
<path d="M26.9 26.2333C26.9 26.4066 26.8333 26.5666 26.7 26.7C26.5667 26.8333 26.4133 26.9 26.2333 26.9C26.0533 26.9 25.9 26.8333 25.7667 26.7L23.6333 24.5666C23.52 24.4533 23.4467 24.34 23.4 24.2333C23.3533 24.12 23.3333 24 23.3333 23.8666V20.6666C23.3333 20.4866 23.4 20.3333 23.5333 20.2C23.6667 20.0666 23.82 20 24 20C24.18 20 24.3333 20.0666 24.4667 20.2C24.6 20.3333 24.6667 20.4866 24.6667 20.6666V23.7333L26.7 25.7666C26.8333 25.9 26.9 26.0533 26.9 26.2333Z" fill="#222343"/>
</g>
</svg>
