<svg width="32" height="32" viewBox="0 0 32 32" fill="none" xmlns="http://www.w3.org/2000/svg">
<path opacity="0.32" d="M28.3 10.7666C27.6133 9.14663 26.6666 7.73329 25.4666 6.53329C24.2666 5.33329 22.8533 4.38663 21.2333 3.69996C19.6133 3.01329 17.8666 2.66663 16 2.66663C14.1333 2.66663 12.3533 3.01329 10.7333 3.69996C9.11329 4.38663 7.69996 5.33329 6.49996 6.53329C5.29996 7.73329 4.35996 9.14663 3.68663 10.7666C3.00663 12.3866 2.66663 14.1333 2.66663 16C2.66663 17.8666 3.00663 19.6466 3.68663 21.2666C4.36663 22.8866 5.29996 24.3 6.49996 25.5C7.69996 26.7 9.11329 27.64 10.7333 28.32C12.3533 29 14.1133 29.3333 16 29.3333C17.8866 29.3333 19.6133 28.9933 21.2333 28.32C22.8533 27.64 24.2666 26.7 25.4666 25.5C26.6666 24.3 27.6133 22.8866 28.3 21.2666C28.9866 19.6466 29.3333 17.8866 29.3333 16C29.3333 14.1133 28.9866 12.3866 28.3 10.7666ZM20.02 22.4866C19.2533 23.2333 18.2 23.68 16.8666 23.8333V24.6333C16.8666 24.88 16.78 25.0933 16.6 25.2866C16.42 25.48 16.2133 25.5733 15.9666 25.5733C15.72 25.5733 15.5066 25.4866 15.3133 25.3066C15.1266 25.1266 15.0333 24.92 15.0333 24.6733V23.7733C14.1866 23.5533 13.46 23.2133 12.8533 22.76C12.24 22.3066 11.7133 21.7066 11.2666 20.9733C11.1133 20.7266 11.08 20.4933 11.1866 20.26C11.2866 20.0266 11.48 19.8533 11.7733 19.7466C11.9733 19.68 12.1666 19.6933 12.36 19.7933C12.5533 19.8933 12.7 20.0333 12.8066 20.2066C13.14 20.8533 13.6133 21.3533 14.22 21.7066C14.8333 22.06 15.5 22.24 16.2333 22.24C17.1 22.24 17.8333 21.9866 18.4333 21.4933C19.0333 20.9933 19.3333 20.3733 19.3333 19.64C19.3333 18.9066 19.08 18.3533 18.5666 17.9066C18.0533 17.46 17.0133 16.94 15.4333 16.34C13.9 15.76 12.8466 15.1533 12.28 14.5066C11.7133 13.86 11.4333 12.9933 11.4333 11.9066C11.4333 10.9066 11.76 10.0733 12.4133 9.40663C13.0666 8.73996 13.9666 8.32663 15.1 8.17329V7.37329C15.1 7.12663 15.1933 6.91996 15.38 6.73996C15.5666 6.55996 15.7866 6.47329 16.0266 6.47329C16.2666 6.47329 16.48 6.55996 16.66 6.73996C16.84 6.91996 16.9266 7.12663 16.9266 7.37329V8.17329C17.6133 8.23996 18.2333 8.42663 18.7733 8.73996C19.32 9.05329 19.78 9.47329 20.16 10.0066C20.3133 10.2066 20.3533 10.4266 20.2733 10.6733C20.1933 10.92 20.0333 11.0933 19.7933 11.2066C19.5933 11.32 19.38 11.34 19.16 11.2733C18.94 11.2066 18.7466 11.0866 18.5933 10.9066C18.28 10.5066 17.9133 10.2066 17.4933 10.0066C17.0733 9.80663 16.5933 9.70663 16.06 9.70663C15.1933 9.70663 14.5133 9.89996 14.0133 10.2933C13.5133 10.6866 13.2666 11.22 13.2666 11.9133C13.2666 12.6466 13.5266 13.24 14.0466 13.6933C14.5666 14.1466 15.5266 14.6133 16.9333 15.08C18.4866 15.5933 19.58 16.1933 20.2133 16.88C20.8466 17.5666 21.16 18.4933 21.16 19.6466C21.16 20.8 20.7733 21.7533 20.0133 22.5L20.02 22.4866Z" fill="#222343"/>
<path opacity="0.85" fill-rule="evenodd" clip-rule="evenodd" d="M16 2.67334C14.1133 2.67334 12.3533 3.02001 10.7333 3.70667C9.11329 4.39334 7.69996 5.34001 6.49996 6.54001C5.29996 7.74001 4.35996 9.15334 3.68663 10.7733C3.00663 12.3933 2.66663 14.14 2.66663 16.0067C2.66663 17.8733 3.00663 19.6533 3.68663 21.2733C4.36663 22.8933 5.29996 24.3067 6.49996 25.5067C7.69996 26.7067 9.11329 27.6467 10.7333 28.3267C12.3533 29.0067 14.1133 29.34 16 29.34C17.8866 29.34 19.6133 29 21.2333 28.3267C22.8533 27.6467 24.2666 26.7067 25.4666 25.5067C26.6666 24.3067 27.6133 22.8933 28.3 21.2733C28.9866 19.6533 29.3333 17.8933 29.3333 16.0067C29.3333 14.12 28.9866 12.3933 28.3 10.7733C27.6133 9.15334 26.6666 7.74001 25.4666 6.54001C24.2666 5.34001 22.8533 4.39334 21.2333 3.70667C19.6133 3.02001 17.8666 2.67334 16 2.67334ZM16 4.66667C17.5866 4.66667 19.0866 4.96001 20.4533 5.54001C21.8333 6.12667 23.04 6.93334 24.0533 7.94667C25.0666 8.96001 25.8733 10.1733 26.46 11.5467C27.04 12.9133 27.3333 14.4133 27.3333 16C27.3333 17.5867 27.04 19.12 26.46 20.4867C25.8733 21.8667 25.0666 23.0733 24.0533 24.0867C23.0466 25.0933 21.8333 25.9 20.46 26.4733C19.0933 27.0467 17.5866 27.3333 16 27.3333C14.4133 27.3333 12.8733 27.04 11.5066 26.4733C10.1333 25.9 8.92663 25.1 7.91329 24.0867C6.90663 23.08 6.09996 21.8667 5.52663 20.4933C4.95329 19.1267 4.66663 17.6133 4.66663 16C4.66663 14.3867 4.95996 12.9067 5.52663 11.54C6.09996 10.1667 6.89996 8.96001 7.91329 7.95334C8.92663 6.94001 10.14 6.13334 11.5133 5.54667C12.88 4.96667 14.3866 4.67334 16 4.67334" fill="#222343"/>
<path opacity="0.85" d="M16.9333 15.0666C15.5333 14.6 14.5733 14.14 14.0467 13.68C13.5267 13.2266 13.2667 12.6266 13.2667 11.9C13.2667 11.2133 13.52 10.6733 14.0133 10.28C14.5067 9.88663 15.1933 9.69329 16.06 9.69329C16.5933 9.69329 17.0733 9.79329 17.4933 9.99329C17.9133 10.1933 18.28 10.4933 18.5933 10.8933C18.7467 11.0733 18.94 11.1933 19.16 11.26C19.38 11.3266 19.5933 11.3066 19.7933 11.1933C20.04 11.08 20.2 10.9066 20.2733 10.66C20.3533 10.4133 20.3133 10.1933 20.16 9.99329C19.78 9.45996 19.32 9.03996 18.7733 8.72663C18.2267 8.41329 17.6133 8.22663 16.9267 8.15996V7.35996C16.9267 7.11329 16.84 6.90663 16.66 6.72663C16.48 6.54663 16.2733 6.45996 16.0267 6.45996C15.78 6.45996 15.5667 6.54663 15.38 6.72663C15.1933 6.90663 15.1 7.11329 15.1 7.35996V8.15996C13.9667 8.31329 13.0733 8.72663 12.4133 9.39329C11.7533 10.06 11.4333 10.8933 11.4333 11.8933C11.4333 12.98 11.7133 13.8466 12.28 14.4933C12.8467 15.14 13.8933 15.7466 15.4333 16.3266C17.0133 16.9266 18.0533 17.4466 18.5667 17.8933C19.08 18.34 19.3333 18.9133 19.3333 19.6266C19.3333 20.34 19.0333 20.98 18.4333 21.48C17.8333 21.98 17.1 22.2266 16.2333 22.2266C15.5 22.2266 14.8267 22.0466 14.22 21.6933C13.6067 21.34 13.14 20.84 12.8067 20.1933C12.6933 20.0133 12.5467 19.8733 12.36 19.78C12.1733 19.6866 11.9733 19.6666 11.7733 19.7333C11.4867 19.8466 11.2867 20.0133 11.1867 20.2466C11.0867 20.48 11.1133 20.72 11.2667 20.96C11.7133 21.6933 12.24 22.2866 12.8533 22.7466C13.4667 23.2 14.1933 23.54 15.0333 23.76V24.66C15.0333 24.9066 15.1267 25.1133 15.3133 25.2933C15.5 25.4733 15.72 25.56 15.9667 25.56C16.2133 25.56 16.42 25.4666 16.6 25.2733C16.78 25.08 16.8667 24.8666 16.8667 24.62V23.82C18.2 23.6666 19.2533 23.2133 20.02 22.4733C20.7867 21.7266 21.1667 20.78 21.1667 19.62C21.1667 18.46 20.8533 17.54 20.22 16.8533C19.5867 16.1666 18.4933 15.5666 16.94 15.0533L16.9333 15.0666Z" fill="#222343"/>
</svg>
