<svg width="32" height="32" viewBox="0 0 32 32" fill="none" xmlns="http://www.w3.org/2000/svg">
<g opacity="0.85">
<path d="M17.28 17.8468H15.72V22.2134H17.28V17.8468Z" fill="#222343"/>
<path d="M11.7799 17.8468H10.1799V19.4468H11.7799V17.8468Z" fill="#222343"/>
<path d="M21.9466 10.8001C20.8399 10.8001 19.9466 9.90675 19.9466 8.80008V3.25341C19.5733 2.88008 19.0599 2.66675 18.5333 2.66675H7.33325C6.22659 2.66675 5.33325 3.56008 5.33325 4.66675V27.3334C5.33325 28.4401 6.22659 29.3334 7.33325 29.3334H24.6666C25.7733 29.3334 26.6666 28.4401 26.6666 27.3334V10.8001H21.9466ZM13.0133 19.4467C13.0133 19.8001 12.8933 20.0934 12.6599 20.3267C12.4266 20.5667 12.1333 20.6801 11.7799 20.6801H10.1799V22.8134C10.1799 22.9867 10.1333 23.1334 10.0133 23.2601C9.89992 23.3867 9.76659 23.4467 9.58659 23.4467C9.40659 23.4467 9.26659 23.3934 9.13992 23.2801C9.01325 23.1734 8.94659 23.0201 8.94659 22.8334V17.2267C8.94659 17.0401 9.01325 16.8934 9.13992 16.7801C9.26659 16.6734 9.41325 16.6134 9.58659 16.6134H11.7799C12.1333 16.6134 12.4266 16.7334 12.6599 16.9734C12.8933 17.2067 13.0133 17.5001 13.0133 17.8467V19.4467ZM18.5133 22.2134C18.5133 22.5667 18.3933 22.8601 18.1466 23.0934C17.8999 23.3334 17.6133 23.4467 17.2799 23.4467H15.1133C14.9466 23.4467 14.7999 23.3867 14.6799 23.2667C14.5466 23.1467 14.4799 22.9867 14.4799 22.8067V17.2267C14.4799 17.0401 14.5466 16.8934 14.6799 16.7801C14.7999 16.6734 14.9466 16.6134 15.1133 16.6134H17.2799C17.6133 16.6134 17.8999 16.7334 18.1466 16.9734C18.3933 17.2067 18.5133 17.5001 18.5133 17.8467V22.2134ZM22.4466 19.4467C22.6333 19.4467 22.7666 19.5067 22.8866 19.6134C22.9933 19.7267 23.0533 19.8734 23.0533 20.0467C23.0533 20.2201 22.9933 20.3667 22.8866 20.4934C22.7666 20.6201 22.6333 20.6801 22.4466 20.6801H21.3866V22.8134C21.3866 22.9867 21.3266 23.1334 21.2199 23.2601C21.0999 23.3867 20.9666 23.4467 20.7799 23.4467C20.6133 23.4467 20.4733 23.3934 20.3466 23.2801C20.2133 23.1734 20.1466 23.0201 20.1466 22.8334V17.2267C20.1466 17.0401 20.2133 16.8934 20.3466 16.7801C20.4733 16.6734 20.6133 16.6134 20.7799 16.6134H22.4466C22.6333 16.6134 22.7666 16.6734 22.8866 16.7801C22.9933 16.8934 23.0533 17.0401 23.0533 17.2134C23.0533 17.3867 22.9933 17.5334 22.8866 17.6601C22.7666 17.7867 22.6333 17.8467 22.4466 17.8467H21.3866V19.4467H22.4466Z" fill="#222343"/>
</g>
<g opacity="0.2">
<path d="M22.8866 19.6133C22.9932 19.7266 23.0532 19.8733 23.0532 20.0466C23.0532 20.2199 22.9932 20.3666 22.8866 20.4933C22.7666 20.6199 22.6332 20.6799 22.4466 20.6799H21.3866V22.8133C21.3866 22.9866 21.3266 23.1333 21.2199 23.2599C21.0999 23.3866 20.9666 23.4466 20.7799 23.4466C20.6132 23.4466 20.4732 23.3933 20.3466 23.2799C20.2132 23.1733 20.1466 23.0199 20.1466 22.8333V17.2266C20.1466 17.0399 20.2132 16.8933 20.3466 16.7799C20.4732 16.6733 20.6132 16.6133 20.7799 16.6133H22.4466C22.6332 16.6133 22.7666 16.6733 22.8866 16.7799C22.9932 16.8933 23.0532 17.0399 23.0532 17.2133C23.0532 17.3866 22.9932 17.5333 22.8866 17.6599C22.7666 17.7866 22.6332 17.8466 22.4466 17.8466H21.3866V19.4466H22.4466C22.6332 19.4466 22.7666 19.5066 22.8866 19.6133Z" fill="#222343"/>
<path d="M18.1466 16.9733C17.8999 16.7333 17.6132 16.6133 17.2799 16.6133H15.1132C14.9466 16.6133 14.7999 16.6733 14.6799 16.7799C14.5466 16.8933 14.4799 17.0399 14.4799 17.2266V22.8066C14.4799 22.9866 14.5466 23.1466 14.6799 23.2666C14.7999 23.3866 14.9466 23.4466 15.1132 23.4466H17.2799C17.6132 23.4466 17.8999 23.3333 18.1466 23.0933C18.3932 22.8599 18.5132 22.5666 18.5132 22.2133V17.8466C18.5132 17.4999 18.3932 17.2066 18.1466 16.9733ZM17.2799 22.2133H15.7199V17.8466H17.2799V22.2133Z" fill="#222343"/>
<path d="M12.6599 16.9733C12.4265 16.7333 12.1332 16.6133 11.7799 16.6133H9.58653C9.4132 16.6133 9.26653 16.6733 9.13987 16.7799C9.0132 16.8933 8.94653 17.0399 8.94653 17.2266V22.8333C8.94653 23.0199 9.0132 23.1733 9.13987 23.2799C9.26653 23.3933 9.4132 23.4466 9.58653 23.4466C9.75987 23.4466 9.89987 23.3866 10.0132 23.2599C10.1332 23.1333 10.1799 22.9866 10.1799 22.8133V20.6799H11.7799C12.1332 20.6799 12.4265 20.5666 12.6599 20.3266C12.8932 20.0933 13.0132 19.7999 13.0132 19.4466V17.8466C13.0132 17.4999 12.8932 17.2066 12.6599 16.9733ZM11.7799 19.4466H10.1799V17.8466H11.7799V19.4466Z" fill="#222343"/>
</g>
<path d="M21.9465 9.38672C20.8399 9.38672 19.9465 8.49339 19.9465 7.38672V8.80005C19.9465 9.90672 20.8399 10.8001 21.9465 10.8001H26.6665C26.6665 10.2667 26.4532 9.76005 26.0799 9.38672H21.9465Z" fill="#222343"/>
<path opacity="0.32" d="M21.9465 9.38675H26.0799L19.9465 3.25342V7.38675C19.9465 8.49342 20.8399 9.38675 21.9465 9.38675Z" fill="#222343"/>
</svg>
