<svg width="32" height="32" viewBox="0 0 32 32" fill="none" xmlns="http://www.w3.org/2000/svg">
<g opacity="0.85">
<path d="M20.1668 16.6134L16.0334 12.4801L24.1334 4.38009C24.3801 4.13343 24.6668 4.01343 25.0001 4.01343C25.3334 4.01343 25.6201 4.13343 25.8668 4.38009L28.3001 6.81343C28.5468 7.06009 28.6668 7.33343 28.6668 7.64676C28.6668 7.96009 28.5468 8.23343 28.3001 8.48009L20.1668 16.6134Z" fill="#222343"/>
<path d="M15.8402 20.9468L14.4068 22.3801C13.7602 21.9201 13.0002 21.4401 12.1535 20.9068C11.2468 20.3468 10.3002 19.7534 9.41349 19.1068L10.8402 17.6801C11.5868 18.2068 12.4002 18.7134 13.2068 19.2134C14.1135 19.7801 15.0268 20.3468 15.8402 20.9468Z" fill="#222343"/>
<path d="M9.54675 27.24L9.40008 27.3867C9.22008 27.56 9.00675 27.7067 8.74675 27.82C8.49341 27.9267 8.23341 27.9867 7.96675 27.9867H5.66675C5.46675 27.9867 5.29341 27.94 5.14008 27.8467C5.09341 27.82 5.05341 27.7934 5.02008 27.76C4.98008 27.7267 4.94675 27.6934 4.91341 27.66C4.82008 27.5467 4.75341 27.42 4.71341 27.2867C4.68008 27.1934 4.66675 27.0934 4.66675 26.9867C4.66675 26.8534 4.69341 26.7267 4.75341 26.6C4.97341 26.0934 5.56675 25.8667 6.07341 26.0867C6.78675 26.3934 8.09341 26.8734 9.54675 27.24Z" fill="#222343"/>
</g>
<g opacity="0.52">
<path d="M14.4067 22.3799L9.54675 27.2399C8.09341 26.8733 6.78675 26.3933 6.07341 26.0866C5.56675 25.8666 4.97341 26.0933 4.75341 26.5999C4.69341 26.7266 4.66675 26.8533 4.66675 26.9866V24.6866C4.66675 24.4199 4.72008 24.1599 4.83341 23.8999C4.94675 23.6466 5.08675 23.4266 5.26675 23.2533L9.41341 19.1066C10.3001 19.7533 11.2467 20.3466 12.1534 20.9066C13.0001 21.4399 13.7601 21.9199 14.4067 22.3799Z" fill="#222343"/>
<path d="M20.1668 16.6199L15.8401 20.9466C15.0268 20.3466 14.1134 19.7799 13.2068 19.2132C12.4001 18.7132 11.5868 18.2066 10.8401 17.6799L16.0334 12.4866L20.1668 16.6199Z" fill="#222343"/>
</g>
<path d="M5.59318 14.0334C5.21318 12.0334 5.90652 9.88677 7.69985 7.46677C8.02652 7.02677 8.65318 6.93344 9.09318 7.26677C9.53985 7.59344 9.63318 8.2201 9.29985 8.6601C7.85985 10.6001 7.29318 12.2401 7.55985 13.6668C7.85985 15.2468 9.19985 16.5134 10.8399 17.6801L9.41318 19.1068C7.57318 17.7668 5.99985 16.1734 5.59318 14.0334Z" fill="#222343"/>
<path d="M18.4066 26.7001C17.9799 27.8801 17.1732 28.7268 15.9999 29.2334C15.1466 29.6001 14.1532 29.7468 13.1199 29.7468C9.53323 29.7468 5.49323 28.0134 5.27323 27.9201C5.22656 27.9001 5.17989 27.8734 5.13989 27.8468C5.29323 27.9401 5.46656 27.9868 5.66656 27.9868H7.96656C8.23323 27.9868 8.49323 27.9268 8.74656 27.8201C9.00656 27.7068 9.21989 27.5601 9.39989 27.3868L9.54656 27.2401C11.5132 27.7334 13.7666 28.0201 15.2132 27.3934C15.8599 27.1134 16.2932 26.6668 16.5266 26.0201C17.0199 24.6668 16.1399 23.6134 14.4066 22.3801L15.8399 20.9468C17.8866 22.4668 19.3066 24.2201 18.4066 26.7001Z" fill="#222343"/>
<path d="M26.7999 9.98006L27.5666 10.7467C28.1466 11.3267 28.4266 11.8867 28.4199 12.4334C28.4132 12.9801 28.1266 13.5267 27.5666 14.0867L20.6999 20.9534C20.4999 21.1534 20.2599 21.2534 19.9799 21.2534C19.6999 21.2534 19.4599 21.1534 19.2599 20.9534C19.0599 20.7534 18.9532 20.5201 18.9399 20.2534C18.9266 19.9867 19.0266 19.7534 19.2266 19.5534L26.3266 12.4534L25.3266 11.4534L26.7999 9.98006Z" fill="#222343"/>
<path d="M20.1666 16.6201L16.0333 12.4801L17.4466 11.0601L21.58 15.1934L20.1666 16.6201Z" fill="#222343"/>
</svg>
