<svg width="32" height="32" viewBox="0 0 32 32" fill="none" xmlns="http://www.w3.org/2000/svg">
<g opacity="0.2">
<path d="M26.9 26.2333C26.9 26.4066 26.8334 26.5666 26.7 26.6999C26.5667 26.8333 26.4134 26.8999 26.2334 26.8999C26.0534 26.8999 25.9 26.8333 25.7667 26.6999L23.6334 24.5666C23.52 24.4533 23.4467 24.3399 23.4 24.2333C23.3534 24.1199 23.3334 23.9999 23.3334 23.8666V20.6666C23.3334 20.4866 23.4 20.3333 23.5334 20.1999C23.6667 20.0666 23.82 19.9999 24 19.9999C24.18 19.9999 24.3334 20.0666 24.4667 20.1999C24.6 20.3333 24.6667 20.4866 24.6667 20.6666V23.7333L26.7 25.7666C26.8334 25.8999 26.9 26.0533 26.9 26.2333Z" fill="#222343"/>
<path d="M10.3334 11.3333H21.6667C21.9534 11.3333 22.1934 11.2399 22.3867 11.0466C22.5734 10.8599 22.6667 10.6199 22.6667 10.3333C22.6667 10.0466 22.5734 9.80659 22.3867 9.61325C22.2 9.41992 21.96 9.33325 21.6667 9.33325H10.3334C10.0467 9.33325 9.80671 9.42659 9.61337 9.61325C9.42004 9.79992 9.33337 10.0399 9.33337 10.3333C9.33337 10.6266 9.42671 10.8599 9.61337 11.0466C9.80004 11.2333 10.04 11.3333 10.3334 11.3333Z" fill="#222343"/>
<path d="M15.2934 20.6666H10.3334C10.0467 20.6666 9.80671 20.7599 9.61337 20.9466C9.42004 21.1333 9.33337 21.3733 9.33337 21.6666C9.33337 21.9599 9.42671 22.1933 9.61337 22.3799C9.80004 22.5666 10.04 22.6666 10.3334 22.6666H15.2934C15.58 22.6666 15.82 22.5733 16.0067 22.3799C16.1934 22.1933 16.2934 21.9533 16.2934 21.6666C16.2934 21.3799 16.2 21.1399 16.0067 20.9466C15.82 20.7599 15.58 20.6666 15.2934 20.6666Z" fill="#222343"/>
<path d="M10.3334 16.9999H21.6667C21.9534 16.9999 22.1934 16.9066 22.3867 16.7133C22.5734 16.5266 22.6667 16.2866 22.6667 15.9999C22.6667 15.7133 22.5734 15.4733 22.3867 15.2799C22.2 15.0866 21.96 14.9999 21.6667 14.9999H10.3334C10.0467 14.9999 9.80671 15.0933 9.61337 15.2799C9.42004 15.4666 9.33337 15.7066 9.33337 15.9999C9.33337 16.2933 9.42671 16.5266 9.61337 16.7133C9.80004 16.8999 10.04 16.9999 10.3334 16.9999Z" fill="#222343"/>
</g>
<path opacity="0.85" d="M27.4133 4.58659C27.0267 4.19992 26.5533 3.99992 26 3.99992H19.1667C19.0533 3.21992 18.7 2.58659 18.1 2.07992C17.5 1.57992 16.8 1.33325 16 1.33325C15.2 1.33325 14.5 1.58659 13.9 2.07992C13.3 2.57992 12.9467 3.21992 12.8333 3.99992H6C5.44667 3.99992 4.97333 4.19325 4.58667 4.58659C4.2 4.97325 4 5.44659 4 5.99992V25.9999C4 26.5533 4.19333 27.0266 4.58667 27.4133C4.97333 27.7999 5.44667 27.9999 6 27.9999H26C26.5533 27.9999 27.0267 27.8066 27.4133 27.4133C27.8 27.0266 28 26.5533 28 25.9999V5.99992C28 5.44659 27.8067 4.97325 27.4133 4.58659ZM15.18 3.45325C15.4133 3.21992 15.6867 3.10659 15.9933 3.10659C16.3 3.10659 16.58 3.21992 16.8067 3.45325C17.04 3.68659 17.16 3.95992 17.16 4.27325C17.16 4.58659 17.0467 4.85992 16.8067 5.09325C16.5733 5.32659 16.3 5.43992 15.9933 5.43992C15.6867 5.43992 15.4067 5.32659 15.18 5.09325C14.9467 4.85992 14.8267 4.58659 14.8267 4.27325C14.8267 3.95992 14.94 3.68659 15.18 3.45325ZM9.61333 9.61992C9.8 9.43325 10.04 9.33992 10.3333 9.33992H21.6667C21.9533 9.33992 22.1933 9.43325 22.3867 9.61992C22.58 9.80659 22.6667 10.0466 22.6667 10.3399C22.6667 10.6333 22.5733 10.8666 22.3867 11.0533C22.2 11.2399 21.96 11.3399 21.6667 11.3399H10.3333C10.0467 11.3399 9.80667 11.2466 9.61333 11.0533C9.42667 10.8666 9.33333 10.6266 9.33333 10.3399C9.33333 10.0533 9.42667 9.81325 9.61333 9.61992ZM16.0067 22.3866C15.82 22.5733 15.58 22.6733 15.2933 22.6733H10.3333C10.0467 22.6733 9.80667 22.5799 9.61333 22.3866C9.42667 22.1999 9.33333 21.9599 9.33333 21.6733C9.33333 21.3866 9.42667 21.1466 9.61333 20.9533C9.8 20.7599 10.04 20.6733 10.3333 20.6733H15.2933C15.58 20.6733 15.82 20.7666 16.0067 20.9533C16.1933 21.1399 16.2933 21.3799 16.2933 21.6733C16.2933 21.9666 16.2 22.1999 16.0067 22.3866ZM10.3267 17.0066C10.04 17.0066 9.8 16.9133 9.60667 16.7199C9.42 16.5333 9.32667 16.2933 9.32667 16.0066C9.32667 15.7199 9.42 15.4799 9.60667 15.2866C9.79333 15.0933 10.0333 15.0066 10.3267 15.0066H21.66C21.9467 15.0066 22.1867 15.0999 22.38 15.2866C22.5733 15.4733 22.66 15.7133 22.66 16.0066C22.66 16.2999 22.5667 16.5333 22.38 16.7199C22.1933 16.9066 21.9533 17.0066 21.66 17.0066H10.3333H10.3267ZM26.6933 26.7066C26.56 26.8399 26.4067 26.9066 26.2267 26.9066C26.0467 26.9066 25.8933 26.8399 25.76 26.7066L23.6267 24.5733C23.5133 24.4599 23.44 24.3466 23.3933 24.2399C23.3467 24.1266 23.3267 24.0066 23.3267 23.8733V20.6733C23.3267 20.4933 23.3933 20.3399 23.5267 20.2066C23.66 20.0733 23.8133 20.0066 23.9933 20.0066C24.1733 20.0066 24.3267 20.0733 24.46 20.2066C24.5933 20.3399 24.66 20.4933 24.66 20.6733V23.7399L26.6933 25.7733C26.8267 25.9066 26.8933 26.0599 26.8933 26.2399C26.8933 26.4199 26.8267 26.5733 26.6933 26.7066Z" fill="#222343"/>
<path opacity="0.32" d="M17.7334 24.0334C17.7334 22.3001 18.3467 20.8134 19.5667 19.5801C19.88 19.2668 20.2134 18.9868 20.56 18.7534C19.7067 19.0534 18.9267 19.5468 18.2334 20.2468C17.0134 21.4801 16.4 22.9668 16.4 24.7001C16.4 25.9201 16.7267 27.0201 17.36 28.0001H19.1934C18.22 26.8601 17.7334 25.5334 17.7334 24.0334Z" fill="#222343"/>
<path d="M28.4133 19.5801C28.2799 19.4467 28.1399 19.3201 27.9999 19.2001C26.8599 18.2201 25.5266 17.7334 23.9999 17.7334C22.2666 17.7334 20.7866 18.3467 19.5666 19.5801C18.3466 20.8134 17.7333 22.3001 17.7333 24.0334C17.7333 25.5334 18.2199 26.8601 19.1933 28.0001C19.3066 28.1401 19.4333 28.2801 19.5666 28.4134C20.7866 29.6467 22.2666 30.2667 23.9999 30.2667C25.7333 30.2667 27.1866 29.6467 28.4133 28.4134C29.6533 27.1801 30.2666 25.7201 30.2666 24.0334C30.2666 22.3467 29.6533 20.8134 28.4133 19.5801ZM23.3333 20.6667C23.3333 20.4867 23.3999 20.3334 23.5333 20.2001C23.6666 20.0667 23.8199 20.0001 23.9999 20.0001C24.1799 20.0001 24.3333 20.0667 24.4666 20.2001C24.5999 20.3334 24.6666 20.4867 24.6666 20.6667V23.7334L26.6999 25.7667C26.8333 25.9001 26.8999 26.0534 26.8999 26.2334C26.8999 26.4134 26.8333 26.5667 26.6999 26.7001C26.5666 26.8334 26.4133 26.9001 26.2333 26.9001C26.0533 26.9001 25.8999 26.8334 25.7666 26.7001L23.6333 24.5667C23.5199 24.4534 23.4466 24.3401 23.3999 24.2334C23.3533 24.1201 23.3333 24.0001 23.3333 23.8667V20.6667Z" fill="#222343"/>
</svg>
