<svg width="32" height="32" viewBox="0 0 32 32" fill="none" xmlns="http://www.w3.org/2000/svg">
<g opacity="0.52">
<path d="M7.33325 26.3467C6.77992 26.3467 6.30659 26.1533 5.91992 25.76C5.53325 25.3667 5.33325 24.9 5.33325 24.3467V23.2133C5.33325 22.3667 5.54659 21.6467 5.96659 21.0467C6.38659 20.4467 6.93325 19.9933 7.59992 19.68C9.08659 19.0133 10.5199 18.5133 11.8866 18.18C13.2533 17.8467 14.6266 17.68 15.9999 17.68C17.3733 17.68 18.7466 17.8533 20.0999 18.1933C21.4533 18.54 22.8799 19.0333 24.3666 19.68C25.0533 19.9933 25.6133 20.4467 26.0333 21.0467C26.4533 21.6467 26.6666 22.3667 26.6666 23.2133V24.3467C26.6666 24.9 26.4733 25.3733 26.0799 25.76C25.6866 26.1467 25.2199 26.3467 24.6666 26.3467H7.33325Z" fill="currentColor"/>
<path d="M15.9999 15.6533C14.5333 15.6533 13.3333 15.1867 12.3999 14.2533C11.4666 13.32 10.9999 12.12 10.9999 10.6533C10.9999 9.18665 11.4666 7.98665 12.3999 7.05332C13.3333 6.11999 14.5333 5.65332 15.9999 5.65332C17.4666 5.65332 18.6666 6.11999 19.5999 7.05332C20.5333 7.98665 20.9999 9.18665 20.9999 10.6533C20.9999 12.12 20.5333 13.32 19.5999 14.2533C18.6666 15.1867 17.4666 15.6533 15.9999 15.6533Z" fill="currentColor"/>
</g>
<path opacity="0.52" d="M24.5534 26.3468H23.14L14.54 17.7468C14.9867 17.7068 15.44 17.6868 15.8867 17.6802L24.5534 26.3468Z" fill="currentColor"/>
<path d="M28.5333 28.9132C28.3333 29.1066 28.08 29.1999 27.8266 29.1999C27.7133 29.1999 27.6 29.1799 27.4933 29.1399C27.3533 29.0999 27.2266 29.0199 27.12 28.9132L24.5533 26.3466L15.8866 17.6799L3.46663 5.25989C3.0733 4.86656 3.0733 4.23322 3.46663 3.84656C3.66663 3.65322 3.91996 3.55322 4.1733 3.55322C4.42663 3.55322 4.68663 3.65322 4.87996 3.84656L18.9933 17.9599L28.5333 27.4999C28.9266 27.8866 28.9266 28.5199 28.5333 28.9132Z" fill="currentColor"/>
</svg>
