<svg width="32" height="32" viewBox="0 0 32 32" fill="none" xmlns="http://www.w3.org/2000/svg">
<path opacity="0.85" d="M5.66008 15.8334C4.82008 15.8334 4.10675 15.54 3.53341 14.96C2.95341 14.38 2.66675 13.6667 2.66675 12.8267C2.66675 11.9867 2.96008 11.2734 3.54008 10.7C4.12008 10.12 4.83341 9.83335 5.67341 9.83335C6.51341 9.83335 7.22675 10.1267 7.80008 10.7067C8.37341 11.2867 8.66675 12 8.66675 12.84C8.66675 13.68 8.37341 14.3934 7.79341 14.9667C7.21341 15.5467 6.50008 15.8334 5.66008 15.8334ZM11.8267 10.1667C10.9867 10.1667 10.2734 9.87335 9.70008 9.29335C9.12675 8.71335 8.83341 8.00002 8.83341 7.16002C8.83341 6.32002 9.12675 5.60669 9.70675 5.03335C10.2867 4.46002 11.0001 4.16669 11.8401 4.16669C12.6801 4.16669 13.3934 4.46002 13.9667 5.04002C14.5467 5.62002 14.8334 6.33335 14.8334 7.17335C14.8334 8.01335 14.5401 8.72669 13.9601 9.30002C13.3801 9.87335 12.6667 10.1667 11.8267 10.1667ZM20.1601 10.1667C19.3201 10.1667 18.6067 9.87335 18.0334 9.29335C17.4601 8.71335 17.1667 8.00002 17.1667 7.16002C17.1667 6.32002 17.4601 5.60669 18.0401 5.03335C18.6201 4.46002 19.3334 4.16669 20.1734 4.16669C21.0134 4.16669 21.7267 4.46002 22.3001 5.04002C22.8801 5.62002 23.1667 6.33335 23.1667 7.17335C23.1667 8.01335 22.8734 8.72669 22.2934 9.30002C21.7134 9.88002 21.0001 10.1667 20.1601 10.1667ZM26.3267 15.8334C25.4867 15.8334 24.7734 15.54 24.2001 14.96C23.6201 14.38 23.3334 13.6667 23.3334 12.8267C23.3334 11.9867 23.6267 11.2734 24.2067 10.7C24.7867 10.12 25.5001 9.83335 26.3401 9.83335C27.1801 9.83335 27.8934 10.1267 28.4667 10.7067C29.0401 11.2867 29.3334 12 29.3334 12.84C29.3334 13.68 29.0401 14.3934 28.4601 14.9667C27.8801 15.5467 27.1667 15.8334 26.3267 15.8334Z" fill="#222343"/>
<path d="M8.86675 29.5C7.93341 29.5 7.16675 29.1467 6.56675 28.4467C5.96675 27.7467 5.66675 26.92 5.66675 25.9667C5.66675 25.0133 5.95341 24.2067 6.52008 23.48C7.08675 22.76 7.69341 22.06 8.34008 21.3933C8.82675 20.9067 9.28675 20.3867 9.70675 19.84C10.1267 19.2933 10.5267 18.7333 10.9067 18.1533C11.5534 17.1733 12.2734 16.2667 13.0734 15.42C13.8734 14.5733 14.8534 14.1533 16.0067 14.1533C17.1601 14.1533 18.1467 14.5733 18.9601 15.42C19.7734 16.2667 20.5001 17.1867 21.1467 18.1867C21.5267 18.7667 21.9201 19.32 22.3334 19.8533C22.7467 20.3867 23.1934 20.9 23.6867 21.3867C24.3334 22.0533 24.9401 22.7467 25.5067 23.4733C26.0734 24.1933 26.3601 25.0267 26.3601 25.96C26.3601 26.8933 26.0601 27.74 25.4601 28.44C24.8601 29.14 24.0934 29.4933 23.1601 29.4933C21.9601 29.4933 20.7734 29.3933 19.5934 29.1933C18.4134 28.9933 17.2267 28.8933 16.0267 28.8933C14.8267 28.8933 13.6401 28.9933 12.4601 29.1933C11.2801 29.3933 10.0934 29.4933 8.89341 29.4933L8.86675 29.5Z" fill="#222343"/>
</svg>
