<svg width="32" height="32" viewBox="0 0 32 32" fill="none" xmlns="http://www.w3.org/2000/svg">
<path opacity="0.85" d="M9.99328 19.9334C9.70661 19.9334 9.47328 19.8401 9.27995 19.6468C9.08661 19.4534 8.99328 19.2201 8.99328 18.9334V18.4334H6.32661C6.03995 18.4334 5.80661 18.3401 5.61328 18.1468C5.41995 17.9534 5.32661 17.7134 5.32661 17.4268C5.32661 17.1401 5.41995 16.9068 5.61328 16.7134C5.80661 16.5201 6.03995 16.4268 6.32661 16.4268H12.6599V12.9268H6.35995C6.09328 12.9268 5.85328 12.8268 5.63995 12.6268C5.42661 12.4268 5.31995 12.1801 5.31995 11.8934V6.42676C5.31995 6.14009 5.41995 5.90676 5.61995 5.71342C5.81995 5.52009 6.05328 5.42676 6.31995 5.42676H8.98661V4.92676C8.98661 4.64009 9.07995 4.40676 9.27328 4.21342C9.46661 4.02009 9.70661 3.92676 9.99328 3.92676C10.2799 3.92676 10.5133 4.02009 10.7066 4.21342C10.8999 4.40676 10.9933 4.64009 10.9933 4.92676V5.42676H13.6599C13.9466 5.42676 14.1799 5.52009 14.3733 5.71342C14.5666 5.90676 14.6599 6.14676 14.6599 6.43342C14.6599 6.72009 14.5666 6.95342 14.3733 7.14676C14.1799 7.34009 13.9466 7.43342 13.6599 7.43342H7.32661V10.9334H13.6266C13.9199 10.9334 14.1666 11.0268 14.3599 11.2201C14.5599 11.4068 14.6599 11.6601 14.6599 11.9734V17.4401C14.6599 17.7068 14.5666 17.9401 14.3733 18.1401C14.1799 18.3401 13.9466 18.4401 13.6599 18.4401H10.9933V18.9401C10.9933 19.2268 10.8999 19.4601 10.7066 19.6534C10.5133 19.8468 10.2733 19.9401 9.98661 19.9401L9.99328 19.9334Z" fill="#222343"/>
<path d="M18.5934 27.5334C18.46 27.5334 18.34 27.5134 18.2334 27.4668C18.1267 27.4201 18.0134 27.3468 17.9 27.2334L13.6334 22.9668C13.4334 22.7668 13.3334 22.5334 13.3334 22.2668C13.3334 22.0001 13.4334 21.7668 13.6334 21.5668C13.8334 21.3668 14.0667 21.2668 14.3334 21.2668C14.6 21.2668 14.8334 21.3668 15.0334 21.5668L18.6 25.1334L25.9 17.8334C26.1 17.6334 26.3334 17.5334 26.6 17.5334C26.8667 17.5334 27.1 17.6334 27.3 17.8334C27.5 18.0334 27.6 18.2668 27.6 18.5334C27.6 18.8001 27.5 19.0334 27.3 19.2334L19.3 27.2334C19.1867 27.3468 19.0734 27.4201 18.96 27.4668C18.8467 27.5134 18.7267 27.5334 18.5934 27.5334Z" fill="#222343"/>
</svg>
