<svg width="32" height="32" viewBox="0 0 32 32" fill="none" xmlns="http://www.w3.org/2000/svg">
<path opacity="0.85" d="M28.3201 11.4132C27.6401 10.7399 26.8001 10.3999 25.8001 10.3999H6.20008C5.20008 10.3999 4.36008 10.7399 3.68675 11.4132C3.00675 12.0932 2.66675 12.9332 2.66675 13.9332V20.1332C2.66675 20.6799 2.86008 21.1532 3.25341 21.5466C3.64675 21.9399 4.12008 22.1332 4.66675 22.1332H8.06675V25.9999C8.06675 26.5466 8.26008 27.0199 8.65341 27.4132C9.04675 27.8066 9.52008 27.9999 10.0667 27.9999H21.9334C22.4867 27.9999 22.9534 27.8066 23.3467 27.4132C23.7401 27.0199 23.9334 26.5466 23.9334 25.9999V22.1332H27.3334C27.8867 22.1332 28.3534 21.9399 28.7467 21.5466C29.1401 21.1532 29.3334 20.6799 29.3334 20.1332V13.9332C29.3334 12.9332 28.9934 12.0932 28.3201 11.4132ZM21.9334 25.9999H10.0667V19.5999H21.9334V25.9999ZM25.3334 15.2666C25.1334 15.4666 24.9001 15.5666 24.6334 15.5666C24.3667 15.5666 24.1334 15.4666 23.9334 15.2666C23.7334 15.0666 23.6334 14.8332 23.6334 14.5666C23.6334 14.2999 23.7334 14.0666 23.9334 13.8666C24.1334 13.6666 24.3667 13.5666 24.6334 13.5666C24.9001 13.5666 25.1334 13.6666 25.3334 13.8666C25.5334 14.0666 25.6334 14.2999 25.6334 14.5666C25.6334 14.8332 25.5334 15.0666 25.3334 15.2666Z" fill="currentColor"/>
<path opacity="0.52" d="M23.9333 10.4H8.06665V6C8.06665 5.44667 8.25998 4.98 8.65332 4.58667C9.04665 4.19333 9.51332 4 10.0667 4H21.9333C22.4867 4 22.9533 4.19333 23.3467 4.58667C23.74 4.98 23.9333 5.44667 23.9333 6V10.4Z" fill="currentColor"/>
<g opacity="0.2">
<path d="M25.6333 14.5667C25.6333 14.8333 25.5333 15.0666 25.3333 15.2666C25.1333 15.4667 24.9 15.5667 24.6333 15.5667C24.3667 15.5667 24.1333 15.4667 23.9333 15.2666C23.7333 15.0666 23.6333 14.8333 23.6333 14.5667C23.6333 14.3 23.7333 14.0666 23.9333 13.8666C24.1333 13.6666 24.3667 13.5667 24.6333 13.5667C24.9 13.5667 25.1333 13.6666 25.3333 13.8666C25.5333 14.0666 25.6333 14.3 25.6333 14.5667Z" fill="currentColor"/>
<path d="M21.9333 19.6H10.0667V26H21.9333V19.6Z" fill="currentColor"/>
</g>
</svg>
