<svg width="32" height="32" viewBox="0 0 32 32" fill="none" xmlns="http://www.w3.org/2000/svg">
<path opacity="0.52" d="M20.2334 3.36675C18.9001 2.92008 17.4801 2.66675 16.0001 2.66675C10.1201 2.66675 5.13341 6.48008 3.36675 11.7667C2.92008 13.1001 2.66675 14.5201 2.66675 16.0001C2.66675 22.8801 7.88008 28.5401 14.5667 29.2534C15.0401 29.3067 15.5134 29.3334 16.0001 29.3334C19.1601 29.3334 22.0601 28.2267 24.3467 26.3867C27.3867 23.9401 29.3334 20.2001 29.3334 16.0001C29.3334 10.1201 25.5201 5.13341 20.2334 3.36675Z" fill="currentColor"/>
<path d="M21.68 21.6667H20.2334V17.4334C20.2334 17.0534 20.1134 16.7201 19.8667 16.4334C19.62 16.1467 19.3134 16.0001 18.9334 16.0001H10.3334V13.0667H13.1C13.48 13.0667 13.82 12.9467 14.12 12.7001C14.42 12.4534 14.5667 12.1467 14.5667 11.7667V8.86675H17.4667C18.2467 8.86675 18.9 8.58008 19.4334 8.00008C19.9667 7.42008 20.2334 6.74675 20.2334 5.96675V3.36675C18.9 2.92008 17.48 2.66675 16 2.66675C10.12 2.66675 5.13337 6.48008 3.3667 11.7667L11.8 20.2001V21.6667C11.8 22.4467 12.0667 23.1201 12.6 23.7001C13.1334 24.2801 13.7867 24.5667 14.5667 24.5667V29.2534C15.04 29.3067 15.5134 29.3334 16 29.3334C19.16 29.3334 22.06 28.2267 24.3467 26.3867V24.3334C24.3467 22.8601 23.1534 21.6667 21.68 21.6667Z" fill="currentColor"/>
</svg>
