<svg width="32" height="32" viewBox="0 0 32 32" fill="none" xmlns="http://www.w3.org/2000/svg">
<g opacity="0.52">
<path d="M23.8934 26.7267C23.8401 26.7734 23.7801 26.8134 23.7201 26.8534C23.5068 27.0001 23.2934 27.1467 23.0734 27.2867C21.0267 28.5867 18.6001 29.3334 16.0001 29.3334C15.5134 29.3334 15.0401 29.3067 14.5667 29.2534C7.88008 28.5401 2.66675 22.8801 2.66675 16.0001C2.66675 14.5201 2.92008 13.1001 3.36675 11.7667C3.70675 10.7601 4.15341 9.80675 4.70675 8.92675C4.88008 8.64675 5.06675 8.37341 5.26008 8.11341H5.26675L23.8934 26.7267Z" fill="currentColor"/>
<path d="M29.3334 16.0001C29.3334 19.6801 27.8401 23.0134 25.4201 25.4267L24.3467 24.3534L21.6534 21.6667L6.56675 6.58675C8.97342 4.16675 12.3134 2.66675 16.0001 2.66675C17.4801 2.66675 18.9001 2.92008 20.2334 3.36675C25.5201 5.13341 29.3334 10.1201 29.3334 16.0001Z" fill="currentColor"/>
</g>
<g opacity="0.85">
<path d="M13.0534 13.0667L6.5667 6.58675C8.97337 4.16675 12.3134 2.66675 16 2.66675C17.48 2.66675 18.9 2.92008 20.2334 3.36675V5.96675C20.2334 6.74675 19.9667 7.42008 19.4334 8.00008C18.9 8.58008 18.2467 8.86675 17.4667 8.86675H14.5667V11.7667C14.5667 12.1467 14.42 12.4534 14.12 12.7001C13.82 12.9467 13.48 13.0667 13.1 13.0667H13.0534Z" fill="currentColor"/>
<path d="M18.9334 16.0001C19.3134 16.0001 19.62 16.1467 19.8667 16.4334C20.1134 16.7201 20.2334 17.0534 20.2334 17.4334V20.2467L15.9867 16.0001H18.9334Z" fill="currentColor"/>
<path d="M23.8934 26.7267C23.84 26.7734 23.78 26.8134 23.72 26.8534C23.5067 27.0001 23.2934 27.1467 23.0734 27.2867C21.0267 28.5867 18.6 29.3334 16 29.3334C15.5134 29.3334 15.04 29.3067 14.5667 29.2534V24.5667C13.7867 24.5667 13.1334 24.2801 12.6 23.7001C12.0667 23.1201 11.8 22.4467 11.8 21.6667V20.2001L3.3667 11.7667C3.7067 10.7601 4.15337 9.80675 4.7067 8.92675C4.88003 8.64675 5.0667 8.37341 5.26003 8.11341H5.2667L23.8934 26.7267Z" fill="currentColor"/>
<path d="M24.3467 24.3334V24.3534L21.6534 21.6667H21.68C23.1534 21.6667 24.3467 22.8601 24.3467 24.3334Z" fill="currentColor"/>
</g>
<path d="M23.8935 26.7266C23.8401 26.7733 23.7801 26.8133 23.7201 26.8533C23.5068 26.9999 23.2935 27.1466 23.0735 27.2866L4.70679 8.92661C4.88012 8.64661 5.06679 8.37328 5.26012 8.11328H5.26679L10.2268 13.0666L13.1601 15.9999L23.8935 26.7266Z" fill="currentColor"/>
<path opacity="0.32" d="M28.4801 28.4866L25.4201 25.4266L24.3468 24.3532L21.6535 21.6666L13.0535 13.0666L6.5668 6.58658L2.97347 2.99324C2.58014 2.59991 1.95347 2.59991 1.56014 2.99324C1.1668 3.38658 1.1668 4.01324 1.56014 4.40658L5.2668 8.10658L10.2268 13.0666L13.1601 15.9999L23.8935 26.7266L27.0668 29.8999C27.2601 30.0932 27.5201 30.1932 27.7735 30.1932C28.0268 30.1932 28.2868 30.0932 28.4801 29.8999C28.8735 29.5066 28.8735 28.8732 28.4801 28.4866Z" fill="currentColor"/>
</svg>
