<svg width="32" height="32" viewBox="0 0 32 32" fill="none" xmlns="http://www.w3.org/2000/svg">
<path opacity="0.32" d="M21.5667 25.2335C23.5917 25.2335 25.2334 23.5919 25.2334 21.5668C25.2334 19.5418 23.5917 17.9001 21.5667 17.9001C19.5416 17.9001 17.9 19.5418 17.9 21.5668C17.9 23.5919 19.5416 25.2335 21.5667 25.2335Z" fill="#222343"/>
<g opacity="0.85">
<path d="M2.69342 23.2468C2.51342 23.2468 2.32676 23.2001 2.16676 23.0934C1.70009 22.8001 1.55342 22.1868 1.84676 21.7134L6.88009 13.6668C7.04676 13.4001 7.33342 13.2268 7.65342 13.2001C7.97342 13.1668 8.28009 13.3001 8.48676 13.5401L11.6134 17.1534L16.0801 9.87342C16.2601 9.58009 16.5734 9.40009 16.9134 9.40009C17.2601 9.42675 17.5734 9.56009 17.7668 9.84675L21.2268 15.0201L28.4468 3.54675C28.7401 3.08009 29.3601 2.94009 29.8268 3.23342C30.2934 3.52675 30.4334 4.14675 30.1401 4.61342L22.1001 17.3934C21.9201 17.6801 21.6068 17.8534 21.2668 17.8601C20.9134 17.8401 20.6068 17.7001 20.4201 17.4134L16.9734 12.2534L12.6068 19.3668C12.4401 19.6401 12.1534 19.8134 11.8334 19.8401C11.5134 19.8601 11.2068 19.7401 10.9934 19.5001L7.86009 15.8734L3.54676 22.7668C3.36009 23.0734 3.03342 23.2334 2.70009 23.2334L2.69342 23.2468Z" fill="#222343"/>
<path d="M21.5668 17.9001C20.1468 17.9001 18.9201 18.7068 18.3134 19.8868L19.8934 22.2468C20.2668 22.8001 20.8868 23.1334 21.5534 23.1334H21.5801C22.2601 23.1268 22.8868 22.7734 23.2468 22.2001L24.7668 19.7801C24.1401 18.6601 22.9401 17.9001 21.5668 17.9001Z" fill="#222343"/>
</g>
<path fill-rule="evenodd" clip-rule="evenodd" d="M28.5334 29.9334L24.7667 26.2001C24.3 26.5334 23.7934 26.7867 23.2467 26.9667C22.7 27.1467 22.14 27.2334 21.56 27.2334C19.98 27.2334 18.6467 26.6801 17.5467 25.5867C16.4467 24.4867 15.9 23.1467 15.9 21.5667C15.9 19.9867 16.4534 18.6467 17.5534 17.5534C18.6534 16.4534 19.9934 15.9067 21.5667 15.9067C23.14 15.9067 24.4867 16.4601 25.5867 17.5601C26.6867 18.6601 27.2334 20.0001 27.2334 21.5734C27.2334 22.1534 27.14 22.7134 26.9534 23.2601C26.7667 23.8067 26.5134 24.3201 26.2067 24.8134L29.94 28.5467C30.14 28.7467 30.2467 28.9801 30.2534 29.2467C30.2667 29.5134 30.1734 29.7467 29.9734 29.9467C29.7734 30.1467 29.5334 30.2467 29.2534 30.2467C28.9734 30.2467 28.7334 30.1467 28.54 29.9467L28.5334 29.9334ZM21.5667 25.2334C22.5867 25.2334 23.4534 24.8801 24.1667 24.1667C24.88 23.4534 25.2334 22.5867 25.2334 21.5667C25.2334 20.5467 24.88 19.6801 24.1667 18.9667C23.4534 18.2534 22.5867 17.9001 21.5667 17.9001C20.5467 17.9001 19.68 18.2534 18.9667 18.9667C18.2534 19.6801 17.9 20.5467 17.9 21.5667C17.9 22.5867 18.2534 23.4534 18.9667 24.1667C19.68 24.8801 20.5467 25.2334 21.5667 25.2334Z" fill="#222343"/>
</svg>
