<svg width="32" height="32" viewBox="0 0 32 32" fill="none" xmlns="http://www.w3.org/2000/svg">
<path opacity="0.85" d="M23.8333 24.0534H10.5333C10.2 24.0534 9.88663 23.9001 9.59996 23.5867C9.31329 23.2734 9.16663 22.9667 9.16663 22.6534V10.7867C9.16663 10.4534 9.31329 10.1401 9.59996 9.84005C9.88663 9.54005 10.2 9.38672 10.5333 9.38672H27.8333C28.1466 9.38672 28.4466 9.54005 28.7333 9.85339C29.02 10.1667 29.1666 10.4734 29.1666 10.7867V26.9734C29.1666 27.8667 28.0866 28.3134 27.46 27.6801L23.8333 24.0534Z" fill="#222343"/>
<path opacity="0.52" d="M4.37329 22.3134C3.74663 22.94 2.66663 22.5 2.66663 21.6067V5.42002C2.66663 5.10669 2.81329 4.80002 3.09996 4.48669C3.38663 4.17335 3.68663 4.02002 3.99996 4.02002H21.3C21.6333 4.02002 21.9466 4.16669 22.2333 4.47335C22.52 4.77335 22.6666 5.08669 22.6666 5.42002V17.2867C22.6666 17.6 22.52 17.9067 22.2333 18.22C21.9466 18.5334 21.6333 18.6867 21.3 18.6867H7.99996L4.37329 22.3134Z" fill="#222343"/>
</svg>
