<svg width="32" height="32" viewBox="0 0 32 32" fill="none" xmlns="http://www.w3.org/2000/svg">
<path opacity="0.85" d="M17.3333 28.1333C16 28.1333 14.6866 27.9133 13.4 27.4667C12.1133 27.02 10.9533 26.4133 9.93331 25.6333C9.68664 25.4533 9.55331 25.2133 9.53331 24.9133C9.51331 24.6133 9.61998 24.34 9.86664 24.0933C10.0466 23.9133 10.2666 23.82 10.5333 23.8067C10.8 23.7933 11.0466 23.88 11.2666 24.06C12.1133 24.7067 13.0533 25.2133 14.1 25.58C15.1466 25.9467 16.22 26.1333 17.3333 26.1333C20.1133 26.1333 22.4933 25.14 24.4866 23.1467C26.48 21.1533 27.4733 18.7733 27.4733 15.9933C27.4733 13.2133 26.48 10.8333 24.4866 8.84001C22.5 6.85335 20.1133 5.85335 17.3333 5.85335C14.5533 5.85335 12.1733 6.84668 10.18 8.84001C8.19331 10.8267 7.19331 13.2133 7.19331 15.9933V16.5933L8.82664 14.96C9.02664 14.76 9.25998 14.66 9.52664 14.66C9.79331 14.66 10.0266 14.76 10.2266 14.96C10.4066 15.16 10.5 15.3933 10.5133 15.66C10.5266 15.9267 10.4266 16.16 10.2266 16.36L6.89331 19.6933C6.77998 19.8067 6.67331 19.88 6.55998 19.9133C6.44664 19.9467 6.32664 19.9667 6.19331 19.9667C6.05998 19.9667 5.93998 19.9467 5.82664 19.9133C5.71331 19.88 5.60664 19.8067 5.49331 19.6933L2.15998 16.36C1.97998 16.18 1.89331 15.9533 1.89331 15.6733C1.89331 15.3933 1.97998 15.1533 2.15998 14.9533C2.35998 14.7533 2.59331 14.6533 2.85998 14.6533C3.12664 14.6533 3.35998 14.7533 3.55998 14.9533L5.19331 16.5867V15.9867C5.19331 14.3 5.51331 12.72 6.14664 11.2533C6.77998 9.78668 7.64664 8.50001 8.74664 7.40001C9.84664 6.30001 11.1333 5.43335 12.6 4.80001C14.0666 4.16668 15.6466 3.84668 17.3333 3.84668C19.02 3.84668 20.6 4.16668 22.0666 4.80001C23.5333 5.43335 24.82 6.30001 25.92 7.40001C27.02 8.50001 27.8866 9.78668 28.52 11.2533C29.1533 12.72 29.4733 14.3 29.4733 15.9867C29.4733 19.3667 28.2933 22.2333 25.94 24.5867C23.5866 26.94 20.72 28.12 17.34 28.12L17.3333 28.1333Z" fill="#222343"/>
<path d="M17.3334 23.5001C17.0467 23.5001 16.8134 23.4067 16.62 23.2134C16.4267 23.0201 16.3334 22.7867 16.3334 22.5001V22.0001H13.6667C13.38 22.0001 13.1467 21.9067 12.9534 21.7134C12.76 21.5201 12.6667 21.2801 12.6667 20.9934C12.6667 20.7067 12.76 20.4734 12.9534 20.2801C13.1467 20.0867 13.38 19.9934 13.6667 19.9934H20V16.9934H13.7C13.4334 16.9934 13.1934 16.8934 12.98 16.6934C12.7667 16.4934 12.66 16.2467 12.66 15.9601V10.9934C12.66 10.7067 12.76 10.4734 12.96 10.2801C13.16 10.0867 13.3934 9.99341 13.66 9.99341H16.3267V9.49341C16.3267 9.20674 16.42 8.97341 16.6134 8.78008C16.8067 8.58674 17.0467 8.49341 17.3334 8.49341C17.62 8.49341 17.8534 8.58674 18.0467 8.78008C18.24 8.97341 18.3334 9.20674 18.3334 9.49341V9.99341H21C21.2867 9.99341 21.52 10.0867 21.7134 10.2801C21.9067 10.4734 22 10.7134 22 11.0001C22 11.2867 21.9067 11.5201 21.7134 11.7134C21.52 11.9067 21.2867 12.0001 21 12.0001H14.6667V15.0001H20.9667C21.26 15.0001 21.5067 15.0934 21.7 15.2867C21.9 15.4734 22 15.7267 22 16.0401V21.0067C22 21.2734 21.9067 21.5067 21.7134 21.7067C21.52 21.9067 21.2867 22.0067 21 22.0067H18.3334V22.5067C18.3334 22.7934 18.24 23.0267 18.0467 23.2201C17.8534 23.4134 17.6134 23.5067 17.3267 23.5067L17.3334 23.5001Z" fill="#222343"/>
</svg>
