<svg width="32" height="32" viewBox="0 0 32 32" fill="none" xmlns="http://www.w3.org/2000/svg">
<path d="M29.2333 4.33339C29.2133 4.20006 29.1733 4.07339 29.1199 3.95339C29.0599 3.83339 28.9799 3.71339 28.8666 3.60006C28.7533 3.49339 28.6333 3.40673 28.4999 3.35339C28.3666 3.30006 28.2333 3.26006 28.0999 3.23339C25.9866 3.08006 23.7866 3.48673 21.4999 4.45339C19.2266 5.41339 17.1866 6.78673 15.3933 8.57339C15.3866 8.57339 15.3733 8.59339 15.3666 8.60006C14.1866 9.78006 13.1866 11.0001 12.3533 12.2534C11.5199 13.5067 10.8333 14.8334 10.2999 16.2334C10.1866 16.4801 10.1533 16.7201 10.1866 16.9534C10.1933 17.0201 10.2133 17.0867 10.2266 17.1467C10.2733 17.2867 10.3399 17.4067 10.4333 17.5001L14.9333 22.0001C15.0399 22.1067 15.1799 22.1801 15.3466 22.2267C15.3933 22.2401 15.4399 22.2467 15.4866 22.2534C15.7199 22.2867 15.9533 22.2467 16.1999 22.1334C17.5999 21.6267 18.9199 20.9534 20.1666 20.1201C21.4133 19.2867 22.6333 18.2667 23.8333 17.0667C23.8599 17.0401 23.8866 17.0134 23.9066 16.9867C25.6733 15.2067 27.0333 13.1934 27.9999 10.9334C28.9799 8.64673 29.3866 6.44673 29.2333 4.33339ZM22.8333 12.9001C22.3866 13.3467 21.8399 13.5667 21.1866 13.5667C20.5333 13.5667 19.9799 13.3467 19.5333 12.9001C19.0866 12.4534 18.8666 11.9067 18.8666 11.2467C18.8666 10.5867 19.0866 10.0401 19.5333 9.59339C19.9799 9.14673 20.5266 8.92673 21.1866 8.92673C21.8466 8.92673 22.3933 9.14673 22.8333 9.59339C23.2799 10.0401 23.4999 10.5867 23.4999 11.2467C23.4999 11.9067 23.2799 12.4534 22.8333 12.9001Z" fill="#222343"/>
<path opacity="0.32" d="M21.1867 8.93335C20.5334 8.93335 19.98 9.15335 19.5334 9.60002C19.0867 10.0467 18.8667 10.5933 18.8667 11.2533C18.8667 11.9133 19.0867 12.46 19.5334 12.9067C19.98 13.3534 20.5267 13.5734 21.1867 13.5734C21.8467 13.5734 22.3934 13.3534 22.8334 12.9067C23.2734 12.46 23.5 11.9133 23.5 11.2533C23.5 10.5933 23.28 10.0467 22.8334 9.60002C22.3867 9.15335 21.84 8.93335 21.1867 8.93335Z" fill="#222343"/>
<g opacity="0.52">
<path d="M15.3934 8.5734C15.3934 8.5734 15.3734 8.5934 15.3667 8.60006C14.1867 9.78006 13.1867 11.0001 12.3534 12.2534C11.5201 13.5067 10.8334 14.8334 10.3001 16.2334C10.1867 16.4801 10.1534 16.7201 10.1867 16.9534C10.1934 17.0201 10.2134 17.0867 10.2267 17.1467L4.60006 14.6667C4.28672 14.5334 4.10006 14.3001 4.03339 13.9534C3.96672 13.6067 4.05339 13.3134 4.30006 13.0667L8.83339 8.50006C9.14672 8.1934 9.52006 7.96673 9.95339 7.8334C10.3867 7.70006 10.8201 7.68006 11.2667 7.76673L15.3934 8.5734Z" fill="#222343"/>
<path d="M24.6 22.4866C24.4667 22.9199 24.2467 23.2932 23.9333 23.5999L19.4 28.1332C19.1533 28.3799 18.8533 28.4666 18.5 28.3999C18.1467 28.3332 17.9 28.1466 17.7667 27.8332L15.3467 22.2266C15.3933 22.2399 15.44 22.2466 15.4867 22.2532C15.72 22.2866 15.9533 22.2466 16.2 22.1332C17.6 21.6266 18.92 20.9532 20.1667 20.1199C21.4133 19.2866 22.6333 18.2666 23.8333 17.0666C23.86 17.0399 23.8867 17.0132 23.9067 16.9866L24.6667 21.1666C24.7533 21.6132 24.7333 22.0532 24.6 22.4866Z" fill="#222343"/>
</g>
<path opacity="0.85" d="M5.3999 21.3934C6.1799 20.6201 7.12657 20.2267 8.2399 20.2201C9.35324 20.2067 10.2999 20.5934 11.0732 21.3734C11.8466 22.1534 12.2332 23.0934 12.2332 24.2067C12.2332 25.3201 11.8466 26.2601 11.0666 27.0401C10.4866 27.6201 9.59324 28.0934 8.37324 28.4734C7.15324 28.8534 5.33324 29.2067 2.8999 29.5401C3.23324 27.1201 3.58657 25.3001 3.9599 24.0867C4.33324 22.8734 4.81324 21.9801 5.3999 21.4001V21.3934Z" fill="#222343"/>
</svg>
