<svg width="32" height="32" viewBox="0 0 32 32" fill="none" xmlns="http://www.w3.org/2000/svg">
<path opacity="0.85" fill-rule="evenodd" clip-rule="evenodd" d="M11.68 2.6665H20.3067C21.34 2.6665 21.98 3.79984 21.4467 4.6865L18.66 9.33317H18.6562L18.6733 9.33325L21.2467 11.4799C24.7533 14.3999 27.16 18.4399 28.06 22.9199V22.9533H28.0667C28.7267 26.2533 26.2067 29.3333 22.84 29.3333H9.18668C5.82001 29.3333 3.29334 26.2533 3.96001 22.9533V22.9199C4.85334 18.4399 7.26001 14.4066 10.7667 11.4799L13.3398 9.33339L13.3267 9.33317L10.54 4.6865C10.0067 3.79984 10.6467 2.6665 11.68 2.6665ZM19 16.6666H14V18.9999H19C19.2867 18.9999 19.5267 19.0933 19.72 19.2866C19.9133 19.4799 20 19.7133 20 19.9999V24.3333C20 24.6199 19.9067 24.8599 19.72 25.0533C19.5333 25.2466 19.2933 25.3333 19 25.3333H17V25.6666C17 26.2199 16.5533 26.6666 16 26.6666C15.4467 26.6666 15 26.2199 15 25.6666V25.3333H13C12.4467 25.3333 12 24.8866 12 24.3333C12 23.7799 12.4467 23.3333 13 23.3333H18V20.9999H13C12.7133 20.9999 12.4733 20.9066 12.28 20.7199C12.0867 20.5333 12 20.2933 12 19.9999V15.6666C12 15.3799 12.0933 15.1399 12.28 14.9533C12.4667 14.7666 12.7067 14.6666 13 14.6666H15V14.3333C15 13.7799 15.4467 13.3333 16 13.3333C16.5533 13.3333 17 13.7799 17 14.3333V14.6666H19C19.5533 14.6666 20 15.1133 20 15.6666C20 16.2199 19.5533 16.6666 19 16.6666Z" fill="#222343"/>
<path d="M20 10.3333H12C11.4467 10.3333 11 9.88659 11 9.33325C11 8.77992 11.4467 8.33325 12 8.33325H20C20.5533 8.33325 21 8.77992 21 9.33325C21 9.88659 20.5533 10.3333 20 10.3333Z" fill="#222343"/>
</svg>
