<svg width="32" height="32" viewBox="0 0 32 32" fill="none" xmlns="http://www.w3.org/2000/svg">
<path opacity="0.85" d="M5.39991 26.0667C5.06657 26.2 4.74657 26.1733 4.44657 25.98C4.14657 25.7867 3.99324 25.52 3.99324 25.16V19.2733C3.99324 18.8133 4.30657 18.4133 4.75324 18.3L11.4866 16.6267C12.1599 16.46 12.1599 15.5067 11.4866 15.3333L4.73991 13.6133C4.29991 13.5 3.98657 13.1 3.98657 12.6467V6.82668C3.98657 6.47335 4.13991 6.20002 4.43991 6.00668C4.73991 5.81335 5.05991 5.78668 5.39324 5.92002L27.1266 15.0533C27.5266 15.2333 27.7266 15.54 27.7266 15.9867C27.7266 16.4333 27.5266 16.74 27.1266 16.92L5.39324 26.0533L5.39991 26.0667Z" fill="currentColor"/>
<path d="M27.4801 18.5334C26.2467 17.2867 24.7534 16.6667 23.0001 16.6667C21.2467 16.6667 19.7467 17.2867 18.5201 18.5334C17.2867 19.7801 16.6667 21.2801 16.6667 23.0334C16.6667 24.7867 17.2801 26.2801 18.5201 27.5001C19.7534 28.7201 21.2467 29.3334 23.0001 29.3334C24.7534 29.3334 26.2534 28.7201 27.4801 27.5001C28.7134 26.2801 29.3334 24.7867 29.3334 23.0334C29.3334 21.2801 28.7201 19.7801 27.4801 18.5334ZM25.8334 25.9334C25.7001 26.0867 25.5334 26.1667 25.3334 26.1667C25.1334 26.1667 24.9667 26.1001 24.8334 25.9667L22.5001 23.6334C22.3867 23.5201 22.3134 23.4134 22.2667 23.3001C22.2201 23.1867 22.2001 23.0667 22.2001 22.9334V19.4001C22.2001 19.2201 22.2734 19.0601 22.4201 18.9201C22.5667 18.7734 22.7267 18.7067 22.9001 18.7067C23.0734 18.7067 23.2334 18.7734 23.3667 18.9067C23.5001 19.0401 23.5667 19.1934 23.5667 19.3734V22.7067L25.8001 24.9401C25.9334 25.0734 26.0067 25.2401 26.0201 25.4401C26.0334 25.6401 25.9667 25.8067 25.8334 25.9401V25.9334Z" fill="currentColor"/>
<path opacity="0.2" d="M25.8334 25.9333C25.9667 25.8 26.0267 25.6333 26.02 25.4333C26.0134 25.2333 25.9334 25.0666 25.8 24.9333L23.5667 22.7V19.3666C23.5667 19.1866 23.5 19.0333 23.3667 18.9C23.2334 18.7666 23.08 18.7 22.9 18.7C22.72 18.7 22.56 18.7733 22.4134 18.92C22.2667 19.0666 22.1934 19.2266 22.1934 19.4066V22.94C22.1934 23.0733 22.2134 23.1933 22.26 23.3066C22.3067 23.42 22.38 23.5266 22.4934 23.64L24.8267 25.9733C24.96 26.1066 25.1267 26.1733 25.3267 26.1733C25.5267 26.1733 25.6934 26.0933 25.8267 25.94L25.8334 25.9333Z" fill="currentColor"/>
</svg>
