<svg width="32" height="32" viewBox="0 0 32 32" fill="none" xmlns="http://www.w3.org/2000/svg">
<path opacity="0.52" d="M12.5333 19.1266C16.1747 19.1266 19.1267 16.1747 19.1267 12.5333C19.1267 8.89188 16.1747 5.93994 12.5333 5.93994C8.89194 5.93994 5.94 8.89188 5.94 12.5333C5.94 16.1747 8.89194 19.1266 12.5333 19.1266Z" fill="#222343"/>
<path d="M25.8 27.2666L17.7667 19.2332C17.1 19.8132 16.32 20.2599 15.4333 20.5799C14.5467 20.8999 13.6 21.0599 12.6 21.0666C10.2 21.0666 8.16667 20.2332 6.5 18.5666C4.83334 16.8999 3.98667 14.7466 4 12.4732C4.01334 10.1999 4.84667 8.15323 6.5 6.4999C8.15334 4.84657 10.1667 4.01323 12.5267 3.9999C14.8867 3.98657 16.9933 4.89323 18.5867 6.4999C20.18 8.10657 21.0667 10.1799 21.0667 12.5332C21.0667 13.4866 20.9133 14.4132 20.6 15.2999C20.2867 16.1866 19.82 17.0199 19.2 17.7999L27.26 25.7999C27.6667 26.2066 27.6667 26.8599 27.26 27.2666C26.8533 27.6732 26.2 27.6732 25.7933 27.2666H25.8ZM12.5667 19.0666C14.3667 19.0666 15.9 18.4266 17.1667 17.1466C18.4333 15.8666 19.0667 14.3266 19.0667 12.5266C19.0667 10.7266 18.4333 9.18657 17.1667 7.90657C15.9 6.62657 14.3667 5.98657 12.5667 5.98657C10.7667 5.98657 9.19334 6.62657 7.91334 7.90657C6.63334 9.18657 5.99334 10.7266 5.99334 12.5266C5.99334 14.3266 6.63334 15.8666 7.91334 17.1399C9.19334 18.4199 10.74 19.0532 12.56 19.0599L12.5667 19.0666Z" fill="#222343"/>
</svg>
