<svg width="32" height="32" viewBox="0 0 32 32" fill="none" xmlns="http://www.w3.org/2000/svg">
<path opacity="0.85" fill-rule="evenodd" clip-rule="evenodd" d="M28.2799 10.8001C27.5799 9.18008 26.6332 7.76675 25.4332 6.56675C24.2332 5.36675 22.8199 4.41341 21.1999 3.71341C19.5799 3.01341 17.8466 2.66675 15.9999 2.66675C14.1532 2.66675 12.4532 3.01341 10.8332 3.71341C9.21325 4.41341 7.79325 5.36675 6.57991 6.56675C5.36658 7.76675 4.41325 9.18008 3.71325 10.8001C3.01325 12.4201 2.65991 14.1534 2.65991 16.0001C2.65991 17.8467 3.01325 19.5467 3.71325 21.1667C4.41325 22.7867 5.36658 24.2067 6.57991 25.4201C7.79325 26.6334 9.20658 27.5867 10.8332 28.2867C12.4532 28.9867 14.1799 29.3334 15.9999 29.3334C17.8199 29.3334 19.5799 28.9867 21.1999 28.2867C22.8199 27.5867 24.2332 26.6334 25.4332 25.4201C26.6332 24.2067 27.5799 22.7934 28.2799 21.1667C28.9799 19.5467 29.3332 17.8201 29.3332 16.0001C29.3332 14.1801 28.9799 12.4201 28.2799 10.8001ZM9.19991 13.0334C9.19991 12.8134 9.28658 12.6134 9.46658 12.4334L10.8666 11.0334C10.9799 10.9201 11.0866 10.8467 11.1999 10.8001C11.3132 10.7534 11.4332 10.7334 11.5666 10.7334C11.6999 10.7334 11.8199 10.7534 11.9332 10.8001C12.0466 10.8467 12.1532 10.9201 12.2666 11.0334L13.6666 12.4334C13.8466 12.6134 13.9332 12.8134 13.9332 13.0334C13.9332 13.2534 13.8466 13.4534 13.6666 13.6334C13.4866 13.8134 13.2866 13.9001 13.0666 13.9001C12.8466 13.9001 12.6466 13.8134 12.4666 13.6334L11.5666 12.7334L10.6666 13.6334C10.4866 13.8134 10.2866 13.9001 10.0666 13.9001C9.84658 13.9001 9.64658 13.8134 9.46658 13.6334C9.28658 13.4534 9.19991 13.2534 9.19991 13.0334ZM22.2332 19.9001C21.5866 20.9667 20.7066 21.8001 19.5799 22.4001C18.4599 23.0001 17.2666 23.3001 15.9932 23.3001C14.7199 23.3001 13.5399 23.0001 12.4266 22.4001C11.3132 21.8001 10.4399 20.9667 9.79325 19.9001C9.61325 19.6334 9.59325 19.4001 9.72658 19.2001C9.85991 19.0001 10.0799 18.9001 10.3932 18.9001H21.5932C21.9066 18.9001 22.1332 19.0001 22.2732 19.2001C22.4199 19.4001 22.3999 19.6334 22.2266 19.9001H22.2332ZM22.5666 13.6334C22.3866 13.8134 22.1866 13.9001 21.9666 13.9001C21.7466 13.9001 21.5466 13.8134 21.3666 13.6334L20.4666 12.7334L19.5666 13.6334C19.3866 13.8134 19.1866 13.9001 18.9666 13.9001C18.7466 13.9001 18.5466 13.8134 18.3666 13.6334C18.1866 13.4534 18.0999 13.2534 18.0999 13.0334C18.0999 12.8134 18.1866 12.6134 18.3666 12.4334L19.7666 11.0334C19.8799 10.9201 19.9866 10.8467 20.0999 10.8001C20.2132 10.7534 20.3332 10.7334 20.4666 10.7334C20.5999 10.7334 20.7199 10.7534 20.8332 10.8001C20.9466 10.8467 21.0532 10.9201 21.1666 11.0334L22.5666 12.4334C22.7466 12.6134 22.8332 12.8134 22.8332 13.0334C22.8332 13.2534 22.7466 13.4534 22.5666 13.6334Z" fill="#222343"/>
<g opacity="0.2">
<path d="M10.6666 13.6334L11.5666 12.7334L12.4666 13.6334C12.6466 13.8134 12.8466 13.9001 13.0666 13.9001C13.2866 13.9001 13.4866 13.8134 13.6666 13.6334C13.8466 13.4534 13.9333 13.2534 13.9333 13.0334C13.9333 12.8134 13.8466 12.6134 13.6666 12.4334L12.2666 11.0334C12.1533 10.9201 12.0466 10.8467 11.9333 10.8001C11.82 10.7534 11.7 10.7334 11.5666 10.7334C11.4333 10.7334 11.3133 10.7534 11.2 10.8001C11.0866 10.8467 10.98 10.9201 10.8666 11.0334L9.46662 12.4334C9.28662 12.6134 9.19995 12.8134 9.19995 13.0334C9.19995 13.2534 9.28662 13.4534 9.46662 13.6334C9.64662 13.8134 9.84662 13.9001 10.0666 13.9001C10.2866 13.9001 10.4866 13.8134 10.6666 13.6334Z" fill="#222343"/>
<path d="M22.5666 12.4334L21.1666 11.0334C21.0533 10.9201 20.9466 10.8467 20.8333 10.8001C20.72 10.7534 20.6 10.7334 20.4666 10.7334C20.3333 10.7334 20.2133 10.7534 20.1 10.8001C19.9866 10.8467 19.88 10.9201 19.7666 11.0334L18.3666 12.4334C18.1866 12.6134 18.1 12.8134 18.1 13.0334C18.1 13.2534 18.1866 13.4534 18.3666 13.6334C18.5466 13.8134 18.7466 13.9001 18.9666 13.9001C19.1866 13.9001 19.3866 13.8134 19.5666 13.6334L20.4666 12.7334L21.3666 13.6334C21.5466 13.8134 21.7466 13.9001 21.9666 13.9001C22.1866 13.9001 22.3866 13.8134 22.5666 13.6334C22.7466 13.4534 22.8333 13.2534 22.8333 13.0334C22.8333 12.8134 22.7466 12.6134 22.5666 12.4334Z" fill="#222343"/>
<path d="M10.4 18.9001C10.0866 18.9001 9.86662 19.0001 9.73329 19.2001C9.59995 19.4001 9.61995 19.6334 9.79995 19.9001C10.4466 20.9667 11.32 21.8001 12.4333 22.4001C13.5466 23.0001 14.7333 23.3001 16 23.3001C17.2666 23.3001 18.46 23.0001 19.5866 22.4001C20.7066 21.8001 21.5933 20.9667 22.24 19.9001C22.42 19.6334 22.4333 19.4001 22.2866 19.2001C22.14 19.0001 21.9133 18.9001 21.6066 18.9001H10.4Z" fill="#222343"/>
</g>
</svg>
