<svg width="32" height="32" viewBox="0 0 32 32" fill="none" xmlns="http://www.w3.org/2000/svg">
<path opacity="0.85" d="M28.2799 10.8001C27.5799 9.18008 26.6332 7.76675 25.4332 6.56675C24.2332 5.36675 22.8199 4.41341 21.1999 3.71341C19.5799 3.01341 17.8532 2.66675 16.0332 2.66675C14.2132 2.66675 12.4532 3.01341 10.8332 3.71341C9.21325 4.41341 7.79325 5.36675 6.57991 6.56675C5.36658 7.76675 4.41325 9.18008 3.71325 10.8001C3.01325 12.4201 2.65991 14.1467 2.65991 15.9667C2.65991 17.7867 3.01325 19.5467 3.71325 21.1667C4.41325 22.7867 5.36658 24.2067 6.57991 25.4201C7.79325 26.6334 9.20658 27.5867 10.8332 28.2867C12.4532 28.9867 14.1799 29.3334 15.9999 29.3334C17.8199 29.3334 19.5799 28.9867 21.1999 28.2867C22.8199 27.5867 24.2332 26.6334 25.4332 25.4201C26.6332 24.2067 27.5799 22.7934 28.2799 21.1667C28.9799 19.5467 29.3332 17.8201 29.3332 16.0001C29.3332 14.1801 28.9799 12.4201 28.2799 10.8001ZM9.84658 11.1534C10.1932 10.8067 10.6199 10.6334 11.1266 10.6334C11.6332 10.6334 12.0666 10.8067 12.4066 11.1534C12.7466 11.5001 12.9266 11.9267 12.9266 12.4334C12.9266 12.9401 12.7532 13.3734 12.4066 13.7201C12.0599 14.0667 11.6332 14.2401 11.1266 14.2401C10.6199 14.2401 10.1866 14.0667 9.84658 13.7201C9.49991 13.3734 9.32658 12.9467 9.32658 12.4334C9.32658 11.9201 9.49991 11.4934 9.84658 11.1534ZM22.1932 22.1201C22.0599 22.3734 21.8399 22.5001 21.5266 22.5001C21.3932 22.5001 21.2466 22.4534 21.0932 22.3667C20.9399 22.2801 20.8132 22.1801 20.7266 22.0667C20.1932 21.3134 19.5066 20.7334 18.6732 20.3334C17.8399 19.9334 16.9532 19.7334 16.0199 19.7334C15.0866 19.7334 14.1666 19.9267 13.3199 20.3201C12.4732 20.7067 11.7999 21.2801 11.2866 22.0334C11.1999 22.1667 11.0799 22.2801 10.9332 22.3667C10.7866 22.4534 10.6399 22.5001 10.4866 22.5001C10.1999 22.5001 9.97991 22.3667 9.83991 22.1001C9.69325 21.8334 9.73325 21.5334 9.95325 21.2001C10.5532 20.2667 11.3932 19.5134 12.4732 18.9467C13.5532 18.3801 14.7266 18.0934 15.9866 18.0934C17.2466 18.0934 18.4332 18.3801 19.5199 18.9601C20.6066 19.5401 21.4732 20.3267 22.1199 21.3267C22.2999 21.5934 22.3199 21.8534 22.1866 22.1134L22.1932 22.1201ZM22.1466 13.7201C21.7999 14.0667 21.3732 14.2401 20.8599 14.2401C20.3466 14.2401 19.9199 14.0667 19.5799 13.7201C19.2332 13.3734 19.0666 12.9467 19.0666 12.4334C19.0666 11.9201 19.2399 11.4934 19.5799 11.1534C19.9199 10.8134 20.3532 10.6334 20.8599 10.6334C21.3666 10.6334 21.7999 10.8067 22.1466 11.1534C22.4932 11.5001 22.6599 11.9267 22.6599 12.4334C22.6599 12.9401 22.4866 13.3734 22.1466 13.7201Z" fill="#222343"/>
<g opacity="0.2">
<path d="M20.8666 10.6334C20.3533 10.6334 19.9266 10.8067 19.5866 11.1534C19.2466 11.5 19.0733 11.9267 19.0733 12.4334C19.0733 12.94 19.2466 13.3734 19.5866 13.72C19.9333 14.0667 20.3599 14.24 20.8666 14.24C21.3733 14.24 21.8066 14.0667 22.1533 13.72C22.4999 13.3734 22.6666 12.9467 22.6666 12.4334C22.6666 11.92 22.4933 11.4934 22.1533 11.1534C21.8133 10.8134 21.3799 10.6334 20.8666 10.6334Z" fill="#222343"/>
<path d="M11.1333 14.2334C11.6466 14.2334 12.0733 14.06 12.4133 13.7134C12.7599 13.3667 12.9333 12.94 12.9333 12.4267C12.9333 11.9134 12.7599 11.4867 12.4133 11.1467C12.0666 10.8067 11.6399 10.6267 11.1333 10.6267C10.6266 10.6267 10.1933 10.8 9.85325 11.1467C9.51325 11.4934 9.33325 11.92 9.33325 12.4267C9.33325 12.9334 9.50659 13.3667 9.85325 13.7134C10.1999 14.06 10.6266 14.2334 11.1333 14.2334Z" fill="#222343"/>
<path d="M19.5333 18.9667C18.4466 18.3867 17.2666 18.1 15.9999 18.1C14.7333 18.1 13.5599 18.3867 12.4866 18.9534C11.4066 19.52 10.5666 20.2667 9.96659 21.2067C9.74659 21.54 9.70659 21.84 9.85325 22.1067C9.99992 22.3734 10.2133 22.5067 10.4999 22.5067C10.6533 22.5067 10.8066 22.46 10.9466 22.3734C11.0933 22.2867 11.2066 22.1734 11.2999 22.04C11.8133 21.2867 12.4866 20.7134 13.3333 20.3267C14.1799 19.94 15.0799 19.74 16.0333 19.74C16.9866 19.74 17.8533 19.94 18.6866 20.34C19.5199 20.74 20.1999 21.32 20.7399 22.0734C20.8266 22.1867 20.9533 22.2867 21.1066 22.3734C21.2599 22.46 21.4066 22.5067 21.5399 22.5067C21.8533 22.5067 22.0733 22.38 22.2066 22.1267C22.3399 21.8734 22.3199 21.6067 22.1399 21.34C21.4933 20.34 20.6266 19.5534 19.5399 18.9734L19.5333 18.9667Z" fill="#222343"/>
</g>
</svg>
