<svg width="32" height="32" viewBox="0 0 32 32" fill="none" xmlns="http://www.w3.org/2000/svg">
<path opacity="0.32" d="M25.3666 6.13336L23.5399 5.45336L16.6999 2.90002C16.2466 2.73336 15.7533 2.73336 15.2999 2.90002L8.45992 5.45336L6.63325 6.13336C5.85325 6.42669 5.33325 7.17336 5.33325 8.00669V14.7267C5.33325 21.32 9.49992 26.9467 15.3399 29.1067C15.7666 29.2667 16.2333 29.2667 16.6599 29.1067C18.9466 28.26 20.9799 26.88 22.5999 25.12V23.6667H20.1666C20.0133 23.6667 19.8866 23.6067 19.7733 23.4934C19.6533 23.38 19.5999 23.2467 19.5999 23.0934C19.5999 22.94 19.6466 22.8134 19.7466 22.72C19.8533 22.6134 19.9799 22.5667 20.1466 22.5667H22.5999V20.1134C22.5999 19.9467 22.6599 19.8134 22.7733 19.72C22.8866 19.6134 23.0199 19.5667 23.1733 19.5667C23.3266 19.5667 23.4466 19.6134 23.5533 19.72C23.5866 19.7534 23.6133 19.7934 23.6333 19.84C23.6799 19.9134 23.6999 20.0067 23.6999 20.1134V22.5667H24.5199C25.8799 20.2734 26.6666 17.5934 26.6666 14.7267V8.00669C26.6666 7.17336 26.1466 6.42669 25.3666 6.13336ZM23.6999 23.7867C23.7333 23.7467 23.7599 23.7067 23.7866 23.6667H23.6999V23.7867Z" fill="currentColor"/>
<path opacity="0.85" d="M22.8399 7.32665L15.9999 4.77332L9.15992 7.32665L7.33325 8.00665V14.7266C7.33325 20.2666 10.8133 25.28 15.9999 27.22C18.0333 26.46 19.8066 25.2267 21.2133 23.6666H20.1666C20.0133 23.6666 19.8866 23.6067 19.7733 23.4933C19.6533 23.38 19.5999 23.2466 19.5999 23.0933C19.5999 22.94 19.6466 22.8133 19.7466 22.72C19.8533 22.6133 19.9799 22.5666 20.1466 22.5666H22.0999C22.2733 22.3333 22.4399 22.0933 22.5999 21.84V20.1133C22.5999 19.9466 22.6599 19.8133 22.7733 19.72C22.8866 19.6133 23.0199 19.5666 23.1733 19.5666C23.3266 19.5666 23.4466 19.6133 23.5533 19.72C23.5866 19.7533 23.6133 19.7933 23.6333 19.84C24.3066 18.2466 24.6666 16.5133 24.6666 14.7266V8.00665L22.8399 7.32665Z" fill="currentColor"/>
<path d="M27.5199 18.64C26.2799 17.4134 24.8133 16.8 23.0999 16.8C21.3866 16.8 19.8866 17.4134 18.6666 18.64C17.4466 19.8734 16.8333 21.36 16.8333 23.1C16.8333 24.84 17.4466 26.2534 18.6666 27.48C19.8866 28.72 21.3599 29.3334 23.0799 29.3334C24.7999 29.3334 26.2799 28.72 27.5199 27.48C28.7599 26.24 29.3666 24.7867 29.3666 23.1C29.3666 21.4134 28.7466 19.8734 27.5199 18.64ZM26.5533 23.4934C26.4466 23.6067 26.3199 23.6667 26.1533 23.6667H23.6999V26.1C23.6999 26.2534 23.6466 26.3867 23.5533 26.4934C23.4466 26.6067 23.3266 26.6667 23.1733 26.6667C23.0199 26.6667 22.8866 26.6134 22.7733 26.5134C22.6599 26.4134 22.5999 26.2867 22.5999 26.12V23.6667H20.1666C20.0133 23.6667 19.8866 23.6067 19.7733 23.4934C19.6533 23.38 19.5999 23.2467 19.5999 23.0934C19.5999 22.94 19.6466 22.8134 19.7466 22.72C19.8533 22.6134 19.9799 22.5667 20.1466 22.5667H22.5999V20.1134C22.5999 19.9467 22.6599 19.8134 22.7733 19.72C22.8866 19.6134 23.0199 19.5667 23.1733 19.5667C23.3266 19.5667 23.4466 19.6134 23.5533 19.72C23.6466 19.8134 23.6999 19.9467 23.6999 20.1134V22.5667H26.1533C26.3199 22.5667 26.4466 22.6134 26.5533 22.72C26.6466 22.8134 26.6999 22.94 26.6999 23.0934C26.6999 23.2467 26.6466 23.38 26.5533 23.4934Z" fill="currentColor"/>
<path opacity="0.2" d="M26.7001 23.0933C26.7001 23.2466 26.6468 23.38 26.5534 23.4933C26.4468 23.6067 26.3201 23.6667 26.1534 23.6667H23.7001V26.1C23.7001 26.2533 23.6468 26.3867 23.5534 26.4933C23.4468 26.6067 23.3268 26.6667 23.1734 26.6667C23.0201 26.6667 22.8868 26.6133 22.7734 26.5133C22.6601 26.4133 22.6001 26.2867 22.6001 26.12V23.6667H20.1668C20.0134 23.6667 19.8868 23.6067 19.7734 23.4933C19.6534 23.38 19.6001 23.2466 19.6001 23.0933C19.6001 22.94 19.6468 22.8133 19.7468 22.72C19.8534 22.6133 19.9801 22.5666 20.1468 22.5666H22.6001V20.1133C22.6001 19.9467 22.6601 19.8133 22.7734 19.72C22.8868 19.6133 23.0201 19.5667 23.1734 19.5667C23.3268 19.5667 23.4468 19.6133 23.5534 19.72C23.5868 19.7533 23.6134 19.7933 23.6334 19.84C23.6801 19.9133 23.7001 20.0067 23.7001 20.1133V22.5666H26.1534C26.3201 22.5666 26.4468 22.6133 26.5534 22.72C26.6468 22.8133 26.7001 22.94 26.7001 23.0933Z" fill="currentColor"/>
<path opacity="0.52" d="M18.6667 27.48C18.3267 27.14 18.0333 26.7733 17.7867 26.3933C17.1533 25.4133 16.8333 24.3133 16.8333 23.1C16.8333 22.56 16.8933 22.0533 17.0067 21.5667C16.6667 22.34 16.5 23.1867 16.5 24.1C16.5 25.0133 16.7 25.94 17.0933 26.7533C17.3733 27.34 17.76 27.8933 18.26 28.4C18.56 28.2533 18.86 28.0933 19.1467 27.92C18.98 27.7867 18.82 27.64 18.6667 27.48Z" fill="currentColor"/>
</svg>
