<svg width="32" height="32" viewBox="0 0 32 32" fill="none" xmlns="http://www.w3.org/2000/svg">
<path opacity="0.32" d="M25.3666 6.13336L23.5399 5.45336L16.6999 2.90002C16.2466 2.73336 15.7533 2.73336 15.2999 2.90002L8.45992 5.45336L6.63325 6.13336C5.85325 6.42669 5.33325 7.17336 5.33325 8.00669V14.7267C5.33325 21.32 9.49992 26.9467 15.3399 29.1067C15.7666 29.2667 16.2333 29.2667 16.6599 29.1067C17.5266 28.7867 18.3599 28.3867 19.1466 27.92C19.7599 27.5534 20.3466 27.1534 20.8999 26.7C20.5133 26.48 20.1733 26.2067 19.8799 25.86C19.7933 25.7467 19.7666 25.6267 19.8133 25.4934C19.8599 25.36 19.9333 25.2667 20.0466 25.2267C20.5333 24.98 21.0333 24.8 21.5466 24.6934C22.0599 24.58 22.5799 24.5267 23.1133 24.5267H23.1266C23.6933 23.8467 24.1999 23.1134 24.6466 22.3467C24.6333 22.36 24.6266 22.3667 24.6133 22.38C24.2133 22.8067 23.7266 23.0134 23.1466 23.0134C22.7266 23.0134 22.3533 22.9067 22.0133 22.6867C21.8866 22.6 21.7599 22.5 21.6466 22.38C21.2266 21.96 21.0133 21.46 21.0133 20.88C21.0133 20.3 21.2266 19.82 21.6466 19.4134C22.0666 19.0134 22.5666 18.82 23.1466 18.82C23.4399 18.82 23.7133 18.8734 23.9599 18.9734C24.1999 19.0734 24.4199 19.22 24.6133 19.4134C25.0133 19.82 25.2133 20.3067 25.2133 20.88C25.2133 21.0467 25.1999 21.2067 25.1599 21.36C25.7133 20.22 26.1199 19 26.3733 17.7267C26.5666 16.7534 26.6666 15.7534 26.6666 14.7267V8.00669C26.6666 7.17336 26.1466 6.42669 25.3666 6.13336Z" fill="currentColor"/>
<path opacity="0.85" d="M22.8399 7.32665L15.9999 4.77332L9.15992 7.32665L7.33325 8.00665V14.7266C7.33325 20.2666 10.8133 25.28 15.9999 27.22C16.6199 26.9867 17.2199 26.7133 17.7866 26.3933C19.4599 25.4667 20.8933 24.1933 22.0133 22.6866C21.8866 22.6 21.7599 22.5 21.6466 22.38C21.2266 21.96 21.0133 21.46 21.0133 20.88C21.0133 20.3 21.2266 19.82 21.6466 19.4133C22.0666 19.0133 22.5666 18.82 23.1466 18.82C23.4399 18.82 23.7133 18.8733 23.9599 18.9733C24.1866 18.3133 24.3599 17.64 24.4799 16.9466C24.5999 16.22 24.6666 15.48 24.6666 14.7266V8.00665L22.8399 7.32665Z" fill="currentColor"/>
<path opacity="0.52" d="M18.6667 27.48C18.3267 27.14 18.0333 26.7733 17.7867 26.3933C17.1533 25.4133 16.8333 24.3133 16.8333 23.1C16.8333 22.56 16.8933 22.0533 17.0067 21.5667C16.6667 22.34 16.5 23.1867 16.5 24.1C16.5 25.0133 16.7 25.94 17.0933 26.7533C17.3733 27.34 17.76 27.8933 18.26 28.4C18.56 28.2533 18.86 28.0933 19.1467 27.92C18.98 27.7867 18.82 27.64 18.6667 27.48Z" fill="currentColor"/>
<path d="M27.5199 18.6467C27.1599 18.2867 26.7733 17.9734 26.3733 17.7267C25.7866 17.3534 25.1533 17.0934 24.4799 16.9467C24.0399 16.8467 23.5799 16.8 23.0999 16.8C21.3666 16.8 19.8866 17.4134 18.6666 18.6467C17.4466 19.8867 16.8333 21.3667 16.8333 23.1C16.8333 24.3134 17.1533 25.4134 17.7866 26.3934C18.0333 26.7734 18.3266 27.14 18.6666 27.48C18.8199 27.64 18.9799 27.7867 19.1466 27.92C20.2666 28.8667 21.5866 29.3334 23.0999 29.3334C24.8133 29.3334 26.2799 28.72 27.5199 27.48C28.7466 26.2534 29.3666 24.7867 29.3666 23.1C29.3666 21.4134 28.7466 19.8867 27.5199 18.6467ZM21.6466 19.4134C22.0666 19.0134 22.5666 18.82 23.1466 18.82C23.4399 18.82 23.7133 18.8734 23.9599 18.9734C24.1999 19.0734 24.4199 19.22 24.6133 19.4134C25.0133 19.82 25.2133 20.3067 25.2133 20.88C25.2133 21.0467 25.1999 21.2067 25.1599 21.36C25.0866 21.72 24.9199 22.0467 24.6533 22.3334C24.6533 22.34 24.6466 22.34 24.6466 22.3467C24.6333 22.36 24.6266 22.3667 24.6133 22.38C24.2133 22.8067 23.7266 23.0134 23.1466 23.0134C22.7266 23.0134 22.3533 22.9067 22.0133 22.6867C21.8866 22.6 21.7599 22.5 21.6466 22.38C21.2266 21.96 21.0133 21.46 21.0133 20.88C21.0133 20.3 21.2266 19.82 21.6466 19.4134ZM26.3133 25.86C25.9133 26.3 25.4333 26.6467 24.8799 26.8934C24.3266 27.1334 23.7333 27.26 23.1133 27.26C22.4933 27.26 21.8933 27.14 21.3266 26.9067C21.1799 26.8467 21.0333 26.7734 20.8999 26.7C20.5133 26.48 20.1733 26.2067 19.8799 25.86C19.7933 25.7467 19.7666 25.6267 19.8133 25.4934C19.8599 25.36 19.9333 25.2667 20.0466 25.2267C20.5333 24.98 21.0333 24.8 21.5466 24.6934C22.0599 24.58 22.5799 24.5267 23.1133 24.5267H23.1266C23.6533 24.5267 24.1733 24.5867 24.6799 24.7067C25.1933 24.8267 25.6933 25 26.1799 25.2267C26.2933 25.2667 26.3599 25.36 26.3933 25.4934C26.4266 25.6267 26.3933 25.7467 26.3133 25.86Z" fill="currentColor"/>
<g opacity="0.2">
<path d="M26.3135 25.8599C25.9135 26.2999 25.4335 26.6466 24.8802 26.8933C24.3268 27.1333 23.7335 27.2599 23.1135 27.2599C22.4935 27.2599 21.8935 27.1399 21.3268 26.9066C21.1802 26.8466 21.0335 26.7733 20.9002 26.6999C20.5135 26.4799 20.1735 26.2066 19.8802 25.8599C19.7935 25.7466 19.7668 25.6266 19.8135 25.4933C19.8602 25.3599 19.9335 25.2666 20.0468 25.2266C20.5335 24.9799 21.0335 24.7999 21.5468 24.6933C22.0602 24.5799 22.5802 24.5266 23.1135 24.5266H23.1268C23.6535 24.5266 24.1735 24.5866 24.6802 24.7066C25.1935 24.8266 25.6935 24.9999 26.1802 25.2266C26.2935 25.2666 26.3602 25.3599 26.3935 25.4933C26.4268 25.6266 26.3935 25.7466 26.3135 25.8599Z" fill="currentColor"/>
<path d="M25.2135 20.8799C25.2135 21.0466 25.2002 21.2066 25.1602 21.3599C25.0868 21.7199 24.9202 22.0466 24.6535 22.3333C24.6535 22.3399 24.6468 22.3399 24.6468 22.3466C24.6335 22.3599 24.6268 22.3666 24.6135 22.3799C24.2135 22.8066 23.7268 23.0133 23.1468 23.0133C22.7268 23.0133 22.3535 22.9066 22.0135 22.6866C21.8868 22.5999 21.7602 22.4999 21.6468 22.3799C21.2268 21.9599 21.0135 21.4599 21.0135 20.8799C21.0135 20.2999 21.2268 19.8199 21.6468 19.4133C22.0668 19.0133 22.5668 18.8199 23.1468 18.8199C23.4402 18.8199 23.7135 18.8733 23.9602 18.9733C24.2002 19.0733 24.4202 19.2199 24.6135 19.4133C25.0135 19.8199 25.2135 20.3066 25.2135 20.8799Z" fill="currentColor"/>
</g>
</svg>
