<svg width="32" height="32" viewBox="0 0 32 32" fill="none" xmlns="http://www.w3.org/2000/svg">
<path opacity="0.32" d="M25.3666 6.13336L23.5399 5.45336L16.6999 2.90002C16.2466 2.73336 15.7533 2.73336 15.2999 2.90002L8.45992 5.45336L7.29325 5.88669L8.85325 7.44002L22.8466 21.4334L24.3133 22.8934C25.8066 20.5267 26.6666 17.7334 26.6666 14.7267V8.00669C26.6666 7.17336 26.1466 6.42669 25.3666 6.13336ZM7.33325 8.75336L5.59992 7.02002C5.59992 7.02002 5.58659 7.04002 5.58659 7.05336C5.55325 7.10002 5.52659 7.14669 5.51325 7.20002C5.48659 7.24669 5.46659 7.28669 5.45325 7.33336C5.43992 7.36669 5.42659 7.40002 5.41992 7.44002C5.39325 7.50669 5.37992 7.58002 5.37325 7.65336C5.34659 7.76669 5.33325 7.88669 5.33325 8.00669V14.7267C5.33325 21.32 9.49992 26.9467 15.3399 29.1067C15.7666 29.2667 16.2333 29.2667 16.6599 29.1067C18.8799 28.2867 20.8599 26.96 22.4599 25.2734C22.6733 25.0467 22.8799 24.8134 23.0866 24.5734C23.0999 24.56 23.1066 24.5467 23.1199 24.5334L21.6933 23.1L7.33325 8.75336Z" fill="currentColor"/>
<path opacity="0.85" d="M22.8399 7.32665L15.9999 4.77332L9.15992 7.32665L8.85325 7.43998L22.8466 21.4333C24.0133 19.4333 24.6666 17.1266 24.6666 14.7266V8.00665L22.8399 7.32665ZM7.33325 14.7266C7.33325 20.2666 10.8133 25.28 15.9999 27.22C17.9533 26.4933 19.6666 25.3266 21.0399 23.8533C21.2666 23.6133 21.4866 23.36 21.6933 23.1L7.33325 8.75332V14.7266Z" fill="currentColor"/>
<path opacity="0.52" d="M23.1199 24.5334C23.1199 24.5334 23.0999 24.56 23.0866 24.5734C22.8799 24.8134 22.6733 25.0467 22.4599 25.2734L21.0399 23.8534L7.33325 10.16L5.33325 8.16669V8.00669C5.33325 7.88669 5.34659 7.76669 5.37325 7.65335C5.37992 7.58002 5.39325 7.50669 5.41992 7.44002C5.42659 7.40002 5.43992 7.36669 5.45325 7.33335C5.46659 7.28669 5.48659 7.24669 5.51325 7.20002C5.52659 7.14669 5.55325 7.10002 5.58659 7.05335C5.58659 7.04002 5.59325 7.03335 5.59992 7.02002L7.33325 8.75335L21.6933 23.1L23.1199 24.5334Z" fill="currentColor"/>
<path opacity="0.52" d="M28.7135 28.7064C28.5868 28.833 28.4335 28.9197 28.2668 28.9597C28.1801 28.9864 28.0935 28.9997 28.0068 28.9997C27.7535 28.9997 27.5001 28.8997 27.3001 28.7064L23.1201 24.533L21.6935 23.0997L7.33347 8.75305L5.60014 7.01971L3.2868 4.70638C3.02014 4.44638 2.93347 4.07971 3.03347 3.74638C3.07347 3.57971 3.16014 3.42638 3.2868 3.29305C3.67347 2.89971 4.30681 2.89971 4.70014 3.29305L7.29347 5.88638L8.85347 7.43971L22.8468 21.433L24.3135 22.893L28.7135 27.293C29.1068 27.6797 29.1068 28.313 28.7135 28.7064Z" fill="currentColor"/>
</svg>
