<svg width="32" height="32" viewBox="0 0 32 32" fill="none" xmlns="http://www.w3.org/2000/svg">
<g opacity="0.32">
<path d="M15.9999 18.9C17.6568 18.9 18.9999 17.5569 18.9999 15.9C18.9999 14.2432 17.6568 12.9 15.9999 12.9C14.3431 12.9 12.9999 14.2432 12.9999 15.9C12.9999 17.5569 14.3431 18.9 15.9999 18.9Z" fill="currentColor"/>
<path d="M26.6666 8.00669V14.7267C26.6666 17.7067 25.8199 20.4867 24.3466 22.8334L20.1666 18.6534C20.6933 17.8667 20.9999 16.92 20.9999 15.9C20.9999 13.14 18.7599 10.9 15.9999 10.9C13.2399 10.9 10.9999 13.14 10.9999 15.9C10.9999 18.66 13.2399 20.9 15.9999 20.9C17.0199 20.9 17.9666 20.5934 18.7533 20.0667L23.1599 24.4734C21.4599 26.5467 19.2199 28.16 16.6599 29.1067C16.2333 29.26 15.7666 29.26 15.3399 29.1067C9.49992 26.94 5.33325 21.32 5.33325 14.7267V8.00669C5.33325 7.17336 5.85325 6.42669 6.63325 6.13336L15.2999 2.90002C15.7533 2.73336 16.2466 2.73336 16.6999 2.90002L25.3666 6.13336C26.1466 6.42669 26.6666 7.17336 26.6666 8.00669Z" fill="currentColor"/>
</g>
<path d="M22.8399 7.32665L15.9999 4.77332L9.15992 7.32665L7.33325 8.00665V14.7266C7.33325 20.2666 10.8133 25.28 15.9999 27.22C18.2999 26.36 20.2666 24.9 21.7333 23.0466L18.7533 20.0666C17.9666 20.5933 17.0199 20.9 15.9999 20.9C13.2399 20.9 10.9999 18.66 10.9999 15.9C10.9999 13.14 13.2399 10.9 15.9999 10.9C18.7599 10.9 20.9999 13.14 20.9999 15.9C20.9999 16.92 20.6933 17.8666 20.1666 18.6533L22.8799 21.3666C24.0266 19.3866 24.6666 17.1 24.6666 14.7266V8.00665L22.8399 7.32665ZM12.9999 15.9C12.9999 17.56 14.3399 18.9 15.9999 18.9C17.6599 18.9 18.9999 17.56 18.9999 15.9C18.9999 14.24 17.6599 12.9 15.9999 12.9C14.3399 12.9 12.9999 14.24 12.9999 15.9Z" fill="currentColor"/>
<path opacity="0.2" d="M26.3533 24.84L20.1667 18.6534C20.6933 17.8667 21 16.92 21 15.9C21 13.14 18.76 10.9 16 10.9C13.24 10.9 11 13.14 11 15.9C11 18.66 13.24 20.9 16 20.9C17.02 20.9 17.9667 20.5934 18.7533 20.0667L24.94 26.2534C25.14 26.4534 25.3933 26.5467 25.6467 26.5467C25.9 26.5467 26.16 26.4534 26.3533 26.2534C26.7467 25.8667 26.7467 25.2334 26.3533 24.84ZM16 18.9C14.34 18.9 13 17.56 13 15.9C13 14.24 14.34 12.9 16 12.9C17.66 12.9 19 14.24 19 15.9C19 17.56 17.66 18.9 16 18.9Z" fill="currentColor"/>
</svg>
