<svg width="32" height="32" viewBox="0 0 32 32" fill="none" xmlns="http://www.w3.org/2000/svg">
<path opacity="0.32" d="M25.3666 6.13336C26.1466 6.42669 26.6666 7.17336 26.6666 8.00669V14.7267C26.6666 21.32 22.4999 26.94 16.6599 29.1067C16.2399 29.2667 15.7666 29.2667 15.3399 29.1067C9.49992 26.94 5.33325 21.32 5.33325 14.7267V8.00669C5.33325 7.17336 5.85325 6.42669 6.63325 6.13336L8.45992 5.45336L15.2999 2.90002C15.7533 2.73336 16.2466 2.73336 16.6999 2.90002L23.5399 5.45336L25.3666 6.13336Z" fill="currentColor"/>
<path d="M22.8399 7.32665L15.9999 4.77332L9.15992 7.32665L7.33325 8.00665V14.7266C7.33325 20.2666 10.8133 25.28 15.9999 27.22C21.1866 25.2866 24.6666 20.2666 24.6666 14.7266V8.00665L22.8399 7.32665ZM20.8999 13.6666L17.9999 15.7333L19.1666 19.1666C19.2133 19.28 19.1866 19.3666 19.0866 19.4333C18.9866 19.5 18.8799 19.5 18.7666 19.4333L15.9999 17.3333L13.1333 19.4667C13.0199 19.5333 12.9199 19.5266 12.8199 19.4466C12.7199 19.3733 12.6866 19.28 12.7333 19.1666L13.9333 15.7333L11.0999 13.6666C10.9866 13.6 10.9533 13.5066 10.9999 13.38C11.0466 13.26 11.1199 13.2 11.2333 13.2H14.7333L15.7666 9.83332C15.8133 9.71998 15.8866 9.66665 15.9999 9.66665C16.1133 9.66665 16.1866 9.71998 16.2333 9.83332L17.2666 13.2H20.7666C20.8799 13.2 20.9533 13.26 20.9999 13.38C21.0466 13.5066 21.0133 13.6 20.8999 13.6666Z" fill="currentColor"/>
</svg>
