<svg width="32" height="32" viewBox="0 0 32 32" fill="none" xmlns="http://www.w3.org/2000/svg">
<path opacity="0.52" d="M16 29.2333C15.9133 29.2333 15.8267 29.2333 15.7467 29.2133C15.6667 29.1933 15.5933 29.1867 15.5267 29.16C12.5467 28.2733 10.1067 26.44 8.19333 23.6733C6.27999 20.9067 5.32666 17.8667 5.32666 14.56V8.02668C5.32666 7.60668 5.44666 7.22001 5.69333 6.87334C5.93999 6.52668 6.24666 6.28001 6.62666 6.12668L15.2933 2.89334C15.54 2.80668 15.7733 2.76001 15.9933 2.76001C16.2133 2.76001 16.4467 2.80668 16.6933 2.89334L25.36 6.12668C25.74 6.28001 26.0467 6.53334 26.2933 6.87334C26.54 7.22001 26.66 7.60001 26.66 8.02668V14.56C26.66 17.8733 25.7067 20.9067 23.7933 23.68C21.88 26.4467 19.44 28.2733 16.46 29.16L15.9933 29.2267L16 29.2333Z" fill="#222343"/>
<path d="M25.8667 17.1666L17.2001 10.6666C17.0201 10.5333 16.8334 10.4333 16.6334 10.3666C16.4334 10.2999 16.2201 10.2666 16.0001 10.2666C15.7801 10.2666 15.5667 10.2999 15.3667 10.3666C15.1667 10.4333 14.9801 10.5333 14.8001 10.6666L6.13339 17.1666C5.93339 17.3133 5.78006 17.4999 5.64673 17.7133C6.06673 19.8266 6.90673 21.8199 8.20006 23.6799C9.62006 25.7333 11.3267 27.2666 13.3334 28.2866V21.2066C13.3334 20.6533 13.7801 20.2066 14.3334 20.2066H17.6667C18.2201 20.2066 18.6667 20.6533 18.6667 21.2066V28.2866C20.6734 27.2666 22.3801 25.7333 23.8001 23.6799C25.0867 21.8133 25.9334 19.8266 26.3534 17.7133C26.2201 17.4999 26.0667 17.3066 25.8667 17.1666Z" fill="#222343"/>
</svg>
