<svg width="32" height="32" viewBox="0 0 32 32" fill="none" xmlns="http://www.w3.org/2000/svg">
<path opacity="0.52" d="M27.76 16.0066L25.7 25.1133C25.4933 26.0199 24.6866 26.6666 23.7533 26.6666H8.27998C7.34665 26.6666 6.53998 26.0199 6.33332 25.1133L4.27332 16.0066H27.76Z" fill="#222343"/>
<path opacity="0.85" d="M29.3466 14.3333V15.0066C29.3466 15.5533 28.9 16.0066 28.3466 16.0066H3.66663C3.11329 16.0066 2.66663 15.5533 2.66663 15.0066V14.3333C2.66663 13.7866 3.11329 13.3333 3.66663 13.3333H28.3466C28.9 13.3333 29.3466 13.7866 29.3466 14.3333Z" fill="#222343"/>
<g opacity="0.85">
<path d="M10.02 24.6933C9.46666 24.6933 9.01999 24.2467 9.01999 23.6933V18.98C9.01999 18.4267 9.46666 17.98 10.02 17.98C10.5733 17.98 11.02 18.4267 11.02 18.98V23.6933C11.02 24.2467 10.5733 24.6933 10.02 24.6933Z" fill="#222343"/>
<path d="M14.02 24.6933C13.4667 24.6933 13.02 24.2467 13.02 23.6933V18.98C13.02 18.4267 13.4667 17.98 14.02 17.98C14.5733 17.98 15.02 18.4267 15.02 18.98V23.6933C15.02 24.2467 14.5733 24.6933 14.02 24.6933Z" fill="#222343"/>
<path d="M18.02 24.6933C17.4667 24.6933 17.02 24.2467 17.02 23.6933V18.98C17.02 18.4267 17.4667 17.98 18.02 17.98C18.5733 17.98 19.02 18.4267 19.02 18.98V23.6933C19.02 24.2467 18.5733 24.6933 18.02 24.6933Z" fill="#222343"/>
<path d="M22.02 24.6933C21.4667 24.6933 21.02 24.2467 21.02 23.6933V18.98C21.02 18.4267 21.4667 17.98 22.02 17.98C22.5733 17.98 23.02 18.4267 23.02 18.98V23.6933C23.02 24.2467 22.5733 24.6933 22.02 24.6933Z" fill="#222343"/>
<path d="M9.99334 15.6667C9.82001 15.6667 9.64001 15.62 9.48001 15.52C9.00668 15.2333 8.85334 14.62 9.14001 14.1467L14.1533 5.84C14.44 5.36666 15.0533 5.21333 15.5267 5.5C16 5.78666 16.1533 6.4 15.8667 6.87333L10.8533 15.18C10.6667 15.4933 10.3333 15.66 9.99334 15.66V15.6667Z" fill="#222343"/>
<path d="M22.04 15.6667C21.7 15.6667 21.3733 15.4933 21.1867 15.1867L16.16 6.88C15.8733 6.40666 16.0267 5.79333 16.5 5.50666C16.9733 5.22 17.5867 5.37333 17.8733 5.84666L22.9 14.1533C23.1867 14.6267 23.0333 15.24 22.56 15.5267C22.4 15.6267 22.22 15.6733 22.0467 15.6733L22.04 15.6667Z" fill="#222343"/>
</g>
</svg>
