<svg width="32" height="32" viewBox="0 0 32 32" fill="none" xmlns="http://www.w3.org/2000/svg">
<path opacity="0.85" d="M16.0001 2.66675C8.63341 2.66675 2.66675 8.63341 2.66675 16.0001C2.66675 23.3667 8.63341 29.3334 16.0001 29.3334C23.3667 29.3334 29.3334 23.3667 29.3334 16.0001C29.3334 8.63341 23.3667 2.66675 16.0001 2.66675ZM25.3334 20.3334C25.3334 20.8867 24.8867 21.3334 24.3334 21.3334H9.33341L7.63341 22.1867C7.19341 22.4067 6.66675 22.0867 6.66675 21.5934V10.3334C6.66675 9.78008 7.11341 9.33341 7.66675 9.33341H24.3334C24.8867 9.33341 25.3334 9.78008 25.3334 10.3334V20.3334Z" fill="#222343"/>
<path opacity="0.2" d="M24.3334 9.33333H7.66675C7.11341 9.33333 6.66675 9.77999 6.66675 10.3333V21.5867C6.66675 22.08 7.18675 22.4067 7.63341 22.18L9.33341 21.3267H24.3334C24.8867 21.3267 25.3334 20.88 25.3334 20.3267V10.3267C25.3334 9.77333 24.8867 9.32666 24.3334 9.32666V9.33333ZM11.0534 14.6933C11.2667 14.6933 11.4467 14.7667 11.5867 14.9067C11.7334 15.0533 11.8001 15.2267 11.8001 15.44V17.54C11.8001 17.7533 11.7267 17.9333 11.5867 18.0733C11.4401 18.22 11.2667 18.2867 11.0534 18.2867H8.80008C8.62675 18.2867 8.48008 18.2333 8.37341 18.12C8.26675 18.0067 8.20008 17.86 8.20008 17.6867C8.20008 17.5133 8.26008 17.3733 8.37341 17.2533C8.48675 17.1333 8.62675 17.0867 8.80008 17.0867H10.6001V15.8867H8.94675C8.73341 15.8867 8.55341 15.8133 8.41341 15.6733C8.26675 15.5267 8.20008 15.3533 8.20008 15.14V13.04C8.20008 12.8267 8.27341 12.6467 8.41341 12.5067C8.56008 12.36 8.73341 12.2933 8.94675 12.2933H11.2001C11.3734 12.2933 11.5134 12.3533 11.6334 12.4667C11.7467 12.58 11.8067 12.7267 11.8067 12.8933C11.8067 13.06 11.7467 13.2067 11.6334 13.3267C11.5201 13.44 11.3734 13.4933 11.2001 13.4933H9.40008V14.6933H11.0467H11.0534ZM19.0001 17.6933C19.0001 17.8667 18.9401 18.0067 18.8267 18.1267C18.7134 18.24 18.5667 18.2933 18.3934 18.2933C18.2201 18.2933 18.0734 18.24 17.9667 18.1267C17.8601 18.0133 17.7934 17.8667 17.7934 17.6933V13.4933H16.5934V16.64C16.5934 16.8133 16.5334 16.9533 16.4201 17.0733C16.3067 17.1867 16.1601 17.24 15.9867 17.24C15.8134 17.24 15.6734 17.1867 15.5601 17.0733C15.4467 16.96 15.3867 16.8133 15.3867 16.64V13.4933H14.1867V17.6933C14.1867 17.8667 14.1267 18.0067 14.0134 18.1267C13.9001 18.24 13.7534 18.2933 13.5801 18.2933C13.4067 18.2933 13.2667 18.24 13.1534 18.1267C13.0401 18.0133 12.9801 17.8667 12.9801 17.6933V13.14C12.9801 12.8867 13.0601 12.6867 13.2201 12.5267C13.3801 12.3667 13.5801 12.2867 13.8334 12.2867H18.1334C18.3867 12.2867 18.5867 12.3667 18.7467 12.5267C18.9067 12.6867 18.9867 12.8867 18.9867 13.14V17.6933H19.0001ZM23.0534 14.6933C23.2668 14.6933 23.4467 14.7667 23.5868 14.9067C23.7334 15.0533 23.8001 15.2267 23.8001 15.44V17.54C23.8001 17.7533 23.7267 17.9333 23.5868 18.0733C23.4401 18.22 23.2668 18.2867 23.0534 18.2867H20.8001C20.6267 18.2867 20.4801 18.2333 20.3734 18.12C20.2667 18.0067 20.2001 17.86 20.2001 17.6867C20.2001 17.5133 20.2601 17.3733 20.3734 17.2533C20.4867 17.1333 20.6267 17.0867 20.8001 17.0867H22.6001V15.8867H20.9467C20.7334 15.8867 20.5534 15.8133 20.4134 15.6733C20.2667 15.5267 20.2001 15.3533 20.2001 15.14V13.04C20.2001 12.8267 20.2734 12.6467 20.4134 12.5067C20.5601 12.36 20.7334 12.2933 20.9467 12.2933H23.2001C23.3734 12.2933 23.5134 12.3533 23.6334 12.4667C23.7467 12.58 23.8067 12.7267 23.8067 12.8933C23.8067 13.06 23.7467 13.2067 23.6334 13.3267C23.5201 13.44 23.3734 13.4933 23.2001 13.4933H21.4001V14.6933H23.0467H23.0534Z" fill="#222343"/>
<path d="M23.1999 13.4932C23.3733 13.4932 23.5133 13.4399 23.6333 13.3265C23.7466 13.2132 23.8066 13.0665 23.8066 12.8932C23.8066 12.7199 23.7466 12.5799 23.6333 12.4665C23.52 12.3532 23.3733 12.2932 23.1999 12.2932H20.9466C20.7333 12.2932 20.5533 12.3665 20.4133 12.5065C20.2666 12.6532 20.1999 12.8265 20.1999 13.0399V15.1399C20.1999 15.3532 20.2733 15.5332 20.4133 15.6732C20.5599 15.8199 20.7333 15.8865 20.9466 15.8865H22.6V17.0865H20.8C20.6266 17.0865 20.4799 17.1399 20.3733 17.2532C20.2666 17.3665 20.1999 17.5132 20.1999 17.6865C20.1999 17.8599 20.2599 17.9999 20.3733 18.1199C20.4866 18.2399 20.6266 18.2865 20.8 18.2865H23.0533C23.2666 18.2865 23.4466 18.2132 23.5866 18.0732C23.7333 17.9265 23.7999 17.7532 23.7999 17.5399V15.4399C23.7999 15.2265 23.7266 15.0465 23.5866 14.9065C23.4399 14.7599 23.2666 14.6932 23.0533 14.6932H21.4066V13.4932H23.2066H23.1999Z" fill="#222343"/>
<path d="M13.8533 12.2932C13.5999 12.2932 13.3999 12.3732 13.2399 12.5332C13.0799 12.6932 12.9999 12.8932 12.9999 13.1465V17.6999C12.9999 17.8732 13.0533 18.0132 13.1733 18.1332C13.2866 18.2465 13.4266 18.2999 13.5999 18.2999C13.7733 18.2999 13.9133 18.2465 14.0333 18.1332C14.1466 18.0199 14.2066 17.8732 14.2066 17.6999V13.4999H15.4066V16.6465C15.4066 16.8199 15.4599 16.9599 15.5799 17.0799C15.6933 17.1932 15.8333 17.2465 16.0066 17.2465C16.1799 17.2465 16.3199 17.1932 16.4399 17.0799C16.5533 16.9665 16.6133 16.8199 16.6133 16.6465V13.4999H17.8133V17.6999C17.8133 17.8732 17.8733 18.0132 17.9866 18.1332C18.0999 18.2532 18.2399 18.2999 18.4133 18.2999C18.5866 18.2999 18.7266 18.2465 18.8466 18.1332C18.9599 18.0199 19.0199 17.8732 19.0199 17.6999V13.1465C19.0199 12.8932 18.9399 12.6932 18.7799 12.5332C18.6199 12.3732 18.4199 12.2932 18.1666 12.2932H13.8533Z" fill="#222343"/>
<path d="M11.2 13.4932C11.3733 13.4932 11.5133 13.4399 11.6333 13.3265C11.7466 13.2132 11.8066 13.0665 11.8066 12.8932C11.8066 12.7199 11.7466 12.5799 11.6333 12.4665C11.52 12.3532 11.3733 12.2932 11.2 12.2932H8.94662C8.73328 12.2932 8.55328 12.3665 8.41328 12.5065C8.26662 12.6532 8.19995 12.8265 8.19995 13.0399V15.1399C8.19995 15.3532 8.27328 15.5332 8.41328 15.6732C8.55995 15.8199 8.73328 15.8865 8.94662 15.8865H10.6V17.0865H8.79995C8.62662 17.0865 8.47995 17.1399 8.37328 17.2532C8.26662 17.3665 8.19995 17.5132 8.19995 17.6865C8.19995 17.8599 8.25995 17.9999 8.37328 18.1199C8.48662 18.2399 8.62662 18.2865 8.79995 18.2865H11.0533C11.2666 18.2865 11.4466 18.2132 11.5866 18.0732C11.7333 17.9265 11.8 17.7532 11.8 17.5399V15.4399C11.8 15.2265 11.7266 15.0465 11.5866 14.9065C11.44 14.7599 11.2666 14.6932 11.0533 14.6932H9.40662V13.4932H11.2066H11.2Z" fill="#222343"/>
</svg>
