<svg width="32" height="32" viewBox="0 0 32 32" fill="none" xmlns="http://www.w3.org/2000/svg">
<path opacity="0.85" d="M28.7201 3.28675C28.3067 2.87341 27.8467 2.66675 27.3334 2.66675H4.66675C4.13341 2.66675 3.66675 2.87341 3.26675 3.28675C2.86675 3.70008 2.66675 4.16008 2.66675 4.66675V26.9334C2.66675 27.3801 2.87341 27.6801 3.28008 27.8534C3.69341 28.0201 4.05341 27.9467 4.36008 27.6401L7.99341 24.0067H27.3267C27.8401 24.0067 28.3001 23.8001 28.7134 23.3867C29.1267 22.9734 29.3267 22.5134 29.3267 22.0067V4.66675C29.3267 4.15341 29.1201 3.69341 28.7134 3.28675H28.7201ZM9.40008 12.5334C9.68008 12.5334 9.92008 12.6267 10.1134 12.8201C10.3067 13.0134 10.4001 13.2467 10.4001 13.5334V16.3334C10.4001 16.6201 10.3067 16.8534 10.1134 17.0467C9.92008 17.2401 9.68675 17.3334 9.40008 17.3334H6.40008C6.16675 17.3334 5.98008 17.2601 5.82675 17.1067C5.67341 16.9534 5.60008 16.7667 5.60008 16.5334C5.60008 16.3001 5.67341 16.1134 5.82675 15.9601C5.98008 15.8067 6.16675 15.7334 6.40008 15.7334H8.80008V14.1334H6.60008C6.32008 14.1334 6.08008 14.0401 5.88675 13.8467C5.69341 13.6534 5.60008 13.4201 5.60008 13.1334V10.3334C5.60008 10.0467 5.69341 9.81341 5.88675 9.62008C6.08008 9.42675 6.31341 9.33341 6.60008 9.33341H9.60008C9.83341 9.33341 10.0201 9.40675 10.1734 9.56008C10.3267 9.71341 10.4001 9.90008 10.4001 10.1334C10.4001 10.3667 10.3267 10.5534 10.1734 10.7067C10.0201 10.8601 9.83341 10.9334 9.60008 10.9334H7.20008V12.5334H9.40008ZM20.0001 16.5334C20.0001 16.7667 19.9267 16.9534 19.7734 17.1067C19.6201 17.2601 19.4334 17.3334 19.2001 17.3334C18.9667 17.3334 18.7801 17.2601 18.6267 17.1067C18.4734 16.9534 18.4001 16.7667 18.4001 16.5334V10.9334H16.8001V15.1334C16.8001 15.3667 16.7267 15.5534 16.5734 15.7067C16.4201 15.8601 16.2334 15.9334 16.0001 15.9334C15.7667 15.9334 15.5801 15.8601 15.4267 15.7067C15.2734 15.5534 15.2001 15.3667 15.2001 15.1334V10.9334H13.6001V16.5334C13.6001 16.7667 13.5267 16.9534 13.3734 17.1067C13.2201 17.2601 13.0334 17.3334 12.8001 17.3334C12.5667 17.3334 12.3801 17.2601 12.2267 17.1067C12.0734 16.9534 12.0001 16.7667 12.0001 16.5334V10.4667C12.0001 10.1334 12.1067 9.86008 12.3134 9.65341C12.5267 9.44008 12.8001 9.33341 13.1334 9.33341H18.8667C19.2001 9.33341 19.4734 9.44008 19.6801 9.65341C19.8934 9.86675 20.0001 10.1334 20.0001 10.4667V16.5334ZM25.4001 12.5334C25.6801 12.5334 25.9201 12.6267 26.1134 12.8201C26.3067 13.0134 26.4001 13.2467 26.4001 13.5334V16.3334C26.4001 16.6201 26.3067 16.8534 26.1134 17.0467C25.9201 17.2401 25.6867 17.3334 25.4001 17.3334H22.4001C22.1667 17.3334 21.9801 17.2601 21.8267 17.1067C21.6734 16.9534 21.6001 16.7667 21.6001 16.5334C21.6001 16.3001 21.6734 16.1134 21.8267 15.9601C21.9801 15.8067 22.1667 15.7334 22.4001 15.7334H24.8001V14.1334H22.6001C22.3201 14.1334 22.0801 14.0401 21.8867 13.8467C21.6934 13.6534 21.6001 13.4201 21.6001 13.1334V10.3334C21.6001 10.0467 21.6934 9.81341 21.8867 9.62008C22.0801 9.42675 22.3134 9.33341 22.6001 9.33341H25.6001C25.8334 9.33341 26.0201 9.40675 26.1734 9.56008C26.3267 9.71341 26.4001 9.90008 26.4001 10.1334C26.4001 10.3667 26.3267 10.5534 26.1734 10.7067C26.0201 10.8601 25.8334 10.9334 25.6001 10.9334H23.2001V12.5334H25.4001Z" fill="#222343"/>
<g opacity="0.2">
<path d="M25.5999 10.9333C25.8333 10.9333 26.0199 10.8599 26.1733 10.7066C26.3266 10.5533 26.3999 10.3666 26.3999 10.1333C26.3999 9.89992 26.3266 9.71325 26.1733 9.55992C26.0199 9.40659 25.8333 9.33325 25.5999 9.33325H22.5999C22.3199 9.33325 22.0799 9.42659 21.8866 9.61992C21.6933 9.81325 21.5999 10.0466 21.5999 10.3333V13.1333C21.5999 13.4199 21.6933 13.6533 21.8866 13.8466C22.0799 14.0399 22.3133 14.1333 22.5999 14.1333H24.7999V15.7333H22.3999C22.1666 15.7333 21.9799 15.8066 21.8266 15.9599C21.6733 16.1133 21.5999 16.2999 21.5999 16.5333C21.5999 16.7666 21.6733 16.9533 21.8266 17.1066C21.9799 17.2599 22.1666 17.3333 22.3999 17.3333H25.3999C25.6799 17.3333 25.9199 17.2399 26.1133 17.0466C26.3066 16.8533 26.3999 16.6199 26.3999 16.3333V13.5333C26.3999 13.2466 26.3066 13.0133 26.1133 12.8199C25.9199 12.6266 25.6866 12.5333 25.3999 12.5333H23.1999V10.9333H25.5999Z" fill="#222343"/>
<path d="M18.8667 9.33325H13.1333C12.8 9.33325 12.5267 9.43992 12.3133 9.65325C12.1 9.86659 12 10.1333 12 10.4666V16.5333C12 16.7666 12.0733 16.9533 12.2267 17.1066C12.38 17.2599 12.5667 17.3333 12.8 17.3333C13.0333 17.3333 13.22 17.2599 13.3733 17.1066C13.5267 16.9533 13.6 16.7666 13.6 16.5333V10.9333H15.2V15.1333C15.2 15.3666 15.2733 15.5533 15.4267 15.7066C15.58 15.8599 15.7667 15.9333 16 15.9333C16.2333 15.9333 16.42 15.8599 16.5733 15.7066C16.7267 15.5533 16.8 15.3666 16.8 15.1333V10.9333H18.4V16.5333C18.4 16.7666 18.4733 16.9533 18.6267 17.1066C18.78 17.2599 18.9667 17.3333 19.2 17.3333C19.4333 17.3333 19.62 17.2599 19.7733 17.1066C19.9267 16.9533 20 16.7666 20 16.5333V10.4666C20 10.1333 19.8933 9.85992 19.68 9.65325C19.4667 9.43992 19.2 9.33325 18.8667 9.33325Z" fill="#222343"/>
<path d="M9.59985 10.9333C9.83319 10.9333 10.0199 10.86 10.1732 10.7066C10.3265 10.5533 10.3999 10.3666 10.3999 10.1333C10.3999 9.89996 10.3265 9.71329 10.1732 9.55996C10.0199 9.40663 9.83319 9.33329 9.59985 9.33329H6.59985C6.31985 9.33329 6.07985 9.42663 5.88652 9.61996C5.69319 9.81329 5.59985 10.0466 5.59985 10.3333V13.1333C5.59985 13.42 5.69319 13.6533 5.88652 13.8466C6.07985 14.04 6.31319 14.1333 6.59985 14.1333H8.79985V15.7333H6.39985C6.16652 15.7333 5.97985 15.8066 5.82652 15.96C5.67319 16.1133 5.59985 16.3 5.59985 16.5333C5.59985 16.7666 5.67319 16.9533 5.82652 17.1066C5.97985 17.26 6.16652 17.3333 6.39985 17.3333H9.39985C9.67985 17.3333 9.91985 17.24 10.1132 17.0466C10.3065 16.8533 10.3999 16.62 10.3999 16.3333V13.5333C10.3999 13.2466 10.3065 13.0133 10.1132 12.82C9.91985 12.6266 9.68652 12.5333 9.39985 12.5333H7.19985V10.9333H9.59985Z" fill="#222343"/>
</g>
</svg>
