<svg width="32" height="32" viewBox="0 0 32 32" fill="none" xmlns="http://www.w3.org/2000/svg">
<path opacity="0.85" d="M28.72 3.28675C28.3066 2.87341 27.8466 2.66675 27.3333 2.66675H4.66663C4.13329 2.66675 3.66663 2.87341 3.26663 3.28675C2.86663 3.70008 2.66663 4.16008 2.66663 4.66675V26.9334C2.66663 27.3801 2.87329 27.6801 3.27996 27.8534C3.69329 28.0201 4.05329 27.9467 4.35996 27.6401L7.99329 24.0067H27.3266C27.84 24.0067 28.3 23.8001 28.7133 23.3867C29.1266 22.9734 29.3266 22.5134 29.3266 22.0067V4.66675C29.3266 4.15341 29.12 3.69341 28.7133 3.28675H28.72ZM10.3133 18.3201C10.06 18.5734 9.73996 18.7001 9.36663 18.7001C8.99329 18.7001 8.67329 18.5734 8.41996 18.3201C8.16663 18.0667 8.03329 17.7467 8.03329 17.3667C8.03329 16.9867 8.15996 16.6734 8.41996 16.4134C8.67996 16.1534 8.99329 16.0334 9.36663 16.0334C9.73996 16.0334 10.06 16.1601 10.3133 16.4134C10.5666 16.6667 10.7 16.9867 10.7 17.3667C10.7 17.7467 10.5733 18.0601 10.3133 18.3201ZM10.3133 14.3134C10.06 14.5667 9.73996 14.7001 9.36663 14.7001C8.99329 14.7001 8.67329 14.5734 8.41996 14.3134C8.16663 14.0601 8.03329 13.7401 8.03329 13.3667C8.03329 12.9934 8.15996 12.6734 8.41996 12.4134C8.67996 12.1534 8.99329 12.0334 9.36663 12.0334C9.73996 12.0334 10.06 12.1601 10.3133 12.4134C10.5666 12.6667 10.7 12.9867 10.7 13.3667C10.7 13.7467 10.5733 14.0601 10.3133 14.3134ZM10.3133 10.3134C10.06 10.5667 9.73996 10.7001 9.36663 10.7001C8.99329 10.7001 8.67329 10.5734 8.41996 10.3134C8.16663 10.0601 8.03329 9.74008 8.03329 9.36675C8.03329 8.99341 8.15996 8.67341 8.41996 8.41341C8.67996 8.15341 8.99329 8.03341 9.36663 8.03341C9.73996 8.03341 10.06 8.16008 10.3133 8.41341C10.5666 8.66675 10.7 8.98675 10.7 9.36675C10.7 9.74675 10.5733 10.0601 10.3133 10.3134ZM19.72 18.0801C19.5333 18.2667 19.2933 18.3667 19 18.3667H14.3333C14.0466 18.3667 13.8066 18.2734 13.6133 18.0801C13.42 17.8867 13.3333 17.6534 13.3333 17.3667C13.3333 17.0801 13.4266 16.8401 13.6133 16.6534C13.8 16.4667 14.04 16.3667 14.3333 16.3667H19C19.2866 16.3667 19.5266 16.4601 19.72 16.6534C19.9066 16.8401 20 17.0801 20 17.3667C20 17.6534 19.9066 17.8934 19.72 18.0801ZM23.7466 14.0801C23.56 14.2667 23.32 14.3667 23.0266 14.3667H14.3266C14.04 14.3667 13.8 14.2734 13.6066 14.0801C13.4133 13.8867 13.3266 13.6534 13.3266 13.3667C13.3266 13.0801 13.42 12.8401 13.6066 12.6467C13.7933 12.4534 14.0333 12.3667 14.3266 12.3667H23.0266C23.3133 12.3667 23.5533 12.4601 23.7466 12.6467C23.94 12.8334 24.0266 13.0734 24.0266 13.3667C24.0266 13.6601 23.9333 13.8934 23.7466 14.0801ZM23.7466 10.0801C23.56 10.2667 23.32 10.3667 23.0266 10.3667H14.3266C14.04 10.3667 13.8 10.2734 13.6066 10.0801C13.4133 9.88675 13.3266 9.65341 13.3266 9.36675C13.3266 9.08008 13.42 8.84008 13.6066 8.64675C13.7933 8.45341 14.0333 8.36675 14.3266 8.36675H23.0266C23.3133 8.36675 23.5533 8.46008 23.7466 8.64675C23.94 8.83341 24.0266 9.07341 24.0266 9.36675C24.0266 9.66008 23.9333 9.89341 23.7466 10.0801Z" fill="#222343"/>
<g opacity="0.2">
<path d="M23.0333 8.36678H14.3333C14.0467 8.36678 13.8067 8.46011 13.6133 8.64678C13.42 8.83345 13.3333 9.07345 13.3333 9.36678C13.3333 9.66011 13.4267 9.89345 13.6133 10.0801C13.8 10.2668 14.04 10.3668 14.3333 10.3668H23.0333C23.32 10.3668 23.56 10.2734 23.7533 10.0801C23.9467 9.88678 24.0333 9.65345 24.0333 9.36678C24.0333 9.08011 23.94 8.84011 23.7533 8.64678C23.5667 8.45345 23.3267 8.36678 23.0333 8.36678Z" fill="#222343"/>
<path d="M23.0333 12.3668H14.3333C14.0467 12.3668 13.8067 12.4601 13.6133 12.6468C13.42 12.8334 13.3333 13.0734 13.3333 13.3668C13.3333 13.6601 13.4267 13.8934 13.6133 14.0801C13.8 14.2668 14.04 14.3668 14.3333 14.3668H23.0333C23.32 14.3668 23.56 14.2734 23.7533 14.0801C23.9467 13.8868 24.0333 13.6534 24.0333 13.3668C24.0333 13.0801 23.94 12.8401 23.7533 12.6468C23.5667 12.4534 23.3267 12.3668 23.0333 12.3668Z" fill="#222343"/>
<path d="M19 16.3668H14.3333C14.0467 16.3668 13.8067 16.4601 13.6133 16.6534C13.4267 16.8401 13.3333 17.0801 13.3333 17.3668C13.3333 17.6534 13.4267 17.8934 13.6133 18.0801C13.8 18.2668 14.04 18.3668 14.3333 18.3668H19C19.2867 18.3668 19.5267 18.2734 19.72 18.0801C19.9133 17.8868 20 17.6534 20 17.3668C20 17.0801 19.9067 16.8401 19.72 16.6534C19.5333 16.4668 19.2933 16.3668 19 16.3668Z" fill="#222343"/>
<path d="M9.36666 8.03345C8.98666 8.03345 8.67333 8.16011 8.41999 8.41345C8.16666 8.66678 8.03333 8.98678 8.03333 9.36678C8.03333 9.74678 8.15999 10.0601 8.41999 10.3134C8.67333 10.5668 8.99333 10.7001 9.36666 10.7001C9.73999 10.7001 10.06 10.5734 10.3133 10.3134C10.5667 10.0601 10.7 9.74011 10.7 9.36678C10.7 8.99345 10.5733 8.67345 10.3133 8.41345C10.06 8.16011 9.73999 8.03345 9.36666 8.03345Z" fill="#222343"/>
<path d="M9.36666 12.0334C8.98666 12.0334 8.67333 12.1601 8.41999 12.4134C8.16666 12.6668 8.03333 12.9868 8.03333 13.3668C8.03333 13.7468 8.15999 14.0601 8.41999 14.3134C8.67333 14.5668 8.99333 14.7001 9.36666 14.7001C9.73999 14.7001 10.06 14.5734 10.3133 14.3134C10.5667 14.0601 10.7 13.7401 10.7 13.3668C10.7 12.9934 10.5733 12.6734 10.3133 12.4134C10.06 12.1601 9.73999 12.0334 9.36666 12.0334Z" fill="#222343"/>
<path d="M9.36666 16.0334C8.98666 16.0334 8.67333 16.1601 8.41999 16.4134C8.16666 16.6668 8.03333 16.9868 8.03333 17.3668C8.03333 17.7468 8.15999 18.0601 8.41999 18.3201C8.67999 18.5801 8.99333 18.7001 9.36666 18.7001C9.73999 18.7001 10.06 18.5734 10.3133 18.3201C10.5667 18.0668 10.7 17.7468 10.7 17.3668C10.7 16.9868 10.5733 16.6734 10.3133 16.4134C10.06 16.1601 9.73999 16.0334 9.36666 16.0334Z" fill="#222343"/>
</g>
</svg>
