<svg width="32" height="32" viewBox="0 0 32 32" fill="none" xmlns="http://www.w3.org/2000/svg">
<path opacity="0.52" d="M22.6667 12C22.6667 13.84 21.1733 15.3333 19.3333 15.3333C17.4933 15.3333 16 13.84 16 12C16 13.84 14.5067 15.3333 12.6667 15.3333C10.8267 15.3333 9.33333 13.84 9.33333 12C9.33333 13.9467 7.66 15.5067 5.67333 15.32C5.04 15.26 4.47333 15.0133 4 14.64V26.0067C4 27.1133 4.89333 28.0067 6 28.0067H26C27.1067 28.0067 28 27.1133 28 26.0067V14.66C27.44 15.08 26.7533 15.34 26 15.34C24.16 15.34 22.6667 13.8467 22.6667 12.0067V12Z" fill="#222343"/>
<g opacity="0.85">
<path d="M6.68663 4C5.86663 4 5.13329 4.5 4.82663 5.26L2.80663 10.3133C2.71329 10.5467 2.66663 10.8 2.66663 11.0533V11.86C2.66663 13.6 3.93996 15.16 5.67329 15.32C7.65996 15.5067 9.33329 13.9533 9.33329 12V10.6667L10.6666 4H6.68663Z" fill="#222343"/>
<path d="M22.6666 10.6667L21.3333 4H16V12C16 13.84 17.4933 15.3333 19.3333 15.3333C21.1733 15.3333 22.6666 13.84 22.6666 12V10.6667Z" fill="#222343"/>
</g>
<path d="M16 4.00008H10.6666L9.33329 10.6667V12.0001C9.33329 13.8401 10.8266 15.3334 12.6666 15.3334C14.5066 15.3334 16 13.8401 16 12.0001V4.00008Z" fill="#222343"/>
<path d="M29.1933 10.3067L27.1733 5.25341C26.8666 4.49341 26.1333 3.99341 25.3133 3.99341H21.3333L22.6666 10.6601V11.9934C22.6666 13.8334 24.16 15.3267 26 15.3267C27.84 15.3267 29.3333 13.8334 29.3333 11.9934V11.0467C29.3333 10.7934 29.2866 10.5401 29.1933 10.3067Z" fill="#222343"/>
<path d="M7.66663 17.3334H15C15.5533 17.3334 16 17.7801 16 18.3334V28.0001H6.66663V18.3334C6.66663 17.7801 7.11329 17.3334 7.66663 17.3334Z" fill="#222343"/>
<path d="M24.3333 17.3334H18.3333C17.781 17.3334 17.3333 17.7811 17.3333 18.3334V23.0001C17.3333 23.5524 17.781 24.0001 18.3333 24.0001H24.3333C24.8856 24.0001 25.3333 23.5524 25.3333 23.0001V18.3334C25.3333 17.7811 24.8856 17.3334 24.3333 17.3334Z" fill="#222343"/>
</svg>
