<svg width="32" height="32" viewBox="0 0 32 32" fill="none" xmlns="http://www.w3.org/2000/svg">
<path opacity="0.52" d="M6.61328 22.5599L16.0199 27.9999L25.4599 22.5599L16.0199 17.0266L6.61328 22.5599Z" fill="#222343"/>
<path opacity="0.32" d="M6.61328 22.5601L16.0199 17.0268L25.46 22.5601V13.2401L16.0199 7.77344L6.61328 13.2401V22.5601Z" fill="#222343"/>
<path opacity="0.52" d="M16.0199 18.66L6.61328 13.24V22.56L16.0199 28L25.46 22.56V13.24L16.0199 18.66Z" fill="#222343"/>
<g opacity="0.85">
<path d="M3.26001 17.36L12.6667 22.8L16.02 18.66L6.61334 13.24L3.26001 17.36Z" fill="#222343"/>
<path d="M28.8067 17.36L19.4 22.8L16.02 18.66L25.46 13.24L28.8067 17.36Z" fill="#222343"/>
</g>
<g opacity="0.52">
<path d="M16.02 7.77326L25.46 13.2399L29.1866 12.9266L19.78 7.50659L16.02 7.77326Z" fill="#222343"/>
<path d="M16.02 7.77326L6.61329 13.2399L2.87329 12.9266L12.28 7.50659L16.02 7.77326Z" fill="#222343"/>
</g>
<path d="M12.4 5.82669L14.8667 4.66003L16.0333 2.19336L17.2 4.66003L19.6667 5.82669L17.2 6.99336L16.0333 9.46003L14.8667 6.99336L12.4 5.82669ZM6.93335 10.3734L8.60002 9.60669L9.36668 7.94003L10.1333 9.60669L11.8 10.3734L10.1333 11.14L9.36668 12.8067L8.60002 11.14L6.93335 10.3734ZM20.2667 10.3734L21.9334 9.60669L22.7 7.94003L23.4667 9.60669L25.1334 10.3734L23.4667 11.14L22.7 12.8067L21.9334 11.14L20.2667 10.3734ZM13.6 13.24L15.2667 12.4734L16.0333 10.8067L16.8 12.4734L18.4667 13.24L16.8 14.0067L16.0333 15.6734L15.2667 14.0067L13.6 13.24Z" fill="#222343"/>
</svg>
