<svg width="32" height="32" viewBox="0 0 32 32" fill="none" xmlns="http://www.w3.org/2000/svg">
<path opacity="0.52" d="M3.89999 8.99325C3.54665 8.99325 3.28665 8.86659 3.13332 8.61325C2.97999 8.35992 2.98665 8.07325 3.16665 7.76659C4.03332 6.09992 5.58665 4.61325 7.83332 3.29992C10.08 1.98659 12.7867 1.33325 15.9667 1.33325C18.12 1.33325 20.2 1.73325 22.2 2.53325C24.2 3.33325 26.0133 4.39992 27.6333 5.73325V3.66659C27.6333 3.41992 27.7133 3.21992 27.8667 3.06659C28.02 2.91325 28.22 2.83325 28.4667 2.83325C28.7133 2.83325 28.9133 2.91325 29.0667 3.06659C29.22 3.21992 29.3 3.41992 29.3 3.66659V8.16659C29.3 8.45325 29.2067 8.69325 29.02 8.87992C28.8333 9.06659 28.5933 9.16659 28.3 9.16659H23.8C23.5533 9.16659 23.3533 9.08659 23.2 8.93325C23.0467 8.77992 22.9667 8.57992 22.9667 8.33325C22.9667 8.08659 23.0467 7.88659 23.2 7.73325C23.3533 7.57992 23.5533 7.49992 23.8 7.49992H27.1C25.5667 6.16659 23.84 5.08659 21.9133 4.24659C19.9933 3.41325 18.0067 2.99325 15.9667 2.99325C12.9867 2.99325 10.5267 3.59325 8.58665 4.79325C6.63999 5.99325 5.32665 7.23992 4.63332 8.52659C4.56665 8.65992 4.45999 8.77325 4.31999 8.85992C4.17332 8.94659 4.03332 8.99325 3.90665 8.99325H3.89999Z" fill="#222343"/>
<path d="M14.6667 30.6599C14.2867 30.6599 13.9334 30.5866 13.6001 30.4399C13.2667 30.2932 12.9801 30.0999 12.7334 29.8532L7.70006 24.5199C7.41339 24.2066 7.26672 23.8532 7.26672 23.4532C7.26672 23.0532 7.38006 22.7199 7.60006 22.4532C7.84672 22.1666 8.13339 21.9732 8.46672 21.8866C8.80006 21.7999 9.15339 21.7999 9.53339 21.8866L13.3334 22.7199V8.65991C13.3334 8.07991 13.5201 7.60658 13.9001 7.22658C14.2801 6.84658 14.7534 6.65991 15.3334 6.65991C15.9134 6.65991 16.3867 6.84658 16.7667 7.22658C17.1467 7.60658 17.3334 8.07991 17.3334 8.65991V16.6599H18.5334C18.7801 16.6599 18.9867 16.6732 19.1667 16.7132C19.3467 16.7466 19.5334 16.8199 19.7334 16.9332L25.1667 19.6666C25.7001 19.9332 26.1001 20.3199 26.3667 20.8332C26.6334 21.3466 26.7201 21.8866 26.6334 22.4666L25.7667 28.4666C25.6534 29.1132 25.3467 29.6399 24.8334 30.0532C24.3201 30.4666 23.7467 30.6666 23.1001 30.6666H14.6667V30.6599Z" fill="#222343"/>
</svg>
