<svg width="32" height="32" viewBox="0 0 32 32" fill="none" xmlns="http://www.w3.org/2000/svg">
<path opacity="0.85" fill-rule="evenodd" clip-rule="evenodd" d="M4.99893 27.4C5.39893 27.8 5.86559 28 6.39893 28H19.5852C19.5853 28 19.5852 28 19.5852 28L23.826 28.0001C23.8213 27.9638 23.819 27.926 23.819 27.8866V27.4533C23.1056 27.3666 22.4923 27.1533 21.9857 26.8266C21.8723 26.7533 21.7856 26.6733 21.739 26.5866C21.6923 26.4999 21.6656 26.3799 21.6656 26.2266C21.6656 26.0333 21.719 25.8666 21.8323 25.7266C21.9457 25.5866 22.079 25.5133 22.2323 25.5133C22.3123 25.5133 22.3856 25.5266 22.4656 25.5533C22.5456 25.5799 22.6456 25.6266 22.7656 25.6999C23.0456 25.8533 23.3123 25.9666 23.559 26.0266C23.8057 26.0866 24.0656 26.1199 24.339 26.1199C24.679 26.1199 24.939 26.0666 25.1123 25.9533C25.2923 25.8399 25.379 25.6733 25.379 25.4466C25.379 25.3133 25.3256 25.1999 25.219 25.1133C25.1123 25.0266 24.979 24.9599 24.8256 24.9066C24.6931 24.8605 24.5009 24.8094 24.2575 24.7448L24.139 24.7133C23.659 24.5933 23.259 24.4666 22.9523 24.3399C22.6457 24.2133 22.379 24.0199 22.1523 23.7533C21.9256 23.4866 21.8123 23.1266 21.8123 22.6799C21.8123 22.1666 21.9923 21.7199 22.3523 21.3399C22.7123 20.9599 23.1856 20.7066 23.779 20.5866V20.1066C23.779 19.9133 23.8456 19.7533 23.9723 19.6266C24.099 19.4999 24.259 19.4399 24.4523 19.4399C24.6457 19.4399 24.8123 19.4999 24.939 19.6266C25.0657 19.7466 25.1256 19.9066 25.1256 20.1066V20.5599C25.659 20.6466 26.179 20.8466 26.6856 21.1666C26.799 21.2466 26.8856 21.3266 26.9323 21.4199C26.979 21.5133 27.0056 21.6266 27.0056 21.7599C27.0056 21.9533 26.9457 22.1199 26.8323 22.2599C26.719 22.3999 26.579 22.4733 26.4256 22.4733C26.3456 22.4733 26.2723 22.4599 26.2056 22.4333C26.1323 22.4066 26.0323 22.3599 25.899 22.2866C25.8523 22.2599 25.7523 22.2066 25.599 22.1266C25.4456 22.0466 25.279 21.9799 25.099 21.9333C24.9256 21.8866 24.7323 21.8599 24.5323 21.8599C24.2456 21.8599 24.0056 21.9199 23.8256 22.0466C23.6456 22.1733 23.559 22.3399 23.559 22.5533C23.559 22.7666 23.659 22.9133 23.8657 23.0133C24.0723 23.1133 24.3923 23.2199 24.839 23.3199C25.3123 23.4266 25.7056 23.5466 26.0123 23.6666C26.319 23.7866 26.579 23.9866 26.8056 24.2533C27.0323 24.5199 27.139 24.8866 27.139 25.3399C27.139 25.8599 26.959 26.3066 26.6056 26.6733V26.6933C26.2457 27.0599 25.7656 27.2999 25.1656 27.4133V27.8866C25.1656 27.926 25.1633 27.9638 25.1586 28.0001H26.3989C26.9323 28.0001 27.3989 27.8001 27.7989 27.4001C28.1989 27.0001 28.3989 26.5334 28.3989 26.0001V6C28.3989 5.46667 28.1989 5 27.7989 4.6C27.3989 4.2 26.9323 4 26.3989 4H6.39893C5.86559 4 5.39893 4.2 4.99893 4.6C4.59893 5 4.39893 5.46667 4.39893 6V26C4.39893 26.5333 4.59893 27 4.99893 27.4ZM22.1655 11.3H10.6322C10.3455 11.3 10.1055 11.2066 9.91887 11.02C9.72554 10.8333 9.6322 10.5933 9.6322 10.3066C9.6322 10.02 9.7322 9.77997 9.91887 9.59331C10.1055 9.39997 10.3455 9.30664 10.6322 9.30664H22.1655C22.4589 9.30664 22.6989 9.40664 22.8855 9.59331C23.0722 9.77997 23.1655 10.02 23.1655 10.3066C23.1655 10.5933 23.0789 10.8333 22.8855 11.02C22.6922 11.2066 22.4522 11.3 22.1655 11.3ZM10.6322 17H22.1655C22.4522 17 22.6922 16.9066 22.8855 16.72C23.0722 16.5333 23.1655 16.2933 23.1655 16C23.1655 15.7066 23.0722 15.4733 22.8855 15.28C22.6989 15.0933 22.4589 15 22.1655 15H10.6322C10.3455 15 10.1055 15.0933 9.91887 15.28C9.7322 15.4666 9.6322 15.7066 9.6322 16C9.6322 16.2933 9.72554 16.5266 9.91887 16.72C10.1055 16.9066 10.3455 17 10.6322 17ZM10.6322 22.7H15.6922C15.9789 22.7 16.2189 22.6066 16.4122 22.42C16.6055 22.2333 16.6922 21.9933 16.6922 21.7C16.6922 21.4066 16.5989 21.1733 16.4122 20.98C16.2255 20.7866 15.9855 20.6933 15.6922 20.7H10.6322C10.3455 20.7 10.1055 20.7933 9.91887 20.98C9.7322 21.1666 9.63887 21.4066 9.6322 21.7C9.6322 21.9866 9.72554 22.2266 9.91887 22.42C10.1055 22.6066 10.3455 22.7 10.6322 22.7Z" fill="currentColor"/>
<path opacity="0.52" d="M18.1323 24.0334C18.1323 22.3001 18.7456 20.8134 19.9656 19.5801C20.279 19.2668 20.6123 18.9868 20.959 18.7534C20.1056 19.0534 19.3256 19.5468 18.6323 20.2468C17.4123 21.4801 16.799 22.9668 16.799 24.7001C16.799 25.9201 17.1256 27.0201 17.759 28.0001H19.5923C18.619 26.8601 18.1323 25.5334 18.1323 24.0334Z" fill="currentColor"/>
<g opacity="0.2">
<path d="M26.6056 26.6933C26.2456 27.0599 25.7657 27.2999 25.1657 27.4133V27.8866C25.1657 28.0866 25.1056 28.2466 24.979 28.3666C24.8523 28.4866 24.6923 28.5466 24.4923 28.5466C24.2923 28.5466 24.1323 28.4866 24.0056 28.3666C23.879 28.2466 23.819 28.0866 23.819 27.8866V27.4533C23.1056 27.3666 22.4923 27.1533 21.9857 26.8266C21.8723 26.7533 21.7856 26.6733 21.739 26.5866C21.6923 26.4999 21.6656 26.3799 21.6656 26.2266C21.6656 26.0333 21.719 25.8666 21.8323 25.7266C21.9457 25.5866 22.079 25.5133 22.2323 25.5133C22.3123 25.5133 22.3856 25.5266 22.4656 25.5533C22.5456 25.5799 22.6456 25.6266 22.7656 25.6999C23.0456 25.8533 23.3123 25.9666 23.559 26.0266C23.8057 26.0866 24.0656 26.1199 24.339 26.1199C24.679 26.1199 24.939 26.0666 25.1123 25.9533C25.2923 25.8399 25.379 25.6733 25.379 25.4466C25.379 25.3133 25.3256 25.1999 25.219 25.1133C25.1123 25.0266 24.979 24.9599 24.8256 24.9066C24.6723 24.8533 24.439 24.7933 24.139 24.7133C23.659 24.5933 23.259 24.4666 22.9523 24.3399C22.6457 24.2133 22.379 24.0199 22.1523 23.7533C21.9257 23.4866 21.8123 23.1266 21.8123 22.6799C21.8123 22.1666 21.9923 21.7199 22.3523 21.3399C22.7123 20.9599 23.1856 20.7066 23.779 20.5866V20.1066C23.779 19.9133 23.8457 19.7533 23.9723 19.6266C24.099 19.4999 24.259 19.4399 24.4523 19.4399C24.6457 19.4399 24.8123 19.4999 24.939 19.6266C25.0657 19.7466 25.1256 19.9066 25.1256 20.1066V20.5599C25.659 20.6466 26.179 20.8466 26.6856 21.1666C26.799 21.2466 26.8856 21.3266 26.9323 21.4199C26.979 21.5133 27.0056 21.6266 27.0056 21.7599C27.0056 21.9533 26.9457 22.1199 26.8323 22.2599C26.719 22.3999 26.579 22.4733 26.4256 22.4733C26.3456 22.4733 26.2723 22.4599 26.2056 22.4333C26.1323 22.4066 26.0323 22.3599 25.899 22.2866C25.8523 22.2599 25.7523 22.2066 25.599 22.1266C25.4456 22.0466 25.279 21.9799 25.099 21.9333C24.9256 21.8866 24.7323 21.8599 24.5323 21.8599C24.2456 21.8599 24.0056 21.9199 23.8256 22.0466C23.6456 22.1733 23.559 22.3399 23.559 22.5533C23.559 22.7666 23.659 22.9133 23.8657 23.0133C24.0723 23.1133 24.3923 23.2199 24.839 23.3199C25.3123 23.4266 25.7056 23.5466 26.0123 23.6666C26.319 23.7866 26.579 23.9866 26.8056 24.2533C27.0323 24.5199 27.139 24.8866 27.139 25.3399C27.139 25.8599 26.959 26.3066 26.6056 26.6733V26.6933Z" fill="currentColor"/>
<path d="M10.6322 22.7H15.6922C15.9789 22.7 16.2189 22.6066 16.4122 22.42C16.6055 22.2333 16.6922 21.9933 16.6922 21.7C16.6922 21.4066 16.5989 21.1733 16.4122 20.98C16.2255 20.7866 15.9855 20.6933 15.6922 20.7H10.6322C10.3455 20.7 10.1055 20.7933 9.91887 20.98C9.7322 21.1666 9.63887 21.4066 9.6322 21.7C9.6322 21.9866 9.72554 22.2266 9.91887 22.42C10.1055 22.6066 10.3455 22.7 10.6322 22.7Z" fill="currentColor"/>
<path d="M10.6322 17H22.1655C22.4522 17 22.6922 16.9066 22.8855 16.72C23.0722 16.5333 23.1655 16.2933 23.1655 16C23.1655 15.7066 23.0722 15.4733 22.8855 15.28C22.6989 15.0933 22.4589 15 22.1655 15H10.6322C10.3455 15 10.1055 15.0933 9.91887 15.28C9.7322 15.4666 9.6322 15.7066 9.6322 16C9.6322 16.2933 9.72554 16.5266 9.91887 16.72C10.1055 16.9066 10.3455 17 10.6322 17Z" fill="currentColor"/>
<path d="M10.6322 11.3H22.1655C22.4522 11.3 22.6922 11.2066 22.8855 11.02C23.0789 10.8333 23.1655 10.5933 23.1655 10.3066C23.1655 10.02 23.0722 9.77997 22.8855 9.59331C22.6989 9.40664 22.4589 9.30664 22.1655 9.30664H10.6322C10.3455 9.30664 10.1055 9.39997 9.91887 9.59331C9.7322 9.77997 9.6322 10.02 9.6322 10.3066C9.6322 10.5933 9.72554 10.8333 9.91887 11.02C10.1055 11.2066 10.3455 11.3 10.6322 11.3Z" fill="currentColor"/>
</g>
<path fill-rule="evenodd" clip-rule="evenodd" d="M28.3989 19.1975C28.5395 19.3176 28.6773 19.4448 28.8122 19.5797C30.0522 20.813 30.6655 22.3464 30.6655 24.033C30.6655 25.7197 30.0455 27.1797 28.8122 28.413C27.5855 29.6464 26.1322 30.2597 24.3989 30.2597C22.6655 30.2597 21.1855 29.6464 19.9655 28.413C19.8316 28.2776 19.705 28.14 19.5856 28.0001C18.6185 26.8656 18.1322 25.5763 18.1322 24.0334C18.1322 22.3001 18.7455 20.8134 19.9655 19.5801C21.1855 18.3467 22.6922 17.7334 24.3989 17.7334C25.9189 17.7334 27.2538 18.2198 28.3989 19.1975ZM23.826 27.9997C23.8213 27.9636 23.819 27.9259 23.819 27.8866V27.4533C23.1056 27.3666 22.4923 27.1533 21.9857 26.8266C21.8723 26.7533 21.7856 26.6733 21.739 26.5866C21.6923 26.4999 21.6656 26.3799 21.6656 26.2266C21.6656 26.0333 21.719 25.8666 21.8323 25.7266C21.9457 25.5866 22.079 25.5133 22.2323 25.5133C22.3123 25.5133 22.3856 25.5266 22.4656 25.5533C22.5456 25.5799 22.6456 25.6266 22.7656 25.6999C23.0456 25.8533 23.3123 25.9666 23.559 26.0266C23.8057 26.0866 24.0656 26.1199 24.339 26.1199C24.679 26.1199 24.939 26.0666 25.1123 25.9533C25.2923 25.8399 25.379 25.6733 25.379 25.4466C25.379 25.3133 25.3256 25.1999 25.219 25.1133C25.1123 25.0266 24.979 24.9599 24.8256 24.9066C24.6931 24.8605 24.5009 24.8094 24.2575 24.7448L24.139 24.7133C23.659 24.5933 23.259 24.4666 22.9523 24.3399C22.6457 24.2133 22.379 24.0199 22.1523 23.7533C21.9256 23.4866 21.8123 23.1266 21.8123 22.6799C21.8123 22.1666 21.9923 21.7199 22.3523 21.3399C22.7123 20.9599 23.1856 20.7066 23.779 20.5866V20.1066C23.779 19.9133 23.8456 19.7533 23.9723 19.6266C24.099 19.4999 24.259 19.4399 24.4523 19.4399C24.6457 19.4399 24.8123 19.4999 24.939 19.6266C25.0657 19.7466 25.1256 19.9066 25.1256 20.1066V20.5599C25.659 20.6466 26.179 20.8466 26.6856 21.1666C26.799 21.2466 26.8856 21.3266 26.9323 21.4199C26.979 21.5133 27.0056 21.6266 27.0056 21.7599C27.0056 21.9533 26.9457 22.1199 26.8323 22.2599C26.719 22.3999 26.579 22.4733 26.4256 22.4733C26.3456 22.4733 26.2723 22.4599 26.2056 22.4333C26.1323 22.4066 26.0323 22.3599 25.899 22.2866C25.8523 22.2599 25.7523 22.2066 25.599 22.1266C25.4456 22.0466 25.279 21.9799 25.099 21.9333C24.9256 21.8866 24.7323 21.8599 24.5323 21.8599C24.2456 21.8599 24.0056 21.9199 23.8256 22.0466C23.6456 22.1733 23.559 22.3399 23.559 22.5533C23.559 22.7666 23.659 22.9133 23.8657 23.0133C24.0723 23.1133 24.3923 23.2199 24.839 23.3199C25.3123 23.4266 25.7056 23.5466 26.0123 23.6666C26.319 23.7866 26.579 23.9866 26.8056 24.2533C27.0323 24.5199 27.139 24.8866 27.139 25.3399C27.139 25.8599 26.959 26.3066 26.6056 26.6733V26.6933C26.2457 27.0599 25.7656 27.2999 25.1656 27.4133V27.8866C25.1656 27.9259 25.1633 27.9636 25.1587 27.9997C25.1395 28.1477 25.0807 28.27 24.979 28.3664C24.8523 28.4864 24.6923 28.5464 24.4923 28.5464C24.2923 28.5464 24.1323 28.4864 24.0056 28.3664C23.9039 28.27 23.8451 28.1477 23.826 27.9997Z" fill="currentColor"/>
</svg>
