<svg width="32" height="32" viewBox="0 0 32 32" fill="none" xmlns="http://www.w3.org/2000/svg">
<path opacity="0.85" d="M30.0534 11.5533C29.6401 11.14 29.1801 10.9333 28.6667 10.9333H18.0001L19.2667 4.9333C19.3534 4.5133 19.3067 4.09997 19.1134 3.69997C18.9267 3.29997 18.6401 2.98664 18.2667 2.76664C17.8867 2.54664 17.4867 2.46664 17.0467 2.5333C16.6134 2.59997 16.2401 2.78664 15.9334 3.09997L9.03341 10.3666C9.03341 10.3666 9.02675 10.38 9.02008 10.38L6.08675 13.4666H2.66675V26.1C2.66675 27.1466 3.52008 28 4.56675 28H24.0334C24.5467 28 25.0268 27.8333 25.4801 27.5C25.9334 27.1666 26.2667 26.7666 26.4667 26.3L30.3334 17.3666C30.4467 17.12 30.5268 16.84 30.5868 16.52C30.6467 16.2 30.6667 15.9133 30.6667 15.6733V12.94C30.6667 12.4266 30.4601 11.9666 30.0534 11.56V11.5533Z" fill="#222343"/>
<path opacity="0.85" d="M4.56675 10.9333C5.61341 10.9333 6.46675 11.7867 6.46675 12.8333V28H4.56675C3.52008 28 2.66675 27.1467 2.66675 26.1V12.8333C2.66675 11.7867 3.52008 10.9333 4.56675 10.9333Z" fill="#222343"/>
</svg>
