<svg width="32" height="32" viewBox="0 0 32 32" fill="none" xmlns="http://www.w3.org/2000/svg">
<path opacity="0.85" d="M15.9999 2.66998C8.63992 2.66998 2.66992 8.63998 2.66992 16C2.66992 23.36 8.63992 29.33 15.9999 29.33C23.3599 29.33 29.3299 23.36 29.3299 16C29.3299 8.63998 23.3599 2.66998 15.9999 2.66998ZM22.9499 14.59C21.5299 14.59 20.2099 14.14 19.1399 13.37V18.92C19.1399 20.87 18.0199 22.57 16.3999 23.41C15.7099 23.77 14.9299 23.97 14.0999 23.97C11.3199 23.97 9.04993 21.71 9.04993 18.92C9.04993 16.13 11.3099 13.87 14.0999 13.87C14.3299 13.87 14.5699 13.89 14.7899 13.92V16.72C14.5699 16.65 14.3399 16.61 14.0999 16.61C12.8299 16.61 11.7999 17.64 11.7999 18.91C11.7999 20.18 12.8299 21.21 14.0999 21.21C15.3699 21.21 16.3999 20.18 16.3999 18.91V8.01998H19.1399C19.1399 10.13 20.8499 11.83 22.9499 11.83V14.58V14.59Z" fill="#222343"/>
<path opacity="0.2" d="M19.14 8.03003H16.4V18.92C16.4 20.19 15.3701 21.22 14.1001 21.22C12.8301 21.22 11.8 20.19 11.8 18.92C11.8 17.65 12.8301 16.62 14.1001 16.62C14.3401 16.62 14.57 16.66 14.79 16.73V13.93C14.56 13.9 14.3301 13.88 14.1001 13.88C11.3201 13.88 9.05005 16.14 9.05005 18.93C9.05005 21.72 11.3101 23.98 14.1001 23.98C14.9301 23.98 15.71 23.78 16.4 23.42C18.03 22.58 19.14 20.88 19.14 18.93V13.38C20.21 14.15 21.53 14.6 22.95 14.6V11.85C20.85 11.85 19.14 10.14 19.14 8.04003V8.03003Z" fill="#222343"/>
</svg>
