<svg width="32" height="32" viewBox="0 0 32 32" fill="none" xmlns="http://www.w3.org/2000/svg">
<path opacity="0.52" d="M16 29.3332C14.1134 29.3332 12.3534 28.9932 10.7334 28.3132C9.11337 27.6332 7.70003 26.6932 6.50003 25.4932C5.30003 24.2932 4.36003 22.8799 3.68003 21.2599C3.00003 19.6399 2.66003 17.8799 2.66003 15.9932C2.66003 14.1066 3.00003 12.3799 3.68003 10.7599C4.36003 9.13991 5.30003 7.72658 6.50003 6.52658C7.70003 5.32658 9.11337 4.37991 10.7334 3.69325C12.3534 3.00658 14.1134 2.65991 16 2.65991C17.8867 2.65991 19.6134 3.00658 21.2334 3.69325C22.8534 4.37991 24.2667 5.32658 25.4667 6.52658C26.6667 7.72658 27.6134 9.13991 28.3 10.7599C28.9867 12.3799 29.3334 14.1266 29.3334 15.9932C29.3334 17.8599 28.9867 19.6399 28.3 21.2599C27.6134 22.8799 26.6667 24.2932 25.4667 25.4932C24.2667 26.6932 22.8534 27.6332 21.2334 28.3132C19.6134 28.9932 17.8667 29.3332 16 29.3332Z" fill="#222343"/>
<path d="M10.5 23.4666C11.28 24.0866 12.14 24.5533 13.0867 24.8666C14.0334 25.18 15.0067 25.3333 16.0067 25.3333C18.6067 25.3333 20.8133 24.4266 22.6267 22.6133C24.44 20.8 25.3467 18.5933 25.3467 15.9933C25.3467 13.5933 24.56 11.52 22.9934 9.77331C21.4267 8.02665 19.4867 7.01331 17.1734 6.71998C16.86 6.67331 16.5867 6.76665 16.3534 6.98665C16.12 7.20665 16 7.48665 16 7.81998V15.9866L10.4334 21.82C10.1867 22.0666 10.08 22.3466 10.1 22.6733C10.12 23 10.2534 23.26 10.5 23.46V23.4666Z" fill="#222343"/>
</svg>
