<svg width="32" height="32" viewBox="0 0 32 32" fill="none" xmlns="http://www.w3.org/2000/svg">
<path opacity="0.52" d="M26.0067 4.66675C27.1134 4.66675 28.0067 5.56008 28.0067 6.66675V13.0001H4.00671V6.66675C4.00671 5.56008 4.90005 4.66675 6.00671 4.66675H26.0067Z" fill="#222343"/>
<path d="M4 27.3333C4 28.44 4.89333 29.3333 6 29.3333H26C27.1067 29.3333 28 28.44 28 27.3333V13H4V27.3333ZM6.93333 15.9333C7.55333 15.3133 8.32 15 9.23333 15C10.1467 15 10.9133 15.3133 11.5333 15.9333C12.1533 16.5533 12.4667 17.32 12.4667 18.2333C12.4667 19.1467 12.1533 19.9133 11.5333 20.5333C10.9133 21.1533 10.1467 21.4667 9.23333 21.4667C8.32 21.4667 7.55333 21.1533 6.93333 20.5333C6.31333 19.9133 6 19.1467 6 18.2333C6 17.32 6.31333 16.5533 6.93333 15.9333Z" fill="#222343"/>
<path d="M10.3266 3.74675C10.3266 3.14675 9.83996 2.66675 9.24663 2.66675C8.65329 2.66675 8.16663 3.15341 8.16663 3.74675V4.66675H8.16003V5.57341C8.16003 6.17341 8.6467 6.65341 9.24003 6.65341H9.2467C9.8467 6.65341 10.3267 6.16675 10.3267 5.57341V4.66675H10.3333V3.74675H10.3266Z" fill="#222343"/>
<path d="M22.7533 2.66675C23.3467 2.66675 23.8333 3.14675 23.8333 3.74675H23.84V4.66675H23.8267V5.57341C23.8267 6.16675 23.3467 6.65341 22.7467 6.65341H22.74C22.1467 6.65341 21.66 6.17341 21.66 5.57341V4.66675H21.6733V3.74675C21.6733 3.15341 22.16 2.66675 22.7533 2.66675Z" fill="#222343"/>
<path opacity="0.2" d="M9.23333 21.4667C8.32 21.4667 7.55333 21.1533 6.93333 20.5333C6.31333 19.9133 6 19.1467 6 18.2333C6 17.32 6.31333 16.5533 6.93333 15.9333C7.55333 15.3133 8.32 15 9.23333 15C10.1467 15 10.9133 15.3133 11.5333 15.9333C12.1533 16.5533 12.4667 17.32 12.4667 18.2333C12.4667 19.1467 12.1533 19.9133 11.5333 20.5333C10.9133 21.1533 10.1467 21.4667 9.23333 21.4667Z" fill="#222343"/>
</svg>
