<svg width="32" height="32" viewBox="0 0 32 32" fill="none" xmlns="http://www.w3.org/2000/svg">
<path d="M16.0001 7.33325H2.66675C2.66675 6.79992 2.86675 6.33325 3.26675 5.93325C3.66675 5.53325 4.13341 5.33325 4.66675 5.33325H13.2001C13.4667 5.33325 13.7334 5.33325 14.0001 5.46659C14.2667 5.59992 14.4667 5.73325 14.6667 5.93325L16.0667 7.33325H16.0001Z" fill="#222343"/>
<path opacity="0.85" d="M28.7334 7.93325C28.3334 7.53325 27.8667 7.33325 27.3334 7.33325H2.66675V24.6666C2.66675 25.1999 2.86675 25.6666 3.26675 26.0666C3.66675 26.4666 4.13341 26.6666 4.66675 26.6666H27.3334C27.8667 26.6666 28.3334 26.4666 28.7334 26.0666C29.1334 25.6666 29.3334 25.1999 29.3334 24.6666V9.33325C29.3334 8.79992 29.1334 8.33325 28.7334 7.93325ZM18.0667 20.3999C17.8667 20.5999 17.6667 20.6666 17.3334 20.6666H9.33341C9.06675 20.6666 8.80008 20.5999 8.60008 20.3999C8.40008 20.1999 8.33341 19.9999 8.33341 19.6666C8.33341 19.3333 8.40008 19.1333 8.60008 18.9333C8.80008 18.7333 9.00008 18.6666 9.33341 18.6666H17.3334C17.6001 18.6666 17.8667 18.7333 18.0667 18.9333C18.2667 19.1333 18.3334 19.3333 18.3334 19.6666C18.3334 19.9999 18.2667 20.1999 18.0667 20.3999ZM23.4001 15.0666C23.2001 15.2666 23.0001 15.3333 22.6667 15.3333H9.33341C9.06675 15.3333 8.80008 15.2666 8.60008 15.0666C8.40008 14.8666 8.33341 14.6666 8.33341 14.3333C8.33341 13.9999 8.40008 13.7999 8.60008 13.5999C8.80008 13.3999 9.00008 13.3333 9.33341 13.3333H22.6667C22.9334 13.3333 23.2001 13.3999 23.4001 13.5999C23.6001 13.7999 23.6667 13.9999 23.6667 14.3333C23.6667 14.6666 23.6001 14.8666 23.4001 15.0666Z" fill="#222343"/>
<g opacity="0.2">
<path d="M23.3999 15.0666C23.1999 15.2666 22.9999 15.3333 22.6666 15.3333H9.33325C9.06659 15.3333 8.79992 15.2666 8.59992 15.0666C8.39992 14.8666 8.33325 14.6666 8.33325 14.3333C8.33325 13.9999 8.39992 13.7999 8.59992 13.5999C8.79992 13.3999 8.99992 13.3333 9.33325 13.3333H22.6666C22.9333 13.3333 23.1999 13.3999 23.3999 13.5999C23.5999 13.7999 23.6666 13.9999 23.6666 14.3333C23.6666 14.6666 23.5999 14.8666 23.3999 15.0666Z" fill="#222343"/>
<path d="M18.0666 20.4001C17.8666 20.6001 17.6666 20.6667 17.3333 20.6667H9.33325C9.06659 20.6667 8.79992 20.6001 8.59992 20.4001C8.39992 20.2001 8.33325 20.0001 8.33325 19.6667C8.33325 19.3334 8.39992 19.1334 8.59992 18.9334C8.79992 18.7334 8.99992 18.6667 9.33325 18.6667H17.3333C17.5999 18.6667 17.8666 18.7334 18.0666 18.9334C18.2666 19.1334 18.3333 19.3334 18.3333 19.6667C18.3333 20.0001 18.2666 20.2001 18.0666 20.4001Z" fill="#222343"/>
</g>
</svg>
