<svg width="32" height="32" viewBox="0 0 32 32" fill="none" xmlns="http://www.w3.org/2000/svg">
<g clip-path="url(#clip0_4029_1116)">
<g opacity="0.85">
<path d="M20.4 13.42L15.76 20.5334H14.9333L12.48 16.1067C11.94 15.1267 11.2133 14.28 10.36 13.6134L14.3 12.1334C14.4133 12.0867 14.5267 12.0534 14.6533 12.0334C14.7733 12.0134 14.8867 12 15 12H19.3L20.4 13.42Z" fill="currentColor"/>
<path d="M21.6 11.7H24.3667C24.5 11.7 24.62 11.6467 24.72 11.5467C24.82 11.4467 24.8667 11.3334 24.8667 11.2V9.03338C24.8667 8.85338 24.7867 8.71338 24.6333 8.61338C24.48 8.51338 24.3133 8.51338 24.1333 8.60004L20.5667 10.3667L21.6 11.7Z" fill="currentColor"/>
<path d="M27.3733 20.8934C27.1933 21.0334 26.9799 21.1001 26.7666 21.1001C26.4666 21.1001 26.1733 20.9667 25.9733 20.7067L24.0933 18.2667C24.1999 18.1067 24.3266 17.9601 24.4666 17.8134C24.8266 17.4467 25.2266 17.1934 25.6733 17.0401L27.5599 19.4934C27.8933 19.9268 27.8133 20.5534 27.3733 20.8934Z" fill="currentColor"/>
<path d="M12.9599 21.0997H5.22656C4.67323 21.0997 4.22656 20.653 4.22656 20.0997C4.22656 19.5463 4.67323 19.0997 5.22656 19.0997H11.8532L12.9599 21.0997Z" fill="currentColor"/>
</g>
<path d="M5.23333 16.8667C6.14667 16.8667 6.91333 17.18 7.53333 17.8133C8.15333 18.4467 8.46667 19.2133 8.46667 20.1C8.46667 20.9867 8.15333 21.7467 7.53333 22.38C6.91333 23.0133 6.14667 23.3333 5.23333 23.3333C4.32 23.3333 3.58667 23.02 2.95333 22.4C2.32 21.78 2 21.0133 2 20.1C2 19.1867 2.32 18.42 2.95333 17.8C3.58667 17.18 4.34667 16.8667 5.23333 16.8667ZM5.23333 14.8667C3.83333 14.8667 2.56 15.3867 1.55333 16.3733C0.533333 17.3667 0 18.66 0 20.1C0 21.54 0.54 22.8333 1.55333 23.8267C2.56 24.8133 3.83333 25.3333 5.23333 25.3333C6.63333 25.3333 7.96667 24.7933 8.96 23.78C9.94667 22.7733 10.4667 21.5 10.4667 20.1C10.4667 18.7 9.94667 17.42 8.96 16.4133C7.96667 15.4 6.68 14.8667 5.23333 14.8667Z" fill="currentColor"/>
<path fill-rule="evenodd" clip-rule="evenodd" d="M16.7402 6.66699C17.0536 6.66699 17.347 6.73385 17.627 6.86719C17.9002 7.00049 18.1267 7.18705 18.3066 7.43359L24.457 15.3896C25.1492 15.0378 25.9151 14.8662 26.7334 14.8662C28.1733 14.8663 29.4668 15.3928 30.4668 16.3994C31.4734 17.3994 32 18.7062 32 20.1328C32 21.5595 31.4665 22.8395 30.4531 23.8262C29.4465 24.8128 28.1466 25.333 26.7334 25.333C25.3201 25.333 24.0461 24.8058 23.0527 23.8125C22.0597 22.8192 21.5332 21.5459 21.5332 20.1328C21.5332 18.7929 21.993 17.5862 22.8662 16.5996H22.873L21.7002 15.1006L21.6943 15.0928L17.2402 21.9268C16.9936 22.3067 16.5733 22.5331 16.1201 22.5332H14.54C14.0534 22.5332 13.6064 22.2667 13.373 21.8467L11.8535 19.0996L10.7334 17.0801C9.62679 15.0802 7.52675 13.8398 5.24023 13.833L1.01367 13.8398C0.460339 13.8398 0.0126953 13.3865 0.0126953 12.8398C0.0127231 12.2932 0.460356 11.8398 1.01367 11.8398H5.24023C7.13336 11.8333 8.933 12.4801 10.3662 13.6133C11.2195 14.2799 11.9463 15.1265 12.4863 16.1064L14.9395 20.5332H15.7666L20.4062 13.4199L19.3066 12L16.707 8.66699H14.7402C14.4536 8.66699 14.214 8.57322 14.0273 8.37988C13.834 8.19322 13.7402 7.95366 13.7402 7.66699C13.7402 7.38033 13.834 7.1406 14.0273 6.94727C14.214 6.76066 14.4536 6.66699 14.7402 6.66699H16.7402ZM26.7334 16.8662C26.3601 16.8662 26.0062 16.9191 25.6729 17.0391C25.2264 17.1924 24.8267 17.4461 24.4668 17.8125C24.3268 17.9592 24.1994 18.1066 24.0928 18.2666C23.7197 18.8065 23.5332 19.4264 23.5332 20.1328C23.5332 21.0195 23.8468 21.7794 24.4668 22.3994C25.0868 23.0194 25.8201 23.333 26.7334 23.333C27.6466 23.333 28.4195 23.0193 29.0527 22.3994C29.6861 21.7794 30 21.0461 30 20.1328C30 19.2195 29.6861 18.4458 29.0527 17.8125C28.4195 17.1795 27.6464 16.8663 26.7334 16.8662Z" fill="currentColor"/>
</g>
<defs>
<clipPath id="clip0_4029_1116">
<rect width="32" height="32" fill="white"/>
</clipPath>
</defs>
</svg>
