<svg width="32" height="32" viewBox="0 0 32 32" fill="none" xmlns="http://www.w3.org/2000/svg">
<path opacity="0.32" d="M19.6629 4.57837L17.4134 5.62018C16.9801 5.82018 16.4934 5.92685 16.0134 5.92685C15.5334 5.92685 15.0468 5.82018 14.6134 5.62018L12.3601 4.58018L11.0401 6.85351C10.5601 7.67351 9.75342 8.25351 8.82675 8.44685L6.17342 8.99351L6.46009 11.4935C6.56675 12.4202 6.27342 13.3535 5.66675 14.0602L3.97342 16.0135L5.67342 18.0002C6.27342 18.7068 6.56009 19.6335 6.45342 20.5535L6.16675 23.0535L8.82009 23.6002C9.74675 23.7868 10.5468 24.3668 11.0268 25.1802L12.3401 27.4335L14.6001 26.3869C15.0334 26.1868 15.5201 26.0802 16.0001 26.0802C16.4801 26.0802 16.9668 26.1868 17.4001 26.3869L19.6668 27.4335L21.0134 25.1602C21.4934 24.3535 22.2868 23.7802 23.2068 23.5935L25.8401 23.0468L25.5534 20.5402C25.4468 19.6202 25.7334 18.6868 26.3334 17.9868L28.0334 16.0002L26.3401 14.0468C25.7268 13.3402 25.4401 12.4068 25.5468 11.4802L25.8334 8.98018L23.2068 8.44018C22.2868 8.25351 21.4801 7.68018 21.0068 6.86685L19.6629 4.57837Z" fill="#222343"/>
<path d="M19.6601 4.57346L21.0067 6.86679C21.4801 7.68013 22.2867 8.25346 23.2067 8.44013L25.8334 8.98013L25.5467 11.4801C25.4401 12.4068 25.7267 13.3401 26.3401 14.0468L28.0334 16.0001L26.3334 17.9868C25.7334 18.6868 25.4467 19.6201 25.5534 20.5401L25.8401 23.0468L23.2067 23.5935C22.2867 23.7801 21.4934 24.3535 21.0134 25.1601L19.6667 27.4335L17.4001 26.3868C16.9667 26.1868 16.4801 26.0801 16.0001 26.0801C15.5201 26.0801 15.0334 26.1868 14.6001 26.3868L12.3401 27.4335L11.0267 25.1801C10.5467 24.3668 9.74674 23.7868 8.82007 23.6001L6.16674 23.0535L6.4534 20.5535C6.56007 19.6335 6.2734 18.7068 5.6734 18.0001L3.9734 16.0135L5.66674 14.0601C6.2734 13.3535 6.56674 12.4201 6.46007 11.4935L6.1734 8.99346L8.82674 8.44679C9.7534 8.25346 10.5601 7.67346 11.0401 6.85346L12.3601 4.58013L14.6134 5.62013C15.0467 5.82013 15.5334 5.92679 16.0134 5.92679C16.4934 5.92679 16.9801 5.82013 17.4134 5.62013L19.6734 4.57346M19.9401 2.38013C19.7534 2.38013 19.5601 2.42013 19.3801 2.50679L16.5734 3.80679C16.3934 3.88679 16.2067 3.92679 16.0134 3.92679C15.8201 3.92679 15.6334 3.88679 15.4534 3.80679L12.6467 2.50679C12.4667 2.42013 12.2734 2.38013 12.0867 2.38013C11.6267 2.38013 11.1801 2.62013 10.9334 3.04679L9.30674 5.84679C9.1134 6.17346 8.7934 6.40679 8.42007 6.48679L5.16674 7.15346C4.48674 7.29346 4.0334 7.92679 4.1134 8.61346L4.4734 11.7201C4.5134 12.0935 4.40007 12.4601 4.16007 12.7468L2.0934 15.1335C1.66007 15.6335 1.66007 16.3735 2.0934 16.8735L4.16674 19.2935C4.40674 19.5735 4.52007 19.9468 4.48007 20.3135L4.12007 23.4201C4.04007 24.1068 4.50007 24.7401 5.1734 24.8801L8.42674 25.5468C8.80007 25.6201 9.12007 25.8535 9.30674 26.1801L10.9267 28.9535C11.1734 29.3735 11.6201 29.6135 12.0801 29.6135C12.2667 29.6135 12.4601 29.5735 12.6401 29.4868L15.4467 28.1868C15.6267 28.1068 15.8134 28.0668 16.0067 28.0668C16.2001 28.0668 16.3867 28.1068 16.5667 28.1868L19.3801 29.4868C19.5601 29.5735 19.7534 29.6135 19.9401 29.6135C20.4001 29.6135 20.8401 29.3735 21.0867 28.9601L22.7401 26.1735C22.9334 25.8535 23.2467 25.6201 23.6201 25.5468L26.8467 24.8801C27.5201 24.7401 27.9801 24.1068 27.9001 23.4201L27.5401 20.3135C27.5001 19.9468 27.6134 19.5735 27.8534 19.2935L29.9267 16.8735C30.3534 16.3735 30.3534 15.6335 29.9267 15.1335L27.8601 12.7468C27.6134 12.4668 27.5001 12.0935 27.5467 11.7201L27.9067 8.61346C27.9867 7.92679 27.5267 7.29346 26.8534 7.15346L23.6267 6.48679C23.2601 6.41346 22.9401 6.18013 22.7467 5.85346L21.0934 3.04013C20.8467 2.62013 20.4001 2.38013 19.9401 2.38013Z" fill="#222343"/>
<path d="M14.5667 20.4335L21.3734 13.6868C21.7867 13.2801 21.7734 12.6068 21.3401 12.2201C20.9401 11.8601 20.3267 11.8668 19.9467 12.2468L14.5667 17.5668L12.1401 15.0401C11.7334 14.6135 11.0534 14.6068 10.6334 15.0135C10.2134 15.4268 10.2067 16.1068 10.6334 16.5201L14.5734 20.4268L14.5667 20.4335Z" fill="#222343"/>
</svg>
