<svg width="32" height="32" viewBox="0 0 32 32" fill="none" xmlns="http://www.w3.org/2000/svg">
<path opacity="0.52" d="M16.0001 25.3333C12.9334 25.3333 10.1401 24.5 7.61339 22.8333C5.09339 21.1667 3.14006 18.9667 1.76673 16.2333C1.70006 16.1267 1.64673 15.9867 1.61339 15.8333C1.58006 15.68 1.56006 15.5067 1.56006 15.34C1.56006 15.1733 1.58006 15.0067 1.61339 14.8467C1.64673 14.6867 1.70006 14.5533 1.76673 14.4467C3.14006 11.7133 5.08673 9.51335 7.61339 7.84668C10.1334 6.18001 12.9334 5.34668 16.0001 5.34668C19.0667 5.34668 21.8601 6.18001 24.3867 7.84668C26.9067 9.51335 28.8601 11.7133 30.2334 14.4467C30.3001 14.5533 30.3534 14.6933 30.3867 14.8467C30.4201 15 30.4401 15.1733 30.4401 15.34C30.4401 15.5067 30.4201 15.6733 30.3867 15.8333C30.3534 15.9933 30.3001 16.1267 30.2334 16.2333C28.8601 18.9667 26.9134 21.1667 24.3867 22.8333C21.8601 24.5 19.0667 25.3333 16.0001 25.3333Z" fill="currentColor"/>
<path opacity="0.52" d="M16.0066 21C17.5799 21 18.9199 20.4466 20.0199 19.3466C21.1199 18.2466 21.6733 16.9066 21.6733 15.3266C21.6733 13.7466 21.1199 12.4133 20.0199 11.3133C18.9199 10.2133 17.5799 9.65997 15.9999 9.65997C14.4199 9.65997 13.0866 10.2133 11.9866 11.3133C10.8866 12.4133 10.3333 13.7533 10.3333 15.3333C10.3333 16.9133 10.8866 18.2466 11.9866 19.3466C13.0866 20.4466 14.4266 21 16.0066 21Z" fill="currentColor"/>
<path opacity="0.52" d="M6.86011 8.36664C6.99344 8.26664 7.13344 8.1733 7.27344 8.0733C7.13344 8.16664 6.99344 8.26664 6.86011 8.36664Z" fill="currentColor"/>
<path opacity="0.85" d="M21.6667 15.3334C21.6667 16.9067 21.12 18.2467 20.02 19.3467C19.7667 19.6 19.5 19.82 19.2267 20.0134L17.8267 18.6067C18.1133 18.4467 18.3867 18.24 18.64 17.9867C19.3667 17.26 19.7333 16.38 19.7333 15.34C19.7333 14.3 19.3733 13.42 18.6533 12.6934C17.9267 11.9667 17.0467 11.6 16.0067 11.6C14.9667 11.6 14.0867 11.96 13.36 12.6867C13.1 12.94 12.8933 13.2134 12.7267 13.5134L11.3267 12.1134C11.5133 11.8334 11.7333 11.5734 11.9867 11.32C13.0867 10.22 14.42 9.66669 15.9933 9.66669C17.5667 9.66669 18.9133 10.22 20.0133 11.32C21.1133 12.42 21.6667 13.7534 21.6667 15.3334Z" fill="currentColor"/>
<path opacity="0.85" d="M17.2466 20.8667C16.8533 20.96 16.4399 21 16.0066 21C14.4266 21 13.0866 20.4533 11.9866 19.3533C10.8866 18.2533 10.3333 16.9133 10.3333 15.34C10.3333 14.9067 10.3733 14.4867 10.4666 14.0933L12.3133 15.94C12.4266 16.72 12.7733 17.4 13.3533 17.98C13.9333 18.5667 14.6133 18.9133 15.3999 19.02L17.2466 20.8667Z" fill="currentColor"/>
<path opacity="0.32" d="M19.7335 15.34C19.7335 16.38 19.3668 17.26 18.6401 17.9867C18.3868 18.24 18.1135 18.4467 17.8268 18.6067L12.7268 13.5134C12.8935 13.2134 13.1001 12.94 13.3601 12.6867C14.0868 11.96 14.9668 11.6 16.0068 11.6C17.0468 11.6 17.9268 11.9667 18.6535 12.6934C19.3735 13.42 19.7335 14.3067 19.7335 15.34Z" fill="currentColor"/>
<path opacity="0.32" d="M15.3999 19.02C14.6132 18.9133 13.9332 18.5667 13.3532 17.98C12.7732 17.4 12.4266 16.72 12.3132 15.94L15.3999 19.02Z" fill="currentColor"/>
<path opacity="0.85" d="M17.8266 18.6067C17.2799 18.9134 16.6733 19.0667 15.9933 19.0667C15.7866 19.0667 15.5933 19.0534 15.3999 19.02L12.3133 15.94C12.2799 15.74 12.2666 15.54 12.2666 15.3267C12.2666 14.6534 12.4199 14.0467 12.7266 13.5134L17.8266 18.6067Z" fill="currentColor"/>
<path opacity="0.52" d="M11.3268 12.1133C11.1668 12.34 11.0268 12.5733 10.9068 12.8133C10.8401 12.94 10.7868 13.0666 10.7334 13.1933C10.6801 13.3266 10.6334 13.4666 10.5868 13.6066C10.5668 13.66 10.5534 13.72 10.5401 13.78C10.5134 13.88 10.4868 13.9866 10.4668 14.0933L5.68677 9.31997C6.0601 8.98664 6.45343 8.66664 6.8601 8.36664C6.99343 8.26664 7.13343 8.16664 7.27343 8.0733L11.3268 12.1133Z" fill="currentColor"/>
<path d="M12.2666 15.3267C12.2666 15.54 12.2799 15.74 12.3132 15.94L10.4666 14.0933C10.6066 13.3733 10.8999 12.7133 11.3266 12.1133L12.7266 13.5133C12.4199 14.0467 12.2666 14.6533 12.2666 15.3267Z" fill="currentColor"/>
<path d="M19.2268 20.0133C18.6268 20.44 17.9668 20.7266 17.2468 20.8666L15.4001 19.02C15.5935 19.0533 15.7868 19.0666 15.9935 19.0666C16.6735 19.0666 17.2801 18.9133 17.8268 18.6066L19.2268 20.0133Z" fill="currentColor"/>
<path opacity="0.52" d="M22.9135 23.6934C22.7335 23.7867 22.5602 23.8734 22.3802 23.9534C21.9002 24.1734 21.4135 24.3667 20.9202 24.5334L17.2468 20.8667C17.3468 20.8467 17.4402 20.8267 17.5335 20.8C17.6135 20.7867 17.6935 20.76 17.7735 20.7334C17.8868 20.7 18.0002 20.66 18.1068 20.62C18.1602 20.6 18.2068 20.58 18.2602 20.5534C18.2668 20.5534 18.2735 20.5534 18.2802 20.5467C18.4135 20.4934 18.5335 20.4334 18.6602 20.36C18.6735 20.36 18.6802 20.3534 18.6935 20.3467C18.8335 20.2734 18.9668 20.1867 19.1002 20.1C19.1402 20.0734 19.1868 20.04 19.2268 20.0134L22.9135 23.6934Z" fill="currentColor"/>
<path d="M27.1265 28.9334C26.8732 28.9334 26.6132 28.8334 26.4199 28.64L2.53987 4.79336C2.14654 4.40002 2.14654 3.76669 2.53987 3.38002C2.93321 2.98669 3.56654 2.98669 3.95321 3.38002L27.8265 27.2267C28.2199 27.62 28.2199 28.2534 27.8265 28.64C27.6332 28.8334 27.3732 28.9334 27.1199 28.9334H27.1265Z" fill="currentColor"/>
</svg>
