<svg width="32" height="32" viewBox="0 0 32 32" fill="none" xmlns="http://www.w3.org/2000/svg">
<path opacity="0.52" d="M27.3333 5.33337H4.66663C3.56206 5.33337 2.66663 6.2288 2.66663 7.33337V24.6667C2.66663 25.7713 3.56206 26.6667 4.66663 26.6667H27.3333C28.4379 26.6667 29.3333 25.7713 29.3333 24.6667V7.33337C29.3333 6.2288 28.4379 5.33337 27.3333 5.33337Z" fill="#222343"/>
<path opacity="0.32" d="M5.6333 7.33337H26.3666C26.92 7.33337 27.3666 7.78004 27.3666 8.33337V23.6067C27.3666 24.1934 26.8933 24.6667 26.3066 24.6667H5.6933C5.10663 24.6667 4.6333 24.1934 4.6333 23.6067V8.33337C4.6333 7.78004 5.07997 7.33337 5.6333 7.33337Z" fill="#222343"/>
<g opacity="0.85">
<path d="M4.63333 12.3333V13.3333H10.2C10.5133 13.3333 10.82 13.4067 11.0933 13.5467L15.1067 15.5533C15.6667 15.8333 16.3333 15.8333 16.8933 15.5533L20.9133 13.5467C21.1933 13.4067 21.5 13.3333 21.8067 13.3333H27.3667V12.3333C27.3667 11.78 26.92 11.3333 26.3667 11.3333H5.63333C5.08 11.3333 4.63333 11.78 4.63333 12.3333Z" fill="#222343"/>
<path d="M27.3666 8.33337V9.50671C27.0533 9.39337 26.72 9.33337 26.3666 9.33337H5.6333C5.27997 9.33337 4.94663 9.39337 4.6333 9.50671V8.33337C4.6333 7.78004 5.07997 7.33337 5.6333 7.33337H26.3666C26.92 7.33337 27.3666 7.78004 27.3666 8.33337Z" fill="#222343"/>
</g>
</svg>
