<svg width="32" height="32" viewBox="0 0 32 32" fill="none" xmlns="http://www.w3.org/2000/svg">
<path opacity="0.5" d="M3.20679 25.6667L14.4001 6.32007C15.1735 4.98674 17.0935 4.98674 17.8601 6.32007L29.0601 25.6601C29.8335 26.9934 28.8668 28.6601 27.3268 28.6601H4.93346C3.39346 28.6601 2.43346 26.9934 3.20012 25.6601L3.20679 25.6667Z" fill="#222343"/>
<path opacity="0.52" d="M16.1334 7.32673L27.3334 26.6667H4.93345L16.1268 7.32673C16.1268 7.32673 16.1268 7.32673 16.1334 7.32673ZM16.1334 5.32673C15.4601 5.32673 14.7868 5.66007 14.4001 6.32673L3.20678 25.6667C2.43345 27.0001 3.40011 28.6667 4.94011 28.6667H27.3334C28.8734 28.6667 29.8334 27.0001 29.0668 25.6667L17.8668 6.32007C17.4801 5.6534 16.8068 5.32007 16.1334 5.32007V5.32673Z" fill="#222343"/>
<path d="M16.2668 24.7668C16.5535 24.7668 16.7935 24.6735 16.9868 24.4868C17.1801 24.3002 17.2735 24.0602 17.2668 23.7668C17.2668 23.4802 17.1735 23.2402 16.9868 23.0468C16.8001 22.8535 16.5601 22.7668 16.2668 22.7668C15.9735 22.7668 15.7401 22.8602 15.5468 23.0468C15.3601 23.2335 15.2668 23.4735 15.2668 23.7668C15.2668 24.0535 15.3601 24.2935 15.5468 24.4868C15.7335 24.6802 15.9735 24.7668 16.2668 24.7668Z" fill="#222343"/>
<path d="M17.2668 14.6001C17.2668 14.0478 16.8191 13.6001 16.2668 13.6001C15.7145 13.6001 15.2668 14.0478 15.2668 14.6001V20.0668C15.2668 20.6191 15.7145 21.0668 16.2668 21.0668C16.8191 21.0668 17.2668 20.6191 17.2668 20.0668V14.6001Z" fill="#222343"/>
</svg>
