<svg width="32" height="32" viewBox="0 0 32 32" fill="none" xmlns="http://www.w3.org/2000/svg">
<path d="M16.0667 7.53325C15.4 7.53325 14.8267 7.29325 14.3467 6.81991C13.8667 6.34658 13.6267 5.77325 13.6267 5.09991C13.6267 4.42658 13.8667 3.85991 14.34 3.37991C14.8134 2.89991 15.3867 2.65991 16.06 2.65991C16.7334 2.65991 17.3 2.89991 17.78 3.37325C18.26 3.84658 18.5 4.41991 18.5 5.09325C18.5 5.76658 18.26 6.33325 17.7867 6.81325C17.3134 7.29325 16.74 7.53325 16.0667 7.53325ZM24.1934 29.3332C23.9067 29.3332 23.6734 29.2399 23.48 29.0466C23.2867 28.8532 23.1934 28.6199 23.1934 28.3332V22.3666H16.06C15.4 22.3666 14.8334 22.1332 14.3667 21.6599C13.9 21.1866 13.66 20.6266 13.66 19.9666V11.7332C13.66 11.0332 13.88 10.4599 14.3267 10.0066C14.7734 9.55325 15.3534 9.33325 16.0734 9.33325C16.5667 9.33325 16.9934 9.43325 17.3534 9.63325C17.7134 9.83325 18.14 10.2199 18.6267 10.7999C19.4734 11.7799 20.3734 12.6199 21.3267 13.3199C22.28 14.0199 23.3267 14.4599 24.46 14.6399C24.7067 14.6866 24.9134 14.7932 25.08 14.9732C25.2467 15.1532 25.3334 15.3666 25.3334 15.6066C25.3334 15.9132 25.2267 16.1732 25.0134 16.3732C24.8 16.5732 24.54 16.6532 24.2267 16.6066C23.2467 16.4532 22.26 16.1132 21.26 15.5866C20.26 15.0599 19.2934 14.4132 18.36 13.6332V19.7332H22.7934C23.4534 19.7332 24.02 19.9666 24.4867 20.4399C24.96 20.9132 25.1934 21.4732 25.1934 22.1332V28.3332C25.1934 28.6199 25.1 28.8532 24.9067 29.0466C24.7134 29.2399 24.4734 29.3332 24.1867 29.3332H24.1934Z" fill="#222343"/>
<path opacity="0.52" d="M17.6001 22.8666C17.6001 20.4066 15.6001 18.3999 13.1334 18.3999C10.6734 18.3999 8.66675 20.4066 8.66675 22.8666C8.66675 25.3266 10.6734 27.3332 13.1334 27.3332C15.5934 27.3332 17.6001 25.3266 17.6001 22.8666Z" fill="#25CBDB"/>
<path d="M13.1334 18.3999C15.6001 18.3999 17.6001 20.4066 17.6001 22.8666C17.6001 25.3266 15.5934 27.3332 13.1334 27.3332C10.6734 27.3332 8.66675 25.3266 8.66675 22.8666C8.66675 20.4066 10.6734 18.3999 13.1334 18.3999ZM13.1334 16.3999C9.56008 16.3999 6.66675 19.2932 6.66675 22.8666C6.66675 26.4399 9.56008 29.3332 13.1334 29.3332C16.7067 29.3332 19.6001 26.4399 19.6001 22.8666C19.6001 19.2932 16.7067 16.3999 13.1334 16.3999Z" fill="#25CBDB"/>
</svg>
