<svg width="32" height="32" viewBox="0 0 32 32" fill="none" xmlns="http://www.w3.org/2000/svg">
<path opacity="0.85" d="M6 28C5.46667 28 5 27.8 4.6 27.4C4.2 27 4 26.5333 4 26V6C4 5.46667 4.2 5 4.6 4.6C5 4.2 5.46667 4 6 4H26C26.5333 4 27 4.2 27.4 4.6C27.8 5 28 5.46667 28 6V26C28 26.5333 27.8 27 27.4 27.4C27 27.8 26.5333 28 26 28H6Z" fill="#25CBDB"/>
<path d="M19.3333 17.3C18.4467 18.1867 17.3533 18.6333 16.0667 18.6333C14.78 18.6333 13.6867 18.1867 12.8 17.3C11.9133 16.4133 11.4667 15.32 11.4667 14.0333C11.4667 12.7467 11.9133 11.6533 12.8 10.7667C13.6867 9.87999 14.78 9.43332 16.0667 9.43332C17.3533 9.43332 18.4467 9.87999 19.3333 10.7667C20.22 11.6533 20.6667 12.7467 20.6667 14.0333C20.6667 15.32 20.22 16.4133 19.3333 17.3Z" fill="#222343"/>
<path fill-rule="evenodd" clip-rule="evenodd" d="M6 4H26C26.5333 4 27 4.2 27.4 4.6C27.8 5 28 5.46667 28 6V26C28 26.5333 27.8 27 27.4 27.4C27 27.8 26.5333 28 26 28H6C5.46667 28 5 27.8 4.6 27.4C4.2 27 4 26.5333 4 26V6C4 5.46667 4.2 5 4.6 4.6C5 4.2 5.46667 4 6 4ZM25.9733 6H6.02667L6 6.02667V24.7667C7.33333 23.52 8.84667 22.5133 10.5333 21.7467C12.22 20.98 14.0467 20.5933 16 20.5933C17.9533 20.5933 19.78 20.98 21.4667 21.7467C23.1533 22.5133 24.6667 23.52 26 24.7667V6.02667L25.9733 6Z" fill="#222343"/>
</svg>
