<svg width="32" height="32" viewBox="0 0 32 32" fill="none" xmlns="http://www.w3.org/2000/svg">
<path opacity="0.52" d="M20 26.6667C17.02 26.6667 14.5 25.6334 12.4334 23.5667C10.3667 21.5 9.33337 18.98 9.33337 16C9.33337 13.02 10.3667 10.5 12.4334 8.43337C14.5 6.36671 17.02 5.33337 20 5.33337C22.98 5.33337 25.5 6.36671 27.5667 8.43337C29.6334 10.5 30.6667 13.02 30.6667 16C30.6667 18.98 29.6334 21.5 27.5667 23.5667C25.5 25.6334 22.98 26.6667 20 26.6667Z" fill="#25CBDB"/>
<path opacity="0.32" fill-rule="evenodd" clip-rule="evenodd" d="M20 5.33337C17.02 5.33337 14.5 6.36671 12.4334 8.43337C10.3667 10.5 9.33337 13.02 9.33337 16C9.33337 18.98 10.3667 21.5 12.4334 23.5667C14.5 25.6334 17.02 26.6667 20 26.6667C22.98 26.6667 25.5 25.6334 27.5667 23.5667C29.6334 21.5 30.6667 18.98 30.6667 16C30.6667 13.02 29.6334 10.5 27.5667 8.43337C25.5 6.36671 22.98 5.33337 20 5.33337ZM20 7.33337C22.4467 7.33337 24.46 8.15337 26.1534 9.84671C27.8467 11.54 28.6667 13.5534 28.6667 16C28.6667 18.4467 27.8467 20.46 26.1534 22.1534C24.46 23.8467 22.4467 24.6667 20 24.6667C17.5534 24.6667 15.54 23.8467 13.8467 22.1534C12.1534 20.46 11.3334 18.4467 11.3334 16C11.3334 13.5534 12.1534 11.54 13.8467 9.84671C15.54 8.15337 17.5534 7.33337 20 7.33337Z" fill="#25CBDB"/>
<g opacity="0.85">
<path d="M3.66663 11.6666C3.37996 11.6666 3.13996 11.5733 2.95329 11.3866C2.76663 11.2 2.66663 10.96 2.66663 10.6666C2.66663 10.3733 2.75996 10.14 2.95329 9.95329C3.13996 9.76663 3.37996 9.66663 3.66663 9.66663H6.99996C7.28663 9.66663 7.52663 9.75996 7.71329 9.95329C7.89996 10.14 7.99996 10.38 7.99996 10.6666C7.99996 10.9533 7.90663 11.1933 7.71329 11.3866C7.52663 11.5733 7.28663 11.6666 6.99996 11.6666H3.66663Z" fill="#222343"/>
<path d="M3.66663 22.3333C3.37996 22.3333 3.13996 22.24 2.95329 22.0533C2.76663 21.8666 2.66663 21.6266 2.66663 21.3333C2.66663 21.04 2.75996 20.8066 2.95329 20.6133C3.13996 20.4266 3.37996 20.3333 3.66663 20.3333H6.99996C7.28663 20.3333 7.52663 20.4266 7.71329 20.6133C7.89996 20.8 7.99996 21.04 7.99996 21.3333C7.99996 21.6266 7.90663 21.86 7.71329 22.0533C7.52663 22.24 7.28663 22.3333 6.99996 22.3333H3.66663Z" fill="#222343"/>
<path d="M23.3733 20.3466C23.1199 20.3466 22.8666 20.2533 22.6666 20.06L19.2933 16.7133C18.8999 16.3266 18.8999 15.6933 19.2933 15.3C19.6799 14.9066 20.3132 14.9066 20.7066 15.3L24.0799 18.6466C24.4732 19.0333 24.4732 19.6666 24.0799 20.06C23.8866 20.2533 23.6266 20.3533 23.3733 20.3533V20.3466Z" fill="#222343"/>
</g>
<path d="M2.33337 17C2.04671 17 1.80671 16.9066 1.61337 16.72C1.42671 16.5333 1.33337 16.2933 1.33337 16C1.33337 15.7066 1.42671 15.4733 1.61337 15.28C1.80004 15.0933 2.04004 15 2.33337 15H7.00004C7.28671 15 7.52671 15.0933 7.71337 15.28C7.90004 15.4666 8.00004 15.7066 8.00004 16C8.00004 16.2933 7.90671 16.5266 7.71337 16.72C7.52671 16.9066 7.28671 17 7.00004 17H2.33337Z" fill="#222343"/>
<path d="M20 17C19.4467 17 19 16.5533 19 16V11.6666C19 11.1133 19.4467 10.6666 20 10.6666C20.5534 10.6666 21 11.1133 21 11.6666V16C21 16.5533 20.5534 17 20 17Z" fill="#222343"/>
</svg>
