<svg width="32" height="32" viewBox="0 0 32 32" fill="none" xmlns="http://www.w3.org/2000/svg">
<g opacity="0.32">
<path d="M7.66666 26.0933C10.0599 26.0933 12 24.1532 12 21.76C12 19.3668 10.0599 17.4267 7.66666 17.4267C5.27343 17.4267 3.33333 19.3668 3.33333 21.76C3.33333 24.1532 5.27343 26.0933 7.66666 26.0933Z" fill="#25CBDB"/>
<path d="M26.1667 26.0933C27.5474 26.0933 28.6667 24.974 28.6667 23.5933C28.6667 22.2126 27.5474 21.0933 26.1667 21.0933C24.7859 21.0933 23.6667 22.2126 23.6667 23.5933C23.6667 24.974 24.7859 26.0933 26.1667 26.0933Z" fill="#25CBDB"/>
</g>
<path d="M17.3333 10.06L15.7 8.46L13.6667 10.4933L13.0333 9.89334L17.7667 5.16L18.3667 5.76L16.3 7.82667L17.9333 9.46" fill="#222343"/>
<path d="M4.83333 13.46C4.58666 13.46 4.38 13.36 4.2 13.16C4.01999 12.96 3.93333 12.7267 3.93333 12.46C3.93333 12.1933 4.01999 11.96 4.2 11.76C4.38 11.56 4.58666 11.46 4.83333 11.46H9.8C10.4467 11.46 10.9467 11.66 11.3 12.06C11.6533 12.46 11.8867 12.9267 12 13.46H4.83333ZM7.66666 26.0933C8.86666 26.0933 9.88666 25.6733 10.7333 24.8267C11.58 23.98 12 22.96 12 21.76C12 20.56 11.58 19.54 10.7333 18.6933C9.88666 17.8467 8.86666 17.4267 7.66666 17.4267C6.46666 17.4267 5.44666 17.8467 4.6 18.6933C3.75333 19.54 3.33333 20.56 3.33333 21.76C3.33333 22.96 3.75333 23.98 4.6 24.8267C5.44666 25.6733 6.46666 26.0933 7.66666 26.0933ZM26.1667 26.0933C26.8533 26.0933 27.4467 25.8467 27.9333 25.36C28.42 24.8733 28.6667 24.28 28.6667 23.5933C28.6667 22.9067 28.42 22.3133 27.9333 21.8267C27.4467 21.34 26.8533 21.0933 26.1667 21.0933C25.48 21.0933 24.8867 21.34 24.4 21.8267C23.9133 22.3133 23.6667 22.9067 23.6667 23.5933C23.6667 24.28 23.9133 24.8733 24.4 25.36C24.8867 25.8467 25.48 26.0933 26.1667 26.0933ZM7.66666 24.0933C7.02 24.0933 6.47333 23.8667 6.01333 23.4067C5.56 22.9533 5.33333 22.4 5.33333 21.76C5.33333 21.12 5.56 20.5667 6.01333 20.1067C6.46666 19.6533 7.02 19.4267 7.66666 19.4267C8.31333 19.4267 8.85999 19.6533 9.31999 20.1067C9.77333 20.56 10 21.1133 10 21.76C10 22.4067 9.77333 22.9533 9.31999 23.4067C8.86666 23.86 8.31333 24.0933 7.66666 24.0933ZM26.1667 28.0933C24.92 28.0933 23.86 27.6733 22.98 26.8267C22.1 25.98 21.6667 24.94 21.6667 23.6933C21.6667 22.4467 22.12 21.3733 23.0333 20.46C23.9467 19.5467 25.02 19.0933 26.2667 19.0933C27.5133 19.0933 28.5533 19.5333 29.4 20.4133C30.2467 21.2933 30.6667 22.3533 30.6667 23.6C30.6667 24.8467 30.2267 25.9067 29.3533 26.7867C28.4733 27.6667 27.4133 28.1 26.1667 28.1V28.0933ZM7.59999 28.0933C5.84666 28.0933 4.35999 27.48 3.14666 26.24C1.93333 25.0067 1.33333 23.5133 1.33333 21.76C1.33333 20.0067 1.94666 18.5067 3.18666 17.2733C4.42 16.04 5.91333 15.4267 7.66666 15.4267C9.42 15.4267 10.92 16.0467 12.1533 17.2733C13.3867 18.5067 14 20 14 21.76C14 23.52 13.38 25.0133 12.1533 26.24C10.92 27.4733 9.39999 28.0933 7.59999 28.0933Z" fill="#222343"/>
<path d="M27 9.45999H17.34V13.5267C17.34 14.46 17.02 15.2533 16.3867 15.9067C15.76 16.5667 14.9733 16.8933 14.04 16.8933H11.7399C11.8809 17.0128 12.0187 17.1394 12.1533 17.2733C13.3867 18.5067 14 20 14 21.76C14 22.1035 13.9764 22.4368 13.9293 22.76H21.7579C21.9321 21.9018 22.3564 21.1369 23.0333 20.46C23.9467 19.5467 25.02 19.0933 26.2667 19.0933C27.3236 19.0933 28.232 19.4096 29 20.0422V11.46C29 10.88 28.8133 10.4067 28.4333 10.0267C28.0533 9.64666 27.58 9.45999 27 9.45999Z" fill="#25CBDB"/>
</svg>
