<svg width="32" height="32" viewBox="0 0 32 32" fill="none" xmlns="http://www.w3.org/2000/svg">
<path d="M29.9733 12.0533L15.04 18.52C12.7666 19.5067 10.4533 20.3933 8.10662 21.1733L6.71996 21.6333C5.01329 22.2067 3.17329 21.28 2.59996 19.5733L1.25996 15.54C1.11329 15.1133 1.43329 14.6667 1.89329 14.6667L3.93996 15.3L6.29996 16L10.94 13.9667L15.58 11.94L15.6333 11.9133L24.0133 8.24665C26.16 7.30665 28.6733 7.87999 30.2 9.66665L30.4533 9.95999C31.04 10.6467 30.8 11.6933 29.9733 12.0533Z" fill="#25CBDB"/>
<path d="M17.0934 11.2801L15.5801 11.9467L11.6801 13.6534L7.52673 11.8601C7.08006 11.5867 7.11339 10.9267 7.59339 10.6934C8.50006 10.2534 9.51339 10.1067 10.5067 10.2601L17.0867 11.2801H17.0934Z" fill="#222343"/>
<path d="M22.0534 13.5934L17.4401 24.2334C17.1267 24.9601 16.6601 25.6067 16.0601 26.1334L14.6601 27.3667C14.2001 27.7734 13.4734 27.3867 13.5601 26.7801L14.9401 16.6134L22.0534 13.6001V13.5934Z" fill="#222343"/>
</svg>
