<svg width="32" height="32" viewBox="0 0 32 32" fill="none" xmlns="http://www.w3.org/2000/svg">
<path opacity="0.52" d="M16 29.3333C23.3638 29.3333 29.3334 23.3638 29.3334 16C29.3334 8.63619 23.3638 2.66666 16 2.66666C8.63622 2.66666 2.66669 8.63619 2.66669 16C2.66669 23.3638 8.63622 29.3333 16 29.3333Z" fill="#25CBDB"/>
<path fill-rule="evenodd" clip-rule="evenodd" d="M16 7C11.04 7 7 11.04 7 16C7 20.96 11.04 25 16 25H20.32C20.8733 25 21.32 24.5533 21.32 24C21.32 23.4467 20.8733 23 20.32 23H16C12.14 23 9 19.86 9 16C9 12.14 12.14 9 16 9C19.86 9 23 12.14 23 16C23 16.7333 22.4 17.3333 21.6667 17.3333C20.9333 17.3333 20.3333 16.7333 20.3333 16C20.3333 13.6133 18.3867 11.6667 16 11.6667C13.6133 11.6667 11.6667 13.6133 11.6667 16C11.6667 18.3867 13.6133 20.3333 16 20.3333C17.4467 20.3333 18.7267 19.62 19.5133 18.5267C20.0933 19.0267 20.84 19.3333 21.6667 19.3333C23.5067 19.3333 25 17.84 25 16C25 11.04 20.96 7 16 7ZM16 18.3333C14.7133 18.3333 13.6667 17.2867 13.6667 16C13.6667 14.7133 14.7133 13.6667 16 13.6667C17.2867 13.6667 18.3333 14.7133 18.3333 16C18.3333 17.2867 17.2867 18.3333 16 18.3333Z" fill="#222343"/>
</svg>
