<svg width="32" height="32" viewBox="0 0 32 32" fill="none" xmlns="http://www.w3.org/2000/svg">
<g opacity="0.85">
<path d="M24.4999 25.9L23.0666 27.3C22.8666 27.48 22.6332 27.5733 22.3666 27.5866C22.0999 27.6 21.8666 27.5 21.6666 27.3C21.4666 27.1 21.3732 26.8666 21.3799 26.6C21.3866 26.3333 21.4866 26.1 21.6666 25.9L23.0666 24.4666L21.6666 23.0666C21.4666 22.8666 21.3666 22.6333 21.3666 22.3666C21.3666 22.1 21.4666 21.8666 21.6666 21.6666C21.8666 21.4666 22.0999 21.3666 22.3666 21.3666C22.6332 21.3666 22.8666 21.4666 23.0666 21.6666L24.4999 23.0666L25.8999 21.6666C26.0999 21.4666 26.3332 21.36 26.5999 21.3466C26.8666 21.3333 27.0999 21.4333 27.2999 21.6333C27.4999 21.8333 27.5999 22.0733 27.5999 22.3533C27.5999 22.6333 27.4999 22.8733 27.2999 23.0733L25.8999 24.4733L27.2999 25.9066C27.4999 26.1066 27.5999 26.34 27.5999 26.6066C27.5999 26.8733 27.4999 27.1066 27.2999 27.3066C27.0999 27.5066 26.8666 27.6066 26.5999 27.6066C26.3332 27.6066 26.0999 27.5066 25.8999 27.3066L24.4999 25.9066V25.9Z" fill="#25CBDB"/>
<path d="M7.53324 8.96662L6.0999 10.3666C5.8999 10.5466 5.66657 10.64 5.3999 10.6533C5.13324 10.6666 4.8999 10.5666 4.6999 10.3666C4.4999 10.1666 4.40657 9.93329 4.41324 9.66662C4.4199 9.39995 4.5199 9.16662 4.6999 8.96662L6.0999 7.53329L4.6999 6.13329C4.4999 5.93329 4.3999 5.69995 4.3999 5.43329C4.3999 5.16662 4.4999 4.93329 4.6999 4.73329C4.8999 4.53329 5.13324 4.43329 5.3999 4.43329C5.66657 4.43329 5.8999 4.53329 6.0999 4.73329L7.53324 6.13329L8.93324 4.73329C9.13324 4.53329 9.36657 4.42662 9.63324 4.41329C9.8999 4.39996 10.1332 4.49996 10.3332 4.69996C10.5332 4.89996 10.6332 5.13996 10.6332 5.41996C10.6332 5.69996 10.5332 5.93996 10.3332 6.13996L8.93324 7.53996L10.3332 8.97329C10.5332 9.17329 10.6332 9.40662 10.6332 9.67329C10.6332 9.93995 10.5332 10.1733 10.3332 10.3733C10.1332 10.5733 9.8999 10.6733 9.63324 10.6733C9.36657 10.6733 9.13324 10.5733 8.93324 10.3733L7.53324 8.97329V8.96662Z" fill="#25CBDB"/>
</g>
<path d="M27.3 7.29974L23.8333 3.86641C23.6333 3.66641 23.4 3.56641 23.1333 3.56641C22.8667 3.56641 22.6333 3.66641 22.4333 3.86641C22.2333 4.06641 22.1267 4.29974 22.1133 4.56641C22.1 4.83307 22.1933 5.06641 22.4 5.26641L24.1333 6.99974H21.3333C19.58 6.99974 18.08 7.61307 16.8533 8.84641C15.6267 10.0797 15 11.5731 15 13.3331V19.3664C15 20.4331 14.6333 21.3531 13.9 22.1331C13.1667 22.9131 12.2667 23.3197 11.2 23.3664C10.98 22.5664 10.5467 21.9197 9.9 21.4197C9.25333 20.9197 8.51333 20.6731 7.66667 20.6731C6.64667 20.6731 5.78 21.0264 5.06667 21.7397C4.35333 22.4531 4 23.3197 4 24.3397C4 25.3597 4.35333 26.2264 5.06667 26.9397C5.78 27.6531 6.64667 28.0064 7.66667 28.0064C8.48667 28.0064 9.22 27.7597 9.86667 27.2731C10.5133 26.7864 10.9533 26.1531 11.2 25.3731C12.82 25.3264 14.1933 24.7264 15.32 23.5597C16.44 22.3931 17 20.9997 17 19.3731V13.3397C17 12.1397 17.42 11.1197 18.2667 10.2731C19.1133 9.42641 20.1333 9.00641 21.3333 9.00641H24.1333L22.4 10.7397C22.2 10.9397 22.1067 11.1797 22.1133 11.4597C22.1267 11.7397 22.2333 11.9797 22.4333 12.1797C22.6333 12.3797 22.8667 12.4797 23.1333 12.4797C23.4 12.4797 23.6333 12.3797 23.8333 12.1797L27.3 8.71307C27.5 8.51307 27.6 8.27974 27.6 8.01307C27.6 7.74641 27.5 7.51307 27.3 7.31307V7.29974ZM8.85333 25.5131C8.53333 25.8331 8.13333 25.9997 7.66667 25.9997C7.2 25.9997 6.80667 25.8397 6.48667 25.5131C6.16667 25.1864 6 24.7997 6 24.3331C6 23.8664 6.16 23.4731 6.48667 23.1464C6.81333 22.8197 7.2 22.6664 7.66667 22.6664C8.13333 22.6664 8.52667 22.8264 8.85333 23.1464C9.18 23.4664 9.33333 23.8664 9.33333 24.3331C9.33333 24.7997 9.17333 25.1931 8.85333 25.5131Z" fill="#222343"/>
</svg>
