<svg width="32" height="32" viewBox="0 0 32 32" fill="none" xmlns="http://www.w3.org/2000/svg">
<path opacity="0.52" d="M20.4067 5.55335C19.0467 4.96669 17.56 4.66669 16 4.66669C14.46 4.66669 12.9867 4.96669 11.6267 5.55335C10.2467 6.14669 9.02002 6.96669 7.99335 7.98669C6.96669 9.00002 6.14669 10.2134 5.55335 11.5934C4.96669 12.9534 4.66669 14.46 4.66669 16C4.66669 17.54 4.96669 19.0134 5.55335 20.3734C6.15335 21.7534 6.97335 22.9734 8.00002 24C9.02669 25.0267 10.2467 25.8534 11.6267 26.4467C12.9867 27.0334 14.44 27.3334 16 27.3334C17.56 27.3334 19.0467 27.0334 20.4067 26.4467C21.7867 25.8467 23 25.0267 24.0134 24.0067C25.0334 22.98 25.8467 21.76 26.4467 20.3734C27.0334 19.0134 27.3334 17.56 27.3334 16C27.3334 14.44 27.0334 12.9534 26.4467 11.5934C25.8534 10.2067 25.0334 8.99335 24.02 7.98002C23.0067 6.96669 21.7867 6.14669 20.4067 5.55335Z" fill="#25CBDB"/>
<path d="M16 4.66675C17.56 4.66675 19.0467 4.96675 20.4067 5.55341C21.7867 6.14675 23.0067 6.96675 24.02 7.98008C25.0334 8.99341 25.8534 10.2067 26.4467 11.5934C27.0334 12.9534 27.3334 14.4401 27.3334 16.0001C27.3334 17.5601 27.0334 19.0134 26.4467 20.3734C25.8467 21.7601 25.0334 22.9801 24.0134 24.0067C23 25.0267 21.7867 25.8467 20.4067 26.4467C19.0467 27.0334 17.56 27.3334 16 27.3334C14.44 27.3334 12.9867 27.0334 11.6267 26.4467C10.2467 25.8534 9.0267 25.0267 8.00003 24.0001C6.97337 22.9734 6.15337 21.7534 5.55337 20.3734C4.9667 19.0134 4.6667 17.5401 4.6667 16.0001C4.6667 14.4601 4.9667 12.9534 5.55337 11.5934C6.1467 10.2134 6.9667 9.00008 7.99337 7.98675C9.02003 6.96675 10.2467 6.14675 11.6267 5.55341C12.9867 4.96675 14.46 4.66675 16 4.66675ZM16 2.66675C14.18 2.66675 12.4534 3.01341 10.8334 3.71341C9.21337 4.41341 7.79337 5.36675 6.58003 6.56675C5.3667 7.76675 4.41337 9.18008 3.71337 10.8001C3.01337 12.4201 2.66003 14.1534 2.66003 16.0001C2.66003 17.8467 3.0067 19.5467 3.71337 21.1667C4.41337 22.7867 5.3667 24.2067 6.58003 25.4201C7.79337 26.6334 9.2067 27.5867 10.8334 28.2867C12.4534 28.9867 14.18 29.3401 16 29.3401C17.82 29.3401 19.58 28.9867 21.2 28.2867C22.82 27.5867 24.2334 26.6334 25.4334 25.4201C26.6334 24.2067 27.58 22.7934 28.2867 21.1667C28.9867 19.5467 29.3334 17.8201 29.3334 16.0001C29.3334 14.1801 28.9867 12.4201 28.2867 10.8001C27.5867 9.18008 26.6334 7.76675 25.4334 6.56675C24.2334 5.36675 22.82 4.42008 21.2 3.71341C19.58 3.01341 17.8467 2.66675 16 2.66675Z" fill="#222343"/>
<path d="M16.7 20.1668L20.1667 16.7001C20.5534 16.3134 20.5534 15.6868 20.1667 15.3001L16.7 11.8334C16.3134 11.4468 15.6867 11.4468 15.3 11.8334C14.9134 12.2201 14.9134 12.8468 15.3 13.2334L17.0667 15.0001H11.9867C11.44 15.0001 11 15.4401 11 15.9868V16.0068C11 16.5534 11.44 16.9934 11.9867 16.9934H17.0667L15.3 18.7601C14.9134 19.1468 14.9134 19.7734 15.3 20.1601C15.6867 20.5468 16.3134 20.5468 16.7 20.1601V20.1668Z" fill="#222343"/>
</svg>
