<svg width="32" height="32" viewBox="0 0 32 32" fill="none" xmlns="http://www.w3.org/2000/svg">
<path d="M9.60667 20.24L13.24 15.14H20.5067L9.60667 6.57333V20.24ZM19.7733 28.3067C19.3533 28.5067 18.9267 28.5267 18.5067 28.3733C18.0867 28.22 17.7733 27.9267 17.5733 27.5067L13.34 18.44L9.40667 23.94C9.12001 24.34 8.74667 24.46 8.28667 24.3067C7.83334 24.1533 7.60001 23.8267 7.60001 23.34V4.54C7.60001 4.12 7.78667 3.82 8.16667 3.64C8.54667 3.46 8.90001 3.49333 9.23334 3.74L24 15.34C24.38 15.6533 24.48 16.0267 24.3133 16.4733C24.1467 16.92 23.8267 17.14 23.3667 17.14H16.4333L20.5667 26.1067C20.7667 26.5267 20.7867 26.9533 20.6333 27.3733C20.48 27.7933 20.1867 28.1067 19.7667 28.3067H19.7733Z" fill="#222343"/>
<path opacity="0.85" d="M13.24 15.14L9.60667 20.24V6.57333L20.5067 15.14H13.24Z" fill="#25CBDB"/>
</svg>
