<svg width="32" height="32" viewBox="0 0 32 32" fill="none" xmlns="http://www.w3.org/2000/svg">
<path d="M25.9467 10.6666L27 8.33328L29.3334 7.27994C29.8534 7.03994 29.8534 6.30661 29.3334 6.06661L27 5.01328L25.9467 2.66661C25.7067 2.14661 24.9734 2.14661 24.7334 2.66661L23.68 4.99994L21.3334 6.05328C20.8134 6.29328 20.8134 7.02661 21.3334 7.26661L23.6667 8.31994L24.72 10.6666C24.96 11.1866 25.7067 11.1866 25.9467 10.6666Z" fill="#222343"/>
<path d="M24.72 21.3333L23.6667 23.6666L21.3334 24.7199C20.8134 24.9599 20.8134 25.6933 21.3334 25.9333L23.6667 26.9866L24.72 29.3333C24.96 29.8533 25.6934 29.8533 25.9334 29.3333L26.9867 26.9999L29.3334 25.9466C29.8534 25.7066 29.8534 24.9733 29.3334 24.7333L27 23.6799L25.9467 21.3333C25.7067 20.8133 24.96 20.8133 24.72 21.3333Z" fill="#222343"/>
<path opacity="0.85" d="M15.3333 12.6668L13.2133 8.00009C12.7466 6.96009 11.2533 6.96009 10.7866 8.00009L8.66664 12.6668L3.99997 14.7868C2.95997 15.2668 2.95997 16.7468 3.99997 17.2134L8.66664 19.3334L10.7866 24.0001C11.2666 25.0401 12.7466 25.0401 13.2133 24.0001L15.3333 19.3334L20 17.2134C21.04 16.7334 21.04 15.2534 20 14.7868L15.3333 12.6668Z" fill="#25CBDB"/>
</svg>
