<svg width="32" height="32" viewBox="0 0 32 32" fill="none" xmlns="http://www.w3.org/2000/svg">
<g opacity="0.85">
<path d="M11.2533 17.4866C11.22 17.1866 11.1467 16.9133 11.0333 16.6733L7 6.93994L2.96666 16.6733C2.85333 16.9199 2.78 17.1866 2.74666 17.4866C2.71333 17.7866 2.72 18.0266 2.76666 18.2066C2.98666 19.0066 3.49333 19.6733 4.28 20.2066C5.06666 20.7399 5.97333 21.0066 7 21.0066C8.02666 21.0066 8.92666 20.7399 9.72 20.2066C10.5133 19.6733 11.0133 19.0066 11.24 18.2066C11.2867 18.0266 11.2867 17.7933 11.2533 17.4866ZM9.14 17.3333H4.85333L6.99333 12.1599L9.13333 17.3333H9.14Z" fill="#25CBDB"/>
<path d="M29.2533 17.4866C29.22 17.1866 29.1467 16.9133 29.0333 16.6733L25 6.93994L20.9667 16.6733C20.8533 16.9199 20.78 17.1866 20.7467 17.4866C20.7133 17.7866 20.72 18.0266 20.7667 18.2066C20.9867 19.0066 21.4933 19.6733 22.28 20.2066C23.0667 20.7399 23.9733 21.0066 25 21.0066C26.0267 21.0066 26.9267 20.7399 27.72 20.2066C28.5067 19.6733 29.0133 19.0066 29.2333 18.2066C29.28 18.0266 29.2867 17.7933 29.2533 17.4866ZM27.14 17.3333H22.8533L24.9933 12.1599L27.1333 17.3333H27.14Z" fill="#25CBDB"/>
</g>
<path opacity="0.85" d="M19.4801 5.3333C19.0468 3.81997 17.6535 2.71997 16.0001 2.71997C14.3468 2.71997 12.9535 3.81997 12.5201 5.3333C12.4268 5.64664 12.3801 5.98664 12.3801 6.3333C12.3801 6.67997 12.4268 7.0133 12.5201 7.3333C12.8601 8.52664 13.8068 9.4733 15.0001 9.8133C15.3201 9.90664 15.6535 9.9533 16.0001 9.9533C16.3468 9.9533 16.6801 9.90664 17.0001 9.8133C18.1935 9.4733 19.1401 8.52664 19.4801 7.3333C19.5735 7.0133 19.6201 6.67997 19.6201 6.3333C19.6201 5.98664 19.5735 5.64664 19.4801 5.3333ZM16.0001 7.9533C15.1068 7.9533 14.3801 7.22664 14.3801 6.3333C14.3801 5.43997 15.1068 4.71997 16.0001 4.71997C16.8935 4.71997 17.6201 5.43997 17.6201 6.3333C17.6201 7.22664 16.8935 7.9533 16.0001 7.9533Z" fill="#222343"/>
<path opacity="0.52" d="M16 7.96012C16.8983 7.96012 17.6266 7.23184 17.6266 6.33345C17.6266 5.43507 16.8983 4.70679 16 4.70679C15.1016 4.70679 14.3733 5.43507 14.3733 6.33345C14.3733 7.23184 15.1016 7.96012 16 7.96012Z" fill="#25CBDB"/>
<path d="M12.5201 7.33325C12.4268 7.01325 12.3801 6.67992 12.3801 6.33325C12.3801 5.98659 12.4268 5.64659 12.5201 5.33325H5.01343C4.46009 5.33325 4.01343 5.77992 4.01343 6.33325C4.01343 6.88659 4.46009 7.33325 5.01343 7.33325H12.5201Z" fill="#222343"/>
<path d="M27 7.33325C27.5533 7.33325 28 6.88659 28 6.33325C28 5.77992 27.5533 5.33325 27 5.33325H19.48C19.5733 5.64659 19.62 5.98659 19.62 6.33325C19.62 6.67992 19.5733 7.01325 19.48 7.33325H27Z" fill="#222343"/>
<path d="M17 9.81323V25.9666L28.3334 25.9666C28.8867 25.9666 29.3334 26.4132 29.3334 26.9666C29.3334 27.5132 28.8867 27.9666 28.3334 27.9666H3.66675C3.11341 27.9666 2.66675 27.5132 2.66675 26.9666C2.66675 26.4199 3.11341 25.9666 3.66675 25.9666L15 25.9666V9.81323C15.32 9.90657 15.6533 9.95323 16 9.95323C16.3467 9.95323 16.68 9.90657 17 9.81323Z" fill="#222343"/>
</svg>
