<svg width="32" height="32" viewBox="0 0 32 32" fill="none" xmlns="http://www.w3.org/2000/svg">
<g clip-path="url(#clip0_4016_5485)">
<g opacity="0.85">
<path d="M17.3333 10.6666H14.6667V26H17.3333V10.6666Z" fill="#222343"/>
<path d="M26 10.6666V19.02L23.3333 20.3533V10.6666C24.0159 10.6666 25.2321 10.6666 26 10.6666Z" fill="#222343"/>
<path d="M8.66667 10.6666H6V26H8.66667V10.6666Z" fill="#222343"/>
</g>
<path d="M28.0734 7.49999L16.7401 2.96666C16.2601 2.77332 15.7334 2.77332 15.2534 2.96666L3.92675 7.49999C3.16675 7.80666 2.66675 8.53999 2.66675 9.35999V9.67332C2.66675 10.2267 3.11341 10.6733 3.66675 10.6733H28.3334C28.8867 10.6733 29.3334 10.2267 29.3334 9.67332V9.35999C29.3334 8.53999 28.8334 7.80666 28.0734 7.49999Z" fill="#25CBDB"/>
<path d="M22.0001 28H3.66675C3.11341 28 2.66675 27.5533 2.66675 27C2.66675 26.4467 3.11341 26 3.66675 26H21.4201C21.5201 26.7267 21.7134 27.3933 22.0001 28Z" fill="#25CBDB"/>
<path opacity="0.52" d="M31.9999 21.9667V24.7334C31.9999 26.4667 31.5599 27.92 30.6866 29.1C29.8066 30.28 28.5999 31.1867 27.0666 31.8334C26.9799 31.88 26.8466 31.9 26.6666 31.9L26.2666 31.8334C24.7333 31.1867 23.5266 30.28 22.6533 29.1C22.3999 28.7534 22.1799 28.3867 21.9999 28C21.7133 27.3934 21.5199 26.7267 21.4199 26C21.3599 25.6 21.3333 25.1734 21.3333 24.7334V21.9667C21.3333 21.7867 21.3866 21.6134 21.4866 21.4467C21.5866 21.28 21.7199 21.1534 21.8999 21.0667L23.3333 20.3534L25.9999 19.02L26.2333 18.9C26.3599 18.8334 26.4999 18.8 26.6599 18.8C26.8199 18.8 26.9666 18.8334 27.0999 18.9L31.4333 21.0667C31.6133 21.1534 31.7533 21.28 31.8533 21.4467C31.9533 21.6134 31.9999 21.7867 31.9999 21.9667Z" fill="#25CBDB"/>
<path d="M8.00008 12.6666H6.66675C5.56008 12.6666 4.66675 11.7733 4.66675 10.6666H10.0001C10.0001 11.7733 9.10675 12.6666 8.00008 12.6666Z" fill="#222343"/>
<path d="M10.0001 26H4.66675C4.66675 25.4466 4.89341 24.9466 5.25341 24.5866C5.46008 24.38 5.71341 24.2133 6.00008 24.12C6.20675 24.04 6.43341 24 6.66675 24H8.00008C8.23341 24 8.46008 24.04 8.66675 24.12C9.44675 24.3866 10.0001 25.1266 10.0001 26Z" fill="#222343"/>
<path d="M13.3334 10.6666H18.6667C18.6667 11.7733 17.7734 12.6666 16.6667 12.6666H15.3334C14.2267 12.6666 13.3334 11.7733 13.3334 10.6666Z" fill="#222343"/>
<path d="M18.6667 26H13.3334C13.3334 25.4466 13.5601 24.9466 13.9201 24.5866C14.1267 24.38 14.3801 24.2133 14.6667 24.12C14.8734 24.04 15.1001 24 15.3334 24H16.6667C16.9001 24 17.1267 24.04 17.3334 24.12C18.1134 24.3866 18.6667 25.1266 18.6667 26Z" fill="#222343"/>
<path d="M27.3334 10.6666C27.3334 11.22 27.1067 11.72 26.7467 12.08C26.5401 12.2866 26.2867 12.4533 26.0001 12.5466C25.7934 12.6266 25.5667 12.6666 25.3334 12.6666H24.0001C23.7667 12.6666 23.5401 12.6266 23.3334 12.5466C22.5534 12.28 22.0001 11.54 22.0001 10.6666H27.3334Z" fill="#222343"/>
<path d="M25.9667 26.1333L24.4667 24.6333C24.3334 24.5 24.1801 24.4333 24.0001 24.4333C23.8201 24.4333 23.6667 24.5 23.5334 24.6333C23.4001 24.7666 23.3334 24.92 23.3334 25.1C23.3334 25.28 23.4001 25.4333 23.5334 25.5666L25.2668 27.3C25.4667 27.5 25.7001 27.6 25.9667 27.6C26.2334 27.6 26.4667 27.5 26.6667 27.3L30.2334 23.7333C30.3667 23.6 30.4334 23.4466 30.4334 23.2666C30.4334 23.0866 30.3667 22.9333 30.2334 22.8C30.1001 22.6666 29.9468 22.6 29.7668 22.6C29.5868 22.6 29.4334 22.6666 29.3001 22.8L25.9667 26.1333Z" fill="#222343"/>
</g>
<defs>
<clipPath id="clip0_4016_5485">
<rect width="32" height="32" fill="white"/>
</clipPath>
</defs>
</svg>
