<svg width="32" height="32" viewBox="0 0 32 32" fill="none" xmlns="http://www.w3.org/2000/svg">
<g opacity="0.85">
<path d="M26 10.6666H23.3334V26H26V10.6666Z" fill="#222343"/>
<path d="M8.66667 10.6666H6V26H8.66667V10.6666Z" fill="#222343"/>
<path d="M17.3333 10.6666H14.6666V26H17.3333V10.6666Z" fill="#222343"/>
</g>
<path d="M6.66669 12.6666H8.00002C9.10669 12.6666 10 11.7733 10 10.6666H4.66669C4.66669 11.7733 5.56002 12.6666 6.66669 12.6666Z" fill="#222343"/>
<path d="M15.3333 12.6666H16.6666C17.7733 12.6666 18.6666 11.7733 18.6666 10.6666H13.3333C13.3333 11.7733 14.2266 12.6666 15.3333 12.6666Z" fill="#222343"/>
<path d="M6.66669 24H8.00002C9.10669 24 10 24.8933 10 26H4.66669C4.66669 24.8933 5.56002 24 6.66669 24Z" fill="#222343"/>
<path d="M16.6666 24H15.3333C14.2266 24 13.3333 24.8933 13.3333 26H18.6666C18.6666 24.8933 17.7733 24 16.6666 24Z" fill="#222343"/>
<path d="M22 10.6666H27.3333C27.3333 11.7733 26.44 12.6666 25.3333 12.6666H24C22.8933 12.6666 22 11.7733 22 10.6666Z" fill="#222343"/>
<path d="M25.3333 24H24C22.8933 24 22 24.8933 22 26H27.3333C27.3333 24.8933 26.44 24 25.3333 24Z" fill="#222343"/>
<path d="M28.0734 7.49999L16.74 2.96666C16.26 2.77332 15.7334 2.77332 15.2534 2.96666L3.92669 7.49999C3.16669 7.80666 2.66669 8.53999 2.66669 9.35999V9.67332C2.66669 10.2267 3.11335 10.6733 3.66669 10.6733H28.3334C28.8867 10.6733 29.3334 10.2267 29.3334 9.67332V9.35999C29.3334 8.53999 28.8334 7.80666 28.0734 7.49999Z" fill="#25CBDB"/>
<path d="M28.3334 26H3.66669C3.1144 26 2.66669 26.4477 2.66669 27C2.66669 27.5523 3.1144 28 3.66669 28H28.3334C28.8856 28 29.3334 27.5523 29.3334 27C29.3334 26.4477 28.8856 26 28.3334 26Z" fill="#25CBDB"/>
</svg>
