<svg width="32" height="32" viewBox="0 0 32 32" fill="none" xmlns="http://www.w3.org/2000/svg">
<path opacity="0.85" d="M12.6667 17.3334C16.7168 17.3334 20 14.0502 20 10.0001C20 5.94999 16.7168 2.66675 12.6667 2.66675C8.61662 2.66675 5.33337 5.94999 5.33337 10.0001C5.33337 14.0502 8.61662 17.3334 12.6667 17.3334Z" fill="#25CBDB"/>
<path d="M14.8733 12.6933C14.5133 13.0599 14.0333 13.2999 13.4333 13.4133V13.8866C13.4333 14.0866 13.3734 14.2466 13.2467 14.3666C13.12 14.4866 12.96 14.5466 12.76 14.5466C12.56 14.5466 12.4 14.4866 12.2733 14.3666C12.1467 14.2466 12.0867 14.0866 12.0867 13.8866V13.4533C11.3733 13.3666 10.76 13.1533 10.2533 12.8266C10.14 12.7533 10.0534 12.6733 10.0067 12.5866C9.96002 12.4999 9.93335 12.3799 9.93335 12.2266C9.93335 12.0333 9.98668 11.8666 10.1 11.7266C10.2133 11.5866 10.3467 11.5133 10.5 11.5133C10.58 11.5133 10.6534 11.5266 10.7334 11.5533C10.8134 11.5799 10.9133 11.6266 11.0333 11.6999C11.3133 11.8533 11.58 11.9666 11.8267 12.0266C12.0733 12.0866 12.3333 12.1199 12.6067 12.1199C12.9467 12.1199 13.2067 12.0666 13.38 11.9533C13.56 11.8399 13.6467 11.6733 13.6467 11.4466C13.6467 11.3133 13.5933 11.1999 13.4867 11.1133C13.38 11.0266 13.2467 10.9599 13.0933 10.9066C12.94 10.8533 12.7067 10.7933 12.4067 10.7133C11.9267 10.5933 11.5267 10.4666 11.22 10.3399C10.9133 10.2133 10.6467 10.0199 10.42 9.75327C10.1933 9.48661 10.08 9.12661 10.08 8.67994C10.08 8.16661 10.26 7.71994 10.62 7.33994C10.98 6.95994 11.4533 6.70661 12.0467 6.58661V6.10661C12.0467 5.91327 12.1134 5.75327 12.24 5.62661C12.3667 5.49994 12.5267 5.43994 12.72 5.43994C12.9133 5.43994 13.08 5.49994 13.2067 5.62661C13.3333 5.74661 13.3933 5.90661 13.3933 6.10661V6.55994C13.9267 6.64661 14.4467 6.84661 14.9533 7.16661C15.0667 7.24661 15.1533 7.32661 15.2 7.41994C15.2467 7.51327 15.2733 7.62661 15.2733 7.75994C15.2733 7.95328 15.2133 8.11994 15.1 8.25994C14.9867 8.39994 14.8467 8.47327 14.6934 8.47327C14.6134 8.47327 14.54 8.45994 14.4733 8.43327C14.4 8.40661 14.3 8.35994 14.1667 8.28661C14.12 8.25994 14.02 8.20661 13.8667 8.12661C13.7133 8.04661 13.5467 7.97994 13.3667 7.93327C13.1933 7.88661 13 7.85994 12.8 7.85994C12.5134 7.85994 12.2733 7.91994 12.0933 8.04661C11.9133 8.17327 11.8267 8.33994 11.8267 8.55327C11.8267 8.76661 11.9267 8.91328 12.1334 9.01328C12.34 9.11328 12.66 9.21994 13.1067 9.31994C13.58 9.42661 13.9733 9.54661 14.28 9.66661C14.5867 9.78661 14.8467 9.98661 15.0733 10.2533C15.3 10.5199 15.4067 10.8866 15.4067 11.3399C15.4067 11.8599 15.2267 12.3066 14.8733 12.6733V12.6933Z" fill="#222343"/>
<path d="M18.0333 22.3599L16.2867 26.2599C16.2 26.4466 16.0667 26.5999 15.8934 26.7066L11.8934 29.1466C11.7334 29.2466 11.5533 29.2933 11.3733 29.2933C11.04 29.2933 10.7067 29.1266 10.52 28.8133C10.2333 28.3466 10.38 27.7266 10.8534 27.4399L14.5867 25.1599L16.9134 19.9599C16.9134 19.9599 16.9267 19.9266 16.94 19.9133C16.6267 20.8733 17.0867 21.9399 18.0333 22.3599Z" fill="#222343"/>
<path d="M24 13.9999C25.1046 13.9999 26 13.1045 26 11.9999C26 10.8954 25.1046 9.99994 24 9.99994C22.8954 9.99994 22 10.8954 22 11.9999C22 13.1045 22.8954 13.9999 24 13.9999Z" fill="#222343"/>
<path opacity="0.85" d="M24.3001 28.2001L23.6601 22.9401C23.6134 22.5734 23.3667 22.2601 23.0201 22.1267L20.2001 21.0601L22.5601 16.9667C23.1467 15.9601 22.7467 14.6667 21.6934 14.1667L20.8601 13.7667C20.8601 13.7667 20.8401 13.7667 20.8334 13.7601C20.7067 13.7001 20.5667 13.6667 20.4201 13.6667H16.5001C16.2801 13.6667 16.0667 13.7401 15.8934 13.8734L13.2734 15.8734C12.8334 16.2067 12.7534 16.8334 13.0867 17.2734C13.2867 17.5334 13.5801 17.6667 13.8801 17.6667C14.0934 17.6667 14.3067 17.6001 14.4867 17.4601L16.8401 15.6667H19.3401L17.1134 19.5267C17.0401 19.6534 16.9867 19.7801 16.9467 19.9134C16.6534 20.8134 17.0467 21.8067 17.8801 22.2734C17.9534 22.3267 18.0334 22.3801 18.1201 22.4134L21.7534 23.7867L22.3201 28.4467C22.3801 28.9534 22.8134 29.3267 23.3134 29.3267C23.3534 29.3267 23.3934 29.3267 23.4334 29.3201C23.9801 29.2534 24.3734 28.7534 24.3067 28.2067L24.3001 28.2001Z" fill="#222343"/>
</svg>
