<svg width="32" height="32" viewBox="0 0 32 32" fill="none" xmlns="http://www.w3.org/2000/svg">
<path d="M20.3466 9.31989C19.6999 9.31989 19.1466 9.09323 18.6866 8.63989C18.2266 8.18656 18.0066 7.63323 18.0066 6.97989C18.0066 6.32656 18.2333 5.77989 18.6866 5.31989C19.1399 4.85989 19.6933 4.63989 20.3466 4.63989C20.9999 4.63989 21.5466 4.86656 22.0066 5.31989C22.4666 5.77323 22.6866 6.32656 22.6866 6.97989C22.6866 7.63323 22.4599 8.17989 22.0066 8.63989C21.5533 9.09989 20.9999 9.31989 20.3466 9.31989Z" fill="#222343"/>
<path d="M14.0801 15.08L16.4201 17.42C16.6268 17.6266 16.7734 17.8466 16.8668 18.0866C16.9601 18.3266 17.0068 18.58 17.0068 18.84V23.1266C17.0068 23.4066 16.9068 23.64 16.7134 23.84C16.5201 24.04 16.2801 24.1333 16.0001 24.1333C15.7201 24.1333 15.4868 24.0333 15.2868 23.84C15.0868 23.6466 14.9934 23.4066 14.9934 23.1266V18.84L11.2335 15.08C11.0468 14.9333 10.9001 14.7533 10.7868 14.54C10.6735 14.3266 10.6201 14.1 10.6201 13.86C10.6201 13.56 10.6735 13.2733 10.7735 13C10.8735 12.7266 11.0268 12.48 11.2335 12.2733L14.5735 8.93329C14.7801 8.74662 15.0001 8.60662 15.2401 8.51329C15.4801 8.41996 15.7334 8.37329 15.9934 8.37329C16.3268 8.37329 16.6401 8.45329 16.9401 8.61329C17.2401 8.77329 17.5001 8.97996 17.7201 9.23996L19.7534 11.44C20.2001 11.92 20.7001 12.32 21.2601 12.6266C21.8201 12.9333 22.4001 13.14 23.0134 13.2533C23.2934 13.3066 23.5268 13.4333 23.7268 13.6266C23.9268 13.82 24.0201 14.06 24.0201 14.34C24.0201 14.62 23.9201 14.8533 23.7134 15.0533C23.5068 15.2533 23.2801 15.3266 23.0201 15.2933C22.0734 15.18 21.1868 14.92 20.3601 14.5133C19.5335 14.1066 18.8268 13.54 18.2268 12.8133L17.3934 11.78L14.0801 15.0933V15.08Z" fill="#222343"/>
<path d="M11.7666 18.2267C10.7266 17.1867 9.46663 16.6667 7.97997 16.6667C6.4933 16.6667 5.2333 17.1867 4.1933 18.2267C3.1533 19.2667 2.6333 20.5267 2.6333 22.0134C2.6333 23.5001 3.1533 24.7601 4.1933 25.8001C5.2333 26.8401 6.4933 27.3601 7.97997 27.3601C9.46663 27.3601 10.7266 26.8401 11.7666 25.8001C12.8066 24.7601 13.3266 23.5001 13.3266 22.0134C13.3266 20.5267 12.8066 19.2667 11.7666 18.2267ZM10.3466 24.3801C9.69997 25.0267 8.90663 25.3534 7.97997 25.3534C7.0533 25.3534 6.25997 25.0267 5.6133 24.3801C4.96663 23.7334 4.63997 22.9401 4.63997 22.0134C4.63997 21.0867 4.96663 20.2934 5.6133 19.6467C6.25997 19.0001 7.0533 18.6734 7.97997 18.6734C8.90663 18.6734 9.69997 19.0001 10.3466 19.6467C10.9933 20.2934 11.32 21.0867 11.32 22.0134C11.32 22.9401 10.9933 23.7334 10.3466 24.3801Z" fill="#25CBDB"/>
<path d="M27.8067 18.2267C26.7667 17.1867 25.5067 16.6667 24.02 16.6667C22.5333 16.6667 21.2733 17.1867 20.2333 18.2267C19.1933 19.2667 18.6733 20.5267 18.6733 22.0134C18.6733 23.5001 19.1933 24.7601 20.2333 25.8001C21.2733 26.8401 22.5333 27.3601 24.02 27.3601C25.5067 27.3601 26.7667 26.8401 27.8067 25.8001C28.8467 24.7601 29.3667 23.5001 29.3667 22.0134C29.3667 20.5267 28.8467 19.2667 27.8067 18.2267ZM26.3867 24.3801C25.74 25.0267 24.9467 25.3534 24.02 25.3534C23.0933 25.3534 22.3 25.0267 21.6533 24.3801C21.0067 23.7334 20.68 22.9401 20.68 22.0134C20.68 21.0867 21.0067 20.2934 21.6533 19.6467C22.3 19.0001 23.0933 18.6734 24.02 18.6734C24.9467 18.6734 25.74 19.0001 26.3867 19.6467C27.0333 20.2934 27.36 21.0867 27.36 22.0134C27.36 22.9401 27.0333 23.7334 26.3867 24.3801Z" fill="#25CBDB"/>
<g opacity="0.52">
<path d="M10.3466 24.38C9.69989 25.0267 8.90656 25.3533 7.97989 25.3533C7.05323 25.3533 6.25989 25.0267 5.61323 24.38C4.96656 23.7333 4.63989 22.94 4.63989 22.0133C4.63989 21.0867 4.96656 20.2933 5.61323 19.6467C6.25989 19 7.05323 18.6733 7.97989 18.6733C8.90656 18.6733 9.69989 19 10.3466 19.6467C10.9932 20.2933 11.3199 21.0867 11.3199 22.0133C11.3199 22.94 10.9932 23.7333 10.3466 24.38Z" fill="#25CBDB"/>
<path d="M26.3866 24.38C25.7399 25.0267 24.9466 25.3533 24.0199 25.3533C23.0933 25.3533 22.2999 25.0267 21.6533 24.38C21.0066 23.7333 20.6799 22.94 20.6799 22.0133C20.6799 21.0867 21.0066 20.2933 21.6533 19.6467C22.2999 19 23.0933 18.6733 24.0199 18.6733C24.9466 18.6733 25.7399 19 26.3866 19.6467C27.0333 20.2933 27.3599 21.0867 27.3599 22.0133C27.3599 22.94 27.0333 23.7333 26.3866 24.38Z" fill="#25CBDB"/>
</g>
</svg>
