<svg width="32" height="32" viewBox="0 0 32 32" fill="none" xmlns="http://www.w3.org/2000/svg">
<path opacity="0.52" d="M10.3333 26H24.6667V22.6667H10.3333C9.41332 22.6667 8.66666 23.4134 8.66666 24.3334C8.66666 25.2534 9.41332 26 10.3333 26Z" fill="#25CBDB"/>
<path d="M22.6667 26H10.44C9.56666 26 8.77333 25.3734 8.68666 24.5067C8.58666 23.5067 9.36666 22.6667 10.3467 22.6667H25C25.92 22.6667 26.6667 21.92 26.6667 21V4.33335C26.6667 3.41335 25.92 2.66669 25 2.66669H9.33333C7.12666 2.66669 5.33333 4.46002 5.33333 6.66669V25.3334C5.33333 27.54 7.12666 29.3334 9.33333 29.3334H25C25.92 29.3334 26.6667 28.5867 26.6667 27.6667C26.6667 26.7467 25.92 26 25 26H22.6667ZM10.6667 10.6667H21.3333V12H10.6667V10.6667ZM10.6667 13.3334H21.3333V14.6667H10.6667V13.3334Z" fill="#222343"/>
</svg>
