<svg width="32" height="32" viewBox="0 0 32 32" fill="none" xmlns="http://www.w3.org/2000/svg">
<path d="M25.3334 20.0067V26.5C25.3334 26.86 25.18 27.1333 24.8867 27.3333C24.5867 27.5333 24.2667 27.56 23.9334 27.4L16.0067 24L25.3334 20.0067Z" fill="#222343"/>
<path opacity="0.52" d="M25.3334 5.83331V20.0066L7.96002 27.4466C7.66669 27.5533 7.38002 27.5133 7.12002 27.3333C6.81335 27.1333 6.66669 26.86 6.66669 26.5V5.83331C6.66669 5.29998 6.86669 4.83331 7.26669 4.43331C7.66669 4.03331 8.13335 3.83331 8.66669 3.83331H23.3334C23.8667 3.83331 24.3334 4.03331 24.7334 4.43331C25.1334 4.83331 25.3334 5.29998 25.3334 5.83331Z" fill="#25CBDB"/>
</svg>
