<svg width="32" height="32" viewBox="0 0 32 32" fill="none" xmlns="http://www.w3.org/2000/svg">
<path opacity="0.52" d="M15.3334 30.3666L11.5467 26.6666H6.33339C6.04672 26.6666 5.81339 26.5733 5.62006 26.3799C5.42672 26.1866 5.33339 25.9533 5.33339 25.6666V20.4733L1.56672 16.6999C1.36672 16.4999 1.26672 16.2666 1.26672 15.9999C1.26672 15.7333 1.36672 15.4999 1.56672 15.2999L5.33339 11.5266V6.33327C5.33339 6.0466 5.42672 5.81327 5.62006 5.61994C5.81339 5.4266 6.04672 5.33327 6.33339 5.33327H11.5467L15.3334 1.5666C15.5334 1.3666 15.7667 1.2666 16.0334 1.2666C16.3001 1.2666 16.5334 1.3666 16.7334 1.5666L20.4667 5.33327H25.6667C25.9534 5.33327 26.1867 5.4266 26.3801 5.61994C26.5734 5.81327 26.6667 6.0466 26.6667 6.33327V11.5266L30.4334 15.2999C30.6334 15.4999 30.7334 15.7333 30.7334 15.9999C30.7334 16.2666 30.6334 16.4999 30.4334 16.6999L26.6667 20.4733V25.6666C26.6667 25.9533 26.5734 26.1866 26.3801 26.3799C26.1867 26.5733 25.9534 26.6666 25.6667 26.6666H20.4667L16.7334 30.3333C16.5334 30.5133 16.3001 30.6066 16.0334 30.6199C15.7667 30.6333 15.5334 30.5466 15.3334 30.3666Z" fill="#25CBDB"/>
<path d="M16 22.6068C19.6819 22.6068 22.6667 19.622 22.6667 15.9401C22.6667 12.2582 19.6819 9.27344 16 9.27344C12.3181 9.27344 9.33337 12.2582 9.33337 15.9401C9.33337 19.622 12.3181 22.6068 16 22.6068Z" fill="#222343"/>
</svg>
