<svg width="32" height="32" viewBox="0 0 32 32" fill="none" xmlns="http://www.w3.org/2000/svg">
<path d="M5.33333 29.3334C4.93333 29.3334 4.66667 29.2001 4.4 28.9334C4.13333 28.6667 4 28.3334 4 28.0001V20.6667C4 20.1334 4.2 19.6667 4.6 19.2667C5 18.8667 5.46667 18.6667 6 18.6667H26C26.5333 18.6667 27 18.8667 27.4 19.2667C27.8 19.6667 28 20.1334 28 20.6667V28.0001C28 28.4001 27.8667 28.6667 27.6 28.9334C27.3333 29.2001 27 29.3334 26.6667 29.3334H5.33333Z" fill="#222343"/>
<path opacity="0.85" d="M17 10.6001H23.1334C23.6667 10.6001 24.1334 10.8001 24.5333 11.2001C24.9333 11.6001 25.1334 12.0668 25.1334 12.6001V18.6668H6.93335V12.6001C6.93335 12.0668 7.13335 11.6001 7.53335 11.2001C7.93335 10.8001 8.40002 10.6001 8.93335 10.6001H17.0667H17Z" fill="#222343"/>
<path d="M15 10.6V8.46672C14.5333 8.13338 14.2 7.80005 14 7.46672C13.7333 7.06672 13.6666 6.66672 13.6666 6.13338C13.6666 5.60005 13.6666 5.46672 13.8666 5.20005C14.0666 4.93338 14.1333 4.66672 14.4 4.40005L15.7333 3.00005C15.7333 3.00005 15.8666 2.93338 16.1333 2.80005C16.1333 2.80005 16.2666 2.80005 16.4666 3.00005L17.8 4.40005C18 4.60005 18.2 4.86672 18.3333 5.20005C18.4666 5.53338 18.5333 5.80005 18.5333 6.13338C18.5333 6.66672 18.4 7.06672 18.1333 7.46672C17.8666 7.86672 17.5333 8.20005 17.0666 8.46672V10.6" fill="#25CBDB"/>
</svg>
