<svg width="32" height="32" viewBox="0 0 32 32" fill="none" xmlns="http://www.w3.org/2000/svg">
<g opacity="0.85">
<path d="M22.6599 9.33335C22.3732 9.33335 22.1399 9.24002 21.9466 9.04669C21.7599 8.85335 21.6599 8.62002 21.6599 8.33335V3.66669C21.6599 3.38002 21.7532 3.14669 21.9466 2.95335C22.1399 2.76002 22.3799 2.66669 22.6666 2.66669C22.9532 2.66669 23.1866 2.76002 23.3799 2.95335C23.5666 3.14669 23.6666 3.38002 23.6666 3.66669V8.33335C23.6666 8.62002 23.5732 8.85335 23.3799 9.04669C23.1866 9.24002 22.9466 9.33335 22.6599 9.33335Z" fill="#25CBDB"/>
<path d="M22.6599 14C22.3732 14 22.1399 13.9067 21.9466 13.7134C21.7599 13.52 21.6599 13.28 21.6599 12.9934C21.6599 12.7067 21.7532 12.4734 21.9466 12.28C22.1399 12.0934 22.3799 11.9934 22.6666 11.9934C22.9532 11.9934 23.1866 12.0867 23.3799 12.28C23.5666 12.4734 23.6666 12.7134 23.6666 13C23.6666 13.2867 23.5732 13.52 23.3799 13.7134C23.1866 13.9 22.9466 14 22.6599 14Z" fill="#25CBDB"/>
</g>
<path d="M26.5001 28C23.9201 28 21.2934 27.38 18.6134 26.1333C15.9334 24.8867 13.4534 23.12 11.1601 20.8333C8.86674 18.5467 7.10674 16.06 5.86007 13.38C4.61341 10.7 3.99341 8.07335 3.99341 5.49335C3.99341 5.06668 4.13341 4.70668 4.42008 4.42001C4.70674 4.13335 5.06007 3.99335 5.49341 3.99335H10.1601C10.4734 3.99335 10.7401 4.10668 10.9601 4.32668C11.1801 4.54668 11.3401 4.82668 11.4267 5.16001L12.3267 9.34668C12.3734 9.66668 12.3667 9.95335 12.3134 10.2067C12.2601 10.46 12.1401 10.68 11.9534 10.8667L8.62674 14.2267C9.20674 15.2067 9.81341 16.1133 10.4601 16.96C11.1067 17.8067 11.8134 18.6067 12.5934 19.36C13.4134 20.2067 14.2801 20.98 15.1934 21.68C16.1067 22.38 17.0601 23 18.0601 23.5333L21.2267 20.2667C21.4467 20.02 21.7067 19.8533 22.0001 19.7667C22.2934 19.68 22.5801 19.6533 22.8601 19.7L26.8267 20.5667C27.1601 20.6533 27.4401 20.8333 27.6601 21.1C27.8801 21.3667 27.9934 21.6667 27.9934 22V26.5C27.9934 26.9267 27.8534 27.2867 27.5667 27.5733C27.2801 27.86 26.9267 28 26.4934 28H26.5001Z" fill="#222343"/>
</svg>
