<svg width="32" height="32" viewBox="0 0 32 32" fill="none" xmlns="http://www.w3.org/2000/svg">
<g opacity="0.52">
<path d="M26.85 6.13327C26.5166 5.69327 25.89 5.59994 25.45 5.93327L23.1166 7.69327C22.6766 8.02661 22.59 8.65327 22.9166 9.09327C23.25 9.53327 23.8766 9.62661 24.3166 9.29327L26.65 7.53327C27.09 7.19994 27.1766 6.57327 26.85 6.13327Z" fill="#25CBDB"/>
<path d="M23.0233 24.2666L25.45 26.0733C25.89 26.3999 26.5166 26.3133 26.85 25.8733C27.1833 25.4333 27.09 24.7999 26.65 24.4733L24.2233 22.6666C23.7833 22.3399 23.1566 22.4266 22.8233 22.8666C22.49 23.3066 22.5833 23.9399 23.0233 24.2666Z" fill="#25CBDB"/>
<path d="M28.5833 14.9999H25.5833C25.031 14.9999 24.5833 15.4477 24.5833 15.9999C24.5833 16.5522 25.031 16.9999 25.5833 16.9999H28.5833C29.1356 16.9999 29.5833 16.5522 29.5833 15.9999C29.5833 15.4477 29.1356 14.9999 28.5833 14.9999Z" fill="#25CBDB"/>
</g>
<path d="M17.5833 10.6333V21.3733C19.5566 20.3933 20.9166 18.36 20.9166 16.0066C20.9166 13.6533 19.5566 11.62 17.5833 10.64V10.6333Z" fill="#25CBDB"/>
<path d="M14.1633 10.0533L10.9166 11.9999H4.91663C4.36329 11.9999 3.88996 12.1933 3.50329 12.5866C3.11663 12.9733 2.91663 13.4466 2.91663 13.9999V17.9999C2.91663 18.5533 3.10996 19.0266 3.50329 19.4133C3.88996 19.7999 4.36329 19.9999 4.91663 19.9999H7.24996V25.3333H9.24996V19.9999H10.9166L14.1633 21.9466L17.5833 23.9999V7.99994L14.1633 10.0533Z" fill="#222343"/>
</svg>
