<svg width="32" height="32" viewBox="0 0 32 32" fill="none" xmlns="http://www.w3.org/2000/svg">
<path opacity="0.52" d="M16 29.3334C14.1555 29.3334 12.4222 28.9834 10.8 28.2834C9.17774 27.5834 7.76663 26.6334 6.56663 25.4334C5.36663 24.2334 4.41663 22.8222 3.71663 21.2C3.01663 19.5778 2.66663 17.8445 2.66663 16C2.66663 14.1556 3.01663 12.4222 3.71663 10.8C4.41663 9.1778 5.36663 7.76669 6.56663 6.56669C7.76663 5.36669 9.17774 4.41669 10.8 3.71669C12.4222 3.01669 14.1555 2.66669 16 2.66669C17.8444 2.66669 19.5777 3.01669 21.2 3.71669C22.8222 4.41669 24.2333 5.36669 25.4333 6.56669C26.6333 7.76669 27.5833 9.1778 28.2833 10.8C28.9833 12.4222 29.3333 14.1556 29.3333 16C29.3333 17.8445 28.9833 19.5778 28.2833 21.2C27.5833 22.8222 26.6333 24.2334 25.4333 25.4334C24.2333 26.6334 22.8222 27.5834 21.2 28.2834C19.5777 28.9834 17.8444 29.3334 16 29.3334Z" fill="#25CBDB"/>
<path fill-rule="evenodd" clip-rule="evenodd" d="M19.8667 21.7333L16 17.8666L12.1334 21.7333C11.8889 21.9777 11.5778 22.1 11.2 22.1C10.8222 22.1 10.5111 21.9777 10.2667 21.7333C10.0222 21.4889 9.90002 21.1777 9.90002 20.8C9.90002 20.4222 10.0222 20.1111 10.2667 19.8666L14.1334 16L10.2667 12.1333C10.0222 11.8889 9.90002 11.5777 9.90002 11.2C9.90002 10.8222 10.0222 10.5111 10.2667 10.2666C10.5111 10.0222 10.8222 9.89996 11.2 9.89996C11.5778 9.89996 11.8889 10.0222 12.1334 10.2666L16 14.1333L19.8667 10.2666C20.1111 10.0222 20.4222 9.89996 20.8 9.89996C21.1778 9.89996 21.4889 10.0222 21.7334 10.2666C21.9778 10.5111 22.1 10.8222 22.1 11.2C22.1 11.5777 21.9778 11.8889 21.7334 12.1333L17.8667 16L21.7334 19.8666C21.9778 20.1111 22.1 20.4222 22.1 20.8C22.1 21.1777 21.9778 21.4889 21.7334 21.7333C21.4889 21.9777 21.1778 22.1 20.8 22.1C20.4222 22.1 20.1111 21.9777 19.8667 21.7333Z" fill="#222343"/>
</svg>
