<svg width="32" height="32" viewBox="0 0 32 32" fill="none" xmlns="http://www.w3.org/2000/svg">
<path opacity="0.85" d="M5.39991 26.0667C5.06657 26.2 4.74657 26.1733 4.44657 25.98C4.14657 25.7867 3.99324 25.52 3.99324 25.16V19.2733C3.99324 18.8133 4.30657 18.4133 4.75324 18.3L11.4866 16.6267C12.1599 16.46 12.1599 15.5067 11.4866 15.3333L4.73991 13.6133C4.29991 13.5 3.98657 13.1 3.98657 12.6467V6.82668C3.98657 6.47335 4.13991 6.20002 4.43991 6.00668C4.73991 5.81335 5.05991 5.78668 5.39324 5.92002L27.1266 15.0533C27.5266 15.2333 27.7266 15.54 27.7266 15.9867C27.7266 16.4333 27.5266 16.74 27.1266 16.92L5.39324 26.0533L5.39991 26.0667Z" fill="#25CBDB"/>
<path d="M22.9999 29.3334C21.2466 29.3334 19.7466 28.7201 18.5132 27.5001C17.2799 26.2801 16.6599 24.7867 16.6599 23.0334C16.6599 21.2801 17.2799 19.7801 18.5132 18.5334C19.7466 17.2867 21.2399 16.6667 22.9999 16.6667C24.7599 16.6667 26.2532 17.2867 27.4866 18.5334C28.7199 19.7801 29.3399 21.2801 29.3399 23.0334C29.3399 24.7867 28.7199 26.2801 27.4866 27.5001C26.2532 28.7201 24.7599 29.3334 22.9999 29.3334Z" fill="#222343"/>
<path d="M23 23.8333L24.9 25.7333C25.0133 25.8467 25.14 25.8933 25.2866 25.8867C25.4333 25.88 25.56 25.8133 25.6733 25.7C25.7866 25.5867 25.84 25.46 25.84 25.3133C25.84 25.1667 25.7866 25.04 25.6733 24.9267L23.74 23.0267L25.74 21.0267C25.8533 20.9133 25.9066 20.7867 25.9066 20.64C25.9066 20.4933 25.8533 20.3667 25.74 20.2533C25.6266 20.14 25.5 20.0867 25.3533 20.0867C25.2066 20.0867 25.08 20.14 24.9666 20.2533L23 22.22L21.0333 20.2533C20.92 20.14 20.8 20.0867 20.6666 20.0867C20.5333 20.0867 20.4133 20.14 20.3 20.2533C20.1866 20.3667 20.1333 20.4933 20.1333 20.64C20.1333 20.7867 20.1866 20.9133 20.3 21.0267L22.2333 22.9933L20.3 24.9267C20.1866 25.04 20.1333 25.1733 20.1333 25.3267C20.1333 25.48 20.1866 25.6133 20.3 25.7267C20.4133 25.84 20.54 25.8933 20.6866 25.8933C20.8333 25.8933 20.96 25.84 21.0733 25.7267L23.0066 23.8267L23 23.8333Z" fill="#25CBDB"/>
</svg>
