<svg width="32" height="32" viewBox="0 0 32 32" fill="none" xmlns="http://www.w3.org/2000/svg">
<g clip-path="url(#clip0_4027_6537)">
<path d="M23.5667 14.6666V12.6666C23.5667 12.4066 23.62 12.1532 23.72 11.9066C23.82 11.6599 23.96 11.4466 24.1333 11.2666L25.5 9.86656C25.7467 9.61989 26.0333 9.51989 26.3667 9.56656C26.7 9.61322 26.9467 9.78656 27.1 10.0999L31.2333 17.8666C31.4133 18.1999 31.4 18.5266 31.2067 18.8532C31.0133 19.1799 30.72 19.3399 30.3333 19.3399H25.5667C25.0133 19.3399 24.5467 19.1466 24.1533 18.7532C23.76 18.3599 23.5667 17.8932 23.5667 17.3399V16.6732" fill="#25CBDB"/>
<path opacity="0.32" d="M19.5667 8.66667V14.6667H13V7H17.9C18.3733 7 18.7667 7.16 19.0867 7.48C19.4067 7.8 19.5667 8.19333 19.5667 8.66667Z" fill="#25CBDB"/>
<g opacity="0.85">
<path d="M19.5666 16.6667V19.0001H19.2333C18.4133 19.0001 17.6733 19.2467 17.0199 19.7467C16.3599 20.2467 15.9199 20.8867 15.6999 21.6667H12.9999V16.6667H19.5666Z" fill="#222343"/>
<path d="M10.9999 11.6667V23.7001H8.51325C8.61325 23.3734 8.66659 23.0267 8.66659 22.6667C8.66659 20.6467 7.01992 19.0001 4.99992 19.0001C2.97992 19.0001 1.33325 20.6467 1.33325 22.6667V13.6667C1.33325 12.5601 2.22659 11.6667 3.33325 11.6667H10.9999Z" fill="#222343"/>
</g>
<path d="M23.5668 16.6667V14.6667H21.5335V8.66667C21.5335 7.64667 21.1802 6.78 20.4668 6.06667C19.7535 5.35333 18.9002 5 17.9002 5H12.0002C11.7202 5 11.4802 5.09333 11.2868 5.28667C11.0935 5.48 11.0002 5.71333 11.0002 6V23.7H15.7335C15.9802 24.48 16.4202 25.1133 17.0535 25.6C17.6868 26.0867 18.4135 26.3333 19.2335 26.3333C20.2535 26.3333 21.1202 25.98 21.8335 25.2667C22.5468 24.5533 22.9002 23.6867 22.9002 22.6667C22.9002 22.12 22.7868 21.6 22.5535 21.1067C22.3202 20.6133 21.9802 20.1933 21.5335 19.8333V16.6667H23.5668ZM13.0002 7H17.9002C18.3735 7 18.7668 7.16 19.0868 7.48C19.4068 7.8 19.5668 8.19333 19.5668 8.66667V14.6667H13.0002V7ZM17.0202 19.7467C16.3602 20.2467 15.9202 20.8867 15.7002 21.6667H13.0002V16.6667H19.5668V19H19.2335C18.4135 19 17.6735 19.2467 17.0202 19.7467ZM20.4202 23.8533C20.0935 24.1733 19.7002 24.3333 19.2268 24.3333C18.7535 24.3333 18.3602 24.1733 18.0468 23.8467C17.7268 23.5267 17.5668 23.1333 17.5668 22.66C17.5668 22.1867 17.7268 21.7933 18.0535 21.48C18.3735 21.16 18.7668 21 19.2402 21C19.7135 21 20.1068 21.16 20.4202 21.48C20.7402 21.8067 20.9002 22.2 20.9002 22.6733C20.9002 23.1467 20.7402 23.54 20.4202 23.8533Z" fill="#222343"/>
<path d="M5.00016 19C2.98016 19 1.3335 20.6467 1.3335 22.6667C1.3335 23.0267 1.38683 23.3733 1.48683 23.7C1.92683 25.22 3.34016 26.3333 5.00016 26.3333C6.66016 26.3333 8.0735 25.22 8.5135 23.7C8.6135 23.3733 8.66683 23.0267 8.66683 22.6667C8.66683 20.6467 7.02016 19 5.00016 19ZM5.00016 24.3333C4.4735 24.3333 4.00016 24.0867 3.6935 23.7C3.46683 23.42 3.3335 23.06 3.3335 22.6667C3.3335 21.7467 4.08016 21 5.00016 21C5.92016 21 6.66683 21.7467 6.66683 22.6667C6.66683 23.06 6.5335 23.42 6.30683 23.7C6.00016 24.0867 5.52683 24.3333 5.00016 24.3333Z" fill="#222343"/>
</g>
<defs>
<clipPath id="clip0_4027_6537">
<rect width="32" height="32" fill="white"/>
</clipPath>
</defs>
</svg>
