<svg width="32" height="32" viewBox="0 0 32 32" fill="none" xmlns="http://www.w3.org/2000/svg">
<path d="M27.98 16.6825C27.98 16.5759 27.9467 16.4692 27.9 16.3625L27.0867 13.9159L25.1667 8.1292C25.1133 7.9892 25.0467 7.86253 24.9667 7.7492C24.8733 7.6092 24.7467 7.4892 24.6067 7.39586C24.3667 7.2292 24.0933 7.14253 23.8 7.13586C23.78 7.13586 23.7533 7.13586 23.7333 7.13586H8.26667C7.94667 7.13586 7.65333 7.22253 7.39333 7.40253C7.13333 7.57586 6.94667 7.82253 6.83333 8.13586L4.1 16.3692C4.05333 16.4759 4.02667 16.5825 4.02 16.6892C4.00667 16.7959 4 16.8959 4 17.0025V27.1359C4 27.5025 4.12667 27.8159 4.38667 28.0759C4.64 28.3359 4.95333 28.4692 5.32667 28.4692C5.7 28.4692 6.01333 28.3359 6.27333 28.0759C6.53333 27.8159 6.66667 27.5025 6.66667 27.1359V25.6692H25.3333V27.1359C25.3333 27.5025 25.46 27.8159 25.72 28.0759C25.9733 28.3359 26.2867 28.4692 26.66 28.4692C27.0333 28.4692 27.3467 28.3359 27.6067 28.0759C27.8667 27.8159 28 27.5025 28 27.1359V17.0025C28 16.8959 27.9933 16.7959 27.98 16.6892V16.6825ZM10.82 21.4692C10.4733 21.8159 10.04 21.9959 9.52667 21.9959C9.01333 21.9959 8.57333 21.8225 8.20667 21.4759C7.84667 21.1359 7.66667 20.7025 7.66667 20.1892C7.66667 19.6759 7.84667 19.2292 8.21333 18.8692C8.57333 18.5092 9.01333 18.3292 9.53333 18.3292C10.0533 18.3292 10.46 18.5092 10.8067 18.8692C11.16 19.2359 11.3333 19.6759 11.3333 20.1959C11.3333 20.7159 11.16 21.1159 10.82 21.4692ZM23.8533 21.4692C23.5067 21.8159 23.0733 21.9959 22.56 21.9959C22.0467 21.9959 21.6067 21.8225 21.24 21.4759C20.88 21.1359 20.7 20.7025 20.7 20.1892C20.7 19.6759 20.88 19.2292 21.2467 18.8692C21.6067 18.5092 22.0467 18.3292 22.5667 18.3292C23.0867 18.3292 23.4933 18.5092 23.84 18.8692C24.1933 19.2359 24.3667 19.6759 24.3667 20.1959C24.3667 20.7159 24.1933 21.1159 23.8533 21.4692ZM6.76667 14.6625L8.6 9.1292H23.4L23.92 10.7025L24.3467 11.9959L25.1733 14.4759L25.2333 14.6625H6.76667Z" fill="#222343"/>
<path opacity="0.32" d="M25.2333 14.6625H6.7666L8.59993 9.12915H17.9999C18.1933 10.4758 18.7933 11.6558 19.7999 12.6625C21.0466 13.9025 22.5466 14.5292 24.3066 14.5292C24.6066 14.5292 24.8933 14.5092 25.1733 14.4758L25.2333 14.6625Z" fill="#25CBDB"/>
<path d="M11.3334 20.1959C11.3334 20.6959 11.1601 21.1159 10.8201 21.4692C10.4734 21.8159 10.0401 21.9959 9.52675 21.9959C9.01341 21.9959 8.57342 21.8226 8.20675 21.4759C7.84675 21.1359 7.66675 20.7026 7.66675 20.1892C7.66675 19.6759 7.84675 19.2292 8.21341 18.8692C8.57341 18.5092 9.01341 18.3292 9.53341 18.3292C10.0534 18.3292 10.4601 18.5092 10.8067 18.8692C11.1601 19.2359 11.3334 19.6759 11.3334 20.1959Z" fill="#25CBDB"/>
<path d="M24.3666 20.1959C24.3666 20.6959 24.1933 21.1159 23.8533 21.4692C23.5066 21.8159 23.0733 21.9959 22.56 21.9959C22.0466 21.9959 21.6066 21.8226 21.24 21.4759C20.88 21.1359 20.7 20.7026 20.7 20.1892C20.7 19.6759 20.88 19.2292 21.2466 18.8692C21.6066 18.5092 22.0466 18.3292 22.5666 18.3292C23.0866 18.3292 23.4933 18.5092 23.84 18.8692C24.1933 19.2359 24.3666 19.6759 24.3666 20.1959Z" fill="#25CBDB"/>
<path d="M28.8134 3.64257C27.5867 2.40923 26.08 1.7959 24.3 1.7959C22.52 1.7959 21.0467 2.4159 19.8 3.66257C18.8 4.6559 18.2067 5.8159 18.0067 7.12923C17.96 7.4559 17.9333 7.7959 17.9333 8.14257C17.9333 8.48923 17.9533 8.80923 18 9.12923C18.1933 10.4759 18.7934 11.6559 19.8 12.6626C21.0467 13.9026 22.5467 14.5292 24.3067 14.5292C24.6067 14.5292 24.8933 14.5092 25.1733 14.4759C25.8533 14.3892 26.4934 14.2026 27.0867 13.9159C27.7067 13.6159 28.28 13.2026 28.8067 12.6759C30.0467 11.4426 30.6667 9.9359 30.6667 8.16257C30.6667 6.38923 30.0534 4.8759 28.8134 3.64257Z" fill="#25CBDB"/>
<path d="M25.1334 11.2625C25.1334 11.4825 25.0601 11.6625 24.9201 11.7958C24.7734 11.9292 24.5934 11.9958 24.3867 11.9958C24.1801 11.9958 24.0001 11.9292 23.8667 11.7958C23.7334 11.6625 23.6667 11.4892 23.6667 11.2758C23.6667 11.0625 23.7267 10.8958 23.8534 10.7625C23.9734 10.6292 24.1534 10.5492 24.4001 10.5292C24.5934 10.5292 24.7667 10.5958 24.9134 10.7292C25.0601 10.8625 25.1334 11.0358 25.1334 11.2625Z" fill="#222343"/>
<path d="M24.9667 4.96254V8.56254C24.9667 8.73587 24.92 8.88254 24.8134 8.99587C24.72 9.10254 24.58 9.16254 24.4 9.16254C24.22 9.16254 24.08 9.10921 23.9667 9.00921C23.8534 8.90921 23.8 8.76921 23.8 8.59587V4.99587C23.8 4.81587 23.8534 4.66921 23.9467 4.56254C24.0534 4.44921 24.1867 4.39587 24.3667 4.39587C24.5467 4.39587 24.6867 4.44254 24.8 4.54254C24.9134 4.64254 24.9667 4.78254 24.9667 4.96254Z" fill="#222343"/>
</svg>
