<svg width="32" height="32" viewBox="0 0 32 32" fill="none" xmlns="http://www.w3.org/2000/svg">
<path opacity="0.52" d="M3.66675 27.1667C3.38008 27.1667 3.14675 27.0733 2.95341 26.88C2.76008 26.6867 2.66675 26.4533 2.66675 26.1667V18.0333C2.66675 17.7467 2.76008 17.5133 2.95341 17.32C3.14675 17.1267 3.38008 17.0333 3.66675 17.0333H11.8001C12.0867 17.0333 12.3201 17.1267 12.5134 17.32C12.7067 17.5133 12.8001 17.7467 12.8001 18.0333V26.1667C12.8001 26.4533 12.7067 26.6867 12.5134 26.88C12.3201 27.0733 12.0867 27.1667 11.8001 27.1667H3.66675Z" fill="#25CBDB"/>
<path d="M20.2333 13.1334H9.16668C8.78001 13.1334 8.48668 12.96 8.29335 12.6134C8.10001 12.2667 8.10001 11.9267 8.30001 11.5934L13.8667 2.69335C14.06 2.38002 14.34 2.22668 14.6933 2.22668C15.0467 2.22668 15.3333 2.38002 15.5333 2.69335L21.1 11.5934C21.3 11.9267 21.3 12.2667 21.1067 12.6134C20.9133 12.96 20.62 13.1334 20.2333 13.1334Z" fill="#25CBDB"/>
<path d="M29.7332 28.1666L27.0332 25.4666C27.3466 24.9999 27.5799 24.4933 27.7466 23.9533C27.9132 23.4133 27.9999 22.8266 27.9999 22.2066C27.9999 20.56 27.4466 19.1866 26.3332 18.0733C25.2199 16.9599 23.8466 16.4066 22.1999 16.4066C20.5532 16.4066 19.1799 16.9599 18.0666 18.0733C16.9532 19.1866 16.3999 20.56 16.3999 22.2066C16.3999 23.8533 16.9532 25.2266 18.0666 26.3399C19.1799 27.4533 20.5532 28.0066 22.1999 28.0066C22.8399 28.0066 23.4466 27.9133 24.0266 27.72C24.6066 27.5333 25.1399 27.2666 25.6332 26.9333L28.2999 29.5666C28.4999 29.7666 28.7399 29.8666 29.0199 29.8666C29.2999 29.8666 29.5332 29.7666 29.7399 29.5666C29.9399 29.3666 30.0399 29.1333 30.0399 28.8666C30.0399 28.5999 29.9399 28.3666 29.7399 28.1666H29.7332ZM24.8999 24.8999C24.1666 25.6333 23.2666 25.9999 22.1999 25.9999C21.1332 25.9999 20.2332 25.6333 19.4999 24.8999C18.7666 24.1666 18.3999 23.2666 18.3999 22.1999C18.3999 21.1333 18.7666 20.2333 19.4999 19.4999C20.2332 18.7666 21.1332 18.3999 22.1999 18.3999C23.2666 18.3999 24.1666 18.7666 24.8999 19.4999C25.6332 20.2333 25.9999 21.1333 25.9999 22.1999C25.9999 23.2666 25.6332 24.1666 24.8999 24.8999Z" fill="#222343"/>
</svg>
