<svg width="32" height="32" viewBox="0 0 32 32" fill="none" xmlns="http://www.w3.org/2000/svg">
<path d="M2.34657 27.22L7.3799 13.22C7.49323 12.9333 7.66657 12.7067 7.8999 12.5533C8.13323 12.4 8.38657 12.32 8.65323 12.32C8.83323 12.32 8.9999 12.3533 9.15323 12.42C9.30657 12.4867 9.45323 12.5867 9.58657 12.72L18.5866 21.72C18.7199 21.8533 18.8199 22 18.8866 22.1533C18.9532 22.3067 18.9866 22.4733 18.9866 22.6533C18.9866 22.92 18.9066 23.1733 18.7532 23.4067C18.5999 23.64 18.3732 23.8133 18.0866 23.9267L4.08657 28.96C3.8199 29.0733 3.56657 29.0867 3.3199 29.0133C3.07323 28.94 2.86657 28.8067 2.68657 28.6267C2.50657 28.4467 2.3799 28.24 2.2999 27.9933C2.2199 27.7467 2.2399 27.4933 2.35323 27.2267L2.34657 27.22Z" fill="#222343"/>
<path d="M29.4467 9.92C29.2467 10.12 29.0134 10.22 28.7467 10.22C28.4801 10.22 28.2467 10.12 28.0467 9.92L27.9467 9.82C27.6334 9.50667 27.2467 9.35333 26.7801 9.35333C26.3134 9.35333 25.9267 9.50667 25.6134 9.82L18.8467 16.5867C18.6467 16.7867 18.4134 16.8867 18.1467 16.8867C17.8801 16.8867 17.6467 16.7867 17.4467 16.5867C17.2467 16.3867 17.1467 16.1533 17.1467 15.8867C17.1467 15.62 17.2467 15.3867 17.4467 15.1867L24.2134 8.42C24.9267 7.70667 25.7801 7.35333 26.7801 7.35333C27.7801 7.35333 28.6334 7.70667 29.3467 8.42L29.4467 8.52C29.6467 8.72 29.7467 8.95333 29.7467 9.22C29.7467 9.48667 29.6467 9.72 29.4467 9.92Z" fill="#25CBDB"/>
<path d="M12.0466 5.91999C12.2466 5.71999 12.4799 5.62 12.7466 5.62C13.0132 5.62 13.2466 5.71999 13.4466 5.91999L13.6132 6.08666C14.3266 6.79999 14.6799 7.63999 14.6799 8.61999C14.6799 9.59999 14.3266 10.44 13.6132 11.1533L13.5132 11.2533C13.3132 11.4533 13.0799 11.5533 12.8132 11.5533C12.5466 11.5533 12.3132 11.4533 12.1132 11.2533C11.9132 11.0533 11.8132 10.82 11.8132 10.5533C11.8132 10.2867 11.9132 10.0533 12.1132 9.85333L12.2132 9.75333C12.5266 9.43999 12.6799 9.06666 12.6799 8.61999C12.6799 8.17333 12.5266 7.79999 12.2132 7.48666L12.0466 7.31999C11.8466 7.11999 11.7466 6.88666 11.7466 6.62C11.7466 6.35333 11.8466 6.11999 12.0466 5.91999Z" fill="#25CBDB"/>
<g opacity="0.52">
<path d="M17.4466 3.25331C17.6466 3.05331 17.88 2.95331 18.1466 2.95331C18.4133 2.95331 18.6466 3.05331 18.8466 3.25331L20.28 4.68664C20.9933 5.39998 21.3466 6.25331 21.3466 7.25331C21.3466 8.25331 20.9933 9.10664 20.28 9.81997L16.18 13.92C15.98 14.12 15.7466 14.22 15.48 14.22C15.2133 14.22 14.98 14.12 14.78 13.92C14.58 13.72 14.48 13.4866 14.48 13.22C14.48 12.9533 14.58 12.72 14.78 12.52L18.88 8.41998C19.1933 8.10664 19.3466 7.71997 19.3466 7.25331C19.3466 6.78664 19.1933 6.39998 18.88 6.08664L17.4466 4.65331C17.2466 4.45331 17.1466 4.21997 17.1466 3.95331C17.1466 3.68664 17.2466 3.45331 17.4466 3.25331Z" fill="#25CBDB"/>
<path d="M28.1132 19.2533C27.9132 19.4533 27.6799 19.5533 27.4132 19.5533C27.1466 19.5533 26.9132 19.4533 26.7132 19.2533L25.2799 17.82C24.9666 17.5067 24.5799 17.3533 24.1132 17.3533C23.6466 17.3533 23.2599 17.5067 22.9466 17.82L21.5132 19.2533C21.3132 19.4533 21.0799 19.5533 20.8132 19.5533C20.5466 19.5533 20.3132 19.4533 20.1132 19.2533C19.9132 19.0533 19.8132 18.82 19.8132 18.5533C19.8132 18.2867 19.9132 18.0533 20.1132 17.8533L21.5466 16.42C22.2599 15.7067 23.1132 15.3533 24.1132 15.3533C25.1132 15.3533 25.9666 15.7067 26.6799 16.42L28.1132 17.8533C28.3132 18.0533 28.4132 18.2867 28.4132 18.5533C28.4132 18.82 28.3132 19.0533 28.1132 19.2533Z" fill="#25CBDB"/>
</g>
</svg>
