<svg width="32" height="32" viewBox="0 0 32 32" fill="none" xmlns="http://www.w3.org/2000/svg">
<path d="M4.70655 22.04L3.29321 20.6267L13.3399 10.5734L19.9999 17.2534L27.2932 9.95337L28.7065 11.3734L19.9999 20.08L13.3399 13.4067L4.70655 22.04Z" fill="#222343"/>
<path d="M28.3333 12.6667C29.6219 12.6667 30.6666 11.622 30.6666 10.3333C30.6666 9.04467 29.6219 8 28.3333 8C27.0446 8 25.9999 9.04467 25.9999 10.3333C25.9999 11.622 27.0446 12.6667 28.3333 12.6667Z" fill="#25CBDB"/>
<path d="M19.9999 21C21.2886 21 22.3333 19.9553 22.3333 18.6667C22.3333 17.378 21.2886 16.3333 19.9999 16.3333C18.7113 16.3333 17.6666 17.378 17.6666 18.6667C17.6666 19.9553 18.7113 21 19.9999 21Z" fill="#25CBDB"/>
<path d="M13.3333 14.3333C14.6219 14.3333 15.6666 13.2887 15.6666 12C15.6666 10.7113 14.6219 9.66667 13.3333 9.66667C12.0446 9.66667 10.9999 10.7113 10.9999 12C10.9999 13.2887 12.0446 14.3333 13.3333 14.3333Z" fill="#25CBDB"/>
<path d="M3.66659 24C4.95525 24 5.99992 22.9553 5.99992 21.6667C5.99992 20.378 4.95525 19.3333 3.66659 19.3333C2.37792 19.3333 1.33325 20.378 1.33325 21.6667C1.33325 22.9553 2.37792 24 3.66659 24Z" fill="#25CBDB"/>
</svg>
