<svg width="32" height="32" viewBox="0 0 32 32" fill="none" xmlns="http://www.w3.org/2000/svg">
<path opacity="0.52" d="M4.66666 7.33325V24.5733H27.3333V7.33325H4.66666Z" fill="#25CBDB"/>
<path d="M29.3333 7.33325C29.3333 6.22659 28.44 5.33325 27.3333 5.33325H4.66666C3.55999 5.33325 2.66666 6.22659 2.66666 7.33325V24.5733C2.66666 25.6799 3.55999 26.5733 4.66666 26.5733H27.3333C28.44 26.5733 29.3333 25.6799 29.3333 24.5733V7.33325ZM4.66666 24.5733V7.33325H27.3333V24.5733H4.66666Z" fill="#25CBDB"/>
<path d="M17.72 10.3466C17.72 10.8999 18.1667 11.3466 18.72 11.3466H21.8867L15.98 17.2532L11.38 12.6532C10.9867 12.2599 10.3533 12.2599 9.96666 12.6532L2.67332 19.9666V22.7999L10.6733 14.7732L15.2733 19.3732C15.6667 19.7666 16.3 19.7666 16.6867 19.3732L23.3267 12.7332V15.8999C23.3267 16.4532 23.7733 16.8999 24.3267 16.8999C24.88 16.8999 25.3267 16.4532 25.3267 15.8999V10.3466C25.3267 9.79322 24.88 9.34656 24.3267 9.34656H18.72C18.1667 9.34656 17.72 9.79322 17.72 10.3466Z" fill="#222343"/>
</svg>
