<svg width="32" height="32" viewBox="0 0 32 32" fill="none" xmlns="http://www.w3.org/2000/svg">
<g opacity="0.85">
<path d="M6.68678 18.1133C6.60012 18.1133 6.50678 18.0933 6.42012 18.0466C6.33345 18 6.26678 17.9266 6.22012 17.8133L5.65345 16.58L4.42012 16.0133C4.30678 15.9666 4.23345 15.9 4.18678 15.8133C4.14012 15.7266 4.12012 15.6333 4.12012 15.5466C4.12012 15.46 4.14012 15.3666 4.18678 15.28C4.23345 15.1933 4.30678 15.1266 4.42012 15.08L5.65345 14.5133L6.22012 13.28C6.26678 13.1666 6.33345 13.0933 6.42012 13.0466C6.50678 13 6.60012 12.98 6.68678 12.98C6.77345 12.98 6.86678 13 6.95345 13.0466C7.04012 13.0933 7.10678 13.1666 7.15345 13.28L7.72012 14.5133L8.95345 15.08C9.13345 15.1666 9.22012 15.3266 9.22012 15.5466C9.22012 15.7666 9.13345 15.9266 8.95345 16.0133L7.72012 16.58L7.15345 17.8133C7.10678 17.9266 7.04012 18 6.95345 18.0466C6.86678 18.0933 6.77345 18.1133 6.68678 18.1133Z" fill="#25CBDB"/>
<path d="M20.6535 12.62C20.5668 12.62 20.4734 12.6 20.3868 12.5533C20.3001 12.5066 20.2335 12.4333 20.1868 12.32L19.4201 10.6533L17.7534 9.88664C17.6401 9.83997 17.5668 9.7733 17.5201 9.68664C17.4734 9.59997 17.4535 9.50664 17.4535 9.41997C17.4535 9.3333 17.4734 9.23997 17.5201 9.1533C17.5668 9.06664 17.6401 8.99997 17.7534 8.9533L19.4201 8.18664L20.1868 6.51997C20.2335 6.40664 20.3001 6.3333 20.3868 6.28664C20.4734 6.23997 20.5668 6.21997 20.6535 6.21997C20.7401 6.21997 20.8335 6.23997 20.9201 6.28664C21.0068 6.3333 21.0735 6.40664 21.1201 6.51997L21.8868 8.18664L23.5535 8.9533C23.6668 8.99997 23.7401 9.06664 23.7868 9.1533C23.8335 9.23997 23.8534 9.3333 23.8534 9.41997C23.8534 9.50664 23.8335 9.59997 23.7868 9.68664C23.7401 9.7733 23.6668 9.83997 23.5535 9.88664L21.8868 10.6533L21.1201 12.32C21.0735 12.4333 21.0068 12.5066 20.9201 12.5533C20.8335 12.6 20.7401 12.62 20.6535 12.62Z" fill="#25CBDB"/>
</g>
<path d="M5.33345 24.5533C5.08012 24.5533 4.82012 24.4533 4.62679 24.26C4.23345 23.8667 4.23345 23.2333 4.62679 22.8467L12.6268 14.8467C13.0001 14.4733 13.6668 14.4733 14.0401 14.8467L18.6668 19.4733L25.9601 12.18C26.3535 11.7867 26.9868 11.7867 27.3735 12.18C27.7601 12.5733 27.7668 13.2067 27.3735 13.5933L19.3735 21.5933C18.9801 21.9867 18.3468 21.9867 17.9601 21.5933L13.3335 16.9667L6.04012 24.26C5.84679 24.4533 5.58679 24.5533 5.33345 24.5533Z" fill="#222343"/>
<path d="M7.56676 23.5533C7.56676 23.7533 7.5401 23.9467 7.48676 24.1267C7.38676 24.52 7.1801 24.8667 6.9001 25.1467C6.49343 25.54 5.94676 25.7867 5.33343 25.7867C4.1001 25.7867 3.1001 24.7867 3.1001 23.5533C3.1001 22.32 4.1001 21.32 5.33343 21.32C5.94676 21.32 6.5001 21.5667 6.9001 21.96C7.1801 22.24 7.38676 22.5867 7.48676 22.98C7.5401 23.16 7.56676 23.3533 7.56676 23.5533Z" fill="#25CBDB"/>
<path d="M15.5668 15.5467C15.5668 15.7467 15.5401 15.94 15.4868 16.12C15.3868 16.5133 15.1801 16.86 14.9001 17.14C14.4934 17.5333 13.9468 17.78 13.3334 17.78C12.1001 17.78 11.1001 16.78 11.1001 15.5467C11.1001 14.3133 12.1001 13.3133 13.3334 13.3133C13.9468 13.3133 14.5001 13.56 14.9001 13.9533C15.1801 14.2333 15.3868 14.58 15.4868 14.9733C15.5401 15.1533 15.5668 15.3467 15.5668 15.5467Z" fill="#25CBDB"/>
<path d="M20.9001 20.88C20.9001 21.08 20.8734 21.2733 20.8201 21.4533C20.7201 21.8467 20.5134 22.1933 20.2334 22.4733C19.8268 22.8667 19.2801 23.1133 18.6668 23.1133C17.4334 23.1133 16.4334 22.1133 16.4334 20.88C16.4334 19.6467 17.4334 18.6467 18.6668 18.6467C19.2801 18.6467 19.8334 18.8933 20.2334 19.2867C20.5134 19.5667 20.7201 19.9133 20.8201 20.3067C20.8734 20.4867 20.9001 20.68 20.9001 20.88Z" fill="#25CBDB"/>
<path d="M28.9001 12.8867C28.9001 13.0867 28.8734 13.28 28.8201 13.46C28.7201 13.8533 28.5134 14.2 28.2334 14.48C27.8268 14.8733 27.2801 15.12 26.6668 15.12C25.4334 15.12 24.4334 14.12 24.4334 12.8867C24.4334 11.6533 25.4334 10.6533 26.6668 10.6533C27.2801 10.6533 27.8334 10.9 28.2334 11.2933C28.5134 11.5733 28.7201 11.92 28.8201 12.3133C28.8734 12.4933 28.9001 12.6867 28.9001 12.8867Z" fill="#25CBDB"/>
</svg>
