<svg width="32" height="32" viewBox="0 0 32 32" fill="none" xmlns="http://www.w3.org/2000/svg">
<path d="M28.7334 3.26663C28.3334 2.86663 27.8667 2.66663 27.3334 2.66663H4.66675C4.13341 2.66663 3.66675 2.86663 3.26675 3.26663C2.86675 3.66663 2.66675 4.13329 2.66675 4.66663V26.9333C2.66675 27.38 2.87341 27.68 3.28675 27.8466C3.69341 28.0133 4.05341 27.9466 4.36675 27.6333L8.00008 24H27.3334C27.8667 24 28.3334 23.8 28.7334 23.4C29.1334 23 29.3334 22.5333 29.3334 22V4.66663C29.3334 4.13329 29.1334 3.66663 28.7334 3.26663Z" fill="#25CBDB"/>
<path d="M16.0001 12.9C16.6867 12.9 17.2734 12.66 17.7534 12.18C18.2267 11.7067 18.4667 11.12 18.4667 10.4333C18.4667 9.74667 18.2267 9.16001 17.7534 8.68001C17.2734 8.20668 16.6867 7.96667 16.0001 7.96667C15.3134 7.96667 14.7267 8.20668 14.2534 8.68001C13.7734 9.16001 13.5334 9.74667 13.5334 10.4333C13.5334 11.12 13.7734 11.7067 14.2534 12.18C14.7267 12.66 15.3134 12.9 16.0001 12.9Z" fill="#222343"/>
<path d="M19.9201 15.8667C18.9734 15.3533 17.6667 15.1 16.0001 15.1C14.3334 15.1 13.0267 15.3533 12.0867 15.8667C11.1401 16.38 10.6667 17.1 10.6667 18.0333V18.6667H21.3334V18.0333C21.3334 17.1 20.8601 16.38 19.9201 15.8667Z" fill="#222343"/>
</svg>
