<svg width="32" height="32" viewBox="0 0 32 32" fill="none" xmlns="http://www.w3.org/2000/svg">
<path opacity="0.52" d="M2.66669 26.9334V4.66669C2.66669 4.15335 2.86669 3.69335 3.26669 3.28669C3.66669 2.87335 4.13335 2.66669 4.66669 2.66669H27.3334C27.8467 2.66669 28.3067 2.87335 28.72 3.28669C29.1334 3.70002 29.3334 4.16002 29.3334 4.66669V22C29.3334 22.5134 29.1267 22.9734 28.72 23.3867C28.3067 23.8 27.8467 24 27.3334 24H8.00002L4.36669 27.6334C4.05335 27.9467 3.69335 28.02 3.28669 27.8534C2.87335 27.6867 2.66669 27.38 2.66669 26.9334Z" fill="#25CBDB"/>
<path d="M17.4667 18.7C17.7333 18.7 17.96 18.6067 18.1467 18.42C18.3333 18.2333 18.4267 17.9933 18.4267 17.7C18.4267 17.4067 18.3333 17.1733 18.1467 16.98C17.96 16.7867 17.72 16.6933 17.4267 16.7H8.96001C8.69335 16.7 8.46668 16.7933 8.28001 16.98C8.09335 17.1667 7.99335 17.4067 7.99335 17.7C7.99335 17.9933 8.08668 18.2267 8.28001 18.42C8.46668 18.6067 8.70668 18.7 8.99335 18.7H17.4667Z" fill="#222343"/>
<path d="M9.00001 14.3667H23.0333C23.3 14.3667 23.5267 14.2733 23.72 14.0867C23.9133 13.9 24 13.66 24 13.3667C24 13.0733 23.9067 12.84 23.72 12.6467C23.5333 12.46 23.2933 12.3667 23 12.3667H8.96668C8.70001 12.3667 8.47335 12.46 8.28668 12.6467C8.10001 12.8333 8.00001 13.0733 8.00001 13.3667C8.00001 13.66 8.09335 13.8933 8.28668 14.0867C8.47335 14.2733 8.71335 14.3667 9.00001 14.3667Z" fill="#222343"/>
<path d="M9.00001 10.0333H23.0333C23.3 10.0333 23.5267 9.93999 23.72 9.74666C23.9067 9.55999 24 9.31999 24 9.03333C24 8.74666 23.9067 8.50666 23.72 8.31999C23.5333 8.13332 23.2933 8.03333 23 8.03333H8.96668C8.70001 8.03333 8.47335 8.12666 8.28668 8.31999C8.10001 8.50666 8.00001 8.74666 8.00001 9.03333C8.00001 9.31999 8.09335 9.55999 8.28668 9.74666C8.47335 9.93333 8.71335 10.0333 9.00001 10.0267V10.0333Z" fill="#222343"/>
</svg>
