<svg width="32" height="32" viewBox="0 0 32 32" fill="none" xmlns="http://www.w3.org/2000/svg">
<path opacity="0.52" d="M25.0333 26.6666C26.5666 26.6666 27.8866 26.1133 28.9999 24.9999C30.1133 23.8866 30.6666 22.5666 30.6666 21.0333C30.6666 19.3866 30.1133 18.0266 28.9999 16.9466C27.8866 15.8666 26.5333 15.3533 24.9333 15.3933V14.5933C24.9333 12.0599 24.0799 9.8866 22.3666 8.07327C20.6533 6.25994 18.5533 5.35327 16.0666 5.35327C13.9133 5.35327 12.0133 6.03994 10.3666 7.4066C8.71992 8.77327 7.67992 10.5333 7.23325 12.6933C5.51992 12.9599 4.11325 13.7466 2.99992 15.0599C1.88659 16.3733 1.33325 17.8933 1.33325 19.6266C1.33325 21.5799 2.01992 23.2466 3.38659 24.6133C4.75325 25.9799 6.41325 26.6666 8.37325 26.6666H25.0399H25.0333Z" fill="#25CBDB"/>
<path d="M16.0666 7.3667C17.9999 7.3667 19.5866 8.05337 20.9133 9.46003C22.2733 10.9 22.9333 12.58 22.9333 14.6V17.4534L24.9866 17.3934C25.0333 17.3934 25.0733 17.3934 25.1199 17.3934C26.1199 17.3934 26.9133 17.7067 27.6066 18.38C28.3266 19.08 28.6666 19.92 28.6666 21.0267C28.6666 22.0334 28.3199 22.84 27.5866 23.58C26.8466 24.32 26.0399 24.66 25.0333 24.66H8.36659C6.95325 24.66 5.77992 24.18 4.79992 23.1934C3.81325 22.2067 3.33325 21.04 3.33325 19.6267C3.33325 18.3734 3.72659 17.3 4.52659 16.3534C5.32659 15.4134 6.31325 14.86 7.53992 14.6667L8.91325 14.4534L9.19325 13.0934C9.54659 11.38 10.3466 10.02 11.6466 8.9467C12.9333 7.88003 14.3799 7.36003 16.0666 7.36003M16.0666 5.3667C13.9133 5.3667 12.0133 6.0467 10.3666 7.41337C8.71992 8.78003 7.67992 10.54 7.23325 12.7C5.51992 12.9667 4.11325 13.7534 2.99992 15.0667C1.88659 16.38 1.33325 17.9 1.33325 19.6334C1.33325 21.5867 2.01325 23.2534 3.37992 24.6134C4.74659 25.98 6.40659 26.6667 8.36659 26.6667H25.0333C26.5666 26.6667 27.8866 26.1134 28.9999 25C30.1133 23.8867 30.6666 22.5667 30.6666 21.0334C30.6666 19.3867 30.1133 18.0267 28.9999 16.9534C27.9333 15.92 26.6399 15.4 25.1199 15.4C25.0599 15.4 24.9933 15.4 24.9333 15.4V14.6C24.9333 12.0667 24.0799 9.89337 22.3666 8.0867C20.6533 6.28003 18.5533 5.37337 16.0666 5.37337V5.3667Z" fill="#25CBDB"/>
<path d="M20.5066 18.1331C20.3132 18.3265 20.0532 18.4265 19.7999 18.4265C19.5466 18.4265 19.2866 18.3265 19.0932 18.1331L16.9999 16.0398V28.3731C16.9999 28.9198 16.5532 29.3731 15.9999 29.3731C15.4466 29.3731 14.9999 28.9198 14.9999 28.3731V16.0398L12.9066 18.1331C12.5132 18.5198 11.8866 18.5198 11.4932 18.1331C11.0999 17.7398 11.0999 17.1065 11.4932 16.7198L15.2932 12.9198C15.3866 12.8265 15.4999 12.7531 15.6199 12.6998C15.6266 12.6998 15.6332 12.6998 15.6332 12.6931C15.7466 12.6531 15.8732 12.6265 15.9999 12.6265C16.1266 12.6265 16.2532 12.6531 16.3666 12.6931C16.3666 12.6998 16.3732 12.6998 16.3799 12.6998C16.4999 12.7531 16.6132 12.8265 16.7066 12.9198L20.5066 16.7198C20.8999 17.1065 20.8999 17.7398 20.5066 18.1331Z" fill="#222343"/>
</svg>
