<svg width="32" height="32" viewBox="0 0 32 32" fill="none" xmlns="http://www.w3.org/2000/svg">
<path opacity="0.52" d="M8.36666 26.6666C6.41333 26.6666 4.74666 25.9799 3.37999 24.6133C2.01333 23.2466 1.32666 21.5866 1.32666 19.6266C1.32666 17.8933 1.87999 16.3733 2.99333 15.0599C4.10666 13.7466 5.51333 12.9599 7.22666 12.6933C7.67333 10.5399 8.71333 8.77327 10.36 7.4066C12.0067 6.03994 13.9067 5.35327 16.06 5.35327C18.5467 5.35327 20.6467 6.25994 22.36 8.07327C24.0733 9.8866 24.9267 12.0599 24.9267 14.5933V15.3933C26.5267 15.3466 27.88 15.8666 28.9933 16.9466C30.1067 18.0266 30.66 19.3866 30.66 21.0333C30.66 22.5666 30.1067 23.8866 28.9933 24.9999C27.88 26.1133 26.56 26.6666 25.0267 26.6666H8.36666Z" fill="#25CBDB"/>
<path opacity="0.85" d="M16.0666 7.36646C17.9999 7.36646 19.5866 8.05312 20.9133 9.45979C22.2733 10.8998 22.9333 12.5798 22.9333 14.5998V17.4531L24.9866 17.3931C25.0333 17.3931 25.0733 17.3931 25.1199 17.3931C26.1199 17.3931 26.9066 17.7065 27.6066 18.3798C28.3266 19.0798 28.6666 19.9198 28.6666 21.0265C28.6666 22.0331 28.3199 22.8398 27.5866 23.5798C26.8466 24.3198 26.0399 24.6598 25.0333 24.6598H8.36659C6.95325 24.6598 5.77992 24.1798 4.79992 23.1931C3.81325 22.2065 3.33325 21.0398 3.33325 19.6265C3.33325 18.3731 3.72659 17.2998 4.52659 16.3531C5.32659 15.4131 6.31325 14.8598 7.53992 14.6665L8.91325 14.4531L9.19325 13.0931C9.54659 11.3798 10.3466 10.0198 11.6466 8.94646C12.9333 7.87979 14.3799 7.35979 16.0666 7.35979M16.0666 5.36646C13.9133 5.36646 12.0133 6.04645 10.3666 7.41312C8.71992 8.77979 7.67992 10.5398 7.23325 12.6998C5.51992 12.9665 4.11325 13.7531 2.99992 15.0665C1.88659 16.3798 1.33325 17.8998 1.33325 19.6331C1.33325 21.5865 2.01992 23.2531 3.38659 24.6198C4.75325 25.9865 6.41325 26.6665 8.36659 26.6665H25.0333C26.5666 26.6665 27.8866 26.1131 28.9999 24.9998C30.1133 23.8865 30.6666 22.5665 30.6666 21.0331C30.6666 19.3865 30.1133 18.0265 28.9999 16.9531C27.9333 15.9198 26.6399 15.3998 25.1199 15.3998C25.0599 15.3998 24.9933 15.3998 24.9333 15.3998V14.5998C24.9333 12.0665 24.0799 9.89312 22.3666 8.08646C20.6533 6.27312 18.5533 5.37312 16.0666 5.37312V5.36646Z" fill="#25CBDB"/>
<path d="M13.7666 20L11.1 17.3334C10.92 17.1534 10.6933 17.0734 10.4133 17.08C10.1333 17.0867 9.90663 17.1867 9.72663 17.3667C9.54663 17.5467 9.45996 17.7734 9.45996 18.0534C9.45996 18.3334 9.54663 18.56 9.72663 18.74L13.0266 22.0067C13.2266 22.2067 13.46 22.3067 13.7266 22.3067C13.9933 22.3067 14.2266 22.2067 14.4266 22.0067L20.7266 15.7067C20.9066 15.5267 20.9933 15.3067 20.9933 15.04C20.9933 14.7734 20.9066 14.5534 20.7266 14.3734C20.5466 14.1934 20.3266 14.1067 20.06 14.1067C19.7933 14.1067 19.5733 14.1934 19.3933 14.3734L13.76 20.0067L13.7666 20Z" fill="#222343"/>
</svg>
