<svg width="32" height="32" viewBox="0 0 32 32" fill="none" xmlns="http://www.w3.org/2000/svg">
<path opacity="0.32" d="M24.8333 27.3267L10.4733 13.0134L12.3733 11.1134L26.7333 25.4601C27 25.7267 27.1333 26.0401 27.1333 26.3934C27.1333 26.7467 27 27.0601 26.7333 27.3267C26.4667 27.5934 26.1533 27.7267 25.7867 27.7267C25.42 27.7267 25.1 27.5934 24.84 27.3267H24.8333Z" fill="#25CBDB"/>
<path d="M10.6 13.16L10.5333 13.2267C10.3333 13.4267 10.1 13.5267 9.83334 13.5267C9.56667 13.5267 9.33334 13.4267 9.13334 13.2267L8.36667 12.46V15.2933L8.1 15.56C7.94667 15.7133 7.76667 15.7933 7.56667 15.7933C7.36667 15.7933 7.18667 15.7133 7.03334 15.56L4.03334 12.56C3.88 12.4067 3.8 12.2267 3.8 12.0267C3.8 11.8267 3.88 11.6467 4.03334 11.4933L4.3 11.2267H7.16667L6.26667 10.3267C6.06667 10.1267 5.96667 9.89333 5.96667 9.62667C5.96667 9.36 6.06667 9.12667 6.26667 8.92667L9.93334 5.26C10.3133 4.88 10.72 4.62667 11.1667 4.49333C11.6133 4.36 12.1 4.29333 12.6333 4.29333C13.1667 4.29333 13.6533 4.38667 14.1 4.58C14.5467 4.76667 14.9533 5.05333 15.3333 5.43333L11.7667 9L12.6667 9.9C12.8667 10.1 12.9667 10.3333 12.9667 10.6C12.9667 10.8667 12.8667 11.1 12.6667 11.3L12.5667 11.4L10.6 13.1667V13.16Z" fill="#25CBDB"/>
<path d="M20.1 10.7934C19.92 10.5067 19.78 10.1734 19.6867 9.79339C19.5867 9.41339 19.5333 9.01339 19.5333 8.59339C19.5333 7.41339 19.96 6.40006 20.8133 5.54672C21.6667 4.69339 22.6867 4.26672 23.86 4.26672C24.1933 4.26672 24.48 4.30006 24.7133 4.36672C24.9467 4.43339 25.14 4.52006 25.3 4.63339L22.4667 7.46672L24.9667 9.96672L27.8 7.13339C27.9133 7.31339 28.0067 7.52672 28.08 7.78672C28.16 8.04006 28.1933 8.33339 28.1933 8.66672C28.1933 9.84672 27.7667 10.8601 26.9133 11.7134C26.06 12.5667 25.04 12.9934 23.86 12.9934C23.46 12.9934 23.1133 12.9667 22.8267 12.9134C22.54 12.8601 22.2733 12.7734 22.0267 12.6601L7.33333 27.3601C7.06667 27.6267 6.75333 27.7534 6.4 27.7467C6.04667 27.7334 5.73333 27.5934 5.46667 27.3334C5.2 27.0667 5.06667 26.7467 5.06667 26.3867C5.06667 26.0267 5.2 25.7067 5.46667 25.4401L20.1 10.7934Z" fill="#222343"/>
</svg>
