<svg width="32" height="32" viewBox="0 0 32 32" fill="none" xmlns="http://www.w3.org/2000/svg">
<path opacity="0.52" d="M30 4H2C0.895431 4 0 4.89543 0 6V26C0 27.1046 0.895431 28 2 28H30C31.1046 28 32 27.1046 32 26V6C32 4.89543 31.1046 4 30 4Z" fill="#25CBDB"/>
<path d="M26.1867 19.6C26.1 19.4466 25.98 19.3333 25.8333 19.2666C25.6867 19.2 25.5267 19.1666 25.3533 19.1666H23.5533C23.3533 18.6133 23.2133 18.0933 23.14 17.62C23.06 17.14 23.0267 16.6133 23.0267 16.0333C23.0267 15.4533 23.0667 14.9333 23.14 14.4666C23.22 14 23.36 13.48 23.5533 12.9H25.3533C25.5333 12.9 25.6933 12.8666 25.8333 12.8C25.9733 12.7333 26.0933 12.62 26.1867 12.4666L27.2867 10.9C27.44 10.7 27.5067 10.48 27.4867 10.2333C27.4667 9.98664 27.3667 9.77997 27.1867 9.59997L25.8533 8.26664C25.6733 8.08664 25.46 7.99331 25.2 7.97997C24.9467 7.96664 24.7267 8.05331 24.5533 8.23331C23.5333 9.23331 22.74 10.4133 22.1867 11.7666C21.6333 13.12 21.3533 14.5466 21.3533 16.0333C21.3533 17.52 21.6333 18.9466 22.1867 20.3C22.74 21.6533 23.5333 22.8333 24.5533 23.8333C24.7333 24.0133 24.9467 24.0933 25.2 24.0866C25.4533 24.0733 25.6733 23.98 25.8533 23.8L27.1867 22.4666C27.3667 22.2866 27.4667 22.08 27.4867 21.8333C27.5067 21.5866 27.44 21.3666 27.2867 21.1666L26.1867 19.6Z" fill="#222343"/>
<path d="M10.9867 18.6666C12.1 18.6666 13.04 18.28 13.82 17.5C14.6 16.72 14.9867 15.78 14.9867 14.6666C14.9867 13.5533 14.6 12.6133 13.82 11.8333C13.04 11.0533 12.1 10.6666 10.9867 10.6666C9.87332 10.6666 8.93332 11.0533 8.15332 11.8333C7.37332 12.6133 6.98665 13.5533 6.98665 14.6666C6.98665 15.78 7.37332 16.72 8.15332 17.5C8.93332 18.28 9.87332 18.6666 10.9867 18.6666Z" fill="#222343"/>
<path d="M15.9467 22.3666C14.4333 21.48 12.78 21.0333 10.98 21.0333C9.17998 21.0333 7.53998 21.48 5.99332 22.3666C4.44665 23.2533 3.18665 24.4666 2.21332 26H19.7133C18.7133 24.4666 17.46 23.2533 15.9467 22.3666Z" fill="#222343"/>
</svg>
