<svg width="32" height="32" viewBox="0 0 32 32" fill="none" xmlns="http://www.w3.org/2000/svg">
<path opacity="0.32" d="M16.0172 29.3203C14.1962 29.3203 12.4686 28.9681 10.8478 28.2703C9.22689 27.5725 7.80613 26.6223 6.59214 25.4128C5.37816 24.2034 4.42432 22.7946 3.72394 21.1731C3.02357 19.5517 2.67004 17.8372 2.67004 16.023C2.67004 14.2089 3.02357 12.4877 3.72394 10.8729C4.42432 9.25814 5.37816 7.83605 6.5788 6.61996C7.77945 5.40387 9.1802 4.44031 10.7811 3.72926C12.3819 3.01822 14.0828 2.66602 15.8838 2.66602C16.5975 2.66602 17.1711 2.83215 17.6047 3.16441C18.0383 3.49668 18.3118 4.01501 18.4251 4.72605C18.6052 6.00859 19.1589 7.10507 20.0927 8.00218C21.0265 8.89929 22.1271 9.43756 23.3945 9.61698C23.8614 9.68344 24.2283 9.86286 24.4951 10.1486C24.7619 10.4344 24.9486 10.8464 25.062 11.378C25.1754 12.0625 25.4622 12.6805 25.9292 13.2254C26.3961 13.7703 26.9497 14.1956 27.5967 14.5079C28.2838 14.8402 28.764 15.2389 29.0308 15.7041C29.2976 16.1692 29.3843 16.754 29.2976 17.4651C29.1442 19.1065 28.684 20.6415 27.9302 22.0835C27.1765 23.5256 26.2026 24.7815 25.0087 25.8581C23.8147 26.9346 22.4606 27.7786 20.9265 28.4032C19.3923 29.0212 17.7581 29.3335 16.0172 29.3335V29.3203Z" fill="#25CBDB"/>
<path d="M15.4945 12.85C15.0941 13.2557 14.607 13.4552 14.0331 13.4552C13.4592 13.4552 12.9653 13.2557 12.5649 12.8567C12.1579 12.4577 11.9577 11.9722 11.9577 11.4003C11.9577 10.8283 12.1579 10.3362 12.5583 9.9372C12.9587 9.53154 13.4458 9.33203 14.0197 9.33203C14.5936 9.33203 15.0875 9.53154 15.4879 9.93055C15.8949 10.3296 16.0951 10.815 16.0951 11.387C16.0951 11.9589 15.8949 12.451 15.4945 12.85Z" fill="#222343"/>
<path d="M12.8252 19.5003C12.4248 19.9059 11.9376 20.1055 11.3637 20.1055C10.7898 20.1055 10.296 19.9059 9.8956 19.5069C9.48853 19.1079 9.28833 18.6224 9.28833 18.0505C9.28833 17.4786 9.48853 16.9865 9.88893 16.5875C10.2893 16.1818 10.7765 15.9823 11.3504 15.9823C11.9243 15.9823 12.4181 16.1818 12.8185 16.5808C13.2256 16.9798 13.4258 17.4653 13.4258 18.0372C13.4258 18.6091 13.2256 19.1013 12.8252 19.5003Z" fill="#222343"/>
<path d="M20.9867 20.9833C20.7264 21.2426 20.4128 21.369 20.0324 21.369C19.652 21.369 19.3384 21.2426 19.0781 20.9833C18.8179 20.7239 18.6911 20.4114 18.6911 20.0323C18.6911 19.6532 18.8179 19.3407 19.0781 19.0813C19.3384 18.8219 19.652 18.6956 20.0324 18.6956C20.4128 18.6956 20.7264 18.8219 20.9867 19.0813C21.247 19.3407 21.3738 19.6532 21.3738 20.0323C21.3738 20.4114 21.247 20.7239 20.9867 20.9833Z" fill="#222343"/>
</svg>
