<svg width="32" height="32" viewBox="0 0 32 32" fill="none" xmlns="http://www.w3.org/2000/svg">
<path d="M27 28.3334C26.9534 28.3334 26.9067 28.34 26.8534 28.3467C26.56 27.6067 25.84 27.08 25 27.08C24.16 27.08 23.38 27.6534 23.1134 28.44C22.98 28.3734 22.8267 28.3267 22.6667 28.3267C22.1134 28.3267 21.6667 28.7734 21.6667 29.3267H28C28 28.7734 27.5534 28.3267 27 28.3267V28.3334Z" fill="#25CBDB"/>
<path d="M4.97333 28.3333C4.43333 28.3467 4 28.7867 4 29.3333H6V27.26C5.53333 27.4733 5.16667 27.8533 4.97333 28.3333Z" fill="#25CBDB"/>
<path opacity="0.52" d="M6 2.66675V29.3335H26V2.66675H6ZM12 21.6935C12 22.2468 11.5533 22.6935 11 22.6935H9C8.44667 22.6935 8 22.2468 8 21.6935V19.6935C8 19.1401 8.44667 18.6935 9 18.6935H11C11.5533 18.6935 12 19.1401 12 19.6935V21.6935ZM12 15.6868C12 16.2401 11.5533 16.6868 11 16.6868H9C8.44667 16.6868 8 16.2401 8 15.6868V13.6868C8 13.1335 8.44667 12.6868 9 12.6868H11C11.5533 12.6868 12 13.1335 12 13.6868V15.6868ZM12 9.68008C12 10.2335 11.5533 10.6801 11 10.6801H9C8.44667 10.6801 8 10.2335 8 9.68008V7.68008C8 7.12675 8.44667 6.68008 9 6.68008H11C11.5533 6.68008 12 7.12675 12 7.68008V9.68008ZM18 21.6935C18 22.2468 17.5533 22.6935 17 22.6935H15C14.4467 22.6935 14 22.2468 14 21.6935V19.6935C14 19.1401 14.4467 18.6935 15 18.6935H17C17.5533 18.6935 18 19.1401 18 19.6935V21.6935ZM18 15.6868C18 16.2401 17.5533 16.6868 17 16.6868H15C14.4467 16.6868 14 16.2401 14 15.6868V13.6868C14 13.1335 14.4467 12.6868 15 12.6868H17C17.5533 12.6868 18 13.1335 18 13.6868V15.6868ZM18 9.68008C18 10.2335 17.5533 10.6801 17 10.6801H15C14.4467 10.6801 14 10.2335 14 9.68008V7.68008C14 7.12675 14.4467 6.68008 15 6.68008H17C17.5533 6.68008 18 7.12675 18 7.68008V9.68008ZM24 21.6801C24 22.2335 23.5533 22.6801 23 22.6801H21C20.4467 22.6801 20 22.2335 20 21.6801V19.6801C20 19.1268 20.4467 18.6801 21 18.6801H23C23.5533 18.6801 24 19.1268 24 19.6801V21.6801ZM24 15.6868C24 16.2401 23.5533 16.6868 23 16.6868H21C20.4467 16.6868 20 16.2401 20 15.6868V13.6868C20 13.1335 20.4467 12.6868 21 12.6868H23C23.5533 12.6868 24 13.1335 24 13.6868V15.6868ZM24 9.66675C24 10.2201 23.5533 10.6668 23 10.6668H21C20.4467 10.6668 20 10.2201 20 9.66675V7.66675C20 7.11341 20.4467 6.66675 21 6.66675H23C23.5533 6.66675 24 7.11341 24 7.66675V9.66675Z" fill="#25CBDB"/>
<g opacity="0.2">
<path d="M11 6.68005H9C8.44772 6.68005 8 7.12777 8 7.68005V9.68005C8 10.2324 8.44772 10.6801 9 10.6801H11C11.5523 10.6801 12 10.2324 12 9.68005V7.68005C12 7.12777 11.5523 6.68005 11 6.68005Z" fill="#25CBDB"/>
<path d="M17 6.68005H15C14.4477 6.68005 14 7.12777 14 7.68005V9.68005C14 10.2324 14.4477 10.6801 15 10.6801H17C17.5523 10.6801 18 10.2324 18 9.68005V7.68005C18 7.12777 17.5523 6.68005 17 6.68005Z" fill="#25CBDB"/>
<path d="M23 6.66675H21C20.4477 6.66675 20 7.11446 20 7.66675V9.66675C20 10.2191 20.4477 10.6668 21 10.6668H23C23.5523 10.6668 24 10.2191 24 9.66675V7.66675C24 7.11446 23.5523 6.66675 23 6.66675Z" fill="#25CBDB"/>
<path d="M11 12.6868H9C8.44772 12.6868 8 13.1345 8 13.6868V15.6868C8 16.2391 8.44772 16.6868 9 16.6868H11C11.5523 16.6868 12 16.2391 12 15.6868V13.6868C12 13.1345 11.5523 12.6868 11 12.6868Z" fill="#25CBDB"/>
<path d="M17 12.6868H15C14.4477 12.6868 14 13.1345 14 13.6868V15.6868C14 16.2391 14.4477 16.6868 15 16.6868H17C17.5523 16.6868 18 16.2391 18 15.6868V13.6868C18 13.1345 17.5523 12.6868 17 12.6868Z" fill="#25CBDB"/>
<path d="M23 12.6868H21C20.4477 12.6868 20 13.1345 20 13.6868V15.6868C20 16.2391 20.4477 16.6868 21 16.6868H23C23.5523 16.6868 24 16.2391 24 15.6868V13.6868C24 13.1345 23.5523 12.6868 23 12.6868Z" fill="#25CBDB"/>
<path d="M11 18.6935H9C8.44772 18.6935 8 19.1412 8 19.6935V21.6935C8 22.2457 8.44772 22.6935 9 22.6935H11C11.5523 22.6935 12 22.2457 12 21.6935V19.6935C12 19.1412 11.5523 18.6935 11 18.6935Z" fill="#25CBDB"/>
<path d="M17 18.6935H15C14.4477 18.6935 14 19.1412 14 19.6935V21.6935C14 22.2457 14.4477 22.6935 15 22.6935H17C17.5523 22.6935 18 22.2457 18 21.6935V19.6935C18 19.1412 17.5523 18.6935 17 18.6935Z" fill="#25CBDB"/>
<path d="M23 18.6801H21C20.4477 18.6801 20 19.1278 20 19.6801V21.6801C20 22.2324 20.4477 22.6801 21 22.6801H23C23.5523 22.6801 24 22.2324 24 21.6801V19.6801C24 19.1278 23.5523 18.6801 23 18.6801Z" fill="#25CBDB"/>
</g>
<path d="M13 24.8334H19C19.5533 24.8334 20 25.28 20 25.8334V29.3334H12V25.8334C12 25.28 12.4467 24.8334 13 24.8334Z" fill="#222343"/>
<path opacity="0.85" d="M27 2.66675H5C4.44772 2.66675 4 3.11446 4 3.66675C4 4.21903 4.44772 4.66675 5 4.66675H27C27.5523 4.66675 28 4.21903 28 3.66675C28 3.11446 27.5523 2.66675 27 2.66675Z" fill="#222343"/>
</svg>
