<svg width="32" height="32" viewBox="0 0 32 32" fill="none" xmlns="http://www.w3.org/2000/svg">
<path opacity="0.85" d="M18.0933 19.8266C17.42 19.4799 17 18.7999 17 18.0466C17 18.0332 17 15.9799 17 15.9666H15.0067C15.0067 15.9666 15.0067 18.0332 15.0067 18.0466C15.0067 19.5599 15.84 20.9199 17.1933 21.6132C18.1 22.0666 18.6667 22.9799 18.6667 23.9999C18.6667 25.4732 17.4733 26.6666 16 26.6666C14.5267 26.6666 13.3333 25.4732 13.3333 23.9999C13.3333 23.4799 13.48 22.9799 13.7667 22.5466C14.0667 22.0866 13.94 21.4666 13.4733 21.1599C13.0133 20.8599 12.3933 20.9866 12.0867 21.4532C11.5933 22.2132 11.3267 23.0932 11.3267 23.9999C11.3267 26.5732 13.42 28.6666 15.9933 28.6666C18.5667 28.6666 20.66 26.5732 20.66 23.9999C20.66 22.2199 19.6733 20.6199 18.0867 19.8266H18.0933Z" fill="#25CBDB"/>
<path d="M13.1066 15.2799C13.24 15.6866 13.6266 15.9666 14.0533 15.9666H17.9466C18.38 15.9666 18.76 15.6933 18.8933 15.2799L19.3333 13.9599H12.6666L13.1066 15.2799Z" fill="#222343"/>
<path d="M11.3333 9.96659L12 11.9599H20L20.6666 9.96659H11.3333Z" fill="#222343"/>
<path d="M21.3333 7.63992V4.33325C21.3333 3.77992 20.8866 3.33325 20.3333 3.33325H11.6666C11.1133 3.33325 10.6666 3.77992 10.6666 4.33325V7.63992C10.6666 7.75325 10.6733 7.85992 10.6933 7.96659H21.3066C21.3266 7.85992 21.3333 7.74659 21.3333 7.63992Z" fill="#222343"/>
<g opacity="0.52">
<path d="M21.2334 8.27322C21.2667 8.17322 21.2934 8.07322 21.3067 7.96655H10.6934C10.7134 8.07322 10.7334 8.17322 10.7667 8.27322L11.3334 9.96655H20.6667L21.2334 8.27322Z" fill="#25CBDB"/>
<path d="M12.6667 13.9599H19.3334L20 11.9599H12L12.6667 13.9599Z" fill="#25CBDB"/>
</g>
</svg>
