<svg width="32" height="32" viewBox="0 0 32 32" fill="none" xmlns="http://www.w3.org/2000/svg">
<path opacity="0.85" d="M4.66667 26.6667C4.13334 26.6667 3.66667 26.4667 3.26667 26.0667C2.86667 25.6667 2.66667 25.2 2.66667 24.6667V7.33337C2.66667 6.80004 2.86667 6.33337 3.26667 5.93337C3.66667 5.53337 4.13334 5.33337 4.66667 5.33337H27.3333C27.8667 5.33337 28.3333 5.53337 28.7333 5.93337C29.1333 6.33337 29.3333 6.80004 29.3333 7.33337V24.6667C29.3333 25.2 29.1333 25.6667 28.7333 26.0667C28.3333 26.4667 27.8667 26.6667 27.3333 26.6667H4.66667Z" fill="#25CBDB"/>
<path d="M27.3333 10.9667H4.66667V15.2667H27.3333V10.9667Z" fill="#222343"/>
</svg>
