<svg width="32" height="32" viewBox="0 0 32 32" fill="none" xmlns="http://www.w3.org/2000/svg">
<path d="M16.2665 22.2C17.1332 22.2 17.8665 22 18.4665 21.5334C19.0665 21.0667 19.3332 20.5334 19.3332 19.8C19.3332 19.0667 19.0665 18.4667 18.4665 17.9334C17.8665 17.4 16.8665 16.8667 15.3999 16.2667C14.0665 15.7334 13.0665 15.1334 12.3999 14.4667C11.7332 13.8 11.3999 12.9334 11.3999 11.8667C11.3999 10.8 11.7332 10.0667 12.3999 9.33337C13.0665 8.66671 13.9332 8.20004 15.0665 8.06671V7.26671C15.0665 7.00004 15.1332 6.80004 15.3332 6.60004C15.5332 6.40004 15.7332 6.33337 15.9999 6.33337C16.2665 6.33337 16.4665 6.40004 16.6665 6.60004C16.8665 6.80004 16.9332 7.00004 16.9332 7.26671V8.06671C17.6665 8.13337 18.2665 8.33337 18.8665 8.66671C19.4665 9.00004 19.8665 9.46671 20.2665 10C20.3999 10.2 20.3999 10.4 20.3332 10.6C20.2665 10.8 20.0665 11 19.8665 11.1334C19.6665 11.2667 19.3999 11.2667 19.1999 11.2C18.9999 11.1334 18.7999 11 18.5999 10.8C18.2665 10.4 17.9332 10.0667 17.4665 9.86671C16.9999 9.66671 16.5332 9.53337 15.9999 9.53337C15.1332 9.53337 14.4665 9.73337 13.9332 10.1334C13.3999 10.5334 13.1999 11.0667 13.1999 11.8C13.1999 12.5334 13.4665 13.0667 14.0665 13.5334C14.6665 14 15.5999 14.4667 16.8665 15C18.3999 15.6667 19.4665 16.3334 20.1332 17.0667C20.7999 17.8 21.1332 18.7334 21.1332 19.8667C21.1332 21 20.9999 20.9334 20.7999 21.4C20.5999 21.8667 20.3332 22.2667 19.9332 22.6C19.5332 22.9334 19.1332 23.2 18.5999 23.4C18.0665 23.6 17.4665 23.7334 16.7999 23.8V24.6667C16.7999 24.9334 16.7332 25.1334 16.5332 25.3334C16.3332 25.5334 16.1332 25.6 15.8665 25.6C15.5999 25.6 15.3999 25.5334 15.1999 25.3334C14.9999 25.1334 14.9332 24.9334 14.9332 24.6667V23.8C14.0665 23.5334 13.3332 23.2 12.7332 22.7334C12.1332 22.2667 11.5332 21.6 11.1332 20.8667C10.9999 20.6667 10.9999 20.4667 11.1332 20.2667C11.2665 20.0667 11.3999 19.9334 11.6665 19.8667C11.9332 19.8 12.1332 19.8 12.3332 19.8667C12.5332 19.9334 12.7332 20.1334 12.7999 20.3334C13.1332 20.9334 13.5999 21.4667 14.1999 21.8C14.7999 22.1334 15.4665 22.3334 16.1999 22.3334L16.2665 22.2Z" fill="#222343"/>
<path d="M16 30.6667C13.5334 30.6667 11.1334 29.9334 8.80004 28.4667C6.46671 27 4.66671 25.3333 3.33337 23.4V27C3.33337 27.2667 3.26671 27.5333 3.06671 27.7333C2.86671 27.9333 2.66671 28 2.33337 28C2.00004 28 1.80004 27.9333 1.60004 27.7333C1.40004 27.5333 1.33337 27.3334 1.33337 27V21C1.33337 20.7333 1.40004 20.4667 1.60004 20.2667C1.80004 20.0667 2.00004 20 2.33337 20H8.33337C8.60004 20 8.86671 20.0667 9.06671 20.2667C9.26671 20.4667 9.33337 20.6667 9.33337 21C9.33337 21.3334 9.26671 21.5333 9.06671 21.7333C8.86671 21.9333 8.66671 22 8.33337 22H4.73337C5.86671 23.7333 7.46671 25.2667 9.60004 26.6C11.7334 28 13.8 28.6667 16 28.6667C19.3334 28.6667 22.2 27.5334 24.6 25.2667C27 23 28.3334 20.2667 28.6 17C28.6 16.7333 28.7334 16.4667 28.9334 16.2667C29.1334 16.0667 29.3334 15.9333 29.6667 15.9333C30 15.9333 30.2 16 30.4 16.2C30.6 16.4 30.6667 16.6 30.6667 16.8667C30.5334 18.8 30.0667 20.6 29.2667 22.2667C28.4667 23.9334 27.4 25.4 26.0667 26.6C24.7334 27.8667 23.2667 28.8 21.5334 29.5333C19.8 30.2667 18 30.6 16.0667 30.6L16 30.6667Z" fill="#25CBDB"/>
<path opacity="0.85" d="M16 3.33336C12.6667 3.33336 9.80004 4.46669 7.40004 6.73336C5.00004 9.00002 3.66671 11.7334 3.40004 15C3.40004 15.2667 3.26671 15.5334 3.06671 15.7334C2.86671 15.9334 2.66671 16.0667 2.33337 16.0667C2.00004 16.0667 1.80004 16 1.60004 15.8C1.40004 15.6 1.33337 15.4 1.33337 15.1334C1.46671 13.2 1.93337 11.4 2.73337 9.73336C3.53337 8.06669 4.60004 6.60002 5.93337 5.40002C7.26671 4.20002 8.73337 3.20002 10.4667 2.46669C12.2 1.73336 14 1.40002 15.9334 1.40002C17.8667 1.40002 20.8 2.13336 23.1334 3.60002C25.4667 5.06669 27.2667 6.73336 28.6 8.66669V5.06669C28.6 4.80002 28.6667 4.53336 28.8667 4.33336C29.0667 4.13336 29.2667 4.06669 29.6 4.06669C29.9334 4.06669 30.1334 4.13336 30.3334 4.33336C30.5334 4.53336 30.6 4.73336 30.6 5.06669V11.0667C30.6 11.3334 30.5334 11.6 30.3334 11.8C30.1334 12 29.9334 12.0667 29.6 12.0667H23.6C23.3334 12.0667 23.0667 12 22.8667 11.8C22.6667 11.6 22.6 11.4 22.6 11.0667C22.6 10.7334 22.6667 10.5334 22.8667 10.3334C23.0667 10.1334 23.2667 10.0667 23.6 10.0667H27.2C26.0667 8.33336 24.4667 6.80002 22.3334 5.46669C20.2 4.13336 18.1334 3.40002 15.9334 3.40002L16 3.33336Z" fill="#25CBDB"/>
</svg>
