<svg width="32" height="32" viewBox="0 0 32 32" fill="none" xmlns="http://www.w3.org/2000/svg">
<g opacity="0.52">
<path d="M13.3333 4H5.33333C4.59695 4 4 4.59695 4 5.33333V16C4 16.7364 4.59695 17.3333 5.33333 17.3333H13.3333C14.0697 17.3333 14.6667 16.7364 14.6667 16V5.33333C14.6667 4.59695 14.0697 4 13.3333 4Z" fill="#25CBDB"/>
<path d="M26.6667 14.6667H18.6667C17.9303 14.6667 17.3334 15.2637 17.3334 16.0001V26.6667C17.3334 27.4031 17.9303 28.0001 18.6667 28.0001H26.6667C27.4031 28.0001 28 27.4031 28 26.6667V16.0001C28 15.2637 27.4031 14.6667 26.6667 14.6667Z" fill="#25CBDB"/>
</g>
<path d="M13.3333 20H5.33333C4.59695 20 4 20.597 4 21.3333V26.6667C4 27.403 4.59695 28 5.33333 28H13.3333C14.0697 28 14.6667 27.403 14.6667 26.6667V21.3333C14.6667 20.597 14.0697 20 13.3333 20Z" fill="#222343"/>
<path d="M26.6667 4H18.6667C17.9303 4 17.3334 4.59695 17.3334 5.33333V10.6667C17.3334 11.403 17.9303 12 18.6667 12H26.6667C27.4031 12 28 11.403 28 10.6667V5.33333C28 4.59695 27.4031 4 26.6667 4Z" fill="#222343"/>
</svg>
