<svg width="32" height="32" viewBox="0 0 32 32" fill="none" xmlns="http://www.w3.org/2000/svg">
<path opacity="0.52" d="M29.3666 6C29.3666 5.44667 29.1733 4.97333 28.7799 4.58667C28.3933 4.2 27.92 4 27.3666 4H4.69995C4.14662 4 3.67328 4.19333 3.28662 4.58667C2.89995 4.97333 2.69995 5.44667 2.69995 6V20H29.3666V6Z" fill="#25CBDB"/>
<g opacity="0.85">
<path d="M12.1667 27.3333C11.8801 27.3333 11.6401 27.4266 11.4467 27.6133C11.2601 27.7999 11.1667 28.0399 11.1667 28.3333C11.1667 28.6266 11.2601 28.8599 11.4467 29.0466C11.6334 29.2333 11.8734 29.3333 12.1667 29.3333H19.9001C20.1867 29.3333 20.4267 29.2399 20.6134 29.0466C20.8001 28.8599 20.9001 28.6199 20.9001 28.3333C20.9001 28.0466 20.8067 27.8066 20.6134 27.6133C20.4267 27.4266 20.1867 27.3333 19.9001 27.3333H12.1667Z" fill="#222343"/>
<path d="M2.67993 20H29.3466V22C29.3466 23.1067 28.4533 24 27.3466 24H4.67993C3.57326 24 2.67993 23.1067 2.67993 22V20Z" fill="#222343"/>
<path d="M4.66675 12.6599C4.66675 15.6132 7.06008 17.9999 10.0067 17.9999V7.31323C7.05342 7.31323 4.66675 9.70657 4.66675 12.6532V12.6599Z" fill="#222343"/>
</g>
<path opacity="0.32" d="M15.3534 12.6599H10.0134V17.9999C12.9668 17.9999 15.3534 15.6066 15.3534 12.6599Z" fill="#222343"/>
<path d="M18.0334 27.3333V24H14.0334V27.3333" fill="#222343"/>
<path d="M10.0066 7.31323V12.6532H15.3466C15.3466 9.6999 12.9533 7.31323 10.0066 7.31323Z" fill="#222343"/>
<path d="M27.3667 18H25.3667V9C25.3667 8.44667 25.8134 8 26.3667 8C26.92 8 27.3667 8.44667 27.3667 9V18Z" fill="#222343"/>
<path d="M23.3533 18.0001H21.3533V11.6667C21.3533 11.1134 21.7999 10.6667 22.3533 10.6667C22.9066 10.6667 23.3533 11.1134 23.3533 11.6667V18.0001Z" fill="#222343"/>
<path d="M19.3533 17.9999H17.3533V14.3333C17.3533 13.7799 17.7999 13.3333 18.3533 13.3333C18.9066 13.3333 19.3533 13.7799 19.3533 14.3333V17.9999Z" fill="#222343"/>
</svg>
