<svg width="32" height="32" viewBox="0 0 32 32" fill="none" xmlns="http://www.w3.org/2000/svg">
<path opacity="0.52" d="M27.3334 5.2666H4.66675C3.56008 5.2666 2.66675 6.15993 2.66675 7.2666V21.1866C3.66008 19.2533 5.67341 17.9333 8.00008 17.9333C11.3134 17.9333 14.0001 20.6133 14.0001 23.9333C14.0001 24.8533 13.7934 25.7199 13.4201 26.4999H27.3334C28.4401 26.4999 29.3334 25.6066 29.3334 24.4999V7.2666C29.3334 6.15993 28.4401 5.2666 27.3334 5.2666Z" fill="#25CBDB"/>
<path opacity="0.85" d="M2 23.9333C2 27.2467 4.68667 29.9333 8 29.9333V17.9333C4.68667 17.9333 2 20.62 2 23.9333Z" fill="#222343"/>
<path opacity="0.32" d="M14 23.9333H8V29.9333C11.3133 29.9333 14 27.2467 14 23.9333Z" fill="#222343"/>
<path d="M8 17.9333V23.9333H14C14 20.62 11.3133 17.9333 8 17.9333Z" fill="#222343"/>
<path d="M27.3333 24.5H25.3333V15.5C25.3333 14.9467 25.7799 14.5 26.3333 14.5C26.8866 14.5 27.3333 14.9467 27.3333 15.5V24.5Z" fill="#222343"/>
<path d="M23.3132 24.5001H21.3132V18.1667C21.3132 17.6134 21.7599 17.1667 22.3132 17.1667C22.8666 17.1667 23.3132 17.6134 23.3132 18.1667V24.5001Z" fill="#222343"/>
<path d="M19.3132 24.4999H17.3132V20.8333C17.3132 20.2799 17.7599 19.8333 18.3132 19.8333C18.8666 19.8333 19.3132 20.2799 19.3132 20.8333V24.4999Z" fill="#222343"/>
<path d="M5.66676 16.2266C5.36676 16.2266 5.07343 16.0933 4.87343 15.84C4.53343 15.4066 4.61343 14.7733 5.04676 14.4333L13.9934 7.47328C14.4134 7.14662 15.0201 7.20662 15.3668 7.61328L19.4468 12.3466L25.7134 7.47328C26.1468 7.13328 26.7801 7.21328 27.1134 7.64662C27.4534 8.07995 27.3734 8.71328 26.9401 9.05328L19.9268 14.5066C19.5068 14.8333 18.9001 14.7733 18.5534 14.3666L14.4734 9.63328L6.27343 16.0066C6.09343 16.1466 5.87343 16.22 5.6601 16.22L5.66676 16.2266Z" fill="#222343"/>
</svg>
