<svg width="32" height="32" viewBox="0 0 32 32" fill="none" xmlns="http://www.w3.org/2000/svg">
<g opacity="0.85">
<path d="M12.1667 27.3333C11.8801 27.3333 11.6401 27.4267 11.4467 27.6133C11.2601 27.8 11.1667 28.04 11.1667 28.3333C11.1667 28.6267 11.2601 28.86 11.4467 29.0467C11.6334 29.2333 11.8734 29.3333 12.1667 29.3333H19.9001C20.1867 29.3333 20.4267 29.24 20.6134 29.0467C20.8001 28.86 20.9001 28.62 20.9001 28.3333C20.9001 28.0467 20.8067 27.8067 20.6134 27.6133C20.4267 27.4267 20.1867 27.3333 19.9001 27.3333H12.1667Z" fill="#222343"/>
<path d="M2.68005 20H29.3467V22C29.3467 23.1067 28.4534 24 27.3467 24H4.68005C3.57339 24 2.68005 23.1067 2.68005 22V20Z" fill="#222343"/>
</g>
<path d="M18.0333 27.3333V24H14.0333V27.3333" fill="#222343"/>
<path opacity="0.52" d="M29.3666 6C29.3666 5.44667 29.1733 4.97333 28.78 4.58667C28.3933 4.2 27.92 4 27.3666 4H4.69995C4.14662 4 3.67328 4.19333 3.28662 4.58667C2.89995 4.97333 2.69995 5.44667 2.69995 6V20H29.3666V6Z" fill="#25CBDB"/>
<path opacity="0.52" d="M29.3333 18V20H2.66663V18H29.3333Z" fill="#25CBDB"/>
</svg>
