<svg width="32" height="32" viewBox="0 0 32 32" fill="none" xmlns="http://www.w3.org/2000/svg">
<path opacity="0.52" d="M4.64001 5.33325H27.3067C28.4133 5.33325 29.3067 6.22659 29.3067 7.33325V23.9999H2.64001V7.33325C2.64001 6.22659 3.53335 5.33325 4.64001 5.33325Z" fill="#25CBDB"/>
<path opacity="0.52" d="M29.3067 22V24H2.64001V22H29.3067Z" fill="#25CBDB"/>
<path opacity="0.85" d="M0 24H32V24.6667C32 25.7733 31.1067 26.6667 30 26.6667H2C0.893333 26.6667 0 25.7733 0 24.6667V24Z" fill="#222343"/>
<path d="M27.7 12C28.1467 12 28.5333 12.1267 28.8533 12.38C29.1733 12.64 29.3333 12.9467 29.3333 13.3V27.8667C29.3333 28.3133 29.18 28.6667 28.8533 28.9333C28.5267 29.2 28.1467 29.3333 27.7 29.3333H18.6333C18.2733 29.3333 17.9667 29.2 17.7133 28.9333C17.4533 28.6667 17.3267 28.3133 17.3267 27.8667V26H13.0467C12.38 26 11.7533 25.6667 11.38 25.1067L10.64 24H17.3267V13.3C17.3267 12.94 17.46 12.6333 17.7133 12.38C17.9733 12.1267 18.28 12 18.6333 12H27.7Z" fill="#222343"/>
<path d="M27.3334 14H19.3334V26.3333H27.3334V14Z" fill="#25CBDB"/>
</svg>
