<svg width="32" height="32" viewBox="0 0 32 32" fill="none" xmlns="http://www.w3.org/2000/svg">
<path d="M12.98 1.33325H19.02C19.3866 1.33325 19.6866 1.63325 19.6866 1.99992V5.33325H12.3133V1.99992C12.3133 1.63325 12.6133 1.33325 12.98 1.33325Z" fill="#222343"/>
<path d="M16 11.4666V28.5999C15.22 28.5999 14.44 28.4999 13.6533 28.2999C12.86 28.0999 12.1133 27.8133 11.4 27.4333C11.2866 27.3933 11.1733 27.3533 11.0466 27.3199C10.9266 27.2866 10.8 27.2666 10.6666 27.2666C10.5333 27.2666 10.4066 27.2866 10.2866 27.3199C10.16 27.3533 10.0466 27.3933 9.9333 27.4333C9.21997 27.8333 8.47997 28.1399 7.69997 28.3532C7.18663 28.4932 6.66663 28.5866 6.14663 28.6266L2.70663 16.6799C2.55997 16.1666 2.84663 15.6199 3.35997 15.4533L15.3866 11.5666C15.5866 11.4999 15.7933 11.4666 16 11.4666Z" fill="#222343"/>
<path opacity="0.52" d="M26.6667 14.8133V7.33325C26.6667 6.23325 25.7734 5.33325 24.6667 5.33325H7.33337C6.22671 5.33325 5.33337 6.23325 5.33337 7.33325V14.8133L15.3867 11.5666C15.5867 11.4999 15.7933 11.4666 16 11.4666V28.5999C16.78 28.5999 17.56 28.4999 18.3533 28.2999C19.14 28.0999 19.8867 27.8132 20.6 27.4332C20.7133 27.3932 20.8267 27.3532 20.9533 27.3199C21.0733 27.2866 21.2 27.2666 21.3333 27.2666C21.4667 27.2666 21.5933 27.2866 21.7133 27.3199C21.84 27.3532 21.9533 27.3932 22.0667 27.4332C22.78 27.8332 23.52 28.1399 24.3 28.3532C24.8133 28.4932 25.3333 28.5865 25.8533 28.6266L29.2933 16.6799C29.44 16.1666 29.1533 15.6199 28.64 15.4532L26.6667 14.8133Z" fill="#25CBDB"/>
<path opacity="0.32" d="M26.1933 27.4467L25.8533 28.6267C25.3333 28.5867 24.8133 28.4934 24.3 28.3534C23.52 28.1401 22.78 27.8334 22.0667 27.4334C21.9533 27.3934 21.84 27.3534 21.7133 27.3201C21.5933 27.2867 21.4667 27.2667 21.3333 27.2667C21.2 27.2667 21.0733 27.2867 20.9533 27.3201C20.8267 27.3534 20.7133 27.3934 20.6 27.4334C19.8867 27.8134 19.14 28.1001 18.3533 28.3001C17.56 28.5001 16.78 28.6001 16 28.6001V27.3934C16.78 27.3934 17.56 27.2934 18.3533 27.0934C19.14 26.8934 19.8867 26.6067 20.6 26.2267C20.7133 26.1867 20.8267 26.1467 20.9533 26.1134C21.0733 26.0801 21.2 26.0601 21.3333 26.0601C21.4667 26.0601 21.5933 26.0801 21.7133 26.1134C21.84 26.1467 21.9533 26.1867 22.0667 26.2267C22.78 26.6267 23.52 26.9334 24.3 27.1467C24.8133 27.2867 25.3333 27.3801 25.8533 27.4201C25.9667 27.4334 26.08 27.4401 26.1933 27.4467Z" fill="#25CBDB"/>
<path opacity="0.52" d="M16 27.3934V28.6001C15.22 28.6001 14.44 28.5001 13.6533 28.3001C12.86 28.1001 12.1133 27.8134 11.4 27.4334C11.2866 27.3934 11.1733 27.3534 11.0466 27.3201C10.9266 27.2867 10.8 27.2667 10.6666 27.2667C10.5333 27.2667 10.4066 27.2867 10.2866 27.3201C10.16 27.3534 10.0466 27.3934 9.93331 27.4334C9.21997 27.8334 8.47997 28.1401 7.69997 28.3534C7.18664 28.4934 6.66664 28.5867 6.14664 28.6267L5.80664 27.4467C5.91997 27.4401 6.03331 27.4334 6.14664 27.4201C6.66664 27.3801 7.18664 27.2867 7.69997 27.1467C8.47997 26.9334 9.21997 26.6267 9.93331 26.2267C10.0466 26.1867 10.16 26.1467 10.2866 26.1134C10.4066 26.0801 10.5333 26.0601 10.6666 26.0601C10.8 26.0601 10.9266 26.0801 11.0466 26.1134C11.1733 26.1467 11.2866 26.1867 11.4 26.2267C12.1133 26.6067 12.86 26.8934 13.6533 27.0934C14.44 27.2934 15.22 27.3934 16 27.3934Z" fill="#222343"/>
<g opacity="0.85">
<path d="M24.6666 7.33325V14.1666L16.6133 11.5666C16.4133 11.4999 16.2066 11.4666 16 11.4666C15.7933 11.4666 15.5866 11.4999 15.3866 11.5666L7.33329 14.1666V7.33325H24.6666Z" fill="#25CBDB"/>
<path d="M29.3333 29.6733C29.3333 29.9599 29.24 30.1999 29.0466 30.3866C28.8533 30.5733 28.62 30.6666 28.3333 30.6666H26.6666C25.7533 30.6666 24.8533 30.5533 23.9666 30.3199C23.1 30.0933 22.2466 29.7666 21.4 29.3333C21.38 29.3199 21.3533 29.3133 21.3333 29.2999C21.3133 29.3133 21.2866 29.3199 21.2666 29.3333C20.42 29.7666 19.56 30.0933 18.6666 30.3199C17.7533 30.5533 16.8666 30.6666 16 30.6666C15.1333 30.6666 14.2466 30.5533 13.3333 30.3199C12.44 30.0933 11.58 29.7666 10.7333 29.3333C10.7133 29.3199 10.6866 29.3133 10.6666 29.2999C10.6466 29.3133 10.62 29.3199 10.6 29.3333C9.75329 29.7666 8.89996 30.0933 8.03329 30.3199C7.14663 30.5533 6.24663 30.6666 5.33329 30.6666H3.66663C3.38663 30.6666 3.14663 30.5733 2.95329 30.3799C2.75996 30.1866 2.66663 29.9466 2.66663 29.6599C2.66663 29.3733 2.75996 29.1399 2.95329 28.9533C3.14663 28.7666 3.38663 28.6666 3.66663 28.6666H5.33329C5.60663 28.6666 5.87329 28.6533 6.14663 28.6266C6.66663 28.5866 7.18663 28.4933 7.69996 28.3533C8.47996 28.1399 9.21996 27.8333 9.93329 27.4333C10.0466 27.3933 10.16 27.3533 10.2866 27.3199C10.4066 27.2866 10.5333 27.2666 10.6666 27.2666C10.8 27.2666 10.9266 27.2866 11.0466 27.3199C11.1733 27.3533 11.2866 27.3933 11.4 27.4333C12.1133 27.8133 12.86 28.0999 13.6533 28.2999C14.44 28.4999 15.22 28.5999 16 28.5999C16.78 28.5999 17.56 28.4999 18.3533 28.2999C19.14 28.0999 19.8866 27.8133 20.6 27.4333C20.7133 27.3933 20.8266 27.3533 20.9533 27.3199C21.0733 27.2866 21.2 27.2666 21.3333 27.2666C21.4666 27.2666 21.5933 27.2866 21.7133 27.3199C21.84 27.3533 21.9533 27.3933 22.0666 27.4333C22.78 27.8333 23.52 28.1399 24.3 28.3533C24.8133 28.4933 25.3333 28.5866 25.8533 28.6266C26.1266 28.6533 26.3933 28.6666 26.6666 28.6666H28.3333C28.62 28.6666 28.8533 28.7666 29.0466 28.9599C29.24 29.1533 29.3333 29.3866 29.3333 29.6733Z" fill="#25CBDB"/>
</g>
</svg>
