<svg width="32" height="32" viewBox="0 0 32 32" fill="none" xmlns="http://www.w3.org/2000/svg">
<path opacity="0.52" d="M26.6668 10.8003V27.3337C26.6668 28.4403 25.7735 29.3337 24.6668 29.3337H7.3335C6.22683 29.3337 5.3335 28.4403 5.3335 27.3337V4.66699C5.3335 3.56033 6.22683 2.66699 7.3335 2.66699H18.5335C19.0602 2.66699 19.5735 2.88033 19.9468 3.25366L26.0802 9.38699C26.4535 9.76032 26.6668 10.2737 26.6668 10.8003Z" fill="#25CBDB"/>
<path opacity="0.52" d="M19.9468 3.25293V8.7996C19.9468 9.90626 20.8401 10.7996 21.9468 10.7996H26.6668C26.6668 10.2663 26.4534 9.7596 26.0801 9.38626L19.9468 3.25293Z" fill="#25CBDB"/>
<path d="M21.9466 9.38675H26.0799L19.9466 3.25342V7.38675C19.9466 8.49342 20.8399 9.38675 21.9466 9.38675Z" fill="#222343"/>
<path d="M22.9999 30.0001C21.2466 30.0001 19.7466 29.3868 18.5132 28.1668C17.2799 26.9468 16.6599 25.4534 16.6599 23.7001C16.6599 21.9468 17.2799 20.4468 18.5132 19.2001C19.7466 17.9534 21.2399 17.3334 22.9999 17.3334C24.7599 17.3334 26.2532 17.9534 27.4866 19.2001C28.7199 20.4468 29.3399 21.9468 29.3399 23.7001C29.3399 25.4534 28.7199 26.9468 27.4866 28.1668C26.2532 29.3868 24.7599 30.0001 22.9999 30.0001Z" fill="#222343"/>
<path opacity="0.52" d="M26.6667 19.4866V27.3333C26.6667 28.4399 25.7734 29.3333 24.6667 29.3333H18.7001C18.6401 29.2799 18.5801 29.2266 18.5201 29.1666C17.2867 27.9466 16.6667 26.4533 16.6667 24.6999C16.6667 22.9466 17.2867 21.4466 18.5201 20.1999C19.7534 18.9533 21.2467 18.3333 23.0001 18.3333C24.3801 18.3333 25.6067 18.7199 26.6667 19.4866Z" fill="#222343"/>
<path d="M23 24.5001L24.9 26.4001C25.0133 26.5134 25.14 26.5601 25.2866 26.5534C25.4333 26.5468 25.56 26.4801 25.6733 26.3668C25.7866 26.2534 25.84 26.1268 25.84 25.9801C25.84 25.8334 25.7866 25.7068 25.6733 25.5934L23.74 23.6934L25.74 21.6934C25.8533 21.5801 25.9066 21.4534 25.9066 21.3068C25.9066 21.1601 25.8533 21.0334 25.74 20.9201C25.6266 20.8068 25.5 20.7534 25.3533 20.7534C25.2066 20.7534 25.08 20.8068 24.9666 20.9201L23 22.8868L21.0333 20.9201C20.92 20.8068 20.8 20.7534 20.6666 20.7534C20.5333 20.7534 20.4133 20.8068 20.3 20.9201C20.1866 21.0334 20.1333 21.1601 20.1333 21.3068C20.1333 21.4534 20.1866 21.5801 20.3 21.6934L22.2333 23.6601L20.3 25.5934C20.1866 25.7068 20.1333 25.8401 20.1333 25.9934C20.1333 26.1468 20.1866 26.2801 20.3 26.3934C20.4133 26.5068 20.54 26.5601 20.6866 26.5601C20.8333 26.5601 20.96 26.5068 21.0733 26.3934L23.0066 24.4934L23 24.5001Z" fill="#25CBDB"/>
</svg>
