<svg width="32" height="32" viewBox="0 0 32 32" fill="none" xmlns="http://www.w3.org/2000/svg">
<path opacity="0.52" d="M17.2 2.6665H6C4.89333 2.6665 4 3.55984 4 4.6665V27.3332C4 28.4398 4.89333 29.3332 6 29.3332H23.3333C24.44 29.3332 25.3333 28.4398 25.3333 27.3332V10.7998C25.3333 10.2665 25.12 9.75984 24.7467 9.3865L18.6133 3.25317C18.24 2.87984 17.7267 2.6665 17.2 2.6665Z" fill="#25CBDB"/>
<path opacity="0.52" d="M18.6133 3.25342V8.80008C18.6133 9.90675 19.5066 10.8001 20.6133 10.8001H25.3333C25.3333 10.2668 25.1199 9.76008 24.7466 9.38675L18.6133 3.25342Z" fill="#25CBDB"/>
<path d="M20.6132 9.38675H24.7466L18.6132 3.25342V7.38675C18.6132 8.49342 19.5066 9.38675 20.6132 9.38675Z" fill="#222343"/>
<path d="M21.6666 25.6668C22.7132 25.6668 23.5866 25.3134 24.2866 24.6134C24.9866 23.9134 25.3399 23.0401 25.3399 21.9934C25.3399 20.9468 24.9866 20.0734 24.2866 19.3734C23.5866 18.6734 22.7132 18.3201 21.6666 18.3201C20.6199 18.3201 19.7466 18.6734 19.0466 19.3734C18.3466 20.0734 17.9932 20.9468 17.9932 21.9934C17.9932 23.0401 18.3466 23.9134 19.0466 24.6134C19.7466 25.3134 20.6199 25.6668 21.6666 25.6668ZM29.1666 29.5001C28.9666 29.7001 28.7332 29.8001 28.4666 29.8001C28.1999 29.8001 27.9666 29.7001 27.7666 29.5001L24.8999 26.6334C24.4332 26.9468 23.9266 27.1934 23.3799 27.3868C22.8332 27.5801 22.2599 27.6734 21.6599 27.6734C20.0799 27.6734 18.7399 27.1201 17.6399 26.0201C16.5399 24.9201 15.9866 23.5801 15.9866 22.0001C15.9866 20.4201 16.5399 19.0801 17.6399 17.9801C18.7399 16.8801 20.0799 16.3268 21.6599 16.3268C23.2399 16.3268 24.5799 16.8801 25.6799 17.9801C26.7799 19.0801 27.3332 20.4201 27.3332 22.0001C27.3332 22.6001 27.2399 23.1734 27.0466 23.7201C26.8599 24.2668 26.6066 24.7734 26.2932 25.2401L29.1599 28.1068C29.3599 28.3068 29.4599 28.5401 29.4599 28.8068C29.4599 29.0734 29.3599 29.3067 29.1599 29.5068L29.1666 29.5001Z" fill="#222343"/>
</svg>
