<svg width="32" height="32" viewBox="0 0 32 32" fill="none" xmlns="http://www.w3.org/2000/svg">
<path opacity="0.85" d="M26.4999 10.0134C26.3866 9.76008 26.2466 9.54008 26.0666 9.36675L19.9666 3.26675C19.7866 3.08675 19.5733 2.94675 19.3133 2.83341C19.0599 2.72008 18.7999 2.66675 18.5333 2.66675H7.33325C6.79992 2.66675 6.33325 2.86675 5.93325 3.26675C5.53325 3.66675 5.33325 4.13341 5.33325 4.66675V27.3334C5.33325 27.8667 5.53325 28.3334 5.93325 28.7334C6.33325 29.1334 6.79992 29.3334 7.33325 29.3334H24.6666C25.1999 29.3334 25.6666 29.1334 26.0666 28.7334C26.4666 28.3334 26.6666 27.8667 26.6666 27.3334V10.8001C26.6666 10.5334 26.6133 10.2734 26.4999 10.0134Z" fill="#25CBDB"/>
<path d="M14.1134 14.1133C14.6334 13.5933 15.2601 13.3333 16.0001 13.3333C16.7401 13.3333 17.3601 13.5933 17.8867 14.1133C18.4067 14.6333 18.6667 15.2599 18.6667 15.9999C18.6667 16.7399 18.4067 17.3599 17.8867 17.8866C17.3667 18.4066 16.7334 18.6666 16.0001 18.6666C15.2667 18.6666 14.6401 18.4066 14.1134 17.8866C13.5934 17.3666 13.3334 16.7333 13.3334 15.9999C13.3334 15.2666 13.5934 14.6399 14.1134 14.1133Z" fill="#222343"/>
<path d="M21.3334 23.9999H10.6667V23.2333C10.6667 22.6999 10.8134 22.2133 11.1001 21.7666C11.3867 21.3199 11.7867 20.9866 12.3001 20.7666C12.8801 20.5199 13.4734 20.3333 14.0801 20.1999C14.6934 20.0666 15.3334 19.9999 16.0001 19.9999C16.6667 19.9999 17.3067 20.0666 17.9201 20.1999C18.5334 20.3333 19.1267 20.5199 19.7001 20.7666C20.2134 20.9866 20.6134 21.3199 20.9001 21.7666C21.1867 22.2133 21.3334 22.6999 21.3334 23.2333V23.9999Z" fill="#222343"/>
</svg>
