<svg width="32" height="32" viewBox="0 0 32 32" fill="none" xmlns="http://www.w3.org/2000/svg">
<path d="M10.4 24C9.26671 24 8.18337 23.8 7.15004 23.4C6.11671 23 5.18893 22.4111 4.36671 21.6333C3.30004 20.6333 2.52782 19.45 2.05004 18.0833C1.57226 16.7167 1.33337 15.3 1.33337 13.8333C1.33337 12.1 1.7556 10.6944 2.60004 9.61667C3.44449 8.53889 4.67782 8 6.30004 8C6.61115 8 6.9056 8.02778 7.18337 8.08333C7.46115 8.13889 7.74449 8.22222 8.03337 8.33333L16 11.3L23.9667 8.33333C24.2556 8.22222 24.5389 8.13889 24.8167 8.08333C25.0945 8.02778 25.3889 8 25.7 8C27.3223 8 28.5556 8.53889 29.4 9.61667C30.2445 10.6944 30.6667 12.1 30.6667 13.8333C30.6667 15.3 30.4278 16.7167 29.95 18.0833C29.4723 19.45 28.7 20.6333 27.6334 21.6333C26.8112 22.4111 25.8834 23 24.85 23.4C23.8167 23.8 22.7334 24 21.6 24C20.1334 24 18.8889 23.6667 17.8667 23L16.3334 22H15.6667L14.1334 23C13.1112 23.6667 11.8667 24 10.4 24ZM11.6334 18.6667C12.2778 18.6667 12.7889 18.5167 13.1667 18.2167C13.5445 17.9167 13.7334 17.5111 13.7334 17C13.7334 16.1333 13.1556 15.3056 12 14.5167C10.8445 13.7278 9.63337 13.3333 8.36671 13.3333C7.72226 13.3333 7.21115 13.4833 6.83337 13.7833C6.4556 14.0833 6.26671 14.4889 6.26671 15C6.26671 15.8667 6.84449 16.6944 8.00004 17.4833C9.1556 18.2722 10.3667 18.6667 11.6334 18.6667ZM20.3667 18.6667C21.6334 18.6667 22.8445 18.2722 24 17.4833C25.1556 16.6944 25.7334 15.8667 25.7334 15C25.7334 14.4667 25.55 14.0556 25.1834 13.7667C24.8167 13.4778 24.3 13.3333 23.6334 13.3333C22.3667 13.3333 21.1556 13.7278 20 14.5167C18.8445 15.3056 18.2667 16.1333 18.2667 17C18.2667 17.5111 18.45 17.9167 18.8167 18.2167C19.1834 18.5167 19.7 18.6667 20.3667 18.6667Z" fill="#222343"/>
<g opacity="0.52">
<path d="M13.1667 18.2167C12.7889 18.5167 12.2778 18.6667 11.6334 18.6667C10.3667 18.6667 9.15561 18.2723 8.00006 17.4834C6.8445 16.6945 6.26672 15.8667 6.26672 15C6.26672 14.4889 6.45561 14.0834 6.83339 13.7834C7.21117 13.4834 7.72228 13.3334 8.36672 13.3334C9.63339 13.3334 10.8445 13.7278 12.0001 14.5167C13.1556 15.3056 13.7334 16.1334 13.7334 17C13.7334 17.5112 13.5445 17.9167 13.1667 18.2167Z" fill="#25CBDB"/>
<path d="M24.0001 17.4834C22.8445 18.2723 21.6334 18.6667 20.3667 18.6667C19.7001 18.6667 19.1834 18.5167 18.8167 18.2167C18.4501 17.9167 18.2667 17.5112 18.2667 17C18.2667 16.1334 18.8445 15.3056 20.0001 14.5167C21.1556 13.7278 22.3667 13.3334 23.6334 13.3334C24.3001 13.3334 24.8167 13.4778 25.1834 13.7667C25.5501 14.0556 25.7334 14.4667 25.7334 15C25.7334 15.8667 25.1556 16.6945 24.0001 17.4834Z" fill="#25CBDB"/>
</g>
</svg>
