<svg width="32" height="32" viewBox="0 0 32 32" fill="none" xmlns="http://www.w3.org/2000/svg">
<path d="M23.3333 8.9665C23.1333 8.7665 22.8933 8.6665 22.6133 8.6665C22.3333 8.6665 22.0999 8.7665 21.8933 8.9665L9.79994 21.0665L4.49994 15.7332C4.29994 15.5332 4.05994 15.4332 3.77994 15.4332C3.49994 15.4332 3.26661 15.5332 3.05994 15.7332C2.85994 15.9332 2.75328 16.1732 2.74661 16.4532C2.73328 16.7332 2.82661 16.9665 3.02661 17.1665L9.09328 23.2332C9.26661 23.4065 9.47328 23.4932 9.69994 23.5132C9.72661 23.5132 9.74661 23.5265 9.77328 23.5332C9.77328 23.5332 9.77328 23.5332 9.77994 23.5332C9.77994 23.5332 9.78661 23.5332 9.79328 23.5332C10.0466 23.5332 10.2733 23.4465 10.4666 23.2532L10.4799 23.2398L10.5133 23.2065L23.3133 10.4065C23.5133 10.2065 23.6133 9.9665 23.6133 9.69317C23.6133 9.41984 23.5133 9.17984 23.3133 8.97984L23.3333 8.9665Z" fill="#222343"/>
<path opacity="0.85" d="M15.4667 21.0665L27.5667 8.9665C27.7667 8.7665 28.0067 8.6665 28.2867 8.6665C28.5667 8.6665 28.8067 8.7665 29.0067 8.9665C29.2067 9.1665 29.3067 9.4065 29.3067 9.6865C29.3067 9.9665 29.2067 10.2065 29.0067 10.4065L16.1733 23.2398C15.9733 23.4398 15.74 23.5398 15.4733 23.5398C15.2067 23.5398 14.9733 23.4398 14.7733 23.2398L8.70668 17.1732C8.50668 16.9732 8.41334 16.7332 8.42001 16.4532C8.42668 16.1732 8.54001 15.9332 8.74001 15.7332C8.94001 15.5332 9.18001 15.4332 9.46001 15.4332C9.74001 15.4332 9.98001 15.5332 10.18 15.7332L15.48 21.0665H15.4667Z" fill="#25CBDB"/>
</svg>
