<svg width="32" height="32" viewBox="0 0 32 32" fill="none" xmlns="http://www.w3.org/2000/svg">
<path d="M23.0733 8.89996H8.90001V27.8333L5 27.8334C4.44667 27.8334 4 27.3867 4 26.8334C4 26.28 4.44667 25.8334 5 25.8334H6.66667V8.89996C6.66667 7.66663 7.66667 6.66663 8.90001 6.66663H23.0733C24.3067 6.66663 25.3067 7.66663 25.3067 8.89996V25.8334H27C27.5533 25.8334 28 26.28 28 26.8334C28 27.3867 27.5533 27.8334 27 27.8334H23.0733L23.0733 8.89996Z" fill="#222343"/>
<path d="M19.9733 27.8333H6.64V8.25329C6.64 7.32663 7.28 6.51996 8.18 6.30663L17.5133 4.11329C18.7667 3.81996 19.9733 4.77329 19.9733 6.05996V27.8333V27.8333Z" fill="#25CBDB"/>
<path d="M16 16.1666C15.4467 16.1666 15 16.6133 15 17.1666C15 17.72 15.4467 18.1666 16 18.1666C16.5533 18.1666 17 17.72 17 17.1666C17 16.6133 16.5533 16.1666 16 16.1666Z" fill="#222343"/>
</svg>
