<svg width="32" height="32" viewBox="0 0 32 32" fill="none" xmlns="http://www.w3.org/2000/svg">
<path opacity="0.52" d="M27.9867 16.2599C27.9934 16.1666 28.0001 16.0733 28.0001 15.98C28.0001 15.8933 27.9934 15.8 27.9867 15.7133V6.93997C27.9867 6.0533 27.2667 5.3333 26.3801 5.3333H24.0001C21.7934 5.3333 20.0001 7.12663 20.0001 9.3333V14.14C19.7667 14.1333 19.5334 14.1133 19.3001 14.0866C18.8534 14.0466 18.4134 13.98 17.9801 13.8933C17.9601 13.88 17.9334 13.88 17.9134 13.88C17.7201 13.84 17.5267 13.8 17.3334 13.7466L17.2334 13.7266C17.1001 13.6933 16.9734 13.66 16.8401 13.6133C16.7001 13.58 16.5667 13.54 16.4334 13.4933C16.2534 13.4333 16.0734 13.3733 15.8934 13.3066C15.7467 13.26 15.6001 13.2066 15.4601 13.1466C15.3801 13.1133 15.3067 13.08 15.2334 13.0466C15.0734 12.9866 14.9134 12.9133 14.7601 12.84C14.7534 12.8366 14.7451 12.8333 14.7367 12.83C14.7284 12.8266 14.7201 12.8233 14.7134 12.82C14.5267 12.7333 14.3401 12.64 14.1601 12.54C14.1471 12.5314 14.1342 12.5255 14.1195 12.5189C14.1114 12.5152 14.1028 12.5114 14.0934 12.5066C13.9134 12.4133 13.7334 12.3133 13.5601 12.2C13.3867 12.1066 13.2201 12 13.0601 11.8933C13.037 11.8779 13.0144 11.8625 12.9921 11.8473C12.9372 11.8097 12.8836 11.7732 12.8267 11.74C12.7001 11.6533 12.5734 11.5666 12.4534 11.4733C12.2734 11.3466 12.1001 11.2133 11.9267 11.0733C11.5934 10.8066 11.2734 10.5266 10.9667 10.2266C10.8001 10.0666 10.6334 9.89997 10.4734 9.72663C10.445 9.69605 10.4166 9.66618 10.3884 9.63656C10.3306 9.57578 10.2738 9.51605 10.2201 9.4533C9.18672 8.29997 8.34672 6.96663 7.74006 5.50664C7.42006 4.7333 6.34672 4.6533 5.94672 5.38663C4.87339 7.36663 4.26672 9.6333 4.26672 12.04C4.26672 16.3 6.17339 20.1266 9.17339 22.7L3.20664 24.3666C2.43997 24.58 2.21997 25.5733 2.82664 26.0933C5.05331 28.02 7.89997 29.2533 11.0266 29.4666L15.8066 25.8466C16.5533 25.9866 17.3267 26.0666 18.1134 26.0666C18.9467 26.0533 19.7467 25.9333 20.5201 25.7266C24.6734 24.62 27.7667 20.9266 27.9801 16.4733H27.9867L27.9867 16.2599Z" fill="#25CBDB"/>
<path opacity="0.85" d="M26.3534 5.33325H28.3267C29.1534 5.33325 29.6267 6.27992 29.12 6.93992L27.9734 8.43992L26.6867 7.21992C26.32 6.87325 26.16 6.36659 26.2467 5.87325L26.3467 5.33325H26.3534Z" fill="#25CBDB"/>
<path d="M20.0001 11.6666V14.14C19.7667 14.1266 19.5334 14.1133 19.3001 14.0866C18.8534 14.0466 18.4134 13.98 17.9801 13.8933C17.9601 13.8866 17.9334 13.8866 17.9134 13.88C17.7201 13.84 17.5267 13.8 17.3334 13.7466L17.2334 13.7266C17.1001 13.6933 16.9667 13.6533 16.8401 13.6133C16.7001 13.58 16.5667 13.54 16.4334 13.4933C16.2534 13.4333 16.0734 13.3733 15.8934 13.3066C15.7467 13.26 15.6001 13.2 15.4601 13.1466C15.3801 13.1133 15.3067 13.08 15.2334 13.0466C15.0734 12.9866 14.9134 12.9133 14.7601 12.84C14.7467 12.84 14.7267 12.8266 14.7134 12.82C14.5267 12.7266 14.3467 12.64 14.1601 12.54C14.1401 12.5266 14.1201 12.52 14.0934 12.5066C13.9134 12.4066 13.7334 12.3066 13.5601 12.2C13.3867 12.1 13.2201 12 13.0601 11.8933C12.9801 11.84 12.9067 11.7866 12.8267 11.74C12.7001 11.6533 12.5734 11.5666 12.4534 11.4733C12.2734 11.3466 12.1001 11.2133 11.9267 11.0733C11.5934 10.8066 11.2734 10.5266 10.9667 10.2266C10.8001 10.0666 10.6334 9.89998 10.4734 9.72664C10.5067 9.52664 10.5467 9.31998 10.5934 9.11998C11.1201 6.77331 12.2134 4.69331 13.6934 2.99998C14.2467 2.36664 15.2734 2.68664 15.4201 3.51331C15.6934 5.06664 16.2201 6.55331 16.9667 7.90664C17.7467 9.31998 18.7734 10.5933 20.0001 11.6666Z" fill="#222343"/>
<path d="M24.5401 9.33331C24.5401 8.78103 24.0923 8.33331 23.5401 8.33331C22.9878 8.33331 22.5401 8.78103 22.5401 9.33331C22.5401 9.88559 22.9878 10.3333 23.5401 10.3333C24.0923 10.3333 24.5401 9.88559 24.5401 9.33331Z" fill="#222343"/>
</svg>
