<svg width="32" height="32" viewBox="0 0 32 32" fill="none" xmlns="http://www.w3.org/2000/svg">
<path opacity="0.52" d="M26.5534 11.6201C25.9601 10.2534 25.1334 9.02675 24.1001 7.99341C23.0734 6.96675 21.8467 6.14008 20.4801 5.54675C19.1267 4.96675 17.6534 4.66675 16.0934 4.66675C14.5334 4.66675 13.0467 4.96675 11.7001 5.55341C10.3134 6.16008 9.09339 6.98008 8.08672 8.00008C7.06672 9.02675 6.24672 10.2401 5.64672 11.6201C5.06006 12.9734 4.76672 14.4467 4.76672 16.0067C4.76672 17.5667 5.05339 19.0267 5.65339 20.4067C6.24672 21.7867 7.06672 23.0001 8.08006 24.0201C9.10672 25.0467 10.2867 25.8401 11.6867 26.4467C13.0734 27.0401 14.5067 27.3334 16.0801 27.3334C17.6534 27.3334 19.0934 27.0401 20.4801 26.4467C21.8801 25.8401 23.0734 25.0401 24.1134 24.0134C25.1334 22.9934 25.9601 21.7801 26.5534 20.4067C27.1401 19.0534 27.4334 17.5801 27.4334 16.0134C27.4334 14.4467 27.1467 12.9934 26.5534 11.6201Z" fill="#25CBDB"/>
<path d="M22.7667 21.6667C22.7667 21.9534 22.6734 22.1934 22.4867 22.3867C22.2934 22.5734 22.0534 22.6667 21.7667 22.6667H10.4334C10.1467 22.6667 9.90672 22.5734 9.71339 22.3867C9.52672 22.1934 9.43339 21.9534 9.43339 21.6667C9.43339 21.3801 9.52672 21.1401 9.71339 20.9534C9.90672 20.7601 10.1467 20.6667 10.4334 20.6667H21.7667C22.0534 20.6667 22.2934 20.7601 22.4867 20.9534C22.6734 21.1401 22.7667 21.3801 22.7667 21.6667Z" fill="#222343"/>
<path d="M20.8667 13.2334C20.8667 13.5001 20.7667 13.7334 20.5667 13.9334L16.7001 17.7667C16.5001 17.9667 16.2667 18.0667 16.0001 18.0667C15.7334 18.0667 15.5001 17.9667 15.3001 17.7667L11.5001 13.9334C11.3001 13.7334 11.2001 13.5001 11.2001 13.2334C11.2001 12.9667 11.3001 12.7334 11.5001 12.5334C11.7001 12.3334 11.9334 12.2401 12.2001 12.2534C12.4667 12.2601 12.7001 12.3534 12.9001 12.5334L15.0334 14.6334V9.00008C15.0334 8.71341 15.1267 8.47341 15.3134 8.28675C15.5067 8.09341 15.7467 8.00008 16.0334 8.00008C16.3201 8.00008 16.5601 8.09341 16.7534 8.28675C16.9401 8.47341 17.0334 8.71341 17.0334 9.00008V14.6334L19.1667 12.5334C19.3667 12.3534 19.6001 12.2601 19.8667 12.2534C20.1334 12.2401 20.3667 12.3334 20.5667 12.5334C20.7667 12.7334 20.8667 12.9667 20.8667 13.2334Z" fill="#222343"/>
<path d="M29.2867 13.9734C29.1201 12.8801 28.8201 11.8334 28.3867 10.8267C27.6867 9.20675 26.7267 7.79341 25.5201 6.58008C24.3067 5.37341 22.8934 4.41341 21.2734 3.71341C19.6601 3.01341 17.9267 2.66675 16.0934 2.66675C15.4134 2.66675 14.7467 2.71341 14.0934 2.81341C12.9867 2.97341 11.9201 3.27341 10.9001 3.72008C10.1001 4.06675 9.35339 4.48008 8.65339 4.95341C8.47339 5.06675 8.30006 5.18675 8.13339 5.32008C7.96006 5.44675 7.79339 5.58008 7.62672 5.71341C7.45339 5.85341 7.28672 6.00008 7.12672 6.14675C6.97339 6.28675 6.81339 6.43341 6.66672 6.58675C6.52006 6.74008 6.37339 6.89341 6.22672 7.04675C5.23339 8.14675 4.42672 9.40675 3.81339 10.8267C3.55339 11.4267 3.34006 12.0467 3.17339 12.6734C3.18006 12.6801 3.17339 12.6867 3.17339 12.6867C3.12006 12.9001 3.07339 13.1134 3.02672 13.3334C2.85339 14.1934 2.76672 15.0867 2.76672 16.0067C2.76672 16.9267 2.85339 17.8001 3.02672 18.6601C3.20006 19.5334 3.46006 20.3801 3.81339 21.2001C4.51339 22.8201 5.46672 24.2334 6.66672 25.4334C7.86672 26.6334 9.27339 27.5801 10.8934 28.2801C11.5134 28.5467 12.1467 28.7667 12.8001 28.9267C13.0267 28.9867 13.2601 29.0401 13.4934 29.0801C13.9067 29.1667 14.3267 29.2267 14.7534 29.2667C15.1867 29.3134 15.6334 29.3334 16.0801 29.3334C16.7801 29.3334 17.4601 29.2801 18.1267 29.1867C19.2201 29.0134 20.2667 28.7134 21.2734 28.2801C22.6934 27.6667 23.9534 26.8667 25.0534 25.8734C25.2134 25.7267 25.3667 25.5867 25.5201 25.4334C25.6801 25.2801 25.8334 25.1201 25.9734 24.9534C26.9734 23.8601 27.7801 22.6067 28.3867 21.2001C28.9134 19.9867 29.2401 18.7134 29.3667 17.3734C29.4134 16.9267 29.4334 16.4734 29.4334 16.0134C29.4334 15.3134 29.3867 14.6334 29.2867 13.9734ZM24.1134 24.0134C23.0734 25.0401 21.8801 25.8401 20.4801 26.4467C19.0934 27.0401 17.6534 27.3334 16.0801 27.3334C14.5067 27.3334 13.0734 27.0401 11.6867 26.4467C10.2867 25.8401 9.10672 25.0467 8.08006 24.0201C7.06672 23.0001 6.24672 21.7867 5.65339 20.4067C5.05339 19.0267 4.76672 17.5867 4.76672 16.0067C4.76672 14.4267 5.06006 12.9734 5.64672 11.6201C6.24672 10.2401 7.06672 9.02675 8.08672 8.00008C9.09339 6.98008 10.3134 6.16008 11.7001 5.55341C13.0467 4.96675 14.5267 4.66675 16.0934 4.66675C17.6601 4.66675 19.1267 4.96675 20.4801 5.54675C21.8467 6.14008 23.0734 6.96675 24.1001 7.99341C25.1334 9.02675 25.9601 10.2534 26.5534 11.6201C27.1467 12.9934 27.4334 14.4334 27.4334 16.0134C27.4334 17.5934 27.1401 19.0534 26.5534 20.4067C25.9601 21.7801 25.1334 22.9934 24.1134 24.0134Z" fill="#222343"/>
</svg>
