<svg width="32" height="32" viewBox="0 0 32 32" fill="none" xmlns="http://www.w3.org/2000/svg">
<path d="M7.33325 26.6666C6.79992 26.6666 6.33325 26.4666 5.93325 26.0666C5.53325 25.6666 5.33325 25.1999 5.33325 24.6666V20.8999C5.33325 20.6132 5.42659 20.3799 5.61992 20.1866C5.81325 19.9932 6.05325 19.8999 6.33992 19.8999C6.62659 19.8999 6.85992 19.9932 7.05325 20.1866C7.23992 20.3799 7.33992 20.6132 7.33992 20.8999V24.6666H24.6733V20.8999C24.6733 20.6132 24.7666 20.3799 24.9599 20.1866C25.1532 19.9932 25.3933 19.8999 25.6799 19.8999C25.9666 19.8999 26.1999 19.9932 26.3933 20.1866C26.5799 20.3799 26.6799 20.6132 26.6799 20.8999V24.6666C26.6799 25.1999 26.4799 25.6666 26.0799 26.0666C25.6799 26.4666 25.2133 26.6666 24.6799 26.6666H7.33325Z" fill="#222343"/>
<path d="M15.9933 21.1666C15.8599 21.1666 15.7399 21.1466 15.6333 21.0999C15.5266 21.0533 15.4133 20.9799 15.2999 20.8666L10.2666 15.8333C10.0666 15.6266 9.97328 15.3866 9.97995 15.1133C9.99328 14.8399 10.0933 14.5999 10.2866 14.3999C10.4933 14.1999 10.7399 14.0999 11.0133 14.0999C11.2866 14.0999 11.5333 14.1999 11.7333 14.3999L14.9999 17.6999V6.33325C14.9999 6.04659 15.0933 5.81325 15.2866 5.61992C15.4799 5.42659 15.7199 5.33325 16.0066 5.33325C16.2933 5.33325 16.5266 5.42659 16.7199 5.61992C16.9066 5.81325 17.0066 6.04659 17.0066 6.33325V17.6999L20.3066 14.3999C20.4999 14.1999 20.7333 14.1066 21.0066 14.1133C21.2733 14.1266 21.5133 14.2333 21.7199 14.4333C21.9133 14.6333 22.0066 14.8733 22.0066 15.1533C22.0066 15.4333 21.9066 15.6733 21.7066 15.8733L16.7066 20.8733C16.5933 20.9866 16.4799 21.0599 16.3666 21.1066C16.2533 21.1533 16.1333 21.1733 15.9999 21.1733L15.9933 21.1666Z" fill="#25CBDB"/>
</svg>
