<svg width="32" height="32" viewBox="0 0 32 32" fill="none" xmlns="http://www.w3.org/2000/svg">
<path opacity="0.52" d="M18.5333 2.66663H7.33331C6.22665 2.66663 5.33331 3.55996 5.33331 4.66663V27.3333C5.33331 28.44 6.22665 29.3333 7.33331 29.3333H24.6666C25.7733 29.3333 26.6666 28.44 26.6666 27.3333V10.8C26.6666 10.2666 26.4533 9.75996 26.08 9.38663L19.9466 3.25329C19.5733 2.87996 19.06 2.66663 18.5333 2.66663Z" fill="#25CBDB"/>
<path opacity="0.52" d="M19.9467 3.2533V8.79996C19.9467 9.90663 20.84 10.8 21.9467 10.8H26.6667C26.6667 10.2666 26.4533 9.75996 26.08 9.38663L19.9467 3.2533Z" fill="#25CBDB"/>
<path d="M21.9467 9.38663H26.08L19.9467 3.2533V7.38663C19.9467 8.4933 20.84 9.38663 21.9467 9.38663Z" fill="#222343"/>
</svg>
