<svg width="32" height="32" viewBox="0 0 32 32" fill="none" xmlns="http://www.w3.org/2000/svg">
<path opacity="0.52" d="M27.22 27.9333H4.66669C3.56002 27.9333 2.66669 27.04 2.66669 25.9333V12.6C2.66669 13.36 3.08669 14.02 3.71335 14.36L14.9934 20.88C14.9934 20.88 15.0067 20.8866 15.0134 20.8933L16 21.46L27.22 27.9333Z" fill="#25CBDB"/>
<path opacity="0.85" d="M29.3334 12.6V25.9333C29.3334 27.04 28.4334 27.9333 27.3334 27.9333H27.22L16 21.46L15.0134 20.8933C15.6267 21.24 16.3867 21.2333 17 20.88L28.2867 14.36C28.9134 14.02 29.3334 13.36 29.3334 12.6Z" fill="#25CBDB"/>
<path d="M29.3334 12.6C29.3334 13.36 28.9134 14.02 28.2867 14.36L17 20.88C16.3867 21.2333 15.6267 21.24 15.0134 20.8933C15.0134 20.8933 15 20.8933 14.9934 20.88L3.71335 14.36C3.08669 14.02 2.66669 13.36 2.66669 12.6C2.66669 11.9133 3.01335 11.3 3.54669 10.94C3.60669 10.9 3.67335 10.86 3.73335 10.8266L15 4.32665C15.6134 3.97331 16.38 3.97331 16.9934 4.32665L28.26 10.8266C28.3267 10.86 28.3934 10.9 28.4534 10.94C28.98 11.3 29.3334 11.9133 29.3334 12.6Z" fill="#222343"/>
</svg>
