<svg width="32" height="32" viewBox="0 0 32 32" fill="none" xmlns="http://www.w3.org/2000/svg">
<path opacity="0.52" d="M12.3267 25.0666C11.5933 24.8666 10.9467 24.58 10.3933 24.2C9.93467 23.9252 8.76222 22.8543 8.23334 22.3533C7.56667 21.6466 7 20.7066 6.54667 19.54C6.09334 18.3666 5.86667 17.3 5.86667 16.1866C5.86667 15.0733 6.11334 13.9866 6.6 12.92C7.08667 11.8533 7.8 10.84 8.73334 9.88662C9.31334 9.29328 10.0533 8.78662 10.9667 8.37329C11.88 7.96662 12.9667 7.62662 14.2333 7.35995C15.5 7.09328 16.96 6.90662 18.6133 6.80662C20.2667 6.70662 22.14 6.67995 24.2267 6.72662C24.3133 8.72662 24.3133 10.56 24.2267 12.2266C24.14 13.8933 23.96 15.3933 23.6933 16.7133C23.4267 18.0333 23.08 19.1799 22.66 20.1466C22.24 21.1133 21.7267 21.9 21.1267 22.5C20.2133 23.4333 19.2067 24.1466 18.0933 24.6333C16.98 25.12 15.84 25.3666 14.66 25.3666C13.84 25.3666 13.06 25.2666 12.3267 25.0666Z" fill="#25CBDB"/>
<path d="M6.96 24.2C5.98 23.2 5.22 22.0467 4.67333 20.7333C4.12667 19.42 3.86 18.08 3.86 16.7C3.86 15.08 4.14 13.5933 4.71333 12.2533C5.28 10.9067 6.13333 9.66666 7.26667 8.53333C8.04667 7.75333 9.01333 7.1 10.1667 6.56667C11.32 6.03333 12.68 5.61333 14.2467 5.31333C15.8133 5.01333 17.5867 4.82666 19.5667 4.74666C21.5467 4.66666 23.7467 4.70667 26.1667 4.86667C26.3467 7.26666 26.4067 9.46 26.3533 11.4533C26.3 13.44 26.12 15.2267 25.82 16.8C25.52 18.38 25.1 19.76 24.5533 20.9533C24.0067 22.14 23.3333 23.1333 22.5333 23.9333C21.4 25.0667 20.18 25.92 18.8667 26.5C17.5533 27.08 16.1533 27.3667 14.6667 27.3667C13.18 27.3667 11.7267 27.1067 10.4533 26.5867C9.17333 26.0667 8.01333 25.2733 6.96667 24.2067L6.96 24.2ZM10.3933 24.2C10.9467 24.58 11.5933 24.8667 12.3267 25.0667C13.06 25.2667 13.84 25.3667 14.66 25.3667C15.84 25.3667 16.98 25.12 18.0933 24.6333C19.2067 24.1467 20.2133 23.4333 21.1267 22.5C21.7267 21.9 22.24 21.1133 22.66 20.1467C23.08 19.18 23.4267 18.0333 23.6933 16.7133C23.96 15.3933 24.14 13.8933 24.2267 12.2267C24.3133 10.56 24.3133 8.72666 24.2267 6.72667C22.14 6.68 20.2667 6.70666 18.6133 6.80666C16.96 6.90666 15.5 7.09333 14.2333 7.36C12.9667 7.62666 11.88 7.96667 10.9667 8.37333C10.0533 8.78667 9.31333 9.29333 8.73333 9.88666C7.8 10.84 7.08667 11.8533 6.6 12.92C6.11333 13.9867 5.86667 15.0733 5.86667 16.1867C5.86667 17.3 6.09333 18.3667 6.54667 19.54C7 20.7067 7.56667 21.6467 8.23333 22.3533C9.41333 20.1733 10.82 18.22 12.4667 16.4867C14.1133 14.7533 15.8533 13.3867 17.7 12.3867C15.7667 14.0533 14.2 15.86 13 17.8C11.8 19.7467 10.9333 21.8733 10.4 24.18L10.3933 24.2Z" fill="#222343"/>
</svg>
