<svg width="32" height="32" viewBox="0 0 32 32" fill="none" xmlns="http://www.w3.org/2000/svg">
<path d="M24.6134 14.9933C23.5 14.9867 22.38 14.68 21.2667 14.08C20.1334 13.4667 19.3467 12.6867 18.9 11.7333L18.0334 9.76667C17.8134 9.25333 17.4934 8.88 17.0867 8.63333C16.6734 8.38667 16.2134 8.26667 15.7 8.26667C15.3467 8.26667 14.9934 8.32 14.6534 8.43333C14.3134 8.54667 13.9467 8.71333 13.5734 8.93333L9.00671 11.5667C8.69338 11.7467 8.44671 11.9933 8.26671 12.3C8.09338 12.6067 8.00671 12.94 8.00671 13.3V16C8.00671 16.28 8.10005 16.52 8.28671 16.7133C8.47338 16.9067 8.71338 17 9.00005 17C9.28671 17 9.52671 16.9067 9.72005 16.72C9.91338 16.5333 10.0067 16.2867 10.0067 15.9867V13.3L13.24 11.4333C12.86 12.48 12.5934 13.6467 12.44 14.9333C12.2867 16.22 12.2267 17.4 12.2734 18.4667L12.54 24.8333L9.67338 28.6667C9.49338 28.8933 9.42671 29.14 9.47338 29.4067C9.52005 29.6667 9.65338 29.8867 9.87338 30.0667C10.1 30.2467 10.3467 30.3133 10.6134 30.2667C10.8734 30.22 11.0934 30.0867 11.2734 29.8667L14.3067 25.8C14.42 25.6467 14.5067 25.48 14.5734 25.3C14.64 25.12 14.6867 24.9333 14.7067 24.7333L15.0067 20.2L17.84 23.3667V29.6667C17.84 29.9467 17.9334 30.1867 18.12 30.38C18.3067 30.5733 18.5467 30.6667 18.8334 30.6667C19.12 30.6667 19.36 30.5733 19.5534 30.38C19.7467 30.1867 19.84 29.9533 19.84 29.6667V23.2C19.84 23.0067 19.8067 22.8133 19.74 22.62C19.6734 22.4267 19.5867 22.24 19.4734 22.0667L16.6067 18C16.56 17.2 16.6067 16.3867 16.7534 15.5667C16.9 14.7467 17.1067 13.9467 17.3667 13.1667C17.9 13.9867 18.6734 14.7533 19.6867 15.4467C20.7 16.1467 21.6934 16.5867 22.6667 16.7667H22.6867C22.8067 15.7867 23.6134 15.0267 24.6134 14.9933Z" fill="#222343"/>
<path d="M17.9334 6.86667C18.6 6.86667 19.1734 6.62667 19.6534 6.15333C20.1267 5.67333 20.3667 5.1 20.3667 4.43333C20.3667 3.76667 20.1267 3.19333 19.6467 2.71333C19.1667 2.24 18.5934 2 17.9267 2C17.26 2 16.6867 2.24 16.2134 2.72C15.74 3.2 15.5 3.77333 15.5 4.44C15.5 5.10667 15.74 5.68 16.22 6.16C16.7 6.64 17.2734 6.87333 17.94 6.87333L17.9334 6.86667Z" fill="#222343"/>
<path opacity="0.85" d="M26.1734 30.6466C25.9 30.6466 25.6734 30.4199 25.6734 30.1466V16.9932C25.6734 16.4399 25.22 15.9866 24.6667 15.9866C24.1134 15.9866 23.66 16.4399 23.66 16.9932V17.4932C23.66 17.7666 23.4334 17.9932 23.16 17.9932C22.8867 17.9932 22.66 17.7666 22.66 17.4932V16.9932C22.66 15.8866 23.56 14.9866 24.6667 14.9866C25.7734 14.9866 26.6734 15.8866 26.6734 16.9932V30.1466C26.6734 30.4199 26.4467 30.6466 26.1734 30.6466Z" fill="#25CBDB"/>
</svg>
