<svg width="32" height="32" viewBox="0 0 32 32" fill="none" xmlns="http://www.w3.org/2000/svg">
<path d="M19.6668 25.3333H9.36676C9.11343 25.3333 8.86009 25.2266 8.70009 25.0333C8.47343 24.7599 8.38009 24.4466 8.40009 24.0999C8.53343 22.1866 8.80676 20.4333 9.22009 18.8333C9.62676 17.2333 10.2001 15.5999 10.9334 13.9333C11.6668 12.2666 12.4601 10.9066 13.3201 9.8466C14.1734 8.79327 15.0134 8.2666 15.8601 8.2666C15.7668 8.2666 14.7601 8.37327 17.3668 13.0666L16.1334 16.9999L19.6668 24.8333V25.3333Z" fill="#25CBDB"/>
<g opacity="0.85">
<path d="M23.7333 15.2333C23.12 15.5533 22.7 16.1799 22.66 16.8999C21.66 16.6333 20.6667 16.1466 19.6667 15.4333C18.6667 14.7199 17.9 13.9333 17.3667 13.0666C14.76 8.37325 15.7667 8.26658 15.86 8.26658C16.48 8.26658 16.9867 8.49992 17.38 8.96659C17.7667 9.43325 18.18 10.1666 18.6267 11.1666C19.0733 12.1866 19.7267 13.0266 20.5933 13.6799C21.46 14.3399 22.5067 14.8533 23.7267 15.2333H23.7333Z" fill="#222343"/>
<path d="M16.94 2.53325C16.94 3.19992 16.4 3.73992 15.7333 3.73992C15.5533 3.73992 15.3867 3.69992 15.2333 3.62659C14.82 3.43992 14.5333 3.01992 14.5333 2.53325C14.5333 1.87325 15.0733 1.33325 15.7333 1.33325C16.2133 1.33325 16.6267 1.61325 16.82 2.01992C16.9 2.17325 16.94 2.34659 16.94 2.53325Z" fill="#222343"/>
<path d="M11.08 26.2466L9.26666 28.6666C9.08666 28.8866 9.01999 29.1333 9.06666 29.3999C9.11332 29.6666 9.24666 29.8866 9.46666 30.0666C9.68666 30.2466 9.93332 30.3133 10.2 30.2666C10.4667 30.2199 10.6867 30.0866 10.8667 29.8666L13.58 26.2466L14.2667 25.3333H11.7667L11.08 26.2466Z" fill="#222343"/>
<path d="M17.6667 25.3333V29.6666C17.6667 30.2199 18.1133 30.6666 18.6667 30.6666C19.22 30.6666 19.6667 30.2199 19.6667 29.6666V25.3333H17.6667Z" fill="#222343"/>
</g>
<path opacity="0.85" d="M26.6667 17.0135V30.1668C26.6667 30.4402 26.44 30.6668 26.1667 30.6668C25.8933 30.6668 25.6667 30.4402 25.6667 30.1668V17.0135C25.6667 16.4602 25.2133 16.0068 24.66 16.0068C24.1067 16.0068 23.6533 16.4602 23.6533 17.0135V18.0068C23.6533 18.2802 23.4333 18.5068 23.1533 18.5068C22.8733 18.5068 22.6533 18.2802 22.6533 18.0068V17.0135C22.6533 16.9735 22.6533 16.9402 22.6533 16.9002C22.6933 16.1802 23.1133 15.5535 23.7267 15.2335C24 15.0868 24.3133 15.0068 24.6467 15.0068C25.7533 15.0068 26.6533 15.9068 26.6533 17.0135H26.6667Z" fill="#25CBDB"/>
<g opacity="0.85">
<path d="M14.2667 25.3335L13.5801 26.2468H11.0801L11.7667 25.3335H14.2667Z" fill="#222343"/>
<path d="M19.6667 25.3335H17.6667V26.2468H19.6667V25.3335Z" fill="#222343"/>
</g>
<path d="M20.0331 4.34689C20.0331 5.70022 18.9331 6.80022 17.5798 6.80022C16.2265 6.80022 15.1265 5.70022 15.1265 4.34689C15.1265 4.09355 15.1665 3.85355 15.2331 3.62689C15.3865 3.70022 15.5531 3.74022 15.7331 3.74022C16.3998 3.74022 16.9398 3.20022 16.9398 2.53355C16.9398 2.34689 16.8998 2.17355 16.8198 2.02022C17.0598 1.93355 17.3131 1.89355 17.5798 1.89355C18.9331 1.89355 20.0331 2.99355 20.0331 4.34689Z" fill="#222343"/>
</svg>
