<svg width="32" height="32" viewBox="0 0 32 32" fill="none" xmlns="http://www.w3.org/2000/svg">
<g clip-path="url(#clip0_4024_6075)">
<path d="M27.9867 10.8866C27.9733 10.7866 27.9467 10.6799 27.9 10.5666L25.3 2.69992C25.1667 2.27992 24.9267 1.94659 24.5733 1.69992C24.2267 1.45325 23.8333 1.33325 23.4 1.33325H8.6C8.16667 1.33325 7.77333 1.45325 7.42667 1.69992C7.07333 1.94659 6.83333 2.27992 6.7 2.69992L4.1 10.5666C4.05333 10.6799 4.02667 10.7866 4.02 10.8866C4.00667 10.9933 4 11.0933 4 11.1999V21.3333C4 21.7066 4.12667 22.0199 4.38667 22.2799C4.64 22.5399 4.95333 22.6666 5.32667 22.6666C5.7 22.6666 6.01333 22.5399 6.27333 22.2799C6.53333 22.0199 6.66667 21.7066 6.66667 21.3333V19.8666H25.3V21.2999C25.3 21.6799 25.4333 21.9999 25.7 22.2666C25.9667 22.5333 26.2867 22.6666 26.66 22.6666C27.0333 22.6666 27.3467 22.5399 27.6067 22.2799C27.8667 22.0199 28 21.7066 28 21.3333V11.1999C28 11.0933 27.9933 10.9933 27.9867 10.8866ZM10.82 15.6733C10.4733 16.0266 10.04 16.1999 9.52667 16.1999C9.01333 16.1999 8.57333 16.0266 8.20667 15.6799C7.84667 15.3399 7.66667 14.9066 7.66667 14.3933C7.66667 13.8799 7.84667 13.4399 8.21333 13.0733C8.57333 12.7133 9.01333 12.5333 9.53333 12.5333C10.0533 12.5333 10.46 12.7133 10.8067 13.0799C11.16 13.4399 11.3333 13.8799 11.3333 14.3999C11.3333 14.9199 11.16 15.3266 10.82 15.6733ZM23.82 15.6733C23.46 16.0266 23.02 16.1999 22.5 16.1999C21.98 16.1999 21.5733 16.0266 21.2267 15.6799C20.8733 15.3399 20.7 14.9066 20.7 14.3933C20.7 13.8799 20.8733 13.4399 21.22 13.0733C21.56 12.7133 21.9933 12.5333 22.5067 12.5333C23.02 12.5333 23.46 12.7133 23.8267 13.0799C24.1867 13.4399 24.3667 13.8799 24.3667 14.3999C24.3667 14.9199 24.1867 15.3266 23.82 15.6733ZM6.76667 8.86659L8.6 3.33325H23.4L25.2333 8.86659H6.76667Z" fill="#222343"/>
<path opacity="0.32" d="M25.2333 8.86659H6.7666L8.59993 3.33325H23.3999L25.2333 8.86659Z" fill="#25CBDB"/>
<path d="M9.53341 12.5334C9.01341 12.5334 8.57341 12.7134 8.21341 13.0734C7.84675 13.4401 7.66675 13.8734 7.66675 14.3934C7.66675 14.9134 7.84675 15.3401 8.20675 15.6801C8.57342 16.0268 9.00675 16.2001 9.52675 16.2001C10.0467 16.2001 10.4734 16.0268 10.8201 15.6734C11.1601 15.3268 11.3334 14.9001 11.3334 14.4001C11.3334 13.9001 11.1601 13.4401 10.8067 13.0801C10.4601 12.7134 10.0334 12.5334 9.53341 12.5334Z" fill="#25CBDB"/>
<path d="M23.8267 13.0801C23.4601 12.7134 23.0267 12.5334 22.5067 12.5334C21.9867 12.5334 21.5601 12.7134 21.2201 13.0734C20.8734 13.4401 20.7001 13.8734 20.7001 14.3934C20.7001 14.9134 20.8734 15.3401 21.2267 15.6801C21.5734 16.0268 22.0001 16.2001 22.5001 16.2001C23.0001 16.2001 23.4601 16.0268 23.8201 15.6734C24.1867 15.3268 24.3667 14.9001 24.3667 14.4001C24.3667 13.9001 24.1867 13.4401 23.8267 13.0801Z" fill="#25CBDB"/>
<path d="M17.2001 29.8334C17.2001 30.0134 17.1201 30.1534 16.9667 30.2534C16.8134 30.3534 16.6467 30.3534 16.4667 30.2668L10.6334 27.2001C10.5201 27.1334 10.4801 27.0401 10.5001 26.9134C10.5267 26.7934 10.6001 26.7268 10.7334 26.7268H14.6667V24.9934C14.6667 24.8134 14.7467 24.6734 14.9001 24.5734C15.0534 24.4734 15.2201 24.4734 15.4001 24.5601L21.3334 27.5268C21.4467 27.5934 21.4867 27.6868 21.4534 27.8068C21.4201 27.9268 21.3334 27.9934 21.2001 27.9934H17.2001V29.8334Z" fill="#25CBDB"/>
</g>
<defs>
<clipPath id="clip0_4024_6075">
<rect width="32" height="32" fill="white"/>
</clipPath>
</defs>
</svg>
