<svg width="32" height="32" viewBox="0 0 32 32" fill="none" xmlns="http://www.w3.org/2000/svg">
<path d="M29.3333 12.6C29.3333 13.36 28.9133 14.02 28.2866 14.36L17 20.88C16.3866 21.2333 15.6266 21.24 15.0133 20.8933C15.0133 20.8933 15 20.8933 14.9933 20.88L3.71329 14.36C3.08663 14.02 2.66663 13.36 2.66663 12.6C2.66663 11.9133 3.01329 11.3 3.54663 10.94C3.60663 10.9 3.67329 10.86 3.73329 10.8266L15 4.32665C15.6133 3.97331 16.38 3.97331 16.9933 4.32665L28.26 10.8266C28.3266 10.86 28.3933 10.9 28.4533 10.94C28.98 11.3 29.3333 11.9133 29.3333 12.6Z" fill="#222343"/>
<path opacity="0.85" d="M26.6666 15.3V8.80663C26.6666 7.62663 25.7066 6.66663 24.5266 6.66663H7.47331C6.29331 6.66663 5.33331 7.62663 5.33331 8.80663V15.2964L3.71329 14.36C3.08663 14.02 2.66663 13.36 2.66663 12.6V25.9333C2.66663 27.04 3.55996 27.9333 4.66663 27.9333H27.22L16 21.46L15.1352 20.9633C15.7252 21.2443 16.4267 21.2169 17 20.8866L26.6666 15.3Z" fill="#25CBDB"/>
<path d="M29.3333 12.6V25.9333C29.3333 27.04 28.4333 27.9333 27.3333 27.9333H27.22L16 21.46L15.0133 20.8933C15.6266 21.24 16.3866 21.2333 17 20.88L28.2866 14.36C28.9133 14.02 29.3333 13.36 29.3333 12.6Z" fill="#25CBDB"/>
<path d="M10.3 13.7H15C15.2867 13.7 15.5267 13.7933 15.72 13.98C15.9067 14.1666 16 14.4066 16 14.7C16 14.9933 15.9067 15.2266 15.72 15.4133C15.5333 15.6 15.2933 15.7 15 15.7H10.3C10.0133 15.7 9.77332 15.6066 9.58665 15.4133C9.39999 15.2266 9.29999 14.9866 9.29999 14.7C9.29999 14.4133 9.39332 14.1733 9.58665 13.98C9.77332 13.7933 10.0133 13.7 10.3 13.6933V13.7Z" fill="#222343"/>
<path d="M10.3 9.69995H21.7C21.9867 9.69995 22.2267 9.79328 22.42 9.97995C22.6067 10.1666 22.7 10.4066 22.7 10.7C22.7 10.9933 22.6067 11.2266 22.42 11.42C22.2333 11.6066 21.9933 11.7 21.7 11.7H10.3C10.0133 11.7 9.77332 11.6066 9.58665 11.42C9.39999 11.2333 9.30665 10.9933 9.29999 10.7C9.29999 10.4133 9.39332 10.1733 9.58665 9.97995C9.77332 9.79328 10.0133 9.69995 10.3067 9.69995H10.3Z" fill="#222343"/>
</svg>
