<svg width="32" height="32" viewBox="0 0 32 32" fill="none" xmlns="http://www.w3.org/2000/svg">
<path opacity="0.52" d="M16 27.3334C22.2592 27.3334 27.3333 22.2593 27.3333 16.0001C27.3333 9.74085 22.2592 4.66675 16 4.66675C9.74073 4.66675 4.66663 9.74085 4.66663 16.0001C4.66663 22.2593 9.74073 27.3334 16 27.3334Z" fill="#25CBDB"/>
<path d="M16 4.66675C22.2466 4.66675 27.3333 9.75341 27.3333 16.0001C27.3333 22.2467 22.2466 27.3334 16 27.3334C9.75329 27.3334 4.66663 22.2467 4.66663 16.0001C4.66663 9.75341 9.75329 4.66675 16 4.66675ZM16 2.66675C8.63329 2.66675 2.66663 8.63341 2.66663 16.0001C2.66663 23.3667 8.63329 29.3334 16 29.3334C23.3666 29.3334 29.3333 23.3667 29.3333 16.0001C29.3333 8.63341 23.3666 2.66675 16 2.66675Z" fill="#222343"/>
<path d="M16 20.4667C15.6866 20.4667 15.4266 20.5734 15.2133 20.7867C15.0066 20.9934 14.9 21.2601 14.9 21.5667C14.9 21.8734 15.0066 22.1401 15.2133 22.3534C15.4266 22.5667 15.6866 22.6667 16 22.6667C16.3133 22.6667 16.5733 22.5667 16.7866 22.3534C16.9933 22.1401 17.1 21.8801 17.1 21.5667C17.1 21.2534 16.9933 21.0001 16.7866 20.7867C16.5733 20.5734 16.3133 20.4667 16 20.4667Z" fill="#222343"/>
<path d="M16.8133 9.42008C16.62 9.23341 16.38 9.13341 16.0933 9.13341C15.8066 9.13341 15.5733 9.23341 15.38 9.42008C15.1933 9.61341 15.1 9.85341 15.1 10.1334V16.5667C15.1 16.8534 15.1933 17.0867 15.3866 17.2801C15.58 17.4734 15.82 17.5667 16.1066 17.5667C16.3933 17.5667 16.6266 17.4734 16.82 17.2801C17.0066 17.0867 17.1 16.8534 17.1 16.5667V10.1334C17.1 9.85341 17.0066 9.61341 16.8133 9.42008Z" fill="#222343"/>
</svg>
