<svg width="32" height="32" viewBox="0 0 32 32" fill="none" xmlns="http://www.w3.org/2000/svg">
<path opacity="0.52" d="M4 13H28V27.3333C28 28.44 27.1067 29.3333 26 29.3333H6C4.89333 29.3333 4 28.44 4 27.3333V13Z" fill="#25CBDB"/>
<g opacity="0.52">
<path d="M22.7534 2.66675H22.7467C22.1502 2.66675 21.6667 3.15028 21.6667 3.74675V5.57341C21.6667 6.16988 22.1502 6.65341 22.7467 6.65341H22.7534C23.3498 6.65341 23.8334 6.16988 23.8334 5.57341V3.74675C23.8334 3.15028 23.3498 2.66675 22.7534 2.66675Z" fill="#25CBDB"/>
<path d="M9.2467 2.66675H9.24003C8.64357 2.66675 8.16003 3.15028 8.16003 3.74675V5.57341C8.16003 6.16988 8.64357 6.65341 9.24003 6.65341H9.2467C9.84317 6.65341 10.3267 6.16988 10.3267 5.57341V3.74675C10.3267 3.15028 9.84317 2.66675 9.2467 2.66675Z" fill="#25CBDB"/>
</g>
<path d="M6 4.66675H26C27.1067 4.66675 28 5.56008 28 6.66675V13.0001H4V6.66675C4 5.56008 4.89333 4.66675 6 4.66675Z" fill="#222343"/>
<path d="M13.7333 23.7001L10.5333 20.5334C10.3333 20.3334 10.2333 20.1001 10.2333 19.8334C10.2333 19.5667 10.3333 19.3334 10.5333 19.1334C10.7333 18.9334 10.9667 18.8334 11.2333 18.8334C11.5 18.8334 11.7333 18.9334 11.9333 19.1334L14.4333 21.5667L19.8667 16.1334C20.0467 15.9534 20.2733 15.8667 20.5467 15.8667C20.82 15.8667 21.06 15.9667 21.2667 16.1667C21.4667 16.3667 21.5667 16.6001 21.5667 16.8667C21.5667 17.1334 21.4667 17.3667 21.2667 17.5667L15.1333 23.7001C14.9333 23.9001 14.7 24.0001 14.4333 24.0001C14.1667 24.0001 13.9333 23.9001 13.7333 23.7001Z" fill="#222343"/>
</svg>
