<svg width="32" height="32" viewBox="0 0 32 32" fill="none" xmlns="http://www.w3.org/2000/svg">
<path opacity="0.52" d="M4 13H28V27.3333C28 28.44 27.1067 29.3333 26 29.3333H6C4.89333 29.3333 4 28.44 4 27.3333V13Z" fill="#25CBDB"/>
<path d="M6 4.66675H26C27.1067 4.66675 28 5.56008 28 6.66675V13.0001H4V6.66675C4 5.56008 4.89333 4.66675 6 4.66675Z" fill="#222343"/>
<path d="M16.0333 21.4001L13.4 24.0334C13.2 24.2334 12.9667 24.3334 12.7 24.3334C12.4333 24.3334 12.2 24.2334 12 24.0334C11.8 23.8334 11.7 23.5934 11.7 23.3134C11.7 23.0334 11.8 22.8001 12 22.6001L14.6 20.0001L11.9667 17.4001C11.7667 17.2001 11.6667 16.9667 11.6667 16.7001C11.6667 16.4334 11.7667 16.2001 11.9667 16.0001C12.1667 15.8001 12.4067 15.7001 12.6867 15.7001C12.9667 15.7001 13.2067 15.8001 13.4067 16.0001L16.0067 18.5667L18.6067 15.9667C18.8067 15.7667 19.04 15.6667 19.3067 15.6667C19.5733 15.6667 19.8067 15.7667 20.0067 15.9667C20.2067 16.1667 20.3067 16.4067 20.3067 16.6867C20.3067 16.9667 20.2067 17.2001 20.0067 17.4001L17.44 20.0001L20.04 22.6001C20.24 22.8001 20.34 23.0334 20.34 23.3001C20.34 23.5667 20.24 23.8001 20.04 24.0001C19.84 24.2001 19.6 24.3001 19.32 24.3001C19.04 24.3001 18.8067 24.2001 18.6067 24.0001L16.04 21.4001H16.0333Z" fill="#222343"/>
<g opacity="0.52">
<path d="M22.7534 2.66675H22.7467C22.1502 2.66675 21.6667 3.15028 21.6667 3.74675V5.57341C21.6667 6.16988 22.1502 6.65341 22.7467 6.65341H22.7534C23.3498 6.65341 23.8334 6.16988 23.8334 5.57341V3.74675C23.8334 3.15028 23.3498 2.66675 22.7534 2.66675Z" fill="#25CBDB"/>
<path d="M9.2467 2.66675H9.24003C8.64357 2.66675 8.16003 3.15028 8.16003 3.74675V5.57341C8.16003 6.16988 8.64357 6.65341 9.24003 6.65341H9.2467C9.84317 6.65341 10.3267 6.16988 10.3267 5.57341V3.74675C10.3267 3.15028 9.84317 2.66675 9.2467 2.66675Z" fill="#25CBDB"/>
</g>
</svg>
