<svg width="32" height="32" viewBox="0 0 32 32" fill="none" xmlns="http://www.w3.org/2000/svg">
<path opacity="0.52" d="M14.8933 28.3828C21.1541 28.3828 26.2294 23.3074 26.2294 17.0467C26.2294 10.7859 21.1541 5.71057 14.8933 5.71057C8.63257 5.71057 3.55722 10.7859 3.55722 17.0467C3.55722 23.3074 8.63257 28.3828 14.8933 28.3828Z" fill="#25CBDB"/>
<path d="M19.1267 16.6801C18.6133 16.6801 18.1867 16.8534 17.8467 17.2001C17.5067 17.5467 17.3333 17.9734 17.3333 18.4801C17.3333 18.9867 17.5067 19.4201 17.8467 19.7601C18.1867 20.1001 18.62 20.2801 19.1267 20.2801C19.6333 20.2801 20.0667 20.1067 20.4133 19.7601C20.76 19.4134 20.9267 18.9867 20.9267 18.4801C20.9267 17.9734 20.7533 17.5401 20.4133 17.2001C20.0733 16.8601 19.64 16.6801 19.1267 16.6801Z" fill="#222343"/>
<path d="M10.6933 16.6801C10.18 16.6801 9.75334 16.8534 9.41334 17.2001C9.07334 17.5467 8.89334 17.9734 8.89334 18.4801C8.89334 18.9867 9.06667 19.4201 9.41334 19.7601C9.76001 20.1001 10.1867 20.2801 10.6933 20.2801C11.2 20.2801 11.6333 20.1067 11.9733 19.7601C12.3133 19.4134 12.4933 18.9867 12.4933 18.4801C12.4933 17.9734 12.32 17.5401 11.9733 17.2001C11.6267 16.8601 11.2 16.6801 10.6933 16.6801Z" fill="#222343"/>
<path d="M28.2267 17.0534C28.2267 16.0534 28.1467 15.1734 27.9733 14.42C27.9133 14.16 27.8333 13.8667 27.7533 13.58C27.66 13.2334 27.5533 12.9 27.4333 12.5667C27.3533 12.3267 27.2867 12.1067 27.1933 11.8534V11.8734C25.86 8.73338 23.3667 6.22005 20.2533 4.84671H20.2667C20.2667 4.84671 20.2067 4.82005 20.1733 4.80671C19.66 4.58671 19.1267 4.40005 18.58 4.24005C18.1867 4.11338 17.82 4.01338 17.48 3.94671C16.6933 3.79338 15.8333 3.71338 14.8933 3.71338C13.0267 3.71338 11.28 4.06005 9.66 4.74671C8.04 5.43338 6.62666 6.38005 5.42666 7.58005C4.22666 8.78005 3.28 10.1934 2.59333 11.8134C1.90666 13.4334 1.56 15.18 1.56 17.0467C1.56 18.9134 1.90666 20.66 2.59333 22.28C3.28 23.9 4.22666 25.3134 5.42666 26.5134C6.62666 27.7134 8.04 28.66 9.66 29.3467C11.28 30.0334 13.02 30.38 14.88 30.38C14.88 30.38 14.8867 30.38 14.8933 30.38C14.8933 30.38 14.9 30.38 14.9067 30.38C16.7667 30.38 18.5067 30.0267 20.1267 29.3334C21.7467 28.6334 23.16 27.68 24.36 26.48C25.56 25.28 26.5067 23.8667 27.1933 22.2467C27.88 20.6267 28.2267 18.8934 28.2267 17.0467V17.0534ZM26.0667 15.2134L26.1333 15.6667C26.1467 15.7534 26.1533 15.8334 26.16 15.92C26.1733 16.0334 26.1867 16.1534 26.1933 16.2734C26.2133 16.5334 26.22 16.7934 26.22 17.0534C26.22 23.3 21.14 28.38 14.8933 28.3867C14.8933 28.3867 14.8933 28.3867 14.8867 28.3867C12.18 28.3867 9.69333 27.4267 7.74 25.8334C7.44 25.58 7.14666 25.3067 6.86 25.02C6.04 24.1867 5.37333 23.28 4.86 22.3134C4.83333 22.2667 4.81333 22.2134 4.78666 22.16C4.64666 21.8867 4.51333 21.6067 4.4 21.32C4.37333 21.26 4.36 21.2 4.33333 21.14C3.83333 19.8467 3.58 18.4467 3.56666 16.94C3.56666 16.9 3.56666 16.86 3.56666 16.82C5.38666 16.0867 7 15.0467 8.40666 13.7067C9.82 12.36 10.9 10.7867 11.66 8.98671C11.8667 9.22671 12.0867 9.46004 12.3 9.68671C13.2933 10.7467 14.4267 11.6267 15.6933 12.32C15.96 12.4734 16.24 12.62 16.52 12.76C16.54 12.7667 16.5533 12.78 16.5733 12.7867C16.6133 12.8067 16.66 12.82 16.7067 12.84C16.9067 12.9334 17.1067 13.0267 17.3067 13.12C18.74 13.7267 20.3333 14.0534 22.0933 14.1067C22.2933 14.1134 22.4933 14.12 22.6933 14.12C22.7467 14.12 22.8 14.12 22.8533 14.12C22.9467 14.12 23.0467 14.1134 23.1467 14.1067C23.54 14.1 23.9333 14.0934 24.3133 14.06C24.8333 14.0134 25.3133 13.94 25.7533 13.8267C25.8867 14.28 25.9933 14.7467 26.0733 15.22L26.0667 15.2134Z" fill="#222343"/>
<path opacity="0.52" d="M24.5 13.5133L22.6333 9.28666L18.5333 7.54L22.6333 5.84666L24.5 1.62L26.32 5.84666L30.4267 7.54L26.32 9.28666L24.5 13.5133Z" fill="#25CBDB"/>
</svg>
