<svg width="32" height="32" viewBox="0 0 32 32" fill="none" xmlns="http://www.w3.org/2000/svg">
<path opacity="0.52" fill-rule="evenodd" clip-rule="evenodd" d="M16 2.66663C23.3667 2.66663 29.3334 8.63329 29.3334 16L29.34 15.9933C29.34 22.6533 24.46 28.1666 18.0867 29.1666C17.4134 29.2733 16.7067 29.34 16 29.34C15.2933 29.34 14.6 29.2867 13.92 29.18V29.1733C7.54 28.1733 2.66669 22.6533 2.66669 16C2.66669 8.63329 8.63335 2.66663 16 2.66663Z" fill="#25CBDB"/>
<path d="M21.1933 19.8533L21.7867 16H18.0867V13.5C18.0867 12.4467 18.6 11.42 20.26 11.42H21.94V8.14001C21.94 8.14001 20.4133 7.88 18.9533 7.88C15.9067 7.88 13.92 9.72667 13.92 13.0667V16.0067H10.5333V19.86H13.92V29.18C14.6 29.2867 15.2933 29.34 16 29.34C16.7067 29.34 17.4067 29.2867 18.08 29.18V19.86H21.1867L21.1933 19.8533Z" fill="#222343"/>
</svg>
