<svg width="32" height="32" viewBox="0 0 32 32" fill="none" xmlns="http://www.w3.org/2000/svg">
<path opacity="0.52" d="M4.40002 28C3.86669 28 3.40002 27.8 3.00002 27.4C2.60002 27 2.40002 26.5333 2.40002 26V6C2.40002 5.46667 2.60002 5 3.00002 4.6C3.40002 4.2 3.86669 4 4.40002 4H27.6C28.1334 4 28.6 4.2 29 4.6C29.4 5 29.6 5.46667 29.6 6V26C29.6 26.5333 29.4 27 29 27.4C28.6 27.8 28.1334 28 27.6 28H4.40002Z" fill="#25CBDB"/>
<path d="M8 11.6666H12C12.2867 11.6666 12.5267 11.5733 12.72 11.3866C12.9067 11.2 13 10.96 13 10.6666C13 10.3733 12.9067 10.14 12.72 9.95329C12.5333 9.76663 12.2933 9.66663 12 9.66663H8C7.71333 9.66663 7.47333 9.75996 7.28667 9.95329C7.1 10.14 7 10.38 7 10.6666C7 10.9533 7.09333 11.1933 7.28667 11.3866C7.47333 11.5733 7.71333 11.6666 8 11.6666Z" fill="#222343"/>
<path d="M8 17H12C12.2867 17 12.5267 16.9066 12.72 16.72C12.9067 16.5333 13 16.2933 13 16C13 15.7066 12.9067 15.4733 12.72 15.28C12.5333 15.0933 12.2933 15 12 15H8C7.71333 15 7.47333 15.0933 7.28667 15.28C7.1 15.4666 7 15.7066 7 16C7 16.2933 7.09333 16.5266 7.28667 16.72C7.47333 16.9066 7.71333 17 8 17Z" fill="#222343"/>
<path d="M8 22.3333H12C12.2867 22.3333 12.5267 22.24 12.72 22.0533C12.9067 21.8666 13 21.6266 13 21.3333C13 21.04 12.9067 20.8066 12.72 20.6133C12.5333 20.4266 12.2933 20.3333 12 20.3333H8C7.71333 20.3333 7.47333 20.4266 7.28667 20.6133C7.1 20.8 7 21.04 7 21.3333C7 21.6266 7.09333 21.86 7.28667 22.0533C7.47333 22.24 7.71333 22.3333 8 22.3333Z" fill="#222343"/>
<path d="M19.4 19.2666C19.4867 19.2666 19.5733 19.2533 19.6533 19.2133C19.7333 19.18 19.8 19.1266 19.8733 19.06L24.8067 14.0933C25.0267 13.8733 25.1467 13.64 25.16 13.3933C25.1733 13.1466 25.0667 12.9133 24.8467 12.6933C24.6467 12.4933 24.4067 12.3933 24.1267 12.3933C23.8467 12.3933 23.6133 12.4933 23.4067 12.6933L19.4067 16.6933L18.2067 15.5266C18.0067 15.3266 17.7733 15.2266 17.5067 15.2266C17.24 15.2266 17.0067 15.3266 16.8067 15.5266C16.6067 15.7266 16.5067 15.96 16.5067 16.2266C16.5067 16.4933 16.6067 16.7266 16.8067 16.9266L18.94 19.06C19.0067 19.1266 19.08 19.18 19.16 19.2133C19.24 19.2466 19.32 19.2666 19.4067 19.2666H19.4Z" fill="#222343"/>
</svg>
