<svg width="32" height="32" viewBox="0 0 32 32" fill="none" xmlns="http://www.w3.org/2000/svg">
<path d="M7.79991 20.8C7.14658 20.8 6.59325 20.5667 6.12658 20.0933C5.65991 19.62 5.43324 19.0533 5.43324 18.3933C5.43324 17.7333 5.66658 17.1667 6.12658 16.7C6.59325 16.2333 7.14658 16 7.79991 16C8.45325 16 9.03991 16.2333 9.51991 16.7067C9.99325 17.18 10.2332 17.7467 10.2332 18.4067C10.2332 19.0667 9.99325 19.6333 9.51991 20.1C9.03991 20.5667 8.47325 20.8 7.79991 20.8Z" fill="#222343"/>
<path d="M24.1666 20.8C23.4999 20.8 22.9266 20.5667 22.4466 20.0933C21.9732 19.62 21.7332 19.0533 21.7332 18.3933C21.7332 17.7333 21.9732 17.1667 22.4466 16.7C22.9199 16.2333 23.4932 16 24.1666 16C24.8399 16 25.3732 16.2333 25.8399 16.7067C26.3066 17.18 26.5332 17.7467 26.5332 18.4067C26.5332 19.0667 26.2999 19.6333 25.8399 20.1C25.3799 20.5667 24.8199 20.8 24.1666 20.8Z" fill="#222343"/>
<path d="M27.6866 24.08C27.4599 23.9 27.2266 23.7467 26.9932 23.6067C26.9932 23.6067 26.9932 23.6 26.9999 23.5933C26.9532 23.5667 26.9066 23.5467 26.8599 23.5267C26.2399 23.1734 25.6066 22.9467 24.9532 22.8533C24.9399 22.8533 24.9332 22.8533 24.9199 22.8533C24.6932 22.82 24.4599 22.8 24.2332 22.8C24.2199 22.8 24.2132 22.8 24.1999 22.8C24.1866 22.8 24.1799 22.8 24.1666 22.8C23.9332 22.8 23.7066 22.82 23.4799 22.8533C23.4666 22.8533 23.4599 22.8533 23.4466 22.8533C22.7932 22.9467 22.1599 23.1734 21.5399 23.5267C21.4932 23.5534 21.4466 23.5733 21.3999 23.5933C21.3999 23.5933 21.3999 23.6 21.4066 23.6067C21.1732 23.7467 20.9399 23.9 20.7132 24.08C19.6132 24.9333 19.0666 25.8267 19.0666 26.76C19.0666 27.0934 19.1932 27.3733 19.4399 27.6067C19.6932 27.84 19.9999 27.96 20.3666 27.96H28.0332C28.3999 27.96 28.7066 27.84 28.9599 27.6067C29.2132 27.3733 29.3332 27.0867 29.3332 26.76C29.3332 25.8267 28.7799 24.9333 27.6866 24.08Z" fill="#222343"/>
<path d="M11.2799 24.08C11.0532 23.9 10.8199 23.7467 10.5866 23.6067C10.5866 23.6067 10.5866 23.6 10.5932 23.5933C10.5466 23.5667 10.4999 23.5467 10.4532 23.5267C9.83325 23.1734 9.19991 22.9467 8.54658 22.8533C8.53325 22.8533 8.52658 22.8533 8.51325 22.8533C8.28658 22.82 8.05325 22.8 7.82658 22.8C7.81325 22.8 7.80658 22.8 7.79325 22.8C7.77991 22.8 7.77325 22.8 7.75991 22.8C7.52658 22.8 7.29991 22.82 7.07325 22.8533C7.05991 22.8533 7.05325 22.8533 7.03991 22.8533C6.38658 22.9467 5.75325 23.1734 5.13325 23.5267C5.08658 23.5534 5.03991 23.5733 4.99325 23.5933C4.99325 23.5933 4.99325 23.6 4.99991 23.6067C4.76658 23.7467 4.53325 23.9 4.30658 24.08C3.20658 24.9333 2.65991 25.8267 2.65991 26.76C2.65991 27.0934 2.78658 27.3733 3.03325 27.6067C3.28658 27.84 3.59325 27.96 3.95991 27.96H11.6266C11.9932 27.96 12.2999 27.84 12.5532 27.6067C12.8066 27.3733 12.9266 27.0867 12.9266 26.76C12.9266 25.8267 12.3732 24.9333 11.2799 24.08Z" fill="#222343"/>
<path d="M21.8999 7.13335V5.63335C21.8999 5.16002 22.0666 4.76002 22.3932 4.42668C22.7199 4.09335 23.1199 3.93335 23.5932 3.93335C24.0666 3.93335 24.4666 4.10002 24.7999 4.42668C25.1332 4.76002 25.2999 5.16002 25.2999 5.63335V9.68668" fill="#222343"/>
<path d="M16.0001 19.3999C15.1534 19.3999 14.4334 19.0999 13.8334 18.4999C13.2334 17.8999 12.9334 17.1799 12.9334 16.3333C12.9334 15.4866 13.2334 14.7666 13.8334 14.1666C14.4334 13.5666 15.1534 13.2666 16.0001 13.2666C16.8468 13.2666 17.5668 13.5666 18.1668 14.1666C18.7668 14.7666 19.0668 15.4866 19.0668 16.3333C19.0668 17.1799 18.7668 17.8999 18.1668 18.4999C17.5668 19.0999 16.8468 19.3999 16.0001 19.3999Z" fill="#25CBDB"/>
<path d="M9.6001 27.9666C9.75343 27.2333 10.0268 26.5466 10.4201 25.9133C10.8134 25.2799 11.2934 24.7266 11.8734 24.2599C12.4534 23.7933 13.0934 23.4333 13.7934 23.1733C14.4934 22.9199 15.2334 22.7866 16.0134 22.7866C16.7934 22.7866 17.5268 22.9133 18.2268 23.1733C18.9268 23.4333 19.5668 23.7933 20.1468 24.2599C20.7268 24.7266 21.2068 25.2799 21.6001 25.9133C21.9934 26.5466 22.2601 27.2333 22.4201 27.9666H9.6001Z" fill="#25CBDB"/>
<path opacity="0.85" d="M29.8667 13.1665C30.0934 13.3332 30.2267 13.5532 30.2667 13.8265C30.3067 14.0998 30.2401 14.3465 30.0667 14.5665C29.8934 14.7865 29.6734 14.9198 29.4134 14.9532C29.1534 14.9865 28.9201 14.9132 28.6934 14.7332L16.0001 5.19984L3.30005 14.7332C3.08005 14.9132 2.84005 14.9865 2.58005 14.9532C2.32005 14.9198 2.11339 14.7932 1.94672 14.5598C1.76005 14.3332 1.68672 14.0865 1.73339 13.8265C1.78005 13.5665 1.91339 13.3465 2.13339 13.1665L14.8001 3.5665C15.1601 3.29984 15.5601 3.1665 16.0067 3.1665C16.4534 3.1665 16.8467 3.29984 17.2001 3.5665L29.8667 13.1665Z" fill="#222343"/>
</svg>
