<svg width="32" height="32" viewBox="0 0 32 32" fill="none" xmlns="http://www.w3.org/2000/svg">
<path opacity="0.52" d="M20.5733 4H6C4.89333 4 4 4.89333 4 6V26C4 27.1067 4.89333 28 6 28H26C27.1067 28 28 27.1067 28 26V11.4267C28 10.8933 27.7867 10.3867 27.4133 10.0133L21.9867 4.58667C21.6133 4.21333 21.1 4 20.5733 4Z" fill="#25CBDB"/>
<path opacity="0.85" d="M27.4134 10.0133L21.9867 4.58667V9.43334C21.9867 10.54 22.88 11.4333 23.9867 11.4333H28.0067C28.0067 10.9 27.7934 10.3933 27.42 10.0133H27.4134Z" fill="#25CBDB"/>
<path d="M23.98 10.0133H27.4133L21.98 4.57996V8.01329C21.98 9.11996 22.8733 10.0133 23.98 10.0133Z" fill="#222343"/>
<path d="M10.3 22.3H21.7C21.9867 22.3 22.2267 22.2066 22.42 22.02C22.6133 21.8333 22.7 21.5933 22.7 21.3C22.7 21.0066 22.6067 20.7733 22.42 20.58C22.2333 20.3933 21.9933 20.3 21.7 20.3H10.3C10.0133 20.3 9.77332 20.3933 9.58665 20.58C9.39999 20.7666 9.30665 21.0066 9.29999 21.3C9.29999 21.5866 9.39332 21.8266 9.58665 22.02C9.77332 22.2066 10.0133 22.3 10.3067 22.3H10.3Z" fill="#222343"/>
<path d="M10.3 11.7H15C15.2867 11.7 15.5267 11.6066 15.72 11.42C15.9067 11.2333 16 10.9933 16 10.7C16 10.4066 15.9067 10.1733 15.72 9.98662C15.5333 9.79995 15.2933 9.69995 15 9.69995H10.3C10.0133 9.69995 9.77332 9.79328 9.58665 9.98662C9.39999 10.1733 9.29999 10.4133 9.29999 10.7C9.29999 10.9866 9.39332 11.2266 9.58665 11.42C9.77332 11.6066 10.0133 11.7 10.3 11.7066V11.7Z" fill="#222343"/>
<path d="M10.3 17H21.7C21.9867 17 22.2267 16.9066 22.42 16.72C22.6067 16.5333 22.7 16.2933 22.7 16C22.7 15.7066 22.6067 15.4733 22.42 15.28C22.2333 15.0933 21.9933 15 21.7 15H10.3C10.0133 15 9.77332 15.0933 9.58665 15.28C9.39999 15.4666 9.30665 15.7066 9.29999 16C9.29999 16.2866 9.39332 16.5266 9.58665 16.72C9.77332 16.9066 10.0133 17 10.3067 17H10.3Z" fill="#222343"/>
</svg>
