<svg width="32" height="32" viewBox="0 0 32 32" fill="none" xmlns="http://www.w3.org/2000/svg">
<path d="M15.8667 5.33325H4.66675C3.56008 5.33325 2.66675 6.22659 2.66675 7.33325V28.6666C2.66675 29.7733 3.56008 30.6666 4.66675 30.6666H22.0001C23.1067 30.6666 24.0001 29.7733 24.0001 28.6666V13.4666C24.0001 12.9333 23.7867 12.4266 23.4134 12.0533L17.2801 5.91992C16.9067 5.54659 16.3934 5.33325 15.8667 5.33325Z" fill="#222343"/>
<path opacity="0.52" d="M28.0001 9.46659C28.0001 9.29992 27.9734 9.14658 27.9334 8.98659C27.8801 8.75992 27.7934 8.54659 27.6601 8.35325C27.5868 8.24659 27.5067 8.13992 27.4134 8.04659L21.2801 1.91992C20.9067 1.54659 20.3934 1.33325 19.8667 1.33325H8.66675C7.56008 1.33325 6.66675 2.22659 6.66675 3.33325V24.6666C6.66675 25.7733 7.56008 26.6666 8.66675 26.6666H26.0001C27.1067 26.6666 28.0001 25.7733 28.0001 24.6666V9.46659Z" fill="#25CBDB"/>
<path d="M23.28 8.05326H27.4134L21.28 1.91992V6.05326C21.28 7.15992 22.1734 8.05326 23.28 8.05326Z" fill="#222343"/>
</svg>
