<svg width="32" height="32" viewBox="0 0 32 32" fill="none" xmlns="http://www.w3.org/2000/svg">
<path d="M18.6666 17.3334V25.3334C18.6666 25.7067 18.5399 26.0267 18.2866 26.28C18.0266 26.54 17.7133 26.6667 17.3333 26.6667H14.6666C14.2866 26.6667 13.9733 26.54 13.7133 26.28C13.4599 26.0267 13.3333 25.7067 13.3333 25.3334V17.3334H18.6666Z" fill="#222343"/>
<path d="M26.6334 7.16671L18.6667 17.3334H13.3333L5.36668 7.16671C5.05335 6.78671 5.01335 6.38671 5.23335 5.96671C5.45335 5.54004 5.80001 5.33337 6.26668 5.33337H25.7333C26.2 5.33337 26.5467 5.54004 26.7667 5.96671C26.9867 6.38671 26.9467 6.78671 26.6334 7.16671Z" fill="#25CBDB"/>
</svg>
