<svg width="32" height="32" viewBox="0 0 32 32" fill="none" xmlns="http://www.w3.org/2000/svg">
<path opacity="0.52" d="M4 13H28V27.3333C28 28.44 27.1067 29.3333 26 29.3333H6C4.89333 29.3333 4 28.44 4 27.3333V13Z" fill="#25CBDB"/>
<path d="M6 4.66675H26C27.1067 4.66675 28 5.56008 28 6.66675V13.0001H4V6.66675C4 5.56008 4.89333 4.66675 6 4.66675Z" fill="#222343"/>
<path d="M21.3667 31.4667L18.0333 28.1334C17.8333 27.9334 17.7333 27.7001 17.7333 27.4334C17.7333 27.1667 17.8333 26.9334 18.0333 26.7334C18.2333 26.5334 18.4667 26.4334 18.7333 26.4334C19 26.4334 19.2333 26.5334 19.4333 26.7334L22.0333 29.3334L27.4667 23.9001C27.6467 23.7201 27.8733 23.6334 28.1533 23.6334C28.4333 23.6334 28.6733 23.7334 28.8733 23.9334C29.0733 24.1334 29.1733 24.3667 29.1733 24.6334C29.1733 24.9001 29.0733 25.1334 28.8733 25.3334L22.7733 31.4667C22.5933 31.6667 22.3667 31.7667 22.0867 31.7667C21.8067 31.7667 21.5733 31.6667 21.3667 31.4667Z" fill="#222343"/>
<path d="M9.24667 20.0667L7.58 21.7334C7.38 21.9334 7.14667 22.0334 6.88 22.0334C6.61333 22.0334 6.38 21.9334 6.18 21.7334C5.98 21.5334 5.88 21.3001 5.88 21.0334C5.88 20.7667 5.98 20.5334 6.18 20.3334L7.84667 18.6667L6.18 17.0001C5.98 16.8001 5.88 16.5667 5.88 16.3001C5.88 16.0334 5.98 15.8001 6.18 15.6001C6.38 15.4001 6.61333 15.3001 6.88 15.3001C7.14667 15.3001 7.38 15.4001 7.58 15.6001L9.24667 17.2667L10.9133 15.6001C11.1133 15.4001 11.3467 15.3001 11.6133 15.3001C11.88 15.3001 12.1133 15.4001 12.3133 15.6001C12.5133 15.8001 12.6133 16.0334 12.6133 16.3001C12.6133 16.5667 12.5133 16.8001 12.3133 17.0001L10.6467 18.6667L12.3133 20.3334C12.5133 20.5334 12.6133 20.7667 12.6133 21.0334C12.6133 21.3001 12.5133 21.5334 12.3133 21.7334C12.1133 21.9334 11.88 22.0334 11.6133 22.0334C11.3467 22.0334 11.1133 21.9334 10.9133 21.7334L9.24667 20.0667Z" fill="#222343"/>
<g opacity="0.52">
<path d="M22.7534 2.66675H22.7467C22.1502 2.66675 21.6667 3.15028 21.6667 3.74675V5.57341C21.6667 6.16988 22.1502 6.65341 22.7467 6.65341H22.7534C23.3498 6.65341 23.8334 6.16988 23.8334 5.57341V3.74675C23.8334 3.15028 23.3498 2.66675 22.7534 2.66675Z" fill="#25CBDB"/>
<path d="M9.2467 2.66675H9.24003C8.64357 2.66675 8.16003 3.15028 8.16003 3.74675V5.57341C8.16003 6.16988 8.64357 6.65341 9.24003 6.65341H9.2467C9.84317 6.65341 10.3267 6.16988 10.3267 5.57341V3.74675C10.3267 3.15028 9.84317 2.66675 9.2467 2.66675Z" fill="#25CBDB"/>
</g>
</svg>
