<svg width="32" height="32" viewBox="0 0 32 32" fill="none" xmlns="http://www.w3.org/2000/svg">
<g clip-path="url(#clip0_4027_6553)">
<path d="M21.4492 19.0305L11.7026 17.0305L8.9159 11.5439C8.24256 10.2105 9.20923 8.63721 10.7026 8.63721H27.7226C30.2159 8.63721 31.3492 11.7572 29.4292 13.3572L23.1292 18.6105C22.6626 18.9972 22.0426 19.1572 21.4492 19.0305Z" fill="#25CBDB"/>
<path opacity="0.85" d="M19.5468 20.6266L16.7735 24.2466C16.2535 24.9266 15.4801 25.2999 14.6735 25.2999C14.3868 25.2999 14.0868 25.2532 13.8002 25.1532C12.7002 24.7799 11.9868 23.7866 11.9868 22.6266V19.0732L13.9868 19.4866V22.6266C13.9868 23.0599 14.3068 23.2132 14.4401 23.2599C14.5801 23.3066 14.9202 23.3732 15.1868 23.0332L17.3668 20.1799L19.5468 20.6266Z" fill="#222343"/>
<path fill-rule="evenodd" clip-rule="evenodd" d="M0.179991 8.11309C0.420068 7.61331 1.01311 7.40053 1.513 7.64043L8.15948 10.7938C8.35948 10.8871 8.52628 11.0469 8.62628 11.2469L11.5198 16.9402L11.9866 17.033L13.9866 17.4471L24.3929 19.5799C25.0458 18.2474 26.4118 17.3349 27.9905 17.3338C30.202 17.3358 31.9932 19.1278 31.9935 21.3397C31.9935 23.553 30.1333 25.3465 27.9866 25.3465C25.84 25.3464 24.0933 23.6598 23.9866 21.5398V21.5379L13.9866 19.4871L11.9866 19.0731L10.6468 18.7996C10.3535 18.7396 10.1003 18.5467 9.96026 18.2801L7.0003 12.4529L0.659483 9.44707C0.159647 9.21367 -0.0533068 8.61301 0.179991 8.11309ZM27.9935 19.3338C27.3935 19.3338 26.8535 19.6001 26.4935 20.0135L28.1937 20.3602C28.7335 20.4736 29.0872 20.9999 28.9739 21.5398C28.8806 22.0132 28.4601 22.3397 27.9935 22.3397C27.9268 22.3397 27.8599 22.3335 27.7933 22.3201L26.0931 21.9734C26.3531 22.7734 27.1068 23.3465 27.9935 23.3465C29.1001 23.3465 30.0003 22.4463 30.0003 21.3397C30.0001 20.2332 29.1 19.3338 27.9935 19.3338Z" fill="#222343"/>
</g>
<defs>
<clipPath id="clip0_4027_6553">
<rect width="32" height="32" fill="white"/>
</clipPath>
</defs>
</svg>
