<svg width="32" height="32" viewBox="0 0 32 32" fill="none" xmlns="http://www.w3.org/2000/svg">
<path opacity="0.52" d="M24.6667 2.66675H18C16.8934 2.66675 16 3.56008 16 4.66675V6.76675H11.4934C10.96 6.76675 10.4534 6.98008 10.08 7.35341L5.92004 11.5134C5.54671 11.8867 5.33337 12.4001 5.33337 12.9267V27.3401C5.33337 28.4467 6.22671 29.3401 7.33337 29.3401H24.6667C25.7734 29.3401 26.6667 28.4467 26.6667 27.3401V4.66675C26.6667 3.56008 25.7734 2.66675 24.6667 2.66675ZM24.4334 4.90008V5.04675C24.36 6.00675 23.5734 6.76008 22.5934 6.76008H18.24V4.90008H24.4334Z" fill="#25CBDB"/>
<path opacity="0.85" d="M7.15338 5.53589L4.32495 8.36432L6.6914 10.7308L9.51983 7.90234L7.15338 5.53589Z" fill="#25CBDB"/>
<path d="M6.73839 5.09498L3.89161 7.94276C3.50636 8.32814 3.50541 8.95181 3.88949 9.33576C4.27358 9.71971 4.89724 9.71854 5.28249 9.33316L8.12928 6.48538C8.51453 6.09999 8.51548 5.47633 8.13139 5.09238C7.74731 4.70843 7.12364 4.70959 6.73839 5.09498Z" fill="#222343"/>
<path d="M20 20.9334V15.7601L22.1067 13.6534C22.5 13.2601 22.5 12.6268 22.1067 12.2401C21.7133 11.8534 21.08 11.8468 20.6933 12.2401L18.5867 14.3468H13.4133L11.3067 12.2401C10.9133 11.8468 10.28 11.8468 9.89332 12.2401C9.50665 12.6334 9.49999 13.2668 9.89332 13.6534L12 15.7601V20.9334L9.89332 23.0401C9.49999 23.4334 9.49999 24.0668 9.89332 24.4534C10.0867 24.6468 10.3467 24.7468 10.6 24.7468C10.8533 24.7468 11.1133 24.6468 11.3067 24.4534L13.4133 22.3468H18.5867L20.6933 24.4534C20.8867 24.6468 21.1467 24.7468 21.4 24.7468C21.6533 24.7468 21.9133 24.6468 22.1067 24.4534C22.5 24.0601 22.5 23.4268 22.1067 23.0401L20 20.9334Z" fill="#222343"/>
</svg>
