<svg width="32" height="32" viewBox="0 0 32 32" fill="none" xmlns="http://www.w3.org/2000/svg">
<path opacity="0.85" d="M15.1334 18.5333L21.2001 12.4667L13.8001 5L7.66675 11.1333L15.1334 18.5333Z" fill="#25CBDB"/>
<path d="M6.33333 25.9999H20.3333C20.62 25.9999 20.86 26.0933 21.0533 26.2866C21.2467 26.4799 21.34 26.7132 21.34 27.0066C21.34 27.2999 21.2467 27.5333 21.0533 27.7266C20.8667 27.9132 20.6267 28.0133 20.3333 28.0133H6.33333C6.04666 28.0133 5.80666 27.9199 5.61333 27.7266C5.42666 27.5399 5.32666 27.2999 5.32666 27.0066C5.32666 26.7132 5.41999 26.4799 5.61333 26.2866C5.80666 26.0933 6.03999 25.9999 6.33333 25.9999ZM11.3333 19.5332L6.73333 14.9332C6.35333 14.5532 6.15999 14.0932 6.14666 13.5466C6.13333 12.9999 6.31999 12.5266 6.69999 12.1266L7.66666 11.1266L15.1333 18.5266L14.1333 19.5266C13.7533 19.9066 13.2867 20.0932 12.7333 20.0932C12.18 20.0932 11.7133 19.9066 11.3333 19.5266V19.5332ZM21.2 12.4666L13.8 4.99992L14.8 4.03325C15.2 3.65325 15.6733 3.47325 16.22 3.47991C16.7667 3.49325 17.2267 3.68658 17.6067 4.06658L22.2067 8.66658C22.5867 9.04658 22.7733 9.51325 22.7733 10.0666C22.7733 10.6199 22.5867 11.0866 22.2067 11.4666L21.2067 12.4666H21.2ZM27.2333 25.9666L10.0333 8.76658L11.4333 7.36658L28.6333 24.5666C28.8333 24.7666 28.9333 24.9999 28.9333 25.2666C28.9333 25.5333 28.8333 25.7666 28.6333 25.9666C28.4333 26.1666 28.2 26.2666 27.9333 26.2666C27.6667 26.2666 27.4333 26.1666 27.2333 25.9666Z" fill="#222343"/>
</svg>
