<svg width="32" height="32" viewBox="0 0 32 32" fill="none" xmlns="http://www.w3.org/2000/svg">
<path fill-rule="evenodd" clip-rule="evenodd" d="M18.4133 22.0335C18.8999 22.4535 19.3199 23.2535 19.3199 24.5201C19.3199 26.3268 19.2933 27.7735 19.2933 28.2201C19.2933 28.5535 19.5066 28.9468 20.0799 28.8868C18.7866 29.3001 17.4066 29.5201 15.9799 29.5201C14.5533 29.5201 13.1133 29.2868 11.7933 28.8601C12.4466 29.0001 12.6933 28.5735 12.6933 28.2201C12.6933 27.9068 12.6666 26.8401 12.6666 25.7268C8.95325 26.5268 8.18659 24.1201 8.18659 24.1201C7.58659 22.5668 6.69992 22.1668 6.69992 22.1668C5.48659 21.3401 6.79325 21.3401 6.79325 21.3401C8.13992 21.4268 8.84659 22.7201 8.84659 22.7201C10.0399 24.7668 11.9599 24.1868 12.7333 23.8335C12.8466 22.9668 13.1999 22.3668 13.5733 22.0335C10.6133 21.7201 7.49992 20.5601 7.49992 15.4001C7.49992 13.9268 8.02659 12.7268 8.86659 11.7935C8.73325 11.4601 8.27325 10.0801 8.99992 8.23348C8.99992 8.23348 10.1266 7.87348 12.6666 9.61348C13.7533 9.31348 14.8799 9.16681 16.0066 9.16681C17.1333 9.16681 18.2799 9.32014 19.3399 9.61348C21.8799 7.87348 23.0066 8.23348 23.0066 8.23348C23.7399 10.0801 23.2733 11.4601 23.1399 11.7935C23.9999 12.7268 24.5133 13.9268 24.5133 15.4001C24.5133 20.5601 21.3933 21.6935 18.4133 22.0335Z" fill="#222343"/>
<path opacity="0.52" fill-rule="evenodd" clip-rule="evenodd" d="M29.3266 16.1132C29.3266 21.4798 26.2066 26.1065 21.6866 28.2665C21.5199 28.3465 21.3466 28.4198 21.1799 28.4932C20.9999 28.5665 20.8132 28.6332 20.6266 28.7065C20.4866 28.7665 20.3466 28.8198 20.1999 28.8665C20.1599 28.8798 20.1199 28.8798 20.0799 28.8865C19.5066 28.9465 19.2932 28.5532 19.2932 28.2198C19.2932 27.7732 19.3199 26.3265 19.3199 24.5198C19.3199 23.2532 18.8999 22.4532 18.4132 22.0332C21.3932 21.6932 24.5132 20.5598 24.5132 15.3998C24.5132 13.9265 23.9999 12.7265 23.1399 11.7932C23.2732 11.4598 23.7399 10.0798 23.0066 8.23317C23.0066 8.23317 21.8799 7.87317 19.3399 9.61317C18.2799 9.31984 17.1332 9.1665 16.0066 9.1665C14.8799 9.1665 13.7532 9.31317 12.6666 9.61317C10.1266 7.87317 8.99991 8.23317 8.99991 8.23317C8.27325 10.0798 8.73325 11.4598 8.86658 11.7932C8.02658 12.7265 7.49991 13.9265 7.49991 15.3998C7.49991 20.5598 10.6132 21.7198 13.5732 22.0332C13.1999 22.3665 12.8466 22.9665 12.7332 23.8332C11.9599 24.1865 10.0399 24.7665 8.84658 22.7198C8.84658 22.7198 8.13991 21.4265 6.79325 21.3398C6.79325 21.3398 5.48658 21.3398 6.69991 22.1665C6.69991 22.1665 7.58658 22.5665 8.18658 24.1198C8.18658 24.1198 8.95325 26.5265 12.6666 25.7265C12.6666 26.8398 12.6932 27.9065 12.6932 28.2198C12.6932 28.5732 12.4466 28.9998 11.7932 28.8598H11.7866C11.7866 28.8598 11.7399 28.8465 11.7132 28.8332C6.44658 27.0332 2.65991 22.0265 2.65991 16.1132C2.65991 9.3865 7.53325 3.83317 13.9199 2.8265C14.1599 2.79317 14.3999 2.75984 14.6399 2.73317C15.0932 2.69317 15.5466 2.6665 16.0066 2.6665C16.9266 2.6665 17.8199 2.75984 18.6866 2.93984C18.9132 2.9865 19.1332 3.03984 19.3599 3.09317C25.0932 4.59317 29.3466 9.8465 29.3266 16.1132Z" fill="#25CBDB"/>
</svg>
