<svg width="32" height="32" viewBox="0 0 32 32" fill="none" xmlns="http://www.w3.org/2000/svg">
<g clip-path="url(#clip0_4070_396)">
<path d="M8.66666 20.1333C8.07333 19.7866 7.34666 19.5666 6.51333 19.4466C6.51333 19.4466 6.51333 19.44 6.51333 19.4333C6.41333 19.4133 6.31333 19.4133 6.21333 19.4C6.15333 19.3933 6.09333 19.3866 6.03333 19.38C5.94 19.3733 5.85333 19.3533 5.76666 19.3533C5.54666 19.3466 5.32666 19.34 5.1 19.34C5.08 19.34 5.06666 19.34 5.04666 19.34C5.03333 19.34 5.02666 19.34 5.01333 19.34C5 19.34 4.99333 19.34 4.98 19.34C4.96 19.34 4.94666 19.34 4.92666 19.34C4.7 19.34 4.47333 19.34 4.26 19.3533C4.16666 19.3533 4.08 19.3733 3.99333 19.38C3.93333 19.38 3.87333 19.3933 3.81333 19.4C3.71333 19.4133 3.60666 19.4133 3.51333 19.4333C3.51333 19.4333 3.51333 19.44 3.51333 19.4466C2.68 19.5666 1.96 19.7866 1.36 20.1333C0.446664 20.6666 -0.0133362 21.3666 -0.0133362 22.2333V23C-0.0133362 23.2866 0.0799972 23.5266 0.266664 23.7133C0.453331 23.9 0.693331 24 0.986664 24H9.04666C9.33333 24 9.57333 23.9066 9.76 23.7133C9.94666 23.5266 10.0467 23.2866 10.0467 23V22.2333C10.0467 21.3666 9.58666 20.6666 8.66 20.1333H8.66666Z" fill="#222343"/>
<path d="M4.98666 18.3333C4.34 18.3333 3.79333 18.1066 3.34 17.6533C2.88666 17.2 2.65333 16.6466 2.65333 16C2.65333 15.3533 2.88 14.8066 3.34 14.3466C3.79333 13.8933 4.34666 13.6666 4.98666 13.6666C5.62666 13.6666 6.18 13.8933 6.64 14.3466C7.09333 14.8 7.32 15.3533 7.32 16C7.32 16.6466 7.09333 17.1933 6.64 17.6533C6.18666 18.1066 5.63333 18.3333 4.98666 18.3333Z" fill="#222343"/>
<path d="M26.9867 18.3333C26.34 18.3333 25.7933 18.1067 25.34 17.6533C24.8867 17.2 24.6533 16.6467 24.6533 16C24.6533 15.3533 24.88 14.8067 25.34 14.3467C25.7933 13.8933 26.3467 13.6667 26.9867 13.6667C27.6267 13.6667 28.18 13.8933 28.6333 14.3467C29.0867 14.8 29.32 15.3533 29.32 16C29.32 16.6467 29.0933 17.1933 28.6333 17.6533C28.18 18.1067 27.6267 18.3333 26.9867 18.3333Z" fill="#222343"/>
<path d="M30.6333 20.1333C30.04 19.7867 29.3133 19.5667 28.48 19.4467C28.48 19.4467 28.48 19.44 28.48 19.4333C28.38 19.4133 28.28 19.4133 28.18 19.4C28.12 19.3933 28.06 19.3867 28 19.38C27.9067 19.3733 27.82 19.3533 27.7333 19.3533C27.5133 19.3467 27.2933 19.34 27.0667 19.34C27.0467 19.34 27.0333 19.34 27.0133 19.34C27 19.34 26.9933 19.34 26.98 19.34C26.9667 19.34 26.96 19.34 26.9467 19.34C26.9267 19.34 26.9133 19.34 26.8933 19.34C26.6667 19.34 26.44 19.34 26.2267 19.3533C26.1333 19.3533 26.0467 19.3733 25.96 19.38C25.9 19.38 25.84 19.3933 25.78 19.4C25.68 19.4133 25.5733 19.4133 25.48 19.4333C25.48 19.4333 25.48 19.44 25.48 19.4467C24.6467 19.5667 23.9267 19.7867 23.3267 20.1333C22.4067 20.6667 21.94 21.3667 21.94 22.2333V23C21.94 23.2867 22.0333 23.5267 22.22 23.7133C22.4067 23.9 22.6467 24 22.94 24H31C31.2867 24 31.5267 23.9067 31.7133 23.7133C31.9 23.5267 32 23.2867 32 23V22.2333C32 21.3667 31.54 20.6667 30.6133 20.1333H30.6333Z" fill="#222343"/>
<g opacity="0.85">
<path d="M8.98666 24C8.7 24 8.46 23.9067 8.27333 23.72C8.08666 23.5333 7.98666 23.2933 7.98666 23V21.8667C7.98666 20.42 8.72666 19.2533 10.2 18.3533C11.68 17.4533 13.6067 17.0067 15.9867 17.0067C18.3667 17.0067 20.32 17.46 21.7867 18.3533C23.2533 19.2533 23.9867 20.4267 23.9867 21.8667V23C23.9867 23.2867 23.8933 23.5267 23.7067 23.72C23.52 23.9133 23.28 24 22.9867 24H8.98666Z" fill="#25CBDB"/>
<path d="M15.9867 16C14.8733 16 13.9333 15.6133 13.1533 14.8333C12.3733 14.0533 11.9867 13.1133 11.9867 12C11.9867 10.8867 12.3733 9.94667 13.1533 9.16667C13.9333 8.38667 14.8733 8 15.9867 8C17.1 8 18.04 8.38667 18.82 9.16667C19.6 9.94667 19.9867 10.8867 19.9867 12C19.9867 13.1133 19.6 14.0533 18.82 14.8333C18.04 15.6133 17.1 16 15.9867 16Z" fill="#25CBDB"/>
</g>
</g>
<defs>
<clipPath id="clip0_4070_396">
<rect width="32" height="32" fill="white"/>
</clipPath>
</defs>
</svg>
