<svg width="32" height="32" viewBox="0 0 32 32" fill="none" xmlns="http://www.w3.org/2000/svg">
<path d="M11.0267 6.04663H20.98V14.6666C20.98 15.4 20.38 16 19.6467 16H12.36C11.6267 16 11.0267 15.4 11.0267 14.6666V6.04663Z" fill="#222343"/>
<path d="M13.3733 27.2867C13.3733 27.2867 13.6667 25.5867 15.4533 25.5867H20.7467C20.7467 25.5867 24.6267 25.6334 27.1533 22.16C28.6267 20.1334 28.94 19.6267 28.94 19.6267L29.4733 18.82C30.2333 17.68 29.9267 16.14 28.7867 15.3733C27.7267 14.66 26.3 14.8534 25.4733 15.8334L23.3667 18.54C22.3867 19.8 20.78 20.4067 19.2067 20.1C15.3867 19.36 8.41332 18.3533 6.43999 20.26C4.71999 21.92 4.31332 24.1 4.31332 24.1C4.31332 24.1 12.1733 26.74 13.36 27.2867H13.3733Z" fill="#222343"/>
<path d="M18.6667 8.20667H13.3333V10.2067H18.6667V8.20667Z" fill="#25CBDB"/>
<path d="M3.67999 23.8733L1.89333 29.6066H13.4467L14.04 27.52L3.67999 23.8733Z" fill="#25CBDB"/>
<g opacity="0.52">
<path d="M10.8 2.73328H21.2C21.5667 2.73328 21.8667 3.03328 21.8667 3.39994V6.04661H10.1333V3.39994C10.1333 3.03328 10.4333 2.73328 10.8 2.73328Z" fill="#25CBDB"/>
<path d="M11.8133 18.1333C10.5733 18.1333 9.33999 18.3933 8.23999 18.9666C4.89999 20.7 4.32666 24.1 4.32666 24.1C4.32666 24.1 8.33333 25.5133 13.3733 27.2866C14.38 23.7533 18.2 23.14 20.04 23.0533H21.0467C22.4267 23.0533 23.5467 21.9133 23.5067 20.52C23.4667 19.1266 22.2933 18.1333 20.9467 18.1333H11.8133Z" fill="#25CBDB"/>
</g>
</svg>
