<svg width="32" height="32" viewBox="0 0 32 32" fill="none" xmlns="http://www.w3.org/2000/svg">
<path d="M8.77334 8.05317L7.3 7.31984C6.96 7.14651 6.54 7.29984 6.38667 7.65317L2.91334 15.7598C2.77334 16.0865 2.91334 16.4598 3.22667 16.6198L4.7 17.3532C5.04 17.5265 5.46 17.3732 5.61334 17.0198L5.84667 16.4732L9.08667 8.91317C9.08667 8.91317 9.09334 8.85984 9.1 8.83984C9.19334 8.53317 9.06 8.19984 8.76667 8.05317H8.77334Z" fill="#222343"/>
<path fill-rule="evenodd" clip-rule="evenodd" d="M25.5333 17.2267L26.1533 16.4667H26.1467L22.88 8.83332L21.7267 9.37998H20.3667L17.7067 8.25332H17.7C17.44 8.13332 17.1533 8.06665 16.86 8.06665C16.3267 8.07332 15.8267 8.28665 15.4533 8.66665L10.9867 13.2C10.3131 13.8851 10.2363 14.9343 10.7474 15.7046L7.84001 18.3999L7.88621 18.4528L7.83667 18.4032L7.84001 18.3999L7.83334 18.3999L7.83667 18.4032L6.90667 19.3332C6.12667 20.1132 6.12667 21.3799 6.90667 22.1599C7.28667 22.5399 7.78667 22.7466 8.32 22.7466C8.56 22.7466 8.78667 22.6999 9.00667 22.6199C9.1 22.9066 9.25334 23.1732 9.48 23.3999C9.86 23.7799 10.36 23.9866 10.8933 23.9866C11.2467 23.9866 11.58 23.8866 11.8733 23.7266C11.9733 23.9666 12.1133 24.1866 12.3 24.3732C12.68 24.7532 13.18 24.9599 13.7133 24.9599C13.9666 24.9599 14.2066 24.9066 14.4399 24.8199L24.8866 18.3866L25.5333 17.2267Z" fill="#222343"/>
<g opacity="0.52">
<path d="M25.42 18.9199L24.88 18.3866L18.1 11.7199C18.1 11.7199 17.0667 12.7333 17.06 12.7266L13.8333 15.9999C13.4533 16.3866 12.9467 16.5999 12.4067 16.5999C11.8667 16.5999 11.38 16.3933 11.0067 16.0266C10.22 15.2533 10.2067 13.9866 10.98 13.1999L14.74 9.37992L10.5333 9.35325L9.09335 8.83325C9.09335 8.83325 9.09334 8.88659 9.08001 8.90659L5.84001 16.4666L7.06668 17.2266L7.61334 18.1599C7.64001 18.2066 7.67334 18.2533 7.71334 18.2933L13.8333 24.4132C14.0067 24.5866 14.2067 24.7199 14.4267 24.8199C14.68 24.9333 14.96 24.9999 15.2467 24.9999C15.78 24.9999 16.2867 24.7933 16.66 24.4132C16.7533 24.3199 16.8333 24.2133 16.9067 24.1066C16.9133 24.0933 16.92 24.0799 16.9333 24.0599C16.98 23.9866 17.02 23.9132 17.0533 23.8399L17.1733 23.9599C17.5533 24.3399 18.0533 24.5466 18.5867 24.5466C19.12 24.5466 19.6267 24.3399 20 23.9599C20.1933 23.7666 20.3333 23.5466 20.4333 23.3133C20.5733 23.3933 20.7267 23.4533 20.88 23.4933C20.8933 23.4933 20.9 23.4999 20.9133 23.4999C21.0733 23.5399 21.2333 23.5666 21.4 23.5666C21.9333 23.5666 22.44 23.3599 22.8133 22.9799C22.8733 22.9199 22.9133 22.8533 22.9667 22.7866C23 22.7399 23.04 22.6999 23.0733 22.6466C23.1067 22.5933 23.1333 22.5399 23.16 22.4799C23.2 22.3999 23.24 22.3266 23.2667 22.2399C23.2667 22.2266 23.28 22.2133 23.2867 22.1933C23.3933 22.2333 23.5067 22.2666 23.62 22.2866C23.7 22.2999 23.78 22.3066 23.86 22.3133C23.8933 22.3133 23.9267 22.3266 23.96 22.3266C24.4933 22.3266 25 22.1199 25.3733 21.7399C25.7533 21.3599 25.96 20.8599 25.96 20.3266C25.96 19.7933 25.7533 19.2933 25.3733 18.9133L25.42 18.9199Z" fill="#25CBDB"/>
<path d="M24.7 7.31325L23.2267 8.04658C22.9133 8.20658 22.7733 8.57991 22.9133 8.90658L26.3867 17.0132C26.54 17.3666 26.9533 17.5199 27.3 17.3466L28.7733 16.6132C29.0867 16.4532 29.2267 16.0799 29.0867 15.7532L25.6133 7.64658C25.46 7.29325 25.0467 7.13991 24.7 7.31325Z" fill="#25CBDB"/>
</g>
</svg>
