<svg width="32" height="32" viewBox="0 0 32 32" fill="none" xmlns="http://www.w3.org/2000/svg">
<path d="M13.3733 27.2867C13.3733 27.2867 13.6667 25.5867 15.4533 25.5867H20.7467C20.7467 25.5867 24.6267 25.6334 27.1533 22.16C28.6267 20.1334 28.94 19.6267 28.94 19.6267L29.4733 18.82C30.2333 17.68 29.9267 16.14 28.7867 15.3733C27.7267 14.66 26.3 14.8533 25.4733 15.8333L23.3667 18.54C22.3867 19.8 20.78 20.4067 19.2067 20.1C15.3867 19.36 8.41332 18.3533 6.43999 20.26C4.71999 21.92 4.31332 24.1 4.31332 24.1C4.31332 24.1 12.1733 26.74 13.36 27.2867H13.3733Z" fill="#222343"/>
<path opacity="0.52" d="M20.94 18.1333H11.8133C10.5733 18.1333 9.33999 18.3933 8.23999 18.9666C4.89999 20.7 4.32666 24.1 4.32666 24.1C4.32666 24.1 8.33333 25.5133 13.3733 27.2866C14.38 23.7533 18.2 23.14 20.04 23.0533H21.0467C22.4267 23.0533 23.5467 21.9133 23.5067 20.52C23.4667 19.1266 22.2933 18.1333 20.9467 18.1333H20.94Z" fill="#25CBDB"/>
<path d="M3.67999 23.8733L1.89333 29.6066H13.4467L14.04 27.52L3.67999 23.8733Z" fill="#25CBDB"/>
<path d="M18.8867 15.94C22.5133 15.94 25.4533 13 25.4533 9.37331C25.4533 5.74664 22.5133 2.80664 18.8867 2.80664C15.26 2.80664 12.32 5.74664 12.32 9.37331C12.32 13 15.26 15.94 18.8867 15.94Z" fill="#25CBDB"/>
<g opacity="0.52">
<path d="M18.8867 4.13997C21.7733 4.13997 24.12 6.48664 24.12 9.37331C24.12 12.26 21.7733 14.6066 18.8867 14.6066C16 14.6066 13.6533 12.26 13.6533 9.37331C13.6533 6.48664 16 4.13997 18.8867 4.13997ZM18.8867 2.80664C15.26 2.80664 12.32 5.74664 12.32 9.37331C12.32 13 15.26 15.94 18.8867 15.94C22.5133 15.94 25.4533 13 25.4533 9.37331C25.4533 5.74664 22.5133 2.80664 18.8867 2.80664Z" fill="#222343"/>
<path d="M20.7133 11.6133C20.42 11.9199 20.02 12.1199 19.52 12.2133V12.6066C19.52 12.7733 19.4667 12.9066 19.3667 13.0066C19.2667 13.1066 19.1267 13.1599 18.96 13.1599C18.7933 13.1599 18.66 13.1066 18.5533 13.0066C18.4467 12.9066 18.4 12.7733 18.4 12.6066V12.2466C17.8067 12.1733 17.3 11.9999 16.88 11.7266C16.7867 11.6666 16.7133 11.5999 16.6733 11.5266C16.6333 11.4533 16.6133 11.3533 16.6133 11.2333C16.6133 11.0733 16.66 10.9333 16.7533 10.8199C16.8467 10.7066 16.96 10.6466 17.0867 10.6466C17.1533 10.6466 17.2133 10.6599 17.28 10.6799C17.3467 10.6999 17.4267 10.7399 17.5267 10.7999C17.76 10.9266 17.98 11.0199 18.18 11.0733C18.38 11.1266 18.6 11.1533 18.8267 11.1533C19.1067 11.1533 19.3267 11.1066 19.4733 11.0133C19.62 10.9199 19.6933 10.7799 19.6933 10.5933C19.6933 10.4799 19.6467 10.3866 19.56 10.3199C19.4733 10.2466 19.36 10.1933 19.2333 10.1466C19.1 10.1066 18.9133 10.0533 18.66 9.98661C18.26 9.88661 17.9333 9.77995 17.6733 9.67995C17.4133 9.57995 17.1933 9.41328 17.0067 9.19328C16.82 8.97328 16.7267 8.67328 16.7267 8.29995C16.7267 7.87328 16.8733 7.49995 17.1733 7.18661C17.4733 6.87328 17.8667 6.66661 18.36 6.55995V6.15995C18.36 5.99995 18.4133 5.86661 18.52 5.76661C18.6267 5.65995 18.76 5.61328 18.92 5.61328C19.08 5.61328 19.22 5.66661 19.3267 5.76661C19.4333 5.86661 19.48 5.99995 19.48 6.16661V6.53995C19.92 6.60661 20.3533 6.77995 20.7733 7.04661C20.8667 7.11328 20.94 7.17995 20.98 7.25995C21.02 7.33995 21.04 7.43328 21.04 7.54661C21.04 7.70661 20.9933 7.84661 20.8933 7.95995C20.8 8.07995 20.6867 8.13328 20.56 8.13328C20.4933 8.13328 20.4333 8.11995 20.3733 8.09995C20.3133 8.07995 20.2267 8.03995 20.12 7.97995C20.08 7.95995 20 7.91328 19.8733 7.84661C19.7467 7.77995 19.6067 7.72661 19.46 7.68661C19.3133 7.64661 19.16 7.62661 18.9933 7.62661C18.7533 7.62661 18.56 7.67995 18.4067 7.77995C18.26 7.88661 18.18 8.02661 18.18 8.19995C18.18 8.37328 18.2667 8.49995 18.4333 8.58661C18.6 8.67328 18.8733 8.75995 19.24 8.83995C19.6333 8.93328 19.96 9.02661 20.2133 9.12661C20.4667 9.22661 20.6867 9.39328 20.8667 9.61328C21.0533 9.83995 21.14 10.1399 21.14 10.5199C21.14 10.9533 20.9933 11.3199 20.6933 11.6266L20.7133 11.6133Z" fill="#222343"/>
</g>
</svg>
