<svg width="32" height="32" viewBox="0 0 32 32" fill="none" xmlns="http://www.w3.org/2000/svg">
<path opacity="0.52" d="M25.3667 6.13336C26.1467 6.42669 26.6667 7.17336 26.6667 8.00669V14.7267C26.6667 21.32 22.5 26.94 16.66 29.1067C16.24 29.2667 15.7667 29.2667 15.34 29.1067C9.50004 26.94 5.33337 21.32 5.33337 14.7267V8.00669C5.33337 7.17336 5.85337 6.42669 6.63337 6.13336L8.46004 5.45336L15.3 2.90002C15.7534 2.73336 16.2467 2.73336 16.7 2.90002L23.54 5.45336L25.3667 6.13336Z" fill="#25CBDB"/>
<path d="M22.84 7.32665L16 4.77332L9.16004 7.32665L7.33337 8.00665V14.7266C7.33337 20.2666 10.8134 25.28 16 27.22C21.1867 25.2867 24.6667 20.2666 24.6667 14.7266V8.00665L22.84 7.32665ZM20.6667 15.9C20.6667 16.1 20.5934 16.28 20.4467 16.4333C20.3 16.5866 20.1334 16.6666 19.9334 16.6666H17.3334V19.2333C17.3334 19.4333 17.26 19.6133 17.1134 19.7666C16.9667 19.92 16.8 20 16.6 20H15.4334C15.2334 20 15.0534 19.92 14.9 19.7666C14.7467 19.6133 14.6667 19.4333 14.6667 19.2333V16.6666H12.1C11.9 16.6666 11.72 16.5866 11.5667 16.4333C11.4134 16.28 11.3334 16.1 11.3334 15.9V14.7333C11.3334 14.5333 11.4134 14.36 11.5667 14.22C11.72 14.0733 11.9 14 12.1 14H14.6667V11.4C14.6667 11.2 14.7467 11.0266 14.9 10.8866C15.0534 10.74 15.2334 10.6666 15.4334 10.6666H16.6C16.8 10.6666 16.9734 10.74 17.1134 10.8866C17.26 11.0333 17.3334 11.2 17.3334 11.4V14H19.9334C20.1334 14 20.3067 14.0733 20.4467 14.22C20.5934 14.3666 20.6667 14.5333 20.6667 14.7333V15.9Z" fill="#222343"/>
</svg>
