<svg width="32" height="32" viewBox="0 0 32 32" fill="none" xmlns="http://www.w3.org/2000/svg">
<path opacity="0.52" d="M18.5334 2.66663H7.33337C6.22671 2.66663 5.33337 3.55996 5.33337 4.66663V27.3333C5.33337 28.44 6.22671 29.3333 7.33337 29.3333H24.6667C25.7734 29.3333 26.6667 28.44 26.6667 27.3333V10.8C26.6667 10.2666 26.4534 9.75996 26.08 9.38663L19.9467 3.25329C19.5734 2.87996 19.06 2.66663 18.5334 2.66663Z" fill="#25CBDB"/>
<path opacity="0.52" d="M19.9467 3.2533V8.79996C19.9467 9.90663 20.84 10.8 21.9467 10.8H26.6667C26.6667 10.2666 26.4533 9.75996 26.08 9.38663L19.9467 3.2533Z" fill="#25CBDB"/>
<path d="M21.9467 9.38663H26.08L19.9467 3.2533V7.38663C19.9467 8.4933 20.84 9.38663 21.9467 9.38663Z" fill="#222343"/>
<path d="M19.3333 24.3333C19.8 24.3333 20.1933 24.1666 20.5133 23.8333C20.8333 23.5 21 23.1133 21 22.6666C21 22.2 20.84 21.8066 20.5133 21.48C20.1933 21.16 19.7933 21 19.3333 21C18.8733 21 18.5 21.16 18.1667 21.48C17.8333 21.8 17.6667 22.2 17.6667 22.6666C17.6667 23.1333 17.8333 23.5 18.1667 23.8333C18.5 24.1666 18.8867 24.3333 19.3333 24.3333ZM11.9 23.4333C12.1 23.6333 12.3333 23.7333 12.6 23.7333C12.8667 23.7333 13.1 23.6333 13.3 23.4333L20.1 16.6333C20.3 16.4333 20.4 16.2 20.4 15.9333C20.4 15.6666 20.3 15.4333 20.1 15.2333C19.9 15.0333 19.6667 14.9333 19.4 14.9333C19.1333 14.9333 18.9 15.0333 18.7 15.2333L11.9 22.0333C11.7 22.2333 11.6 22.4666 11.6 22.7333C11.6 23 11.7 23.2333 11.9 23.4333ZM12.6667 17.6666C13.1333 17.6666 13.5267 17.5 13.8467 17.1666C14.1667 16.8333 14.3333 16.4466 14.3333 16C14.3333 15.5333 14.1733 15.14 13.8467 14.82C13.52 14.5 13.1267 14.3333 12.6667 14.3333C12.2067 14.3333 11.8333 14.4933 11.5 14.82C11.1667 15.1466 11 15.54 11 16C11 16.46 11.1667 16.8333 11.5 17.1666C11.8333 17.5 12.22 17.6666 12.6667 17.6666Z" fill="#222343"/>
</svg>
