<svg width="32" height="32" viewBox="0 0 32 32" fill="none" xmlns="http://www.w3.org/2000/svg">
<path opacity="0.52" d="M16 4.66675C12.82 4.66675 10.14 5.78008 7.94663 8.00008C5.75996 10.2201 4.66663 12.8867 4.66663 16.0001C4.66663 19.1134 5.75996 21.7801 7.94663 24.0001C10.1333 26.2201 12.82 27.3334 16 27.3334C19.18 27.3334 21.8066 26.2201 24.02 24.0001C26.2333 21.7801 27.3333 19.1134 27.3333 16.0001C27.3333 12.8867 26.2266 10.2201 24.02 8.00008C21.8066 5.78008 19.1333 4.66675 16 4.66675Z" fill="#25CBDB"/>
<path fill-rule="evenodd" clip-rule="evenodd" d="M16 29.3334C14.1333 29.3334 12.3866 28.9934 10.7666 28.3134C9.14663 27.6334 7.73329 26.7001 6.53329 25.5001C5.33329 24.3001 4.38663 22.8867 3.69996 21.2667C3.01329 19.6467 2.66663 17.8867 2.66663 16.0001C2.66663 14.1134 3.01329 12.3867 3.69996 10.7667C4.38663 9.14675 5.33329 7.73341 6.53329 6.53341C7.73329 5.33341 9.14663 4.38675 10.7666 3.70008C12.3866 3.01341 14.1333 2.66675 16 2.66675C17.8666 2.66675 19.58 3.01341 21.2 3.70008C22.82 4.38675 24.2333 5.33341 25.4333 6.53341C26.6333 7.73341 27.5866 9.14675 28.2866 10.7667C28.9866 12.3867 29.34 14.1334 29.34 16.0001C29.34 17.8667 28.9933 19.6467 28.2866 21.2667C27.5866 22.8867 26.6333 24.3001 25.4333 25.5001C24.2333 26.7001 22.82 27.6401 21.2 28.3134C19.58 28.9934 17.8466 29.3334 16 29.3334ZM16 27.3334C19.1333 27.3334 21.8066 26.2201 24.02 24.0001C26.2333 21.7801 27.3333 19.1134 27.3333 16.0001C27.3333 12.8867 26.2266 10.2201 24.02 8.00008C21.8066 5.78008 19.1333 4.66675 16 4.66675C12.8666 4.66675 10.14 5.78008 7.95329 8.00008C5.76663 10.2201 4.66663 12.8867 4.66663 16.0001C4.66663 19.1134 5.75996 21.7801 7.95329 24.0001C10.14 26.2201 12.8266 27.3334 16 27.3334Z" fill="#222343"/>
<path d="M16.1333 23.7667C16.4866 23.7667 16.7866 23.6467 17.0333 23.4001C17.28 23.1534 17.4 22.8534 17.4 22.5001C17.4 22.1467 17.28 21.8467 17.0333 21.6001C16.7866 21.3534 16.4866 21.2334 16.1333 21.2334C15.78 21.2334 15.48 21.3534 15.2333 21.6001C14.9866 21.8467 14.8666 22.1467 14.8666 22.5001C14.8666 22.8534 14.9866 23.1534 15.2333 23.4001C15.48 23.6467 15.78 23.7667 16.1333 23.7667Z" fill="#222343"/>
<path d="M16.1 10C16.8533 10 17.4666 10.2067 17.9333 10.62C18.4 11.0334 18.6333 11.56 18.6333 12.2C18.6333 12.6467 18.5 13.0867 18.2333 13.52C17.9666 13.9534 17.5333 14.4267 16.9333 14.9334C16.3533 15.4467 15.8933 15.98 15.5466 16.5467C15.2 17.1134 15.0333 17.6267 15.0333 18.1C15.0333 18.3467 15.1266 18.54 15.3133 18.6867C15.5 18.8334 15.72 18.9067 15.9666 18.9067C16.2333 18.9067 16.4533 18.82 16.6333 18.64C16.8133 18.46 16.92 18.24 16.9666 17.9734C17.0333 17.5267 17.18 17.1334 17.4133 16.7934C17.6466 16.4534 18.0066 16.0734 18.4933 15.68C19.16 15.1267 19.6466 14.5667 19.94 14.0134C20.24 13.46 20.3933 12.8334 20.3866 12.1467C20.3866 10.9667 20 10.0267 19.2333 9.31337C18.4666 8.60004 17.4533 8.2467 16.1866 8.2467C15.34 8.2467 14.5666 8.41337 13.8533 8.7467C13.14 9.08004 12.5533 9.5667 12.0866 10.2134C11.9066 10.46 11.8333 10.7067 11.8666 10.9667C11.9 11.2267 12.0066 11.42 12.1866 11.5534C12.4333 11.7334 12.6933 11.7867 12.9666 11.72C13.24 11.6534 13.4733 11.5 13.6466 11.2534C13.9333 10.8534 14.2866 10.5467 14.7 10.3334C15.1133 10.12 15.5733 10.0134 16.0866 10.0134L16.1 10Z" fill="#222343"/>
</svg>
