<svg width="32" height="32" viewBox="0 0 32 32" fill="none" xmlns="http://www.w3.org/2000/svg">
<path opacity="0.85" d="M5.92004 27.4133C6.30671 27.8067 6.78004 28 7.33337 28H24.6667C25.2267 28 25.7 27.8 26.0867 27.4133C26.48 27.0267 26.6734 26.5533 26.6734 26V13C26.6734 12.6867 26.6 12.3867 26.4534 12.1C26.3067 11.8133 26.1134 11.58 25.8667 11.4L17.2 4.9C17.02 4.76667 16.8334 4.66667 16.6334 4.6C16.4334 4.53333 16.22 4.5 16 4.5C15.78 4.5 15.5667 4.53333 15.3667 4.6C15.1667 4.66667 14.98 4.76667 14.8 4.9L6.13337 11.4C5.88671 11.58 5.69337 11.8133 5.54671 12.1C5.40671 12.3867 5.33337 12.6867 5.33337 13V26C5.33337 26.5533 5.53337 27.02 5.92004 27.4133Z" fill="#25CBDB"/>
<path d="M18.6667 18.6665H13.3334V27.9998H18.6667V18.6665Z" fill="#222343"/>
</svg>
