<svg width="32" height="32" viewBox="0 0 32 32" fill="none" xmlns="http://www.w3.org/2000/svg">
<path d="M25.6667 2.66669H6.33337C5.78109 2.66669 5.33337 3.1144 5.33337 3.66669C5.33337 4.21897 5.78109 4.66669 6.33337 4.66669H25.6667C26.219 4.66669 26.6667 4.21897 26.6667 3.66669C26.6667 3.1144 26.219 2.66669 25.6667 2.66669Z" fill="#222343"/>
<path d="M26.6667 28.3334C26.6667 28.8867 26.22 29.3334 25.6667 29.3334H6.33337C5.78004 29.3334 5.33337 28.8867 5.33337 28.3334C5.33337 27.78 5.78004 27.3334 6.33337 27.3334H25.6667C26.22 27.3334 26.6667 27.78 26.6667 28.3334Z" fill="#222343"/>
<path opacity="0.52" fill-rule="evenodd" clip-rule="evenodd" d="M23.4 21.2534C22.5733 19.12 20.9933 17.38 18.9466 16.3534L18.2333 16L18.86 15.68C20.9666 14.6334 22.58 12.84 23.4133 10.64C23.8133 9.58002 24.0133 8.47335 24.0133 7.34002V4.66669H7.98665V7.34002C7.98665 8.47335 8.18665 9.58002 8.58665 10.64C9.41998 12.84 11.0333 14.6334 13.14 15.68L13.7666 16L13.0533 16.3534C11.0066 17.38 9.42665 19.12 8.59998 21.2534C8.19331 22.3134 7.98665 23.4267 7.97998 24.56V27.3334H24.02V24.56C24.0133 23.4267 23.8066 22.3134 23.4 21.2534ZM13.2066 12.7134C12.9266 12.7134 12.7066 12.4934 12.7066 12.2134C12.7066 11.9334 12.9266 11.7134 13.2066 11.7134C13.4866 11.7134 13.7066 11.94 13.7066 12.2134C13.7066 12.4867 13.48 12.7134 13.2066 12.7134ZM10.5466 6.36002C10.58 6.08669 10.8333 5.89335 11.1 5.91335C11.3733 5.94669 11.5733 6.19335 11.5466 6.46669C11.5066 6.84002 11.48 7.38002 11.5533 8.00002C11.64 8.73335 11.86 9.57335 12.3533 10.3867C12.5 10.6267 12.42 10.9334 12.1866 11.0734C12.1066 11.12 12.0133 11.1467 11.9266 11.1467C11.76 11.1467 11.5933 11.06 11.5 10.9067C10.9 9.90669 10.64 8.88002 10.5466 8.00002C10.48 7.34002 10.5066 6.76669 10.5466 6.36002Z" fill="#25CBDB"/>
<g opacity="0.85">
<path d="M11.5534 8C11.64 8.73333 11.86 9.57333 12.3534 10.3867C12.5 10.6267 12.42 10.9333 12.1867 11.0733C12.1067 11.12 12.0134 11.1467 11.9267 11.1467C11.76 11.1467 11.5934 11.06 11.5 10.9067C10.9 9.90667 10.64 8.88 10.5467 8H9.00671C9.06671 8.78 9.24671 9.54667 9.52005 10.2867C10.26 12.2467 11.7067 13.8467 13.5867 14.7867L15.5534 15.7733L16 16L16.4467 15.7733L18.4134 14.7867C20.2934 13.8467 21.7334 12.2467 22.48 10.2867C22.7534 9.54667 22.9267 8.78 22.9867 8H11.5534ZM13.2067 12.7133C12.9267 12.7133 12.7067 12.4933 12.7067 12.2133C12.7067 11.9333 12.9267 11.7133 13.2067 11.7133C13.4867 11.7133 13.7067 11.94 13.7067 12.2133C13.7067 12.4867 13.48 12.7133 13.2067 12.7133Z" fill="#222343"/>
<path d="M16 18.8133C16.5523 18.8133 17 18.3656 17 17.8133C17 17.261 16.5523 16.8133 16 16.8133C15.4478 16.8133 15 17.261 15 17.8133C15 18.3656 15.4478 18.8133 16 18.8133Z" fill="#222343"/>
<path d="M16 21.76C16.5523 21.76 17 21.3123 17 20.76C17 20.2077 16.5523 19.76 16 19.76C15.4478 19.76 15 20.2077 15 20.76C15 21.3123 15.4478 21.76 16 21.76Z" fill="#222343"/>
<path d="M21.6334 26.48H10.3667C11.22 24.2 13.42 22.5733 16 22.5733C18.58 22.5733 20.78 24.2 21.6334 26.48Z" fill="#222343"/>
</g>
<g opacity="0.2">
<path d="M12.1867 11.0733C12.1067 11.12 12.0134 11.1467 11.9267 11.1467C11.76 11.1467 11.5934 11.06 11.5 10.9067C10.9 9.90668 10.64 8.88001 10.5467 8.00001C10.48 7.34001 10.5067 6.76668 10.5467 6.36001C10.58 6.08668 10.8334 5.89335 11.1 5.91335C11.3734 5.94668 11.5734 6.19335 11.5467 6.46668C11.5067 6.84001 11.48 7.38001 11.5534 8.00001C11.64 8.73335 11.86 9.57335 12.3534 10.3867C12.5 10.6267 12.42 10.9333 12.1867 11.0733Z" fill="#25CBDB"/>
<path d="M13.2067 12.7133C13.4829 12.7133 13.7067 12.4895 13.7067 12.2133C13.7067 11.9372 13.4829 11.7133 13.2067 11.7133C12.9306 11.7133 12.7067 11.9372 12.7067 12.2133C12.7067 12.4895 12.9306 12.7133 13.2067 12.7133Z" fill="#25CBDB"/>
</g>
</svg>
