<svg width="32" height="32" viewBox="0 0 32 32" fill="none" xmlns="http://www.w3.org/2000/svg">
<path d="M27.5001 8.50011C27.3868 8.25344 27.2001 8.08011 26.9334 7.96677L14.4001 3.20011C14.0001 3.04677 13.5868 3.02011 13.1668 3.13344C12.7468 3.24677 12.4001 3.46677 12.1334 3.80011L3.66678 14.2001C3.48678 14.4201 3.41344 14.6734 3.44678 14.9468C3.48011 15.2268 3.60678 15.4534 3.83344 15.6268C4.05344 15.8068 4.30011 15.8801 4.56678 15.8601C4.83344 15.8401 5.05344 15.7134 5.23344 15.4934L6.66678 13.6934L8.87344 21.7001C8.87344 21.7001 15.5801 20.6268 15.4668 20.6734L14.1001 15.6601C14.0534 15.5268 14.0734 15.4001 14.1468 15.2801C14.2268 15.1601 14.3334 15.0734 14.4668 15.0268L18.0001 14.0934C18.1334 14.0468 18.2601 14.0668 18.3868 14.1468C18.5068 14.2268 18.5934 14.3334 18.6401 14.4601L20.4801 21.5268L27.1801 20.6268L24.0734 9.02677L26.2068 9.82677C26.4534 9.94011 26.7001 9.93344 26.9534 9.80677C27.2068 9.68677 27.3934 9.50011 27.5068 9.25344C27.6201 8.98677 27.6201 8.73344 27.5068 8.48677L27.5001 8.50011Z" fill="#222343"/>
<path d="M28.4799 27.2466C27.9733 27.18 27.6866 26.9733 27.2866 26.6866C26.6933 26.26 25.9533 25.7266 24.5599 25.7266C23.1666 25.7266 22.4266 26.26 21.8333 26.6866C21.3466 27.04 21.0266 27.2666 20.2733 27.2666C19.5199 27.2666 19.1999 27.0333 18.7133 26.6866C18.1199 26.26 17.3799 25.7266 15.9866 25.7266C14.5933 25.7266 13.8533 26.26 13.2599 26.6866C12.7733 27.04 12.4533 27.2666 11.7066 27.2666C10.9599 27.2666 10.6399 27.0333 10.1466 26.6866C9.55327 26.26 8.81327 25.7266 7.41993 25.7266C6.0266 25.7266 5.2866 26.26 4.69327 26.6866C4.29993 26.9733 4.01327 27.18 3.51993 27.2466C2.97327 27.32 2.59327 27.8266 2.6666 28.3733C2.73993 28.92 3.2466 29.2933 3.79327 29.2266C4.77993 29.0933 5.37993 28.66 5.85993 28.3066C6.3466 27.9533 6.6666 27.7266 7.41327 27.7266C8.15993 27.7266 8.4866 27.96 8.97327 28.3066C9.5666 28.7333 10.3066 29.2666 11.6999 29.2666C13.0933 29.2666 13.8333 28.7333 14.4266 28.3066C14.9133 27.9533 15.2333 27.7266 15.9799 27.7266C16.7266 27.7266 17.0533 27.96 17.5399 28.3066C18.1333 28.7333 18.8733 29.2666 20.2666 29.2666C21.6599 29.2666 22.3999 28.7333 22.9933 28.3066C23.4799 27.9533 23.7999 27.7266 24.5533 27.7266C25.3066 27.7266 25.6266 27.96 26.1133 28.3066C26.5999 28.6533 27.2066 29.0933 28.2066 29.2266C28.7533 29.3 29.2599 28.9133 29.3266 28.3666C29.3933 27.82 29.0133 27.3133 28.4666 27.2466H28.4799Z" fill="#25CBDB"/>
<path d="M3.79327 22.96C4.77993 22.8266 5.37993 22.3933 5.8666 22.04C6.35327 21.6866 6.67327 21.46 7.41993 21.46C8.1666 21.46 8.4866 21.6933 8.97327 22.04C9.5666 22.4666 10.3066 23 11.6999 23C13.0933 23 13.8333 22.4666 14.4266 22.04C14.9133 21.6866 15.2333 21.46 15.9799 21.46C16.7266 21.46 17.0533 21.6933 17.5399 22.04C18.1333 22.4666 18.8733 23 20.2666 23C21.6599 23 22.3999 22.4666 22.9933 22.04C23.4799 21.6866 23.7999 21.46 24.5533 21.46C25.3066 21.46 25.6266 21.6933 26.1133 22.04C26.5999 22.3866 27.2066 22.8266 28.2133 22.96C28.7599 23.0333 29.2599 22.6466 29.3333 22.1C29.4066 21.5533 29.0199 21.0533 28.4733 20.98C27.9733 20.9133 27.6799 20.7066 27.2799 20.42C26.6866 19.9933 25.9466 19.46 24.5533 19.46C23.1599 19.46 22.4199 19.9933 21.8266 20.42C21.3399 20.7733 21.0133 21 20.2666 21C19.5199 21 19.1933 20.7666 18.7066 20.42C18.1133 19.9933 17.3733 19.46 15.9799 19.46C14.5866 19.46 13.8466 19.9933 13.2533 20.42C12.7666 20.7733 12.4466 21 11.6999 21C10.9533 21 10.6266 20.7666 10.1399 20.42C9.5466 19.9933 8.8066 19.46 7.41327 19.46C6.01993 19.46 5.27993 19.9933 4.6866 20.42C4.29327 20.7066 4.0066 20.9133 3.51327 20.98C2.9666 21.0533 2.5866 21.56 2.65993 22.1066C2.73327 22.6533 3.23993 23.0266 3.7866 22.96H3.79327Z" fill="#25CBDB"/>
</svg>
