<svg width="32" height="32" viewBox="0 0 32 32" fill="none" xmlns="http://www.w3.org/2000/svg">
<path d="M27.4 4.6C27 4.2 26.5333 4 26 4H6C5.46667 4 5 4.2 4.6 4.6C4.2 5 4 5.46667 4 6V26C4 26.5333 4.2 27 4.6 27.4C5 27.8 5.46667 28 6 28H26C26.5333 28 27 27.8 27.4 27.4C27.8 27 28 26.5333 28 26V6C28 5.46667 27.8 5 27.4 4.6ZM26 25.9733C26 25.9733 25.9933 25.98 25.9867 25.9867C25.98 25.9933 25.9733 25.9933 25.9733 26H6.02667C6.02667 26 6.02 25.9933 6.01333 25.9867C6.00667 25.98 6.00667 25.9733 6 25.9733V6.02667C6 6.02667 6.00667 6.02 6.01333 6.01333C6.02 6.00667 6.02667 6.00667 6.02667 6H25.9733C25.9733 6 25.98 6.00667 25.9867 6.01333C25.9867 6.02 25.9867 6.02667 26 6.02667V25.9733Z" fill="#25CBDB"/>
<path opacity="0.52" d="M25.9867 6.01333C25.9867 6.01333 25.9733 6.00667 25.9733 6H6.02667C6.02667 6 6.02 6.00667 6.01333 6.01333C6.00667 6.02 6.00667 6.02667 6 6.02667V25.9733C6 25.9733 6.00667 25.98 6.01333 25.9867C6.02 25.9933 6.02667 25.9933 6.02667 26H25.9733C25.9733 26 25.98 25.9933 25.9867 25.9867C25.9867 25.98 25.9867 25.9733 26 25.9733V6.02667C26 6.02667 25.9933 6.02 25.9867 6.01333Z" fill="#25CBDB"/>
<path d="M23.5999 22.5C23.5132 22.68 23.3666 22.7667 23.1666 22.7667H8.86657C8.66657 22.7667 8.5199 22.68 8.43323 22.5C8.34657 22.32 8.36657 22.1467 8.4999 21.9667L11.3666 18.2333C11.4799 18.1 11.6132 18.0333 11.7666 18.0333C11.9199 18.0333 12.0532 18.1 12.1666 18.2333L14.8666 21.9333L18.8666 16.7666C18.9799 16.6333 19.1132 16.5667 19.2666 16.5667C19.4199 16.5667 19.5532 16.6333 19.6666 16.7666L23.5666 21.9667C23.6799 22.1467 23.6866 22.32 23.5999 22.5Z" fill="#222343"/>
</svg>
