<svg width="32" height="32" viewBox="0 0 32 32" fill="none" xmlns="http://www.w3.org/2000/svg">
<path opacity="0.52" d="M16 7.82002C17.1533 7.04002 18.3933 6.46669 19.7133 6.08669C21.0333 5.70669 22.3933 5.52002 23.8 5.52002C24.8467 5.52002 25.8733 5.62669 26.88 5.83335C27.8933 6.04669 28.8667 6.37335 29.7933 6.82002C30.1067 6.97335 30.34 7.19335 30.4933 7.47335C30.6467 7.75335 30.7267 8.06002 30.7267 8.39335V23.8267C30.7267 24.4067 30.4867 24.8467 30.0133 25.16C29.5333 25.4734 29.04 25.5067 28.5333 25.26C27.7533 24.9734 26.98 24.7267 26.2 24.5267C25.42 24.3267 24.62 24.2267 23.8 24.2267C22.58 24.2267 21.38 24.4067 20.2 24.76C19.02 25.1134 17.9133 25.6134 16.8667 26.26C16.7533 26.3467 16.6267 26.4134 16.48 26.4467C16.3333 26.48 16.1733 26.5 15.9933 26.5V7.82002H16Z" fill="#25CBDB"/>
<path d="M16 26.4867C15.82 26.4867 15.66 26.4667 15.5133 26.4334C15.3667 26.4 15.24 26.34 15.1267 26.2467C14.08 25.6 12.9733 25.1 11.7933 24.7467C10.6133 24.3934 9.41333 24.2134 8.19333 24.2134C7.37333 24.2134 6.57333 24.3134 5.79333 24.5134C5.01333 24.7134 4.24 24.96 3.46 25.2467C2.94666 25.4934 2.45333 25.46 1.98 25.1467C1.5 24.8334 1.26666 24.3934 1.26666 23.8134V8.38005C1.26666 8.04671 1.34666 7.74005 1.5 7.46005C1.65333 7.18005 1.88666 6.96671 2.2 6.80671C3.13333 6.36005 4.10666 6.03338 5.12 5.82005C6.13333 5.60671 7.16 5.50671 8.2 5.50671C9.6 5.50671 10.96 5.69338 12.28 6.07338C13.6 6.45338 14.84 7.02671 15.9933 7.80671V26.4734L16 26.4867Z" fill="#222343"/>
</svg>
