<svg width="32" height="32" viewBox="0 0 32 32" fill="none" xmlns="http://www.w3.org/2000/svg">
<path opacity="0.52" d="M16 27.3334C22.2592 27.3334 27.3333 22.2593 27.3333 16.0001C27.3333 9.74085 22.2592 4.66675 16 4.66675C9.74073 4.66675 4.66663 9.74085 4.66663 16.0001C4.66663 22.2593 9.74073 27.3334 16 27.3334Z" fill="#25CBDB"/>
<path d="M16 27.3334C9.75329 27.3334 4.66663 22.2467 4.66663 16.0001C4.66663 9.75341 9.75329 4.66675 16 4.66675C22.2466 4.66675 27.3333 9.75341 27.3333 16.0001C27.3333 22.2467 22.2466 27.3334 16 27.3334ZM16 29.3334C23.3666 29.3334 29.3333 23.3667 29.3333 16.0001C29.3333 8.63341 23.3666 2.66675 16 2.66675C8.63329 2.66675 2.66663 8.63341 2.66663 16.0001C2.66663 23.3667 8.63329 29.3334 16 29.3334Z" fill="#222343"/>
<path d="M16 11.5334C16.3133 11.5334 16.5733 11.4267 16.7866 11.2134C16.9933 11.0067 17.1 10.7401 17.1 10.4334C17.1 10.1267 16.9933 9.86008 16.7866 9.64675C16.5733 9.43341 16.3133 9.33341 16 9.33341C15.6866 9.33341 15.4266 9.43341 15.2133 9.64675C15.0066 9.86008 14.9 10.1201 14.9 10.4334C14.9 10.7467 15.0066 11.0001 15.2133 11.2134C15.4266 11.4267 15.6866 11.5334 16 11.5334Z" fill="#222343"/>
<path d="M15.1866 22.5801C15.38 22.7667 15.62 22.8667 15.9066 22.8667C16.1933 22.8667 16.4266 22.7667 16.62 22.5801C16.8066 22.3867 16.9 22.1467 16.9 21.8667V15.4334C16.9 15.1467 16.8066 14.9134 16.6133 14.7201C16.42 14.5267 16.18 14.4334 15.8933 14.4334C15.6066 14.4334 15.3733 14.5267 15.18 14.7201C14.9933 14.9134 14.9 15.1467 14.9 15.4334V21.8667C14.9 22.1467 14.9933 22.3867 15.1866 22.5801Z" fill="#222343"/>
</svg>
