<svg width="32" height="32" viewBox="0 0 32 32" fill="none" xmlns="http://www.w3.org/2000/svg">
<path opacity="0.52" d="M16 29.3334C23.3638 29.3334 29.3333 23.3639 29.3333 16.0001C29.3333 8.63628 23.3638 2.66675 16 2.66675C8.63616 2.66675 2.66663 8.63628 2.66663 16.0001C2.66663 23.3639 8.63616 29.3334 16 29.3334Z" fill="#25CBDB"/>
<path d="M12.5466 7.72672C11.66 7.76672 11.0533 7.91339 10.5266 8.12005C9.97997 8.33339 9.51331 8.62005 9.05331 9.08672C8.59331 9.55339 8.30664 10.0134 8.09331 10.5667C7.88664 11.1001 7.74664 11.7001 7.70664 12.5934C7.66664 13.4801 7.65997 13.7667 7.65997 16.0267C7.65997 18.2867 7.67331 18.5734 7.71997 19.4601C7.75997 20.3467 7.90664 20.9534 8.11331 21.4801C8.32664 22.0267 8.61331 22.4934 9.07997 22.9534C9.54664 23.4134 10.0066 23.7001 10.56 23.9134C11.0933 24.1201 11.6933 24.2601 12.58 24.3001C13.4666 24.3401 13.7533 24.3467 16.0133 24.3467C18.28 24.3467 18.56 24.3334 19.4466 24.2934C20.3333 24.2534 20.94 24.1067 21.4666 23.9001C22.0133 23.6867 22.48 23.4001 22.94 22.9334C23.4 22.4667 23.6866 22.0067 23.9 21.4534C24.1066 20.9201 24.2466 20.3201 24.2866 19.4334C24.3266 18.5467 24.3333 18.2601 24.3333 16.0001C24.3333 13.7401 24.32 13.4534 24.2733 12.5667C24.2333 11.6801 24.0866 11.0734 23.88 10.5467C23.6666 10.0001 23.38 9.53339 22.9133 9.07339C22.4466 8.61339 21.9866 8.32672 21.4333 8.11339C20.9 7.90672 20.3 7.76672 19.4133 7.72672C18.5266 7.68672 18.24 7.68005 15.98 7.68005C13.72 7.68005 13.4333 7.69339 12.5466 7.74005M12.6466 22.8067C11.8333 22.7734 11.3933 22.6334 11.1 22.5201C10.7133 22.3667 10.4333 22.1867 10.14 21.9001C9.84664 21.6067 9.66664 21.3334 9.51331 20.9401C9.39997 20.6467 9.25997 20.2067 9.22664 19.3934C9.18664 18.5134 9.17331 18.2534 9.17331 16.0267C9.17331 13.8001 9.17331 13.5401 9.21331 12.6601C9.24664 11.8467 9.38664 11.4067 9.49997 11.1134C9.65331 10.7267 9.83331 10.4467 10.12 10.1534C10.4133 9.86005 10.6866 9.68005 11.08 9.52672C11.3733 9.41339 11.8133 9.27339 12.6266 9.24005C13.5066 9.20005 13.7666 9.18672 15.9933 9.18672C18.22 9.18672 18.48 9.18672 19.36 9.22672C20.1733 9.26005 20.6133 9.39339 20.9066 9.51339C21.2933 9.66672 21.5733 9.84672 21.8666 10.1334C22.16 10.4267 22.34 10.7001 22.4933 11.0934C22.6066 11.3867 22.7466 11.8267 22.78 12.6401C22.82 13.5201 22.8333 13.7801 22.8333 16.0067C22.8333 18.2334 22.8333 18.4934 22.7933 19.3734C22.76 20.1867 22.62 20.6267 22.5066 20.9201C22.3533 21.3067 22.1733 21.5867 21.8866 21.8801C21.5933 22.1734 21.32 22.3534 20.9266 22.5067C20.6333 22.6201 20.1933 22.7601 19.38 22.7934C18.5 22.8334 18.24 22.8467 16.0133 22.8467C13.7866 22.8467 13.5266 22.8467 12.6466 22.8067ZM19.44 11.5601C19.44 12.1134 19.8866 12.5601 20.44 12.5601C20.9933 12.5601 21.44 12.1134 21.44 11.5601C21.44 11.0067 20.9933 10.5601 20.44 10.5601C19.8866 10.5601 19.44 11.0067 19.44 11.5601ZM11.72 16.0201C11.72 18.3867 13.6466 20.2934 16.0066 20.2934C18.3666 20.2934 20.28 18.3667 20.28 16.0067C20.28 13.6467 18.3533 11.7334 15.9933 11.7334C13.6333 11.7334 11.72 13.6601 11.72 16.0201ZM13.22 16.0201C13.22 14.4867 14.46 13.2401 15.9933 13.2401C17.5266 13.2401 18.7733 14.4801 18.7733 16.0134C18.7733 17.5467 17.5333 18.7934 16 18.7934C14.4666 18.7934 13.22 17.5534 13.22 16.0201Z" fill="#222343"/>
</svg>
