<svg width="32" height="32" viewBox="0 0 32 32" fill="none" xmlns="http://www.w3.org/2000/svg">
<path opacity="0.52" d="M18.5334 2.66675H7.33337C6.22671 2.66675 5.33337 3.56008 5.33337 4.66675V27.3334C5.33337 28.4401 6.22671 29.3334 7.33337 29.3334H24.6667C25.7734 29.3334 26.6667 28.4401 26.6667 27.3334V10.8001C26.6667 10.2667 26.4534 9.76008 26.08 9.38675L19.9467 3.25341C19.5734 2.88008 19.06 2.66675 18.5334 2.66675Z" fill="#25CBDB"/>
<path opacity="0.52" d="M19.9467 3.25342V8.80008C19.9467 9.90675 20.84 10.8001 21.9467 10.8001H26.6667C26.6667 10.2668 26.4533 9.76008 26.08 9.38675L19.9467 3.25342Z" fill="#25CBDB"/>
<path d="M21.9466 9.38675H26.08L19.9466 3.25342V7.38675C19.9466 8.49342 20.84 9.38675 21.9466 9.38675Z" fill="#222343"/>
<path d="M23.9933 30.2601C27.4543 30.2601 30.26 27.4544 30.26 23.9934C30.26 20.5324 27.4543 17.7268 23.9933 17.7268C20.5323 17.7268 17.7266 20.5324 17.7266 23.9934C17.7266 27.4544 20.5323 30.2601 23.9933 30.2601Z" fill="#222343"/>
<path d="M13.66 12.3334C14.0333 12.3334 14.3466 12.2001 14.6066 11.9334C14.8666 11.6668 14.9933 11.3534 14.9933 11.0001C14.9933 10.6268 14.8666 10.3134 14.6066 10.0534C14.3466 9.79342 14.0333 9.66675 13.66 9.66675C13.2866 9.66675 12.9933 9.79342 12.7266 10.0534C12.46 10.3134 12.3266 10.6268 12.3266 11.0001C12.3266 11.3734 12.46 11.6668 12.7266 11.9334C12.9933 12.2001 13.3066 12.3334 13.66 12.3334ZM8.70662 7.39342C9.07996 7.39342 9.39329 7.26008 9.65329 6.99342C9.91329 6.72675 10.04 6.41342 10.04 6.06008C10.04 5.68675 9.91329 5.37342 9.65329 5.11342C9.39329 4.85342 9.07996 4.72675 8.70662 4.72675C8.33329 4.72675 8.03996 4.85342 7.77329 5.11342C7.50662 5.37342 7.37329 5.68675 7.37329 6.06008C7.37329 6.43342 7.50662 6.72675 7.77329 6.99342C8.03996 7.26008 8.35329 7.39342 8.70662 7.39342Z" fill="#222343"/>
<path d="M8.38662 12.3334C8.13329 12.3334 7.87329 12.2334 7.67996 12.0401C7.28662 11.6468 7.28662 11.0134 7.67996 10.6268L13.2866 5.02008C13.68 4.62675 14.3133 4.62675 14.7 5.02008C15.0866 5.41342 15.0933 6.04675 14.7 6.43342L9.09329 12.0401C8.89996 12.2334 8.63996 12.3334 8.38662 12.3334Z" fill="#222343"/>
<path d="M24 25.4333L21.9 27.5C21.7 27.68 21.4666 27.7733 21.2 27.7866C20.9333 27.8 20.7 27.7 20.5 27.5C20.3 27.3 20.2 27.0666 20.2 26.8C20.2 26.5333 20.3 26.3 20.5 26.1L22.6 24L20.5 21.9C20.3 21.7 20.2 21.4666 20.2 21.2C20.2 20.9333 20.3 20.7 20.5 20.5C20.7 20.3 20.9333 20.2 21.2 20.2C21.4666 20.2 21.7 20.3 21.9 20.5L24 22.6L26.1 20.5C26.3 20.3 26.5333 20.2 26.8 20.2C27.0666 20.2 27.3 20.3 27.5 20.5C27.7 20.7 27.7933 20.9333 27.7866 21.2C27.78 21.4666 27.68 21.7 27.5 21.9L25.4333 24L27.5 26.1C27.68 26.3 27.7733 26.5333 27.7866 26.8C27.8 27.0666 27.7 27.3 27.5 27.5C27.3 27.7 27.0666 27.7933 26.8 27.7866C26.5333 27.78 26.3 27.68 26.1 27.5L24 25.4333Z" fill="#25CBDB"/>
</svg>
