<svg width="32" height="32" viewBox="0 0 32 32" fill="none" xmlns="http://www.w3.org/2000/svg">
<path opacity="0.85" d="M4.93338 25.3334C4.06671 25.3334 3.40005 25.0668 2.93338 24.4668C2.46671 23.8668 2.26671 23.1334 2.40005 22.1334L4.00005 10.9334C4.20005 9.73343 4.73338 8.73343 5.66671 7.86676C6.60005 7.0001 7.66671 6.6001 8.80005 6.6001H23.2667C24.4667 6.6001 25.4667 7.0001 26.4 7.86676C27.3334 8.73343 27.8667 9.73343 28.0667 10.9334L29.6667 22.1334C29.8 23.1334 29.6667 23.9334 29.1334 24.4668C28.6 25.0001 28 25.3334 27.1334 25.3334C26.2667 25.3334 26.2001 25.2668 25.8 25.0668C25.4 24.8668 25.1334 24.6668 24.8667 24.4668L21.4 21.0001H10.6L7.13338 24.4668C6.86671 24.7334 6.60005 24.9334 6.20005 25.0668C5.80005 25.2001 5.40005 25.3334 4.86671 25.3334H4.93338Z" fill="#25CBDB"/>
<path d="M23.3333 17.3334C23.6667 17.3334 24 17.2001 24.2667 16.9334C24.5333 16.6667 24.6667 16.3334 24.6667 16.0001C24.6667 15.6667 24.5333 15.3334 24.2667 15.0667C24 14.8001 23.6667 14.6667 23.3333 14.6667C23 14.6667 22.6667 14.8001 22.4 15.0667C22.1333 15.3334 22 15.6667 22 16.0001C22 16.3334 22.1333 16.6667 22.4 16.9334C22.6667 17.2001 23 17.3334 23.3333 17.3334Z" fill="#222343"/>
<path d="M20.5334 13.0002C20.8667 13.0002 21.2001 12.8668 21.4667 12.6002C21.7334 12.3335 21.8667 12.0002 21.8667 11.6668C21.8667 11.3335 21.7334 11.0002 21.4667 10.7335C21.2001 10.4668 20.8667 10.3335 20.5334 10.3335C20.2001 10.3335 19.8667 10.4668 19.6001 10.7335C19.3334 11.0002 19.2001 11.3335 19.2001 11.6668C19.2001 12.0002 19.3334 12.3335 19.6001 12.6002C19.8667 12.8668 20.2001 13.0002 20.5334 13.0002Z" fill="#222343"/>
<path d="M10 14.6668V16.3335C10 16.6001 10.0667 16.8001 10.2667 16.9335C10.4667 17.0668 10.6 17.2001 10.8667 17.2001C11.1333 17.2001 11.3333 17.1335 11.4667 16.9335C11.6 16.7335 11.7333 16.6001 11.7333 16.3335V14.6668H13.4C13.6667 14.6668 13.8667 14.6001 14 14.4001C14.1333 14.2001 14.2667 14.0668 14.2667 13.8001C14.2667 13.5335 14.2 13.3335 14 13.2001C13.8 13.0668 13.6667 12.9335 13.4 12.9335H11.7333V11.2668C11.7333 11.0001 11.6667 10.8001 11.4667 10.6668C11.2667 10.5335 11.1333 10.4001 10.8667 10.4001C10.6 10.4001 10.4 10.4668 10.2667 10.6668C10.1333 10.8668 10 11.0001 10 11.2668V12.9335H8.33334C8.06667 12.9335 7.86668 13.0001 7.73334 13.2001C7.60001 13.4001 7.46667 13.5335 7.46667 13.8001C7.46667 14.0668 7.53334 14.2668 7.73334 14.4001C7.93334 14.5335 8.06667 14.6668 8.33334 14.6668H10Z" fill="#222343"/>
</svg>
