<svg width="32" height="32" viewBox="0 0 32 32" fill="none" xmlns="http://www.w3.org/2000/svg">
<path d="M17.0001 21.6333V29.5C17.0001 29.7866 16.9067 30.02 16.7134 30.2133C16.5201 30.4066 16.2801 30.5 15.9934 30.5C15.7067 30.5 15.4734 30.4066 15.2801 30.2133C15.0934 30.02 14.9934 29.7866 14.9934 29.5V21.6333H16.9934H17.0001Z" fill="#222343"/>
<path d="M10.6665 17.0667V6H21.1332V17.0667H10.6665Z" fill="#25CBDB"/>
<g opacity="0.85">
<path d="M10 5.99983C9.71333 5.99983 9.48 5.9065 9.28667 5.71316C9.09333 5.51983 9 5.27983 9 4.99316C9 4.7065 9.09333 4.47316 9.28667 4.27983C9.48 4.09316 9.71333 3.99316 10 3.99316H21.8C22.0867 3.99316 22.32 4.0865 22.5133 4.27983C22.7067 4.47316 22.8 4.71316 22.8 4.99983C22.8 5.2865 22.7067 5.51983 22.5133 5.71316C22.32 5.89983 22.0867 5.99983 21.8 5.99983H10Z" fill="#25CBDB"/>
<path d="M21.1333 17.0665L23.7 19.3332C23.8133 19.4465 23.8867 19.5598 23.9333 19.6865C23.98 19.8132 24 19.9398 24 20.0732V20.6465C24 20.9265 23.9067 21.1665 23.7133 21.3532C23.52 21.5398 23.2867 21.6398 23 21.6398H9C8.71333 21.6398 8.48 21.5465 8.28667 21.3532C8.09333 21.1598 8 20.9265 8 20.6465V20.0732C8 19.9398 8.02 19.8132 8.06667 19.6932C8.11333 19.5732 8.18667 19.4532 8.3 19.3398L10.6667 17.0732H21.1333V17.0665Z" fill="#25CBDB"/>
</g>
</svg>
