<svg width="32" height="32" viewBox="0 0 32 32" fill="none" xmlns="http://www.w3.org/2000/svg">
<path d="M27.1867 14.8465C27.6733 15.5398 27.6733 16.4665 27.1867 17.1532L22.3667 23.9665C22.08 24.3665 21.7333 24.6932 21.3333 24.9465C20.9333 25.1998 20.4867 25.3332 20 25.3332H6.04C5.52 25.3332 5.01333 25.1532 4.63333 24.7998C4.20667 24.3998 4 23.9132 4 23.3332V8.7065C4 8.1865 4.18 7.67984 4.53333 7.29984C4.93333 6.87317 5.42 6.6665 6 6.6665H20C20.4867 6.6665 20.9333 6.79317 21.3333 7.0465C21.7333 7.29984 22.08 7.63317 22.3667 8.03317L27.1867 14.8465ZM25.5 15.9998L20.3667 8.6665H6V23.3332H20.3667L25.5 15.9998ZM6 15.9998V23.3332V8.6665V15.9998Z" fill="#222343"/>
<path opacity="0.52" d="M6 23.3332H20.3667L25.5 15.9998L20.3667 8.6665H6" fill="#25CBDB"/>
</svg>
