<svg width="32" height="32" viewBox="0 0 32 32" fill="none" xmlns="http://www.w3.org/2000/svg">
<g clip-path="url(#clip0_4093_438)">
<path opacity="0.52" d="M4.66663 5.33331H27.3333C28.44 5.33331 29.3333 6.22665 29.3333 7.33331V24H2.66663V7.33331C2.66663 6.22665 3.55996 5.33331 4.66663 5.33331Z" fill="#25CBDB"/>
<path opacity="0.52" d="M29.3333 22V24H2.66663V22H29.3333Z" fill="#25CBDB"/>
<path opacity="0.85" d="M0.0466309 24H32.0466V24.6667C32.0466 25.7733 31.1533 26.6667 30.0466 26.6667H2.04663C0.939964 26.6667 0.0466309 25.7733 0.0466309 24.6667V24Z" fill="#222343"/>
<path d="M18.9267 26H13.0667C12.4 26 11.7733 25.6666 11.4 25.1066L10.66 24H21.3267L20.5867 25.1066C20.2133 25.66 19.5933 26 18.92 26H18.9267Z" fill="#222343"/>
<path d="M21 9.33331H23C23.5533 9.33331 24 9.77998 24 10.3333V20H20V10.3333C20 9.77998 20.4467 9.33331 21 9.33331Z" fill="#222343"/>
<path d="M15 12H17C17.5533 12 18 12.4466 18 13V20H14V13C14 12.4466 14.4467 12 15 12Z" fill="#222343"/>
<path d="M9 14.6666H11C11.5533 14.6666 12 15.1133 12 15.6666V20H8V15.6666C8 15.1133 8.44667 14.6666 9 14.6666Z" fill="#222343"/>
</g>
<defs>
<clipPath id="clip0_4093_438">
<rect width="32" height="32" fill="white"/>
</clipPath>
</defs>
</svg>
