<svg width="32" height="32" viewBox="0 0 32 32" fill="none" xmlns="http://www.w3.org/2000/svg">
<g clip-path="url(#clip0_4093_474)">
<path opacity="0.52" d="M4.66663 5.33325H27.3333C28.44 5.33325 29.3333 6.22659 29.3333 7.33325V23.9999H2.66663V7.33325C2.66663 6.22659 3.55996 5.33325 4.66663 5.33325Z" fill="#25CBDB"/>
<path opacity="0.52" d="M29.3333 22V24H2.66663V22H29.3333Z" fill="#25CBDB"/>
<path opacity="0.85" d="M0.0466309 24H32.0466V24.6667C32.0466 25.7733 31.1533 26.6667 30.0466 26.6667H2.04663C0.939964 26.6667 0.0466309 25.7733 0.0466309 24.6667V24Z" fill="#222343"/>
<path d="M14.9867 14.68L12.7067 14.6533C12.44 14.64 12.2067 14.54 12.0134 14.36C11.82 14.18 11.72 13.9466 11.72 13.6666C11.72 13.3866 11.8134 13.1466 12 12.96C12.1867 12.7733 12.4267 12.68 12.7067 12.68H15.0067V10.38C15.0067 10.1 15.1 9.85998 15.2867 9.67331C15.4734 9.48664 15.7134 9.39331 15.9934 9.39331C16.2734 9.39331 16.5134 9.48664 16.7 9.67331C16.8867 9.85998 16.98 10.1 16.98 10.38V12.68H19.28C19.56 12.68 19.8 12.7733 19.9867 12.96C20.1734 13.1466 20.2667 13.3866 20.2667 13.6666C20.2667 13.9466 20.1667 14.18 19.9734 14.36C19.78 14.54 19.5467 14.64 19.28 14.6533L17 14.68L16.9734 16.96C16.96 17.2266 16.86 17.46 16.68 17.6533C16.5 17.8466 16.2667 17.9466 15.9867 17.9466C15.7067 17.9466 15.4734 17.8466 15.2934 17.6533C15.1134 17.46 15.0134 17.2266 15 16.96L14.9734 14.68H14.9867Z" fill="#222343"/>
<path d="M18.9267 26H13.0667C12.4 26 11.7734 25.6666 11.4 25.1066L10.66 24H21.3267L20.5867 25.1066C20.2134 25.66 19.5934 26 18.92 26H18.9267Z" fill="#222343"/>
</g>
<defs>
<clipPath id="clip0_4093_474">
<rect width="32" height="32" fill="white"/>
</clipPath>
</defs>
</svg>
