<svg width="32" height="32" viewBox="0 0 32 32" fill="none" xmlns="http://www.w3.org/2000/svg">
<path opacity="0.52" d="M24.6666 5.33337H7.33331C6.22874 5.33337 5.33331 6.2288 5.33331 7.33337V24.6667C5.33331 25.7713 6.22874 26.6667 7.33331 26.6667H24.6666C25.7712 26.6667 26.6666 25.7713 26.6666 24.6667V7.33337C26.6666 6.2288 25.7712 5.33337 24.6666 5.33337Z" fill="#25CBDB"/>
<path d="M17.6866 7.31335C17.1333 7.31335 16.6866 7.76002 16.6866 8.31335C16.6866 8.86669 17.1333 9.31335 17.6866 9.31335H21.2733L11.2933 19.2934C10.9 19.6867 10.9 20.32 11.2933 20.7067C11.4866 20.9 11.7466 21 12 21C12.2533 21 12.5133 20.9 12.7066 20.7067L22.6866 10.7267V14.3134C22.6866 14.8667 23.1333 15.3134 23.6866 15.3134C24.24 15.3134 24.6866 14.8667 24.6866 14.3134V7.31335H17.6866Z" fill="#222343"/>
<path opacity="0.52" d="M24.6666 7.33337V24.6667H7.33331V7.33337H24.6666ZM24.6666 5.33337H7.33331C6.22665 5.33337 5.33331 6.22671 5.33331 7.33337V24.6667C5.33331 25.7734 6.22665 26.6667 7.33331 26.6667H24.6666C25.7733 26.6667 26.6666 25.7734 26.6666 24.6667V7.33337C26.6666 6.22671 25.7733 5.33337 24.6666 5.33337Z" fill="#25CBDB"/>
</svg>
