<svg width="32" height="32" viewBox="0 0 32 32" fill="none" xmlns="http://www.w3.org/2000/svg">
<path opacity="0.52" d="M16 29.3333C23.3638 29.3333 29.3334 23.3638 29.3334 16C29.3334 8.63616 23.3638 2.66663 16 2.66663C8.63622 2.66663 2.66669 8.63616 2.66669 16C2.66669 23.3638 8.63622 29.3333 16 29.3333Z" fill="#25CBDB"/>
<path d="M11.86 12.82H8.74667V22.82H11.86V12.82Z" fill="#222343"/>
<path d="M10.3067 7.84668C9.30667 7.84668 8.5 8.65335 8.5 9.64668C8.5 10.64 9.30667 11.4467 10.3067 11.4467C11.3067 11.4467 12.1067 10.64 12.1067 9.64668C12.1067 8.65335 11.3 7.84668 10.3067 7.84668Z" fill="#222343"/>
<path d="M19.7733 12.5733C18.26 12.5733 17.2467 13.4 16.8333 14.1867H16.7933V12.82H13.8133V22.82H16.92V17.8733C16.92 16.5667 17.1667 15.3067 18.7867 15.3067C20.4067 15.3067 20.4 16.8 20.4 17.96V22.82H23.5067V17.3333C23.5067 14.64 22.9267 12.5667 19.78 12.5667L19.7733 12.5733Z" fill="#222343"/>
</svg>
