<svg width="32" height="32" viewBox="0 0 32 32" fill="none" xmlns="http://www.w3.org/2000/svg">
<path opacity="0.52" d="M6 28C5.46667 28 5 27.8 4.6 27.4C4.2 27 4 26.5333 4 26V6C4 5.46667 4.2 5 4.6 4.6C5 4.2 5.46667 4 6 4H26C26.5333 4 27 4.2 27.4 4.6C27.8 5 28 5.46667 28 6V26C28 26.5333 27.8 27 27.4 27.4C27 27.8 26.5333 28 26 28H6Z" fill="#25CBDB"/>
<path d="M10 22.4668C10.2667 22.4668 10.5 22.3668 10.7 22.1668C10.9 21.9668 11 21.7334 11 21.4668C11 21.2001 10.9 20.9668 10.7 20.7668C10.5 20.5668 10.2667 20.4668 10 20.4668C9.73333 20.4668 9.5 20.5668 9.3 20.7668C9.1 20.9668 9 21.2001 9 21.4668C9 21.7334 9.1 21.9668 9.3 22.1668C9.5 22.3668 9.73333 22.4668 10 22.4668Z" fill="#222343"/>
<path d="M10 17.0001C10.2667 17.0001 10.5 16.9001 10.7 16.7001C10.9 16.5001 11 16.2668 11 16.0001C11 15.7334 10.9 15.5001 10.7 15.3001C10.5 15.1001 10.2667 15.0001 10 15.0001C9.73333 15.0001 9.5 15.1001 9.3 15.3001C9.1 15.5001 9 15.7334 9 16.0001C9 16.2668 9.1 16.5001 9.3 16.7001C9.5 16.9001 9.73333 17.0001 10 17.0001Z" fill="#222343"/>
<path d="M10 11.5334C10.2667 11.5334 10.5 11.4334 10.7 11.2334C10.9 11.0334 11 10.8001 11 10.5334C11 10.2668 10.9 10.0334 10.7 9.83345C10.5 9.63345 10.2667 9.53345 10 9.53345C9.73333 9.53345 9.5 9.63345 9.3 9.83345C9.1 10.0334 9 10.2668 9 10.5334C9 10.8001 9.1 11.0334 9.3 11.2334C9.5 11.4334 9.73333 11.5334 10 11.5334Z" fill="#222343"/>
<path d="M15.4 22.4668H21.5333C21.82 22.4668 22.06 22.3734 22.2533 22.1868C22.4467 22.0001 22.5333 21.7601 22.5333 21.4668C22.5333 21.1734 22.44 20.9401 22.2533 20.7468C22.0667 20.5601 21.8267 20.4668 21.5333 20.4668H15.4C15.1133 20.4668 14.8733 20.5601 14.68 20.7468C14.4933 20.9334 14.4 21.1734 14.4 21.4668C14.4 21.7601 14.4933 21.9934 14.68 22.1868C14.8667 22.3734 15.1067 22.4668 15.4 22.4668Z" fill="#222343"/>
<path d="M15.4 17.0001H21.5333C21.82 17.0001 22.06 16.9068 22.2533 16.7201C22.4467 16.5334 22.5333 16.2934 22.5333 16.0001C22.5333 15.7068 22.44 15.4734 22.2533 15.2801C22.0667 15.0868 21.8267 14.9934 21.5333 15.0001H15.4C15.1133 15.0001 14.8733 15.0934 14.68 15.2801C14.4933 15.4668 14.4 15.7068 14.4 16.0001C14.4 16.2934 14.4933 16.5268 14.68 16.7201C14.8667 16.9068 15.1067 17.0001 15.4 17.0001Z" fill="#222343"/>
<path d="M15.4 11.5334H21.5333C21.82 11.5334 22.06 11.4401 22.2533 11.2534C22.4467 11.0668 22.5333 10.8268 22.5333 10.5401C22.5333 10.2534 22.44 10.0134 22.2533 9.82678C22.0667 9.64011 21.8267 9.54011 21.5333 9.54011H15.4C15.1133 9.54011 14.8733 9.63345 14.68 9.82678C14.4867 10.0201 14.4 10.2534 14.4 10.5401C14.4 10.8268 14.4933 11.0668 14.68 11.2534C14.8667 11.4401 15.1067 11.5334 15.4 11.5334Z" fill="#222343"/>
</svg>
