<svg width="32" height="32" viewBox="0 0 32 32" fill="none" xmlns="http://www.w3.org/2000/svg">
<g opacity="0.85">
<path d="M7.46667 24.6533C8.53442 24.6533 9.4 23.7878 9.4 22.72C9.4 21.6523 8.53442 20.7867 7.46667 20.7867C6.39892 20.7867 5.53333 21.6523 5.53333 22.72C5.53333 23.7878 6.39892 24.6533 7.46667 24.6533Z" fill="#25CBDB"/>
<path d="M24.3667 24.6533C25.4344 24.6533 26.3 23.7878 26.3 22.72C26.3 21.6523 25.4344 20.7867 24.3667 20.7867C23.2989 20.7867 22.4333 21.6523 22.4333 22.72C22.4333 23.7878 23.2989 24.6533 24.3667 24.6533Z" fill="#25CBDB"/>
<path d="M4.14666 6.16675C3.14666 6.16675 2.33333 6.98008 2.33333 7.98008V21.9001H4.32666L7.45999 19.5601L10.58 21.9001H21.62V6.16675H4.13999H4.14666Z" fill="#25CBDB"/>
<path d="M28.8333 17.8467L25.1333 12.92H22.6333V17.8467H28.8333Z" fill="#25CBDB"/>
</g>
<path d="M7.46666 26.6533C6.37999 26.6533 5.45333 26.2667 4.68 25.5067C3.91333 24.74 3.53333 23.8133 3.53333 22.72H1.33333V7.34668C1.33333 6.81335 1.53333 6.34668 1.93333 5.94668C2.33333 5.54668 2.79999 5.34668 3.33333 5.34668H22.6333V10.9133H26.1333L30.6667 16.9467V22.7133H28.3C28.3 23.8 27.9133 24.7333 27.1533 25.4933C26.3933 26.2533 25.46 26.6467 24.3667 26.6467C23.2733 26.6467 22.3467 26.26 21.5867 25.5C20.82 24.7333 20.4333 23.8067 20.4333 22.7133H11.4C11.4 23.8 11.0133 24.7333 10.2467 25.4933C9.48 26.26 8.55333 26.6467 7.45999 26.6467L7.46666 26.6533ZM7.46666 24.6533C7.99999 24.6533 8.45333 24.4667 8.83333 24.0867C9.21333 23.7067 9.4 23.2533 9.4 22.72C9.4 22.1867 9.21333 21.7333 8.83333 21.3533C8.45333 20.9733 7.99999 20.7867 7.46666 20.7867C6.93333 20.7867 6.47999 20.9733 6.09999 21.3533C5.71999 21.7333 5.53333 22.1867 5.53333 22.72C5.53333 23.2533 5.71999 23.7067 6.09999 24.0867C6.47999 24.4667 6.93333 24.6533 7.46666 24.6533ZM3.33333 20.72H4.06666C4.44666 20.12 4.92 19.64 5.5 19.2867C6.08 18.9333 6.71999 18.7533 7.43333 18.7533C8.14666 18.7533 8.79333 18.9333 9.38666 19.3067C9.97333 19.6733 10.46 20.1467 10.84 20.72H20.64V7.34668H3.33333V20.7133V20.72ZM24.3667 24.6533C24.9 24.6533 25.3533 24.4667 25.7333 24.0867C26.1133 23.7067 26.3 23.2533 26.3 22.72C26.3 22.1867 26.1133 21.7333 25.7333 21.3533C25.3533 20.9733 24.9 20.7867 24.3667 20.7867C23.8333 20.7867 23.38 20.9733 23 21.3533C22.62 21.7333 22.4333 22.1867 22.4333 22.72C22.4333 23.2533 22.62 23.7067 23 24.0867C23.38 24.4667 23.8333 24.6533 24.3667 24.6533ZM22.6333 17.8533H28.8333L25.1333 12.92H22.6333V17.8533V17.8533Z" fill="#222343"/>
</svg>
