<svg width="32" height="32" viewBox="0 0 32 32" fill="none" xmlns="http://www.w3.org/2000/svg">
<path opacity="0.52" d="M24.5666 29.3334H7.35331C6.92665 29.3334 6.49331 29.22 6.15998 28.96C5.61331 28.5334 5.33331 27.9934 5.33331 27.3334V12.9067C5.33331 12.3867 5.51331 11.88 5.86665 11.5C6.26665 11.0734 6.75331 10.8667 7.33331 10.8667H24.6266C25.1466 10.8667 25.6533 11.0467 26.0333 11.4C26.46 11.8 26.6666 12.2867 26.6666 12.8667V27.2334C26.6666 28.3934 25.7266 29.3334 24.5666 29.3334Z" fill="#25CBDB"/>
<path d="M20.3334 10.8668V7.76683C20.3334 6.54683 19.9134 5.50016 19.0667 4.6335C18.22 3.76683 17.2 3.3335 16 3.3335C14.8 3.3335 13.78 3.76683 12.9334 4.6335C12.0867 5.50016 11.6667 6.54683 11.6667 7.76683V10.8668H9.66669V7.76683C9.66669 5.98683 10.2867 4.46683 11.52 3.2135C12.7067 2.0135 14.3134 1.3335 16 1.3335C17.7534 1.3335 19.2467 1.96016 20.48 3.2135C21.7134 4.46683 22.3267 5.98683 22.3267 7.76016V10.8602H20.3267L20.3334 10.8668Z" fill="#222343"/>
<path d="M25.1 30.4667C23.3 30.4667 21.78 29.8467 20.5334 28.6001C19.2867 27.3534 18.6667 25.8334 18.6667 24.0334C18.6667 22.2334 19.2867 20.7134 20.5334 19.4667C21.78 18.2201 23.3 17.6001 25.1 17.6001C26.9 17.6001 28.42 18.2201 29.6667 19.4667C30.9134 20.7134 31.5334 22.2334 31.5334 24.0334C31.5334 25.8334 30.9134 27.3534 29.6667 28.6001C28.42 29.8467 26.9 30.4667 25.1 30.4667Z" fill="#222343"/>
<path d="M25.1 23.7001C25.72 23.7001 26.2533 23.4801 26.6867 23.0534C27.12 22.6268 27.3333 22.0934 27.3333 21.4734C27.3333 20.8534 27.1133 20.3268 26.6867 19.9068C26.2533 19.4868 25.7267 19.2734 25.1 19.2734C24.4733 19.2734 23.9867 19.4934 23.5467 19.9268C23.1133 20.3601 22.9 20.8801 22.9 21.4801C22.9 22.0801 23.12 22.6334 23.5467 23.0668C23.9733 23.5001 24.4933 23.7134 25.1 23.7134V23.7001Z" fill="#25CBDB"/>
<path d="M25.1 28.1334C25.8333 28.1334 26.52 27.9601 27.1667 27.6134C27.8133 27.2668 28.3333 26.7934 28.7333 26.2001C28.1533 25.8868 27.5667 25.6401 26.9667 25.4534C26.3667 25.2668 25.7467 25.1734 25.1 25.1734C24.4533 25.1734 23.8333 25.2668 23.2333 25.4534C22.6333 25.6401 22.0467 25.8934 21.4667 26.2001C21.8667 26.8001 22.3867 27.2734 23.0333 27.6134C23.68 27.9601 24.3667 28.1334 25.1 28.1334Z" fill="#25CBDB"/>
</svg>
