<svg width="32" height="32" viewBox="0 0 32 32" fill="none" xmlns="http://www.w3.org/2000/svg">
<path d="M29.3334 8.13989V24.6666C29.3334 25.1999 29.1334 25.6666 28.7334 26.0666C28.3334 26.4666 27.8667 26.6666 27.3334 26.6666L17.8934 19.5799L29.3334 8.13989Z" fill="#222343"/>
<path opacity="0.52" d="M27.3334 26.6666H4.66669C4.13335 26.6666 3.66669 26.4666 3.26669 26.0666C2.86669 25.6666 2.66669 25.1999 2.66669 24.6666V8.13989L17.8934 19.5799L27.3334 26.6666Z" fill="#25CBDB"/>
<path d="M29.3334 7.33325V8.13992L17.4134 20.0599C17.4134 20.0599 17.3934 20.0799 17.3867 20.0799C16.6134 20.8266 15.3867 20.8266 14.6134 20.0799C14.6067 20.0799 14.5934 20.0666 14.5867 20.0599L2.66669 8.13992V7.33325C2.66669 6.79992 2.86669 6.33325 3.26669 5.93325C3.66669 5.53325 4.13335 5.33325 4.66669 5.33325H27.3334C27.8667 5.33325 28.3334 5.53325 28.7334 5.93325C29.1334 6.33325 29.3334 6.79992 29.3334 7.33325Z" fill="#25CBDB"/>
</svg>
