<svg width="32" height="32" viewBox="0 0 32 32" fill="none" xmlns="http://www.w3.org/2000/svg">
<path d="M18.6667 21.3335C16.8201 21.3335 15.2467 20.6802 13.9467 19.3801C12.6467 18.0801 11.9934 16.5068 11.9934 14.6602C11.9934 12.8135 12.6467 11.2401 13.9467 9.94015C15.2467 8.64015 16.8201 7.98682 18.6667 7.98682C20.5134 7.98682 22.0867 8.64015 23.3867 9.94015C24.6867 11.2401 25.3401 12.8135 25.3401 14.6602C25.3401 15.3735 25.2267 16.0602 25.0067 16.7268C24.7867 17.3935 24.4534 18.0135 24.0067 18.5935L28.6401 23.2268C28.8401 23.4268 28.9401 23.6602 28.9401 23.9268C28.9401 24.1935 28.8401 24.4268 28.6401 24.6268C28.4401 24.8268 28.2067 24.9268 27.9401 24.9268C27.6734 24.9268 27.4401 24.8268 27.2401 24.6268L22.6067 19.9935C22.0267 20.4402 21.4067 20.7735 20.7401 20.9935C20.0734 21.2135 19.3867 21.3268 18.6734 21.3268L18.6667 21.3335ZM18.6601 19.3335C19.9534 19.3335 21.0601 18.8801 21.9667 17.9735C22.8801 17.0668 23.3334 15.9668 23.3334 14.6735C23.3334 13.3802 22.8801 12.2735 21.9734 11.3668C21.0667 10.4535 19.9667 10.0002 18.6734 10.0002C17.3801 10.0002 16.2734 10.4535 15.3667 11.3602C14.4534 12.2668 14.0001 13.3668 14.0001 14.6602C14.0001 15.9535 14.4534 17.0602 15.3601 17.9668C16.2667 18.8802 17.3667 19.3335 18.6601 19.3335Z" fill="#222343"/>
<g opacity="0.85">
<path d="M3.66675 25.3333C3.38008 25.3333 3.14675 25.24 2.95341 25.0467C2.76008 24.8533 2.66675 24.6133 2.66675 24.3267C2.66675 24.04 2.76008 23.8067 2.95341 23.6133C3.14675 23.4267 3.38008 23.3267 3.66675 23.3267H15.0001C15.2867 23.3267 15.5201 23.42 15.7134 23.6133C15.9067 23.8067 16.0001 24.0467 16.0001 24.3333C16.0001 24.62 15.9067 24.8533 15.7134 25.0467C15.5201 25.2333 15.2867 25.3333 15.0001 25.3333H3.66675Z" fill="#25CBDB"/>
<path d="M3.66675 18.3333C3.38008 18.3333 3.14675 18.24 2.95341 18.0467C2.76008 17.8533 2.66675 17.6133 2.66675 17.3267C2.66675 17.04 2.76008 16.8067 2.95341 16.6133C3.14675 16.4267 3.38008 16.3267 3.66675 16.3267H8.33341C8.62008 16.3267 8.85341 16.42 9.04675 16.6133C9.24008 16.8067 9.33341 17.0467 9.33341 17.3333C9.33341 17.62 9.24008 17.8533 9.04675 18.0467C8.85341 18.2333 8.62008 18.3333 8.33341 18.3333H3.66675Z" fill="#25CBDB"/>
<path d="M3.66675 11.3333C3.38008 11.3333 3.14675 11.24 2.95341 11.0467C2.76008 10.8533 2.66675 10.6133 2.66675 10.3267C2.66675 10.04 2.76008 9.80666 2.95341 9.61333C3.14675 9.42666 3.38008 9.32666 3.66675 9.32666H8.33341C8.62008 9.32666 8.85341 9.41999 9.04675 9.61333C9.24008 9.80666 9.33341 10.0467 9.33341 10.3333C9.33341 10.62 9.24008 10.8533 9.04675 11.0467C8.85341 11.2333 8.62008 11.3333 8.33341 11.3333H3.66675Z" fill="#25CBDB"/>
</g>
</svg>
