<svg width="32" height="32" viewBox="0 0 32 32" fill="none" xmlns="http://www.w3.org/2000/svg">
<path d="M3.76669 7.64669L13.1 2.94669C13.6667 2.66002 14.3334 2.66002 14.9 2.94669L24.2334 7.64669C24.9067 7.98669 25.3334 8.68002 25.3334 9.43336V20.8667C25.3334 21.9734 24.44 22.8667 23.3334 22.8667H4.66669C3.56002 22.8667 2.66669 21.9734 2.66669 20.8667V9.43336C2.66669 8.68002 3.09335 7.98669 3.76669 7.64669Z" fill="#222343"/>
<path opacity="0.85" d="M29.3334 11.6399V25.9732C29.3334 27.0799 28.44 27.9732 27.3334 27.9732H25.3067L19.1534 21.8199L29.3334 11.6399Z" fill="#25CBDB"/>
<path d="M29.3334 11.3333V11.6399L19.1534 21.8199L18.7467 22.2266C17.9667 23.0066 16.7 23.0066 15.92 22.2266L5.33337 11.6399V11.3333C5.33337 10.4333 5.92671 9.66659 6.75337 9.41992C6.93337 9.36659 7.13337 9.33325 7.33337 9.33325H27.3334C27.5334 9.33325 27.7334 9.36659 27.9134 9.41992C28.74 9.66659 29.3334 10.4333 29.3334 11.3333Z" fill="#25CBDB"/>
<path opacity="0.52" d="M25.3067 27.9732H7.33337C6.22671 27.9732 5.33337 27.0799 5.33337 25.9732V11.6399L15.92 22.2266C16.7 23.0066 17.9667 23.0066 18.7467 22.2266L19.1534 21.8199L25.3067 27.9732Z" fill="#25CBDB"/>
</svg>
