<svg width="32" height="32" viewBox="0 0 32 32" fill="none" xmlns="http://www.w3.org/2000/svg">
<path opacity="0.52" d="M12 27.2001L16.0017 20.2669L20.0067 27.2001L21.7467 23.0535L26.18 23.6068L20.1267 13.1201H11.8733L5.82001 23.6068L10.2533 23.0535L12 27.2001Z" fill="#25CBDB"/>
<path d="M16.4733 4.38003L18.02 3.79336C18.6067 3.57336 19.2667 3.7867 19.6133 4.31336L20.52 5.70003C20.7 5.97336 20.9733 6.17336 21.2867 6.26003L22.88 6.69336C23.4867 6.86003 23.8933 7.42003 23.86 8.0467L23.78 9.70003C23.7667 10.0267 23.8667 10.3467 24.0733 10.6L25.1133 11.8867C25.5067 12.3734 25.5067 13.0734 25.1133 13.56L24.0733 14.8467C23.8667 15.1 23.7667 15.42 23.78 15.7467L23.86 17.4C23.8933 18.0267 23.48 18.5867 22.88 18.7534L21.2867 19.1867C20.9733 19.2734 20.7 19.4734 20.52 19.7467L19.6133 21.1334C19.2733 21.66 18.6067 21.8734 18.02 21.6534L16.4733 21.0667C16.1667 20.9534 15.8267 20.9534 15.5267 21.0667L13.98 21.6534C13.3933 21.8734 12.7333 21.66 12.3867 21.1334L11.48 19.7467C11.3 19.4734 11.0267 19.2734 10.7133 19.1867L9.11999 18.7534C8.51333 18.5867 8.10666 18.0267 8.13999 17.4L8.21999 15.7467C8.23333 15.42 8.13333 15.1 7.92666 14.8467L6.88666 13.56C6.49333 13.0734 6.49333 12.3734 6.88666 11.8867L7.92666 10.6C8.13333 10.3467 8.23333 10.0267 8.21999 9.70003L8.13999 8.0467C8.10666 7.42003 8.51999 6.86003 9.11999 6.69336L10.7133 6.26003C11.0267 6.17336 11.3 5.97336 11.48 5.70003L12.3867 4.31336C12.7267 3.7867 13.3933 3.57336 13.98 3.79336L15.5267 4.38003C15.8333 4.49336 16.1733 4.49336 16.4733 4.38003V4.38003Z" fill="#222343"/>
<path opacity="0.85" d="M16 18.7533C19.3358 18.7533 22.04 16.0491 22.04 12.7133C22.04 9.37754 19.3358 6.67334 16 6.67334C12.6642 6.67334 9.96001 9.37754 9.96001 12.7133C9.96001 16.0491 12.6642 18.7533 16 18.7533Z" fill="#25CBDB"/>
<path d="M16 17.0065C15.4467 17.0065 15 16.5599 15 16.0065V11.8399L14.9733 11.8665C14.5867 12.2599 13.9467 12.2599 13.56 11.8665C13.1733 11.4732 13.1667 10.8399 13.56 10.4532L15.2933 8.71988C15.58 8.43321 16.0067 8.34655 16.38 8.49988C16.7533 8.65321 17 9.01988 17 9.42655V16.0065C17 16.5599 16.5533 17.0065 16 17.0065V17.0065Z" fill="#222343"/>
</svg>
