<svg width="32" height="32" viewBox="0 0 32 32" fill="none" xmlns="http://www.w3.org/2000/svg">
<path opacity="0.85" d="M26.3466 7.49318C27.1266 8.27318 27.1266 9.53984 26.3466 10.3198L20.2333 16.4265H20.2266L15.9933 12.1865L17.5066 10.6665L22.8333 5.33984H23.36C23.8933 5.33984 24.4 5.55318 24.7733 5.92651L26.34 7.49318H26.3466Z" fill="#222343"/>
<path d="M22.84 5.33984L17.5133 10.6598H14.48L9.15332 5.33984H22.84Z" fill="#222343"/>
<path opacity="0.52" d="M22 20.6599C22 22.3199 21.3267 23.8199 20.24 24.9066C19.16 25.9866 17.6533 26.6599 16 26.6599C14.3467 26.6599 12.84 25.9866 11.76 24.9066C10.6733 23.8199 10 22.3199 10 20.6599C10 18.9999 10.6733 17.5132 11.76 16.4266C11.8267 16.3532 11.8933 16.2866 11.9667 16.2199C13.0267 15.2532 14.4533 14.6599 16 14.6599C17.5467 14.6599 18.9733 15.2532 20.0333 16.2199C20.1067 16.2866 20.1733 16.3532 20.24 16.4199C20.3067 16.4866 20.3733 16.5599 20.44 16.6266C21.4067 17.6932 22 19.1066 22 20.6599Z" fill="#25CBDB"/>
<g opacity="0.85">
<path d="M20.0333 16.2265C18.9733 15.2598 17.5466 14.6665 16 14.6665C14.4533 14.6665 13.0266 15.2598 11.9666 16.2265C11.8933 16.2932 11.8266 16.3598 11.76 16.4265H11.7533L5.6533 10.3265C4.8733 9.54651 4.8733 8.27984 5.6533 7.49984L7.21997 5.92651C7.5933 5.55318 8.10663 5.33984 8.6333 5.33984H9.1533L20.0333 16.2265Z" fill="#25CBDB"/>
<path d="M16 24.3198C18.0176 24.3198 19.6533 22.6842 19.6533 20.6665C19.6533 18.6488 18.0176 17.0132 16 17.0132C13.9823 17.0132 12.3466 18.6488 12.3466 20.6665C12.3466 22.6842 13.9823 24.3198 16 24.3198Z" fill="#25CBDB"/>
</g>
</svg>
