<svg width="32" height="32" viewBox="0 0 32 32" fill="none" xmlns="http://www.w3.org/2000/svg">
<g opacity="0.52">
<path d="M22.6666 25.3333C22.1333 25.3333 21.6666 25.1333 21.2666 24.7333C20.8666 24.3333 20.6666 23.8667 20.6666 23.3333V18.5C20.6666 17.9667 20.8666 17.5 21.2666 17.1C21.6666 16.7 22.1333 16.5 22.6666 16.5H25.9999C26.5333 16.5 26.9999 16.7 27.3999 17.1C27.7999 17.5 27.9999 17.9667 27.9999 18.5V23.3333C27.9999 23.8667 27.7999 24.3333 27.3999 24.7333C26.9999 25.1333 26.5333 25.3333 25.9999 25.3333H22.6666Z" fill="#25CBDB"/>
<path d="M14.3333 25.3333C13.7999 25.3333 13.3333 25.1333 12.9333 24.7333C12.5333 24.3333 12.3333 23.8667 12.3333 23.3333V18.5C12.3333 17.9667 12.5333 17.5 12.9333 17.1C13.3333 16.7 13.7999 16.5 14.3333 16.5H17.6666C18.1999 16.5 18.6666 16.7 19.0666 17.1C19.4666 17.5 19.6666 17.9667 19.6666 18.5V23.3333C19.6666 23.8667 19.4666 24.3333 19.0666 24.7333C18.6666 25.1333 18.1999 25.3333 17.6666 25.3333H14.3333Z" fill="#25CBDB"/>
</g>
<path d="M14.3335 15.5003C13.8002 15.5003 13.3335 15.3003 12.9335 14.9003C12.5335 14.5003 12.3335 14.0337 12.3335 13.5003V8.66699C12.3335 8.13366 12.5335 7.66699 12.9335 7.26699C13.3335 6.86699 13.8002 6.66699 14.3335 6.66699H26.0002C26.5335 6.66699 27.0002 6.86699 27.4002 7.26699C27.8002 7.66699 28.0002 8.13366 28.0002 8.66699V13.5003C28.0002 14.0337 27.8002 14.5003 27.4002 14.9003C27.0002 15.3003 26.5335 15.5003 26.0002 15.5003H14.3335Z" fill="#25CBDB"/>
<path d="M6 25.3333C5.46667 25.3333 5 25.1333 4.6 24.7333C4.2 24.3333 4 23.8666 4 23.3333V8.66663C4 8.13329 4.2 7.66663 4.6 7.26663C5 6.86663 5.46667 6.66663 6 6.66663H9.33333C9.86667 6.66663 10.3333 6.86663 10.7333 7.26663C11.1333 7.66663 11.3333 8.13329 11.3333 8.66663V23.3333C11.3333 23.8666 11.1333 24.3333 10.7333 24.7333C10.3333 25.1333 9.86667 25.3333 9.33333 25.3333H6Z" fill="#222343"/>
</svg>
