<svg width="32" height="32" viewBox="0 0 32 32" fill="none" xmlns="http://www.w3.org/2000/svg">
<path opacity="0.52" d="M17.0332 26.0001V18.9668C17.0332 17.8601 17.9265 16.9668 19.0332 16.9668H25.9999C27.1065 16.9668 27.9999 17.8601 27.9999 18.9668V26.0001C27.9999 26.5335 27.7999 27.0001 27.3999 27.4001C26.9999 27.8001 26.5332 28.0001 25.9999 28.0001H19.0332C17.9265 28.0001 17.0332 27.1068 17.0332 26.0001Z" fill="#25CBDB"/>
<path d="M17.0334 12.9667V6C17.0334 4.89333 17.9268 4 19.0334 4H26.0001C26.5334 4 27.0001 4.2 27.4001 4.6C27.8001 5 28.0001 5.46667 28.0001 6V12.9667C28.0001 14.0733 27.1068 14.9667 26.0001 14.9667H19.0334C17.9268 14.9667 17.0334 14.0733 17.0334 12.9667Z" fill="#25CBDB"/>
<path d="M15.0333 26C15.0333 27.1067 14.14 28 13.0333 28H6C5.46667 28 5 27.8 4.6 27.4C4.2 27 4 26.5333 4 26V6C4 5.46667 4.2 5 4.6 4.6C5 4.2 5.46667 4 6 4H13.0333C14.14 4 15.0333 4.89333 15.0333 6V26Z" fill="#222343"/>
</svg>
