<svg width="32" height="32" viewBox="0 0 32 32" fill="none" xmlns="http://www.w3.org/2000/svg">
<path opacity="0.52" d="M19.3666 6.66683V15.0335C19.3666 16.0135 19.0466 16.8468 18.4 17.5335C18 17.9602 17.5333 18.2535 17.0133 18.4135L12.6333 14.0335V6.66683C12.6333 5.74016 12.96 4.9535 13.6133 4.30683C14.2666 3.6535 15.06 3.3335 16 3.3335C16.94 3.3335 17.7266 3.6535 18.38 4.30683C19.04 4.9535 19.3666 5.74016 19.3666 6.66683Z" fill="#25CBDB"/>
<path d="M27.3334 28.3333C27.08 28.3333 26.82 28.2333 26.6267 28.04L3.96004 5.37332C3.56671 4.97999 3.56671 4.34665 3.96004 3.95999C4.35337 3.57332 4.98671 3.56665 5.37337 3.95999L28.04 26.6267C28.4334 27.02 28.4334 27.6533 28.04 28.04C27.8467 28.2333 27.5867 28.3333 27.3334 28.3333Z" fill="#222343"/>
<g opacity="0.85">
<path d="M25.2667 16.0665C25.02 18.2199 24.12 20.0399 22.5667 21.5332C22.14 21.9399 21.6867 22.2999 21.2133 22.6132L19.7867 21.1865C20.1267 20.9799 20.46 20.7465 20.78 20.4799C22.1733 19.3399 23 17.8665 23.2667 16.0665C23.3133 15.7732 23.4267 15.5332 23.62 15.3332C23.8133 15.1332 24.0533 15.0332 24.34 15.0332C24.6267 15.0332 24.86 15.1332 25.0467 15.3332C25.24 15.5332 25.3133 15.7799 25.2667 16.0665Z" fill="#222343"/>
<path d="M19.7867 21.1865C19.1533 21.5599 18.48 21.8265 17.7733 21.9999C17.2 22.1332 16.6067 22.1999 15.9867 22.1999C14.2067 22.1999 12.62 21.6265 11.2267 20.4799C9.83334 19.3399 9 17.8665 8.73334 16.0665C8.68667 15.7732 8.57334 15.5332 8.38 15.3332C8.19334 15.1332 7.95334 15.0332 7.66667 15.0332C7.38 15.0332 7.14667 15.1332 6.95334 15.3332C6.76 15.5332 6.68667 15.7799 6.73334 16.0665C6.98 18.2399 7.88 20.0732 9.44667 21.5465C11.0133 23.0265 12.8667 23.8865 15 24.1332V27.6665C15 27.9465 15.0933 28.1865 15.28 28.3799C15.4733 28.5665 15.7067 28.6665 15.9933 28.6665C16.28 28.6665 16.52 28.5665 16.7133 28.3799C16.9067 28.1865 17 27.9465 17 27.6665V24.1332C17.8267 24.0332 18.6067 23.8532 19.3467 23.5732C20.0067 23.3265 20.6267 23.0132 21.2133 22.6132L19.7867 21.1865Z" fill="#222343"/>
</g>
<path opacity="0.52" d="M21.2134 22.6132C20.6268 23.0132 20.0068 23.3265 19.3468 23.5732L17.7734 21.9999C18.4801 21.8265 19.1534 21.5599 19.7868 21.1865L21.2134 22.6132Z" fill="#222343"/>
<path d="M17.0133 18.4132C16.7 18.5199 16.36 18.5665 16 18.5665C15.0466 18.5665 14.2466 18.2199 13.6 17.5332C12.9533 16.8465 12.6333 16.0132 12.6333 15.0332V14.0332L17.0133 18.4132Z" fill="#25CBDB"/>
</svg>
