<svg width="32" height="32" viewBox="0 0 32 32" fill="none" xmlns="http://www.w3.org/2000/svg">
<path opacity="0.52" d="M26.0867 9.91333C25.7 9.52666 25.2267 9.32666 24.6733 9.32666H3.33333C2.77999 9.32666 2.30666 9.51999 1.92 9.91333C1.53333 10.3067 1.33333 10.7733 1.33333 11.3267V24.66C1.33333 25.2133 1.52666 25.6867 1.92 26.0733C2.31333 26.46 2.77999 26.66 3.33333 26.66H24.6667C25.22 26.66 25.6933 26.4667 26.08 26.0733C26.4667 25.68 26.6667 25.2133 26.6667 24.66V11.3333C26.6667 10.78 26.4733 10.3067 26.08 9.91999L26.0867 9.91333Z" fill="#25CBDB"/>
<rect x="7.33333" y="7.33325" width="21.33" height="13.33" fill="#25CBDB"/>
<path d="M18 17.9999C16.8867 17.9999 15.9467 17.6133 15.1667 16.8333C14.3867 16.0533 14 15.1133 14 13.9999C14 12.8866 14.3867 11.9466 15.1667 11.1666C15.9467 10.3866 16.8867 9.99992 18 9.99992C19.1133 9.99992 20.0533 10.3866 20.8333 11.1666C21.6133 11.9466 22 12.8866 22 13.9999C22 15.1133 21.6133 16.0533 20.8333 16.8333C20.0533 17.6133 19.1133 17.9999 18 17.9999ZM7.33333 22.6666C6.77999 22.6666 6.30666 22.4733 5.92 22.0799C5.53333 21.6866 5.33333 21.2199 5.33333 20.6666V7.33325C5.33333 6.77992 5.52666 6.30659 5.92 5.91992C6.31333 5.53325 6.77999 5.33325 7.33333 5.33325H28.6667C29.22 5.33325 29.6933 5.52659 30.08 5.91992C30.4667 6.31325 30.6667 6.77992 30.6667 7.33325V20.6666C30.6667 21.2199 30.4733 21.6933 30.08 22.0799C29.6867 22.4666 29.22 22.6666 28.6667 22.6666H7.33333ZM10.6667 20.6666H25.3333C25.3333 19.7333 25.6533 18.9466 26.3 18.2999C26.9467 17.6533 27.7333 17.3333 28.6667 17.3333V10.6666C27.7333 10.6666 26.9467 10.3466 26.3 9.69992C25.6533 9.05325 25.3333 8.26659 25.3333 7.33325H10.6667C10.6667 8.26659 10.3467 9.05325 9.7 9.69992C9.05333 10.3466 8.26666 10.6666 7.33333 10.6666V17.3333C8.26666 17.3333 9.05333 17.6533 9.7 18.2999C10.3467 18.9466 10.6667 19.7333 10.6667 20.6666Z" fill="#222343"/>
</svg>
