<svg width="32" height="32" viewBox="0 0 32 32" fill="none" xmlns="http://www.w3.org/2000/svg">
<path opacity="0.52" d="M16 29.3333C14.18 29.3333 12.4534 28.9867 10.8334 28.28C9.21335 27.58 7.79335 26.6267 6.58002 25.4133C5.36669 24.2 4.41335 22.7867 3.71335 21.16C3.01335 19.54 2.66669 17.8067 2.66669 15.96C2.66669 14.1133 3.02002 12.4133 3.71335 10.7933C4.41335 9.17332 5.36669 7.75999 6.58002 6.55999C7.79335 5.35999 9.20669 4.41332 10.8334 3.70665C12.4534 3.00665 14.1867 2.65332 16.0334 2.65332C17.88 2.65332 19.58 3.00665 21.2 3.69999C22.82 4.39999 24.2334 5.35332 25.4334 6.55332C26.6334 7.75332 27.5867 9.16665 28.2867 10.7867C28.9867 12.4067 29.34 14.14 29.34 15.9867C29.34 17.8333 28.9934 19.5333 28.2867 21.1533C27.5867 22.7733 26.6334 24.1933 25.4334 25.4067C24.2334 26.62 22.82 27.5733 21.2 28.2733C19.58 28.9733 17.8467 29.3267 16 29.3267V29.3333Z" fill="#25CBDB"/>
<path d="M20.8666 14.2334C21.38 14.2334 21.8066 14.06 22.1533 13.7134C22.5 13.3667 22.6666 12.94 22.6666 12.4267C22.6666 11.9134 22.4933 11.4867 22.1533 11.1467C21.8066 10.8 21.38 10.6267 20.8666 10.6267C20.3533 10.6267 19.9266 10.8 19.5866 11.1467C19.24 11.4934 19.0733 11.92 19.0733 12.4267C19.0733 12.9334 19.2466 13.3667 19.5866 13.7134C19.9266 14.06 20.36 14.2334 20.8666 14.2334Z" fill="#222343"/>
<path d="M11.1333 14.2334C11.6466 14.2334 12.0733 14.06 12.4133 13.7134C12.7533 13.3667 12.9333 12.94 12.9333 12.4267C12.9333 11.9134 12.76 11.4867 12.4133 11.1467C12.0666 10.8 11.64 10.6267 11.1333 10.6267C10.6266 10.6267 10.1933 10.8 9.85331 11.1467C9.50665 11.4934 9.33331 11.92 9.33331 12.4267C9.33331 12.9334 9.50665 13.3667 9.85331 13.7134C10.2 14.06 10.6266 14.2334 11.1333 14.2334Z" fill="#222343"/>
<path d="M10.4 18.9C10.0866 18.9 9.86665 19 9.73331 19.2C9.59998 19.4 9.61998 19.6334 9.79998 19.9C10.4466 20.9667 11.32 21.8 12.4333 22.4C13.5466 23 14.7333 23.3 16 23.3C17.2666 23.3 18.46 23 19.5866 22.4C20.7066 21.8 21.5933 20.9667 22.24 19.9C22.42 19.6334 22.4333 19.4 22.2866 19.2C22.14 19 21.9133 18.9 21.6066 18.9H10.4Z" fill="#222343"/>
</svg>
