<svg width="32" height="32" viewBox="0 0 32 32" fill="none" xmlns="http://www.w3.org/2000/svg">
<path d="M13.3334 25.3334V26.6667C13.3334 27.4 13.5934 28.0267 14.1134 28.5467C14.6334 29.0667 15.26 29.3334 16 29.3334C16.74 29.3334 17.36 29.0734 17.88 28.5467C18.4 28.0267 18.6667 27.4 18.6667 26.6667V25.3334H13.3334Z" fill="#222343"/>
<path opacity="0.85" d="M6.33333 25.3333C6.04666 25.3333 5.80666 25.24 5.61333 25.0467C5.41999 24.8533 5.32666 24.62 5.32666 24.3267C5.32666 24.0333 5.41999 23.8 5.61333 23.6067C5.79999 23.42 6.03999 23.32 6.33333 23.32H7.99999V13.1867C7.99999 11.32 8.55333 9.64668 9.65333 8.16668C10.7533 6.68668 12.2067 5.76001 14.0067 5.38001V4.64668C14.0067 4.09335 14.2 3.62001 14.5933 3.22668C14.9867 2.83335 15.4533 2.64001 16.0133 2.64001C16.5733 2.64001 17.04 2.83335 17.4333 3.22668C17.82 3.61335 18.02 4.08668 18.02 4.64668V5.38001C19.82 5.76001 21.2733 6.68668 22.3733 8.16668C23.4733 9.64668 24.0267 11.32 24.0267 13.1867V23.32H25.6933C25.98 23.32 26.22 23.4133 26.4133 23.6067C26.6 23.7933 26.7 24.0333 26.7 24.3267C26.7 24.62 26.6067 24.8533 26.4133 25.0467C26.22 25.24 25.9867 25.3333 25.6933 25.3333H6.33333Z" fill="#25CBDB"/>
</svg>
