<svg width="32" height="32" viewBox="0 0 32 32" fill="none" xmlns="http://www.w3.org/2000/svg">
<path opacity="0.85" d="M6.33333 25.3332C6.04666 25.3332 5.80666 25.2399 5.61333 25.0466C5.41999 24.8532 5.32666 24.6199 5.32666 24.3266C5.32666 24.0332 5.41999 23.7999 5.61333 23.6066C5.79999 23.4199 6.03999 23.3199 6.33333 23.3199H7.99999V13.1866C7.99999 11.3199 8.55333 9.64656 9.65333 8.16656C10.7533 6.68656 12.2067 5.75989 14.0067 5.37989V4.64656C14.0067 4.09323 14.2 3.61989 14.5933 3.22656C14.9867 2.83323 15.4533 2.63989 16.0133 2.63989C16.5733 2.63989 17.04 2.83323 17.4333 3.22656C17.82 3.61323 18.02 4.08656 18.02 4.64656V5.37989C19.82 5.75989 21.2733 6.68656 22.3733 8.16656C23.4733 9.64656 24.0267 11.3199 24.0267 13.1866V23.3199H25.6933C25.98 23.3199 26.22 23.4132 26.4133 23.6066C26.6 23.7932 26.7 24.0332 26.7 24.3266C26.7 24.6199 26.6067 24.8532 26.4133 25.0466C26.22 25.2399 25.9867 25.3332 25.6933 25.3332H6.33333Z" fill="#25CBDB"/>
<path d="M13.3334 25.3333V26.6666C13.3334 27.3999 13.5934 28.0266 14.1134 28.5466C14.6334 29.0666 15.2601 29.3333 16.0001 29.3333C16.7401 29.3333 17.3601 29.0732 17.8801 28.5466C18.4001 28.0266 18.6667 27.3999 18.6667 26.6666V25.3333H13.3334Z" fill="#222343"/>
<path d="M5.00008 13.1333C4.71341 13.1333 4.47341 13.0332 4.28008 12.8332C4.09341 12.6332 4.00674 12.3866 4.02674 12.0999C4.16008 10.5199 4.58008 9.05325 5.29341 7.69992C6.00674 6.34658 6.92674 5.16658 8.06008 4.16658C8.28008 3.96658 8.53341 3.87325 8.81341 3.87992C9.09341 3.88658 9.32008 4.01992 9.50008 4.26658C9.68008 4.51325 9.74008 4.77325 9.68674 5.05325C9.63341 5.33325 9.49341 5.57325 9.26674 5.77325C8.38008 6.57325 7.65341 7.50658 7.10008 8.57325C6.54674 9.63992 6.20008 10.8066 6.06674 12.0732C6.02008 12.3866 5.90674 12.6399 5.71341 12.8399C5.52008 13.0399 5.28674 13.1399 4.99341 13.1399L5.00008 13.1333Z" fill="#222343"/>
<path d="M27.0001 13.1333C26.7134 13.1333 26.4734 13.0332 26.2801 12.8333C26.0867 12.6333 25.9734 12.3799 25.9267 12.0666C25.7934 10.7999 25.4467 9.63325 24.8934 8.56658C24.3401 7.49992 23.6134 6.56658 22.7267 5.76658C22.5067 5.56658 22.3667 5.32658 22.3067 5.04658C22.2467 4.76658 22.3067 4.50658 22.4934 4.25992C22.6801 4.01325 22.9001 3.88658 23.1801 3.87325C23.4601 3.85992 23.7067 3.95992 23.9334 4.15992C25.0667 5.15992 25.9867 6.33992 26.7001 7.69325C27.4134 9.04658 27.8334 10.5132 27.9667 12.0932C27.9867 12.3799 27.9067 12.6266 27.7134 12.8266C27.5201 13.0266 27.2867 13.1266 26.9934 13.1266L27.0001 13.1333Z" fill="#222343"/>
</svg>
