<svg width="32" height="32" viewBox="0 0 32 32" fill="none" xmlns="http://www.w3.org/2000/svg">
<path d="M16.3 9.34007C16.2 9.3334 16.1 9.3334 16 9.3334C15.3334 9.3334 14.6867 9.40007 14.06 9.5334H14C13.42 9.42007 12.8667 9.26007 12.3334 9.04673C11.8 8.84007 11.32 8.52007 10.9 8.10007C10.28 7.4534 9.86004 6.70673 9.65337 5.86673C9.44004 5.02007 9.33337 4.1534 9.33337 3.26673V2.66673C11.2467 2.62007 12.8867 3.24673 14.2667 4.54673C15.6467 5.84673 16.32 7.44673 16.3 9.34007Z" fill="#25CBDB"/>
<path d="M21.2334 5.06665C21.2334 5.33332 21.1334 5.56665 20.9334 5.76665C20.38 6.31998 19.88 6.91998 19.4334 7.56665C18.9867 8.20665 18.6134 8.88665 18.3 9.59998H18.2067C17.5934 9.44665 16.9534 9.35998 16.3 9.33998C16.6067 8.37998 17.0534 7.48665 17.62 6.66665C18.1867 5.83998 18.82 5.07332 19.5334 4.36665C19.7334 4.16665 19.9667 4.06665 20.2334 4.06665C20.5 4.06665 20.7334 4.16665 20.9334 4.36665C21.1334 4.56665 21.2334 4.79998 21.2334 5.06665Z" fill="#222343"/>
<path opacity="0.52" d="M16 27.9999C21.1546 27.9999 25.3333 23.8212 25.3333 18.6666C25.3333 13.5119 21.1546 9.33325 16 9.33325C10.8453 9.33325 6.66663 13.5119 6.66663 18.6666C6.66663 23.8212 10.8453 27.9999 16 27.9999Z" fill="#25CBDB"/>
</svg>
