<svg width="32" height="32" viewBox="0 0 32 32" fill="none" xmlns="http://www.w3.org/2000/svg">
<path opacity="0.52" d="M27.4133 4.57995C27.0267 4.19329 26.5533 3.99329 26 3.99329H6C5.44667 3.99329 4.97333 4.18662 4.58667 4.57995C4.2 4.96662 4 5.43995 4 5.99329V29.0933C4.12667 29.0933 4.24667 29.04 4.35333 28.9333C4.35333 28.9333 4.35333 28.9333 4.36 28.9333L5.62667 27.6666C5.74 27.5533 5.86 27.5 5.99333 27.5C6.12667 27.5 6.24667 27.5533 6.36 27.6666L7.62667 28.9333C7.74 29.0466 7.86 29.1 7.99333 29.1C8.12667 29.1 8.24667 29.0466 8.36 28.9333L9.62667 27.6666C9.74 27.5533 9.86 27.5 9.99333 27.5C10.1267 27.5 10.2467 27.5533 10.36 27.6666L11.6267 28.9333C11.74 29.0466 11.86 29.1 11.9933 29.1C12.1267 29.1 12.2467 29.0466 12.36 28.9333L13.6267 27.6666C13.74 27.5533 13.86 27.5 13.9933 27.5C14.1267 27.5 14.2467 27.5533 14.36 27.6666L15.6267 28.9333C15.74 29.0466 15.86 29.1 15.9933 29.1C16.1267 29.1 16.2467 29.0466 16.36 28.9333L17.6267 27.6666C17.74 27.5533 17.86 27.5 17.9933 27.5C18.1267 27.5 18.2467 27.5533 18.36 27.6666L19.6267 28.9333C19.74 29.0466 19.86 29.1 19.9933 29.1C20.1267 29.1 20.2467 29.0466 20.36 28.9333L21.6267 27.6666C21.74 27.5533 21.86 27.5 21.9933 27.5C22.1267 27.5 22.2467 27.5533 22.36 27.6666L23.6267 28.9333C23.74 29.0466 23.86 29.1 23.9933 29.1C24.1267 29.1 24.2467 29.0466 24.36 28.9333L25.6267 27.6666C25.74 27.5533 25.86 27.5 25.9933 27.5C26.1267 27.5 26.2467 27.5533 26.36 27.6666L27.6267 28.9333C27.6267 28.9333 27.6267 28.9333 27.6333 28.9333C27.74 29.04 27.86 29.0933 27.9867 29.0933V5.99995C27.9867 5.44662 27.7933 4.97329 27.4 4.58662L27.4133 4.57995Z" fill="#25CBDB"/>
<path d="M9 22.7H15.5533C15.84 22.7 16.08 22.6066 16.2733 22.42C16.4667 22.2333 16.5533 21.9933 16.5533 21.7C16.5533 21.4066 16.46 21.1733 16.2733 20.98C16.0867 20.7866 15.8467 20.6933 15.5533 20.7H9C8.71333 20.7 8.47333 20.7933 8.28667 20.98C8.1 21.1666 8.00667 21.4066 8 21.7C8 21.9866 8.09333 22.2266 8.28667 22.42C8.47333 22.6066 8.71333 22.7 9 22.7Z" fill="#222343"/>
<path d="M9 17H20.38C20.6667 17 20.9067 16.9066 21.1 16.72C21.2867 16.5333 21.38 16.2933 21.38 16C21.38 15.7066 21.2867 15.4733 21.1 15.28C20.9133 15.0933 20.6733 15 20.38 15H9C8.71333 15 8.47333 15.0933 8.28667 15.28C8.1 15.4666 8 15.7066 8 16C8 16.2933 8.09333 16.5266 8.28667 16.72C8.47333 16.9066 8.71333 17 9 17Z" fill="#222343"/>
<path d="M9 11.3H23C23.2867 11.3 23.5267 11.2066 23.72 11.02C23.9133 10.8333 24 10.5933 24 10.3066C24 10.02 23.9067 9.77997 23.72 9.59331C23.5333 9.40664 23.2933 9.30664 23 9.30664H9C8.71333 9.30664 8.47333 9.39997 8.28667 9.59331C8.1 9.77997 8 10.02 8 10.3066C8 10.5933 8.09333 10.8333 8.28667 11.02C8.47333 11.2066 8.71333 11.3 9 11.3Z" fill="#222343"/>
<path d="M28.8533 19.9533C27.62 18.72 26.1467 18.1 24.44 18.1C22.7333 18.1 21.2267 18.72 20.0067 19.9533C18.7867 21.1866 18.1733 22.6666 18.1733 24.4C18.1733 26.1333 18.7867 27.5533 20.0067 28.7866C21.2267 30.02 22.7067 30.6333 24.44 30.6333C26.1733 30.6333 27.62 30.0133 28.8533 28.7866C30.0867 27.5533 30.7 26.0933 30.7 24.4C30.7 22.7066 30.0867 21.18 28.8533 19.9533ZM27.4 23.5L24 26.8333C23.8467 26.9866 23.6667 27.0666 23.4667 27.0666C23.2667 27.0666 23.0867 26.9866 22.9333 26.8333L21.4667 25.3666C21.2667 25.1666 21.1667 24.9333 21.1667 24.6666C21.1667 24.4 21.2667 24.1666 21.4667 23.9666C21.6667 23.7666 21.9067 23.6666 22.1867 23.6666C22.4667 23.6666 22.7 23.7666 22.9 23.9666L23.4667 24.5333L25.9667 22.0666C26.1667 21.8666 26.4067 21.7666 26.6867 21.7666C26.9667 21.7666 27.2 21.8666 27.4 22.0666C27.6 22.2666 27.7 22.5066 27.7 22.7866C27.7 23.0666 27.6 23.3 27.4 23.5Z" fill="#222343"/>
</svg>
