<svg width="32" height="32" viewBox="0 0 32 32" fill="none" xmlns="http://www.w3.org/2000/svg">
<path opacity="0.52" d="M16 29.3333C14.1133 29.3333 12.3533 28.9933 10.7333 28.3133C9.11329 27.6333 7.69996 26.7 6.49996 25.5C5.29996 24.3 4.35996 22.8866 3.68663 21.2666C3.00663 19.6466 2.66663 17.8866 2.66663 16C2.66663 14.1133 3.00663 12.3866 3.68663 10.7666C4.36663 9.14663 5.30663 7.73329 6.49996 6.53329C7.69996 5.33329 9.11329 4.38663 10.7333 3.69996C12.3533 3.01329 14.1133 2.66663 16 2.66663C17.8866 2.66663 19.6133 3.01329 21.2333 3.69996C22.8533 4.38663 24.2666 5.33329 25.4666 6.53329C26.6666 7.73329 27.6133 9.14663 28.3 10.7666C28.9866 12.3866 29.3333 14.1333 29.3333 16C29.3333 17.8666 28.9866 19.6466 28.3 21.2666C27.6133 22.8866 26.6666 24.3 25.4666 25.5C24.2666 26.7 22.8533 27.64 21.2333 28.3133C19.6133 28.9933 17.8666 29.3333 16 29.3333Z" fill="#25CBDB"/>
<path opacity="0.52" fill-rule="evenodd" clip-rule="evenodd" d="M16 2.67334C14.1133 2.67334 12.3533 3.02001 10.7333 3.70667C9.11329 4.39334 7.69996 5.34001 6.49996 6.54001C5.29996 7.74001 4.35996 9.15334 3.67996 10.7733C2.99996 12.3933 2.66663 14.14 2.66663 16.0067C2.66663 17.8733 3.00663 19.6533 3.67996 21.2733C4.35996 22.8933 5.29996 24.3067 6.49996 25.5067C7.69996 26.7067 9.11329 27.6467 10.7333 28.3267C12.3533 29.0067 14.1133 29.34 16 29.34C17.8866 29.34 19.6133 29 21.2333 28.3267C22.8533 27.6467 24.2666 26.7067 25.4666 25.5067C26.6666 24.3067 27.6133 22.8933 28.3 21.2733C28.9866 19.6533 29.3333 17.8933 29.3333 16.0067C29.3333 14.12 28.9866 12.3933 28.3 10.7733C27.6133 9.15334 26.6666 7.74001 25.4666 6.54001C24.2666 5.34001 22.8533 4.39334 21.2333 3.70667C19.6133 3.02001 17.8666 2.67334 16 2.67334ZM16 4.66667C17.5866 4.66667 19.0866 4.96001 20.4533 5.54001C21.8333 6.12667 23.04 6.93334 24.0533 7.94667C25.0666 8.96001 25.8733 10.1733 26.46 11.5467C27.04 12.9133 27.3333 14.4133 27.3333 16C27.3333 17.5867 27.04 19.12 26.46 20.4867C25.8733 21.8667 25.0666 23.0733 24.0533 24.0867C23.0466 25.0933 21.8333 25.9 20.46 26.4733C19.0933 27.0467 17.5866 27.3333 16 27.3333C14.4133 27.3333 12.8733 27.04 11.5066 26.4733C10.1333 25.9 8.92663 25.1 7.91329 24.0867C6.90663 23.08 6.09996 21.8667 5.52663 20.4933C4.95329 19.1267 4.66663 17.6133 4.66663 16C4.66663 14.3867 4.95996 12.9067 5.52663 11.54C6.09996 10.1667 6.89996 8.96001 7.91329 7.95334C8.92663 6.94001 10.14 6.13334 11.5133 5.54667C12.88 4.96667 14.3866 4.67334 16 4.67334" fill="#25CBDB"/>
<path d="M15.9667 25.5667C16.2133 25.5667 16.42 25.4733 16.6 25.2867C16.78 25.1 16.8667 24.88 16.8667 24.64V23.84C18.2 23.6867 19.2467 23.2333 20.02 22.4867C20.7867 21.74 21.1733 20.7933 21.1733 19.64C21.1733 18.4867 20.8533 17.56 20.2267 16.8733C19.5933 16.1867 18.5 15.5867 16.94 15.0733C15.54 14.6067 14.58 14.1467 14.0533 13.6867C13.5333 13.2333 13.2667 12.64 13.2667 11.9067C13.2667 11.22 13.52 10.68 14.0133 10.2867C14.5067 9.89334 15.2 9.70001 16.0667 9.70001C16.6 9.70001 17.08 9.80001 17.5 10C17.92 10.2 18.2867 10.5 18.6 10.9C18.7533 11.08 18.9467 11.2 19.1667 11.2667C19.3867 11.3333 19.6 11.3133 19.8 11.2C20.0467 11.0867 20.2067 10.9133 20.2867 10.6667C20.3667 10.42 20.3267 10.2 20.1733 10C19.7933 9.46668 19.3333 9.04668 18.7867 8.73334C18.24 8.42001 17.6267 8.23334 16.94 8.16667V7.36668C16.94 7.12001 16.8533 6.91334 16.6733 6.73334C16.4933 6.55334 16.2867 6.46667 16.04 6.46667C15.7933 6.46667 15.58 6.55334 15.3867 6.73334C15.1933 6.91334 15.1067 7.12001 15.1067 7.36668V8.16667C13.9733 8.32001 13.08 8.73334 12.4267 9.40001C11.7733 10.0667 11.44 10.9 11.44 11.9C11.44 12.9867 11.7267 13.8533 12.2867 14.5C12.8533 15.1467 13.9 15.7533 15.4333 16.3333C17.0133 16.9333 18.0533 17.4533 18.5667 17.9C19.08 18.3467 19.3333 18.92 19.3333 19.6333C19.3333 20.3467 19.0333 20.98 18.4333 21.4867C17.8333 21.9867 17.1 22.24 16.2333 22.2333C15.5 22.2333 14.8267 22.0533 14.22 21.7C13.6067 21.3467 13.14 20.8467 12.8067 20.2C12.6933 20.02 12.5467 19.88 12.36 19.7867C12.1733 19.6933 11.98 19.6733 11.7733 19.7333C11.4867 19.8467 11.2867 20.02 11.1867 20.2467C11.0867 20.48 11.1133 20.72 11.2667 20.9667C11.7133 21.7 12.24 22.2933 12.8533 22.7533C13.4667 23.2133 14.1933 23.5467 15.0333 23.7733V24.6733C15.0333 24.92 15.1267 25.1267 15.3133 25.3067C15.5 25.4867 15.72 25.5733 15.9667 25.5733V25.5667Z" fill="#222343"/>
</svg>
