<svg width="32" height="32" viewBox="0 0 32 32" fill="none" xmlns="http://www.w3.org/2000/svg">
<path opacity="0.52" d="M18.5334 2.66675H7.33337C6.22671 2.66675 5.33337 3.56008 5.33337 4.66675V27.3334C5.33337 28.4401 6.22671 29.3334 7.33337 29.3334H24.6667C25.7734 29.3334 26.6667 28.4401 26.6667 27.3334V10.8001C26.6667 10.2667 26.4534 9.76008 26.08 9.38675L19.9467 3.25341C19.5734 2.88008 19.06 2.66675 18.5334 2.66675Z" fill="#25CBDB"/>
<path opacity="0.52" d="M19.9467 3.25342V8.80008C19.9467 9.90675 20.84 10.8001 21.9467 10.8001H26.6667C26.6667 10.2668 26.4533 9.76008 26.08 9.38675L19.9467 3.25342Z" fill="#25CBDB"/>
<path d="M21.9467 9.38675H26.08L19.9467 3.25342V7.38675C19.9467 8.49342 20.84 9.38675 21.9467 9.38675Z" fill="#222343"/>
<path d="M22.8867 19.6134C23 19.7267 23.0533 19.8734 23.0533 20.0468C23.0533 20.2201 23 20.3668 22.8867 20.4934C22.7733 20.6201 22.6333 20.6801 22.4533 20.6801H21.3867V22.8134C21.3867 22.9868 21.3333 23.1334 21.22 23.2601C21.1067 23.3868 20.9667 23.4467 20.7867 23.4467C20.62 23.4467 20.4733 23.3934 20.3467 23.2801C20.2133 23.1734 20.1533 23.0201 20.1533 22.8334V17.2268C20.1533 17.0401 20.2133 16.8934 20.3467 16.7801C20.4733 16.6734 20.62 16.6134 20.7867 16.6134H22.4533C22.6333 16.6134 22.7733 16.6734 22.8867 16.7801C23 16.8934 23.0533 17.0401 23.0533 17.2134C23.0533 17.3868 23 17.5334 22.8867 17.6601C22.7733 17.7868 22.6333 17.8468 22.4533 17.8468H21.3867V19.4468H22.4533C22.6333 19.4468 22.7733 19.5068 22.8867 19.6134Z" fill="#222343"/>
<path d="M18.1467 16.9734C17.9 16.7334 17.6133 16.6134 17.28 16.6134H15.1133C14.9467 16.6134 14.7933 16.6734 14.6733 16.7801C14.54 16.8934 14.48 17.0401 14.48 17.2268V22.8067C14.48 22.9867 14.54 23.1468 14.6733 23.2668C14.7933 23.3868 14.9467 23.4467 15.1133 23.4467H17.28C17.6133 23.4467 17.9 23.3334 18.1467 23.0934C18.3933 22.8601 18.5133 22.5667 18.5133 22.2134V17.8468C18.5133 17.5001 18.3933 17.2067 18.1467 16.9734ZM17.28 22.2134H15.7133V17.8468H17.28V22.2134Z" fill="#222343"/>
<path d="M12.66 16.9734C12.42 16.7334 12.1267 16.6134 11.78 16.6134H9.57999C9.41332 16.6134 9.25999 16.6734 9.13999 16.7801C9.00666 16.8934 8.94666 17.0401 8.94666 17.2268V22.8334C8.94666 23.0201 9.00666 23.1734 9.13999 23.2801C9.26666 23.3934 9.41332 23.4467 9.57999 23.4467C9.75999 23.4467 9.89999 23.3868 10.0133 23.2601C10.1267 23.1334 10.18 22.9868 10.18 22.8134V20.6801H11.78C12.1267 20.6801 12.42 20.5667 12.66 20.3267C12.8933 20.0934 13.0133 19.8001 13.0133 19.4468V17.8468C13.0133 17.5001 12.8933 17.2067 12.66 16.9734ZM11.78 19.4468H10.18V17.8468H11.78V19.4468Z" fill="#222343"/>
</svg>
