<svg width="32" height="32" viewBox="0 0 32 32" fill="none" xmlns="http://www.w3.org/2000/svg">
<path opacity="0.85" d="M25.3 11.4468L20.1333 16.6134L16 12.4801L24.1 4.38009C24.3467 4.13343 24.6333 4.01343 24.9667 4.01343C25.3 4.01343 25.5867 4.13343 25.8333 4.38009L28.2667 6.81343C28.5133 7.06009 28.6333 7.33343 28.6333 7.64676C28.6333 7.96009 28.5133 8.23343 28.2667 8.48009L25.3 11.4468Z" fill="#222343"/>
<path d="M13.0867 29.74C9.50006 29.74 5.46006 28.0067 5.24006 27.9134C4.73339 27.6934 4.50006 27.1067 4.72006 26.6C4.94006 26.0934 5.52673 25.86 6.03339 26.08C7.72673 26.8134 12.6667 28.4734 15.1734 27.3934C15.8267 27.1134 16.2534 26.6667 16.4867 26.02C17.1601 24.1667 15.2601 22.8667 12.1134 20.9067C9.32006 19.1667 6.16006 17.2 5.56006 14.0334C5.18006 12.0267 5.86672 9.88004 7.66006 7.46671C7.98672 7.02004 8.62006 6.93337 9.06006 7.26004C9.50673 7.58671 9.59339 8.21337 9.26672 8.66004C7.82672 10.6 7.25339 12.24 7.52672 13.66C7.96672 15.9667 10.6134 17.6134 13.1734 19.2067C16.3467 21.18 19.6267 23.2267 18.3734 26.7C17.9467 27.8734 17.1401 28.7267 15.9734 29.2267C15.1201 29.5934 14.1201 29.74 13.0867 29.74Z" fill="#222343"/>
<path d="M26.7667 9.98004L27.5334 10.7467C28.1134 11.3267 28.3934 11.8867 28.3867 12.4334C28.3801 12.98 28.0934 13.5267 27.5334 14.0867L20.6667 20.9534C20.4667 21.1534 20.2267 21.2534 19.9467 21.2534C19.6667 21.2534 19.4267 21.1534 19.2267 20.9534C19.0267 20.7534 18.9201 20.52 18.9067 20.2534C18.8934 19.9867 18.9934 19.7534 19.1934 19.5534L26.2934 12.4534L25.2934 11.4534L26.7667 9.98004Z" fill="#222343"/>
<path d="M20.1334 16.62L16.0001 12.48L17.4134 11.06L21.5467 15.1934L20.1334 16.62Z" fill="#222343"/>
<path opacity="0.85" d="M20.1333 16.6199L9.36663 27.3866C9.18663 27.5599 8.9733 27.7066 8.7133 27.8199C8.45997 27.9266 8.19997 27.9866 7.9333 27.9866H5.6333C5.34663 27.9866 5.10663 27.8932 4.9133 27.6999C4.72663 27.5132 4.6333 27.2732 4.6333 26.9866V24.6866C4.6333 24.4199 4.68663 24.1599 4.79997 23.8999C4.9133 23.6466 5.0533 23.4266 5.2333 23.2532L9.5733 18.9132L11.14 17.3466L16 12.4866L20.1333 16.6199Z" fill="#25CBDB"/>
</svg>
