<svg width="32" height="32" viewBox="0 0 32 32" fill="none" xmlns="http://www.w3.org/2000/svg">
<path opacity="0.52" d="M6 27.9999C5.44667 27.9999 4.97333 27.8066 4.58667 27.4132C4.2 27.0199 4 26.5533 4 25.9999V5.99992C4 5.44659 4.19333 4.97325 4.58667 4.58659C4.98 4.19992 5.44667 3.99992 6 3.99992H12.8333C12.9467 3.21992 13.3 2.58659 13.9 2.07992C14.5 1.57992 15.2 1.33325 16 1.33325C16.8 1.33325 17.5 1.58659 18.1 2.07992C18.7 2.57992 19.0533 3.21992 19.1667 3.99992H26C26.5533 3.99992 27.0267 4.19325 27.4133 4.58659C27.8 4.97992 28 5.44659 28 5.99992V25.9999C28 26.5533 27.8067 27.0266 27.4133 27.4132C27.02 27.7999 26.5533 27.9999 26 27.9999H6ZM16 5.43325C16.3133 5.43325 16.5867 5.31992 16.82 5.07992C17.0533 4.84659 17.1667 4.57325 17.1667 4.26659C17.1667 3.95992 17.0467 3.67992 16.82 3.45325C16.5867 3.21992 16.3133 3.10659 16 3.10659C15.6867 3.10659 15.4133 3.22659 15.18 3.45992C14.9467 3.69325 14.8333 3.96659 14.8333 4.27325C14.8333 4.57992 14.9533 4.85992 15.18 5.08659C15.4133 5.31992 15.6867 5.43325 16 5.43325Z" fill="#25CBDB"/>
<path opacity="0.52" d="M17.7334 24.0334C17.7334 22.3001 18.3467 20.8134 19.5667 19.5801C19.88 19.2668 20.2134 18.9868 20.56 18.7534C19.7067 19.0534 18.9267 19.5468 18.2334 20.2468C17.0134 21.4801 16.4 22.9668 16.4 24.7001C16.4 25.9201 16.7267 27.0201 17.36 28.0001H19.1934C18.22 26.8601 17.7334 25.5334 17.7334 24.0334Z" fill="#25CBDB"/>
<path d="M10.2333 22.7H15.2933C15.5799 22.7 15.8199 22.6066 16.0133 22.42C16.2066 22.2333 16.2933 21.9933 16.2933 21.7C16.2933 21.4066 16.1999 21.1733 16.0133 20.98C15.8266 20.7866 15.5866 20.6933 15.2933 20.7H10.2333C9.94661 20.7 9.70661 20.7933 9.51994 20.98C9.33328 21.1666 9.23994 21.4066 9.23328 21.7C9.23328 21.9866 9.32661 22.2266 9.51994 22.42C9.70661 22.6066 9.94661 22.7 10.2333 22.7Z" fill="#222343"/>
<path d="M10.2333 17H21.7666C22.0533 17 22.2933 16.9066 22.4866 16.72C22.6733 16.5333 22.7666 16.2933 22.7666 16C22.7666 15.7066 22.6733 15.4733 22.4866 15.28C22.2999 15.0933 22.0599 15 21.7666 15H10.2333C9.94661 15 9.70661 15.0933 9.51994 15.28C9.33328 15.4666 9.23328 15.7066 9.23328 16C9.23328 16.2933 9.32661 16.5266 9.51994 16.72C9.70661 16.9066 9.94661 17 10.2333 17Z" fill="#222343"/>
<path d="M10.2333 11.3H21.7666C22.0533 11.3 22.2933 11.2066 22.4866 11.02C22.6799 10.8333 22.7666 10.5933 22.7666 10.3066C22.7666 10.02 22.6733 9.77997 22.4866 9.59331C22.2999 9.40664 22.0599 9.30664 21.7666 9.30664H10.2333C9.94661 9.30664 9.70661 9.39997 9.51994 9.59331C9.33328 9.77997 9.23328 10.02 9.23328 10.3066C9.23328 10.5933 9.32661 10.8333 9.51994 11.02C9.70661 11.2066 9.94661 11.3 10.2333 11.3Z" fill="#222343"/>
<path d="M28.4133 19.58C27.1799 18.3466 25.7066 17.7333 23.9999 17.7333C22.2933 17.7333 20.7866 18.3466 19.5666 19.58C18.3466 20.8133 17.7333 22.3 17.7333 24.0333C17.7333 25.7666 18.3466 27.18 19.5666 28.4133C20.7866 29.6466 22.2666 30.26 23.9999 30.26C25.7333 30.26 27.1866 29.6466 28.4133 28.4133C29.6466 27.18 30.2666 25.72 30.2666 24.0333C30.2666 22.3466 29.6533 20.8133 28.4133 19.58ZM26.6999 26.7C26.5666 26.8333 26.4133 26.9 26.2333 26.9C26.0533 26.9 25.8999 26.8333 25.7666 26.7L23.6333 24.5666C23.5199 24.4533 23.4466 24.3466 23.3999 24.2333C23.3533 24.12 23.3333 24 23.3333 23.8666V20.6666C23.3333 20.4866 23.3999 20.3333 23.5333 20.2C23.6666 20.0666 23.8199 20 23.9999 20C24.1799 20 24.3333 20.0666 24.4666 20.2C24.5999 20.3333 24.6666 20.4866 24.6666 20.6666V23.7333L26.6999 25.7666C26.8333 25.9 26.8999 26.0533 26.8999 26.2333C26.8999 26.4133 26.8333 26.5666 26.6999 26.7Z" fill="#222343"/>
</svg>
