<svg width="32" height="32" viewBox="0 0 32 32" fill="none" xmlns="http://www.w3.org/2000/svg">
<path d="M26.5 28C23.7867 28 21.0933 27.3333 18.42 26C15.7467 24.6667 13.3333 22.9333 11.2 20.8C9.06667 18.6667 7.33333 16.26 6 13.58C4.66667 10.9 4 8.20667 4 5.5C4 5.08 4.14667 4.72 4.43333 4.43333C4.72 4.14667 5.08 4 5.5 4H10.1667C10.48 4 10.7533 4.10667 10.9867 4.31333C11.22 4.52667 11.3733 4.80667 11.4333 5.16667L12.3333 9.36667C12.38 9.68 12.3733 9.96 12.32 10.2133C12.2667 10.4667 12.1467 10.6867 11.9733 10.86L8.64 14.2267C9.88667 16.2933 11.28 18.0933 12.82 19.6267C14.3667 21.16 16.1133 22.46 18.0733 23.5267L21.24 20.26C21.46 20.0133 21.72 19.8467 22.0067 19.7467C22.2933 19.6467 22.5867 19.6267 22.8733 19.6933L26.84 20.56C27.1733 20.6267 27.4533 20.7933 27.6733 21.06C27.8933 21.3267 28.0067 21.64 28.0067 21.9933V26.4933C28.0067 26.9133 27.86 27.2733 27.5733 27.56C27.2867 27.8467 26.9267 27.9933 26.5067 27.9933L26.5 28Z" fill="#222343"/>
<path opacity="0.85" d="M17.3667 14.9334C17.1867 15.0867 17.0067 15.12 16.8133 15.0334C16.6267 14.9467 16.5267 14.7867 16.5333 14.5667V5.16671C16.5333 4.83337 16.6667 4.56004 16.9333 4.35337C17.2 4.14004 17.5133 4.04004 17.8667 4.04004H26.7C27.0533 4.04004 27.36 4.14671 27.62 4.35337C27.8733 4.56671 28.0067 4.83337 28.0067 5.16671V11.1C28.0067 11.48 27.8867 11.7934 27.64 12.0467C27.3933 12.3 27.0867 12.4334 26.7067 12.4334H20.0067L17.3733 14.9334H17.3667Z" fill="#25CBDB"/>
</svg>
