<svg width="32" height="32" viewBox="0 0 32 32" fill="none" xmlns="http://www.w3.org/2000/svg">
<path opacity="0.85" d="M25.4133 9.02658C25.2266 9.21991 25.1333 9.45992 25.1333 9.74658V11.6133H23.2666C22.9733 11.6133 22.7333 11.6999 22.5466 11.8933C22.3599 12.0866 22.2666 12.3199 22.2666 12.6133C22.2666 12.9066 22.3533 13.1466 22.5466 13.3333C22.7399 13.5199 22.9799 13.6133 23.2666 13.6133H25.1333V15.4799C25.1333 15.7732 25.2266 16.0132 25.4133 16.1999C25.6066 16.3866 25.8399 16.4799 26.1333 16.4799C26.4266 16.4799 26.6666 16.3932 26.8533 16.1999C27.0399 16.0066 27.1333 15.7666 27.1333 15.4799V13.6133H28.9999C29.2933 13.6133 29.5333 13.5199 29.7199 13.3333C29.9066 13.1399 29.9999 12.9066 29.9999 12.6133C29.9999 12.3199 29.9133 12.0799 29.7199 11.8933C29.5266 11.7066 29.2866 11.6133 28.9999 11.6133H27.1333V9.74658C27.1333 9.45325 27.0466 9.21325 26.8533 9.02658C26.6599 8.83991 26.4266 8.74658 26.1333 8.74658C25.8399 8.74658 25.5999 8.83325 25.4133 9.02658Z" fill="#25CBDB"/>
<path d="M12.6667 15.6533C11.2 15.6533 10 15.1867 9.06667 14.2533C8.13333 13.32 7.66667 12.12 7.66667 10.6533C7.66667 9.18665 8.13333 7.98665 9.06667 7.05332C10 6.11999 11.2 5.65332 12.6667 5.65332C14.1333 5.65332 15.3333 6.11999 16.2667 7.05332C17.2 7.98665 17.6667 9.18665 17.6667 10.6533C17.6667 12.12 17.2 13.32 16.2667 14.2533C15.3333 15.1867 14.1333 15.6533 12.6667 15.6533Z" fill="#222343"/>
<path d="M3 26.3467C2.71333 26.3467 2.47333 26.2533 2.28 26.0667C2.08667 25.88 2 25.64 2 25.3467V23.2133C2 22.4333 2.19333 21.7333 2.58667 21.1C2.97333 20.4667 3.53333 19.9933 4.27333 19.6867C5.94 18.9533 7.42 18.4333 8.72667 18.1333C10.0267 17.8333 11.34 17.6867 12.6733 17.6867C14.0067 17.6867 15.32 17.84 16.6067 18.1333C17.8933 18.4333 19.3733 18.9533 21.04 19.6867C21.7733 20.02 22.34 20.5 22.74 21.12C23.14 21.74 23.34 22.44 23.34 23.22V25.3533C23.34 25.64 23.2467 25.88 23.06 26.0733C22.8733 26.26 22.6333 26.3533 22.34 26.3533H3V26.3467Z" fill="#222343"/>
</svg>
