<svg width="32" height="32" viewBox="0 0 32 32" fill="none" xmlns="http://www.w3.org/2000/svg">
<path d="M26.5 28C23.7867 28 21.0933 27.3333 18.42 26C15.7467 24.6667 13.3333 22.9333 11.2 20.8C9.06667 18.6667 7.33333 16.26 6 13.58C4.66667 10.9 4 8.20667 4 5.5C4 5.08 4.14667 4.72 4.43333 4.43333C4.72 4.14667 5.08 4 5.5 4H10.1667C10.48 4 10.7533 4.10667 10.9867 4.31333C11.22 4.52667 11.3733 4.80667 11.4333 5.16667L12.3333 9.36667C12.38 9.68 12.3733 9.96 12.32 10.2133C12.2667 10.4667 12.1467 10.6867 11.9733 10.86L8.64 14.2267C9.88667 16.2933 11.28 18.0933 12.82 19.6267C14.3667 21.16 16.1133 22.46 18.0733 23.5267L21.24 20.26C21.46 20.0133 21.72 19.8467 22.0067 19.7467C22.2933 19.6467 22.5867 19.6267 22.8733 19.6933L26.84 20.56C27.1733 20.6267 27.4533 20.7933 27.6733 21.06C27.8933 21.3267 28.0067 21.64 28.0067 21.9933V26.4933C28.0067 26.9133 27.86 27.2733 27.5733 27.56C27.2867 27.8467 26.9267 27.9933 26.5067 27.9933L26.5 28Z" fill="#222343"/>
<path opacity="0.52" d="M26.8 15.7668C26.5533 15.7668 26.34 15.6801 26.1533 15.5001C25.9667 15.3201 25.8467 15.1001 25.8 14.8334C25.4867 12.5468 24.5133 10.5801 22.88 8.95344C21.2467 7.32011 19.2867 6.34678 16.9933 6.03344C16.7267 5.98678 16.5067 5.87344 16.3267 5.68678C16.1467 5.50011 16.06 5.26678 16.06 5.00011C16.06 4.71344 16.16 4.46678 16.36 4.26678C16.56 4.06678 16.8067 3.98678 17.0933 4.03344C19.9133 4.34678 22.3267 5.50011 24.3267 7.50011C26.3267 9.50011 27.48 11.9134 27.7933 14.7334C27.84 15.0201 27.76 15.2668 27.56 15.4668C27.36 15.6668 27.1067 15.7668 26.7933 15.7668H26.8Z" fill="#25CBDB"/>
<path opacity="0.85" d="M21.0667 15.7667C20.8467 15.7667 20.64 15.6934 20.4533 15.5467C20.2667 15.4001 20.14 15.2067 20.0667 14.9601C19.8467 14.1801 19.4533 13.5134 18.8867 12.9467C18.32 12.3801 17.6467 11.9867 16.8667 11.7667C16.62 11.7001 16.4267 11.5867 16.28 11.4201C16.1333 11.2534 16.06 11.0467 16.06 10.8067C16.06 10.4734 16.1733 10.2067 16.3933 10.0067C16.6133 9.80674 16.88 9.74007 17.1933 9.80674C18.3933 10.0934 19.4267 10.6734 20.2933 11.5401C21.16 12.4067 21.7467 13.4401 22.06 14.6401C22.1267 14.9534 22.06 15.2201 21.86 15.4401C21.66 15.6601 21.3933 15.7734 21.06 15.7734L21.0667 15.7667Z" fill="#25CBDB"/>
</svg>
