<svg width="32" height="32" viewBox="0 0 32 32" fill="none" xmlns="http://www.w3.org/2000/svg">
<path opacity="0.52" d="M22.0934 7.1065C20.3134 5.4665 18.32 4.6665 16 4.6665C13.68 4.6665 11.6867 5.4665 9.90671 7.1065C8.17337 8.69984 7.33337 10.8265 7.33337 13.5998C7.33337 15.3998 8.10671 17.4665 9.64004 19.7265C11.08 21.8598 13.2134 24.1932 16 26.6798C18.78 24.1932 20.92 21.8532 22.36 19.7265C23.8934 17.4665 24.6667 15.4065 24.6667 13.5998C24.6667 10.8265 23.8267 8.69984 22.0934 7.1065Z" fill="#25CBDB"/>
<path d="M16 4.6665C18.32 4.6665 20.3134 5.4665 22.0934 7.1065C23.8267 8.69984 24.6667 10.8265 24.6667 13.5998C24.6667 15.4065 23.8934 17.4665 22.36 19.7265C20.92 21.8532 18.78 24.1932 16 26.6798C13.2134 24.1932 11.08 21.8598 9.64004 19.7265C8.10671 17.4665 7.33337 15.3998 7.33337 13.5998C7.33337 10.8265 8.17337 8.69984 9.90671 7.1065C11.6867 5.4665 13.68 4.6665 16 4.6665ZM16 2.6665C13.18 2.6665 10.6934 3.65317 8.55337 5.63317C6.40671 7.61317 5.33337 10.2665 5.33337 13.5998C5.33337 15.8198 6.22004 18.2398 7.98671 20.8532C9.64671 23.2998 12.0934 25.9398 15.3467 28.7732C15.72 29.0998 16.2867 29.0998 16.66 28.7732C19.9067 25.9465 22.36 23.3065 24.02 20.8532C25.7867 18.2398 26.6667 15.8265 26.6667 13.5998C26.6667 10.2665 25.5934 7.61317 23.4467 5.63317C21.3 3.65317 18.82 2.6665 16 2.6665Z" fill="#222343"/>
<path d="M19.9464 13.9772C20.3003 11.7966 18.8195 9.7419 16.6389 9.38794C14.4583 9.03398 12.4037 10.5148 12.0497 12.6954C11.6958 14.876 13.1765 16.9306 15.3571 17.2846C17.5377 17.6385 19.5924 16.1578 19.9464 13.9772Z" fill="#222343"/>
</svg>
