<svg width="32" height="32" viewBox="0 0 32 32" fill="none" xmlns="http://www.w3.org/2000/svg">
<path d="M10.0667 27.9999C9.51342 27.9999 9.04675 27.8066 8.65341 27.4132C8.26008 27.0199 8.06675 26.5532 8.06675 25.9999V22.1332H4.66675C4.11341 22.1332 3.64675 21.9399 3.25341 21.5466C2.86008 21.1532 2.66675 20.6866 2.66675 20.1332V13.9332C2.66675 12.9332 3.00675 12.0932 3.68675 11.4132C4.36675 10.7332 5.20675 10.3999 6.20675 10.3999H25.8067C26.8067 10.3999 27.6467 10.7399 28.3267 11.4132C29.0068 12.0932 29.3401 12.9266 29.3401 13.9332V20.1332C29.3401 20.6866 29.1467 21.1532 28.7534 21.5466C28.3601 21.9399 27.8934 22.1332 27.3401 22.1332H23.9401V25.9999C23.9401 26.5532 23.7467 27.0199 23.3534 27.4132C22.9601 27.8066 22.4934 27.9999 21.9401 27.9999H10.0667Z" fill="#222343"/>
<g opacity="0.85">
<path d="M23.9333 10.4H8.06665V6C8.06665 5.44667 8.25998 4.98 8.65332 4.58667C9.04665 4.19333 9.51332 4 10.0667 4H21.9333C22.4867 4 22.9533 4.19333 23.3467 4.58667C23.74 4.98 23.9333 5.44667 23.9333 6V10.4Z" fill="#25CBDB"/>
<path d="M24.6333 15.5667C24.9 15.5667 25.1333 15.4667 25.3333 15.2667C25.5333 15.0667 25.6333 14.8333 25.6333 14.5667C25.6333 14.3 25.5333 14.0667 25.3333 13.8667C25.1333 13.6667 24.9 13.5667 24.6333 13.5667C24.3667 13.5667 24.1333 13.6667 23.9333 13.8667C23.7333 14.0667 23.6333 14.3 23.6333 14.5667C23.6333 14.8333 23.7333 15.0667 23.9333 15.2667C24.1333 15.4667 24.3667 15.5667 24.6333 15.5667Z" fill="#25CBDB"/>
<path d="M21.9333 19.6H10.0667V26H21.9333V19.6Z" fill="#25CBDB"/>
</g>
</svg>
