<svg width="32" height="32" viewBox="0 0 32 32" fill="none" xmlns="http://www.w3.org/2000/svg">
<path opacity="0.52" d="M27.3467 14.7466C26.8467 16.06 26.1067 17.2133 25.1267 18.2133C24.1467 19.2133 23.0333 19.9866 21.7733 20.5266C20.52 21.0733 19.18 21.3466 17.76 21.3466H16C15.7133 21.3466 15.4733 21.2533 15.28 21.0666C15.0933 20.88 15 20.64 15 20.3466V18.68C15 17.26 15.2533 15.8933 15.7467 14.58C16.24 13.2666 16.9867 12.1133 17.9667 11.1133C18.9467 10.1133 20.06 9.33998 21.32 8.79998C22.5733 8.25331 23.9133 7.97998 25.3333 7.97998H27.0933C27.38 7.97998 27.62 8.07331 27.8133 8.25998C28 8.44665 28.0933 8.68665 28.0933 8.97998V10.6466C28.0933 12.0666 27.84 13.4333 27.3467 14.7466Z" fill="#25CBDB"/>
<path d="M16 27.6668C15.4467 27.6668 15 27.2201 15 26.6668V14.7734C15 14.2201 15.4467 13.7734 16 13.7734C16.5533 13.7734 17 14.2201 17 14.7734V26.6668C17 27.2201 16.5533 27.6668 16 27.6668Z" fill="#222343"/>
<path opacity="0.52" d="M16.2467 10.6C15.7467 9.28667 15.0067 8.13333 14.0267 7.13333C13.0467 6.13333 11.9334 5.36 10.6734 4.82C9.42002 4.27333 8.08002 4 6.66002 4H4.90002C4.61336 4 4.37336 4.09333 4.18002 4.28C3.99336 4.46667 3.90002 4.70667 3.90002 5V6.66667C3.90002 8.08667 4.15336 9.45333 4.64669 10.7667C5.14002 12.08 5.88669 13.2333 6.86669 14.2333C7.84669 15.2333 8.96002 16.0067 10.22 16.5467C11.4734 17.0933 12.8134 17.3667 14.2334 17.3667H15.9934C16.28 17.3667 16.52 17.2733 16.7134 17.0867C16.9 16.9 16.9934 16.66 16.9934 16.3667V14.7C16.9934 13.28 16.74 11.9133 16.2467 10.6Z" fill="#25CBDB"/>
</svg>
