<svg width="32" height="32" viewBox="0 0 32 32" fill="none" xmlns="http://www.w3.org/2000/svg">
<path d="M2.69336 23.2468C2.51336 23.2468 2.3267 23.2001 2.1667 23.0934C1.70003 22.8001 1.55336 22.1868 1.8467 21.7134L6.88003 13.6668C7.0467 13.4001 7.33336 13.2268 7.65336 13.2001C7.97336 13.1668 8.28003 13.3001 8.4867 13.5401L11.6134 17.1534L16.08 9.87342C16.26 9.58009 16.5734 9.40009 16.9134 9.40009C17.26 9.42675 17.5734 9.56009 17.7667 9.84675L21.2267 15.0201L28.4467 3.54675C28.74 3.08009 29.36 2.94009 29.8267 3.23342C30.2934 3.52675 30.4334 4.14675 30.14 4.61342L22.1 17.3934C21.92 17.6801 21.6067 17.8534 21.2667 17.8601C20.9134 17.8401 20.6067 17.7001 20.42 17.4134L16.9734 12.2534L12.6067 19.3668C12.44 19.6401 12.1534 19.8134 11.8334 19.8401C11.5134 19.8601 11.2067 19.7401 10.9934 19.5001L7.86003 15.8734L3.5467 22.7668C3.36003 23.0734 3.03336 23.2334 2.70003 23.2334L2.69336 23.2468Z" fill="#25CBDB"/>
<path d="M21.5667 17.9001C20.1467 17.9001 18.92 18.7068 18.3134 19.8868L19.8934 22.2468C20.2667 22.8001 20.8867 23.1335 21.5534 23.1335H21.58C22.26 23.1268 22.8867 22.7735 23.2467 22.2001L24.7667 19.7801C24.14 18.6601 22.94 17.9001 21.5667 17.9001Z" fill="#25CBDB"/>
<path opacity="0.32" d="M21.5667 25.2335C23.5917 25.2335 25.2334 23.5919 25.2334 21.5668C25.2334 19.5418 23.5917 17.9001 21.5667 17.9001C19.5416 17.9001 17.9 19.5418 17.9 21.5668C17.9 23.5919 19.5416 25.2335 21.5667 25.2335Z" fill="#25CBDB"/>
<path fill-rule="evenodd" clip-rule="evenodd" d="M28.5334 29.9334L24.7667 26.2001C24.3 26.5334 23.7934 26.7867 23.2467 26.9667C22.7 27.1467 22.14 27.2334 21.56 27.2334C19.98 27.2334 18.6467 26.6801 17.5467 25.5867C16.4467 24.4867 15.9 23.1467 15.9 21.5667C15.9 19.9867 16.4534 18.6467 17.5534 17.5534C18.6534 16.4534 19.9934 15.9067 21.5667 15.9067C23.14 15.9067 24.4867 16.4601 25.5867 17.5601C26.6867 18.6601 27.2334 20.0001 27.2334 21.5734C27.2334 22.1534 27.14 22.7134 26.9534 23.2601C26.7667 23.8067 26.5134 24.3201 26.2067 24.8134L29.94 28.5467C30.14 28.7467 30.2467 28.9801 30.2534 29.2467C30.2667 29.5134 30.1734 29.7467 29.9734 29.9467C29.7734 30.1467 29.5334 30.2467 29.2534 30.2467C28.9734 30.2467 28.7334 30.1467 28.54 29.9467L28.5334 29.9334ZM21.5667 25.2334C22.5867 25.2334 23.4534 24.8801 24.1667 24.1667C24.88 23.4534 25.2334 22.5867 25.2334 21.5667C25.2334 20.5467 24.88 19.6801 24.1667 18.9667C23.4534 18.2534 22.5867 17.9001 21.5667 17.9001C20.5467 17.9001 19.68 18.2534 18.9667 18.9667C18.2534 19.6801 17.9 20.5467 17.9 21.5667C17.9 22.5867 18.2534 23.4534 18.9667 24.1667C19.68 24.8801 20.5467 25.2334 21.5667 25.2334Z" fill="#222343"/>
</svg>
