<svg width="32" height="32" viewBox="0 0 32 32" fill="none" xmlns="http://www.w3.org/2000/svg">
<g opacity="0.85">
<path d="M10.2334 6.89992H21.7667C24.7134 6.89992 27.1 9.28658 27.1 12.2332V20.6932C27.1 25.1066 23.5134 28.6933 19.1 28.6933H12.9C8.48669 28.6933 4.90002 25.1066 4.90002 20.6932V12.2332C4.90002 9.28658 7.28669 6.89992 10.2334 6.89992Z" fill="#25CBDB"/>
<path d="M17.9334 3.24658C17.9334 3.98658 17.5334 4.63325 16.9334 4.97992C16.64 5.14658 16.3 5.24658 15.9334 5.24658C15.5667 5.24658 15.2267 5.14658 14.9334 4.97992C14.3334 4.63325 13.9334 3.98658 13.9334 3.24658C13.9334 2.14658 14.8267 1.24658 15.9334 1.24658C17.04 1.24658 17.9334 2.14658 17.9334 3.24658Z" fill="#25CBDB"/>
</g>
<path d="M12.7667 15.46C12.7667 15.8333 12.64 16.1466 12.38 16.4066C12.1267 16.6666 11.8134 16.8 11.44 16.8C11.0667 16.8 10.7534 16.6733 10.4934 16.4133C10.2334 16.16 10.1 15.8466 10.1 15.4733C10.1 15.1 10.2267 14.7866 10.48 14.5266C10.74 14.26 11.0534 14.1333 11.4267 14.1333C11.8 14.1333 12.1134 14.26 12.3734 14.5133C12.6334 14.7733 12.7667 15.0866 12.7667 15.46Z" fill="#222343"/>
<path d="M21.9 15.46C21.9 15.8333 21.7734 16.1466 21.52 16.4066C21.26 16.6666 20.9467 16.8 20.5734 16.8C20.2 16.8 19.8867 16.6733 19.6267 16.4133C19.3667 16.16 19.2334 15.8466 19.2334 15.4733C19.2334 15.1 19.36 14.7866 19.62 14.5266C19.8734 14.26 20.1867 14.1333 20.56 14.1333C20.9334 14.1333 21.2467 14.26 21.5067 14.5133C21.7667 14.7733 21.9 15.0866 21.9 15.46Z" fill="#222343"/>
<path d="M16.0267 23.4933C14.1534 23.4933 12.3 23.02 10.66 22.1333C10.1734 21.8666 9.99337 21.26 10.26 20.78C10.5267 20.2933 11.1334 20.1133 11.6134 20.38C14.2867 21.8333 17.7067 21.8466 20.3867 20.4066C20.8734 20.1466 21.48 20.3266 21.74 20.82C22 21.3066 21.82 21.9133 21.3267 22.1733C19.7067 23.04 17.8734 23.5 16.02 23.5L16.0267 23.4933Z" fill="#222343"/>
<path d="M27.1 13H28.6667C29.7734 13 30.6667 13.8933 30.6667 15V18.1333C30.6667 19.24 29.7734 20.1333 28.6667 20.1333H27.1V13Z" fill="#222343"/>
<path d="M3.33337 13H4.90004V20.1333H3.33337C2.22671 20.1333 1.33337 19.24 1.33337 18.1333V15C1.33337 13.8933 2.22671 13 3.33337 13Z" fill="#222343"/>
<path d="M16.9334 4.97998V6.89998H14.9334V4.97998C15.2267 5.14665 15.5667 5.24665 15.9334 5.24665C16.3 5.24665 16.64 5.14665 16.9334 4.97998Z" fill="#222343"/>
</svg>
