<svg width="32" height="32" viewBox="0 0 32 32" fill="none" xmlns="http://www.w3.org/2000/svg">
<path opacity="0.85" d="M11.68 2.6665H20.3067C21.34 2.6665 21.98 3.79984 21.4467 4.6865L18.66 9.33317H18.6572L18.6667 9.33325L21.24 11.4799C24.7467 14.4066 27.1534 18.4399 28.0467 22.9199V22.9533C28.7134 26.2533 26.1867 29.3333 22.82 29.3333H9.17336C5.80669 29.3333 3.28669 26.2533 3.94669 22.9533V22.9199C4.84669 18.4399 7.25336 14.3999 10.76 11.4799L13.332 9.33436V9.33317H13.3267L10.54 4.6865C10.0067 3.79984 10.6467 2.6665 11.68 2.6665Z" fill="#25CBDB"/>
<path d="M16 26.6666C16.5534 26.6666 17 26.2199 17 25.6666V25.3333H19C19.2867 25.3333 19.5267 25.2399 19.72 25.0533C19.9067 24.8666 20 24.6266 20 24.3333V19.9999C20 19.7133 19.9067 19.4733 19.72 19.2799C19.5334 19.0933 19.2934 18.9999 19 18.9999H14V16.6666H19C19.5534 16.6666 20 16.2199 20 15.6666C20 15.1133 19.5534 14.6666 19 14.6666H17V14.3333C17 13.7799 16.5534 13.3333 16 13.3333C15.4467 13.3333 15 13.7799 15 14.3333V14.6666H13C12.7134 14.6666 12.4734 14.7599 12.28 14.9466C12.0934 15.1333 12 15.3733 12 15.6666V19.9999C12 20.2866 12.0934 20.5266 12.28 20.7199C12.4667 20.9133 12.7067 21.0066 13 20.9999H18V23.3333H13C12.4467 23.3333 12 23.7799 12 24.3333C12 24.8866 12.4467 25.3333 13 25.3333H15V25.6666C15 26.2199 15.4467 26.6666 16 26.6666Z" fill="#222343"/>
<path d="M20 10.3333H12C11.4467 10.3333 11 9.88659 11 9.33325C11 8.77992 11.4467 8.33325 12 8.33325H20C20.5534 8.33325 21 8.77992 21 9.33325C21 9.88659 20.5534 10.3333 20 10.3333Z" fill="#222343"/>
</svg>
