<svg width="32" height="32" viewBox="0 0 32 32" fill="none" xmlns="http://www.w3.org/2000/svg">
<path opacity="0.85" d="M5.39991 26.0667C5.06657 26.2 4.74657 26.1733 4.44657 25.98C4.14657 25.7867 3.99324 25.52 3.99324 25.16V19.2733C3.99324 18.8133 4.30657 18.4133 4.75324 18.3L11.4866 16.6267C12.1599 16.46 12.1599 15.5067 11.4866 15.3333L4.73991 13.6133C4.29991 13.5 3.98657 13.1 3.98657 12.6467V6.82668C3.98657 6.47335 4.13991 6.20002 4.43991 6.00668C4.73991 5.81335 5.05991 5.78668 5.39324 5.92002L27.1266 15.0533C27.5266 15.2333 27.7266 15.54 27.7266 15.9867C27.7266 16.4333 27.5266 16.74 27.1266 16.92L5.39324 26.0533L5.39991 26.0667Z" fill="#25CBDB"/>
<path d="M22.9999 29.3334C21.2466 29.3334 19.7466 28.7201 18.5132 27.5001C17.2799 26.2801 16.6599 24.7867 16.6599 23.0334C16.6599 21.2801 17.2799 19.7801 18.5132 18.5334C19.7466 17.2867 21.2399 16.6667 22.9999 16.6667C24.7599 16.6667 26.2532 17.2867 27.4866 18.5334C28.7199 19.7801 29.3399 21.2801 29.3399 23.0334C29.3399 24.7867 28.7199 26.2801 27.4866 27.5001C26.2532 28.7201 24.7599 29.3334 22.9999 29.3334Z" fill="#222343"/>
<path opacity="0.85" d="M25.8334 25.9333C25.9667 25.8 26.0267 25.6333 26.02 25.4333C26.0134 25.2333 25.9334 25.0666 25.8 24.9333L23.5667 22.7V19.3666C23.5667 19.1866 23.5 19.0333 23.3667 18.9C23.2334 18.7666 23.08 18.7 22.9 18.7C22.72 18.7 22.56 18.7733 22.4134 18.92C22.2667 19.0666 22.1934 19.2266 22.1934 19.4066V22.94C22.1934 23.0733 22.2134 23.1933 22.26 23.3066C22.3067 23.42 22.38 23.5266 22.4934 23.64L24.8267 25.9733C24.96 26.1066 25.1267 26.1733 25.3267 26.1733C25.5267 26.1733 25.6934 26.0933 25.8267 25.94L25.8334 25.9333Z" fill="#25CBDB"/>
</svg>
