<svg width="32" height="32" viewBox="0 0 32 32" fill="none" xmlns="http://www.w3.org/2000/svg">
<path opacity="0.52" d="M20.2333 7.09996C18.6133 5.47996 16.6467 4.66663 14.3333 4.66663C12.02 4.66663 10.0867 5.47996 8.45333 7.09996C6.82 8.71996 6 10.6866 6 13C6 15.3133 6.82 17.2466 8.45333 18.88C10.0867 20.5133 12.0533 21.3333 14.3533 21.3333C16.6533 21.3333 18.6133 20.5133 20.2333 18.88C21.8533 17.2466 22.6667 15.28 22.6667 12.98C22.6667 10.68 21.8533 8.71996 20.2333 7.09996Z" fill="#25CBDB"/>
<path d="M28.6333 25.9L22.3 19.5666C23.0133 18.68 23.5867 17.66 24.02 16.5133C24.4533 15.3733 24.6667 14.2 24.6667 13C24.6667 10.1333 23.66 7.69329 21.6533 5.67996C19.64 3.67329 17.2 2.66663 14.3333 2.66663C11.4667 2.66663 9.02667 3.67329 7.02 5.67996C5.00667 7.69329 4 10.1333 4 13C4 15.8666 5.00667 18.3066 7.02 20.3133C9.02667 22.3266 11.4667 23.3333 14.3333 23.3333C15.5333 23.3333 16.7067 23.1133 17.8533 22.68C18.9933 22.2466 20.0133 21.68 20.9 20.9666L27.2333 27.3C27.4333 27.5 27.6667 27.6 27.9333 27.6C28.2 27.6 28.4333 27.5 28.6333 27.3C28.8333 27.1 28.9333 26.8666 28.9333 26.6C28.9333 26.3333 28.8333 26.1 28.6333 25.9ZM20.2333 18.88C18.6133 20.5133 16.6533 21.3333 14.3533 21.3333C12.0533 21.3333 10.0867 20.5133 8.45333 18.88C6.82 17.2466 6 15.2866 6 13C6 10.7133 6.82 8.71996 8.45333 7.09996C10.0867 5.47996 12.0467 4.66663 14.3333 4.66663C16.62 4.66663 18.6133 5.47996 20.2333 7.09996C21.8533 8.71996 22.6667 10.68 22.6667 12.98C22.6667 15.28 21.8533 17.2466 20.2333 18.88Z" fill="#222343"/>
<path d="M16.7 14.98C15.92 14.7733 15.1333 14.6666 14.3333 14.6666C13.5333 14.6666 12.7467 14.7733 11.9667 14.98C11.1867 15.1933 10.4467 15.52 9.73333 15.9666C10.3533 16.6133 11.0667 17.1133 11.8667 17.4666C12.6667 17.82 13.4933 18 14.3533 18C15.2133 18 16.0333 17.8266 16.84 17.4733C17.6467 17.12 18.34 16.6133 18.9333 15.9666C18.22 15.52 17.48 15.1933 16.7 14.98Z" fill="#222343"/>
<path d="M14.3333 12.6666C14.98 12.6666 15.5267 12.44 15.9867 11.98C16.44 11.52 16.6667 10.9733 16.6667 10.3333C16.6667 9.69329 16.44 9.13996 15.98 8.67996C15.52 8.22663 14.9733 7.99996 14.3333 7.99996C13.6933 7.99996 13.14 8.22663 12.6867 8.68663C12.2267 9.14663 12 9.69329 12 10.3333C12 10.9733 12.2267 11.5266 12.6867 11.98C13.1467 12.44 13.6933 12.6666 14.3333 12.6666Z" fill="#222343"/>
</svg>
