<svg width="32" height="32" viewBox="0 0 32 32" fill="none" xmlns="http://www.w3.org/2000/svg">
<path d="M28.6333 27.2001L21.5666 20.1334C22.3466 19.2001 22.9533 18.1534 23.3866 16.9934C23.82 15.8334 24.0333 14.6001 24.0333 13.3001C24.0333 10.3467 22.9933 7.83341 20.92 5.76675C18.84 3.70008 16.32 2.66675 13.3466 2.66675C10.3733 2.66675 7.85995 3.70008 5.79328 5.76008C3.73328 7.82008 2.69995 10.3401 2.69995 13.3134C2.69995 16.2867 3.73328 18.8067 5.79995 20.8867C7.86662 22.9667 10.38 24.0067 13.3333 24.0067C14.6333 24.0067 15.8666 23.7934 17.0266 23.3534C18.1866 22.9201 19.2333 22.3134 20.1666 21.5401L27.2 28.6067C27.4 28.8067 27.64 28.9067 27.9266 28.9067C28.2133 28.9067 28.44 28.8067 28.6266 28.6067C28.8133 28.4067 28.9066 28.1734 28.92 27.9067C28.9333 27.6401 28.84 27.4067 28.64 27.2067L28.6333 27.2001ZM19.4799 19.4601C17.78 21.1534 15.7333 22.0001 13.3333 22.0001C10.9333 22.0001 8.89328 21.1534 7.21995 19.4601C5.53995 17.7667 4.69995 15.7134 4.69995 13.3001C4.69995 10.8867 5.53995 8.86008 7.21995 7.18675C8.89995 5.50675 10.94 4.66675 13.3333 4.66675C15.7266 4.66675 17.78 5.50675 19.4799 7.18675C21.18 8.86675 22.0333 10.9067 22.0333 13.3001C22.0333 15.6934 21.1866 17.7734 19.4799 19.4601Z" fill="#222343"/>
<path opacity="0.2" d="M19.4799 19.4601C17.78 21.1534 15.7333 22.0001 13.3333 22.0001C10.9333 22.0001 8.89328 21.1534 7.21995 19.4601C5.53995 17.7667 4.69995 15.7134 4.69995 13.3001C4.69995 10.8867 5.53995 8.86008 7.21995 7.18675C8.89995 5.50675 10.94 4.66675 13.3333 4.66675C15.7266 4.66675 17.78 5.50675 19.4799 7.18675C21.18 8.86675 22.0333 10.9067 22.0333 13.3001C22.0333 15.6934 21.1866 17.7734 19.4799 19.4601Z" fill="#25CBDB"/>
<path opacity="0.85" d="M18.1934 17.0665C17.9067 17.0665 17.6734 16.9731 17.48 16.7798C17.2934 16.5865 17.1934 16.3531 17.1934 16.0665V13.2998C17.1934 13.0131 17.2867 12.7798 17.48 12.5865C17.6734 12.3931 17.9134 12.2998 18.2 12.2998C18.4867 12.2998 18.72 12.3931 18.9134 12.5865C19.1 12.7798 19.2 13.0131 19.2 13.2998V16.0665C19.2 16.3531 19.1067 16.5865 18.9134 16.7798C18.72 16.9731 18.48 17.0665 18.1934 17.0665Z" fill="#25CBDB"/>
<path d="M13.3599 17.067C13.0732 17.067 12.8399 16.9737 12.6465 16.7803C12.4599 16.587 12.3599 16.3537 12.3599 16.067V9.16699C12.3599 8.88033 12.4532 8.64699 12.6465 8.45366C12.8399 8.26033 13.0799 8.16699 13.3665 8.16699C13.6532 8.16699 13.8865 8.26033 14.0799 8.45366C14.2665 8.64699 14.3665 8.88033 14.3665 9.16699V16.067C14.3665 16.3537 14.2732 16.587 14.0799 16.7803C13.8865 16.9737 13.6465 17.067 13.3599 17.067Z" fill="#25CBDB"/>
<path opacity="0.52" d="M8.52686 17.0669C8.24019 17.0669 8.00686 16.9736 7.81352 16.7803C7.62686 16.5869 7.52686 16.3536 7.52686 16.0669V11.9336C7.52686 11.6469 7.62019 11.4136 7.81352 11.2203C8.00686 11.0269 8.24686 10.9336 8.53352 10.9336C8.82019 10.9336 9.05352 11.0269 9.24686 11.2203C9.43352 11.4136 9.53352 11.6469 9.53352 11.9336V16.0669C9.53352 16.3536 9.44019 16.5869 9.24686 16.7803C9.05352 16.9736 8.81352 17.0669 8.52686 17.0669Z" fill="#25CBDB"/>
</svg>
