<svg width="32" height="32" viewBox="0 0 32 32" fill="none" xmlns="http://www.w3.org/2000/svg">
<path opacity="0.52" d="M18.6334 28.7667C18.2334 29.1667 17.7467 29.3667 17.18 29.3667C16.6134 29.3667 16.1267 29.1667 15.7267 28.7667L3.23337 16.2667C3.01337 16.0467 2.86003 15.8134 2.78003 15.5667C2.70003 15.3201 2.66003 15.0667 2.66003 14.8001V4.66675C2.66003 4.08675 2.8467 3.61341 3.2267 3.23341C3.6067 2.85341 4.08003 2.66675 4.66003 2.66675H14.7934C15.06 2.66675 15.3267 2.70675 15.5934 2.78675C15.86 2.86675 16.1067 3.01341 16.3267 3.24008L28.76 15.6734C29.18 16.0934 29.3934 16.5934 29.3934 17.1601C29.3934 17.7267 29.18 18.2201 28.76 18.6467L18.6267 28.7801L18.6334 28.7667ZM8.1667 9.86675C8.63337 9.86675 9.04003 9.69341 9.3867 9.34675C9.73337 9.00008 9.9067 8.59341 9.9067 8.12675C9.9067 7.66008 9.73337 7.25341 9.3867 6.90675C9.04003 6.56008 8.63337 6.38675 8.1667 6.38675C7.70003 6.38675 7.29337 6.56008 6.9467 6.90675C6.60003 7.25341 6.4267 7.66008 6.4267 8.12675C6.4267 8.59341 6.60003 9.00008 6.9467 9.34675C7.29337 9.69341 7.70003 9.86675 8.1667 9.86675Z" fill="#25CBDB"/>
<path d="M8.16664 8.13331L2.51331 2.47998" stroke="#222343" stroke-width="3" stroke-miterlimit="10" stroke-linecap="round"/>
<path opacity="0.52" d="M6.95334 9.34669L2.67334 5.06669V4.66669C2.67334 4.46669 2.69334 4.28002 2.74001 4.10669L6.46667 7.84002C6.44667 7.93336 6.44001 8.03336 6.44001 8.13336C6.44001 8.60002 6.61334 9.00002 6.96001 9.34669H6.95334Z" fill="#25CBDB"/>
</svg>
