<svg width="32" height="32" viewBox="0 0 32 32" fill="none" xmlns="http://www.w3.org/2000/svg">
<path opacity="0.52" d="M16 29.3333C14.18 29.3333 12.4534 28.9867 10.8334 28.28C9.21335 27.58 7.79335 26.6267 6.58002 25.4133C5.36669 24.2 4.41335 22.7867 3.71335 21.16C3.01335 19.54 2.66669 17.8133 2.66669 15.9933C2.66669 14.1733 3.02002 12.4133 3.71335 10.7933C4.41335 9.17332 5.36669 7.75999 6.58002 6.55999C7.79335 5.35999 9.20669 4.41332 10.8334 3.70665C12.4534 3.00665 14.18 2.65332 16 2.65332C17.82 2.65332 19.58 3.00665 21.2 3.69999C22.82 4.39999 24.2334 5.35332 25.4334 6.55332C26.6334 7.75332 27.5867 9.16665 28.2867 10.7867C28.9867 12.4067 29.34 14.14 29.34 15.9867C29.34 17.8333 28.9934 19.5333 28.2867 21.1533C27.5867 22.7733 26.6334 24.1933 25.4334 25.4067C24.2334 26.62 22.82 27.5733 21.2 28.2733C19.58 28.9733 17.8467 29.3267 16 29.3267V29.3333Z" fill="#25CBDB"/>
<path d="M10.6667 13.6334L11.5667 12.7334L12.4667 13.6334C12.6467 13.8134 12.8467 13.9001 13.0667 13.9001C13.2867 13.9001 13.4867 13.8134 13.6667 13.6334C13.8467 13.4534 13.9333 13.2534 13.9333 13.0334C13.9333 12.8134 13.8467 12.6134 13.6667 12.4334L12.2667 11.0334C12.1533 10.9201 12.0467 10.8467 11.9333 10.8001C11.82 10.7534 11.7 10.7334 11.5667 10.7334C11.4333 10.7334 11.3133 10.7534 11.2 10.8001C11.0867 10.8467 10.98 10.9201 10.8667 11.0334L9.46668 12.4334C9.28668 12.6134 9.20001 12.8134 9.20001 13.0334C9.20001 13.2534 9.28668 13.4534 9.46668 13.6334C9.64668 13.8134 9.84668 13.9001 10.0667 13.9001C10.2867 13.9001 10.4867 13.8134 10.6667 13.6334Z" fill="#222343"/>
<path d="M22.5667 12.4334L21.1667 11.0334C21.0533 10.9201 20.9467 10.8467 20.8333 10.8001C20.72 10.7534 20.6 10.7334 20.4667 10.7334C20.3333 10.7334 20.2133 10.7534 20.1 10.8001C19.9867 10.8467 19.88 10.9201 19.7667 11.0334L18.3667 12.4334C18.1867 12.6134 18.1 12.8134 18.1 13.0334C18.1 13.2534 18.1867 13.4534 18.3667 13.6334C18.5467 13.8134 18.7467 13.9001 18.9667 13.9001C19.1867 13.9001 19.3867 13.8134 19.5667 13.6334L20.4667 12.7334L21.3667 13.6334C21.5467 13.8134 21.7467 13.9001 21.9667 13.9001C22.1867 13.9001 22.3867 13.8134 22.5667 13.6334C22.7467 13.4534 22.8333 13.2534 22.8333 13.0334C22.8333 12.8134 22.7467 12.6134 22.5667 12.4334Z" fill="#222343"/>
<path d="M10.4 18.9001C10.0867 18.9001 9.86668 19.0001 9.73335 19.2001C9.60001 19.4001 9.62001 19.6334 9.80001 19.9001C10.4467 20.9667 11.32 21.8001 12.4333 22.4001C13.5467 23.0001 14.7333 23.3001 16 23.3001C17.2667 23.3001 18.46 23.0001 19.5867 22.4001C20.7067 21.8001 21.5933 20.9667 22.24 19.9001C22.42 19.6334 22.4333 19.4001 22.2867 19.2001C22.14 19.0001 21.9133 18.9001 21.6067 18.9001H10.4Z" fill="#222343"/>
</svg>
