<svg width="32" height="32" viewBox="0 0 32 32" fill="none" xmlns="http://www.w3.org/2000/svg">
<path opacity="0.52" d="M16 29.3333C14.18 29.3333 12.4534 28.9867 10.8334 28.28C9.21335 27.58 7.79335 26.6267 6.58002 25.4133C5.36669 24.2 4.41335 22.7867 3.71335 21.16C3.01335 19.54 2.66669 17.8067 2.66669 15.96C2.66669 14.1133 3.02002 12.4133 3.71335 10.7933C4.41335 9.17332 5.36669 7.75999 6.58002 6.55999C7.79335 5.35999 9.20669 4.41332 10.8334 3.70665C12.4534 3.00665 14.1867 2.65332 16.0334 2.65332C17.88 2.65332 19.58 3.00665 21.2 3.69999C22.82 4.39999 24.2334 5.35332 25.4334 6.55332C26.6334 7.75332 27.5867 9.16665 28.2867 10.7867C28.9867 12.4067 29.34 14.14 29.34 15.9867C29.34 17.8333 28.9934 19.5333 28.2867 21.1533C27.5867 22.7733 26.6334 24.1933 25.4334 25.4067C24.2334 26.62 22.82 27.5733 21.2 28.2733C19.58 28.9733 17.8467 29.3267 16 29.3267V29.3333Z" fill="#25CBDB"/>
<path d="M20.8666 14.2333C21.38 14.2333 21.8066 14.06 22.1533 13.72C22.5 13.38 22.6666 12.9466 22.6666 12.4333C22.6666 11.92 22.4933 11.4933 22.1533 11.1466C21.8066 10.8 21.38 10.6333 20.8666 10.6333C20.3533 10.6333 19.9266 10.8066 19.5866 11.1466C19.24 11.4933 19.0733 11.92 19.0733 12.4333C19.0733 12.9466 19.2466 13.3733 19.5866 13.72C19.9266 14.0666 20.36 14.2333 20.8666 14.2333Z" fill="#222343"/>
<path d="M11.1333 14.2333C11.6466 14.2333 12.0733 14.06 12.4133 13.72C12.7533 13.38 12.9333 12.9466 12.9333 12.4333C12.9333 11.92 12.76 11.4933 12.4133 11.1466C12.0666 10.8 11.64 10.6333 11.1333 10.6333C10.6266 10.6333 10.1933 10.8066 9.85331 11.1466C9.50665 11.4933 9.33331 11.92 9.33331 12.4333C9.33331 12.9466 9.50665 13.3733 9.85331 13.72C10.2 14.0666 10.6266 14.2333 11.1333 14.2333Z" fill="#222343"/>
<path d="M21.5333 18.9C21.4 18.9 21.2533 18.9466 21.1 19.0333C20.9466 19.12 20.82 19.22 20.7333 19.3333C20.2 20.0866 19.5133 20.6666 18.68 21.0666C17.8466 21.4666 16.96 21.6666 16.0266 21.6666C15.0933 21.6666 14.1733 21.4733 13.3266 21.08C12.48 20.6933 11.8066 20.12 11.2933 19.3666C11.2066 19.2333 11.0866 19.12 10.94 19.0333C10.7933 18.9466 10.6466 18.9 10.4933 18.9C10.2066 18.9 9.98665 19.0266 9.84665 19.2866C9.70665 19.5466 9.73998 19.8333 9.95998 20.1666C10.56 21.1 11.4 21.8533 12.48 22.4333C13.56 23.0133 14.7333 23.3 15.9933 23.3C17.2533 23.3 18.44 23.0133 19.5266 22.4333C20.6133 21.8533 21.48 21.0666 22.1266 20.0666C22.3066 19.8 22.3266 19.54 22.1933 19.2866C22.06 19.0333 21.84 18.9 21.5266 18.9H21.5333Z" fill="#222343"/>
</svg>
