<svg width="32" height="32" viewBox="0 0 32 32" fill="none" xmlns="http://www.w3.org/2000/svg">
<path opacity="0.52" d="M16 29.3333C14.18 29.3333 12.4534 28.9867 10.8334 28.28C9.21335 27.58 7.79335 26.6267 6.58002 25.4133C5.36669 24.2 4.41335 22.7867 3.71335 21.16C3.01335 19.54 2.66669 17.8067 2.66669 15.96C2.66669 14.1133 3.02002 12.4133 3.71335 10.7933C4.41335 9.17332 5.36669 7.75999 6.58002 6.55999C7.79335 5.35999 9.20669 4.41332 10.8334 3.70665C12.4534 3.00665 14.1867 2.65332 16.0334 2.65332C17.88 2.65332 19.58 3.00665 21.2 3.69999C22.82 4.39999 24.2334 5.35332 25.4334 6.55332C26.6334 7.75332 27.5867 9.16665 28.2867 10.7867C28.9867 12.4067 29.34 14.14 29.34 15.9867C29.34 17.8333 28.9934 19.5333 28.2867 21.1533C27.5867 22.7733 26.6334 24.1933 25.4334 25.4067C24.2334 26.62 22.82 27.5733 21.2 28.2733C19.58 28.9733 17.8467 29.3267 16 29.3267V29.3333Z" fill="#25CBDB"/>
<path d="M20.8666 14.2334C21.38 14.2334 21.8066 14.06 22.1533 13.7134C22.5 13.3667 22.6666 12.94 22.6666 12.4267C22.6666 11.9134 22.4933 11.4867 22.1533 11.1467C21.8133 10.8067 21.38 10.6267 20.8666 10.6267C20.3533 10.6267 19.9266 10.8 19.5866 11.1467C19.2466 11.4934 19.0733 11.92 19.0733 12.4267C19.0733 12.9334 19.2466 13.3667 19.5866 13.7134C19.9333 14.06 20.36 14.2334 20.8666 14.2334Z" fill="#222343"/>
<path d="M11.1333 14.2334C11.6466 14.2334 12.0733 14.06 12.4133 13.7134C12.76 13.3667 12.9333 12.94 12.9333 12.4267C12.9333 11.9134 12.76 11.4867 12.4133 11.1467C12.0666 10.8067 11.64 10.6267 11.1333 10.6267C10.6266 10.6267 10.1933 10.8 9.85331 11.1467C9.51331 11.4934 9.33331 11.92 9.33331 12.4267C9.33331 12.9334 9.50665 13.3667 9.85331 13.7134C10.2 14.06 10.6266 14.2334 11.1333 14.2334Z" fill="#222343"/>
<path d="M19.5333 18.9667C18.4466 18.3867 17.2666 18.1 16 18.1C14.7333 18.1 13.56 18.3867 12.4866 18.9534C11.4066 19.52 10.5666 20.2667 9.96665 21.2067C9.74665 21.54 9.70665 21.84 9.85331 22.1067C9.99998 22.3734 10.2133 22.5067 10.5 22.5067C10.6533 22.5067 10.8066 22.46 10.9466 22.3734C11.0933 22.2867 11.2066 22.1734 11.3 22.04C11.8133 21.2867 12.4866 20.7134 13.3333 20.3267C14.18 19.94 15.08 19.74 16.0333 19.74C16.9866 19.74 17.8533 19.94 18.6866 20.34C19.52 20.74 20.2 21.32 20.74 22.0734C20.8266 22.1867 20.9533 22.2867 21.1066 22.3734C21.26 22.46 21.4066 22.5067 21.54 22.5067C21.8533 22.5067 22.0733 22.38 22.2066 22.1267C22.34 21.8734 22.32 21.6067 22.14 21.34C21.4933 20.34 20.6266 19.5534 19.54 18.9734L19.5333 18.9667Z" fill="#222343"/>
</svg>
