<svg width="32" height="32" viewBox="0 0 32 32" fill="none" xmlns="http://www.w3.org/2000/svg">
<path opacity="0.52" fill-rule="evenodd" clip-rule="evenodd" d="M18.2 29.3334H13.8C13.5533 29.3334 13.34 29.2534 13.1467 29.1001C12.96 28.9468 12.84 28.7467 12.8 28.5001L12.2667 25.1334C11.8467 24.9801 11.4 24.7667 10.9333 24.5001C10.4667 24.2334 10.0533 23.9534 9.70001 23.6667L6.60001 25.1001C6.35334 25.2134 6.11334 25.2267 5.86668 25.1534C5.62001 25.0734 5.43334 24.9134 5.30001 24.6667L3.10001 20.7667C2.96667 20.5467 2.93334 20.3134 3.00001 20.0667C3.06667 19.8201 3.20001 19.6201 3.40001 19.4667L6.26667 17.3667C6.22001 17.1667 6.19334 16.9401 6.18667 16.6867C6.18001 16.4334 6.17334 16.2001 6.17334 16.0001C6.17334 15.8001 6.17334 15.5734 6.18667 15.3201C6.20001 15.0667 6.22667 14.8334 6.26667 14.6401L3.40001 12.5401C3.20001 12.3867 3.06667 12.1867 3.00001 11.9401C2.93334 11.6934 2.96667 11.4601 3.10001 11.2401L5.30001 7.34008C5.43334 7.09341 5.62001 6.93341 5.86668 6.85341C6.11334 6.77341 6.35334 6.79342 6.60001 6.90008L9.70001 8.33342C10.0533 8.04675 10.4667 7.76675 10.9333 7.50008C11.4 7.23341 11.8467 7.03342 12.2667 6.90008L12.8 3.50008C12.8467 3.25341 12.96 3.05341 13.1467 2.90008C13.3333 2.74675 13.5533 2.66675 13.8 2.66675H18.2C18.4467 2.66675 18.66 2.74675 18.8533 2.90008C19.04 3.05341 19.16 3.25341 19.2 3.50008L19.7333 6.86675C20.1533 7.02008 20.6067 7.22675 21.08 7.48675C21.56 7.74008 21.9667 8.02675 22.3 8.33342L25.4 6.90008C25.6467 6.78675 25.8867 6.77341 26.1333 6.85341C26.38 6.93341 26.5667 7.09341 26.7 7.34008L28.9 11.2067C29.0333 11.4267 29.0733 11.6667 29.0133 11.9267C28.96 12.1801 28.82 12.3867 28.6 12.5401L25.7333 14.5734C25.78 14.7934 25.8067 15.0334 25.8133 15.2934C25.8267 15.5467 25.8333 15.7867 25.8333 16.0134C25.8333 16.2401 25.8333 16.4667 25.8133 16.7134C25.8 16.9601 25.7733 17.1934 25.7333 17.4134L28.6 19.4801C28.8 19.6334 28.9333 19.8334 29 20.0801C29.0667 20.3267 29.0333 20.5601 28.9 20.7801L26.7 24.6801C26.5667 24.9267 26.38 25.0868 26.1333 25.1601C25.8867 25.2401 25.6467 25.2201 25.4 25.1067L22.3 23.6734C21.9467 23.9601 21.54 24.2467 21.08 24.5267C20.6267 24.8067 20.1733 25.0067 19.7333 25.1401L19.2 28.5067C19.1533 28.7534 19.04 28.9534 18.8533 29.1067C18.6667 29.2601 18.4467 29.3401 18.2 29.3401V29.3334ZM16 20.3334C17.2 20.3334 18.22 19.9134 19.0667 19.0667C19.9133 18.2201 20.3333 17.2001 20.3333 16.0001C20.3333 14.8001 19.9133 13.7801 19.0667 12.9334C18.22 12.0867 17.2 11.6667 16 11.6667C14.8 11.6667 13.78 12.0867 12.9333 12.9334C12.0867 13.7801 11.6667 14.8001 11.6667 16.0001C11.6667 17.2001 12.0867 18.2201 12.9333 19.0667C13.78 19.9134 14.8 20.3334 16 20.3334Z" fill="#25CBDB"/>
<path d="M16 20.3334C18.3933 20.3334 20.3334 18.3933 20.3334 16.0001C20.3334 13.6068 18.3933 11.6667 16 11.6667C13.6068 11.6667 11.6667 13.6068 11.6667 16.0001C11.6667 18.3933 13.6068 20.3334 16 20.3334Z" fill="#222343"/>
</svg>
