<svg width="32" height="32" viewBox="0 0 32 32" fill="none" xmlns="http://www.w3.org/2000/svg">
<path opacity="0.52" d="M25.3666 6.13336C26.1466 6.42669 26.6666 7.17336 26.6666 8.00669V14.7267C26.6666 21.32 22.4999 26.94 16.6599 29.1067C16.2399 29.2667 15.7666 29.2667 15.3399 29.1067C9.49992 26.94 5.33325 21.32 5.33325 14.7267V8.00669C5.33325 7.17336 5.85325 6.42669 6.63325 6.13336L8.45992 5.45336L15.2999 2.90002C15.7533 2.73336 16.2466 2.73336 16.6999 2.90002L23.5399 5.45336L25.3666 6.13336Z" fill="#25CBDB"/>
<path d="M22.8399 7.32665L15.9999 4.77332L9.15992 7.32665L7.33325 8.00665V14.7266C7.33325 20.2666 10.8133 25.28 15.9999 27.22C21.1866 25.2866 24.6666 20.2666 24.6666 14.7266V8.00665L22.8399 7.32665ZM19.8666 17.9667C20.0866 18.1666 20.1999 18.4133 20.1999 18.7C20.1999 18.9866 20.0866 19.2466 19.8666 19.4667C19.6666 19.6666 19.4199 19.7666 19.1333 19.7666C18.8466 19.7666 18.5999 19.6666 18.3999 19.4667L15.9999 17.1666L13.5999 19.4667C13.3999 19.6666 13.1533 19.7666 12.8666 19.7666C12.5799 19.7666 12.3333 19.6666 12.1333 19.4667C11.9133 19.2466 11.7999 18.9866 11.7999 18.7C11.7999 18.4133 11.9133 18.1666 12.1333 17.9667L14.4666 15.6666L12.1333 13.3333C11.9133 13.1333 11.8066 12.8866 11.8199 12.5866C11.8333 12.2866 11.9333 12.0333 12.1333 11.84C12.3533 11.62 12.6066 11.5133 12.8799 11.52C13.1533 11.5266 13.3999 11.64 13.5999 11.84L15.9999 14.14L18.3999 11.84C18.5999 11.64 18.8466 11.54 19.1333 11.54C19.4199 11.54 19.6666 11.64 19.8666 11.84C20.0866 12.06 20.1999 12.32 20.1999 12.6066C20.1999 12.8933 20.0866 13.14 19.8666 13.34L17.5333 15.6733L19.8666 17.9733V17.9667Z" fill="#222343"/>
</svg>
