<svg width="32" height="32" viewBox="0 0 32 32" fill="none" xmlns="http://www.w3.org/2000/svg">
<path opacity="0.52" d="M25.3666 6.13336L23.5399 5.45336L16.6999 2.90002C16.2466 2.73336 15.7533 2.73336 15.2999 2.90002L8.45992 5.45336L6.63325 6.13336C5.85325 6.42669 5.33325 7.17336 5.33325 8.00669V14.7267C5.33325 21.32 9.49992 26.94 15.3399 29.1067C15.7599 29.26 16.2333 29.26 16.6599 29.1067C22.4999 26.94 26.6666 21.32 26.6666 14.7267V8.00669C26.6666 7.17336 26.1466 6.42669 25.3666 6.13336Z" fill="#25CBDB"/>
<path d="M22.8399 7.32665L15.9999 4.77332L9.15992 7.32665L7.33325 8.00665V14.7266C7.33325 20.2666 10.8133 25.28 15.9999 27.22C21.1866 25.2866 24.6666 20.2666 24.6666 14.7266V8.00665L22.8399 7.32665Z" fill="#25CBDB"/>
<path opacity="0.32" d="M23.1199 24.5334C22.9066 24.7867 22.6866 25.0334 22.4599 25.2734L21.0399 23.8534L7.33325 10.16L5.33325 8.16669V8.00669C5.33325 7.65335 5.42659 7.31335 5.59992 7.02002L7.33325 8.75335L21.6933 23.1L23.1199 24.5334Z" fill="#222343"/>
<path d="M28.7135 28.7064C28.5868 28.833 28.4335 28.9197 28.2668 28.9597C28.1801 28.9864 28.0935 28.9997 28.0068 28.9997C27.7535 28.9997 27.5001 28.8997 27.3001 28.7064L23.1201 24.533L21.6935 23.0997L7.33347 8.75305L5.60014 7.01971L3.2868 4.70638C3.02014 4.44638 2.93347 4.07971 3.03347 3.74638C3.07347 3.57971 3.16014 3.42638 3.2868 3.29305C3.67347 2.89971 4.30681 2.89971 4.70014 3.29305L7.29347 5.88638L8.85347 7.43971L22.8468 21.433L24.3135 22.893L28.7135 27.293C29.1068 27.6797 29.1068 28.313 28.7135 28.7064Z" fill="#222343"/>
</svg>
