<svg width="32" height="32" viewBox="0 0 32 32" fill="none" xmlns="http://www.w3.org/2000/svg">
<path opacity="0.52" d="M25.3666 6.13336C26.1466 6.42669 26.6666 7.17336 26.6666 8.00669V14.7267C26.6666 21.32 22.4999 26.94 16.6599 29.1067C16.2399 29.2667 15.7666 29.2667 15.3399 29.1067C9.49992 26.94 5.33325 21.32 5.33325 14.7267V8.00669C5.33325 7.17336 5.85325 6.42669 6.63325 6.13336L8.45992 5.45336L15.2999 2.90002C15.7533 2.73336 16.2466 2.73336 16.6999 2.90002L23.5399 5.45336L25.3666 6.13336Z" fill="#25CBDB"/>
<path d="M22.8399 7.32665L15.9999 4.77332L9.15992 7.32665L7.33325 8.00665V14.7266C7.33325 20.2666 10.8133 25.28 15.9999 27.22C21.1866 25.2866 24.6666 20.2666 24.6666 14.7266V8.00665L22.8399 7.32665Z" fill="#222343"/>
<path d="M26.3533 24.84L20.1667 18.6534C20.6933 17.86 21 16.9134 21 15.9C21 13.14 18.76 10.9 16 10.9C13.24 10.9 11 13.14 11 15.9C11 18.66 13.24 20.9 16 20.9C17.02 20.9 17.9667 20.5934 18.7533 20.0667L24.94 26.2534C25.1333 26.4467 25.3933 26.5467 25.6467 26.5467C25.9 26.5467 26.16 26.4467 26.3533 26.2534C26.7467 25.86 26.7467 25.2267 26.3533 24.84ZM13 15.9C13 14.24 14.34 12.9 16 12.9C17.66 12.9 19 14.24 19 15.9C19 17.56 17.66 18.9 16 18.9C14.34 18.9 13 17.56 13 15.9Z" fill="#25CBDB"/>
</svg>
