<svg width="32" height="32" viewBox="0 0 32 32" fill="none" xmlns="http://www.w3.org/2000/svg">
<path opacity="0.52" d="M25.3666 6.13336L23.5399 5.45336L16.6999 2.90002C16.2466 2.73336 15.7533 2.73336 15.2999 2.90002L8.45992 5.45336L6.63325 6.13336C5.85325 6.42669 5.33325 7.17336 5.33325 8.00669V14.7267C5.33325 21.32 9.49992 26.94 15.3399 29.1067C15.7599 29.26 16.2333 29.26 16.6599 29.1067C22.4999 26.94 26.6666 21.32 26.6666 14.7267V8.00669C26.6666 7.17336 26.1466 6.42669 25.3666 6.13336Z" fill="#25CBDB"/>
<path d="M22.8399 7.32665L15.9999 4.77332L9.15992 7.32665L7.33325 8.00665V14.7266C7.33325 20.2666 10.8133 25.28 15.9999 27.22C21.1866 25.2866 24.6666 20.2666 24.6666 14.7266V8.00665L22.8399 7.32665Z" fill="#25CBDB"/>
<path opacity="0.52" d="M18.6667 27.48C18.3267 27.14 18.0333 26.7733 17.7867 26.3933C17.1533 25.4133 16.8333 24.3133 16.8333 23.1C16.8333 22.56 16.8933 22.0533 17.0067 21.5667C16.6667 22.34 16.5 23.1867 16.5 24.1C16.5 25.0133 16.7 25.94 17.0933 26.7533C17.3733 27.34 17.76 27.8933 18.26 28.4C18.56 28.2533 18.86 28.0933 19.1467 27.92C18.98 27.7867 18.82 27.64 18.6667 27.48Z" fill="#222343"/>
<path d="M27.5199 18.6467C26.2799 17.4134 24.8133 16.8 23.0999 16.8C21.3866 16.8 19.8866 17.4134 18.6666 18.6467C17.4466 19.8867 16.8333 21.3667 16.8333 23.1C16.8333 24.8334 17.4466 26.2534 18.6666 27.48C19.8866 28.72 21.3666 29.3334 23.0999 29.3334C24.8333 29.3334 26.2799 28.72 27.5199 27.48C28.7466 26.2534 29.3666 24.7867 29.3666 23.1C29.3666 21.4134 28.7466 19.8867 27.5199 18.6467Z" fill="#222343"/>
<path d="M26.3932 25.4933C26.3599 25.3599 26.2933 25.2666 26.1799 25.2266C25.6933 24.9999 25.1932 24.8266 24.6799 24.7066C24.1666 24.5866 23.6466 24.5266 23.1132 24.5266C22.5799 24.5266 22.0599 24.5799 21.5466 24.6933C21.0332 24.7999 20.5332 24.9799 20.0466 25.2266C19.9332 25.2666 19.8599 25.3599 19.8132 25.4933C19.7666 25.6266 19.7932 25.7466 19.8799 25.8599C20.2799 26.3266 20.7599 26.6733 21.3266 26.9066C21.8932 27.1399 22.4932 27.2599 23.1132 27.2599C23.7332 27.2599 24.3266 27.1333 24.8799 26.8933C25.4332 26.6466 25.9133 26.2999 26.3133 25.8599C26.3999 25.7466 26.4266 25.6266 26.3932 25.4933Z" fill="#25CBDB"/>
<path d="M23.1466 23.0133C23.7266 23.0133 24.2132 22.8066 24.6132 22.3799C25.0132 21.9599 25.2132 21.4599 25.2132 20.8799C25.2132 20.2999 25.0132 19.8199 24.6132 19.4133C24.2132 19.0133 23.7266 18.8199 23.1466 18.8199C22.5666 18.8199 22.0666 19.0133 21.6466 19.4133C21.2266 19.8199 21.0132 20.3066 21.0132 20.8799C21.0132 21.4533 21.2266 21.9599 21.6466 22.3799C22.0666 22.8066 22.5666 23.0133 23.1466 23.0133Z" fill="#25CBDB"/>
</svg>
