<svg width="32" height="32" viewBox="0 0 32 32" fill="none" xmlns="http://www.w3.org/2000/svg">
<path opacity="0.52" d="M27.76 16.0066L25.7 25.1133C25.4933 26.0199 24.6866 26.6666 23.7533 26.6666H8.27998C7.34665 26.6666 6.53998 26.0199 6.33332 25.1133L4.27332 16.0066H27.76Z" fill="#25CBDB"/>
<g opacity="0.85">
<path d="M10.0199 24.6933C9.46661 24.6933 9.01994 24.2466 9.01994 23.6933V18.9799C9.01994 18.4266 9.46661 17.9799 10.0199 17.9799C10.5733 17.9799 11.0199 18.4266 11.0199 18.9799V23.6933C11.0199 24.2466 10.5733 24.6933 10.0199 24.6933Z" fill="#25CBDB"/>
<path d="M14.02 24.6933C13.4666 24.6933 13.02 24.2466 13.02 23.6933V18.9799C13.02 18.4266 13.4666 17.9799 14.02 17.9799C14.5733 17.9799 15.02 18.4266 15.02 18.9799V23.6933C15.02 24.2466 14.5733 24.6933 14.02 24.6933Z" fill="#25CBDB"/>
<path d="M18.02 24.6933C17.4666 24.6933 17.02 24.2466 17.02 23.6933V18.9799C17.02 18.4266 17.4666 17.9799 18.02 17.9799C18.5733 17.9799 19.02 18.4266 19.02 18.9799V23.6933C19.02 24.2466 18.5733 24.6933 18.02 24.6933Z" fill="#25CBDB"/>
<path d="M22.02 24.6933C21.4666 24.6933 21.02 24.2466 21.02 23.6933V18.9799C21.02 18.4266 21.4666 17.9799 22.02 17.9799C22.5733 17.9799 23.02 18.4266 23.02 18.9799V23.6933C23.02 24.2466 22.5733 24.6933 22.02 24.6933Z" fill="#25CBDB"/>
<path d="M29.3466 14.3333V15.0066C29.3466 15.5533 28.9 16.0066 28.3466 16.0066H3.66663C3.11329 16.0066 2.66663 15.5533 2.66663 15.0066V14.3333C2.66663 13.7866 3.11329 13.3333 3.66663 13.3333H28.3466C28.9 13.3333 29.3466 13.7866 29.3466 14.3333Z" fill="#25CBDB"/>
</g>
<path d="M9.48001 15.52C9.64001 15.62 9.82001 15.6667 9.99334 15.6667V15.66C10.3333 15.66 10.6667 15.4933 10.8533 15.18L15.8667 6.87333C16.1533 6.4 16 5.78666 15.5267 5.5C15.0533 5.21333 14.44 5.36666 14.1533 5.84L9.14001 14.1467C8.85334 14.62 9.00668 15.2333 9.48001 15.52Z" fill="#222343"/>
<path d="M21.1867 15.1866C21.3734 15.4933 21.7 15.6666 22.04 15.6666L22.0467 15.6733C22.22 15.6733 22.4 15.6266 22.56 15.5266C23.0334 15.2399 23.1867 14.6266 22.9 14.1533L17.8734 5.84659C17.5867 5.37326 16.9734 5.21992 16.5 5.50659C16.0267 5.79325 15.8734 6.40659 16.16 6.87992L21.1867 15.1866Z" fill="#222343"/>
</svg>
