<svg width="32" height="32" viewBox="0 0 32 32" fill="none" xmlns="http://www.w3.org/2000/svg">
<path opacity="0.52" d="M27.3333 7.33325H4.66663V24.6666H27.3333V7.33325Z" fill="#25CBDB"/>
<path d="M28.7333 5.93325C28.3333 5.53325 27.8666 5.33325 27.3333 5.33325H4.66663C4.13329 5.33325 3.66663 5.53325 3.26663 5.93325C2.86663 6.33325 2.66663 6.79992 2.66663 7.33325V24.6666C2.66663 25.1999 2.86663 25.6666 3.26663 26.0666C3.66663 26.4666 4.13329 26.6666 4.66663 26.6666H27.3333C27.8666 26.6666 28.3333 26.4666 28.7333 26.0666C29.1333 25.6666 29.3333 25.1999 29.3333 24.6666V7.33325C29.3333 6.79992 29.1333 6.33325 28.7333 5.93325ZM27.3333 24.6666H4.66663V7.33325H27.3333V24.6666Z" fill="#222343"/>
<path d="M14.6133 20.5599L20.4466 16.7666C21.0533 16.3733 21.0533 15.4866 20.4466 15.0866L14.6133 11.2933C13.9466 10.8599 13.0666 11.3399 13.0666 12.1333V19.7133C13.0666 20.5066 13.9466 20.9866 14.6133 20.5533V20.5599Z" fill="#222343"/>
</svg>
