<svg width="32" height="32" viewBox="0 0 32 32" fill="none" xmlns="http://www.w3.org/2000/svg">
<path opacity="0.52" d="M16 2.66675C8.63329 2.66675 2.66663 8.63341 2.66663 16.0001C2.66663 23.3667 8.63329 29.3334 16 29.3334C23.3666 29.3334 29.3333 23.3667 29.3333 16.0001C29.3333 8.63341 23.3666 2.66675 16 2.66675ZM11.0533 14.6934C11.2666 14.6934 11.4466 14.7667 11.5866 14.9067C11.7333 15.0534 11.8 15.2267 11.8 15.4401V17.5401C11.8 17.7534 11.7266 17.9334 11.5866 18.0734C11.44 18.2201 11.2666 18.2867 11.0533 18.2867H8.79996C8.62663 18.2867 8.47996 18.2334 8.37329 18.1201C8.26663 18.0067 8.19996 17.8601 8.19996 17.6867C8.19996 17.5134 8.25996 17.3734 8.37329 17.2534C8.48663 17.1334 8.62663 17.0867 8.79996 17.0867H10.6V15.8867H8.94663C8.73329 15.8867 8.55329 15.8134 8.41329 15.6734C8.26663 15.5267 8.19996 15.3534 8.19996 15.1401V13.0401C8.19996 12.8267 8.27329 12.6467 8.41329 12.5067C8.55996 12.3601 8.73329 12.2934 8.94663 12.2934H11.2C11.3733 12.2934 11.5133 12.3534 11.6333 12.4667C11.7466 12.5801 11.8066 12.7267 11.8066 12.8934C11.8066 13.0601 11.7466 13.2067 11.6333 13.3267C11.52 13.4401 11.3733 13.4934 11.2 13.4934H9.39996V14.6934H11.0466H11.0533ZM19 17.6934C19 17.8667 18.94 18.0067 18.8266 18.1267C18.7133 18.2401 18.5666 18.2934 18.3933 18.2934C18.22 18.2934 18.0733 18.2401 17.9666 18.1267C17.86 18.0134 17.7933 17.8667 17.7933 17.6934V13.4934H16.5933V16.6401C16.5933 16.8134 16.5333 16.9534 16.42 17.0734C16.3066 17.1867 16.16 17.2401 15.9866 17.2401C15.8133 17.2401 15.6733 17.1867 15.56 17.0734C15.4466 16.9601 15.3866 16.8134 15.3866 16.6401V13.4934H14.1866V17.6934C14.1866 17.8667 14.1266 18.0067 14.0133 18.1267C13.9 18.2401 13.7533 18.2934 13.58 18.2934C13.4066 18.2934 13.2666 18.2401 13.1533 18.1267C13.04 18.0134 12.98 17.8667 12.98 17.6934V13.1401C12.98 12.8867 13.06 12.6867 13.22 12.5267C13.38 12.3667 13.58 12.2867 13.8333 12.2867H18.1333C18.3866 12.2867 18.5866 12.3667 18.7466 12.5267C18.9066 12.6867 18.9866 12.8867 18.9866 13.1401V17.6934H19ZM23.0533 14.6934C23.2666 14.6934 23.4466 14.7667 23.5866 14.9067C23.7333 15.0534 23.8 15.2267 23.8 15.4401V17.5401C23.8 17.7534 23.7266 17.9334 23.5866 18.0734C23.44 18.2201 23.2666 18.2867 23.0533 18.2867H20.8C20.6266 18.2867 20.48 18.2334 20.3733 18.1201C20.2666 18.0067 20.2 17.8601 20.2 17.6867C20.2 17.5134 20.26 17.3734 20.3733 17.2534C20.4866 17.1334 20.6266 17.0867 20.8 17.0867H22.6V15.8867H20.9466C20.7333 15.8867 20.5533 15.8134 20.4133 15.6734C20.2666 15.5267 20.2 15.3534 20.2 15.1401V13.0401C20.2 12.8267 20.2733 12.6467 20.4133 12.5067C20.56 12.3601 20.7333 12.2934 20.9466 12.2934H23.2C23.3733 12.2934 23.5133 12.3534 23.6333 12.4667C23.7466 12.5801 23.8066 12.7267 23.8066 12.8934C23.8066 13.0601 23.7466 13.2067 23.6333 13.3267C23.52 13.4401 23.3733 13.4934 23.2 13.4934H21.4V14.6934H23.0466H23.0533Z" fill="#25CBDB"/>
<path d="M24.3333 9.33333H7.66663C7.11329 9.33333 6.66663 9.77999 6.66663 10.3333V21.5867C6.66663 22.08 7.18663 22.4067 7.63329 22.18L9.33329 21.3267H24.3333C24.8866 21.3267 25.3333 20.88 25.3333 20.3267V10.3267C25.3333 9.77333 24.8866 9.32666 24.3333 9.32666V9.33333ZM11.0533 14.6933C11.2666 14.6933 11.4466 14.7667 11.5866 14.9067C11.7333 15.0533 11.8 15.2267 11.8 15.44V17.54C11.8 17.7533 11.7266 17.9333 11.5866 18.0733C11.44 18.22 11.2666 18.2867 11.0533 18.2867H8.79996C8.62663 18.2867 8.47996 18.2333 8.37329 18.12C8.26663 18.0067 8.19996 17.86 8.19996 17.6867C8.19996 17.5133 8.25996 17.3733 8.37329 17.2533C8.48663 17.1333 8.62663 17.0867 8.79996 17.0867H10.6V15.8867H8.94663C8.73329 15.8867 8.55329 15.8133 8.41329 15.6733C8.26663 15.5267 8.19996 15.3533 8.19996 15.14V13.04C8.19996 12.8267 8.27329 12.6467 8.41329 12.5067C8.55996 12.36 8.73329 12.2933 8.94663 12.2933H11.2C11.3733 12.2933 11.5133 12.3533 11.6333 12.4667C11.7466 12.58 11.8066 12.7267 11.8066 12.8933C11.8066 13.06 11.7466 13.2067 11.6333 13.3267C11.52 13.44 11.3733 13.4933 11.2 13.4933H9.39996V14.6933H11.0466H11.0533ZM19 17.6933C19 17.8667 18.94 18.0067 18.8266 18.1267C18.7133 18.24 18.5666 18.2933 18.3933 18.2933C18.22 18.2933 18.0733 18.24 17.9666 18.1267C17.86 18.0133 17.7933 17.8667 17.7933 17.6933V13.4933H16.5933V16.64C16.5933 16.8133 16.5333 16.9533 16.42 17.0733C16.3066 17.1867 16.16 17.24 15.9866 17.24C15.8133 17.24 15.6733 17.1867 15.56 17.0733C15.4466 16.96 15.3866 16.8133 15.3866 16.64V13.4933H14.1866V17.6933C14.1866 17.8667 14.1266 18.0067 14.0133 18.1267C13.9 18.24 13.7533 18.2933 13.58 18.2933C13.4066 18.2933 13.2666 18.24 13.1533 18.1267C13.04 18.0133 12.98 17.8667 12.98 17.6933V13.14C12.98 12.8867 13.06 12.6867 13.22 12.5267C13.38 12.3667 13.58 12.2867 13.8333 12.2867H18.1333C18.3866 12.2867 18.5866 12.3667 18.7466 12.5267C18.9066 12.6867 18.9866 12.8867 18.9866 13.14V17.6933H19ZM23.0533 14.6933C23.2666 14.6933 23.4466 14.7667 23.5866 14.9067C23.7333 15.0533 23.8 15.2267 23.8 15.44V17.54C23.8 17.7533 23.7266 17.9333 23.5866 18.0733C23.44 18.22 23.2666 18.2867 23.0533 18.2867H20.8C20.6266 18.2867 20.48 18.2333 20.3733 18.12C20.2666 18.0067 20.2 17.86 20.2 17.6867C20.2 17.5133 20.26 17.3733 20.3733 17.2533C20.4866 17.1333 20.6266 17.0867 20.8 17.0867H22.6V15.8867H20.9466C20.7333 15.8867 20.5533 15.8133 20.4133 15.6733C20.2666 15.5267 20.2 15.3533 20.2 15.14V13.04C20.2 12.8267 20.2733 12.6467 20.4133 12.5067C20.56 12.36 20.7333 12.2933 20.9466 12.2933H23.2C23.3733 12.2933 23.5133 12.3533 23.6333 12.4667C23.7466 12.58 23.8066 12.7267 23.8066 12.8933C23.8066 13.06 23.7466 13.2067 23.6333 13.3267C23.52 13.44 23.3733 13.4933 23.2 13.4933H21.4V14.6933H23.0466H23.0533Z" fill="#222343"/>
<g opacity="0.52">
<path d="M11.2 13.4932C11.3733 13.4932 11.5133 13.4399 11.6333 13.3265C11.7466 13.2132 11.8066 13.0665 11.8066 12.8932C11.8066 12.7199 11.7466 12.5799 11.6333 12.4665C11.52 12.3532 11.3733 12.2932 11.2 12.2932H8.94662C8.73328 12.2932 8.55328 12.3665 8.41328 12.5065C8.26662 12.6532 8.19995 12.8265 8.19995 13.0399V15.1399C8.19995 15.3532 8.27328 15.5332 8.41328 15.6732C8.55995 15.8199 8.73328 15.8865 8.94662 15.8865H10.6V17.0865H8.79995C8.62662 17.0865 8.47995 17.1399 8.37328 17.2532C8.26662 17.3665 8.19995 17.5132 8.19995 17.6865C8.19995 17.8599 8.25995 17.9999 8.37328 18.1199C8.48662 18.2399 8.62662 18.2865 8.79995 18.2865H11.0533C11.2666 18.2865 11.4466 18.2132 11.5866 18.0732C11.7333 17.9265 11.8 17.7532 11.8 17.5399V15.4399C11.8 15.2265 11.7266 15.0465 11.5866 14.9065C11.44 14.7599 11.2666 14.6932 11.0533 14.6932H9.40662V13.4932H11.2066H11.2Z" fill="#25CBDB"/>
<path d="M23.2 13.4932C23.3733 13.4932 23.5133 13.4399 23.6333 13.3265C23.7466 13.2132 23.8066 13.0665 23.8066 12.8932C23.8066 12.7199 23.7466 12.5799 23.6333 12.4665C23.52 12.3532 23.3733 12.2932 23.2 12.2932H20.9466C20.7333 12.2932 20.5533 12.3665 20.4133 12.5065C20.2666 12.6532 20.2 12.8265 20.2 13.0399V15.1399C20.2 15.3532 20.2733 15.5332 20.4133 15.6732C20.56 15.8199 20.7333 15.8865 20.9466 15.8865H22.6V17.0865H20.8C20.6266 17.0865 20.48 17.1399 20.3733 17.2532C20.2666 17.3665 20.2 17.5132 20.2 17.6865C20.2 17.8599 20.26 17.9999 20.3733 18.1199C20.4866 18.2399 20.6266 18.2865 20.8 18.2865H23.0533C23.2666 18.2865 23.4466 18.2132 23.5866 18.0732C23.7333 17.9265 23.8 17.7532 23.8 17.5399V15.4399C23.8 15.2265 23.7266 15.0465 23.5866 14.9065C23.44 14.7599 23.2666 14.6932 23.0533 14.6932H21.4066V13.4932H23.2066H23.2Z" fill="#25CBDB"/>
<path d="M13.8533 12.2932C13.6 12.2932 13.4 12.3732 13.24 12.5332C13.08 12.6932 13 12.8932 13 13.1465V17.6999C13 17.8732 13.0533 18.0132 13.1733 18.1332C13.2867 18.2465 13.4267 18.2999 13.6 18.2999C13.7733 18.2999 13.9133 18.2465 14.0333 18.1332C14.1467 18.0199 14.2067 17.8732 14.2067 17.6999V13.4999H15.4067V16.6465C15.4067 16.8199 15.46 16.9599 15.58 17.0799C15.6933 17.1932 15.8333 17.2465 16.0067 17.2465C16.18 17.2465 16.32 17.1932 16.44 17.0799C16.5533 16.9665 16.6133 16.8199 16.6133 16.6465V13.4999H17.8133V17.6999C17.8133 17.8732 17.8733 18.0132 17.9867 18.1332C18.1 18.2532 18.24 18.2999 18.4133 18.2999C18.5867 18.2999 18.7267 18.2465 18.8467 18.1332C18.96 18.0199 19.02 17.8732 19.02 17.6999V13.1465C19.02 12.8932 18.94 12.6932 18.78 12.5332C18.62 12.3732 18.42 12.2932 18.1667 12.2932H13.8533Z" fill="#25CBDB"/>
</g>
</svg>
