<svg width="32" height="32" viewBox="0 0 32 32" fill="none" xmlns="http://www.w3.org/2000/svg">
<path opacity="0.52" d="M27.3333 2.66675C27.8466 2.66675 28.3066 2.87341 28.72 3.28675C29.1333 3.70008 29.3333 4.16008 29.3333 4.66675V22.0001C29.3333 22.5134 29.1266 22.9734 28.72 23.3867C28.3066 23.8001 27.8466 24.0001 27.3333 24.0001H7.99996L4.36663 27.6334C4.05329 27.9467 3.69329 28.0201 3.28663 27.8534C2.87329 27.6867 2.66663 27.3801 2.66663 26.9334V4.66675C2.66663 4.15341 2.86663 3.69341 3.26663 3.28675C3.66663 2.87341 4.13329 2.66675 4.66663 2.66675H27.3333Z" fill="#25CBDB"/>
<path d="M25.6 10.9333C25.8333 10.9333 26.02 10.8599 26.1733 10.7066C26.3267 10.5533 26.4 10.3666 26.4 10.1333C26.4 9.89992 26.3267 9.71325 26.1733 9.55992C26.02 9.40659 25.8333 9.33325 25.6 9.33325H22.6C22.32 9.33325 22.08 9.42659 21.8867 9.61992C21.6933 9.81325 21.6 10.0466 21.6 10.3333V13.1333C21.6 13.4199 21.6933 13.6533 21.8867 13.8466C22.08 14.0399 22.3133 14.1333 22.6 14.1333H24.8V15.7333H22.4C22.1667 15.7333 21.98 15.8066 21.8267 15.9599C21.6733 16.1133 21.6 16.2999 21.6 16.5333C21.6 16.7666 21.6733 16.9533 21.8267 17.1066C21.98 17.2599 22.1667 17.3333 22.4 17.3333H25.4C25.68 17.3333 25.92 17.2399 26.1133 17.0466C26.3067 16.8533 26.4 16.6199 26.4 16.3333V13.5333C26.4 13.2466 26.3067 13.0133 26.1133 12.8199C25.92 12.6266 25.6867 12.5333 25.4 12.5333H23.2V10.9333H25.6Z" fill="#222343"/>
<path d="M18.8667 9.33325H13.1333C12.8 9.33325 12.5267 9.43992 12.3133 9.65325C12.1 9.86659 12 10.1333 12 10.4666V16.5333C12 16.7666 12.0733 16.9533 12.2267 17.1066C12.38 17.2599 12.5667 17.3333 12.8 17.3333C13.0333 17.3333 13.22 17.2599 13.3733 17.1066C13.5267 16.9533 13.6 16.7666 13.6 16.5333V10.9333H15.2V15.1333C15.2 15.3666 15.2733 15.5533 15.4267 15.7066C15.58 15.8599 15.7667 15.9333 16 15.9333C16.2333 15.9333 16.42 15.8599 16.5733 15.7066C16.7267 15.5533 16.8 15.3666 16.8 15.1333V10.9333H18.4V16.5333C18.4 16.7666 18.4733 16.9533 18.6267 17.1066C18.78 17.2599 18.9667 17.3333 19.2 17.3333C19.4333 17.3333 19.62 17.2599 19.7733 17.1066C19.9267 16.9533 20 16.7666 20 16.5333V10.4666C20 10.1333 19.8933 9.85992 19.68 9.65325C19.4667 9.43992 19.2 9.33325 18.8667 9.33325Z" fill="#222343"/>
<path d="M9.6001 10.9333C9.83343 10.9333 10.0201 10.86 10.1734 10.7066C10.3268 10.5533 10.4001 10.3666 10.4001 10.1333C10.4001 9.89996 10.3268 9.71329 10.1734 9.55996C10.0201 9.40663 9.83343 9.33329 9.6001 9.33329H6.6001C6.3201 9.33329 6.0801 9.42663 5.88676 9.61996C5.69343 9.81329 5.6001 10.0466 5.6001 10.3333V13.1333C5.6001 13.42 5.69343 13.6533 5.88676 13.8466C6.0801 14.04 6.31343 14.1333 6.6001 14.1333H8.8001V15.7333H6.4001C6.16676 15.7333 5.9801 15.8066 5.82676 15.96C5.67343 16.1133 5.6001 16.3 5.6001 16.5333C5.6001 16.7666 5.67343 16.9533 5.82676 17.1066C5.9801 17.26 6.16676 17.3333 6.4001 17.3333H9.4001C9.6801 17.3333 9.9201 17.24 10.1134 17.0466C10.3068 16.8533 10.4001 16.62 10.4001 16.3333V13.5333C10.4001 13.2466 10.3068 13.0133 10.1134 12.82C9.9201 12.6266 9.68677 12.5333 9.4001 12.5333H7.2001V10.9333H9.6001Z" fill="#222343"/>
</svg>
