<svg width="32" height="32" viewBox="0 0 32 32" fill="none" xmlns="http://www.w3.org/2000/svg">
<path opacity="0.52" d="M27.3334 2.66675C27.8467 2.66675 28.3067 2.87341 28.72 3.28675C29.1334 3.70008 29.3334 4.16008 29.3334 4.66675V22.0001C29.3334 22.5134 29.1267 22.9734 28.72 23.3867C28.3067 23.8001 27.8467 24.0001 27.3334 24.0001H8.00002L4.36669 27.6334C4.05335 27.9467 3.69335 28.0201 3.28669 27.8534C2.87335 27.6867 2.66669 27.3801 2.66669 26.9334V4.66675C2.66669 4.15341 2.86669 3.69341 3.26669 3.28675C3.66669 2.87341 4.13335 2.66675 4.66669 2.66675H27.3334Z" fill="#25CBDB"/>
<path d="M14.3333 10.3668H23.0333C23.32 10.3668 23.56 10.2734 23.7533 10.0801C23.9467 9.88678 24.0333 9.65345 24.0333 9.36678C24.0333 9.08011 23.94 8.84011 23.7533 8.65345C23.5667 8.46678 23.3266 8.36678 23.0333 8.36678H14.3333C14.0467 8.36678 13.8067 8.46011 13.6133 8.65345C13.4267 8.84011 13.3333 9.08011 13.3333 9.36678C13.3333 9.65345 13.4267 9.89345 13.6133 10.0801C13.8 10.2668 14.04 10.3668 14.3333 10.3668Z" fill="#222343"/>
<path d="M14.3333 14.3668H23.0333C23.32 14.3668 23.56 14.2734 23.7533 14.0868C23.9467 13.9001 24.0333 13.6601 24.0333 13.3668C24.0333 13.0734 23.94 12.8401 23.7533 12.6468C23.5667 12.4601 23.3266 12.3668 23.0333 12.3668H14.3333C14.0467 12.3668 13.8067 12.4601 13.6133 12.6468C13.4267 12.8334 13.3333 13.0734 13.3333 13.3668C13.3333 13.6601 13.4267 13.8934 13.6133 14.0868C13.8 14.2734 14.04 14.3668 14.3333 14.3668Z" fill="#222343"/>
<path d="M14.3333 18.3668H19C19.2867 18.3668 19.5266 18.2734 19.72 18.0868C19.9066 17.9001 20 17.6601 20 17.3668C20 17.0734 19.9066 16.8401 19.72 16.6468C19.5333 16.4601 19.2933 16.3601 19 16.3668H14.3333C14.0467 16.3668 13.8067 16.4601 13.6133 16.6468C13.4267 16.8334 13.3333 17.0734 13.3333 17.3668C13.3333 17.6601 13.4267 17.8934 13.6133 18.0868C13.8 18.2734 14.04 18.3668 14.3333 18.3668Z" fill="#222343"/>
<path d="M9.36665 10.7001C9.74665 10.7001 10.06 10.5734 10.32 10.3201C10.5733 10.0668 10.7066 9.74678 10.7066 9.36678C10.7066 8.98678 10.58 8.67345 10.3267 8.41345C10.0733 8.15345 9.75332 8.03345 9.37332 8.03345C8.99332 8.03345 8.67998 8.16011 8.41998 8.41345C8.15998 8.66678 8.03332 8.98678 8.03998 9.36678C8.03998 9.74678 8.16665 10.0601 8.41998 10.3201C8.67332 10.5801 8.99332 10.7001 9.36665 10.7001Z" fill="#222343"/>
<path d="M9.36665 14.7001C9.74665 14.7001 10.06 14.5734 10.32 14.3134C10.5733 14.0601 10.7066 13.7401 10.7066 13.3668C10.7066 12.9934 10.58 12.6734 10.3267 12.4201C10.0733 12.1668 9.75332 12.0334 9.37332 12.0334C8.99332 12.0334 8.67998 12.1601 8.41998 12.4201C8.15998 12.6801 8.03332 12.9934 8.03998 13.3668C8.03998 13.7468 8.16665 14.0601 8.41998 14.3134C8.67332 14.5668 8.99332 14.6934 9.36665 14.7001Z" fill="#222343"/>
<path d="M9.36665 18.7001C9.74665 18.7001 10.06 18.5734 10.32 18.3134C10.5733 18.0601 10.7066 17.7401 10.7066 17.3668C10.7066 16.9934 10.58 16.6734 10.3267 16.4201C10.0733 16.1668 9.75332 16.0334 9.37332 16.0334C8.99332 16.0334 8.67998 16.1601 8.41998 16.4201C8.15998 16.6801 8.03332 16.9934 8.03998 17.3668C8.03998 17.7468 8.16665 18.0601 8.41998 18.3134C8.67332 18.5668 8.99332 18.6934 9.36665 18.7001Z" fill="#222343"/>
</svg>
