<svg width="32" height="32" viewBox="0 0 32 32" fill="none" xmlns="http://www.w3.org/2000/svg">
<path opacity="0.52" d="M24.72 9.79992C22.9733 8.15992 20.88 7.33325 18.4333 7.33325C17.1866 7.33325 16.02 7.48659 14.9333 7.78659C13.8466 8.08659 12.7 8.55992 11.5 9.19992L15 10.4999L15.5333 10.6999C16.6666 11.1266 17.44 11.7266 17.8466 12.5199C18.26 13.3066 18.4666 14.1999 18.4666 15.1999C18.4666 16.5333 18.02 17.6533 17.1333 18.5533C16.2466 19.4533 15.1533 19.8999 13.8666 19.8999H4.86664V19.9133C4.79998 20.3066 4.73998 20.7599 4.68664 21.2533C4.62664 21.7533 4.59998 22.3933 4.59998 23.1666C4.59998 23.6133 4.73998 23.9733 5.01331 24.2533C5.29331 24.5266 5.65331 24.6666 6.09998 24.6666H18.9333C21.2866 24.6666 23.28 23.8066 24.9 22.0866C26.52 20.3599 27.3333 18.3133 27.3333 15.9333C27.3333 13.5533 26.46 11.4466 24.72 9.79992Z" fill="#25CBDB"/>
<path d="M18.4666 15.2C18.4666 16.5333 18.02 17.6533 17.1333 18.5533C16.2466 19.4533 15.1533 19.9 13.8666 19.9H4.86664C4.97997 18.3066 5.09997 17.9 5.09997 17.9C5.49997 16.3666 6.06664 14.9933 6.79997 13.7666C7.5333 12.5466 8.45331 11.4466 9.56664 10.4666C10.3866 9.68662 11.5 9.19995 11.5 9.19995L14.0466 10.1466L15 10.5L15.5333 10.7C16.6666 11.1266 17.44 11.7266 17.8466 12.52C18.26 13.3066 18.4666 14.2 18.4666 15.2Z" fill="#222343"/>
</svg>
