<svg width="32" height="32" viewBox="0 0 32 32" fill="none" xmlns="http://www.w3.org/2000/svg">
<g opacity="0.52">
<path d="M25.66 18.0067C27.6887 18.0067 29.3333 16.3621 29.3333 14.3333C29.3333 12.3046 27.6887 10.66 25.66 10.66C23.6312 10.66 21.9866 12.3046 21.9866 14.3333C21.9866 16.3621 23.6312 18.0067 25.66 18.0067Z" fill="#25CBDB"/>
<path d="M17.72 4.28667C17.5333 4.1 17.2933 4 17 4H14V6H16V11.6667C16 13.2467 15.4466 14.5867 14.3533 15.68C13.2533 16.78 11.9133 17.3333 10.3333 17.3333C8.75329 17.3333 7.41329 16.7867 6.31996 15.68C5.21996 14.58 4.66663 13.24 4.66663 11.6667V6H6.66663V4H3.66663C3.37996 4 3.13996 4.09333 2.94663 4.28667C2.75996 4.47333 2.66663 4.71333 2.66663 5V11.6667C2.66663 13.62 3.30663 15.32 4.58663 16.7467C5.86663 18.18 7.44663 19.02 9.33329 19.26C9.33329 19.26 10.3866 19.3667 11.3333 19.26C13.22 19.0133 14.8066 18.18 16.08 16.7467C17.36 15.3133 18 13.62 18 11.6667V5C18 4.71333 17.9066 4.47333 17.72 4.28667Z" fill="#25CBDB"/>
</g>
<path d="M6.66663 3.66663C6.66663 3.37996 6.75996 3.13996 6.95329 2.95329C7.13996 2.76663 7.37996 2.66663 7.66663 2.66663C7.95329 2.66663 8.19329 2.75996 8.37996 2.95329C8.56663 3.13996 8.66663 3.37996 8.66663 3.66663V6.33329C8.66663 6.59996 8.57329 6.83329 8.37996 7.03329C8.19329 7.23329 7.95329 7.33329 7.66663 7.33329C7.37996 7.33329 7.13996 7.23996 6.95329 7.04663C6.76663 6.85996 6.66663 6.61996 6.66663 6.33329V3.66663Z" fill="#222343"/>
<path d="M14 6.33329C14 6.59996 13.9066 6.83329 13.72 7.03329C13.5333 7.23329 13.2933 7.33329 13 7.33329C12.7066 7.33329 12.4733 7.23996 12.28 7.04663C12.0933 6.85996 12 6.61996 12 6.33329V3.66663C12 3.37996 12.0933 3.13996 12.28 2.95329C12.4666 2.76663 12.7066 2.66663 13 2.66663C13.2933 2.66663 13.5266 2.75996 13.72 2.95329C13.9066 3.13996 14 3.37996 14 3.66663V6.33329Z" fill="#222343"/>
<path d="M25.6666 13.3266C25.1133 13.3266 24.6666 13.7733 24.6666 14.3266V20.4333C24.6666 22.3466 24.0066 23.9666 22.6866 25.3C21.3666 26.6333 19.8 27.3 18 27.3C16.0666 27.3 14.4733 26.6266 13.22 25.2866C11.9666 23.94 11.3333 22.3266 11.3333 20.4333V19.2666C10.3866 19.3733 9.33329 19.2666 9.33329 19.2666V20.4333C9.33329 22.8533 10.1533 24.94 11.8 26.6866C13.4466 28.4333 15.5133 29.3066 18 29.3066C20.4866 29.3066 22.4133 28.4466 24.1133 26.72C25.8133 25 26.6666 22.9066 26.6666 20.4333V14.3266C26.6666 13.7733 26.22 13.3266 25.6666 13.3266Z" fill="#222343"/>
</svg>
