<svg width="32" height="32" viewBox="0 0 32 32" fill="none" xmlns="http://www.w3.org/2000/svg">
<path opacity="0.52" d="M3.73772 9.00009C3.38439 9.00009 3.12439 8.87342 2.97106 8.62009C2.81772 8.36675 2.82439 8.08009 3.00439 7.77342C3.87106 6.10675 5.42439 4.62009 7.67106 3.30675C9.91772 1.99342 12.6244 1.34009 15.8044 1.34009C17.9577 1.34009 20.0377 1.74009 22.0377 2.54009C24.0377 3.34009 25.8511 4.40675 27.4711 5.74009V3.67342C27.4711 3.42675 27.5511 3.22675 27.7044 3.07342C27.8577 2.92009 28.0577 2.84009 28.3044 2.84009C28.5511 2.84009 28.7511 2.92009 28.9044 3.07342C29.0577 3.22675 29.1377 3.42675 29.1377 3.67342V8.17342C29.1377 8.46009 29.0444 8.70009 28.8577 8.88675C28.6711 9.07342 28.4311 9.17342 28.1377 9.17342H23.6377C23.3911 9.17342 23.1911 9.09342 23.0377 8.94009C22.8844 8.78675 22.8044 8.58675 22.8044 8.34009C22.8044 8.09342 22.8844 7.89342 23.0377 7.74009C23.1911 7.58675 23.3911 7.50675 23.6377 7.50675H26.9377C25.4044 6.17342 23.6777 5.09342 21.7511 4.25342C19.8311 3.42009 17.8444 3.00009 15.8044 3.00009C12.8244 3.00009 10.3644 3.60009 8.42439 4.80009C6.47772 6.00009 5.16439 7.24675 4.47106 8.53342C4.40439 8.66675 4.29772 8.78009 4.15772 8.86675C4.01106 8.95342 3.87106 9.00009 3.74439 9.00009H3.73772Z" fill="#25CBDB"/>
<path d="M14.5045 30.6667C14.1245 30.6667 13.7711 30.5934 13.4378 30.4467C13.1045 30.3001 12.8178 30.1067 12.5711 29.8601L7.5378 24.5267C7.25113 24.2134 7.10446 23.8601 7.10446 23.4601C7.10446 23.0601 7.21779 22.7267 7.4378 22.4601C7.68446 22.1734 7.97113 21.9801 8.30446 21.8934C8.6378 21.8067 8.99113 21.8067 9.37113 21.8934L13.1711 22.7267V8.66675C13.1711 8.08675 13.3578 7.61341 13.7378 7.23341C14.1178 6.85341 14.5911 6.66675 15.1711 6.66675C15.7511 6.66675 16.2245 6.85341 16.6045 7.23341C16.9845 7.61341 17.1711 8.08675 17.1711 8.66675V16.6667H18.3711C18.6178 16.6667 18.8245 16.6801 19.0045 16.7201C19.1845 16.7534 19.3711 16.8267 19.5711 16.9401L25.0045 19.6734C25.5378 19.9401 25.9378 20.3267 26.2045 20.8401C26.4711 21.3534 26.5578 21.8934 26.4711 22.4734L25.6045 28.4734C25.4911 29.1201 25.1845 29.6467 24.6711 30.0601C24.1578 30.4734 23.5845 30.6734 22.9378 30.6734H14.5045V30.6667Z" fill="#222343"/>
</svg>
