<svg width="32" height="32" viewBox="0 0 32 32" fill="none" xmlns="http://www.w3.org/2000/svg">
<path opacity="0.32" d="M27.3333 16.0001C27.3333 9.75341 22.2467 4.66675 16 4.66675C9.75334 4.66675 4.66667 9.75341 4.66667 16.0001C4.66667 22.2467 9.75334 27.3334 16 27.3334C22.2467 27.3334 27.3333 22.2467 27.3333 16.0001Z" fill="#25CBDB"/>
<path d="M16 10.0001C19.3133 10.0001 22 12.6867 22 16.0001C22 19.3134 19.3133 22.0001 16 22.0001C12.6867 22.0001 10 19.3134 10 16.0001C10 12.6867 12.6867 10.0001 16 10.0001ZM16 8.00008C11.5867 8.00008 8 11.5867 8 16.0001C8 20.4134 11.5867 24.0001 16 24.0001C20.4133 24.0001 24 20.4134 24 16.0001C24 11.5867 20.4133 8.00008 16 8.00008Z" fill="#25CBDB"/>
<path d="M16 4.66675C22.2467 4.66675 27.3333 9.75341 27.3333 16.0001C27.3333 22.2467 22.2467 27.3334 16 27.3334C9.75334 27.3334 4.66667 22.2467 4.66667 16.0001C4.66667 9.75341 9.75334 4.66675 16 4.66675ZM16 2.66675C8.63334 2.66675 2.66667 8.63341 2.66667 16.0001C2.66667 23.3667 8.63334 29.3334 16 29.3334C23.3667 29.3334 29.3333 23.3667 29.3333 16.0001C29.3333 8.63341 23.3667 2.66675 16 2.66675Z" fill="#25CBDB"/>
<path d="M17.0607 14.9393C16.4749 14.3536 15.5251 14.3536 14.9393 14.9393C14.3536 15.5251 14.3536 16.4749 14.9393 17.0607L20 22.1213V25.06L24 29.06V24.1432C24.0252 24.1211 24.0499 24.0981 24.074 24.074C24.0981 24.0499 24.1211 24.0252 24.1432 24H29.06L25.06 20H22.1213L17.0607 14.9393Z" fill="#222343"/>
</svg>
