<svg width="32" height="32" viewBox="0 0 32 32" fill="none" xmlns="http://www.w3.org/2000/svg">
<path opacity="0.52" d="M6 28C5.46667 28 5 27.8 4.6 27.4C4.2 27 4 26.5333 4 26V6C4 5.46667 4.2 5 4.6 4.6C5 4.2 5.46667 4 6 4H26C26.5333 4 27 4.2 27.4 4.6C27.8 5 28 5.46667 28 6V26C28 26.5333 27.8 27 27.4 27.4C27 27.8 26.5333 28 26 28H6Z" fill="#25CBDB"/>
<path opacity="0.52" d="M17.7334 24.0334C17.7334 22.3001 18.3467 20.8134 19.5667 19.5801C19.88 19.2668 20.2134 18.9868 20.56 18.7534C19.7067 19.0534 18.9267 19.5468 18.2334 20.2468C17.0134 21.4801 16.4 22.9668 16.4 24.7001C16.4 25.9201 16.7267 27.0201 17.36 28.0001H19.1934C18.22 26.8601 17.7334 25.5334 17.7334 24.0334Z" fill="#25CBDB"/>
<path d="M10.2333 22.7H15.2933C15.5799 22.7 15.8199 22.6066 16.0133 22.42C16.2066 22.2333 16.2933 21.9933 16.2933 21.7C16.2933 21.4066 16.1999 21.1733 16.0133 20.98C15.8266 20.7866 15.5866 20.6933 15.2933 20.7H10.2333C9.94661 20.7 9.70661 20.7933 9.51994 20.98C9.33328 21.1666 9.23994 21.4066 9.23328 21.7C9.23328 21.9866 9.32661 22.2266 9.51994 22.42C9.70661 22.6066 9.94661 22.7 10.2333 22.7Z" fill="#222343"/>
<path d="M10.2333 17H21.7666C22.0533 17 22.2933 16.9066 22.4866 16.72C22.6733 16.5333 22.7666 16.2933 22.7666 16C22.7666 15.7066 22.6733 15.4733 22.4866 15.28C22.2999 15.0933 22.0599 15 21.7666 15H10.2333C9.94661 15 9.70661 15.0933 9.51994 15.28C9.33328 15.4666 9.23328 15.7066 9.23328 16C9.23328 16.2933 9.32661 16.5266 9.51994 16.72C9.70661 16.9066 9.94661 17 10.2333 17Z" fill="#222343"/>
<path d="M10.2333 11.3H21.7666C22.0533 11.3 22.2933 11.2066 22.4866 11.02C22.6799 10.8333 22.7666 10.5933 22.7666 10.3066C22.7666 10.02 22.6733 9.77997 22.4866 9.59331C22.2999 9.40664 22.0599 9.30664 21.7666 9.30664H10.2333C9.94661 9.30664 9.70661 9.39997 9.51994 9.59331C9.33328 9.77997 9.23328 10.02 9.23328 10.3066C9.23328 10.5933 9.32661 10.8333 9.51994 11.02C9.70661 11.2066 9.94661 11.3 10.2333 11.3Z" fill="#222343"/>
<path d="M28.4133 19.58C27.1799 18.3466 25.7066 17.7333 23.9999 17.7333C22.2933 17.7333 20.7866 18.3466 19.5666 19.58C18.3466 20.8133 17.7333 22.3 17.7333 24.0333C17.7333 25.7666 18.3466 27.18 19.5666 28.4133C20.7866 29.6466 22.2666 30.26 23.9999 30.26C25.7333 30.26 27.1866 29.6466 28.4133 28.4133C29.6466 27.18 30.2666 25.72 30.2666 24.0333C30.2666 22.3466 29.6533 20.8133 28.4133 19.58Z" fill="#222343"/>
<path d="M26.2067 26.6933C25.8467 27.0599 25.3667 27.2999 24.7667 27.4133V27.8866C24.7667 28.0866 24.7067 28.2466 24.5801 28.3666C24.4534 28.4866 24.2934 28.5466 24.0934 28.5466C23.8934 28.5466 23.7334 28.4866 23.6067 28.3666C23.4801 28.2466 23.4201 28.0866 23.4201 27.8866V27.4533C22.7067 27.3666 22.0934 27.1533 21.5867 26.8266C21.4734 26.7533 21.3867 26.6733 21.3401 26.5866C21.2934 26.4999 21.2667 26.3799 21.2667 26.2266C21.2667 26.0333 21.3201 25.8666 21.4334 25.7266C21.5467 25.5866 21.6801 25.5133 21.8334 25.5133C21.9134 25.5133 21.9867 25.5266 22.0667 25.5533C22.1467 25.5799 22.2467 25.6266 22.3667 25.6999C22.6467 25.8533 22.9134 25.9666 23.1601 26.0266C23.4067 26.0866 23.6667 26.1199 23.9401 26.1199C24.2801 26.1199 24.5401 26.0666 24.7134 25.9533C24.8934 25.8399 24.9801 25.6733 24.9801 25.4466C24.9801 25.3133 24.9267 25.1999 24.8201 25.1133C24.7134 25.0266 24.5801 24.9599 24.4267 24.9066C24.2734 24.8533 24.0401 24.7933 23.7401 24.7133C23.2601 24.5933 22.8601 24.4666 22.5534 24.3399C22.2467 24.2133 21.9801 24.0199 21.7534 23.7533C21.5267 23.4866 21.4134 23.1266 21.4134 22.6799C21.4134 22.1666 21.5934 21.7199 21.9534 21.3399C22.3134 20.9599 22.7867 20.7066 23.3801 20.5866V20.1066C23.3801 19.9133 23.4467 19.7533 23.5734 19.6266C23.7001 19.4999 23.8601 19.4399 24.0534 19.4399C24.2467 19.4399 24.4134 19.4999 24.5401 19.6266C24.6667 19.7466 24.7267 19.9066 24.7267 20.1066V20.5599C25.2601 20.6466 25.7801 20.8466 26.2867 21.1666C26.4001 21.2466 26.4867 21.3266 26.5334 21.4199C26.5801 21.5133 26.6067 21.6266 26.6067 21.7599C26.6067 21.9533 26.5467 22.1199 26.4334 22.2599C26.3201 22.3999 26.1801 22.4733 26.0267 22.4733C25.9467 22.4733 25.8734 22.4599 25.8067 22.4333C25.7334 22.4066 25.6334 22.3599 25.5001 22.2866C25.4534 22.2599 25.3534 22.2066 25.2001 22.1266C25.0467 22.0466 24.8801 21.9799 24.7001 21.9333C24.5267 21.8866 24.3334 21.8599 24.1334 21.8599C23.8467 21.8599 23.6067 21.9199 23.4267 22.0466C23.2467 22.1733 23.1601 22.3399 23.1601 22.5533C23.1601 22.7666 23.2601 22.9133 23.4667 23.0133C23.6734 23.1133 23.9934 23.2199 24.4401 23.3199C24.9134 23.4266 25.3067 23.5466 25.6134 23.6666C25.9201 23.7866 26.1801 23.9866 26.4067 24.2533C26.6334 24.5199 26.7401 24.8866 26.7401 25.3399C26.7401 25.8599 26.5601 26.3066 26.2067 26.6733V26.6933Z" fill="#25CBDB"/>
</svg>
