<svg width="32" height="32" viewBox="0 0 32 32" fill="none" xmlns="http://www.w3.org/2000/svg">
<path d="M30.0534 11.5533C29.64 11.14 29.18 10.9333 28.6667 10.9333H18L19.2667 4.9333C19.3534 4.5133 19.3067 4.09997 19.1134 3.69997C18.9267 3.29997 18.64 2.98664 18.2667 2.76664C17.8867 2.54664 17.4867 2.46664 17.0467 2.5333C16.6134 2.59997 16.24 2.78664 15.9334 3.09997L9.03335 10.3666C9.03335 10.3666 9.02669 10.38 9.02002 10.38L6.08669 13.4666H2.66669V26.1C2.66669 27.1466 3.52002 28 4.56669 28H24.0334C24.5467 28 25.0267 27.8333 25.48 27.5C25.9334 27.1666 26.2667 26.7666 26.4667 26.3L30.3334 17.3666C30.4467 17.12 30.5267 16.84 30.5867 16.52C30.6467 16.2 30.6667 15.9133 30.6667 15.6733V12.94C30.6667 12.4266 30.46 11.9666 30.0534 11.56V11.5533Z" fill="#222343"/>
<path opacity="0.85" d="M4.56669 10.9333C5.61335 10.9333 6.46669 11.7867 6.46669 12.8333V28H4.56669C3.52002 28 2.66669 27.1467 2.66669 26.1V12.8333C2.66669 11.7867 3.52002 10.9333 4.56669 10.9333Z" fill="#25CBDB"/>
</svg>
