<svg width="32" height="32" viewBox="0 0 32 32" fill="none" xmlns="http://www.w3.org/2000/svg">
<path opacity="0.52" d="M15.67 2.66669C8.30334 2.66669 2.33667 8.63335 2.33667 16C2.33667 23.3667 8.30334 29.3334 15.67 29.3334C23.0367 29.3334 29.0033 23.3667 29.0033 16C29.0033 8.63335 23.0367 2.66669 15.67 2.66669Z" fill="#25CBDB"/>
<path d="M19.1498 8.03003H16.4098V18.92C16.4098 20.19 15.3798 21.22 14.1098 21.22C12.8398 21.22 11.8098 20.19 11.8098 18.92C11.8098 17.65 12.8398 16.62 14.1098 16.62C14.3498 16.62 14.5798 16.66 14.7998 16.73V13.93C14.5698 13.9 14.3398 13.88 14.1098 13.88C11.3298 13.88 9.05981 16.14 9.05981 18.93C9.05981 21.72 11.3198 23.98 14.1098 23.98C14.9398 23.98 15.7198 23.78 16.4098 23.42C18.0398 22.58 19.1498 20.88 19.1498 18.93V13.38C20.2198 14.15 21.5398 14.6 22.9598 14.6V11.85C20.8598 11.85 19.1498 10.14 19.1498 8.04003V8.03003Z" fill="#222343"/>
</svg>
