<svg width="32" height="32" viewBox="0 0 32 32" fill="none" xmlns="http://www.w3.org/2000/svg">
<path opacity="0.52" d="M28.7333 7.93325C28.3333 7.53325 27.8666 7.33325 27.3333 7.33325H2.66663V24.6666C2.66663 25.1999 2.86663 25.6666 3.26663 26.0666C3.66663 26.4666 4.13329 26.6666 4.66663 26.6666H27.3333C27.8666 26.6666 28.3333 26.4666 28.7333 26.0666C29.1333 25.6666 29.3333 25.1999 29.3333 24.6666V9.33325C29.3333 8.79992 29.1333 8.33325 28.7333 7.93325Z" fill="#25CBDB"/>
<path opacity="0.85" d="M16 7.33325H2.66663C2.66663 6.79992 2.86663 6.33325 3.26663 5.93325C3.66663 5.53325 4.13329 5.33325 4.66663 5.33325H13.2C13.4666 5.33325 13.7333 5.33325 14 5.46659C14.2666 5.59992 14.4666 5.73325 14.6666 5.93325L16.0666 7.33325H16Z" fill="#222343"/>
<path d="M23.4 15.0666C23.2 15.2666 23 15.3333 22.6667 15.3333H9.33337C9.06671 15.3333 8.80004 15.2666 8.60004 15.0666C8.40004 14.8666 8.33337 14.6666 8.33337 14.3333C8.33337 13.9999 8.40004 13.7999 8.60004 13.5999C8.80004 13.3999 9.00004 13.3333 9.33337 13.3333H22.6667C22.9334 13.3333 23.2 13.3999 23.4 13.5999C23.6 13.7999 23.6667 13.9999 23.6667 14.3333C23.6667 14.6666 23.6 14.8666 23.4 15.0666Z" fill="#222343"/>
<path d="M18.0667 20.4001C17.8667 20.6001 17.6667 20.6667 17.3334 20.6667H9.33337C9.06671 20.6667 8.80004 20.6001 8.60004 20.4001C8.40004 20.2001 8.33337 20.0001 8.33337 19.6667C8.33337 19.3334 8.40004 19.1334 8.60004 18.9334C8.80004 18.7334 9.00004 18.6667 9.33337 18.6667H17.3334C17.6 18.6667 17.8667 18.7334 18.0667 18.9334C18.2667 19.1334 18.3334 19.3334 18.3334 19.6667C18.3334 20.0001 18.2667 20.2001 18.0667 20.4001Z" fill="#222343"/>
</svg>
