<svg width="32" height="32" viewBox="0 0 32 32" fill="none" xmlns="http://www.w3.org/2000/svg">
<path d="M5.53336 4.64667H26.4667C27.2067 4.64667 27.8067 5.25333 27.8067 5.98667V7.31333H4.19336V5.98667C4.19336 5.24667 4.80003 4.64667 5.53336 4.64667Z" fill="#222343"/>
<g opacity="0.52">
<path d="M7.98008 26.6667L5.66675 7.31335H26.3334L24.0134 26.6667C24.0134 28.14 22.8067 29.3534 21.3267 29.3534H10.6667C9.19341 29.3534 7.98008 28.1467 7.98008 26.6667Z" fill="#25CBDB"/>
<path d="M19.4668 2.64667C20.2068 2.64667 20.8068 3.25333 20.8068 3.98667V4.66H11.1868V3.98667C11.1868 3.24667 11.7934 2.64667 12.5268 2.64667H19.4668Z" fill="#25CBDB"/>
</g>
<path d="M26.34 7.32001L26.1 9.32001H5.91334L5.67334 7.32001H26.34Z" fill="#25CBDB"/>
</svg>
