<svg width="32" height="32" viewBox="0 0 32 32" fill="none" xmlns="http://www.w3.org/2000/svg">
<path d="M28.5534 7.96667L25.0867 13.82H25.08L23.6734 13.0333V26.7C23.6734 27.0533 23.5467 27.36 23.2867 27.6133C23.0334 27.8733 22.7267 28 22.3734 28H9.6267C9.27337 28 8.9667 27.8733 8.71337 27.6133C8.45337 27.36 8.3267 27.0533 8.3267 26.7V13.0333L6.9267 13.8067L3.45337 7.96L9.76004 4.27333C10.0667 4.09333 10.4134 4 10.7667 4H12.36C12.6067 4 12.8 4.07333 12.9467 4.21333C13.0867 4.36 13.16 4.55333 13.16 4.8V5.3C13.16 6.14 13.4267 6.83333 13.96 7.36667C14.4867 7.89333 15.1667 8.16 16 8.16667C16.8334 8.16 17.5134 7.89333 18.04 7.36667C18.5734 6.83333 18.84 6.14 18.84 5.3V4.8C18.84 4.55333 18.9134 4.36 19.0534 4.21333C19.2 4.07333 19.3934 4 19.64 4H21.2334C21.5867 4 21.9334 4.09333 22.24 4.27333L28.5534 7.96667Z" fill="#222343"/>
<g opacity="0.52">
<path d="M6.92671 13.8067L5.74004 14.4667C5.42671 14.64 5.02671 14.5333 4.84004 14.2267L2.06671 9.55334C1.88004 9.23334 1.98671 8.82667 2.30004 8.64001L3.44671 7.96667L6.92004 13.8133L6.92671 13.8067Z" fill="#25CBDB"/>
<path d="M29.9333 9.55333L27.1599 14.2267C26.9733 14.5333 26.5799 14.6467 26.2666 14.4733L25.4066 14L25.0933 13.8267L28.5599 7.97333L29.6999 8.63999C30.0199 8.82666 30.1266 9.23999 29.9333 9.55333Z" fill="#25CBDB"/>
</g>
<path opacity="0.85" d="M19.0534 4.21332C18.9134 4.35998 18.8401 4.55332 18.8401 4.79998V5.29998C18.8401 6.13998 18.5734 6.83332 18.0401 7.36665C17.5134 7.89332 16.8334 8.15998 16.0001 8.16665C15.1668 8.15998 14.4868 7.89332 13.9601 7.36665C13.4268 6.83332 13.1601 6.13998 13.1601 5.29998V4.79998C13.1601 4.55332 13.0868 4.35998 12.9468 4.21332C13.6868 5.07998 14.7801 5.62665 16.0001 5.62665C17.2201 5.62665 18.3134 5.07998 19.0534 4.21332Z" fill="#222343"/>
</svg>
