<svg width="32" height="32" viewBox="0 0 32 32" fill="none" xmlns="http://www.w3.org/2000/svg">
<g clip-path="url(#clip0_4029_1105)">
<path d="M20.4001 13.42L15.7601 20.5334H14.9334L12.4801 16.1067C11.9401 15.1267 11.2134 14.28 10.3601 13.6134L14.3001 12.1334C14.4134 12.0867 14.5268 12.0534 14.6534 12.0334C14.7734 12.0134 14.8868 12 15.0001 12H19.3001L20.4001 13.42Z" fill="#25CBDB"/>
<path d="M21.6001 11.7H24.3668C24.5001 11.7 24.6201 11.6467 24.7201 11.5467C24.8201 11.4467 24.8668 11.3334 24.8668 11.2V9.03338C24.8668 8.85338 24.7868 8.71338 24.6334 8.61338C24.4801 8.51338 24.3134 8.51338 24.1334 8.60004L20.5668 10.3667L21.6001 11.7Z" fill="#25CBDB"/>
<g opacity="0.85">
<path d="M27.3733 20.8934C27.1933 21.0334 26.9799 21.1 26.7666 21.1C26.4666 21.1 26.1733 20.9667 25.9733 20.7067L24.0933 18.2667C24.1999 18.1067 24.3266 17.96 24.4666 17.8134C24.8266 17.4467 25.2266 17.1934 25.6733 17.04L27.5599 19.4934C27.8933 19.9267 27.8133 20.5534 27.3733 20.8934Z" fill="#222343"/>
<path d="M13.0315 21.0996H5.22656C4.67323 21.0996 4.22656 20.6529 4.22656 20.0996C4.22656 19.5463 4.67323 19.0996 5.22656 19.0996H11.9248L13.0315 21.0996Z" fill="#222343"/>
</g>
<path d="M5.23333 16.8667C6.14667 16.8667 6.91333 17.18 7.53333 17.8133C8.15333 18.4467 8.46667 19.2133 8.46667 20.1C8.46667 20.9867 8.15333 21.7467 7.53333 22.38C6.91333 23.0133 6.14667 23.3333 5.23333 23.3333C4.32 23.3333 3.58667 23.02 2.95333 22.4C2.32 21.78 2 21.0133 2 20.1C2 19.1867 2.32 18.42 2.95333 17.8C3.58667 17.18 4.34667 16.8667 5.23333 16.8667ZM5.23333 14.8667C3.83333 14.8667 2.56 15.3867 1.55333 16.3733C0.533333 17.3667 0 18.66 0 20.1C0 21.54 0.54 22.8333 1.55333 23.8267C2.56 24.8133 3.83333 25.3333 5.23333 25.3333C6.63333 25.3333 7.96667 24.7933 8.96 23.78C9.94667 22.7733 10.4667 21.5 10.4667 20.1C10.4667 18.7 9.94667 17.42 8.96 16.4133C7.96667 15.4 6.68 14.8667 5.23333 14.8667Z" fill="#222343"/>
<path fill-rule="evenodd" clip-rule="evenodd" d="M16.7402 6.66699C17.0536 6.66699 17.347 6.73385 17.627 6.86719C17.9002 7.00049 18.1267 7.18705 18.3066 7.43359L24.457 15.3896C25.1492 15.0378 25.9151 14.8662 26.7334 14.8662C28.1733 14.8663 29.4668 15.3928 30.4668 16.3994C31.4734 17.3994 32 18.7062 32 20.1328C32 21.5595 31.4665 22.8395 30.4531 23.8262C29.4465 24.8128 28.1466 25.333 26.7334 25.333C25.3201 25.333 24.0461 24.8058 23.0527 23.8125C22.0597 22.8192 21.5332 21.5459 21.5332 20.1328C21.5332 18.7929 21.993 17.5862 22.8662 16.5996H22.873L21.7002 15.1006L21.6367 15.0176L17.2266 21.7861C16.9799 22.166 16.5597 22.3926 16.1064 22.3926H14.5264C14.0399 22.3925 13.5937 22.1258 13.3604 21.7061L11.8398 18.959L10.7197 16.9395C9.61306 14.9395 7.51323 13.699 5.22656 13.6924L1 13.6992C0.446667 13.6992 0 13.2459 0 12.6992C2.77587e-05 12.1526 0.446684 11.6992 1 11.6992H5.22656C7.1199 11.6926 8.92018 12.3393 10.3535 13.4727C11.2068 14.1393 11.9337 14.9859 12.4736 15.9658L14.9268 20.3926H15.7529L20.3496 13.3457L19.3066 12L16.707 8.66699H14.7402C14.4536 8.66699 14.214 8.57322 14.0273 8.37988C13.834 8.19322 13.7402 7.95366 13.7402 7.66699C13.7402 7.38033 13.834 7.1406 14.0273 6.94727C14.214 6.76066 14.4536 6.66699 14.7402 6.66699H16.7402ZM26.7334 16.8662C26.3601 16.8662 26.0062 16.9191 25.6729 17.0391C25.2264 17.1924 24.8267 17.4461 24.4668 17.8125C24.3268 17.9592 24.1994 18.1066 24.0928 18.2666C23.7197 18.8065 23.5332 19.4264 23.5332 20.1328C23.5332 21.0195 23.8468 21.7794 24.4668 22.3994C25.0868 23.0194 25.8201 23.333 26.7334 23.333C27.6466 23.333 28.4195 23.0193 29.0527 22.3994C29.6861 21.7794 30 21.0461 30 20.1328C30 19.2195 29.6861 18.4458 29.0527 17.8125C28.4195 17.1795 27.6464 16.8663 26.7334 16.8662Z" fill="#222343"/>
</g>
<defs>
<clipPath id="clip0_4029_1105">
<rect width="32" height="32" fill="white"/>
</clipPath>
</defs>
</svg>
