<svg width="32" height="32" viewBox="0 0 32 32" fill="none" xmlns="http://www.w3.org/2000/svg">
<path opacity="0.52" d="M25.3667 6.13336C26.1467 6.42669 26.6667 7.17336 26.6667 8.00669V14.7267C26.6667 21.32 22.5 26.94 16.66 29.1067C16.24 29.2667 15.7667 29.2667 15.34 29.1067C9.50004 26.94 5.33337 21.32 5.33337 14.7267V8.00669C5.33337 7.17336 5.85337 6.42669 6.63337 6.13336L8.46004 5.45336L15.3 2.90002C15.7534 2.73336 16.2467 2.73336 16.7 2.90002L23.54 5.45336L25.3667 6.13336Z" fill="#25CBDB"/>
<path d="M22.84 7.32665L16 4.77332L9.16004 7.32665L7.33337 8.00665V14.7266C7.33337 20.2666 10.8134 25.28 16 27.22C21.1867 25.28 24.6667 20.2666 24.6667 14.7266V8.00665L22.84 7.32665ZM21.4334 13.2333L15.2667 19.4C15.0667 19.6 14.8267 19.7 14.5467 19.7C14.2667 19.7 14.0267 19.6 13.8267 19.4L10.5267 16.1C10.3267 15.9 10.2267 15.6533 10.2267 15.3666C10.2267 15.08 10.3267 14.8333 10.5267 14.6333C10.7267 14.4333 10.9734 14.3333 11.26 14.3333C11.5467 14.3333 11.7934 14.4333 11.9934 14.6333L14.6267 17.2666L20.06 11.8333C20.24 11.6533 20.4667 11.5666 20.74 11.5666C21.0134 11.5666 21.2467 11.6533 21.4267 11.8333C21.6067 12.0133 21.6934 12.2466 21.6934 12.5333C21.6934 12.82 21.6067 13.0533 21.4267 13.2333H21.4334Z" fill="#222343"/>
</svg>
