<svg width="32" height="32" viewBox="0 0 32 32" fill="none" xmlns="http://www.w3.org/2000/svg">
<path opacity="0.52" d="M19.6615 4.57593L17.4067 5.62017C16.9734 5.82017 16.4867 5.92683 16.0067 5.92683C15.5267 5.92683 15.0401 5.82017 14.6067 5.62017L12.3534 4.58017L11.0334 6.8535C10.5534 7.6735 9.74672 8.2535 8.82006 8.44683L6.16672 8.9935L6.45339 11.4935C6.56672 12.4202 6.27339 13.3535 5.66672 14.0602L3.97339 16.0135L5.67339 18.0002C6.27339 18.7068 6.56006 19.6335 6.45339 20.5535L6.16672 23.0535L8.82006 23.6002C9.74672 23.7868 10.5467 24.3668 11.0267 25.1802L12.3401 27.4335L14.6001 26.3868C15.0334 26.1868 15.5201 26.0802 16.0001 26.0802C16.4801 26.0802 16.9667 26.1868 17.4001 26.3868L19.6667 27.4335L21.0134 25.1602C21.4934 24.3535 22.2867 23.7802 23.2067 23.5935L25.8401 23.0468L25.5534 20.5402C25.4467 19.6202 25.7334 18.6868 26.3334 17.9868L28.0334 16.0002L26.3401 14.0468C25.7267 13.3402 25.4401 12.4068 25.5467 11.4802L25.8334 8.98017L23.2067 8.44017C22.2867 8.2535 21.4801 7.68017 21.0067 6.86683L19.6615 4.57593Z" fill="#25CBDB"/>
<path d="M19.6601 4.57346L21.0067 6.86679C21.4801 7.68013 22.2867 8.25346 23.2067 8.44013L25.8334 8.98013L25.5467 11.4801C25.4401 12.4068 25.7267 13.3401 26.34 14.0468L28.0334 16.0001L26.3334 17.9868C25.7334 18.6868 25.4467 19.6201 25.5534 20.5401L25.84 23.0468L23.2067 23.5935C22.2867 23.7801 21.4934 24.3535 21.0134 25.1601L19.6667 27.4335L17.4001 26.3868C16.9667 26.1868 16.4801 26.0801 16.0001 26.0801C15.5201 26.0801 15.0334 26.1868 14.6001 26.3868L12.3401 27.4335L11.0267 25.1801C10.5467 24.3668 9.74672 23.7868 8.82005 23.6001L6.16672 23.0535L6.45339 20.5535C6.56005 19.6335 6.27339 18.7068 5.67339 18.0001L3.97339 16.0135L5.66672 14.0601C6.27339 13.3535 6.56672 12.4201 6.45339 11.4935L6.16672 8.99346L8.82005 8.44679C9.74672 8.25346 10.5534 7.67346 11.0334 6.85346L12.3534 4.58013L14.6067 5.62013C15.0401 5.82013 15.5267 5.92679 16.0067 5.92679C16.4867 5.92679 16.9734 5.82013 17.4067 5.62013L19.6667 4.57346M19.9334 2.38013C19.7467 2.38013 19.5534 2.42013 19.3734 2.50679L16.5667 3.80679C16.3867 3.88679 16.2001 3.92679 16.0067 3.92679C15.8134 3.92679 15.6267 3.88679 15.4467 3.80679L12.6401 2.50679C12.4601 2.42013 12.2667 2.38013 12.0801 2.38013C11.6201 2.38013 11.1734 2.62013 10.9267 3.04679L9.30005 5.84679C9.10672 6.17346 8.78672 6.40679 8.41338 6.48679L5.16005 7.15346C4.48005 7.29346 4.02672 7.92679 4.10672 8.61346L4.46672 11.7201C4.50672 12.0935 4.39339 12.4601 4.15339 12.7468L2.08672 15.1335C1.65339 15.6335 1.65339 16.3735 2.08672 16.8735L4.16005 19.2935C4.40005 19.5735 4.51339 19.9468 4.47339 20.3135L4.11339 23.4201C4.03339 24.1068 4.49339 24.7401 5.16672 24.8801L8.42005 25.5468C8.79339 25.6201 9.11339 25.8535 9.30005 26.1801L10.9201 28.9535C11.1667 29.3735 11.6134 29.6135 12.0734 29.6135C12.2601 29.6135 12.4534 29.5735 12.6334 29.4868L15.4401 28.1868C15.6201 28.1068 15.8067 28.0668 16.0001 28.0668C16.1934 28.0668 16.3801 28.1068 16.5601 28.1868L19.3734 29.4868C19.5534 29.5735 19.7467 29.6135 19.9334 29.6135C20.3934 29.6135 20.8334 29.3735 21.0801 28.9601L22.7334 26.1735C22.9267 25.8535 23.24 25.6201 23.6134 25.5468L26.84 24.8801C27.5134 24.7401 27.9734 24.1068 27.8934 23.4201L27.5334 20.3135C27.4934 19.9468 27.6067 19.5735 27.8467 19.2935L29.92 16.8735C30.3467 16.3735 30.3467 15.6335 29.92 15.1335L27.8534 12.7468C27.6067 12.4668 27.4934 12.0935 27.5401 11.7201L27.9 8.61346C27.98 7.92679 27.52 7.29346 26.8467 7.15346L23.6201 6.48679C23.2534 6.41346 22.9334 6.18013 22.7401 5.85346L21.0867 3.04013C20.8401 2.62013 20.3934 2.38013 19.9334 2.38013Z" fill="#222343"/>
<path d="M14.5667 20.4335L21.3734 13.6868C21.7867 13.2801 21.7734 12.6068 21.3401 12.2201C20.9401 11.8601 20.3267 11.8668 19.9467 12.2468L14.5667 17.5668L12.1401 15.0401C11.7334 14.6135 11.0534 14.6068 10.6334 15.0135C10.2134 15.4268 10.2067 16.1068 10.6334 16.5201L14.5734 20.4268L14.5667 20.4335Z" fill="#222343"/>
</svg>
