<svg width="32" height="32" viewBox="0 0 32 32" fill="none" xmlns="http://www.w3.org/2000/svg">
<path opacity="0.52" d="M16.0001 25.3333C12.9334 25.3333 10.1401 24.5 7.61339 22.8333C5.09339 21.1667 3.14006 18.9667 1.76673 16.2333C1.70006 16.1267 1.64673 15.9867 1.61339 15.8333C1.58006 15.68 1.56006 15.5067 1.56006 15.34C1.56006 15.1733 1.58006 15.0067 1.61339 14.8467C1.64673 14.6867 1.70006 14.5533 1.76673 14.4467C3.14006 11.7133 5.08673 9.51335 7.61339 7.84668C10.1334 6.18001 12.9334 5.34668 16.0001 5.34668C19.0667 5.34668 21.8601 6.18001 24.3867 7.84668C26.9067 9.51335 28.8601 11.7133 30.2334 14.4467C30.3001 14.5533 30.3534 14.6933 30.3867 14.8467C30.4201 15 30.4401 15.1733 30.4401 15.34C30.4401 15.5067 30.4201 15.6733 30.3867 15.8333C30.3534 15.9933 30.3001 16.1267 30.2334 16.2333C28.8601 18.9667 26.9134 21.1667 24.3867 22.8333C21.8601 24.5 19.0667 25.3333 16.0001 25.3333Z" fill="#25CBDB"/>
<path opacity="0.85" d="M15.3999 19.02L17.2466 20.8667C16.8533 20.96 16.4399 21 16.0066 21C14.4266 21 13.0866 20.4533 11.9866 19.3533C10.8866 18.2533 10.3333 16.9133 10.3333 15.34C10.3333 14.9067 10.3733 14.4867 10.4666 14.0933L12.3133 15.94L15.3999 19.02Z" fill="#222343"/>
<path opacity="0.85" d="M21.6667 15.3334C21.6667 16.9067 21.12 18.2467 20.02 19.3467C19.7667 19.6 19.5 19.82 19.2267 20.0134L17.8267 18.6067L12.7267 13.5134L11.3267 12.1134C11.5133 11.8334 11.7333 11.5734 11.9867 11.32C13.0867 10.22 14.42 9.66669 15.9933 9.66669C17.5667 9.66669 18.9133 10.22 20.0133 11.32C21.1133 12.42 21.6667 13.7534 21.6667 15.3334Z" fill="#222343"/>
<path d="M15.9933 19.0667C14.9533 19.0667 14.0733 18.7 13.3533 17.9733C12.6333 17.2467 12.2666 16.36 12.2666 15.32C12.2666 14.28 12.6333 13.4 13.3599 12.68C14.0866 11.96 14.9733 11.5933 16.0133 11.5933C17.0533 11.5933 17.9333 11.96 18.6533 12.6867C19.3733 13.4133 19.7399 14.3 19.7399 15.34C19.7399 16.38 19.3733 17.26 18.6466 17.98C17.9199 18.7 17.0333 19.0667 15.9933 19.0667Z" fill="#25CBDB"/>
<path opacity="0.52" d="M12.3132 15.94L15.3999 19.02C14.6132 18.9133 13.9332 18.56 13.3532 17.9733C12.7732 17.3933 12.4266 16.72 12.3132 15.94Z" fill="#25CBDB"/>
<path opacity="0.85" d="M11.3268 12.1133C10.9001 12.7133 10.6068 13.3733 10.4668 14.0933L5.68677 9.31997C6.18677 8.8733 6.71343 8.4533 7.27343 8.0733L11.3268 12.1133Z" fill="#25CBDB"/>
<path d="M12.2666 15.3267C12.2666 15.54 12.2799 15.74 12.3132 15.94L10.4666 14.0933C10.6066 13.3733 10.8999 12.7133 11.3266 12.1133L12.7266 13.5133C12.4199 14.0467 12.2666 14.6533 12.2666 15.3267Z" fill="#222343"/>
<path opacity="0.85" d="M17.8266 18.6067C17.2799 18.9134 16.6733 19.0667 15.9933 19.0667C15.7866 19.0667 15.5933 19.0534 15.3999 19.02L12.3133 15.94C12.2799 15.74 12.2666 15.54 12.2666 15.3267C12.2666 14.6534 12.4199 14.0467 12.7266 13.5134L17.8266 18.6067Z" fill="#222343"/>
<path d="M19.2268 20.0133C18.6268 20.44 17.9668 20.7266 17.2468 20.8666L15.4001 19.02C15.5935 19.0533 15.7868 19.0666 15.9935 19.0666C16.6735 19.0666 17.2801 18.9133 17.8268 18.6066L19.2268 20.0133Z" fill="#222343"/>
<path opacity="0.85" d="M22.9135 23.6934C22.2668 24.0267 21.6002 24.3067 20.9202 24.5334L17.2468 20.8667C17.9668 20.7267 18.6268 20.44 19.2268 20.0134L22.9135 23.6934Z" fill="#25CBDB"/>
<path d="M27.1265 28.9334C26.8732 28.9334 26.6132 28.8334 26.4199 28.64L2.53987 4.79336C2.14654 4.40002 2.14654 3.76669 2.53987 3.38002C2.93321 2.98669 3.56654 2.98669 3.95321 3.38002L27.8265 27.2267C28.2199 27.62 28.2199 28.2534 27.8265 28.64C27.6332 28.8334 27.3732 28.9334 27.1199 28.9334H27.1265Z" fill="#222343"/>
</svg>
