<svg width="32" height="32" viewBox="0 0 32 32" fill="none" xmlns="http://www.w3.org/2000/svg">
<path opacity="0.52" d="M16.0001 25.3333C12.9334 25.3333 10.1401 24.5 7.61339 22.8333C5.09339 21.1667 3.14006 18.9667 1.76673 16.2333C1.70006 16.1267 1.64673 15.9867 1.61339 15.8333C1.58006 15.68 1.56006 15.5067 1.56006 15.34C1.56006 15.1733 1.58006 15.0067 1.61339 14.8467C1.64673 14.6867 1.70006 14.5533 1.76673 14.4467C3.14006 11.7133 5.08672 9.51335 7.61339 7.84668C10.1334 6.18001 12.9334 5.34668 16.0001 5.34668C19.0667 5.34668 21.8601 6.18001 24.3867 7.84668C26.9067 9.51335 28.8601 11.7133 30.2334 14.4467C30.3001 14.5533 30.3534 14.6933 30.3867 14.8467C30.4201 15 30.4401 15.1733 30.4401 15.34C30.4401 15.5067 30.4201 15.6733 30.3867 15.8333C30.3534 15.9933 30.3001 16.1267 30.2334 16.2333C28.8601 18.9667 26.9134 21.1667 24.3867 22.8333C21.8601 24.5 19.0667 25.3333 16.0001 25.3333Z" fill="#25CBDB"/>
<path opacity="0.85" d="M16.0066 20.9999C17.5799 20.9999 18.9199 20.4466 20.0199 19.3466C21.1199 18.2466 21.6733 16.9066 21.6733 15.3266C21.6733 13.7466 21.1199 12.4132 20.0199 11.3132C18.9199 10.2132 17.5799 9.65991 15.9999 9.65991C14.4199 9.65991 13.0866 10.2132 11.9866 11.3132C10.8866 12.4132 10.3333 13.7532 10.3333 15.3332C10.3333 16.9132 10.8866 18.2466 11.9866 19.3466C13.0866 20.4466 14.4266 20.9999 16.0066 20.9999Z" fill="#222343"/>
<path d="M15.9933 19.0666C14.9533 19.0666 14.0733 18.6999 13.3533 17.9733C12.6333 17.2466 12.2666 16.3599 12.2666 15.3199C12.2666 14.2799 12.6333 13.3999 13.3599 12.6799C14.0866 11.9599 14.9733 11.5933 16.0133 11.5933C17.0533 11.5933 17.9333 11.9599 18.6533 12.6866C19.3733 13.4133 19.7399 14.2999 19.7399 15.3399C19.7399 16.3799 19.3733 17.2599 18.6466 17.9799C17.9199 18.6999 17.0333 19.0666 15.9933 19.0666Z" fill="#222343"/>
</svg>
