<svg width="32" height="32" viewBox="0 0 32 32" fill="none" xmlns="http://www.w3.org/2000/svg">
<path opacity="0.5" d="M27.198 26.6667L15.998 7.32666H15.9913L4.79799 26.6667H27.198Z" fill="#25CBDB"/>
<path d="M15.998 7.32673L27.198 26.6667H4.79799L15.9913 7.32673C15.9913 7.32673 15.9913 7.32673 15.998 7.32673ZM15.998 5.32673C15.3247 5.32673 14.6513 5.66007 14.2647 6.32673L3.07133 25.6667C2.29799 27.0001 3.26466 28.6667 4.80466 28.6667H27.198C28.738 28.6667 29.698 27.0001 28.9313 25.6667L17.7313 6.32007C17.3447 5.6534 16.6713 5.32007 15.998 5.32007V5.32673Z" fill="#222343"/>
<path d="M16.1313 24.7667C16.418 24.7667 16.658 24.6733 16.8513 24.4867C17.0447 24.3 17.138 24.06 17.1313 23.7667C17.1313 23.48 17.038 23.24 16.8513 23.0467C16.6647 22.8533 16.4247 22.7667 16.1313 22.7667C15.838 22.7667 15.6047 22.86 15.4113 23.0467C15.2247 23.2333 15.1313 23.4733 15.1313 23.7667C15.1313 24.0533 15.2247 24.2933 15.4113 24.4867C15.598 24.68 15.838 24.7667 16.1313 24.7667Z" fill="#222343"/>
<path d="M17.1313 14.6C17.1313 14.0477 16.6836 13.6 16.1313 13.6C15.579 13.6 15.1313 14.0477 15.1313 14.6V20.0667C15.1313 20.619 15.579 21.0667 16.1313 21.0667C16.6836 21.0667 17.1313 20.619 17.1313 20.0667V14.6Z" fill="#222343"/>
</svg>
