<svg width="32" height="32" viewBox="0 0 32 32" fill="none" xmlns="http://www.w3.org/2000/svg">
<path opacity="0.5" d="M24.0033 23.9998C21.7833 26.2198 19.1166 27.3332 16.0033 27.3332C12.89 27.3332 10.2233 26.2198 8.00332 23.9998C5.78332 21.7798 4.66998 19.1132 4.66998 15.9998C4.66998 12.8865 5.78332 10.2198 8.00332 7.99984C10.2233 5.77984 12.89 4.6665 16.0033 4.6665C19.1166 4.6665 21.7833 5.77984 24.0033 7.99984C26.2233 10.2198 27.3367 12.8865 27.3367 15.9998C27.3367 19.1132 26.2233 21.7798 24.0033 23.9998Z" fill="#25CBDB"/>
<path d="M16.0033 29.3332C14.1833 29.3332 12.4566 28.9866 10.8366 28.2799C9.21665 27.5799 7.79665 26.6266 6.58332 25.4132C5.36998 24.1999 4.41665 22.7866 3.71665 21.1599C3.01665 19.5399 2.66998 17.8132 2.66998 15.9932C2.66998 14.1732 3.02332 12.4466 3.71665 10.8266C4.41665 9.20658 5.36998 7.78658 6.58332 6.57325C7.79665 5.35991 9.20998 4.40658 10.8366 3.70658C12.4566 3.00658 14.1833 2.65991 16.0033 2.65991C17.8233 2.65991 19.55 3.01325 21.17 3.70658C22.79 4.40658 24.21 5.35991 25.4233 6.57325C26.6367 7.78658 27.59 9.19991 28.29 10.8266C28.99 12.4466 29.3433 14.1732 29.3433 15.9932C29.3433 17.8132 28.9967 19.5399 28.29 21.1599C27.59 22.7799 26.6367 24.1999 25.4233 25.4132C24.21 26.6266 22.7966 27.5799 21.17 28.2799C19.55 28.9799 17.8233 29.3332 16.0033 29.3332ZM16.0033 27.3332C19.1166 27.3332 21.7833 26.2199 24.0033 23.9999C26.2233 21.7799 27.3367 19.1132 27.3367 15.9999C27.3367 12.8866 26.2233 10.2199 24.0033 7.99991C21.7833 5.77991 19.1166 4.66658 16.0033 4.66658C12.89 4.66658 10.2233 5.77991 8.00332 7.99991C5.78332 10.2199 4.66998 12.8866 4.66998 15.9999C4.66998 19.1132 5.78332 21.7799 8.00332 23.9999C10.2233 26.2199 12.89 27.3332 16.0033 27.3332Z" fill="#222343"/>
<path d="M21.6633 21.6732C22.07 21.2666 22.0767 20.5999 21.6633 20.1866L17.1033 15.5999V9.8999C17.1033 9.34657 16.6567 8.8999 16.1033 8.8999C15.55 8.8999 15.1033 9.34657 15.1033 9.8999V16.3999L20.1567 21.6599C20.5633 22.0866 21.2433 22.0932 21.6567 21.6732H21.6633Z" fill="#222343"/>
</svg>
