<svg width="32" height="32" viewBox="0 0 32 32" fill="none" xmlns="http://www.w3.org/2000/svg">
<path opacity="0.85" d="M5.69996 19.75C5.98885 19.4722 6.45551 19.3333 7.09996 19.3333C7.9444 19.3333 8.56663 19.5555 8.96663 20C9.36663 20.4444 10.2222 20.6666 11.5333 20.6666C12.8444 20.6666 13.7055 20.4444 14.1166 20C14.5277 19.5555 15.1444 19.3333 15.9666 19.3333C16.7888 19.3333 17.4277 19.5555 17.8833 20C18.3388 20.4444 19.2111 20.6666 20.5 20.6666C21.7888 20.6666 22.6388 20.4444 23.05 20C23.4611 19.5555 24.0777 19.3333 24.9 19.3333C25.5222 19.3333 25.9833 19.4722 26.2833 19.75C26.5833 20.0277 26.9888 20.2222 27.5 20.3333C28.0111 20.4444 28.4444 20.3944 28.8 20.1833C29.1555 19.9722 29.3333 19.6555 29.3333 19.2333C29.3333 18.9222 29.2 18.6111 28.9333 18.3C28.6666 17.9888 28.2555 17.6888 27.7 17.4C27.2111 17.1555 26.7277 16.9722 26.25 16.85C25.7722 16.7277 25.2777 16.6666 24.7666 16.6666C23.5 16.6666 22.6777 16.8888 22.3 17.3333C21.9222 17.7777 21.3222 18 20.5 18C19.6777 18 19.0388 17.7777 18.5833 17.3333C18.1277 16.8888 17.2555 16.6666 15.9666 16.6666C14.6777 16.6666 13.8277 16.8888 13.4166 17.3333C13.0055 17.7777 12.3888 18 11.5666 18C10.7444 18 10.1222 17.7777 9.69996 17.3333C9.27774 16.8888 8.45551 16.6666 7.23329 16.6666C6.45551 16.6666 5.82774 16.7611 5.34996 16.95C4.87218 17.1388 4.57774 17.2666 4.46663 17.3333C3.8444 17.6444 3.38885 17.9555 3.09996 18.2666C2.81107 18.5777 2.66663 18.9 2.66663 19.2333C2.66663 19.6555 2.8444 19.9722 3.19996 20.1833C3.55551 20.3944 3.98885 20.4444 4.49996 20.3333C5.01107 20.2222 5.41107 20.0277 5.69996 19.75Z" fill="#222343"/>
<path opacity="0.52" d="M5.69996 25.0833C5.98885 24.8056 6.45551 24.6667 7.09996 24.6667C7.9444 24.6667 8.56663 24.8889 8.96663 25.3333C9.36663 25.7778 10.2222 26 11.5333 26C12.8444 26 13.7055 25.7778 14.1166 25.3333C14.5277 24.8889 15.1444 24.6667 15.9666 24.6667C16.7888 24.6667 17.4277 24.8889 17.8833 25.3333C18.3388 25.7778 19.2111 26 20.5 26C21.7888 26 22.6388 25.7778 23.05 25.3333C23.4611 24.8889 24.0777 24.6667 24.9 24.6667C25.5222 24.6667 25.9833 24.8056 26.2833 25.0833C26.5833 25.3611 26.9888 25.5556 27.5 25.6667C28.0111 25.7778 28.4444 25.7278 28.8 25.5167C29.1555 25.3056 29.3333 24.9889 29.3333 24.5667C29.3333 24.2556 29.2 23.9444 28.9333 23.6333C28.6666 23.3222 28.2555 23.0222 27.7 22.7333C27.2111 22.4889 26.7277 22.3056 26.25 22.1833C25.7722 22.0611 25.2777 22 24.7666 22C23.5 22 22.6777 22.2222 22.3 22.6667C21.9222 23.1111 21.3222 23.3333 20.5 23.3333C19.6777 23.3333 19.0388 23.1111 18.5833 22.6667C18.1277 22.2222 17.2555 22 15.9666 22C14.6777 22 13.8277 22.2222 13.4166 22.6667C13.0055 23.1111 12.3888 23.3333 11.5666 23.3333C10.7444 23.3333 10.1222 23.1111 9.69996 22.6667C9.27774 22.2222 8.45551 22 7.23329 22C6.45551 22 5.82774 22.0944 5.34996 22.2833C4.87218 22.4722 4.57774 22.6 4.46663 22.6667C3.8444 22.9778 3.38885 23.2889 3.09996 23.6C2.81107 23.9111 2.66663 24.2333 2.66663 24.5667C2.66663 24.9889 2.8444 25.3056 3.19996 25.5167C3.55551 25.7278 3.98885 25.7778 4.49996 25.6667C5.01107 25.5556 5.41107 25.3611 5.69996 25.0833Z" fill="#25CBDB"/>
<path d="M5.69996 14.4167C5.98885 14.1389 6.45551 14 7.09996 14C7.9444 14 8.56663 14.2223 8.96663 14.6667C9.36663 15.1112 10.2222 15.3334 11.5333 15.3334C12.8444 15.3334 13.7055 15.1112 14.1166 14.6667C14.5277 14.2223 15.1444 14 15.9666 14C16.7888 14 17.4277 14.2223 17.8833 14.6667C18.3388 15.1112 19.2111 15.3334 20.5 15.3334C21.7888 15.3334 22.6388 15.1112 23.05 14.6667C23.4611 14.2223 24.0777 14 24.9 14C25.5222 14 25.9833 14.1389 26.2833 14.4167C26.5833 14.6945 26.9888 14.8889 27.5 15C28.0111 15.1112 28.4444 15.0612 28.8 14.85C29.1555 14.6389 29.3333 14.3223 29.3333 13.9C29.3333 13.5889 29.2 13.2778 28.9333 12.9667C28.6666 12.6556 28.2555 12.3556 27.7 12.0667C27.2111 11.8223 26.7277 11.6389 26.25 11.5167C25.7722 11.3945 25.2777 11.3334 24.7666 11.3334C23.5 11.3334 22.6777 11.5556 22.3 12C21.9222 12.4445 21.3222 12.6667 20.5 12.6667C19.6777 12.6667 19.0388 12.4445 18.5833 12C18.1277 11.5556 17.2555 11.3334 15.9666 11.3334C14.6777 11.3334 13.8277 11.5556 13.4166 12C13.0055 12.4445 12.3888 12.6667 11.5666 12.6667C10.7444 12.6667 10.1222 12.4445 9.69996 12C9.27774 11.5556 8.45551 11.3334 7.23329 11.3334C6.45551 11.3334 5.82774 11.4278 5.34996 11.6167C4.87218 11.8056 4.57774 11.9334 4.46663 12C3.8444 12.3112 3.38885 12.6223 3.09996 12.9334C2.81107 13.2445 2.66663 13.5667 2.66663 13.9C2.66663 14.3223 2.8444 14.6389 3.19996 14.85C3.55551 15.0612 3.98885 15.1112 4.49996 15C5.01107 14.8889 5.41107 14.6945 5.69996 14.4167Z" fill="#25CBDB"/>
<path d="M5.69996 9.08333C5.98885 8.80556 6.45551 8.66667 7.09996 8.66667C7.9444 8.66667 8.56663 8.88889 8.96663 9.33333C9.36663 9.77778 10.2222 10 11.5333 10C12.8444 10 13.7055 9.77778 14.1166 9.33333C14.5277 8.88889 15.1444 8.66667 15.9666 8.66667C16.7888 8.66667 17.4277 8.88889 17.8833 9.33333C18.3388 9.77778 19.2111 10 20.5 10C21.7888 10 22.6388 9.77778 23.05 9.33333C23.4611 8.88889 24.0777 8.66667 24.9 8.66667C25.5222 8.66667 25.9833 8.80556 26.2833 9.08333C26.5833 9.36111 26.9888 9.55556 27.5 9.66667C28.0111 9.77778 28.4444 9.72778 28.8 9.51667C29.1555 9.30556 29.3333 8.98889 29.3333 8.56667C29.3333 8.25556 29.2 7.94445 28.9333 7.63333C28.6666 7.32222 28.2555 7.02222 27.7 6.73333C27.2111 6.48889 26.7277 6.30556 26.25 6.18333C25.7722 6.06111 25.2777 6 24.7666 6C23.5 6 22.6777 6.22222 22.3 6.66667C21.9222 7.11111 21.3222 7.33333 20.5 7.33333C19.6777 7.33333 19.0388 7.11111 18.5833 6.66667C18.1277 6.22222 17.2555 6 15.9666 6C14.6777 6 13.8277 6.22222 13.4166 6.66667C13.0055 7.11111 12.3888 7.33333 11.5666 7.33333C10.7444 7.33333 10.1222 7.11111 9.69996 6.66667C9.27774 6.22222 8.45551 6 7.23329 6C6.45551 6 5.82774 6.09445 5.34996 6.28333C4.87218 6.47222 4.57774 6.6 4.46663 6.66667C3.8444 6.97778 3.38885 7.28889 3.09996 7.6C2.81107 7.91111 2.66663 8.23333 2.66663 8.56667C2.66663 8.98889 2.8444 9.30556 3.19996 9.51667C3.55551 9.72778 3.98885 9.77778 4.49996 9.66667C5.01107 9.55556 5.41107 9.36111 5.69996 9.08333Z" fill="#222343"/>
</svg>
