<svg width="32" height="32" viewBox="0 0 32 32" fill="none" xmlns="http://www.w3.org/2000/svg">
<path opacity="0.52" d="M16 29.3334C23.3638 29.3334 29.3333 23.3639 29.3333 16.0001C29.3333 8.63628 23.3638 2.66675 16 2.66675C8.63616 2.66675 2.66663 8.63628 2.66663 16.0001C2.66663 23.3639 8.63616 29.3334 16 29.3334Z" fill="#25CBDB"/>
<path d="M21.9066 10.06C20.3399 8.49338 18.2532 7.62671 16.0332 7.62671C11.4599 7.62671 7.73325 11.3467 7.73325 15.92C7.73325 17.38 8.11325 18.8067 8.83991 20.0667L7.65991 24.3667L12.0599 23.2134C13.2732 23.8734 14.6399 24.22 16.0266 24.22C20.5999 24.22 24.3199 20.5 24.3266 15.9267C24.3266 13.7134 23.4666 11.6267 21.8999 10.06H21.9066ZM16.0332 22.8267C14.7932 22.8267 13.5799 22.4934 12.5199 21.8667L12.2666 21.72L9.65325 22.4067L10.3532 19.86L10.1866 19.6C9.49325 18.5 9.13325 17.2334 9.13325 15.9334C9.13325 12.1334 12.2266 9.04004 16.0332 9.04004C17.8732 9.04004 19.6066 9.76004 20.9066 11.06C22.2066 12.36 22.9266 14.0934 22.9266 15.94C22.9266 19.74 19.8332 22.8334 16.0266 22.8334L16.0332 22.8267ZM19.8199 17.66C19.6132 17.5534 18.5932 17.0534 18.3999 16.9867C18.2066 16.92 18.0732 16.88 17.9332 17.0934C17.7932 17.3 17.3999 17.7667 17.2799 17.9067C17.1599 18.0467 17.0399 18.06 16.8332 17.96C16.6266 17.8534 15.9599 17.64 15.1666 16.9334C14.5532 16.3867 14.1332 15.7067 14.0132 15.5C13.8932 15.2934 13.9999 15.18 14.1066 15.08C14.1999 14.9867 14.3132 14.84 14.4199 14.72C14.5266 14.6 14.5599 14.5134 14.6266 14.3734C14.6932 14.2334 14.6599 14.1134 14.6066 14.0134C14.5532 13.9067 14.1399 12.8867 13.9666 12.4734C13.7999 12.0667 13.6266 12.1267 13.4999 12.12C13.3799 12.12 13.2399 12.1134 13.0999 12.1134C12.9599 12.1134 12.7399 12.1667 12.5466 12.3734C12.3532 12.58 11.8199 13.08 11.8199 14.1C11.8199 15.12 12.5599 16.1067 12.6666 16.2467C12.7732 16.3867 14.1266 18.48 16.2066 19.3734C16.6999 19.5867 17.0866 19.7134 17.3866 19.8134C17.8866 19.9734 18.3332 19.9467 18.6932 19.8934C19.0932 19.8334 19.9199 19.3934 20.0932 18.9067C20.2666 18.42 20.2666 18.0067 20.2132 17.92C20.1599 17.8334 20.0199 17.78 19.8132 17.68L19.8199 17.66Z" fill="#222343"/>
</svg>
