<svg width="32" height="32" viewBox="0 0 32 32" fill="none" xmlns="http://www.w3.org/2000/svg">
<path opacity="0.52" d="M16 29.3334C23.3638 29.3334 29.3334 23.3639 29.3334 16.0001C29.3334 8.63628 23.3638 2.66675 16 2.66675C8.63622 2.66675 2.66669 8.63628 2.66669 16.0001C2.66669 23.3639 8.63622 29.3334 16 29.3334Z" fill="#25CBDB"/>
<path d="M23.9867 11.9867C23.7934 11.2667 23.2334 10.7067 22.5134 10.5134C21.2134 10.1667 16 10.1667 16 10.1667C16 10.1667 10.7867 10.1667 9.48669 10.5134C8.76669 10.7067 8.20669 11.2667 8.01335 11.9867C7.66669 13.2867 7.66669 16.0001 7.66669 16.0001C7.66669 16.0001 7.66669 18.7134 8.01335 20.0134C8.20669 20.7334 8.76669 21.2934 9.48669 21.4867C10.7867 21.8334 16 21.8334 16 21.8334C16 21.8334 21.2134 21.8334 22.5134 21.4867C23.2334 21.2934 23.7934 20.7334 23.9867 20.0134C24.3334 18.7134 24.3334 16.0001 24.3334 16.0001C24.3334 16.0001 24.3334 13.2867 23.9867 11.9867Z" fill="#222343"/>
<path opacity="0.85" d="M14.3334 18.5L18.66 16L14.3334 13.5V18.5Z" fill="#25CBDB"/>
</svg>
