<svg width="32" height="32" viewBox="0 0 32 32" fill="none" xmlns="http://www.w3.org/2000/svg">
<path d="M16.0666 7.53325C15.3999 7.53325 14.8266 7.29325 14.3466 6.81991C13.8666 6.34658 13.6266 5.77325 13.6266 5.09991C13.6266 4.42658 13.8666 3.85991 14.3399 3.37991C14.8132 2.89991 15.3866 2.65991 16.0599 2.65991C16.7332 2.65991 17.2999 2.89991 17.7799 3.37325C18.2599 3.84658 18.4999 4.41991 18.4999 5.09325C18.4999 5.76658 18.2599 6.33325 17.7866 6.81325C17.3132 7.29325 16.7399 7.53325 16.0666 7.53325ZM24.1932 29.3332C23.9066 29.3332 23.6732 29.2399 23.4799 29.0466C23.2866 28.8532 23.1932 28.6199 23.1932 28.3332V22.3666H16.0599C15.3999 22.3666 14.8332 22.1332 14.3666 21.6599C13.8999 21.1866 13.6599 20.6266 13.6599 19.9666V11.7332C13.6599 11.0332 13.8799 10.4599 14.3266 10.0066C14.7732 9.55325 15.3532 9.33325 16.0732 9.33325C16.5666 9.33325 16.9932 9.43325 17.3532 9.63325C17.7132 9.83325 18.1399 10.2199 18.6266 10.7999C19.4732 11.7799 20.3732 12.6199 21.3266 13.3199C22.2799 14.0199 23.3266 14.4599 24.4599 14.6399C24.7066 14.6866 24.9132 14.7932 25.0799 14.9732C25.2466 15.1532 25.3332 15.3666 25.3332 15.6066C25.3332 15.9132 25.2266 16.1732 25.0132 16.3732C24.7999 16.5732 24.5399 16.6532 24.2266 16.6066C23.2466 16.4532 22.2599 16.1132 21.2599 15.5866C20.2599 15.0599 19.2932 14.4132 18.3599 13.6332V19.7332H22.7932C23.4532 19.7332 24.0199 19.9666 24.4866 20.4399C24.9599 20.9132 25.1932 21.4732 25.1932 22.1332V28.3332C25.1932 28.6199 25.0999 28.8532 24.9066 29.0466C24.7132 29.2399 24.4732 29.3332 24.1866 29.3332H24.1932ZM13.1999 29.3332C11.3532 29.3332 9.80658 28.7066 8.54658 27.4466C7.29325 26.1932 6.65991 24.6399 6.65991 22.7932C6.65991 21.2799 7.21325 19.8866 8.31325 18.6066C9.41325 17.3266 10.8666 16.5866 12.6666 16.3866V18.4199C11.4666 18.5332 10.5066 19.0266 9.77991 19.9066C9.05991 20.7866 8.69325 21.7466 8.69325 22.7932C8.69325 24.0799 9.11991 25.1599 9.97991 26.0266C10.8399 26.8932 11.9066 27.3266 13.1999 27.3266C14.2466 27.3266 15.2132 26.9666 16.0999 26.2399C16.9866 25.5132 17.4799 24.5532 17.5666 23.3532H19.5999C19.4199 25.1332 18.6866 26.5732 17.3999 27.6732C16.1132 28.7732 14.7132 29.3266 13.1999 29.3266V29.3332Z" fill="#222343"/>
</svg>
