<svg width="32" height="32" viewBox="0 0 32 32" fill="none" xmlns="http://www.w3.org/2000/svg">
<path d="M16.0667 18.6333C17.3533 18.6333 18.4467 18.1867 19.3333 17.3C20.22 16.4133 20.6667 15.32 20.6667 14.0333C20.6667 12.7467 20.22 11.6533 19.3333 10.7667C18.4467 9.88 17.3533 9.43333 16.0667 9.43333C14.78 9.43333 13.6867 9.88 12.8 10.7667C11.9133 11.6533 11.4667 12.7467 11.4667 14.0333C11.4667 15.32 11.9133 16.4133 12.8 17.3C13.6867 18.1867 14.78 18.6333 16.0667 18.6333ZM6 28C5.46667 28 5 27.8 4.6 27.4C4.2 27 4 26.5333 4 26V6C4 5.46667 4.2 5 4.6 4.6C5 4.2 5.46667 4 6 4H26C26.5333 4 27 4.2 27.4 4.6C27.8 5 28 5.46667 28 6V26C28 26.5333 27.8 27 27.4 27.4C27 27.8 26.5333 28 26 28H6ZM6 26H26V24.7667C24.6667 23.52 23.1533 22.5133 21.4667 21.7467C19.78 20.98 17.9533 20.5933 16 20.5933C14.0467 20.5933 12.22 20.98 10.5333 21.7467C8.84667 22.5133 7.33333 23.52 6 24.7667V26Z" fill="#222343"/>
</svg>
