<svg width="32" height="32" viewBox="0 0 32 32" fill="none" xmlns="http://www.w3.org/2000/svg">
<path d="M20 26.6667C17.02 26.6667 14.5 25.6334 12.4334 23.5667C10.3667 21.5 9.33337 18.98 9.33337 16C9.33337 13.02 10.3667 10.5 12.4334 8.43337C14.5 6.36671 17.02 5.33337 20 5.33337C22.98 5.33337 25.5 6.36671 27.5667 8.43337C29.6334 10.5 30.6667 13.02 30.6667 16C30.6667 18.98 29.6334 21.5 27.5667 23.5667C25.5 25.6334 22.98 26.6667 20 26.6667ZM21.0334 15.5667L21 11.6667C21 11.4 20.9067 11.1667 20.72 10.9667C20.5334 10.7667 20.2934 10.6667 20 10.6667C19.7067 10.6667 19.4734 10.76 19.28 10.9467C19.0934 11.1334 19 11.3734 19 11.6667V16C19 16.1334 19.02 16.2534 19.0667 16.3667C19.1134 16.48 19.1867 16.5867 19.3 16.7L22.7 20.0667C22.9 20.2667 23.1334 20.3667 23.4 20.3667C23.6667 20.3667 23.9 20.2667 24.1 20.0667C24.3 19.8667 24.4 19.6334 24.4 19.3667C24.4 19.1 24.3 18.8667 24.1 18.6667L21.0334 15.5667ZM3.66671 11.6667C3.38004 11.6667 3.14004 11.5734 2.95337 11.3867C2.76671 11.2 2.66671 10.96 2.66671 10.6667C2.66671 10.3734 2.76004 10.14 2.95337 9.95337C3.14004 9.76671 3.38004 9.66671 3.66671 9.66671H7.00004C7.28671 9.66671 7.52671 9.76004 7.71337 9.95337C7.90004 10.14 8.00004 10.38 8.00004 10.6667C8.00004 10.9534 7.90671 11.1934 7.71337 11.3867C7.52671 11.5734 7.28671 11.6667 7.00004 11.6667H3.66671ZM2.33337 17C2.04671 17 1.80671 16.9067 1.61337 16.72C1.42671 16.5334 1.33337 16.2934 1.33337 16C1.33337 15.7067 1.42671 15.4734 1.61337 15.28C1.80004 15.0934 2.04004 15 2.33337 15H7.00004C7.28671 15 7.52671 15.0934 7.71337 15.28C7.90004 15.4667 8.00004 15.7067 8.00004 16C8.00004 16.2934 7.90671 16.5267 7.71337 16.72C7.52671 16.9067 7.28671 17 7.00004 17H2.33337ZM3.66671 22.3334C3.38004 22.3334 3.14004 22.24 2.95337 22.0534C2.76671 21.8667 2.66671 21.6267 2.66671 21.3334C2.66671 21.04 2.76004 20.8067 2.95337 20.6134C3.14004 20.4267 3.38004 20.3334 3.66671 20.3334H7.00004C7.28671 20.3334 7.52671 20.4267 7.71337 20.6134C7.90004 20.8 8.00004 21.04 8.00004 21.3334C8.00004 21.6267 7.90671 21.86 7.71337 22.0534C7.52671 22.24 7.28671 22.3334 7.00004 22.3334H3.66671Z" fill="#222343"/>
</svg>
