<svg width="32" height="32" viewBox="0 0 32 32" fill="none" xmlns="http://www.w3.org/2000/svg">
<path d="M26.5001 28C23.9201 28 21.2934 27.38 18.6134 26.1333C15.9334 24.8867 13.4534 23.12 11.1601 20.8333C8.86674 18.5467 7.10674 16.06 5.86007 13.38C4.61341 10.7 3.99341 8.07335 3.99341 5.49335C3.99341 5.06668 4.13341 4.70668 4.42008 4.42001C4.70674 4.13335 5.06007 3.99335 5.49341 3.99335H10.1601C10.4734 3.99335 10.7401 4.10668 10.9601 4.32668C11.1801 4.54668 11.3401 4.82668 11.4267 5.16001L12.3267 9.34668C12.3734 9.66668 12.3667 9.95335 12.3134 10.2067C12.2601 10.46 12.1401 10.68 11.9534 10.8667L8.62674 14.2267C9.20674 15.2067 9.81341 16.1133 10.4601 16.96C11.1067 17.8067 11.8134 18.6067 12.5934 19.36C13.4134 20.2067 14.2801 20.98 15.1934 21.68C16.1067 22.38 17.0601 23 18.0601 23.5333L21.2267 20.2667C21.4467 20.02 21.7067 19.8533 22.0001 19.7667C22.2934 19.68 22.5801 19.6533 22.8601 19.7L26.8267 20.5667C27.1601 20.6533 27.4401 20.8333 27.6601 21.1C27.8801 21.3667 27.9934 21.6667 27.9934 22V26.5C27.9934 26.9267 27.8534 27.2867 27.5667 27.5733C27.2801 27.86 26.9267 28 26.4934 28H26.5001ZM21.7334 10.2667H18.4667C18.1801 10.2667 17.9467 10.1733 17.7534 9.98001C17.5601 9.78668 17.4667 9.54668 17.4667 9.26001C17.4667 8.97335 17.5601 8.74001 17.7534 8.54668C17.9467 8.36001 18.1801 8.26001 18.4667 8.26001H21.7334V4.99335C21.7334 4.70668 21.8267 4.47335 22.0201 4.28001C22.2134 4.08668 22.4534 3.99335 22.7401 3.99335C23.0267 3.99335 23.2601 4.08668 23.4534 4.28001C23.6401 4.47335 23.7401 4.70668 23.7401 4.99335V8.26001H27.0067C27.2934 8.26001 27.5267 8.35335 27.7201 8.54668C27.9134 8.74001 28.0067 8.98001 28.0067 9.26668C28.0067 9.55335 27.9134 9.78668 27.7201 9.98001C27.5267 10.1667 27.2934 10.2667 27.0067 10.2667H23.7401V13.5333C23.7401 13.82 23.6467 14.0533 23.4534 14.2467C23.2601 14.44 23.0201 14.5333 22.7334 14.5333C22.4467 14.5333 22.2134 14.44 22.0201 14.2467C21.8334 14.0533 21.7334 13.82 21.7334 13.5333V10.2667Z" fill="currentColor"/>
</svg>
