<svg width="32" height="32" viewBox="0 0 32 32" fill="none" xmlns="http://www.w3.org/2000/svg">
<path d="M16 25.6666C15.6222 25.6666 15.3055 25.5388 15.05 25.2833C14.7944 25.0277 14.6666 24.711 14.6666 24.3333V17.3333H7.66665C7.28887 17.3333 6.9722 17.2055 6.71665 16.9499C6.46109 16.6944 6.33331 16.3777 6.33331 15.9999C6.33331 15.6221 6.46109 15.3055 6.71665 15.0499C6.9722 14.7944 7.28887 14.6666 7.66665 14.6666H14.6666V7.66659C14.6666 7.28881 14.7944 6.97214 15.05 6.71659C15.3055 6.46103 15.6222 6.33325 16 6.33325C16.3778 6.33325 16.6944 6.46103 16.95 6.71659C17.2055 6.97214 17.3333 7.28881 17.3333 7.66659V14.6666H24.3333C24.7111 14.6666 25.0278 14.7944 25.2833 15.0499C25.5389 15.3055 25.6666 15.6221 25.6666 15.9999C25.6666 16.3777 25.5389 16.6944 25.2833 16.9499C25.0278 17.2055 24.7111 17.3333 24.3333 17.3333H17.3333V24.3333C17.3333 24.711 17.2055 25.0277 16.95 25.2833C16.6944 25.5388 16.3778 25.6666 16 25.6666Z" fill="#222343"/>
</svg>
