<svg width="32" height="32" viewBox="0 0 32 32" fill="none" xmlns="http://www.w3.org/2000/svg">
<path d="M11.8334 15.0002C11.5534 15.0002 11.3134 15.0935 11.1201 15.2868C10.9267 15.4735 10.8334 15.7135 10.8334 16.0002C10.8334 16.2868 10.9267 16.5268 11.1201 16.7135C11.3134 16.9068 11.5467 17.0002 11.8334 17.0002H20.1667C20.4467 17.0002 20.6867 16.9068 20.8801 16.7135C21.0734 16.5268 21.1667 16.2868 21.1667 16.0002C21.1667 15.7135 21.0734 15.4735 20.8801 15.2802C20.6867 15.0868 20.4534 14.9935 20.1667 14.9935H11.8334V15.0002Z" fill="currentColor"/>
<path d="M17.9667 11.3335H22.6667C23.9601 11.3335 25.0667 11.7868 25.9734 12.7002C26.6734 13.4002 27.1001 14.2135 27.2601 15.1335C27.3467 15.6268 27.7467 16.0002 28.2467 16.0002C28.8467 16.0002 29.3401 15.4668 29.2467 14.8735C29.0201 13.4402 28.3534 12.2002 27.2334 11.1402C25.9867 9.9535 24.2934 9.3335 22.5734 9.3335H18.0001C17.7201 9.3335 17.4801 9.4335 17.2867 9.6335C17.0934 9.8335 17.0001 10.0668 17.0001 10.3335C17.0001 10.6202 17.0934 10.8535 17.2801 11.0468C17.4667 11.2402 17.6934 11.3335 17.9667 11.3335Z" fill="currentColor"/>
<path d="M14.0001 20.6668H9.33341C8.04008 20.6668 6.93341 20.2135 6.02675 19.3002C5.12008 18.3868 4.66675 17.2868 4.66675 15.9935C4.66675 14.7002 5.12008 13.6002 6.02675 12.6935C6.93341 11.7868 8.03341 11.3335 9.33341 11.3335H14.0001C14.2667 11.3335 14.5001 11.2402 14.7001 11.0468C14.9001 10.8535 15.0001 10.6268 15.0001 10.3468C15.0001 10.0668 14.9001 9.8335 14.7001 9.6335C14.5001 9.4335 14.2667 9.3335 14.0001 9.3335H9.33341C7.48675 9.3335 5.92008 9.98016 4.61341 11.2868C3.31341 12.5868 2.66675 14.1602 2.66675 16.0002C2.66675 17.8402 3.31341 19.4135 4.61341 20.7135C5.91341 22.0135 7.48675 22.6668 9.33341 22.6668H14.0001C14.2667 22.6668 14.5001 22.5735 14.7001 22.3802C14.9001 22.1868 15.0001 21.9602 15.0001 21.6802C15.0001 21.4002 14.9001 21.1668 14.7001 20.9668C14.5001 20.7668 14.2667 20.6668 14.0001 20.6668Z" fill="currentColor"/>
<path d="M29.0467 20.9535C28.8534 20.7602 28.6201 20.6668 28.3334 20.6668H25.3334V17.6668C25.3334 17.3802 25.2401 17.1468 25.0534 16.9535C24.8667 16.7602 24.6267 16.6668 24.3401 16.6668C24.0534 16.6668 23.8134 16.7602 23.6267 16.9535C23.4334 17.1468 23.3401 17.3802 23.3401 17.6668V20.6668H20.3401C20.0601 20.6668 19.8201 20.7668 19.6267 20.9668C19.4334 21.1668 19.3401 21.4002 19.3401 21.6668C19.3401 21.9535 19.4334 22.1868 19.6201 22.3802C19.8067 22.5735 20.0334 22.6668 20.3067 22.6668H23.3401V25.6668C23.3401 25.9535 23.4334 26.1868 23.6201 26.3802C23.8067 26.5735 24.0467 26.6668 24.3334 26.6668C24.6201 26.6668 24.8601 26.5735 25.0467 26.3802C25.2401 26.1868 25.3334 25.9535 25.3334 25.6668V22.6668H28.3334C28.6134 22.6668 28.8534 22.5735 29.0467 22.3802C29.2401 22.1935 29.3334 21.9535 29.3334 21.6668C29.3334 21.3802 29.2401 21.1402 29.0467 20.9468V20.9535Z" fill="currentColor"/>
</svg>
