<svg width="32" height="32" viewBox="0 0 32 32" fill="none" xmlns="http://www.w3.org/2000/svg">
<path d="M22.9566 23.1376H20.0426C19.7279 23.1376 19.4682 23.0329 19.2636 22.8236C19.0589 22.614 18.9566 22.3545 18.9566 22.0449C18.9566 21.752 19.0613 21.493 19.2709 21.2679C19.4807 21.0428 19.7406 20.9303 20.0506 20.9303H22.9566V18.0433C22.9566 17.7279 23.0611 17.4636 23.2702 17.2503C23.4793 17.0369 23.7446 16.9303 24.0659 16.9303C24.3872 16.9303 24.6537 17.0369 24.8652 17.2503C25.0768 17.4636 25.1826 17.7279 25.1826 18.0433V20.9303H28.0882C28.3982 20.9303 28.6581 21.0357 28.8679 21.2466C29.0777 21.4577 29.1826 21.7192 29.1826 22.0309C29.1826 22.3534 29.0777 22.6184 28.8679 22.8259C28.6581 23.0337 28.3982 23.1376 28.0882 23.1376H25.1826V26.0179C25.1826 26.3484 25.0753 26.6176 24.8609 26.8256C24.6464 27.0336 24.3807 27.1376 24.0636 27.1376C23.7358 27.1376 23.4693 27.0336 23.2642 26.8256C23.0591 26.6176 22.9566 26.3484 22.9566 26.0179V23.1376ZM13.4722 23.1376H9.33322C7.34922 23.1376 5.66356 22.4442 4.27622 21.0573C2.88911 19.6704 2.19556 17.9865 2.19556 16.0056C2.19556 14.0249 2.88911 12.336 4.27622 10.9389C5.66356 9.54182 7.34922 8.84326 9.33322 8.84326H13.4722C13.82 8.84326 14.127 8.97826 14.3932 9.24826C14.6594 9.51804 14.7926 9.83504 14.7926 10.1993C14.7926 10.5579 14.6594 10.8649 14.3932 11.1203C14.127 11.3754 13.82 11.5029 13.4722 11.5029H9.33322C8.07456 11.5029 7.01033 11.937 6.14056 12.8053C5.271 13.6735 4.83622 14.7357 4.83622 15.9919C4.83622 17.2484 5.271 18.3134 6.14056 19.1869C7.01033 20.0603 8.07456 20.4969 9.33322 20.4969H13.4722C13.82 20.4969 14.127 20.6284 14.3932 20.8913C14.6594 21.1542 14.7926 21.4684 14.7926 21.8339C14.7926 22.1997 14.6594 22.5084 14.3932 22.7599C14.127 23.0117 13.82 23.1376 13.4722 23.1376ZM11.6259 17.1129C11.3106 17.1129 11.0462 17.0084 10.8329 16.7993C10.6196 16.5902 10.5129 16.3217 10.5129 15.9939C10.5129 15.6664 10.6169 15.3999 10.8249 15.1946C11.0329 14.9895 11.302 14.8869 11.6322 14.8869H19.6766C19.9919 14.8869 20.2562 14.9915 20.4696 15.2006C20.6831 15.4097 20.7899 15.6782 20.7899 16.0059C20.7899 16.3335 20.6831 16.5999 20.4696 16.8053C20.2562 17.0104 19.9919 17.1129 19.6766 17.1129H11.6259ZM29.8232 15.9999H27.1636C27.1636 14.7488 26.729 13.6865 25.8599 12.8129C24.9908 11.9396 23.9272 11.5029 22.6692 11.5029H18.4752C18.1206 11.5029 17.8174 11.3733 17.5659 11.1139C17.3141 10.8546 17.1882 10.5417 17.1882 10.1753C17.1882 9.82548 17.3154 9.51604 17.5699 9.24693C17.8243 8.97782 18.1372 8.84326 18.5086 8.84326H22.6666C24.6466 8.84326 26.3343 9.54104 27.7299 10.9366C29.1254 12.3322 29.8232 14.0199 29.8232 15.9999Z" fill="currentColor"/>
</svg>
