<svg width="32" height="32" viewBox="0 0 32 32" fill="none" xmlns="http://www.w3.org/2000/svg">
<path d="M4.83333 12.8333C4.58666 12.8333 4.38 12.7333 4.2 12.5333C4.02 12.3333 3.93333 12.1 3.93333 11.8333C3.93333 11.5667 4.02 11.3333 4.2 11.1333C4.38 10.9333 4.58666 10.8333 4.83333 10.8333H9.8C10.4467 10.8333 10.9467 11.0333 11.3 11.4333C11.6533 11.8333 11.8867 12.3 12 12.8333H4.83333ZM7.66666 25.4667C8.86666 25.4667 9.88666 25.0467 10.7333 24.2C11.58 23.3533 12 22.3333 12 21.1333C12 19.9333 11.58 18.9133 10.7333 18.0667C9.88666 17.22 8.86666 16.8 7.66666 16.8C6.46666 16.8 5.44666 17.22 4.6 18.0667C3.75333 18.9133 3.33333 19.9333 3.33333 21.1333C3.33333 22.3333 3.75333 23.3533 4.6 24.2C5.44666 25.0467 6.46666 25.4667 7.66666 25.4667ZM26.1667 25.4667C26.8533 25.4667 27.4467 25.22 27.9333 24.7333C28.42 24.2467 28.6667 23.6533 28.6667 22.9667C28.6667 22.28 28.42 21.6867 27.9333 21.2C27.4467 20.7133 26.8533 20.4667 26.1667 20.4667C25.48 20.4667 24.8867 20.7133 24.4 21.2C23.9133 21.6867 23.6667 22.28 23.6667 22.9667C23.6667 23.6533 23.9133 24.2467 24.4 24.7333C24.8867 25.22 25.48 25.4667 26.1667 25.4667ZM7.66666 23.4667C7.02 23.4667 6.47333 23.24 6.01333 22.78C5.56 22.3267 5.33333 21.7733 5.33333 21.1333C5.33333 20.4933 5.56 19.94 6.01333 19.48C6.46666 19.0267 7.02 18.8 7.66666 18.8C8.31333 18.8 8.85999 19.0267 9.31999 19.48C9.77333 19.9333 10 20.4867 10 21.1333C10 21.78 9.77333 22.3267 9.31999 22.78C8.86666 23.2333 8.31333 23.4667 7.66666 23.4667ZM26.1667 27.4667C24.92 27.4667 23.86 27.0467 22.98 26.2C22.1 25.3533 21.6667 24.3133 21.6667 23.0667C21.6667 21.82 22.12 20.7467 23.0333 19.8333C23.9467 18.92 25.02 18.4667 26.2667 18.4667C27.5133 18.4667 28.5533 18.9067 29.4 19.7867C30.2467 20.6667 30.6667 21.7267 30.6667 22.9733C30.6667 24.22 30.2267 25.28 29.3533 26.16C28.4733 27.04 27.4133 27.4733 26.1667 27.4733V27.4667ZM7.59999 27.4667C5.84666 27.4667 4.35999 26.8533 3.14666 25.6133C1.93333 24.38 1.33333 22.8867 1.33333 21.1333C1.33333 19.38 1.94666 17.88 3.18666 16.6467C4.42 15.4133 5.91333 14.8 7.66666 14.8C9.42 14.8 10.92 15.42 12.1533 16.6467C13.3867 17.88 14 19.3733 14 21.1333C14 22.8933 13.38 24.3867 12.1533 25.6133C10.92 26.8467 9.39999 27.4667 7.59999 27.4667ZM14.9333 22.1333C14.9533 21.9533 14.9733 21.7867 14.9867 21.6333C15 21.48 15 21.3133 15 21.1333C15 20.2467 14.8533 19.3867 14.5667 18.5667C14.28 17.7467 13.8133 16.98 13.1667 16.2667H14.0333C14.9667 16.2667 15.7533 15.94 16.38 15.28C17.0133 14.6267 17.3333 13.8333 17.3333 12.9V9.43332L15.7 7.83333L13.6667 9.86666L13.0333 9.26666L17.7667 4.53333L18.3667 5.13332L16.3 7.19999L17.9333 8.83333H27C27.58 8.83333 28.0533 9.01999 28.4333 9.39999C28.8133 9.77999 29 10.2533 29 10.8333V18.2667C28.58 18.02 28.14 17.8267 27.6867 17.68C27.2333 17.5333 26.76 17.46 26.2733 17.46C24.9867 17.46 23.8267 17.8867 22.7933 18.74C21.76 19.5933 21.0733 20.7267 20.74 22.1267H14.94L14.9333 22.1333Z" fill="#222343"/>
</svg>
