<svg width="32" height="32" viewBox="0 0 32 32" fill="none" xmlns="http://www.w3.org/2000/svg">
<path d="M7.52662 11.8533L10.1666 12.9933L10.46 12.8667L14.8933 10.9333L10.5066 10.2533C10.2533 10.2133 9.99329 10.1933 9.73996 10.1933C8.99996 10.1933 8.26662 10.36 7.59329 10.6867C7.11329 10.92 7.07996 11.58 7.52662 11.8533Z" fill="#222343"/>
<path d="M30.4533 9.95999L30.2 9.66665C28.6733 7.87999 26.16 7.30665 24.0133 8.24665L15.6333 11.9133L15.58 11.94L10.94 13.9667L6.29996 16L3.93996 15.3L1.89329 14.6667C1.43329 14.6667 1.11329 15.1133 1.25996 15.54L2.59996 19.5733C3.17329 21.28 5.01329 22.2067 6.71996 21.6333L8.10662 21.1733C9.38662 20.7467 10.4733 20.3667 11.62 19.92C12.7 19.5 13.62 18.74 14.2333 17.7533L14.94 16.6067L13.56 26.7667C13.48 27.38 14.2 27.7667 14.66 27.3533L16.06 26.12C16.6533 25.6 17.1266 24.9467 17.44 24.22L21.0666 15.8533L21.04 15.9133L29.9733 12.0467C30.8 11.6867 31.04 10.64 30.4533 9.95332V9.95999Z" fill="#222343"/>
</svg>
