<svg width="32" height="32" viewBox="0 0 32 32" fill="none" xmlns="http://www.w3.org/2000/svg">
<path d="M15.3066 24.3466C16.6666 23.36 18.38 22.9666 20.04 22.88H21.0466C22.5666 22.92 23.8133 21.3866 23.4466 19.9C23.1866 18.7733 22.0933 17.96 20.9466 17.96H11.82C8.55998 17.82 5.37998 20.24 4.49998 23.28C4.51331 23.28 13.5933 26.4866 13.6066 26.4933C13.96 25.6333 14.5666 24.9 15.3066 24.3533V24.3466Z" fill="#222343"/>
<path d="M28.7933 15.1933C27.7333 14.48 26.3066 14.6733 25.48 15.6533L23.78 17.84C24.24 18.32 24.58 18.9066 24.7333 19.5733C25.0066 20.6666 24.7466 21.82 24.0266 22.74C23.3066 23.66 22.2133 24.2066 21.0933 24.2066H20.0733C18.42 24.3 17.0866 24.7066 16.1133 25.4066H20.7466C20.7466 25.4066 24.6266 25.4533 27.1533 21.98C28.6266 19.9533 28.94 19.4466 28.94 19.4466L29.4733 18.64C30.2333 17.5 29.9266 15.96 28.7866 15.1933H28.7933Z" fill="#222343"/>
<path d="M12.5866 27.5466C10.6 26.8466 4.10664 24.56 4.05331 24.54L3.47998 24.34L1.89331 29.44H13.4466L13.86 27.9933L13.16 27.7466L12.5866 27.5466Z" fill="#222343"/>
<path d="M16.5266 13.5866L12.48 9.52663C12.0933 9.13329 12.0933 8.49996 12.48 8.11329C12.8733 7.72663 13.5066 7.72663 13.8933 8.11329L17.2333 11.46L24.32 4.37996C24.7133 3.98663 25.3466 3.98663 25.7333 4.37996C26.1266 4.77329 26.1266 5.40663 25.7333 5.79329L17.94 13.58C17.5466 13.9733 16.9133 13.9733 16.5266 13.58V13.5866Z" fill="#222343"/>
</svg>
