<svg width="32" height="32" viewBox="0 0 32 32" fill="none" xmlns="http://www.w3.org/2000/svg">
<path d="M7.3199 27.0999C6.63901 27.0999 6.06546 26.8668 5.59924 26.4006C5.13301 25.9343 4.8999 25.3608 4.8999 24.6799C4.8999 23.999 5.13301 23.4266 5.59924 22.9626C6.06546 22.4986 6.63901 22.2666 7.3199 22.2666C8.00079 22.2666 8.57324 22.4986 9.03724 22.9626C9.50124 23.4266 9.73324 23.999 9.73324 24.6799C9.73324 25.3608 9.50124 25.9343 9.03724 26.4006C8.57324 26.8668 8.00079 27.0999 7.3199 27.0999ZM16.0072 27.0999C15.3299 27.0999 14.7581 26.8668 14.2919 26.4006C13.8257 25.9343 13.5926 25.3608 13.5926 24.6799C13.5926 23.999 13.8233 23.4266 14.2849 22.9626C14.7462 22.4986 15.3155 22.2666 15.9926 22.2666C16.6699 22.2666 17.2417 22.4986 17.7079 22.9626C18.1741 23.4266 18.4072 23.999 18.4072 24.6799C18.4072 25.3608 18.1765 25.9343 17.7149 26.4006C17.2536 26.8668 16.6843 27.0999 16.0072 27.0999ZM24.6799 27.0999C23.999 27.0999 23.4266 26.8668 22.9626 26.4006C22.4986 25.9343 22.2666 25.3608 22.2666 24.6799C22.2666 23.999 22.4986 23.4266 22.9626 22.9626C23.4266 22.4986 23.999 22.2666 24.6799 22.2666C25.3608 22.2666 25.9343 22.4986 26.4006 22.9626C26.8668 23.4266 27.0999 23.999 27.0999 24.6799C27.0999 25.3608 26.8668 25.9343 26.4006 26.4006C25.9343 26.8668 25.3608 27.0999 24.6799 27.0999ZM7.3199 18.4072C6.63901 18.4072 6.06546 18.1765 5.59924 17.7149C5.13301 17.2536 4.8999 16.6843 4.8999 16.0072C4.8999 15.3299 5.13301 14.7581 5.59924 14.2919C6.06546 13.8257 6.63901 13.5926 7.3199 13.5926C8.00079 13.5926 8.57324 13.8233 9.03724 14.2849C9.50124 14.7462 9.73324 15.3155 9.73324 15.9926C9.73324 16.6699 9.50124 17.2417 9.03724 17.7079C8.57324 18.1741 8.00079 18.4072 7.3199 18.4072ZM16.0072 18.4072C15.3299 18.4072 14.7581 18.1765 14.2919 17.7149C13.8257 17.2536 13.5926 16.6843 13.5926 16.0072C13.5926 15.3299 13.8233 14.7581 14.2849 14.2919C14.7462 13.8257 15.3155 13.5926 15.9926 13.5926C16.6699 13.5926 17.2417 13.8233 17.7079 14.2849C18.1741 14.7462 18.4072 15.3155 18.4072 15.9926C18.4072 16.6699 18.1765 17.2417 17.7149 17.7079C17.2536 18.1741 16.6843 18.4072 16.0072 18.4072ZM24.6799 18.4072C23.999 18.4072 23.4266 18.1765 22.9626 17.7149C22.4986 17.2536 22.2666 16.6843 22.2666 16.0072C22.2666 15.3299 22.4986 14.7581 22.9626 14.2919C23.4266 13.8257 23.999 13.5926 24.6799 13.5926C25.3608 13.5926 25.9343 13.8233 26.4006 14.2849C26.8668 14.7462 27.0999 15.3155 27.0999 15.9926C27.0999 16.6699 26.8668 17.2417 26.4006 17.7079C25.9343 18.1741 25.3608 18.4072 24.6799 18.4072ZM7.3199 9.73324C6.63901 9.73324 6.06546 9.50124 5.59924 9.03724C5.13301 8.57324 4.8999 8.00079 4.8999 7.3199C4.8999 6.63901 5.13301 6.06546 5.59924 5.59923C6.06546 5.13301 6.63901 4.8999 7.3199 4.8999C8.00079 4.8999 8.57324 5.13301 9.03724 5.59923C9.50124 6.06546 9.73324 6.63901 9.73324 7.3199C9.73324 8.00079 9.50124 8.57324 9.03724 9.03724C8.57324 9.50124 8.00079 9.73324 7.3199 9.73324ZM16.0072 9.73324C15.3299 9.73324 14.7581 9.50124 14.2919 9.03724C13.8257 8.57324 13.5926 8.00079 13.5926 7.3199C13.5926 6.63901 13.8233 6.06546 14.2849 5.59923C14.7462 5.13301 15.3155 4.8999 15.9926 4.8999C16.6699 4.8999 17.2417 5.13301 17.7079 5.59923C18.1741 6.06546 18.4072 6.63901 18.4072 7.3199C18.4072 8.00079 18.1765 8.57324 17.7149 9.03724C17.2536 9.50124 16.6843 9.73324 16.0072 9.73324ZM24.6799 9.73324C23.999 9.73324 23.4266 9.50124 22.9626 9.03724C22.4986 8.57324 22.2666 8.00079 22.2666 7.3199C22.2666 6.63901 22.4986 6.06546 22.9626 5.59923C23.4266 5.13301 23.999 4.8999 24.6799 4.8999C25.3608 4.8999 25.9343 5.13301 26.4006 5.59923C26.8668 6.06546 27.0999 6.63901 27.0999 7.3199C27.0999 8.00079 26.8668 8.57324 26.4006 9.03724C25.9343 9.50124 25.3608 9.73324 24.6799 9.73324Z" fill="currentColor"/>
</svg>
