<svg width="32" height="32" viewBox="0 0 32 32" fill="none" xmlns="http://www.w3.org/2000/svg">
<path d="M7.53325 26.6668C6.91325 26.6668 6.38659 26.4535 5.96659 26.0335C5.54659 25.6135 5.33325 25.0868 5.33325 24.4668C5.33325 23.8468 5.54659 23.3202 5.96659 22.9002C6.38659 22.4802 6.91325 22.2668 7.53325 22.2668C8.15325 22.2668 8.67992 22.4802 9.09992 22.9002C9.51992 23.3202 9.73325 23.8468 9.73325 24.4668C9.73325 25.0868 9.51992 25.6135 9.09992 26.0335C8.67992 26.4535 8.15325 26.6668 7.53325 26.6668ZM15.9999 26.6668C15.3799 26.6668 14.8533 26.4535 14.4333 26.0335C14.0133 25.6135 13.7999 25.0868 13.7999 24.4668C13.7999 23.8468 14.0133 23.3202 14.4333 22.9002C14.8533 22.4802 15.3799 22.2668 15.9999 22.2668C16.6199 22.2668 17.1466 22.4802 17.5666 22.9002C17.9866 23.3202 18.1999 23.8468 18.1999 24.4668C18.1999 25.0868 17.9866 25.6135 17.5666 26.0335C17.1466 26.4535 16.6199 26.6668 15.9999 26.6668ZM24.4666 26.6668C23.8466 26.6668 23.3199 26.4535 22.8999 26.0335C22.4799 25.6135 22.2666 25.0868 22.2666 24.4668C22.2666 23.8468 22.4799 23.3202 22.8999 22.9002C23.3199 22.4802 23.8466 22.2668 24.4666 22.2668C25.0866 22.2668 25.6133 22.4802 26.0333 22.9002C26.4533 23.3202 26.6666 23.8468 26.6666 24.4668C26.6666 25.0868 26.4533 25.6135 26.0333 26.0335C25.6133 26.4535 25.0866 26.6668 24.4666 26.6668ZM7.53325 18.2002C6.91325 18.2002 6.38659 17.9868 5.96659 17.5668C5.54659 17.1468 5.33325 16.6202 5.33325 16.0002C5.33325 15.3802 5.54659 14.8535 5.96659 14.4335C6.38659 14.0135 6.91325 13.8002 7.53325 13.8002C8.15325 13.8002 8.67992 14.0135 9.09992 14.4335C9.51992 14.8535 9.73325 15.3802 9.73325 16.0002C9.73325 16.6202 9.51992 17.1468 9.09992 17.5668C8.67992 17.9868 8.15325 18.2002 7.53325 18.2002ZM15.9999 18.2002C15.3799 18.2002 14.8533 17.9868 14.4333 17.5668C14.0133 17.1468 13.7999 16.6202 13.7999 16.0002C13.7999 15.3802 14.0133 14.8535 14.4333 14.4335C14.8533 14.0135 15.3799 13.8002 15.9999 13.8002C16.6199 13.8002 17.1466 14.0135 17.5666 14.4335C17.9866 14.8535 18.1999 15.3802 18.1999 16.0002C18.1999 16.6202 17.9866 17.1468 17.5666 17.5668C17.1466 17.9868 16.6199 18.2002 15.9999 18.2002ZM24.4666 18.2002C23.8466 18.2002 23.3199 17.9868 22.8999 17.5668C22.4799 17.1468 22.2666 16.6202 22.2666 16.0002C22.2666 15.3802 22.4799 14.8535 22.8999 14.4335C23.3199 14.0135 23.8466 13.8002 24.4666 13.8002C25.0866 13.8002 25.6133 14.0135 26.0333 14.4335C26.4533 14.8535 26.6666 15.3802 26.6666 16.0002C26.6666 16.6202 26.4533 17.1468 26.0333 17.5668C25.6133 17.9868 25.0866 18.2002 24.4666 18.2002ZM7.53325 9.7335C6.91325 9.7335 6.38659 9.52016 5.96659 9.10016C5.54659 8.68016 5.33325 8.1535 5.33325 7.5335C5.33325 6.9135 5.54659 6.38683 5.96659 5.96683C6.38659 5.54683 6.91325 5.3335 7.53325 5.3335C8.15325 5.3335 8.67992 5.54683 9.09992 5.96683C9.51992 6.38683 9.73325 6.9135 9.73325 7.5335C9.73325 8.1535 9.51992 8.68016 9.09992 9.10016C8.67992 9.52016 8.15325 9.7335 7.53325 9.7335ZM15.9999 9.7335C15.3799 9.7335 14.8533 9.52016 14.4333 9.10016C14.0133 8.68016 13.7999 8.1535 13.7999 7.5335C13.7999 6.9135 14.0133 6.38683 14.4333 5.96683C14.8533 5.54683 15.3799 5.3335 15.9999 5.3335C16.6199 5.3335 17.1466 5.54683 17.5666 5.96683C17.9866 6.38683 18.1999 6.9135 18.1999 7.5335C18.1999 8.1535 17.9866 8.68016 17.5666 9.10016C17.1466 9.52016 16.6199 9.7335 15.9999 9.7335ZM24.4666 9.7335C23.8466 9.7335 23.3199 9.52016 22.8999 9.10016C22.4799 8.68016 22.2666 8.1535 22.2666 7.5335C22.2666 6.9135 22.4799 6.38683 22.8999 5.96683C23.3199 5.54683 23.8466 5.3335 24.4666 5.3335C25.0866 5.3335 25.6133 5.54683 26.0333 5.96683C26.4533 6.38683 26.6666 6.9135 26.6666 7.5335C26.6666 8.1535 26.4533 8.68016 26.0333 9.10016C25.6133 9.52016 25.0866 9.7335 24.4666 9.7335Z" fill="currentColor"/>
</svg>
