<svg width="32" height="32" viewBox="0 0 32 32" fill="none" xmlns="http://www.w3.org/2000/svg">
<path d="M24.3333 26.1999L8.99998 10.8333V18.8666C8.99998 19.2444 8.8722 19.561 8.61665 19.8166C8.36109 20.0721 8.04442 20.1999 7.66665 20.1999C7.28887 20.1999 6.9722 20.0721 6.71665 19.8166C6.46109 19.561 6.33331 19.2444 6.33331 18.8666V7.66659C6.33331 7.28881 6.46109 6.97214 6.71665 6.71659C6.9722 6.46103 7.28887 6.33325 7.66665 6.33325H18.8666C19.2444 6.33325 19.5611 6.46103 19.8166 6.71659C20.0722 6.97214 20.2 7.28881 20.2 7.66659C20.2 8.04436 20.0722 8.36103 19.8166 8.61659C19.5611 8.87214 19.2444 8.99992 18.8666 8.99992H10.8333L26.2 24.3333C26.4666 24.5999 26.6 24.911 26.6 25.2666C26.6 25.6221 26.4666 25.9333 26.2 26.1999C25.9333 26.4666 25.6222 26.5999 25.2666 26.5999C24.9111 26.5999 24.6 26.4666 24.3333 26.1999Z" fill="#222343"/>
</svg>
