<svg width="32" height="32" viewBox="0 0 32 32" fill="none" xmlns="http://www.w3.org/2000/svg">
<path d="M15.0667 25.9C14.8223 25.6555 14.7 25.3499 14.7 24.9833C14.7 24.6166 14.8223 24.2999 15.0667 24.0333L21.8 17.3333H6.43336C6.05558 17.3333 5.74447 17.2055 5.50003 16.95C5.25558 16.6944 5.13336 16.3777 5.13336 16C5.13336 15.6222 5.25558 15.3055 5.50003 15.05C5.74447 14.7944 6.05558 14.6666 6.43336 14.6666H21.8L15.0667 7.93328C14.8223 7.68884 14.7 7.37773 14.7 6.99995C14.7 6.62217 14.8223 6.31106 15.0667 6.06662C15.3334 5.82217 15.65 5.69995 16.0167 5.69995C16.3834 5.69995 16.6889 5.82217 16.9334 6.06662L25.9667 15.0666C26.1 15.2 26.2 15.3444 26.2667 15.5C26.3334 15.6555 26.3667 15.8222 26.3667 16C26.3667 16.1555 26.3334 16.3166 26.2667 16.4833C26.2 16.65 26.1 16.7999 25.9667 16.9333L16.9334 25.9333C16.6889 26.2 16.3834 26.3222 16.0167 26.3C15.65 26.2777 15.3334 26.1444 15.0667 25.9Z" fill="#222343"/>
</svg>
