<svg width="32" height="32" viewBox="0 0 32 32" fill="none" xmlns="http://www.w3.org/2000/svg">
<path d="M6.46658 21.2332L9.79991 24.5666C9.99991 24.7666 10.0999 24.9999 10.0999 25.2732C10.0999 25.5466 10.0066 25.7799 9.81324 25.9732C9.60658 26.1666 9.36658 26.2666 9.09991 26.2666C8.83324 26.2666 8.59991 26.1666 8.40658 25.9666L3.37324 20.9332C3.25991 20.8199 3.18658 20.7066 3.13991 20.5932C3.09324 20.4799 3.07324 20.3599 3.07324 20.2266C3.07324 20.0932 3.09324 19.9732 3.13991 19.8666C3.18658 19.7599 3.25991 19.6466 3.37324 19.5332L8.40658 14.4999C8.60658 14.2999 8.83991 14.1999 9.10658 14.1999C9.37324 14.1999 9.61324 14.2999 9.81991 14.4999C10.0132 14.6999 10.1066 14.9332 10.1066 15.1999C10.1066 15.4666 10.0066 15.6999 9.80658 15.8999L6.47324 19.2332H16.0066C16.2932 19.2332 16.5266 19.3266 16.7199 19.5199C16.9132 19.7132 17.0066 19.9532 17.0066 20.2399C17.0066 20.5266 16.9132 20.7599 16.7199 20.9532C16.5266 21.1399 16.2932 21.2399 16.0066 21.2399H6.47324L6.46658 21.2332ZM25.5332 12.7666H15.9999C15.7132 12.7666 15.4799 12.6732 15.2866 12.4799C15.0932 12.2866 14.9999 12.0466 14.9999 11.7599C14.9999 11.4732 15.0932 11.2399 15.2866 11.0466C15.4799 10.8599 15.7132 10.7599 15.9999 10.7599H25.5332L22.1999 7.42656C21.9999 7.22656 21.8999 6.99323 21.8999 6.7199C21.8999 6.44656 21.9932 6.21323 22.1866 6.0199C22.3932 5.82656 22.6332 5.72656 22.8999 5.72656C23.1666 5.72656 23.3999 5.82656 23.5999 6.02656L28.6332 11.0599C28.7466 11.1732 28.8199 11.2866 28.8666 11.3999C28.9132 11.5132 28.9332 11.6332 28.9332 11.7666C28.9332 11.8999 28.9132 12.0199 28.8666 12.1266C28.8199 12.2332 28.7466 12.3466 28.6332 12.4599L23.5999 17.4932C23.3999 17.6932 23.1666 17.7932 22.8999 17.7932C22.6332 17.7932 22.3932 17.6932 22.1866 17.4932C21.9932 17.2932 21.8999 17.0599 21.8999 16.7932C21.8999 16.5266 21.9999 16.2932 22.1999 16.0932L25.5332 12.7599V12.7666Z" fill="currentColor"/>
</svg>
