<svg width="32" height="32" viewBox="0 0 32 32" fill="none" xmlns="http://www.w3.org/2000/svg">
<path d="M16 29.6666C15.6222 29.6666 15.3056 29.5388 15.05 29.2833C14.7945 29.0277 14.6667 28.711 14.6667 28.3333V7.23327L8.96668 12.9333C8.70001 13.2222 8.3889 13.361 8.03335 13.3499C7.67779 13.3388 7.37779 13.1999 7.13335 12.9333C6.84446 12.6888 6.70001 12.3888 6.70001 12.0333C6.70001 11.6777 6.84446 11.3666 7.13335 11.0999L15.0667 3.13327C15.2 2.99993 15.3445 2.90549 15.5 2.84993C15.6556 2.79438 15.8222 2.7666 16 2.7666C16.1778 2.7666 16.3445 2.79438 16.5 2.84993C16.6556 2.90549 16.8 2.99993 16.9333 3.13327L24.9 11.0999C25.1667 11.3666 25.3 11.6777 25.3 12.0333C25.3 12.3888 25.1667 12.6888 24.9 12.9333C24.6333 13.1777 24.3222 13.3055 23.9667 13.3166C23.6111 13.3277 23.3 13.1999 23.0333 12.9333L17.3333 7.23327V28.3333C17.3333 28.711 17.2056 29.0277 16.95 29.2833C16.6945 29.5388 16.3778 29.6666 16 29.6666Z" fill="#222343"/>
</svg>
