<svg width="32" height="32" viewBox="0 0 32 32" fill="none" xmlns="http://www.w3.org/2000/svg">
<path d="M16 29.1333C15.8222 29.1333 15.6556 29.1055 15.5 29.05C15.3445 28.9944 15.2 28.8888 15.0667 28.7333L7.13335 20.7666C6.84446 20.5 6.70001 20.1888 6.70001 19.8333C6.70001 19.4777 6.84446 19.1666 7.13335 18.9C7.37779 18.6333 7.67779 18.5 8.03335 18.5C8.3889 18.5 8.70001 18.6333 8.96668 18.9L14.6667 24.6333V3.49995C14.6667 3.1444 14.7945 2.83884 15.05 2.58328C15.3056 2.32773 15.6222 2.19995 16 2.19995C16.3778 2.19995 16.6945 2.32773 16.95 2.58328C17.2056 2.83884 17.3333 3.15551 17.3333 3.53328V24.6333L23.0333 18.9C23.2778 18.6555 23.5833 18.5277 23.95 18.5166C24.3167 18.5055 24.6333 18.6333 24.9 18.9C25.1667 19.1666 25.3 19.4777 25.3 19.8333C25.3 20.1888 25.1667 20.5 24.9 20.7666L16.9333 28.7333C16.8 28.8888 16.6556 28.9944 16.5 29.05C16.3445 29.1055 16.1778 29.1333 16 29.1333Z" fill="#222343"/>
</svg>
