<svg width="32" height="32" viewBox="0 0 32 32" fill="none" xmlns="http://www.w3.org/2000/svg">
<path d="M16.7 20.1667L20.1666 16.7C20.5533 16.3133 20.5533 15.6867 20.1666 15.3L16.7 11.8333C16.3133 11.4467 15.6866 11.4467 15.3 11.8333C14.9133 12.22 14.9133 12.8467 15.3 13.2333L17.0666 15H11.9866C11.44 15 11 15.44 11 15.9867V16.0067C11 16.5533 11.44 16.9933 11.9866 16.9933H17.0666L15.3 18.76C14.9133 19.1467 14.9133 19.7733 15.3 20.16C15.6866 20.5467 16.3133 20.5467 16.7 20.16V20.1667ZM16 29.3333C14.18 29.3333 12.4533 28.9867 10.8333 28.28C9.21329 27.58 7.79329 26.6267 6.57996 25.4133C5.36663 24.2 4.41329 22.7867 3.71329 21.16C3.01329 19.54 2.66663 17.8133 2.66663 15.9933C2.66663 14.1733 3.01996 12.4133 3.71329 10.7933C4.41329 9.17332 5.36663 7.75999 6.57996 6.55999C7.79329 5.35999 9.20663 4.41332 10.8333 3.70665C12.4533 3.00665 14.18 2.65332 16 2.65332C17.82 2.65332 19.58 3.00665 21.2 3.69999C22.82 4.39999 24.2333 5.35332 25.4333 6.55332C26.6333 7.75332 27.5866 9.16665 28.2866 10.7867C28.9866 12.4067 29.34 14.14 29.34 15.9867C29.34 17.8333 28.9933 19.5333 28.2866 21.1533C27.5866 22.7733 26.6333 24.1933 25.4333 25.4067C24.2333 26.62 22.82 27.5733 21.2 28.2733C19.58 28.9733 17.8466 29.3267 16 29.3267V29.3333Z" fill="#222343"/>
</svg>
