<svg width="32" height="32" viewBox="0 0 32 32" fill="none" xmlns="http://www.w3.org/2000/svg">
<path d="M11.7599 17.0002C11.4732 17.0002 11.2399 16.9069 11.0466 16.7136C10.8599 16.5202 10.7599 16.2869 10.7599 16.0002V6.46689L7.42656 9.80023C7.22656 10.0002 6.99323 10.1002 6.7199 10.1002C6.44656 10.1002 6.21323 10.0069 6.0199 9.81356C5.82656 9.6069 5.72656 9.36689 5.72656 9.10023C5.72656 8.83356 5.82656 8.60023 6.02656 8.40023L11.0599 3.36689C11.1732 3.25356 11.2866 3.18023 11.3999 3.13356C11.5132 3.08689 11.6332 3.06689 11.7666 3.06689C11.8999 3.06689 12.0199 3.08689 12.1266 3.13356C12.2332 3.18023 12.3466 3.25356 12.4599 3.36689L17.4932 8.40023C17.6932 8.60023 17.7932 8.83356 17.7932 9.10023C17.7932 9.36689 17.6932 9.6069 17.4932 9.81356C17.2932 10.0069 17.0599 10.1002 16.7932 10.1002C16.5266 10.1002 16.2932 10.0002 16.0932 9.80023L12.7599 6.46689V16.0002C12.7599 16.2869 12.6666 16.5202 12.4732 16.7136C12.2799 16.9069 12.0399 17.0002 11.7532 17.0002H11.7599ZM20.2266 28.9336C20.0932 28.9336 19.9732 28.9136 19.8666 28.8669C19.7599 28.8202 19.6466 28.7469 19.5332 28.6336L14.4999 23.6002C14.2999 23.4002 14.1999 23.1669 14.1999 22.9002C14.1999 22.6336 14.2999 22.3936 14.4999 22.1869C14.6999 21.9936 14.9332 21.9002 15.1999 21.9002C15.4666 21.9002 15.6999 22.0002 15.8999 22.2002L19.2332 25.5336V16.0002C19.2332 15.7136 19.3266 15.4802 19.5199 15.2869C19.7132 15.0936 19.9532 15.0002 20.2399 15.0002C20.5266 15.0002 20.7599 15.0936 20.9532 15.2869C21.1399 15.4802 21.2399 15.7136 21.2399 16.0002V25.5336L24.5732 22.2002C24.7732 22.0002 25.0066 21.9002 25.2799 21.9002C25.5532 21.9002 25.7866 21.9936 25.9799 22.1869C26.1732 22.3936 26.2732 22.6336 26.2732 22.9002C26.2732 23.1669 26.1732 23.4002 25.9732 23.5936L20.9399 28.6269C20.8266 28.7402 20.7132 28.8136 20.5999 28.8602C20.4866 28.9069 20.3666 28.9269 20.2332 28.9269L20.2266 28.9336Z" fill="currentColor"/>
</svg>
