<svg width="32" height="32" viewBox="0 0 32 32" fill="none" xmlns="http://www.w3.org/2000/svg">
<path d="M6.03334 25.9667C5.83334 25.7667 5.73334 25.5333 5.73334 25.2667C5.73334 25 5.83334 24.7667 6.03334 24.5667L21.9333 8.66666H13.1333C12.8467 8.66666 12.6067 8.57332 12.4133 8.37999C12.2267 8.19332 12.1333 7.95332 12.1333 7.66666C12.1333 7.37999 12.2267 7.13999 12.4133 6.95332C12.6 6.76666 12.84 6.66666 13.1333 6.66666H24.3333C24.62 6.66666 24.86 6.75999 25.0533 6.95332C25.24 7.13999 25.3333 7.37999 25.3333 7.66666V18.8667C25.3333 19.1533 25.24 19.3933 25.0533 19.5867C24.8667 19.7733 24.6267 19.8667 24.3333 19.8667C24.0467 19.8667 23.8067 19.7733 23.6133 19.5867C23.42 19.4 23.3333 19.16 23.3333 18.8667V10.0667L7.43334 25.9667C7.23334 26.1667 7 26.2667 6.73334 26.2667C6.46667 26.2667 6.23334 26.1667 6.03334 25.9667Z" fill="#222343"/>
</svg>
