<svg width="32" height="32" viewBox="0 0 32 32" fill="none" xmlns="http://www.w3.org/2000/svg">
<path d="M16 29.3333C15.7133 29.3333 15.4733 29.24 15.28 29.0533C15.0933 28.8667 15 28.6267 15 28.3333V6.46666L8.76665 12.7C8.56665 12.9 8.33332 13 8.06665 13C7.79998 13 7.56665 12.9 7.36665 12.7C7.16665 12.5 7.06665 12.2667 7.06665 12C7.06665 11.7333 7.16665 11.5 7.36665 11.3L15.3 3.36666C15.4133 3.25333 15.52 3.17999 15.6333 3.15333C15.7466 3.11999 15.8666 3.10666 16 3.10666C16.1333 3.10666 16.2533 3.12666 16.3666 3.15333C16.48 3.18666 16.5866 3.25999 16.7 3.36666L24.6333 11.3C24.8333 11.5 24.9333 11.7333 24.9333 12C24.9333 12.2667 24.8333 12.5 24.6333 12.7C24.4333 12.88 24.2 12.9733 23.9333 12.98C23.6667 12.9933 23.4333 12.9 23.2333 12.7L17 6.46666V28.3333C17 28.62 16.9066 28.86 16.72 29.0533C16.5333 29.24 16.2933 29.3333 16 29.3333Z" fill="#222343"/>
</svg>
