<svg width="32" height="32" viewBox="0 0 32 32" fill="none" xmlns="http://www.w3.org/2000/svg">
<path d="M24.5 25.9L23.0667 27.3C22.8667 27.48 22.6333 27.5733 22.3667 27.5867C22.1 27.6 21.8667 27.5 21.6667 27.3C21.4667 27.1 21.3733 26.8667 21.38 26.6C21.3867 26.3333 21.4867 26.1 21.6667 25.9L23.0667 24.4667L21.6667 23.0667C21.4667 22.8666 21.3667 22.6333 21.3667 22.3666C21.3667 22.1 21.4667 21.8667 21.6667 21.6667C21.8667 21.4667 22.1 21.3666 22.3667 21.3666C22.6333 21.3666 22.8667 21.4667 23.0667 21.6667L24.5 23.0667L25.9 21.6667C26.1 21.4667 26.3333 21.36 26.6 21.3467C26.8667 21.3333 27.1 21.4333 27.3 21.6333C27.5 21.8333 27.6 22.0733 27.6 22.3533C27.6 22.6333 27.5 22.8733 27.3 23.0733L25.9 24.4733L27.3 25.9067C27.5 26.1067 27.6 26.34 27.6 26.6067C27.6 26.8733 27.5 27.1067 27.3 27.3067C27.1 27.5067 26.8667 27.6067 26.6 27.6067C26.3333 27.6067 26.1 27.5067 25.9 27.3067L24.5 25.9067V25.9ZM7.66667 26C8.13333 26 8.52667 25.84 8.85333 25.5133C9.17333 25.1933 9.34 24.7933 9.34 24.3267C9.34 23.86 9.18 23.4667 8.85333 23.14C8.53333 22.82 8.13333 22.6533 7.66667 22.6533C7.2 22.6533 6.80667 22.8133 6.48 23.14C6.16 23.46 5.99333 23.86 5.99333 24.3267C5.99333 24.7933 6.15333 25.1867 6.48 25.5133C6.80667 25.84 7.2 26 7.66667 26ZM7.66667 28C6.64667 28 5.78 27.6467 5.06667 26.9333C4.35333 26.22 4 25.3533 4 24.3333C4 23.3133 4.35333 22.4466 5.06667 21.7333C5.78 21.02 6.64667 20.6667 7.66667 20.6667C8.51333 20.6667 9.25333 20.92 9.9 21.42C10.5467 21.92 10.98 22.5733 11.2 23.3733C12.2667 23.3267 13.1667 22.92 13.9 22.14C14.6333 21.36 15 20.44 15 19.3733V13.34C15 11.5867 15.62 10.0867 16.8533 8.85332C18.0867 7.61998 19.58 6.99998 21.34 6.99998H24.14L22.4067 5.26665C22.2067 5.06665 22.1133 4.83332 22.12 4.56665C22.1267 4.29998 22.24 4.06665 22.44 3.86665C22.64 3.66665 22.8733 3.56665 23.14 3.56665C23.4067 3.56665 23.64 3.66665 23.84 3.86665L27.3067 7.29998C27.5067 7.49998 27.6067 7.73332 27.6067 7.99998C27.6067 8.26665 27.5067 8.49998 27.3067 8.69998L23.84 12.1667C23.64 12.3667 23.4067 12.4667 23.14 12.4667C22.8733 12.4667 22.64 12.3667 22.44 12.1667C22.24 11.9667 22.1333 11.7267 22.12 11.4467C22.1067 11.1667 22.2067 10.9267 22.4067 10.7267L24.14 8.99332H21.34C20.14 8.99332 19.12 9.41332 18.2733 10.26C17.4267 11.1067 17.0067 12.1266 17.0067 13.3267V19.36C17.0067 20.98 16.4467 22.38 15.32 23.5466C14.1933 24.7133 12.8267 25.32 11.2 25.3667C10.9533 26.1467 10.5133 26.78 9.86667 27.2667C9.22 27.7533 8.48667 28 7.66667 28ZM7.53333 8.96665L6.1 10.3667C5.9 10.5467 5.66667 10.64 5.4 10.6533C5.13333 10.6666 4.9 10.5667 4.7 10.3667C4.5 10.1667 4.40667 9.93332 4.41333 9.66665C4.42 9.39998 4.52 9.16665 4.7 8.96665L6.1 7.53332L4.7 6.13332C4.5 5.93332 4.4 5.69998 4.4 5.43332C4.4 5.16665 4.5 4.93332 4.7 4.73332C4.9 4.53332 5.13333 4.43332 5.4 4.43332C5.66667 4.43332 5.9 4.53332 6.1 4.73332L7.53333 6.13332L8.93333 4.73332C9.13333 4.53332 9.36667 4.42665 9.63333 4.41332C9.9 4.39998 10.1333 4.49998 10.3333 4.69998C10.5333 4.89998 10.6333 5.13998 10.6333 5.41998C10.6333 5.69998 10.5333 5.93998 10.3333 6.13998L8.93333 7.53998L10.3333 8.97332C10.5333 9.17332 10.6333 9.40665 10.6333 9.67332C10.6333 9.93998 10.5333 10.1733 10.3333 10.3733C10.1333 10.5733 9.9 10.6733 9.63333 10.6733C9.36667 10.6733 9.13333 10.5733 8.93333 10.3733L7.53333 8.97332V8.96665Z" fill="currentColor"/>
</svg>
