<svg width="32" height="32" viewBox="0 0 32 32" fill="none" xmlns="http://www.w3.org/2000/svg">
<path d="M7.23941 21.5915L10.0074 24.3595C10.2701 24.6348 10.4014 24.9485 10.4014 25.3005C10.4014 25.6523 10.2744 25.9578 10.0204 26.2172C9.76152 26.4889 9.45052 26.6248 9.08741 26.6248C8.7243 26.6248 8.41352 26.4934 8.15507 26.2305L3.12174 21.1972C2.98552 21.0609 2.88263 20.9138 2.81307 20.7558C2.74352 20.5978 2.70874 20.4285 2.70874 20.2478C2.70874 20.0798 2.74352 19.9183 2.81307 19.7632C2.88263 19.608 2.98552 19.4624 3.12174 19.3262L8.15507 14.2928C8.41796 14.0426 8.72985 13.9144 9.09074 13.9082C9.45163 13.9019 9.76152 14.0302 10.0204 14.2928C10.2744 14.5557 10.4014 14.8676 10.4014 15.2285C10.4014 15.5894 10.2701 15.8949 10.0074 16.1452L7.23941 18.9322H15.6987C16.0699 18.9322 16.3859 19.0599 16.6467 19.3155C16.9074 19.571 17.0377 19.8853 17.0377 20.2582C17.0377 20.6437 16.9074 20.9623 16.6467 21.2138C16.3859 21.4656 16.0699 21.5915 15.6987 21.5915H7.23941ZM24.7797 13.0682H16.3014C15.9303 13.0682 15.6175 12.9404 15.3631 12.6848C15.1084 12.4293 14.9811 12.1087 14.9811 11.7232C14.9811 11.3503 15.1084 11.038 15.3631 10.7865C15.6175 10.5347 15.9303 10.4088 16.3014 10.4088H24.7797L21.9927 7.62182C21.7301 7.35916 21.5987 7.05182 21.5987 6.69982C21.5987 6.34804 21.7257 6.03627 21.9797 5.76449C22.2386 5.50515 22.5496 5.37549 22.9127 5.37549C23.2759 5.37549 23.5866 5.50693 23.8451 5.76982L28.8784 10.8032C29.0146 10.9394 29.1175 11.0865 29.1871 11.2445C29.2566 11.4025 29.2914 11.5655 29.2914 11.7335C29.2914 11.9142 29.2566 12.082 29.1871 12.2372C29.1175 12.3923 29.0146 12.5379 28.8784 12.6742L23.8451 17.6885C23.5822 17.9514 23.2703 18.0859 22.9094 18.0922C22.5485 18.0984 22.2386 17.9638 21.9797 17.6885C21.7257 17.4383 21.5987 17.1327 21.5987 16.7718C21.5987 16.4109 21.7301 16.0992 21.9927 15.8365L24.7797 13.0682Z" fill="currentColor"/>
</svg>
