<svg width="32" height="32" viewBox="0 0 32 32" fill="none" xmlns="http://www.w3.org/2000/svg">
<path d="M11.7419 17.0188C11.3564 17.0188 11.0378 16.8915 10.7862 16.6368C10.5345 16.3824 10.4086 16.0696 10.4086 15.6985V7.22016L7.64058 10.0072C7.36524 10.2698 7.05158 10.4012 6.69958 10.4012C6.3478 10.4012 6.04224 10.2742 5.78291 10.0202C5.51113 9.76127 5.37524 9.45027 5.37524 9.08716C5.37524 8.72405 5.50669 8.41327 5.76958 8.15483L10.8029 3.1215C10.9391 2.98527 11.0862 2.88239 11.2442 2.81283C11.4022 2.74327 11.5716 2.7085 11.7522 2.7085C11.9202 2.7085 12.0818 2.74327 12.2369 2.81283C12.392 2.88239 12.5377 2.98527 12.6739 3.1215L17.7072 8.15483C17.9575 8.41772 18.0857 8.72961 18.0919 9.0905C18.0981 9.45138 17.9699 9.76127 17.7072 10.0202C17.4444 10.2742 17.1325 10.4012 16.7716 10.4012C16.4107 10.4012 16.1051 10.2698 15.8549 10.0072L13.0679 7.22016V15.6985C13.0679 16.0696 12.9401 16.3824 12.6846 16.6368C12.429 16.8915 12.1148 17.0188 11.7419 17.0188ZM20.2666 29.2912C20.0859 29.2912 19.918 29.2564 19.7629 29.1868C19.6078 29.1173 19.4621 29.0144 19.3259 28.8782L14.3116 23.8448C14.0487 23.5819 13.9141 23.2701 13.9079 22.9092C13.9017 22.5483 14.0362 22.2384 14.3116 21.9795C14.5618 21.7255 14.8674 21.5985 15.2282 21.5985C15.5891 21.5985 15.9009 21.7298 16.1636 21.9925L18.9319 24.7605V16.3012C18.9319 15.9301 19.0597 15.6141 19.3152 15.3532C19.5708 15.0925 19.8914 14.9622 20.2769 14.9622C20.6498 14.9622 20.962 15.0925 21.2136 15.3532C21.4654 15.6141 21.5912 15.9301 21.5912 16.3012V24.7605L24.3782 21.9925C24.6409 21.7298 24.9482 21.5985 25.3002 21.5985C25.652 21.5985 25.9638 21.7255 26.2356 21.9795C26.4949 22.2384 26.6246 22.5494 26.6246 22.9125C26.6246 23.2756 26.4931 23.5864 26.2302 23.8448L21.1969 28.8782C21.0607 29.0144 20.9136 29.1173 20.7556 29.1868C20.5976 29.2564 20.4346 29.2912 20.2666 29.2912Z" fill="currentColor"/>
</svg>
