<svg width="32" height="32" viewBox="0 0 32 32" fill="none" xmlns="http://www.w3.org/2000/svg">
<path d="M7.33333 8.73333V11.8333C7.33333 12.12 7.23999 12.3533 7.04666 12.5467C6.85333 12.74 6.61333 12.8333 6.32666 12.8333C6.03999 12.8333 5.80666 12.74 5.61333 12.5467C5.42666 12.3533 5.32666 12.12 5.32666 11.8333V6.33333C5.32666 6.04666 5.41999 5.81333 5.61333 5.61999C5.80666 5.42666 6.03999 5.33333 6.32666 5.33333H11.8267C12.1133 5.33333 12.3467 5.42666 12.54 5.61999C12.7333 5.81333 12.8267 6.05333 12.8267 6.33999C12.8267 6.62666 12.7333 6.85999 12.54 7.05333C12.3467 7.23999 12.1133 7.33999 11.8267 7.33999H8.75999L16.46 15.04C16.64 15.22 16.78 15.4333 16.8933 15.68C17.0067 15.9333 17.06 16.1933 17.06 16.4733V25.6733C17.06 25.96 16.9667 26.1933 16.7733 26.3867C16.58 26.58 16.34 26.6733 16.0533 26.6733C15.7667 26.6733 15.5333 26.58 15.34 26.3867C15.1533 26.1933 15.0533 25.96 15.0533 25.6733V16.4733L7.31999 8.73999L7.33333 8.73333ZM24.6667 8.73333L19.5333 13.8333C19.34 14.0333 19.1067 14.1333 18.8333 14.1333C18.56 14.1333 18.3333 14.0333 18.1333 13.8333C17.9333 13.6333 17.8333 13.4 17.8333 13.1267C17.8333 12.8533 17.9333 12.6267 18.1333 12.4333L23.2333 7.33333H20.1667C19.88 7.33333 19.6467 7.23999 19.4533 7.04666C19.26 6.85333 19.1667 6.61333 19.1667 6.32666C19.1667 6.03999 19.26 5.80666 19.4533 5.61333C19.6467 5.42666 19.88 5.32666 20.1667 5.32666H25.6667C25.9533 5.32666 26.1867 5.41999 26.38 5.61333C26.5733 5.80666 26.6667 6.03999 26.6667 6.32666V11.8267C26.6667 12.1133 26.5733 12.3467 26.38 12.54C26.1867 12.7333 25.9467 12.8267 25.66 12.8267C25.3733 12.8267 25.14 12.7333 24.9467 12.54C24.76 12.3467 24.66 12.1133 24.66 11.8267V8.72666L24.6667 8.73333Z" fill="currentColor"/>
</svg>
