<svg width="32" height="32" viewBox="0 0 32 32" fill="none" xmlns="http://www.w3.org/2000/svg">
<path d="M24.3333 26.2L8.99998 10.8333V18.8667C8.99998 19.2445 8.8722 19.5611 8.61665 19.8167C8.36109 20.0722 8.04442 20.2 7.66665 20.2C7.28887 20.2 6.9722 20.0722 6.71665 19.8167C6.46109 19.5611 6.33331 19.2445 6.33331 18.8667V7.66668C6.33331 7.2889 6.46109 6.97223 6.71665 6.71668C6.9722 6.46112 7.28887 6.33334 7.66665 6.33334H18.8666C19.2444 6.33334 19.5611 6.46112 19.8166 6.71668C20.0722 6.97223 20.2 7.2889 20.2 7.66668C20.2 8.04445 20.0722 8.36112 19.8166 8.61668C19.5611 8.87223 19.2444 9.00001 18.8666 9.00001H10.8333L26.2 24.3333C26.4666 24.6 26.6 24.9111 26.6 25.2667C26.6 25.6222 26.4666 25.9333 26.2 26.2C25.9333 26.4667 25.6222 26.6 25.2666 26.6C24.9111 26.6 24.6 26.4667 24.3333 26.2Z" fill="#222343"/>
</svg>
