<svg width="32" height="32" viewBox="0 0 32 32" fill="none" xmlns="http://www.w3.org/2000/svg">
<path d="M24.5667 25.9667L8.66669 10.0667V18.8667C8.66669 19.1533 8.57335 19.3933 8.38002 19.5867C8.19335 19.7733 7.95335 19.8667 7.66669 19.8667C7.38002 19.8667 7.14002 19.7733 6.95335 19.5867C6.76669 19.4 6.66669 19.16 6.66669 18.8667V7.66666C6.66669 7.37999 6.76002 7.13999 6.95335 6.95332C7.14002 6.76666 7.38002 6.66666 7.66669 6.66666H18.8667C19.1534 6.66666 19.3934 6.75999 19.5867 6.95332C19.7734 7.13999 19.8667 7.37999 19.8667 7.66666C19.8667 7.95332 19.7734 8.19332 19.5867 8.37999C19.4 8.56666 19.16 8.66666 18.8667 8.66666H10.0667L25.9667 24.5667C26.1667 24.7667 26.2667 25 26.2667 25.2667C26.2667 25.5333 26.1667 25.7667 25.9667 25.9667C25.7667 26.1667 25.5334 26.2667 25.2667 26.2667C25 26.2667 24.7667 26.1667 24.5667 25.9667Z" fill="#222343"/>
</svg>
