<svg width="32" height="32" viewBox="0 0 32 32" fill="none" xmlns="http://www.w3.org/2000/svg">
<path d="M15.5 25.94C15.32 25.76 15.2333 25.5267 15.2333 25.24C15.2333 24.9533 15.32 24.72 15.5 24.54L23.0333 17.0067H6.53333C6.24666 17.0067 6.00666 16.9133 5.81999 16.7267C5.63332 16.54 5.53333 16.3 5.53333 16.0067C5.53333 15.7133 5.62666 15.48 5.81999 15.2867C6.00666 15.1 6.24666 15.0067 6.53333 15.0067H23.0333L15.5 7.47333C15.32 7.29333 15.2333 7.06 15.2333 6.76C15.2333 6.46 15.32 6.22 15.5 6.04667C15.68 5.87333 15.9133 5.78 16.2 5.78C16.4867 5.78 16.72 5.86667 16.9 6.04667L26.1667 15.3133C26.28 15.4267 26.3533 15.5333 26.4 15.6467C26.4467 15.76 26.4667 15.88 26.4667 16.0133C26.4667 16.1267 26.4467 16.24 26.4 16.36C26.3533 16.48 26.28 16.6 26.1667 16.7067L16.9 25.9733C16.72 26.1533 16.4867 26.2333 16.2 26.2267C15.9133 26.2133 15.68 26.12 15.5 25.9467V25.94Z" fill="#222343"/>
</svg>
