<svg width="32" height="32" viewBox="0 0 32 32" fill="none" xmlns="http://www.w3.org/2000/svg">
<path d="M14.5334 25.9334L5.53336 16.9334C5.37781 16.8001 5.27225 16.6556 5.2167 16.5001C5.16114 16.3445 5.13336 16.1779 5.13336 16.0001C5.13336 15.8223 5.16114 15.6556 5.2167 15.5001C5.27225 15.3445 5.37781 15.2001 5.53336 15.0667L14.5667 6.03341C14.8334 5.76675 15.1445 5.63897 15.5 5.65008C15.8556 5.66119 16.1556 5.80008 16.4 6.06675C16.6667 6.33341 16.8 6.64452 16.8 7.00008C16.8 7.35564 16.6667 7.66675 16.4 7.93341L9.6667 14.6667H25.0334C25.4111 14.6667 25.7278 14.7945 25.9834 15.0501C26.2389 15.3056 26.3667 15.6223 26.3667 16.0001C26.3667 16.3779 26.2389 16.6945 25.9834 16.9501C25.7278 17.2056 25.4111 17.3334 25.0334 17.3334H9.6667L16.4334 24.1001C16.7 24.3667 16.8278 24.6723 16.8167 25.0167C16.8056 25.3612 16.6667 25.6667 16.4 25.9334C16.1334 26.2001 15.8223 26.3334 15.4667 26.3334C15.1111 26.3334 14.8 26.2001 14.5334 25.9334Z" fill="#222343"/>
</svg>
