<svg width="32" height="32" viewBox="0 0 32 32" fill="none" xmlns="http://www.w3.org/2000/svg">
<path d="M16 28.9333C15.8666 28.9333 15.7466 28.9133 15.6333 28.8667C15.52 28.82 15.4133 28.7467 15.3 28.6333L7.36665 20.7C7.16665 20.5 7.06665 20.2667 7.06665 20C7.06665 19.7333 7.16665 19.5 7.36665 19.3C7.56665 19.1 7.79998 19 8.06665 19C8.33332 19 8.56665 19.1 8.76665 19.3L15 25.5333V3.66666C15 3.37999 15.0933 3.13999 15.28 2.95332C15.4667 2.76666 15.7066 2.66666 15.9933 2.66666C16.28 2.66666 16.52 2.75999 16.7133 2.95332C16.9 3.13999 16.9933 3.37999 16.9933 3.66666V25.5333L23.2266 19.3C23.4066 19.12 23.6333 19.0267 23.9133 19.02C24.1933 19.0133 24.4266 19.1 24.6333 19.3C24.8333 19.5 24.9333 19.7333 24.9333 20C24.9333 20.2667 24.8333 20.5 24.6333 20.7L16.7 28.6333C16.5866 28.7467 16.48 28.82 16.3666 28.8667C16.2533 28.9133 16.1333 28.9333 16 28.9333Z" fill="#222343"/>
</svg>
