<svg width="32" height="32" viewBox="0 0 32 32" fill="none" xmlns="http://www.w3.org/2000/svg">
<path d="M14.9 25.9667L5.63331 16.7C5.51998 16.5867 5.44665 16.48 5.39998 16.3667C5.35331 16.2533 5.33331 16.1333 5.33331 16C5.33331 15.8667 5.35331 15.7467 5.39998 15.6333C5.44665 15.52 5.51998 15.4133 5.63331 15.3L14.9333 6C15.1133 5.82 15.3333 5.73334 15.6 5.73334C15.8666 5.73334 16.1 5.83334 16.3 6.03334C16.5 6.23334 16.6 6.46667 16.6 6.73334C16.6 7 16.5 7.23334 16.3 7.43334L8.73331 15H25.2666C25.5533 15 25.7933 15.0933 25.9866 15.28C26.1733 15.4667 26.2666 15.7067 26.2666 16C26.2666 16.2933 26.1733 16.5267 25.9866 16.72C25.8 16.9067 25.56 17 25.2666 17H8.73331L16.3333 24.6C16.5133 24.78 16.6 25 16.6 25.2667C16.6 25.5333 16.5 25.7667 16.3 25.9667C16.1 26.1667 15.8666 26.2667 15.6 26.2667C15.3333 26.2667 15.1 26.1667 14.9 25.9667Z" fill="#222343"/>
</svg>
