<svg width="32" height="32" viewBox="0 0 32 32" fill="none" xmlns="http://www.w3.org/2000/svg">
<path d="M5.80002 26.1999C5.53336 25.9333 5.40002 25.6221 5.40002 25.2666C5.40002 24.911 5.53336 24.5999 5.80002 24.3333L21.1667 8.99992H13.1334C12.7556 8.99992 12.4389 8.87214 12.1834 8.61659C11.9278 8.36103 11.8 8.04436 11.8 7.66659C11.8 7.28881 11.9278 6.97214 12.1834 6.71659C12.4389 6.46103 12.7556 6.33325 13.1334 6.33325H24.3334C24.7111 6.33325 25.0278 6.46103 25.2834 6.71659C25.5389 6.97214 25.6667 7.28881 25.6667 7.66659V18.8666C25.6667 19.2444 25.5389 19.561 25.2834 19.8166C25.0278 20.0721 24.7111 20.1999 24.3334 20.1999C23.9556 20.1999 23.6389 20.0721 23.3834 19.8166C23.1278 19.561 23 19.2444 23 18.8666V10.8333L7.66669 26.1999C7.42225 26.4666 7.11669 26.5999 6.75002 26.5999C6.38336 26.5999 6.06669 26.4666 5.80002 26.1999Z" fill="#222343"/>
</svg>
