<svg width="32" height="32" viewBox="0 0 32 32" fill="none" xmlns="http://www.w3.org/2000/svg">
<path d="M10.2333 22.7H17.4C17.6867 22.7 17.9267 22.6067 18.12 22.42C18.3133 22.2333 18.4 21.9933 18.4 21.7C18.4 21.4067 18.3067 21.1733 18.12 20.98C17.9333 20.7867 17.6933 20.6933 17.4 20.7H10.2333C9.94667 20.7 9.70667 20.7933 9.52 20.98C9.33333 21.1667 9.24 21.4067 9.23333 21.7C9.23333 21.9867 9.32667 22.2267 9.52 22.42C9.70667 22.6067 9.94667 22.7 10.2333 22.7ZM10.2333 17H21.7667C22.0533 17 22.2933 16.9067 22.4867 16.72C22.6733 16.5333 22.7667 16.2933 22.7667 16C22.7667 15.7067 22.6733 15.4733 22.4867 15.28C22.3 15.0933 22.06 15 21.7667 15H10.2333C9.94667 15 9.70667 15.0933 9.52 15.28C9.33333 15.4667 9.23333 15.7067 9.23333 16C9.23333 16.2933 9.32667 16.5267 9.52 16.72C9.70667 16.9067 9.94667 17 10.2333 17ZM10.2333 11.3H21.7667C22.0533 11.3 22.2933 11.2067 22.4867 11.02C22.68 10.8333 22.7667 10.5933 22.7667 10.3067C22.7667 10.02 22.6733 9.78 22.4867 9.59333C22.3 9.40667 22.06 9.30667 21.7667 9.30667H10.2333C9.94667 9.30667 9.70667 9.4 9.52 9.59333C9.33333 9.78 9.23333 10.02 9.23333 10.3067C9.23333 10.5933 9.32667 10.8333 9.52 11.02C9.70667 11.2067 9.94667 11.3 10.2333 11.3ZM6 28C5.46667 28 5 27.8 4.6 27.4C4.2 27 4 26.5333 4 26V6C4 5.46667 4.2 5 4.6 4.6C5 4.2 5.46667 4 6 4H26C26.5333 4 27 4.2 27.4 4.6C27.8 5 28 5.46667 28 6V26C28 26.5333 27.8 27 27.4 27.4C27 27.8 26.5333 28 26 28H6Z" fill="#222343"/>
</svg>
