<svg width="32" height="32" viewBox="0 0 32 32" fill="none" xmlns="http://www.w3.org/2000/svg">
<path d="M10.3333 22.6666H17.4333C17.72 22.6666 17.96 22.5733 18.1533 22.3866C18.34 22.2 18.4333 21.96 18.4333 21.6666C18.4333 21.3733 18.34 21.14 18.1533 20.9466C17.9667 20.76 17.7267 20.6666 17.4333 20.6666H10.3333C10.0467 20.6666 9.80667 20.76 9.62 20.9466C9.43333 21.1333 9.33333 21.3733 9.33333 21.6666C9.33333 21.96 9.42667 22.1933 9.62 22.3866C9.80667 22.5733 10.0467 22.6666 10.3333 22.6666ZM10.3333 17H21.6667C21.9533 17 22.1933 16.9066 22.3867 16.72C22.5733 16.5333 22.6667 16.2933 22.6667 16C22.6667 15.7066 22.5733 15.4733 22.3867 15.28C22.2 15.0933 21.96 15 21.6667 15H10.3333C10.0467 15 9.80667 15.0933 9.62 15.28C9.43333 15.4666 9.33333 15.7066 9.33333 16C9.33333 16.2933 9.42667 16.5266 9.62 16.72C9.80667 16.9066 10.0467 17 10.3333 17ZM10.3333 11.3333H21.6667C21.9533 11.3333 22.1933 11.24 22.3867 11.0533C22.5733 10.8666 22.6667 10.6266 22.6667 10.3333C22.6667 10.04 22.5733 9.80665 22.3867 9.61998C22.2 9.43331 21.96 9.33331 21.6667 9.33331H10.3333C10.0467 9.33331 9.80667 9.42665 9.62 9.61998C9.43333 9.80665 9.33333 10.0466 9.33333 10.3333C9.33333 10.62 9.42667 10.86 9.62 11.0533C9.80667 11.24 10.0467 11.3333 10.3333 11.3333ZM6 28C5.44667 28 4.97333 27.8066 4.58667 27.4133C4.2 27.02 4 26.5533 4 26V5.99998C4 5.44665 4.19333 4.97331 4.58667 4.58665C4.98 4.19998 5.44667 3.99998 6 3.99998H12.8333C12.9467 3.21998 13.3 2.58665 13.9 2.07998C14.5 1.57998 15.2 1.33331 16 1.33331C16.8 1.33331 17.5 1.58665 18.1 2.07998C18.7 2.57998 19.0533 3.21998 19.1667 3.99998H26C26.5533 3.99998 27.0267 4.19331 27.4133 4.58665C27.8 4.97998 28 5.44665 28 5.99998V26C28 26.5533 27.8067 27.0266 27.4133 27.4133C27.02 27.8 26.5533 28 26 28H6ZM16 5.43331C16.3133 5.43331 16.5867 5.31998 16.82 5.07998C17.0533 4.84665 17.1667 4.57331 17.1667 4.26665C17.1667 3.95998 17.0467 3.67998 16.82 3.45331C16.5867 3.21998 16.3133 3.10665 16 3.10665C15.6867 3.10665 15.4133 3.22665 15.18 3.45998C14.9467 3.69331 14.8333 3.96665 14.8333 4.27331C14.8333 4.57998 14.9533 4.85998 15.18 5.08665C15.4133 5.31998 15.6867 5.43331 16 5.43331Z" fill="#222343"/>
</svg>
