<svg width="32" height="32" viewBox="0 0 32 32" fill="none" xmlns="http://www.w3.org/2000/svg">
<path d="M25.0015 21.2654C25.0015 23.6799 24.1336 25.7066 22.3978 27.3458C20.662 28.9849 18.5795 29.8044 16.1501 29.8044C13.7206 29.8044 11.6406 28.9849 9.91012 27.3458C8.17968 25.7066 7.31445 23.6799 7.31445 21.2654V8.29709C7.31445 6.57398 7.93701 5.1232 9.18212 3.94476C10.427 2.76609 11.9108 2.17676 13.6335 2.17676C15.3561 2.17676 16.8382 2.76609 18.0798 3.94476C19.3213 5.1232 19.9421 6.57398 19.9421 8.29709V20.5988C19.9421 21.6188 19.568 22.4875 18.8198 23.2051C18.0713 23.9226 17.1788 24.2814 16.1421 24.2814C15.1055 24.2814 14.2182 23.9263 13.4805 23.2161C12.7429 22.5059 12.3741 21.6334 12.3741 20.5988V9.51009C12.3741 9.16565 12.4956 8.87209 12.7385 8.62943C12.9816 8.38676 13.2801 8.26543 13.6341 8.26543C13.9883 8.26543 14.285 8.38676 14.5241 8.62943C14.7632 8.87209 14.8828 9.16565 14.8828 9.51009V20.5988C14.8828 20.9263 15.0078 21.2038 15.2578 21.4311C15.5078 21.6586 15.8106 21.7724 16.1661 21.7724C16.5215 21.7724 16.8216 21.6596 17.0665 21.4341C17.3111 21.2085 17.4335 20.9301 17.4335 20.5988V8.31609C17.4461 7.28387 17.077 6.42076 16.3261 5.72676C15.5755 5.03276 14.677 4.68576 13.6308 4.68576C12.5846 4.68576 11.6885 5.0302 10.9425 5.71909C10.1965 6.4082 9.82345 7.26754 9.82345 8.29709V21.2654C9.8359 22.9892 10.4623 24.4283 11.7028 25.5828C12.9432 26.7372 14.437 27.3144 16.1841 27.3144C17.9126 27.3144 19.3992 26.7364 20.6441 25.5804C21.8892 24.4244 22.5055 22.9861 22.4928 21.2654V8.98276C22.4928 8.62409 22.6143 8.32376 22.8575 8.08176C23.1006 7.83976 23.3991 7.71876 23.7531 7.71876C24.1071 7.71876 24.4037 7.83976 24.6428 8.08176C24.8819 8.32376 25.0015 8.62409 25.0015 8.98276V21.2654Z" fill="currentColor"/>
</svg>
