<svg width="32" height="32" viewBox="0 0 32 32" fill="none" xmlns="http://www.w3.org/2000/svg">
<path d="M15.3333 29.861C13.164 29.861 11.3115 29.1128 9.77588 27.6165C8.24023 26.1202 7.47241 24.2925 7.47241 22.1335V7.59286C7.47241 6.05684 8.01733 4.74191 9.10718 3.64809C10.197 2.55425 11.5129 2.00732 13.0548 2.00732C14.6203 2.00732 15.9448 2.5516 17.0283 3.64016C18.1118 4.72871 18.6536 6.05739 18.6536 7.62619V18.8538H16.8869V7.59286C16.8869 6.52886 16.5171 5.62952 15.7773 4.89486C15.0376 4.16019 14.132 3.79286 13.0606 3.79286C11.9893 3.79286 11.0814 4.16019 10.3369 4.89486C9.5925 5.62952 9.22028 6.52886 9.22028 7.59286V22.1936C9.22028 23.8575 9.81665 25.2601 11.0094 26.4013C12.2021 27.5425 13.6434 28.1132 15.3333 28.1132C16.1163 28.1132 16.8483 27.9772 17.5293 27.7052C18.2102 27.4332 18.8159 27.0509 19.3463 26.5581V28.6306C18.7618 29.0248 18.1367 29.3284 17.471 29.5415C16.8053 29.7545 16.0927 29.861 15.3333 29.861ZM15.3333 22.4595V24.2074C14.3884 24.2074 13.5988 23.8625 12.9644 23.1726C12.3302 22.4827 12.013 21.6542 12.013 20.6871V8.40012C12.013 8.15326 12.1017 7.94589 12.2789 7.77802C12.4563 7.61014 12.6652 7.52619 12.9058 7.52619C13.1464 7.52619 13.3522 7.61014 13.5232 7.77802C13.6942 7.94589 13.7797 8.15326 13.7797 8.40012V20.7871C13.7797 21.2493 13.9286 21.6436 14.2263 21.97C14.5241 22.2963 14.8931 22.4595 15.3333 22.4595ZM21.4463 14.7668V8.40012C21.4463 8.15955 21.5303 7.95375 21.6982 7.78272C21.866 7.6117 22.0721 7.52619 22.3163 7.52619C22.5606 7.52619 22.7711 7.61014 22.9479 7.77802C23.1247 7.94589 23.213 8.15326 23.213 8.40012V14.7668H21.4463Z" fill="#222343"/>
<path d="M18.6666 23.9864H21.3463V26.6661C21.3463 27.0374 21.4722 27.3503 21.7239 27.6047C21.9756 27.8592 22.2879 27.9864 22.6608 27.9864C23.0337 27.9864 23.348 27.8592 23.6036 27.6047C23.8591 27.3503 23.9869 27.0374 23.9869 26.6661V23.9864H26.6666C27.0379 23.9864 27.3508 23.8606 27.6052 23.6089C27.8597 23.3572 27.9869 23.0449 27.9869 22.672C27.9869 22.299 27.8597 21.9848 27.6052 21.7292C27.3508 21.4736 27.0379 21.3458 26.6666 21.3458H23.9869V18.6661C23.9869 18.2949 23.8611 17.982 23.6094 17.7275C23.3577 17.4731 23.0454 17.3458 22.6725 17.3458C22.2996 17.3458 21.9853 17.4731 21.7297 17.7275C21.4741 17.982 21.3463 18.2949 21.3463 18.6661V21.3458H18.6666C18.2954 21.3458 17.9825 21.4717 17.728 21.7234C17.4736 21.975 17.3463 22.2874 17.3463 22.6603C17.3463 23.0332 17.4736 23.3475 17.728 23.6031C17.9825 23.8586 18.2954 23.9864 18.6666 23.9864Z" fill="#222343"/>
</svg>
