<svg width="32" height="32" viewBox="0 0 32 32" fill="none" xmlns="http://www.w3.org/2000/svg">
<path d="M15.8983 29.8044C13.4552 29.8044 11.3693 28.9849 9.64061 27.3458C7.91194 25.7066 7.04761 23.6799 7.04761 21.2654V8.29709C7.04761 6.57398 7.67016 5.1232 8.91527 3.94476C10.1602 2.76609 11.6439 2.17676 13.3666 2.17676C15.0893 2.17676 16.5714 2.76609 17.8129 3.94476C19.0545 5.1232 19.6753 6.57398 19.6753 8.29709V18.7174C19.6753 19.0621 19.5534 19.3558 19.3096 19.5984C19.0658 19.8411 18.7708 19.9624 18.4246 19.9624C18.0642 19.9624 17.7644 19.8411 17.5253 19.5984C17.2862 19.3558 17.1666 19.0621 17.1666 18.7174V8.31609C17.1793 7.28387 16.8102 6.42076 16.0593 5.72676C15.3086 5.03276 14.4102 4.68576 13.3639 4.68576C12.3177 4.68576 11.4216 5.0302 10.6756 5.71909C9.92961 6.4082 9.55661 7.26754 9.55661 8.29709V21.2654C9.56905 22.9892 10.1955 24.4283 11.4359 25.5828C12.6764 26.7372 14.1677 27.3144 15.9099 27.3144C16.4768 27.3144 17.0333 27.2454 17.5793 27.1074C18.1255 26.9692 18.6319 26.762 19.0986 26.4858C19.3933 26.3175 19.7029 26.2888 20.0276 26.3994C20.3523 26.5101 20.5986 26.7128 20.7666 27.0074C20.9222 27.3145 20.9477 27.6273 20.8433 27.9458C20.7391 28.2642 20.5333 28.5074 20.2259 28.6754C19.5786 29.0408 18.8941 29.3202 18.1723 29.5138C17.4505 29.7075 16.6925 29.8044 15.8983 29.8044ZM23.4899 28.2261C23.1311 28.2261 22.8307 28.1065 22.5889 27.8674C22.3469 27.6283 22.2259 27.3266 22.2259 26.9624V24.4711H19.7346C19.3902 24.4711 19.0966 24.3491 18.8539 24.1051C18.6113 23.8609 18.4899 23.5654 18.4899 23.2188C18.4899 22.8721 18.6113 22.576 18.8539 22.3304C19.0966 22.0851 19.3902 21.9624 19.7346 21.9624H22.2259V19.4711C22.2259 19.1266 22.3475 18.833 22.5906 18.5901C22.8337 18.3474 23.1323 18.2261 23.4863 18.2261C23.8403 18.2261 24.1368 18.3474 24.3759 18.5901C24.6151 18.833 24.7346 19.1266 24.7346 19.4711V21.9624H27.2259C27.5759 21.9624 27.8741 22.0858 28.1203 22.3324C28.3667 22.5791 28.4899 22.8776 28.4899 23.2281C28.4899 23.5785 28.3667 23.8733 28.1203 24.1124C27.8741 24.3515 27.5759 24.4711 27.2259 24.4711H24.7346V26.9624C24.7346 27.3044 24.6133 27.6005 24.3706 27.8508C24.1279 28.101 23.8344 28.2261 23.4899 28.2261ZM13.3653 23.2261C13.0048 23.2261 12.7051 23.1052 12.4659 22.8634C12.2268 22.6214 12.1073 22.3211 12.1073 21.9624V9.51009C12.1073 9.16565 12.2287 8.87209 12.4716 8.62943C12.7147 8.38676 13.0133 8.26543 13.3673 8.26543C13.7215 8.26543 14.0182 8.38676 14.2573 8.62943C14.4964 8.87209 14.6159 9.16565 14.6159 9.51009V21.9624C14.6159 22.3211 14.4941 22.6214 14.2503 22.8634C14.0065 23.1052 13.7115 23.2261 13.3653 23.2261ZM23.4839 16.2261C23.1235 16.2261 22.8237 16.1052 22.5846 15.8634C22.3455 15.6214 22.2259 15.3183 22.2259 14.9541V8.99109C22.2259 8.62687 22.3475 8.32376 22.5906 8.08176C22.8337 7.83976 23.1323 7.71876 23.4863 7.71876C23.8403 7.71876 24.1368 7.83976 24.3759 8.08176C24.6151 8.32376 24.7346 8.62687 24.7346 8.99109V14.9541C24.7346 15.3183 24.6127 15.6214 24.3689 15.8634C24.1252 16.1052 23.8302 16.2261 23.4839 16.2261Z" fill="#222343"/>
</svg>
