<svg width="32" height="32" viewBox="0 0 32 32" fill="none" xmlns="http://www.w3.org/2000/svg">
<path d="M7.65361 16.0291C7.65361 16.4609 7.68138 16.8722 7.73694 17.2631C7.7925 17.654 7.86327 18.032 7.94927 18.3971C8.04105 18.7518 8.03061 19.1064 7.91794 19.4611C7.80549 19.8155 7.58938 20.0798 7.26961 20.2538C6.94983 20.4278 6.61816 20.4529 6.27461 20.3291C5.93105 20.2053 5.70227 19.9835 5.58827 19.6638C5.38538 19.0706 5.23883 18.4768 5.14861 17.8821C5.05816 17.2874 5.01294 16.6698 5.01294 16.0291C5.01294 13.0678 6.08494 10.5025 8.22894 8.33342C10.3729 6.16431 12.9193 5.07976 15.8679 5.07976H17.3013L15.5506 3.32909C15.3477 3.1262 15.2463 2.88998 15.2463 2.62042C15.2463 2.35087 15.3541 2.11464 15.5696 1.91176C15.7725 1.70887 16.0143 1.60742 16.2949 1.60742C16.5756 1.60742 16.8174 1.70887 17.0203 1.91176L20.5969 5.45509C20.8598 5.71798 20.9913 6.03298 20.9913 6.40009C20.9913 6.7672 20.8598 7.0822 20.5969 7.34509L17.0536 10.8884C16.8507 11.0913 16.6034 11.1928 16.3116 11.1928C16.0198 11.1928 15.7725 11.0913 15.5696 10.8884C15.3541 10.6855 15.2494 10.4351 15.2556 10.1371C15.2621 9.83909 15.3667 9.58865 15.5696 9.38576L17.2346 7.72042H15.9056C13.6536 7.72042 11.7153 8.53898 10.0906 10.1761C8.46594 11.8134 7.65361 13.7644 7.65361 16.0291ZM24.3463 16.0524C24.3463 15.6331 24.3216 15.2249 24.2723 14.8278C24.2232 14.4306 24.1493 14.0446 24.0506 13.6698C23.9493 13.3151 23.9517 12.9604 24.0579 12.6058C24.1642 12.2513 24.3772 11.9871 24.6969 11.8131C25.0043 11.6391 25.3242 11.6109 25.6566 11.7284C25.9888 11.8458 26.2183 12.0581 26.3449 12.3654C26.5701 12.9712 26.7333 13.5801 26.8346 14.1921C26.9362 14.8041 26.9869 15.4242 26.9869 16.0524C26.9869 19.0262 25.9149 21.6008 23.7709 23.7761C21.6269 25.9514 19.0868 27.0391 16.1506 27.0391H14.6319L16.3636 28.7711C16.5792 28.974 16.6838 29.2102 16.6776 29.4798C16.6712 29.7493 16.5665 29.9855 16.3636 30.1884C16.1483 30.3913 15.9034 30.4928 15.6289 30.4928C15.3545 30.4928 15.1158 30.3913 14.9129 30.1884L11.3363 26.6451C11.0734 26.3822 10.9419 26.0703 10.9419 25.7094C10.9419 25.3485 11.0734 25.0368 11.3363 24.7741L14.9319 21.1971C15.1222 20.9942 15.3576 20.8896 15.6383 20.8834C15.9189 20.8772 16.1671 20.9755 16.3826 21.1784C16.5855 21.3938 16.6869 21.6386 16.6869 21.9131C16.6869 22.1875 16.5855 22.4262 16.3826 22.6291L14.6319 24.3798H16.0943C18.3463 24.3798 20.2846 23.5612 21.9093 21.9241C23.5339 20.2868 24.3463 18.3295 24.3463 16.0524Z" fill="#222343"/>
</svg>
