<svg width="32" height="32" viewBox="0 0 32 32" fill="none" xmlns="http://www.w3.org/2000/svg">
<path d="M4.76667 26.5667C4.54667 26.3467 4.43333 26.0867 4.43333 25.8C4.43333 25.5133 4.54667 25.2533 4.76667 25.0333L13.3 16.5C13.4133 16.3867 13.52 16.3133 13.6333 16.2667C13.7467 16.22 13.8667 16.2 14 16.2C14.1333 16.2 14.2533 16.22 14.3667 16.2667C14.48 16.3133 14.5867 16.3867 14.7 16.5L19.3333 21.1667L28.6 10.8C28.78 10.6 29.0067 10.4867 29.2867 10.4667C29.5667 10.4467 29.8 10.5333 30.0067 10.7333C30.1867 10.9133 30.28 11.1333 30.2867 11.4C30.3 11.6667 30.2133 11.9 30.0333 12.1L20.0333 23.3667C19.92 23.48 19.8133 23.56 19.7 23.62C19.5867 23.6733 19.4667 23.7 19.3333 23.7C19.2 23.7 19.0667 23.68 18.9333 23.6467C18.8 23.6133 18.68 23.54 18.5667 23.4267L14 18.86L6.3 26.56C6.08 26.78 5.82 26.8933 5.53333 26.8933C5.24667 26.8933 4.98667 26.78 4.76667 26.56V26.5667ZM4.56667 16.4333C4.48 16.4333 4.38667 16.4133 4.3 16.3667C4.21333 16.32 4.14667 16.2467 4.1 16.1333L3.53333 14.9L2.3 14.3333C2.18667 14.2867 2.11333 14.22 2.06667 14.1333C2.02 14.0467 2 13.9533 2 13.8667C2 13.78 2.02 13.6867 2.06667 13.6C2.11333 13.5133 2.18667 13.4467 2.3 13.4L3.53333 12.8333L4.1 11.6C4.14667 11.4867 4.21333 11.4133 4.3 11.3667C4.38667 11.32 4.48 11.3 4.56667 11.3C4.65333 11.3 4.74667 11.32 4.83333 11.3667C4.92 11.4133 4.98667 11.4867 5.03333 11.6L5.6 12.8333L6.83333 13.4C7.01333 13.4867 7.1 13.6467 7.1 13.8667C7.1 14.0867 7.01333 14.2467 6.83333 14.3333L5.6 14.9L5.03333 16.1333C4.98667 16.2467 4.92 16.32 4.83333 16.3667C4.74667 16.4133 4.65333 16.4333 4.56667 16.4333ZM20 13.7667C19.9133 13.7667 19.82 13.7467 19.7333 13.7C19.6467 13.6533 19.58 13.58 19.5333 13.4667L18.9667 12.2333L17.7333 11.6667C17.62 11.62 17.5467 11.5533 17.5 11.4667C17.4533 11.38 17.4333 11.2867 17.4333 11.2C17.4333 11.1133 17.4533 11.02 17.5 10.9333C17.5467 10.8467 17.62 10.78 17.7333 10.7333L18.9667 10.1667L19.5333 8.93334C19.58 8.82001 19.6467 8.74668 19.7333 8.70001C19.82 8.65334 19.9133 8.63334 20 8.63334C20.0867 8.63334 20.18 8.65334 20.2667 8.70001C20.3533 8.74668 20.42 8.82001 20.4667 8.93334L21.0333 10.1667L22.2667 10.7333C22.38 10.78 22.4533 10.8467 22.5 10.9333C22.5467 11.02 22.5667 11.1133 22.5667 11.2C22.5667 11.2867 22.5467 11.38 22.5 11.4667C22.4533 11.5533 22.38 11.62 22.2667 11.6667L21.0333 12.2333L20.4667 13.4667C20.42 13.58 20.3533 13.6533 20.2667 13.7C20.18 13.7467 20.0867 13.7667 20 13.7667ZM11 9.73334C10.9133 9.73334 10.82 9.71334 10.7333 9.66668C10.6467 9.62001 10.58 9.54668 10.5333 9.43334L9.76667 7.76668L8.1 7.00001C7.98667 6.95334 7.91333 6.88668 7.86667 6.80001C7.82 6.71334 7.8 6.62001 7.8 6.53334C7.8 6.44668 7.82 6.35334 7.86667 6.26668C7.91333 6.18001 7.98667 6.11334 8.1 6.06668L9.76667 5.30001L10.5333 3.63334C10.58 3.52001 10.6467 3.44668 10.7333 3.40001C10.82 3.35334 10.9133 3.33334 11 3.33334C11.0867 3.33334 11.18 3.35334 11.2667 3.40001C11.3533 3.44668 11.42 3.52001 11.4667 3.63334L12.2333 5.30001L13.9 6.06668C14.0133 6.11334 14.0867 6.18001 14.1333 6.26668C14.18 6.35334 14.2 6.44668 14.2 6.53334C14.2 6.62001 14.18 6.71334 14.1333 6.80001C14.0867 6.88668 14.0133 6.95334 13.9 7.00001L12.2333 7.76668L11.4667 9.43334C11.42 9.54668 11.3533 9.62001 11.2667 9.66668C11.18 9.71334 11.0867 9.73334 11 9.73334Z" fill="#222343"/>
</svg>
