<svg width="32" height="32" viewBox="0 0 32 32" fill="none" xmlns="http://www.w3.org/2000/svg">
<path d="M25.9466 10.6666L27 8.33328L29.3333 7.27994C29.8533 7.03994 29.8533 6.30661 29.3333 6.06661L27 5.01328L25.9466 2.66661C25.7066 2.14661 24.9733 2.14661 24.7333 2.66661L23.68 4.99994L21.3333 6.05328C20.8133 6.29328 20.8133 7.02661 21.3333 7.26661L23.6666 8.31994L24.72 10.6666C24.96 11.1866 25.7066 11.1866 25.9466 10.6666ZM15.3333 12.6666L13.2133 7.99994C12.7466 6.95994 11.2533 6.95994 10.7866 7.99994L8.66664 12.6666L3.99997 14.7866C2.95997 15.2666 2.95997 16.7466 3.99997 17.2133L8.66664 19.3333L10.7866 23.9999C11.2666 25.0399 12.7466 25.0399 13.2133 23.9999L15.3333 19.3333L20 17.2133C21.04 16.7333 21.04 15.2533 20 14.7866L15.3333 12.6666ZM24.72 21.3333L23.6666 23.6666L21.3333 24.7199C20.8133 24.9599 20.8133 25.6933 21.3333 25.9333L23.6666 26.9866L24.72 29.3333C24.96 29.8533 25.6933 29.8533 25.9333 29.3333L26.9866 26.9999L29.3333 25.9466C29.8533 25.7066 29.8533 24.9733 29.3333 24.7333L27 23.6799L25.9466 21.3333C25.7066 20.8133 24.96 20.8133 24.72 21.3333Z" fill="currentColor"/>
</svg>
