<svg width="32" height="32" viewBox="0 0 32 32" fill="none" xmlns="http://www.w3.org/2000/svg">
<path d="M18.6667 17.3998L21.7001 20.4332C21.9001 20.6332 22.1334 20.7332 22.4001 20.7332C22.6667 20.7332 22.9001 20.6332 23.1001 20.4332C23.3001 20.2332 23.4001 19.9932 23.4001 19.7132C23.4001 19.4332 23.3001 19.1932 23.1001 18.9932L20.0667 15.9932L23.0667 12.9932C23.2667 12.7932 23.3667 12.5598 23.3667 12.2932C23.3667 12.0265 23.2667 11.7932 23.0667 11.5932C22.8667 11.3932 22.6267 11.2932 22.3467 11.2932C22.0667 11.2932 21.8267 11.3932 21.6267 11.5932L18.6601 14.5932L15.6267 11.5598C15.4267 11.3598 15.1934 11.2598 14.9267 11.2598C14.6601 11.2598 14.4267 11.3598 14.2267 11.5598C14.0267 11.7598 13.9267 11.9998 13.9267 12.2798C13.9267 12.5598 14.0267 12.7998 14.2267 12.9998L17.2601 15.9998L14.2267 18.9998C14.0267 19.1998 13.9267 19.4332 13.9267 19.6998C13.9267 19.9665 14.0267 20.1998 14.2267 20.3998C14.4267 20.5998 14.6667 20.6998 14.9467 20.6998C15.2267 20.6998 15.4667 20.5998 15.6667 20.3998L18.6667 17.3998ZM11.6667 26.6665C11.3534 26.6665 11.0534 26.5932 10.7667 26.4465C10.4801 26.2998 10.2467 26.1065 10.0667 25.8598L3.56675 17.1932C3.30008 16.8398 3.16675 16.4398 3.16675 15.9932C3.16675 15.5465 3.30008 15.1465 3.56675 14.7932L10.0334 6.12649C10.2134 5.87982 10.4467 5.68649 10.7334 5.53982C11.0201 5.39316 11.3201 5.31982 11.6334 5.31982H27.3667C27.9201 5.31982 28.3934 5.51316 28.7867 5.90649C29.1801 6.29982 29.3734 6.76649 29.3734 7.32649V24.6598C29.3734 25.2132 29.1801 25.6865 28.7867 26.0798C28.3934 26.4732 27.9267 26.6665 27.3667 26.6665H11.6667Z" fill="currentColor"/>
</svg>
