<svg width="32" height="32" viewBox="0 0 32 32" fill="none" xmlns="http://www.w3.org/2000/svg">
<path d="M28.3333 25.9334H17V9.80007C18.2 9.46673 19.1333 8.5334 19.4666 7.3334H24.8L20.9333 16.6667C20.8 16.9334 20.7333 17.2001 20.7333 17.4667C20.7333 17.7334 20.7333 18.0001 20.7333 18.2001C20.9333 19.0001 21.4666 19.6667 22.2666 20.2001C23.0666 20.7334 23.9333 21.0001 25 21.0001C26.0666 21.0001 26.9333 20.7334 27.7333 20.2001C28.5333 19.6667 29 19.0001 29.2666 18.2001C29.2666 18.0001 29.2666 17.8001 29.2666 17.4667C29.2666 17.1334 29.1333 16.8667 29.0666 16.6667L25.2 7.3334H27.0666C27.6 7.3334 28.0666 6.86673 28.0666 6.3334C28.0666 5.80007 27.6 5.3334 27.0666 5.3334H19.5333C19.0666 3.80007 17.7333 2.7334 16.0666 2.7334C14.4 2.7334 13 3.86673 12.6 5.3334H4.99996C4.46663 5.3334 3.99996 5.80007 3.99996 6.3334C3.99996 6.86673 4.46663 7.3334 4.99996 7.3334H6.79996L2.93329 16.6667C2.79996 16.9334 2.73329 17.2001 2.73329 17.4667C2.73329 17.7334 2.73329 18.0001 2.73329 18.2001C2.93329 19.0001 3.46663 19.6667 4.26663 20.2001C5.06663 20.7334 5.93329 21.0001 6.99996 21.0001C8.06663 21.0001 8.93329 20.7334 9.73329 20.2001C10.5333 19.6667 11 19.0001 11.2666 18.2001C11.2666 18.0001 11.2666 17.8001 11.2666 17.4667C11.2666 17.1334 11.1333 16.8667 11.0666 16.6667L7.19996 7.3334H12.5333C12.8666 8.5334 13.8 9.46673 15 9.80007V25.9334H3.66663C3.13329 25.9334 2.66663 26.4001 2.66663 26.9334C2.66663 27.4667 3.13329 27.9334 3.66663 27.9334H28.3333C28.8666 27.9334 29.3333 27.4667 29.3333 26.9334C29.3333 26.4001 28.8666 25.9334 28.3333 25.9334ZM22.8666 17.3334L25 12.1334L27.1333 17.3334H22.8666ZM4.86663 17.3334L6.99996 12.1334L9.13329 17.3334H4.86663ZM14.4 6.3334C14.4 5.46673 15.1333 4.7334 16 4.7334C16.8666 4.7334 17.6 5.46673 17.6 6.3334C17.6 7.20007 16.8666 7.9334 16 7.9334C15.1333 7.9334 14.4 7.20007 14.4 6.3334Z" fill="#222343"/>
</svg>
