<svg width="32" height="32" viewBox="0 0 32 32" fill="none" xmlns="http://www.w3.org/2000/svg">
<g clip-path="url(#clip0_4016_5484)">
<path d="M31.8534 21.4467C31.7534 21.28 31.6134 21.1533 31.4401 21.0667L27.1067 18.9C26.9734 18.8333 26.8267 18.8 26.6667 18.8C26.5067 18.8 26.3667 18.8333 26.2401 18.9L21.9067 21.0667C21.7267 21.1533 21.5934 21.28 21.4934 21.4467C21.3934 21.6133 21.3467 21.7867 21.3467 21.9667V24.7333C21.3467 26.4667 21.7867 27.92 22.6601 29.1C23.5401 30.28 24.7401 31.1867 26.2801 31.8333L26.6801 31.9C26.8601 31.9 26.9934 31.88 27.0801 31.8333C28.6134 31.1867 29.8201 30.28 30.7001 29.1C31.5801 27.92 32.0134 26.4667 32.0134 24.7333V21.9667C32.0134 21.7867 31.9601 21.6133 31.8667 21.4467H31.8534ZM30.2334 23.7333L26.6667 27.3C26.4667 27.5 26.2334 27.6 25.9667 27.6C25.7001 27.6 25.4667 27.5 25.2667 27.3L23.5334 25.5667C23.4001 25.4333 23.3334 25.28 23.3334 25.1C23.3334 24.92 23.4001 24.7667 23.5334 24.6333C23.6667 24.5 23.8201 24.4333 24.0001 24.4333C24.1801 24.4333 24.3334 24.5 24.4667 24.6333L25.9667 26.1333L29.3001 22.8C29.4334 22.6667 29.5867 22.6 29.7667 22.6C29.9467 22.6 30.1001 22.6667 30.2334 22.8C30.3667 22.9333 30.4334 23.0867 30.4334 23.2667C30.4334 23.4467 30.3667 23.6 30.2334 23.7333Z" fill="currentColor"/>
<path d="M18.6667 26C18.6667 25.1333 18.1067 24.4 17.3334 24.12V12.5467C18.1067 12.2667 18.6667 11.5333 18.6667 10.6667H22.0001C22.0001 11.5333 22.5601 12.2667 23.3334 12.5467V18.1133L25.3401 17.1133C25.5401 17.0067 25.7667 16.9267 26.0001 16.8733V12.5467C26.7734 12.2667 27.3334 11.5333 27.3334 10.6667H28.3334C28.8867 10.6667 29.3334 10.22 29.3334 9.66665V9.35332C29.3334 8.53332 28.8334 7.79999 28.0734 7.49999L16.7401 2.96666C16.2667 2.77332 15.7334 2.77332 15.2601 2.96666L3.92675 7.49999C3.16675 7.79999 2.66675 8.53332 2.66675 9.35332V9.66665C2.66675 10.22 3.11341 10.6667 3.66675 10.6667H4.66675C4.66675 11.5333 5.22675 12.2667 6.00008 12.5467V24.12C5.22675 24.4 4.66675 25.1333 4.66675 26H3.66675C3.11341 26 2.66675 26.4467 2.66675 27C2.66675 27.5533 3.11341 28 3.66675 28H19.8401C19.6267 27.3733 19.4801 26.7067 19.4001 26H18.6667ZM14.6667 24.12C13.8934 24.4 13.3334 25.1333 13.3334 26H10.0001C10.0001 25.1333 9.44008 24.4 8.66675 24.12V12.5467C9.44008 12.2667 10.0001 11.5333 10.0001 10.6667H13.3334C13.3334 11.5333 13.8934 12.2667 14.6667 12.5467V24.12Z" fill="currentColor"/>
</g>
<defs>
<clipPath id="clip0_4016_5484">
<rect width="32" height="32" fill="white"/>
</clipPath>
</defs>
</svg>
