<svg width="32" height="32" viewBox="0 0 32 32" fill="none" xmlns="http://www.w3.org/2000/svg">
<path fill-rule="evenodd" clip-rule="evenodd" d="M4.66669 10.6667L3.66669 10.6667V10.6733C3.11335 10.6733 2.66669 10.2267 2.66669 9.67334V9.36C2.66669 8.54 3.16669 7.80667 3.92669 7.5L15.2534 2.96C15.7334 2.76667 16.26 2.76667 16.74 2.96L28.0734 7.49334C28.8334 7.8 29.3334 8.53334 29.3334 9.35334V9.66667C29.3334 10.22 28.8867 10.6667 28.3334 10.6667H27.3333C27.3333 11.54 26.7733 12.2734 26 12.5467V24.1267C26.7713 24.406 27.3305 25.1362 27.3333 26H28.3334C28.8867 26 29.3334 26.4467 29.3334 27C29.3334 27.5533 28.8867 28 28.3334 28H3.66669C3.11335 28 2.66669 27.5533 2.66669 27C2.66669 26.4467 3.11335 26 3.66669 26H4.6667C4.66955 25.1296 5.22866 24.3993 6.00002 24.1267V12.5467C5.22669 12.2667 4.66669 11.5334 4.66669 10.6667ZM10 10.6667C10 11.54 9.44002 12.2734 8.66669 12.5467V24.1267C9.43803 24.406 9.99714 25.1362 10 26H13.3334C13.3362 25.1296 13.8953 24.3993 14.6667 24.1267V12.5467C13.8934 12.2667 13.3334 11.5334 13.3334 10.6667H10ZM18.6667 10.6667C18.6667 11.54 18.1067 12.2734 17.3334 12.5467V24.1267C18.1047 24.406 18.6638 25.1362 18.6667 26H22C22.0029 25.1296 22.562 24.3993 23.3333 24.1267V12.5467C22.56 12.2667 22 11.5334 22 10.6667H18.6667Z" fill="#222343"/>
</svg>
