<svg width="32" height="32" viewBox="0 0 32 32" fill="none" xmlns="http://www.w3.org/2000/svg">
<path d="M26.3 6.88C26.0533 6.53333 25.7467 6.28666 25.3667 6.13333L16.7 2.9C16.4533 2.81333 16.22 2.76666 16 2.76666C15.78 2.76666 15.5467 2.81333 15.3 2.9L6.63334 6.13333C6.25334 6.28666 5.94668 6.54 5.70001 6.88C5.45334 7.22666 5.33334 7.60666 5.33334 8.02666V14.56C5.33334 17.8733 6.28668 20.9067 8.20001 23.68C10.1133 26.4467 12.5533 28.2733 15.5333 29.16C15.6 29.18 15.6733 29.2 15.7533 29.2133C15.8333 29.2267 15.9133 29.2333 16.0067 29.2333L16.4733 29.1667C19.4533 28.28 21.8933 26.4533 23.8067 23.6867C25.72 20.92 26.6733 17.88 26.6733 14.5667V8.03333C26.6733 7.61333 26.5533 7.22666 26.3067 6.88666L26.3 6.88ZM20.38 15.56C20.12 16.04 19.7733 16.54 19.34 17.06C18.9067 17.5733 18.4 18.1067 17.82 18.6467C17.24 19.1867 16.6333 19.7467 16 20.3133C15.36 19.74 14.7533 19.1867 14.18 18.6467C13.6 18.1067 13.1 17.5733 12.66 17.06C12.2267 16.5467 11.88 16.0467 11.62 15.56C11.36 15.0733 11.2333 14.6133 11.2333 14.1667C11.2333 13.46 11.4733 12.8733 11.9467 12.3933C12.42 11.9133 13.0133 11.68 13.72 11.68C14.1267 11.68 14.5333 11.7933 14.9333 12.0133C15.3333 12.24 15.6933 12.54 16 12.92C16.3133 12.54 16.6667 12.24 17.0667 12.0133C17.4667 11.7867 17.8733 11.68 18.28 11.68C18.9867 11.68 19.5733 11.92 20.0533 12.3933C20.5333 12.8667 20.7667 13.46 20.7667 14.1667C20.7667 14.6133 20.64 15.08 20.38 15.56V15.56Z" fill="#222343"/>
</svg>
