<svg width="32" height="32" viewBox="0 0 32 32" fill="none" xmlns="http://www.w3.org/2000/svg">
<path d="M11.3088 18.1932C11.3088 18.3998 11.3621 18.8465 11.4755 19.2065C11.8155 20.2932 13.0088 21.1532 14.1221 21.2465H14.1555C13.6221 20.8932 13.2621 20.4265 13.0755 19.9132C12.5888 18.5865 13.4821 16.8732 14.9355 16.2732C16.1155 15.7865 17.4955 16.1132 18.3688 16.9532C19.3755 17.9198 19.3421 19.1998 19.3288 19.3998C19.3221 19.5798 19.2555 20.6265 18.4421 21.4732C17.1821 22.7865 15.2155 22.4932 14.6021 22.3998C14.4421 22.3732 13.6755 22.2532 12.7821 21.7998C12.2421 21.5198 11.7421 21.1665 11.3021 20.7465C11.3688 20.8998 12.6288 23.6198 15.4888 23.9665C15.8288 24.0065 17.7155 24.1998 19.2955 22.8665C20.5688 21.7932 20.8488 20.3998 20.9088 20.0398C21.0555 19.1732 20.9555 18.2798 20.6288 17.4598C20.3888 16.8598 20.0288 16.3198 19.5688 15.8598C18.2355 14.5465 16.5488 14.4732 16.2955 14.4665C15.0821 14.4332 13.8555 14.8398 12.9421 15.6732C12.9421 14.0998 12.9355 12.5198 12.9288 10.9465C12.7888 10.2065 11.8421 9.73315 11.2755 9.85982C11.2755 16.8398 11.2955 14.2465 11.2755 17.1332L11.2888 18.1932H11.3088Z" fill="#222343"/>
<path d="M15.9955 5.17993C16.0955 5.17993 16.2421 5.19993 16.3888 5.3066L27.0688 13.0666C27.3021 13.2399 27.4021 13.5333 27.3088 13.8133L23.2288 26.3666C23.1421 26.6399 22.8821 26.8266 22.5955 26.8266H9.39545C9.10878 26.8266 8.84878 26.6399 8.76212 26.3666L4.68212 13.8066C4.59545 13.5333 4.68878 13.2333 4.92212 13.0599L15.6021 5.3066C15.7488 5.19993 15.8955 5.17993 15.9955 5.17993ZM15.9955 3.17993C15.4421 3.17993 14.8955 3.3466 14.4288 3.6866L3.74878 11.4466C2.81545 12.1266 2.42212 13.3266 2.78212 14.4266L6.86212 26.9799C7.22212 28.0799 8.24212 28.8199 9.39545 28.8199H22.5955C23.7488 28.8199 24.7755 28.0733 25.1288 26.9799L29.2088 14.4266C29.5688 13.3266 29.1755 12.1266 28.2421 11.4466L17.5621 3.6866C17.0955 3.3466 16.5421 3.17993 15.9955 3.17993Z" fill="#222343"/>
</svg>
