<svg width="32" height="32" viewBox="0 0 32 32" fill="none" xmlns="http://www.w3.org/2000/svg">
<path d="M23.66 22.9401C23.6134 22.5734 23.3667 22.2601 23.02 22.1267L20.2 21.0601L22.56 16.9734C23.14 15.9667 22.74 14.6734 21.6934 14.1667L20.86 13.7667C20.86 13.7667 20.84 13.7667 20.8334 13.7601C20.7067 13.7001 20.5667 13.6667 20.42 13.6667H16.5C16.28 13.6667 16.0667 13.7401 15.8934 13.8734L13.2734 15.8734C12.8334 16.2067 12.7534 16.8334 13.0867 17.2734C13.2867 17.5334 13.58 17.6667 13.88 17.6667C14.0934 17.6667 14.3067 17.6001 14.4867 17.4601L16.84 15.6667H19.34L17.1134 19.5267C16.5467 20.5001 16.9134 21.7201 17.8667 22.2601C17.9467 22.3201 18.0267 22.3734 18.1267 22.4067L21.76 23.7801L22.3267 28.4401C22.3867 28.9467 22.82 29.3201 23.32 29.3201C23.36 29.3201 23.4 29.3201 23.44 29.3134C23.9867 29.2467 24.38 28.7467 24.3134 28.2001L23.6734 22.9401H23.66Z" fill="currentColor"/>
<path d="M24 14.0001C25.1046 14.0001 26 13.1047 26 12.0001C26 10.8955 25.1046 10.0001 24 10.0001C22.8955 10.0001 22 10.8955 22 12.0001C22 13.1047 22.8955 14.0001 24 14.0001Z" fill="currentColor"/>
<path d="M16.1134 21.7334L14.58 25.1667L10.8534 27.4401C10.38 27.7267 10.2334 28.3401 10.52 28.8134C10.7067 29.1201 11.04 29.2934 11.3734 29.2934C11.5534 29.2934 11.7334 29.2467 11.8934 29.1467L15.8934 26.7067C16.0734 26.5934 16.2134 26.4334 16.2934 26.2401L17.62 23.2601C16.94 22.9534 16.4067 22.4134 16.1067 21.7334H16.1134Z" fill="currentColor"/>
<path d="M12.2667 14.3734C12.3934 14.4934 12.5534 14.5534 12.7534 14.5534C12.9534 14.5534 13.1134 14.4934 13.24 14.3734C13.3667 14.2534 13.4267 14.0934 13.4267 13.8934V13.4201C14.0334 13.3067 14.5134 13.0601 14.8667 12.7001C15.22 12.3401 15.4 11.8934 15.4 11.3667C15.4 10.9134 15.2867 10.5467 15.0667 10.2801C14.8467 10.0134 14.58 9.81341 14.2734 9.69341C13.9667 9.57341 13.58 9.45341 13.1 9.34675C12.6534 9.24675 12.3334 9.14008 12.1267 9.04008C11.92 8.94008 11.82 8.78008 11.82 8.58008C11.82 8.38008 11.9067 8.20008 12.0867 8.07341C12.2667 7.94675 12.5 7.88675 12.7934 7.88675C12.9934 7.88675 13.18 7.91341 13.36 7.96008C13.54 8.00675 13.7 8.07341 13.86 8.15341C14.0134 8.23341 14.1134 8.28675 14.16 8.31342C14.2934 8.38675 14.4 8.43341 14.4667 8.46008C14.54 8.48675 14.6134 8.50008 14.6867 8.50008C14.84 8.50008 14.9734 8.42675 15.0934 8.28675C15.2134 8.14675 15.2667 7.98008 15.2667 7.78675C15.2667 7.65341 15.24 7.54008 15.1934 7.44675C15.1467 7.35341 15.06 7.26675 14.9467 7.19341C14.44 6.87341 13.92 6.66675 13.3867 6.58675V6.13341C13.3867 5.93341 13.3267 5.77341 13.2 5.65341C13.0734 5.53341 12.9134 5.46675 12.7134 5.46675C12.5134 5.46675 12.36 5.52675 12.2334 5.65341C12.1067 5.78008 12.04 5.94008 12.04 6.13341V6.61341C11.4467 6.73341 10.9734 6.98675 10.6134 7.36675C10.2534 7.74675 10.0734 8.19342 10.0734 8.70675C10.0734 9.15342 10.1867 9.51342 10.4134 9.78008C10.64 10.0467 10.9067 10.2401 11.2134 10.3667C11.52 10.4934 11.92 10.6134 12.4 10.7401C12.7 10.8201 12.9334 10.8801 13.0867 10.9334C13.24 10.9867 13.3734 11.0534 13.48 11.1401C13.5867 11.2267 13.64 11.3401 13.64 11.4734C13.64 11.7001 13.5534 11.8667 13.3734 11.9801C13.1934 12.0934 12.94 12.1467 12.6 12.1467C12.32 12.1467 12.06 12.1134 11.82 12.0534C11.58 11.9934 11.3134 11.8801 11.0267 11.7267C10.9067 11.6534 10.8067 11.6067 10.7267 11.5801C10.6467 11.5534 10.5734 11.5401 10.4934 11.5401C10.34 11.5401 10.2067 11.6134 10.0934 11.7534C9.98004 11.8934 9.92671 12.0601 9.92671 12.2534C9.92671 12.4001 9.95337 12.5201 10 12.6134C10.0467 12.7067 10.1334 12.7867 10.2467 12.8534C10.7534 13.1801 11.3667 13.3934 12.08 13.4801V13.9134C12.08 14.1134 12.14 14.2734 12.2667 14.3934V14.3734Z" fill="currentColor"/>
<path d="M12.4067 15.3201C9.58671 15.1801 7.33337 12.8534 7.33337 10.0001C7.33337 7.14675 9.72671 4.66675 12.6667 4.66675C15.6067 4.66675 18 7.06008 18 10.0001C18 10.9734 17.7334 11.8801 17.28 12.6667H19.4934C19.82 11.8401 20 10.9401 20 10.0001C20 5.94675 16.72 2.66675 12.6667 2.66675C8.61337 2.66675 5.33337 5.94675 5.33337 10.0001C5.33337 13.8201 8.26004 16.9534 11.9867 17.3001C11.76 16.6201 11.9067 15.8601 12.4 15.3201H12.4067Z" fill="currentColor"/>
</svg>
