<svg width="32" height="32" viewBox="0 0 32 32" fill="none" xmlns="http://www.w3.org/2000/svg">
<path d="M20.3333 9.33341C19.6666 9.33341 19.1333 9.13341 18.6666 8.66675C18.2 8.20008 18 7.66675 18 7.00008C18 6.33341 18.2 5.80008 18.6666 5.33341C19.1333 4.86675 19.6666 4.66675 20.3333 4.66675C21 4.66675 21.5333 4.86675 22 5.33341C22.4666 5.80008 22.6666 6.33341 22.6666 7.00008C22.6666 7.66675 22.4666 8.20008 22 8.66675C21.5333 9.13341 21 9.33341 20.3333 9.33341ZM14.0666 15.0667L16.4 17.4001C16.6 17.6001 16.7333 17.8001 16.8666 18.0667C16.9333 18.3334 17 18.5334 17 18.8001V23.0667C17 23.3334 16.9333 23.6001 16.7333 23.8001C16.5333 24.0001 16.3333 24.0667 16 24.0667C15.6666 24.0667 15.4666 24.0001 15.2666 23.8001C15.0666 23.6001 15 23.4001 15 23.0667V18.8001L11.2666 15.0667C11.0666 14.9334 10.9333 14.7334 10.8 14.5334C10.6666 14.3334 10.6 14.0667 10.6 13.8667C10.6 13.6667 10.6 13.2667 10.7333 13.0001C10.8666 12.7334 11 12.4667 11.2 12.2667L14.5333 8.93341C14.7333 8.73341 14.9333 8.60008 15.2 8.53341C15.4666 8.46675 15.6666 8.40008 15.9333 8.40008C16.2 8.40008 16.6 8.46675 16.8666 8.66675C17.1333 8.80008 17.4 9.00008 17.6666 9.26675L19.6666 11.4667C20.1333 11.9334 20.6 12.3334 21.2 12.6667C21.8 13.0001 22.3333 13.2001 22.9333 13.2667C23.2 13.2667 23.4666 13.4667 23.6666 13.6667C23.8666 13.8667 23.9333 14.0667 23.9333 14.4001C23.9333 14.7334 23.8 14.9334 23.6 15.1334C23.4 15.3334 23.1333 15.4001 22.9333 15.4001C22 15.2667 21.1333 15.0001 20.2666 14.6001C19.4666 14.2001 18.7333 13.6001 18.1333 12.9334L17.2666 11.9334L13.9333 15.2667L14.0666 15.0667ZM7.99996 16.6667C9.46663 16.6667 10.7333 17.2001 11.8 18.2001C12.8666 19.2001 13.3333 20.5334 13.3333 22.0001C13.3333 23.4667 12.8 24.7334 11.8 25.8001C10.7333 26.8667 9.46663 27.3334 7.99996 27.3334C6.53329 27.3334 5.26663 26.8001 4.19996 25.8001C3.13329 24.7334 2.66663 23.4667 2.66663 22.0001C2.66663 20.5334 3.19996 19.2667 4.19996 18.2001C5.26663 17.1334 6.53329 16.6667 7.99996 16.6667ZM7.99996 25.3334C8.93329 25.3334 9.73329 25.0001 10.4 24.3334C11.0666 23.6667 11.4 22.8667 11.4 21.9334C11.4 21.0001 11.0666 20.2001 10.4 19.5334C9.73329 18.8667 8.93329 18.5334 7.99996 18.5334C7.06663 18.5334 6.26663 18.8667 5.59996 19.5334C4.93329 20.2001 4.59996 21.0001 4.59996 21.9334C4.59996 22.8667 4.93329 23.6667 5.59996 24.3334C6.26663 25.0001 7.06663 25.3334 7.99996 25.3334ZM24 16.6667C25.4666 16.6667 26.7333 17.2001 27.8 18.2001C28.8666 19.2001 29.3333 20.5334 29.3333 22.0001C29.3333 23.4667 28.8 24.7334 27.8 25.8001C26.7333 26.8667 25.4666 27.3334 24 27.3334C22.5333 27.3334 21.2666 26.8001 20.2 25.8001C19.1333 24.7334 18.6666 23.4667 18.6666 22.0001C18.6666 20.5334 19.2 19.2667 20.2 18.2001C21.2 17.1334 22.5333 16.6667 24 16.6667ZM24 25.3334C24.9333 25.3334 25.7333 25.0001 26.4 24.3334C27.0666 23.6667 27.4 22.8667 27.4 21.9334C27.4 21.0001 27.0666 20.2001 26.4 19.5334C25.7333 18.8667 24.9333 18.5334 24 18.5334C23.0666 18.5334 22.2666 18.8667 21.6 19.5334C20.9333 20.2001 20.6 21.0001 20.6 21.9334C20.6 22.8667 20.9333 23.6667 21.6 24.3334C22.2666 25.0001 23.0666 25.3334 24 25.3334Z" fill="#222343"/>
</svg>
