<svg width="32" height="32" viewBox="0 0 32 32" fill="none" xmlns="http://www.w3.org/2000/svg">
<path d="M4 13.6667V5.33333C4 4.6 4.6 4 5.33333 4H13.6667C14.4 4 15 4.6 15 5.33333V13.6667C15 14.4 14.4 15 13.6667 15H5.33333C4.6 15 4 14.4 4 13.6667ZM4 26.6667V18.3333C4 17.6 4.6 17 5.33333 17H13.6667C14.4 17 15 17.6 15 18.3333V26.6667C15 27.4 14.4 28 13.6667 28H5.33333C4.6 28 4 27.4 4 26.6667ZM17 13.6667V5.33333C17 4.6 17.6 4 18.3333 4H26.6667C27.4 4 28 4.6 28 5.33333V13.6667C28 14.4 27.4 15 26.6667 15H18.3333C17.6 15 17 14.4 17 13.6667ZM17 26.6667V18.3333C17 17.6 17.6 17 18.3333 17H26.6667C27.4 17 28 17.6 28 18.3333V26.6667C28 27.4 27.4 28 26.6667 28H18.3333C17.6 28 17 27.4 17 26.6667ZM19 13H26V6H19V13Z" fill="#222343"/>
</svg>
