<svg width="32" height="32" viewBox="0 0 32 32" fill="none" xmlns="http://www.w3.org/2000/svg">
<path d="M15.9999 29.3333C14.1532 29.3333 12.4199 28.98 10.7999 28.28C9.17991 27.58 7.76658 26.6267 6.56658 25.4267C5.36658 24.2267 4.41325 22.8133 3.71325 21.1933C3.01325 19.5733 2.65991 17.84 2.65991 15.9933C2.65991 14.1467 3.01325 12.4133 3.71325 10.7933C4.41325 9.17332 5.36658 7.75999 6.56658 6.55999C7.76658 5.35999 9.17991 4.40665 10.7999 3.70665C12.4199 3.00665 14.1532 2.65332 15.9999 2.65332C17.8466 2.65332 19.5799 3.00665 21.1999 3.70665C22.8199 4.40665 24.2332 5.35999 25.4332 6.55999C26.6332 7.75999 27.5866 9.17332 28.2866 10.7933C28.9866 12.4133 29.3399 14.1467 29.3399 15.9933C29.3399 17.84 28.9866 19.5733 28.2866 21.1933C27.5866 22.8133 26.6332 24.2267 25.4332 25.4267C24.2332 26.6267 22.8199 27.58 21.1999 28.28C19.5799 28.98 17.8466 29.3333 15.9999 29.3333ZM23.2999 24.6667C23.5466 24.4667 23.7866 24.26 24.0199 24.04C24.2532 23.82 24.4732 23.5867 24.6732 23.3333L8.66658 7.33332C8.41325 7.53332 8.17991 7.75332 7.95991 7.98665C7.73991 8.21999 7.53325 8.45999 7.33325 8.70665L23.2999 24.6733V24.6667Z" fill="currentColor"/>
</svg>
