<svg width="32" height="32" viewBox="0 0 32 32" fill="none" xmlns="http://www.w3.org/2000/svg">
<path d="M15.9982 29.8044C14.092 29.8044 12.2996 29.4419 10.6209 28.7168C8.94222 27.9916 7.47778 27.004 6.22756 25.7538C4.97711 24.5035 3.99256 23.0398 3.27389 21.3624C2.555 19.6853 2.19556 17.8853 2.19556 15.9624C2.19556 14.0722 2.55922 12.2856 3.28656 10.6028C4.01389 8.91965 4.99689 7.4572 6.23556 6.21543C7.47422 4.97387 8.93422 3.99043 10.6156 3.26509C12.2967 2.53954 14.0911 2.17676 15.9989 2.17676C17.9069 2.17676 19.7016 2.53954 21.3829 3.26509C23.0644 3.99043 24.5247 4.97387 25.7636 6.21543C27.0024 7.4572 27.9888 8.91965 28.7226 10.6028C29.4563 12.2856 29.8232 14.0722 29.8232 15.9624C29.8232 17.8853 29.4607 19.6853 28.7356 21.3624C28.0104 23.0398 27.0227 24.5035 25.7722 25.7538C24.522 27.004 23.057 27.9916 21.3772 28.7168C19.6974 29.4419 17.9044 29.8044 15.9982 29.8044ZM22.9232 24.6858C23.2681 24.4353 23.5949 24.166 23.9036 23.8778C24.2122 23.5895 24.4917 23.2636 24.7419 22.9001L9.08122 7.23909C8.73011 7.48931 8.40411 7.76887 8.10322 8.07776C7.80256 8.38643 7.527 8.7132 7.27656 9.05809L22.9232 24.6858Z" fill="currentColor"/>
</svg>
