<svg width="32" height="32" viewBox="0 0 32 32" fill="none" xmlns="http://www.w3.org/2000/svg">
<path d="M25 22.6667C25.92 22.6667 26.6667 21.92 26.6667 21V4.33335C26.6667 3.41335 25.92 2.66669 25 2.66669H9.33334C7.12668 2.66669 5.33334 4.46002 5.33334 6.66669V25.3334C5.33334 27.54 7.12668 29.3334 9.33334 29.3334H25C25.92 29.3334 26.6667 28.5867 26.6667 27.6667C26.6667 26.7467 25.92 26 25 26H24.6667V22.6667H25ZM10.6667 10.6667H21.3333V12H10.6667V10.6667ZM10.6667 13.3334H21.3333V14.6667H10.6667V13.3334ZM22.6667 26H10.44C9.56668 26 8.77334 25.3734 8.68668 24.5067C8.58668 23.5067 9.36668 22.6667 10.3467 22.6667H22.6667V26Z" fill="currentColor"/>
</svg>
