<svg width="32" height="32" viewBox="0 0 32 32" fill="none" xmlns="http://www.w3.org/2000/svg">
<path d="M8.99999 29.3333C7.99999 29.3333 7.13999 29.0066 6.41333 28.3466C5.69333 27.6866 5.32666 26.8733 5.32666 25.9V7.09995C5.32666 6.28662 5.57333 5.55995 6.06666 4.91995C6.55999 4.27995 7.19999 3.87329 7.99333 3.69995L18.26 1.56662C18.88 1.43329 19.44 1.56662 19.9267 1.97329C20.4133 2.37329 20.66 2.89995 20.66 3.53329V20.1C20.66 20.5733 20.5133 20.9866 20.2267 21.3533C19.94 21.72 19.56 21.9533 19.0933 22.0666L8.65999 24.3C8.27999 24.38 7.95999 24.58 7.70666 24.8866C7.45333 25.1933 7.32666 25.5333 7.32666 25.9C7.32666 26.32 7.49333 26.6666 7.82666 26.9333C8.15999 27.2 8.54666 27.3333 8.99333 27.3333H24.66V6.33329C24.66 6.04662 24.7533 5.81329 24.9467 5.61995C25.14 5.42662 25.38 5.33329 25.6667 5.33329C25.9533 5.33329 26.1867 5.42662 26.38 5.61995C26.5667 5.81329 26.6667 6.04662 26.6667 6.33329V27.3333C26.6667 27.8866 26.4733 28.3533 26.08 28.7466C25.6867 29.14 25.22 29.3333 24.6667 29.3333H8.99999ZM10.54 21.9066C10.7733 21.86 10.96 21.7466 11.1133 21.5666C11.26 21.3866 11.34 21.18 11.34 20.9333V6.26662C11.34 5.95329 11.22 5.69329 10.9733 5.49995C10.7267 5.29995 10.4467 5.23329 10.1333 5.29995C9.89999 5.34662 9.71333 5.45995 9.55999 5.63995C9.41333 5.81995 9.33333 6.02662 9.33333 6.27329V20.94C9.33333 21.2533 9.45333 21.5133 9.69999 21.7066C9.94666 21.9 10.2267 21.9733 10.54 21.9066Z" fill="currentColor"/>
</svg>
