<svg width="32" height="32" viewBox="0 0 32 32" fill="none" xmlns="http://www.w3.org/2000/svg">
<path d="M30.4334 15.2999L26.6667 11.5266V6.33327C26.6667 6.0466 26.5734 5.81327 26.3801 5.61993C26.1867 5.4266 25.9534 5.33327 25.6667 5.33327H20.4667L16.7334 1.5666C16.5334 1.3666 16.3001 1.2666 16.0334 1.2666C15.7667 1.2666 15.5334 1.3666 15.3334 1.5666L11.5467 5.33327H6.33339C6.05339 5.33327 5.81339 5.4266 5.62006 5.61993C5.42672 5.81327 5.33339 6.0466 5.33339 6.33327V11.5266L1.56672 15.2999C1.36672 15.4999 1.26672 15.7333 1.26672 15.9999C1.26672 16.2666 1.36672 16.4999 1.56672 16.6999L5.33339 20.4733V25.6666C5.33339 25.9466 5.42672 26.1866 5.62006 26.3799C5.81339 26.5733 6.04672 26.6666 6.33339 26.6666H11.5467L15.3334 30.3666C15.5334 30.5466 15.7667 30.6266 16.0334 30.6199C16.3001 30.6066 16.5334 30.5133 16.7334 30.3399L20.4667 26.6733H25.6667C25.9467 26.6733 26.1867 26.5799 26.3801 26.3866C26.5734 26.1933 26.6667 25.9599 26.6667 25.6733V20.4799L30.4334 16.7066C30.6334 16.5066 30.7334 16.2733 30.7334 16.0066C30.7334 15.7399 30.6334 15.5066 30.4334 15.3066V15.2999ZM16.0001 22.6066C12.3201 22.6066 9.33339 19.6199 9.33339 15.9399C9.33339 12.2599 12.3201 9.27327 16.0001 9.27327C19.6801 9.27327 22.6667 12.2599 22.6667 15.9399C22.6667 19.6199 19.6801 22.6066 16.0001 22.6066Z" fill="#222343"/>
</svg>
