<svg width="32" height="32" viewBox="0 0 32 32" fill="none" xmlns="http://www.w3.org/2000/svg">
<path d="M23.5 27.7333L14.9 19.0666C14.3867 19.2466 13.88 19.3866 13.3667 19.5C12.8533 19.6133 12.3333 19.6666 11.8 19.6666C9.64666 19.6666 7.81333 18.9133 6.29999 17.4133C4.78666 15.9133 4.03333 14.0866 4.03333 11.9266C4.03333 11.24 4.11999 10.5666 4.29999 9.90665C4.47999 9.25331 4.73333 8.63331 5.06666 8.05331L9.89999 12.8866L12.9667 10.02L7.99999 5.05331C8.57999 4.71998 9.18666 4.45998 9.83333 4.26665C10.48 4.07331 11.1333 3.97998 11.8 3.97998C14 3.97998 15.8733 4.75331 17.42 6.29998C18.9667 7.84665 19.74 9.71998 19.74 11.92C19.74 12.4533 19.6867 12.9733 19.5733 13.4866C19.46 14 19.32 14.5066 19.14 15.02L27.7733 23.62C28.02 23.8666 28.14 24.16 28.14 24.5066C28.14 24.8533 28.02 25.1466 27.7733 25.3933L25.24 27.7266C24.9933 27.9733 24.7067 28.0933 24.3733 28.0933C24.04 28.0933 23.7533 27.9733 23.5067 27.7266L23.5 27.7333Z" fill="#222343"/>
</svg>
