<svg width="32" height="32" viewBox="0 0 32 32" fill="none" xmlns="http://www.w3.org/2000/svg">
<path d="M5.33333 29.3334C4.93333 29.3334 4.66667 29.2001 4.4 28.9334C4.13333 28.6667 4 28.3334 4 28V20.6667C4 20.1334 4.2 19.6667 4.6 19.2667C5 18.8667 5.46667 18.6667 6 18.6667H26C26.5333 18.6667 27 18.8667 27.4 19.2667C27.8 19.6667 28 20.1334 28 20.6667V28C28 28.4 27.8667 28.6667 27.6 28.9334C27.3333 29.2001 27 29.3334 26.6667 29.3334H5.33333ZM6.93333 16.6667V12.6C6.93333 12.0667 7.13333 11.6 7.53333 11.2C7.93333 10.8 8.4 10.6 8.93333 10.6H15.0667V8.46672C14.6 8.13338 14.2667 7.80005 14.0667 7.46672C13.8 7.06672 13.7333 6.66672 13.7333 6.13338C13.7333 5.60005 13.7333 5.46672 13.9333 5.20005C14.1333 4.93338 14.2 4.66672 14.4667 4.40005L15.8 3.00005C15.8 3.00005 15.9333 2.93338 16.2 2.80005C16.2 2.80005 16.3333 2.80005 16.5333 3.00005L17.8667 4.40005C18.0667 4.60005 18.2667 4.86672 18.4 5.20005C18.5333 5.53338 18.6 5.80005 18.6 6.13338C18.6 6.66672 18.4667 7.06672 18.2 7.46672C17.9333 7.86672 17.6 8.20005 17.1333 8.46672V10.6H23.2667C23.8 10.6 24.2667 10.8 24.6667 11.2C25.0667 11.6 25.2667 12.0667 25.2667 12.6V16.6667H6.93333Z" fill="#222343"/>
</svg>
