<svg width="32" height="32" viewBox="0 0 32 32" fill="none" xmlns="http://www.w3.org/2000/svg">
<path d="M13.3422 6.643C13.3714 7.03582 13.4734 7.38235 13.6482 7.68259C14.0976 8.52096 14.9822 9.09114 16 9.09114C17.0177 9.09114 17.9022 8.52105 18.3517 7.6828C18.5265 7.38251 18.6286 7.03591 18.6578 6.643C18.6637 6.57093 18.6667 6.49805 18.6667 6.42448C18.6667 6.42078 18.6667 6.41708 18.6666 6.41338C18.6667 6.40904 18.6667 6.40468 18.6667 6.40033C18.6667 6.19972 18.6425 6.00112 18.5942 5.80454C18.4599 5.24054 18.1465 4.746 17.7174 4.38439L16 2.66699L14.2826 4.38437C13.8534 4.74604 13.54 5.24068 13.4057 5.80479C13.3575 6.00129 13.3333 6.1998 13.3333 6.40033C13.3333 6.4046 13.3333 6.40887 13.3334 6.41314C13.3333 6.41692 13.3333 6.4207 13.3333 6.42448C13.3333 6.49805 13.3363 6.57093 13.3422 6.643Z" fill="#222343"/>
<path fill-rule="evenodd" clip-rule="evenodd" d="M5.33333 29.3338C4.95556 29.3338 4.63889 29.206 4.38333 28.9505C4.12778 28.6949 4 28.3783 4 28.0005V21.3338C4 20.6005 4.26111 19.9727 4.78333 19.4505C5.30556 18.9283 5.93333 18.6671 6.66667 18.6671V13.3338C6.66667 12.6005 6.92778 11.9727 7.45 11.4505C7.97222 10.9283 8.6 10.6671 9.33333 10.6671H14.6667V9.45508C14.6667 9.45508 15.4628 9.69494 16.0094 9.69285C16.5489 9.69078 17.3333 9.45508 17.3333 9.45508V10.6671H22.6667C23.4 10.6671 24.0278 10.9283 24.55 11.4505C25.0722 11.9727 25.3333 12.6005 25.3333 13.3338V18.6671C26.0667 18.6671 26.6944 18.9283 27.2167 19.4505C27.7389 19.9727 28 20.6005 28 21.3338V28.0005C28 28.3783 27.8722 28.6949 27.6167 28.9505C27.3611 29.206 27.0444 29.3338 26.6667 29.3338H5.33333ZM9.33138 13.3359H22.6641V18.6641H9.33138V13.3359ZM25.3557 21.3369H6.63974V26.665H25.3557V21.3369Z" fill="#222343"/>
</svg>
