<svg width="32" height="32" viewBox="0 0 32 32" fill="none" xmlns="http://www.w3.org/2000/svg">
<path d="M8.86667 11.8333H13.7333C13.98 11.8333 14.18 11.7533 14.3333 11.6C14.4867 11.4467 14.5667 11.2467 14.5667 11C14.5667 10.7533 14.4867 10.5533 14.3333 10.4C14.18 10.2467 13.98 10.1667 13.7333 10.1667H8.86667C8.62 10.1667 8.42 10.2467 8.26667 10.4C8.11333 10.5533 8.03333 10.7533 8.03333 11C8.03333 11.2467 8.11333 11.4467 8.26667 11.6C8.42 11.7533 8.62 11.8333 8.86667 11.8333ZM18.4667 23.2333H23.5C23.7467 23.2333 23.9467 23.1533 24.1 23C24.2533 22.8467 24.3333 22.6467 24.3333 22.4C24.3333 22.18 24.2533 21.9867 24.1 21.8333C23.9467 21.68 23.7467 21.6 23.5 21.6H18.4667C18.22 21.6 18.02 21.68 17.8667 21.8333C17.7133 21.9867 17.6333 22.18 17.6333 22.4C17.6333 22.6467 17.7133 22.8467 17.8667 23C18.02 23.1533 18.22 23.2333 18.4667 23.2333ZM18.4667 19.6667H23.5C23.7467 19.6667 23.9467 19.5867 24.1 19.4333C24.2533 19.28 24.3333 19.08 24.3333 18.8333C24.3333 18.5867 24.2533 18.3867 24.1 18.2333C23.9467 18.08 23.7467 18 23.5 18H18.4667C18.22 18 18.02 18.08 17.8667 18.2333C17.7133 18.3867 17.6333 18.5867 17.6333 18.8333C17.6333 19.08 17.7133 19.28 17.8667 19.4333C18.02 19.5867 18.22 19.6667 18.4667 19.6667ZM11.3 24.4C11.5467 24.4 11.7467 24.32 11.9 24.1667C12.0533 24.0133 12.1333 23.8133 12.1333 23.5667V21.4667H14.2333C14.48 21.4667 14.68 21.3867 14.8333 21.2333C14.9867 21.08 15.0667 20.88 15.0667 20.6333C15.0667 20.3867 14.9867 20.1867 14.8333 20.0333C14.68 19.88 14.48 19.8 14.2333 19.8H12.1333V17.7C12.1333 17.4533 12.0533 17.2533 11.9 17.1C11.7467 16.9467 11.5467 16.8667 11.3 16.8667C11.0533 16.8667 10.8533 16.9467 10.7 17.1C10.5467 17.2533 10.4667 17.4533 10.4667 17.7V19.8H8.36667C8.12 19.8 7.92 19.88 7.76667 20.0333C7.61333 20.1867 7.53333 20.3867 7.53333 20.6333C7.53333 20.88 7.61333 21.08 7.76667 21.2333C7.92 21.3867 8.12 21.4667 8.36667 21.4667H10.4667V23.5667C10.4667 23.8133 10.5467 24.0133 10.7 24.1667C10.8533 24.32 11.0533 24.4 11.3 24.4ZM18.2667 13.6333C18.4467 13.8133 18.6467 13.9 18.8667 13.9C19.0867 13.9 19.2867 13.8133 19.4667 13.6333L20.9 12.2L22.3667 13.6667C22.52 13.82 22.7133 13.9 22.9333 13.9C23.1533 13.9 23.3533 13.8133 23.5333 13.6333C23.7133 13.4533 23.8 13.2533 23.8 13.0333C23.8 12.8133 23.7133 12.6133 23.5333 12.4333L22.1 11L23.5667 9.53333C23.72 9.38 23.8 9.18667 23.8 8.96667C23.8 8.74667 23.7133 8.54667 23.5333 8.36667C23.3533 8.18667 23.1533 8.1 22.9333 8.1C22.7133 8.1 22.5133 8.18667 22.3333 8.36667L20.9 9.8L19.4333 8.33333C19.28 8.18 19.0867 8.1 18.8667 8.1C18.6467 8.1 18.4467 8.18667 18.2667 8.36667C18.0867 8.54667 18 8.74667 18 8.96667C18 9.18667 18.0867 9.38667 18.2667 9.56667L19.7 11L18.2333 12.4667C18.08 12.62 18 12.8133 18 13.0333C18 13.2533 18.0867 13.4533 18.2667 13.6333ZM6 28C5.46667 28 5 27.8 4.6 27.4C4.2 27 4 26.5333 4 26V6C4 5.46667 4.2 5 4.6 4.6C5 4.2 5.46667 4 6 4H26C26.5333 4 27 4.2 27.4 4.6C27.8 5 28 5.46667 28 6V26C28 26.5333 27.8 27 27.4 27.4C27 27.8 26.5333 28 26 28H6Z" fill="#222343"/>
</svg>
