<svg width="32" height="32" viewBox="0 0 32 32" fill="none" xmlns="http://www.w3.org/2000/svg">
<path d="M6.16972 13.6636V18.9389C6.16972 19.3229 6.04194 19.6421 5.78639 19.8966C5.53061 20.151 5.21628 20.2782 4.84339 20.2782C4.4705 20.2782 4.15827 20.151 3.90672 19.8966C3.65494 19.6421 3.52905 19.3229 3.52905 18.9389V10.3389C3.52905 9.96778 3.65627 9.655 3.91072 9.40056C4.16516 9.14589 4.47805 9.01855 4.84939 9.01855H13.2161C13.5872 9.01855 13.9001 9.14644 14.1547 9.40222C14.4092 9.65778 14.5364 9.972 14.5364 10.3449C14.5364 10.7304 14.4092 11.049 14.1547 11.3006C13.9001 11.5523 13.5872 11.6782 13.2161 11.6782H7.94072L16.0914 19.8476L25.7261 10.2129C25.9889 9.95 26.2977 9.82411 26.6524 9.83522C27.0068 9.84633 27.3198 9.98333 27.5914 10.2462C27.8454 10.5091 27.9724 10.8178 27.9724 11.1722C27.9724 11.5269 27.8411 11.8357 27.5784 12.0986L17.9434 21.7332C17.6807 21.9961 17.3895 22.1877 17.0697 22.3079C16.7499 22.4281 16.4238 22.4882 16.0914 22.4882C15.7589 22.4882 15.4328 22.4281 15.1131 22.3079C14.7933 22.1877 14.5019 21.9961 14.2391 21.7332L6.16972 13.6636Z" fill="currentColor"/>
</svg>
