<svg width="32" height="32" viewBox="0 0 32 32" fill="none" xmlns="http://www.w3.org/2000/svg">
<path d="M6.00008 12.9664V19.0331C6.00008 19.3198 5.90674 19.5531 5.71341 19.7464C5.52007 19.9398 5.28007 20.0331 4.99341 20.0331C4.70674 20.0331 4.47341 19.9398 4.28008 19.7464C4.09341 19.5531 3.99341 19.3198 3.99341 19.0331V10.4331C3.99341 10.1464 4.08674 9.91311 4.28008 9.71977C4.47341 9.52644 4.70674 9.43311 4.99341 9.43311H13.3601C13.6467 9.43311 13.8801 9.52644 14.0734 9.71977C14.2667 9.91311 14.3601 10.1531 14.3601 10.4398C14.3601 10.7264 14.2667 10.9598 14.0734 11.1531C13.8801 11.3398 13.6467 11.4398 13.3601 11.4398H7.29341L16.1601 20.3064L25.9267 10.5398C26.1267 10.3398 26.3601 10.2464 26.6267 10.2531C26.8934 10.2598 27.1334 10.3731 27.3401 10.5731C27.5334 10.7731 27.6267 11.0064 27.6267 11.2731C27.6267 11.5398 27.5267 11.7731 27.3267 11.9731L17.5601 21.7398C17.3601 21.9398 17.1401 22.0864 16.8934 22.1731C16.6467 22.2598 16.4067 22.3064 16.1601 22.3064C15.9134 22.3064 15.6734 22.2598 15.4267 22.1731C15.1801 22.0864 14.9601 21.9398 14.7601 21.7398L5.99341 12.9731L6.00008 12.9664Z" fill="currentColor"/>
</svg>
