<svg width="32" height="32" viewBox="0 0 32 32" fill="none" xmlns="http://www.w3.org/2000/svg">
<path d="M25.8303 13.6636L17.7609 21.7332C17.498 21.9961 17.2067 22.1877 16.8869 22.3079C16.5671 22.4281 16.241 22.4882 15.9086 22.4882C15.5761 22.4882 15.25 22.4281 14.9303 22.3079C14.6105 22.1877 14.3193 21.9961 14.0566 21.7332L4.42159 12.0986C4.15892 11.8357 4.02759 11.5252 4.02759 11.1672C4.02759 10.809 4.15459 10.5002 4.40859 10.2409C4.68014 9.98155 4.99837 9.85189 5.36325 9.85189C5.72814 9.85189 6.04281 9.98333 6.30725 10.2462L15.9086 19.8476L24.0593 11.6782H18.7839C18.4128 11.6782 18.0999 11.5504 17.8453 11.2949C17.5908 11.0391 17.4636 10.7186 17.4636 10.3332C17.4636 9.96033 17.5908 9.648 17.8453 9.39622C18.0999 9.14444 18.4128 9.01855 18.7839 9.01855H27.1506C27.5219 9.01855 27.8379 9.14589 28.0986 9.40056C28.3595 9.655 28.4899 9.96778 28.4899 10.3389V18.9389C28.4899 19.3229 28.3589 19.6421 28.0969 19.8966C27.8351 20.151 27.5178 20.2782 27.1449 20.2782C26.772 20.2782 26.4597 20.151 26.2079 19.8966C25.9561 19.6421 25.8303 19.3229 25.8303 18.9389V13.6636Z" fill="currentColor"/>
</svg>
