<svg width="32" height="32" viewBox="0 0 32 32" fill="none" xmlns="http://www.w3.org/2000/svg">
<path d="M26 12.9668L17.2334 21.7334C17.0334 21.9334 16.8134 22.0801 16.5667 22.1668C16.32 22.2534 16.08 22.3001 15.8334 22.3001C15.5867 22.3001 15.3467 22.2534 15.1 22.1668C14.8534 22.0801 14.6334 21.9334 14.4334 21.7334L4.6667 11.9668C4.4667 11.7668 4.3667 11.5334 4.3667 11.2601C4.3667 10.9868 4.46003 10.7534 4.65337 10.5601C4.86003 10.3668 5.1067 10.2668 5.38003 10.2668C5.65337 10.2668 5.89337 10.3668 6.10003 10.5668L15.8334 20.3001L24.7 11.4334H18.6334C18.3467 11.4334 18.1134 11.3401 17.92 11.1468C17.7267 10.9534 17.6334 10.7134 17.6334 10.4268C17.6334 10.1401 17.7267 9.90676 17.92 9.71342C18.1134 9.52676 18.3467 9.42676 18.6334 9.42676H27C27.2867 9.42676 27.52 9.52009 27.7134 9.71342C27.9067 9.90676 28 10.1401 28 10.4268V19.0268C28 19.3134 27.9067 19.5468 27.7134 19.7401C27.52 19.9334 27.28 20.0268 26.9934 20.0268C26.7067 20.0268 26.4734 19.9334 26.28 19.7401C26.0934 19.5468 25.9934 19.3134 25.9934 19.0268V12.9601L26 12.9668Z" fill="currentColor"/>
</svg>
