<svg width="32" height="32" viewBox="0 0 32 32" fill="none" xmlns="http://www.w3.org/2000/svg">
<path d="M22.6601 9.33335C22.3734 9.33335 22.1401 9.24002 21.9467 9.04669C21.7601 8.85335 21.6601 8.62002 21.6601 8.33335V3.66669C21.6601 3.38002 21.7534 3.14669 21.9467 2.95335C22.1401 2.76002 22.3801 2.66669 22.6667 2.66669C22.9534 2.66669 23.1867 2.76002 23.3801 2.95335C23.5667 3.14669 23.6667 3.38002 23.6667 3.66669V8.33335C23.6667 8.62002 23.5734 8.85335 23.3801 9.04669C23.1867 9.24002 22.9467 9.33335 22.6601 9.33335ZM22.6601 14C22.3734 14 22.1401 13.9067 21.9467 13.7134C21.7601 13.52 21.6601 13.28 21.6601 12.9934C21.6601 12.7067 21.7534 12.4734 21.9467 12.28C22.1401 12.0934 22.3801 11.9934 22.6667 11.9934C22.9534 11.9934 23.1867 12.0867 23.3801 12.28C23.5667 12.4734 23.6667 12.7134 23.6667 13C23.6667 13.2867 23.5734 13.52 23.3801 13.7134C23.1867 13.9 22.9467 14 22.6601 14ZM26.5001 28C23.9201 28 21.2934 27.38 18.6134 26.1334C15.9334 24.8867 13.4534 23.12 11.1601 20.8334C8.86674 18.5467 7.10674 16.06 5.86007 13.38C4.61341 10.7 3.99341 8.07335 3.99341 5.49335C3.99341 5.06669 4.13341 4.70669 4.42008 4.42002C4.70674 4.13335 5.06007 3.99335 5.49341 3.99335H10.1601C10.4734 3.99335 10.7401 4.10669 10.9601 4.32669C11.1801 4.54669 11.3401 4.82669 11.4267 5.16002L12.3267 9.34669C12.3734 9.66669 12.3667 9.95335 12.3134 10.2067C12.2601 10.46 12.1401 10.68 11.9534 10.8667L8.62674 14.2267C9.20674 15.2067 9.81341 16.1134 10.4601 16.96C11.1067 17.8067 11.8134 18.6067 12.5934 19.36C13.4134 20.2067 14.2801 20.98 15.1934 21.68C16.1067 22.38 17.0601 23 18.0601 23.5334L21.2267 20.2667C21.4467 20.02 21.7067 19.8534 22.0001 19.7667C22.2934 19.68 22.5801 19.6534 22.8601 19.7L26.8267 20.5667C27.1601 20.6534 27.4401 20.8334 27.6601 21.1C27.8801 21.3667 27.9934 21.6667 27.9934 22V26.5C27.9934 26.9267 27.8534 27.2867 27.5667 27.5734C27.2801 27.86 26.9267 28 26.4934 28H26.5001Z" fill="currentColor"/>
</svg>
