<svg width="32" height="32" viewBox="0 0 32 32" fill="none" xmlns="http://www.w3.org/2000/svg">
<path d="M24.5833 15.9999C24.5833 15.4465 25.03 14.9999 25.5833 14.9999H28.5833C29.1366 14.9999 29.5833 15.4465 29.5833 15.9999C29.5833 16.5532 29.1366 16.9999 28.5833 16.9999H25.5833C25.03 16.9999 24.5833 16.5532 24.5833 15.9999ZM25.45 26.0732L23.0233 24.2665C22.5766 23.9332 22.49 23.3065 22.8233 22.8665C23.1566 22.4265 23.7766 22.3332 24.2233 22.6665L26.65 24.4732C27.0966 24.8065 27.1833 25.4332 26.85 25.8732C26.5166 26.3132 25.8966 26.4065 25.45 26.0732ZM22.9166 9.09988C22.5833 8.65988 22.6766 8.03321 23.1166 7.69988L25.45 5.93988C25.89 5.60655 26.5233 5.69321 26.85 6.13988C27.1833 6.57988 27.09 7.20655 26.65 7.53988L24.3166 9.29988C23.8766 9.63321 23.2433 9.54655 22.9166 9.09988ZM7.24996 25.3332V19.9999H4.91663C4.36329 19.9999 3.88996 19.8065 3.50329 19.4132C3.11663 19.0199 2.91663 18.5532 2.91663 17.9999V13.9999C2.91663 13.4465 3.10996 12.9732 3.50329 12.5865C3.89663 12.1999 4.36329 11.9999 4.91663 11.9999H10.9166L17.5833 7.99988V23.9999L10.9166 19.9999H9.24996V25.3332H7.24996ZM18.9166 20.4665V11.5332C19.5166 12.0665 19.9966 12.7132 20.3633 13.4799C20.73 14.2465 20.9166 15.0865 20.9166 15.9999C20.9166 16.9132 20.7366 17.7465 20.3633 18.5132C19.9966 19.2799 19.5166 19.9265 18.9166 20.4665Z" fill="#222343"/>
</svg>
