<svg width="32" height="32" viewBox="0 0 32 32" fill="none" xmlns="http://www.w3.org/2000/svg">
<path d="M23.0001 23.8333L24.9001 25.7333C25.0134 25.8466 25.1401 25.8933 25.2867 25.8866C25.4334 25.8799 25.5601 25.8133 25.6734 25.6999C25.7867 25.5866 25.8401 25.4599 25.8401 25.3133C25.8401 25.1666 25.7867 25.0399 25.6734 24.9266L23.7401 23.0266L25.7401 21.0266C25.8534 20.9133 25.9067 20.7866 25.9067 20.6399C25.9067 20.4933 25.8534 20.3666 25.7401 20.2533C25.6267 20.1399 25.5001 20.0866 25.3534 20.0866C25.2067 20.0866 25.0801 20.1399 24.9667 20.2533L23.0001 22.2199L21.0334 20.2533C20.9201 20.1399 20.8001 20.0866 20.6667 20.0866C20.5334 20.0866 20.4134 20.1399 20.3001 20.2533C20.1867 20.3666 20.1334 20.4933 20.1334 20.6399C20.1334 20.7866 20.1867 20.9133 20.3001 21.0266L22.2334 22.9933L20.3001 24.9266C20.1867 25.0399 20.1334 25.1733 20.1334 25.3266C20.1334 25.4799 20.1867 25.6133 20.3001 25.7266C20.4134 25.8399 20.5401 25.8933 20.6867 25.8933C20.8334 25.8933 20.9601 25.8399 21.0734 25.7266L23.0067 23.8266L23.0001 23.8333ZM4.00008 25.1666V19.2666C4.00008 19.0199 4.07341 18.8133 4.22007 18.6333C4.36674 18.4533 4.54674 18.3466 4.77341 18.2999L11.1734 16.7333C11.3534 16.6866 11.4934 16.5999 11.5934 16.4666C11.6934 16.3333 11.7467 16.1799 11.7467 15.9999C11.7467 15.8199 11.6934 15.6666 11.5934 15.5333C11.4934 15.3999 11.3534 15.3133 11.1734 15.2666L4.77341 13.6333C4.55341 13.5866 4.36674 13.4799 4.22007 13.2999C4.07341 13.1199 4.00008 12.9133 4.00008 12.6666V6.83327C4.00008 6.47994 4.15341 6.20661 4.45341 6.01327C4.75341 5.81994 5.07341 5.79327 5.40674 5.92661L22.2067 12.9933C22.6267 13.1733 22.8067 13.4999 22.7401 13.9799C22.6734 14.4599 22.4067 14.7199 21.9401 14.7666C21.0534 14.8799 20.2067 15.1199 19.4067 15.4866C18.6067 15.8533 17.8867 16.3466 17.2401 16.9733C16.5934 17.5733 16.0734 18.2599 15.6734 19.0266C15.2734 19.7933 14.9867 20.5999 14.8067 21.4466C14.7601 21.6666 14.6801 21.8733 14.5534 22.0666C14.4267 22.2599 14.2601 22.3933 14.0334 22.4866L5.40008 26.0866C5.06674 26.2199 4.74674 26.1933 4.44674 25.9999C4.14674 25.8066 3.99341 25.5399 3.99341 25.1799L4.00008 25.1666ZM23.0001 29.3333C21.2467 29.3333 19.7467 28.7199 18.5134 27.4999C17.2801 26.2799 16.6601 24.7866 16.6601 23.0333C16.6601 21.2799 17.2801 19.7799 18.5134 18.5333C19.7467 17.2866 21.2401 16.6666 23.0001 16.6666C24.7601 16.6666 26.2534 17.2866 27.4867 18.5333C28.7201 19.7799 29.3401 21.2799 29.3401 23.0333C29.3401 24.7866 28.7201 26.2799 27.4867 27.4999C26.2534 28.7199 24.7601 29.3333 23.0001 29.3333Z" fill="currentColor"/>
</svg>
