<svg width="32" height="32" viewBox="0 0 32 32" fill="none" xmlns="http://www.w3.org/2000/svg">
<path d="M16 17.8667L19.8666 21.7334C20.1111 21.9778 20.4222 22.1 20.8 22.1C21.1777 22.1 21.4888 21.9778 21.7333 21.7334C21.9777 21.4889 22.1 21.1778 22.1 20.8C22.1 20.4222 21.9777 20.1111 21.7333 19.8667L17.8666 16L21.7333 12.1334C21.9777 11.8889 22.1 11.5778 22.1 11.2C22.1 10.8222 21.9777 10.5111 21.7333 10.2667C21.4888 10.0222 21.1777 9.90002 20.8 9.90002C20.4222 9.90002 20.1111 10.0222 19.8666 10.2667L16 14.1334L12.1333 10.2667C11.8888 10.0222 11.5777 9.90002 11.2 9.90002C10.8222 9.90002 10.5111 10.0222 10.2666 10.2667C10.0222 10.5111 9.89996 10.8222 9.89996 11.2C9.89996 11.5778 10.0222 11.8889 10.2666 12.1334L14.1333 16L10.2666 19.8667C10.0222 20.1111 9.89996 20.4222 9.89996 20.8C9.89996 21.1778 10.0222 21.4889 10.2666 21.7334C10.5111 21.9778 10.8222 22.1 11.2 22.1C11.5777 22.1 11.8888 21.9778 12.1333 21.7334L16 17.8667ZM16 29.3334C14.1555 29.3334 12.4222 28.9834 10.8 28.2834C9.17774 27.5834 7.76663 26.6334 6.56663 25.4334C5.36663 24.2334 4.41663 22.8222 3.71663 21.2C3.01663 19.5778 2.66663 17.8445 2.66663 16C2.66663 14.1556 3.01663 12.4222 3.71663 10.8C4.41663 9.1778 5.36663 7.76669 6.56663 6.56669C7.76663 5.36669 9.17774 4.41669 10.8 3.71669C12.4222 3.01669 14.1555 2.66669 16 2.66669C17.8444 2.66669 19.5777 3.01669 21.2 3.71669C22.8222 4.41669 24.2333 5.36669 25.4333 6.56669C26.6333 7.76669 27.5833 9.1778 28.2833 10.8C28.9833 12.4222 29.3333 14.1556 29.3333 16C29.3333 17.8445 28.9833 19.5778 28.2833 21.2C27.5833 22.8222 26.6333 24.2334 25.4333 25.4334C24.2333 26.6334 22.8222 27.5834 21.2 28.2834C19.5777 28.9834 17.8444 29.3334 16 29.3334Z" fill="#222343"/>
</svg>
