<svg width="32" height="32" viewBox="0 0 32 32" fill="none" xmlns="http://www.w3.org/2000/svg">
<path d="M19.7334 3.48002C19.62 3.19335 19.44 2.96668 19.2 2.80002C18.9534 2.63335 18.68 2.54668 18.3667 2.54668H5.60004C5.30004 2.54668 5.02671 2.63335 4.77337 2.80002C4.52671 2.96668 4.34671 3.19335 4.23337 3.48002L1.56671 9.88002C1.48004 10.0667 1.42004 10.26 1.38671 10.4534C1.35337 10.6467 1.33337 10.8467 1.33337 11.0467V20.88C1.33337 21.3467 1.49337 21.74 1.82004 22.06C2.14671 22.3867 2.54004 22.5467 3.00671 22.5467C3.47337 22.5467 3.86671 22.38 4.20004 22.0534C4.53337 21.72 4.70004 21.32 4.70004 20.8467V19.88H8.13337V19.0467C8.13337 18.7734 8.16004 18.5067 8.20671 18.24C8.25337 17.9534 8.34004 17.6733 8.46671 17.4L11.1134 11.0533C11.3134 10.5267 11.6467 10.1067 12.1067 9.80002C12.56 9.50002 13.06 9.34668 13.6 9.34668H22.2067L19.7334 3.48002ZM8.20671 15.3467C7.87337 15.68 7.47337 15.8467 7.00671 15.8467C6.54004 15.8467 6.14004 15.68 5.81337 15.3467C5.49337 15.0134 5.33337 14.62 5.33337 14.1667C5.33337 13.7134 5.49337 13.3133 5.82004 12.98C6.14671 12.6467 6.54004 12.48 7.00671 12.48C7.47337 12.48 7.86671 12.6467 8.20004 12.9733C8.53337 13.3067 8.70004 13.7067 8.70004 14.18C8.70004 14.6267 8.53337 15.0134 8.20671 15.3467ZM4.30004 8.48002L5.93337 4.54668H18.0334L19.6667 8.48002H4.30004Z" fill="#222343"/>
<path d="M22.6667 5.26668C22.1134 5.26668 21.6667 4.82002 21.6667 4.26668V1.93335C21.6667 1.38002 22.1134 0.93335 22.6667 0.93335C23.22 0.93335 23.6667 1.38002 23.6667 1.93335V4.26668C23.6667 4.82002 23.22 5.26668 22.6667 5.26668Z" fill="#222343"/>
<path d="M30.3334 10.3333H28C27.4467 10.3333 27 9.88668 27 9.33335C27 8.78002 27.4467 8.33335 28 8.33335H30.3334C30.8867 8.33335 31.3334 8.78002 31.3334 9.33335C31.3334 9.88668 30.8867 10.3333 30.3334 10.3333Z" fill="#222343"/>
<path d="M26.0134 6.91335C25.76 6.91335 25.5 6.81335 25.3067 6.62002C24.9134 6.22668 24.9134 5.59335 25.3067 5.20668L26.96 3.56002C27.3534 3.16668 27.9867 3.16668 28.3734 3.56002C28.7667 3.95335 28.7667 4.58668 28.3734 4.97335L26.72 6.62002C26.5267 6.81335 26.2667 6.91335 26.0134 6.91335Z" fill="#222343"/>
<path d="M9.33337 19.0467V28.88C9.33337 29.34 9.49337 29.7334 9.82004 30.06C10.1467 30.3867 10.54 30.5467 11 30.5467C11.46 30.5467 11.86 30.38 12.1934 30.0534C12.5267 29.72 12.6934 29.32 12.6934 28.8467V27.88H27.2934V28.88C27.2934 29.34 27.4534 29.7334 27.78 30.06C28.1067 30.3867 28.5 30.5467 28.96 30.5467C29.42 30.5467 29.82 30.38 30.1534 30.0534C30.4867 29.72 30.6534 29.32 30.6534 28.8467V19.0467C30.6534 18.8467 30.6334 18.6467 30.6 18.4534C30.5667 18.26 30.5067 18.0667 30.42 17.88L27.72 11.48C27.6067 11.1933 27.4267 10.9667 27.1867 10.8C26.9467 10.6333 26.6667 10.5467 26.3534 10.5467H13.5867C13.2867 10.5467 13.0134 10.6267 12.76 10.7933C12.5067 10.96 12.3267 11.1867 12.22 11.48L9.55337 17.88C9.46671 18.0667 9.40671 18.2533 9.37337 18.4534C9.34004 18.6467 9.32004 18.8467 9.32004 19.0467H9.33337ZM23.3 22.16C23.3 21.7067 23.46 21.3134 23.7867 20.98C24.1134 20.6467 24.5067 20.48 24.9734 20.48C25.44 20.48 25.8334 20.6467 26.1667 20.9733C26.5 21.3067 26.6667 21.7067 26.6667 22.18C26.6667 22.6534 26.5 23.0133 26.1734 23.3467C25.8467 23.68 25.4467 23.8467 24.9734 23.8467C24.5 23.8467 24.1067 23.68 23.7867 23.3467C23.4667 23.0133 23.3067 22.62 23.3067 22.16H23.3ZM13.3334 22.16C13.3334 21.7067 13.4934 21.3134 13.82 20.98C14.1467 20.6467 14.54 20.48 15 20.48C15.46 20.48 15.86 20.6467 16.1934 20.9733C16.5267 21.3067 16.6934 21.7067 16.6934 22.18C16.6934 22.6534 16.5267 23.0133 16.2 23.3467C15.8734 23.68 15.4734 23.8467 15 23.8467C14.5267 23.8467 14.1334 23.68 13.8134 23.3467C13.4934 23.0133 13.3334 22.62 13.3334 22.16ZM12.3 16.48L13.9334 12.5467H26.0334L27.6667 16.48H12.3Z" fill="#222343"/>
</svg>
