<svg width="32" height="32" viewBox="0 0 32 32" fill="none" xmlns="http://www.w3.org/2000/svg">
<path d="M27.0209 5.33337H16.3876C15.9342 5.33337 15.4942 5.48671 15.1409 5.77337L3.10758 15.4C2.62758 15.78 2.35425 16.3534 2.35425 16.9667V24.6667C2.35425 25.7734 3.24758 26.6667 4.35425 26.6667H27.0209C28.1276 26.6667 29.0209 25.7734 29.0209 24.6667V7.33337C29.0209 6.23337 28.1276 5.33337 27.0209 5.33337ZM26.2743 20.3467C26.1409 20.6267 25.8542 20.8267 25.5209 20.8267H23.1876C22.7276 20.8267 22.3542 20.4534 22.3542 19.9934C22.3542 19.5334 22.7276 19.16 23.1876 19.16H25.5209C25.8542 19.16 26.1409 19.36 26.2743 19.64C26.3276 19.7467 26.3542 19.8667 26.3542 19.9934C26.3542 20.12 26.3276 20.24 26.2743 20.3467ZM26.3542 15.9734C26.3542 16.5267 25.9076 16.9734 25.3542 16.9734H9.07425C8.52092 16.9734 8.07425 16.5267 8.07425 15.9734V15.32C8.07425 15.02 8.21425 14.7267 8.44758 14.54L16.3476 8.22004C16.5276 8.08004 16.7476 8.00004 16.9742 8.00004H25.3542C25.9076 8.00004 26.3542 8.44671 26.3542 9.00004V15.9734Z" fill="#222343"/>
</svg>
