<svg width="32" height="32" viewBox="0 0 32 32" fill="none" xmlns="http://www.w3.org/2000/svg">
<path d="M20.6666 22.6667C21.2222 22.6667 21.6944 22.4722 22.0833 22.0833C22.4722 21.6944 22.6666 21.2222 22.6666 20.6667C22.6666 20.1111 22.4722 19.6389 22.0833 19.25C21.6944 18.8611 21.2222 18.6667 20.6666 18.6667C20.1111 18.6667 19.6388 18.8611 19.25 19.25C18.8611 19.6389 18.6666 20.1111 18.6666 20.6667C18.6666 21.2222 18.8611 21.6944 19.25 22.0833C19.6388 22.4722 20.1111 22.6667 20.6666 22.6667ZM8.66663 22.6667C9.22218 22.6667 9.6944 22.4722 10.0833 22.0833C10.4722 21.6944 10.6666 21.2222 10.6666 20.6667C10.6666 20.1111 10.4722 19.6389 10.0833 19.25C9.6944 18.8611 9.22218 18.6667 8.66663 18.6667C8.11107 18.6667 7.63885 18.8611 7.24996 19.25C6.86107 19.6389 6.66663 20.1111 6.66663 20.6667C6.66663 21.2222 6.86107 21.6944 7.24996 22.0833C7.63885 22.4722 8.11107 22.6667 8.66663 22.6667ZM4.66663 29.3333C4.11107 29.3333 3.63885 29.1389 3.24996 28.75C2.86107 28.3611 2.66663 27.8889 2.66663 27.3333V17.8C2.66663 17.6444 2.67774 17.4889 2.69996 17.3333C2.72218 17.1778 2.75551 17.0333 2.79996 16.9L5.46663 9.33333C5.59996 8.93333 5.83885 8.61111 6.18329 8.36667C6.52774 8.12222 6.91107 8 7.33329 8H11.9666C12.3444 8 12.6611 8.12778 12.9166 8.38333C13.1722 8.63889 13.3 8.95555 13.3 9.33333C13.3 9.71111 13.1722 10.0278 12.9166 10.2833C12.6611 10.5389 12.3444 10.6667 11.9666 10.6667H7.79996L6.39996 14.6667H14.3666C14.5666 14.6667 14.7611 14.7111 14.95 14.8C15.1388 14.8889 15.3 15.0222 15.4333 15.2C16.3222 16.2889 17.3944 17.1389 18.65 17.75C19.9055 18.3611 21.2444 18.6667 22.6666 18.6667C23.0888 18.6667 23.5 18.6389 23.9 18.5833C24.3 18.5278 24.7 18.4444 25.1 18.3333C25.4777 18.2222 25.8333 18.2833 26.1666 18.5167C26.5 18.75 26.6666 19.0556 26.6666 19.4333V27.3333C26.6666 27.8889 26.4722 28.3611 26.0833 28.75C25.6944 29.1389 25.2222 29.3333 24.6666 29.3333C24.1111 29.3333 23.6388 29.1389 23.25 28.75C22.8611 28.3611 22.6666 27.8889 22.6666 27.3333V26.6667H6.66663V27.3333C6.66663 27.8889 6.47218 28.3611 6.08329 28.75C5.6944 29.1389 5.22218 29.3333 4.66663 29.3333Z" fill="#222343"/>
<path d="M22.6666 15.9996C20.8055 15.9996 19.2291 15.3538 17.9375 14.0621C16.6458 12.7704 16 11.194 16 9.33293C16 7.76349 16.4652 6.25654 17.3958 4.8121C18.3263 3.36765 19.6041 2.10376 21.2291 1.02043C21.5347 0.812097 21.8507 0.801681 22.177 0.989181C22.5034 1.17668 22.6666 1.45793 22.6666 1.83293V2.91626C22.6666 3.38849 22.8298 3.78432 23.1562 4.10376C23.4826 4.42321 23.8819 4.58293 24.3541 4.58293C24.5902 4.58293 24.8159 4.53085 25.0312 4.42668C25.2465 4.32251 25.4375 4.17321 25.6041 3.97876C25.7152 3.83987 25.8576 3.75307 26.0312 3.71835C26.2048 3.68362 26.368 3.72182 26.5208 3.83293C27.3958 4.45793 28.0833 5.25654 28.5833 6.22876C29.0833 7.20099 29.3333 8.23571 29.3333 9.33293C29.3333 11.194 28.6875 12.7704 27.3958 14.0621C26.1041 15.3538 24.5277 15.9996 22.6666 15.9996Z" fill="#222343"/>
</svg>
