<svg width="32" height="32" viewBox="0 0 32 32" fill="none" xmlns="http://www.w3.org/2000/svg">
<path d="M24.4 9.16257C24.58 9.16257 24.72 9.10923 24.82 8.9959C24.92 8.88257 24.9733 8.74257 24.9733 8.56256V4.96257C24.9733 4.78257 24.92 4.64257 24.8067 4.54257C24.6933 4.44257 24.5533 4.38923 24.3733 4.38923C24.1933 4.38923 24.0533 4.44257 23.9533 4.5559C23.8533 4.66923 23.8 4.80923 23.8 4.98923V8.58923C23.8 8.76923 23.8533 8.90923 23.9667 9.00923C24.08 9.10923 24.22 9.16257 24.4 9.16257ZM24.3867 11.9959C24.6 11.9959 24.7733 11.9292 24.92 11.7959C25.0667 11.6626 25.14 11.4826 25.14 11.2626C25.14 11.0426 25.0667 10.8626 24.92 10.7292C24.7733 10.5959 24.6 10.5292 24.4067 10.5292C24.16 10.5492 23.98 10.6292 23.8533 10.7626C23.7267 10.8959 23.6667 11.0692 23.6667 11.2826C23.6667 11.4959 23.7333 11.6692 23.8667 11.8026C24 11.9359 24.1733 12.0026 24.3867 12.0026V11.9959ZM22.56 21.9959C23.0733 21.9959 23.5067 21.8226 23.8533 21.4692C24.2 21.1159 24.3733 20.6959 24.3733 20.1959C24.3733 19.6959 24.2 19.2359 23.8467 18.8759C23.4933 18.5159 23.0733 18.3292 22.5733 18.3292C22.0733 18.3292 21.6133 18.5092 21.2533 18.8692C20.8933 19.2292 20.7067 19.6692 20.7067 20.1892C20.7067 20.7092 20.8867 21.1359 21.2467 21.4826C21.6067 21.8292 22.0467 22.0026 22.5667 22.0026L22.56 21.9959ZM9.52667 21.9959C10.04 21.9959 10.4733 21.8226 10.82 21.4692C11.1667 21.1159 11.34 20.6959 11.34 20.1959C11.34 19.6959 11.1667 19.2359 10.8133 18.8759C10.46 18.5159 10.04 18.3292 9.54 18.3292C9.04 18.3292 8.58 18.5092 8.22 18.8692C7.86 19.2292 7.67333 19.6692 7.67333 20.1892C7.67333 20.7092 7.85333 21.1359 8.21333 21.4826C8.57333 21.8292 9.01333 22.0026 9.53333 22.0026L9.52667 21.9959ZM24.3067 14.5292C22.5467 14.5292 21.0467 13.9092 19.8 12.6626C18.5533 11.4159 17.9333 9.90923 17.9333 8.14923C17.9333 6.38923 18.5533 4.90923 19.8 3.66257C21.0467 2.4159 22.5467 1.7959 24.3 1.7959C26.0533 1.7959 27.5867 2.4159 28.82 3.64923C30.0533 4.88257 30.6733 6.38923 30.6733 8.16923C30.6733 9.94923 30.0533 11.4559 28.8133 12.6892C27.5733 13.9226 26.0733 14.5426 24.3133 14.5426L24.3067 14.5292ZM5.32667 28.4626C4.95333 28.4626 4.64 28.3359 4.38667 28.0759C4.13333 27.8159 4 27.5026 4 27.1292V16.9959C4 16.8892 4 16.7892 4.02 16.6826C4.03333 16.5759 4.06 16.4692 4.10667 16.3626L6.84 8.12923C6.95333 7.8159 7.14 7.5759 7.4 7.3959C7.66 7.2159 7.95333 7.12923 8.27333 7.12923H14.7733C15.06 7.12923 15.2933 7.22257 15.4867 7.4159C15.68 7.60923 15.7733 7.84923 15.7733 8.1359C15.7733 8.42257 15.68 8.6559 15.4867 8.84923C15.2933 9.0359 15.06 9.1359 14.7733 9.1359H8.60667L6.77333 14.6692H18.4733C18.5733 14.6692 18.68 14.6892 18.8 14.7359C18.92 14.7826 19.0333 14.8359 19.14 14.9026C19.92 15.5026 20.76 15.9626 21.66 16.2892C22.56 16.6159 23.5133 16.7759 24.5133 16.7759C24.9133 16.7759 25.3067 16.7492 25.7 16.6892C26.0933 16.6292 26.4733 16.5492 26.8533 16.4359C27.14 16.3492 27.4067 16.3826 27.6533 16.5492C27.9 16.7159 28.02 16.9426 28.02 17.2359V27.1359C28.02 27.5092 27.8867 27.8226 27.6267 28.0826C27.3667 28.3426 27.0467 28.4692 26.6733 28.4692C26.3 28.4692 25.9867 28.3426 25.7333 28.0826C25.48 27.8226 25.3467 27.5092 25.3467 27.1359V25.6692H6.66667V27.1359C6.66667 27.5092 6.53333 27.8226 6.27333 28.0826C6.01333 28.3426 5.69333 28.4692 5.32667 28.4692V28.4626Z" fill="#222343"/>
</svg>
