<svg width="32" height="32" viewBox="0 0 32 32" fill="none" xmlns="http://www.w3.org/2000/svg">
<g clip-path="url(#clip0_4027_6536)">
<path d="M4.99992 26.3333C3.97325 26.3333 3.10659 25.98 2.39325 25.2667C1.68659 24.5533 1.33325 23.6867 1.33325 22.6667V13.6667C1.33325 13.1133 1.52659 12.6467 1.91992 12.2533C2.31325 11.86 2.77992 11.6667 3.33325 11.6667H10.9999V6C10.9999 5.71333 11.0933 5.48 11.2866 5.28667C11.4799 5.09333 11.7133 5 11.9999 5H17.8999C18.9066 5 19.7666 5.35333 20.4733 6.06667C21.1799 6.78 21.5333 7.64667 21.5333 8.66667L21.5666 14.6667H23.5666V12.6667C23.5666 12.4067 23.6199 12.1533 23.7199 11.9067C23.8199 11.66 23.9599 11.4467 24.1333 11.2667L25.4999 9.86667C25.7466 9.62 26.0333 9.52 26.3666 9.56667C26.6999 9.61333 26.9466 9.78667 27.0999 10.1L31.2333 17.8667C31.4133 18.2 31.3999 18.5267 31.2066 18.8533C31.0133 19.18 30.7199 19.34 30.3333 19.34H25.5666C25.0133 19.34 24.5466 19.1467 24.1533 18.7533C23.7599 18.36 23.5666 17.8933 23.5666 17.34V16.6733H21.5666V19.84C21.9866 20.1933 22.3199 20.62 22.5533 21.1133C22.7866 21.6067 22.9066 22.1267 22.9066 22.6733C22.9066 23.6933 22.5533 24.56 21.8399 25.2733C21.1266 25.9867 20.2599 26.34 19.2399 26.34C18.4199 26.34 17.6866 26.0933 17.0533 25.6067C16.4199 25.12 15.9799 24.4867 15.7333 23.7067H8.49992C8.25325 24.4867 7.81325 25.12 7.17992 25.6067C6.54659 26.0933 5.81992 26.34 4.99325 26.34L4.99992 26.3333ZM4.99325 24.3333C5.45325 24.3333 5.85325 24.1733 6.17992 23.8533C6.50659 23.5333 6.66659 23.14 6.66659 22.6667C6.66659 22.1933 6.50659 21.8 6.18659 21.48C5.86659 21.16 5.47325 20.9933 4.99992 20.9933C4.52659 20.9933 4.13325 21.1533 3.81325 21.4733C3.49325 21.7933 3.32659 22.1867 3.32659 22.66C3.32659 23.1333 3.48659 23.5267 3.81325 23.8467C4.13992 24.1667 4.52659 24.3333 4.99325 24.3333ZM19.2266 24.3333C19.6999 24.3333 20.0933 24.1733 20.4133 23.8533C20.7333 23.5333 20.8999 23.14 20.8999 22.6667C20.8999 22.1933 20.7399 21.8 20.4199 21.48C20.0999 21.16 19.7066 20.9933 19.2333 20.9933C18.7599 20.9933 18.3666 21.1533 18.0466 21.4733C17.7266 21.7933 17.5599 22.1867 17.5599 22.66C17.5599 23.1333 17.7199 23.5267 18.0399 23.8467C18.3599 24.1667 18.7533 24.3333 19.2266 24.3333ZM28.6999 17.3333L25.8999 12.2C25.7866 12.2667 25.7066 12.3533 25.6466 12.4667C25.5866 12.58 25.5599 12.7 25.5599 12.8333V17.3333H28.6933H28.6999ZM12.9999 14.6667H19.5666V8.66667C19.5666 8.19333 19.4066 7.8 19.0866 7.48C18.7666 7.16 18.3733 7 17.8999 7H12.9999V14.6667Z" fill="currentColor"/>
</g>
<defs>
<clipPath id="clip0_4027_6536">
<rect width="32" height="32" fill="white"/>
</clipPath>
</defs>
</svg>
