<svg width="32" height="32" viewBox="0 0 32 32" fill="none" xmlns="http://www.w3.org/2000/svg">
<path d="M3.66675 27.1667C3.38008 27.1667 3.14675 27.0734 2.95341 26.88C2.76008 26.6867 2.66675 26.4534 2.66675 26.1667V18.0334C2.66675 17.7467 2.76008 17.5134 2.95341 17.32C3.14675 17.1267 3.38008 17.0334 3.66675 17.0334H11.8001C12.0867 17.0334 12.3201 17.1267 12.5134 17.32C12.7067 17.5134 12.8001 17.7467 12.8001 18.0334V26.1667C12.8001 26.4534 12.7067 26.6867 12.5134 26.88C12.3201 27.0734 12.0867 27.1667 11.8001 27.1667H3.66675ZM20.2334 13.1334H9.16675C8.78008 13.1334 8.48675 12.96 8.29341 12.6134C8.10008 12.2667 8.10008 11.9267 8.30008 11.5934L13.8667 2.69335C14.0601 2.38002 14.3401 2.22668 14.6934 2.22668C15.0467 2.22668 15.3334 2.38002 15.5334 2.69335L21.1001 11.5934C21.3001 11.9267 21.3001 12.2667 21.1067 12.6134C20.9134 12.96 20.6201 13.1334 20.2334 13.1334ZM28.3001 29.5667L25.6334 26.9334C25.1467 27.2667 24.6067 27.5267 24.0267 27.72C23.4467 27.9067 22.8334 28.0067 22.2001 28.0067C20.5534 28.0067 19.1801 27.4534 18.0667 26.34C16.9534 25.2267 16.4001 23.8534 16.4001 22.2067C16.4001 20.56 16.9534 19.1867 18.0667 18.0734C19.1801 16.96 20.5534 16.4067 22.2001 16.4067C23.8467 16.4067 25.2201 16.96 26.3334 18.0734C27.4467 19.1867 28.0001 20.56 28.0001 22.2067C28.0001 22.8267 27.9134 23.4134 27.7467 23.96C27.5801 24.5067 27.3401 25.0134 27.0334 25.48L29.7334 28.18C29.9334 28.38 30.0334 28.6134 30.0334 28.88C30.0334 29.1467 29.9334 29.38 29.7334 29.58C29.5334 29.78 29.2934 29.88 29.0134 29.88C28.7334 29.88 28.4934 29.78 28.2934 29.58L28.3001 29.5667ZM22.2001 26C23.2667 26 24.1667 25.6334 24.9001 24.9C25.6334 24.1667 26.0001 23.2667 26.0001 22.2C26.0001 21.1334 25.6334 20.2334 24.9001 19.5C24.1667 18.7667 23.2667 18.4 22.2001 18.4C21.1334 18.4 20.2334 18.7667 19.5001 19.5C18.7667 20.2334 18.4001 21.1334 18.4001 22.2C18.4001 23.2667 18.7667 24.1667 19.5001 24.9C20.2334 25.6334 21.1334 26 22.2001 26Z" fill="currentColor"/>
</svg>
