<svg width="32" height="32" viewBox="0 0 32 32" fill="none" xmlns="http://www.w3.org/2000/svg">
<path d="M2.34681 27.22L7.38014 13.22C7.49348 12.9333 7.66681 12.7066 7.90014 12.5533C8.13348 12.4 8.38681 12.32 8.65348 12.32C8.83348 12.32 9.00014 12.3533 9.15348 12.42C9.30681 12.4866 9.45348 12.5866 9.58681 12.72L18.5868 21.72C18.7201 21.8533 18.8201 22 18.8868 22.1533C18.9535 22.3066 18.9868 22.4733 18.9868 22.6533C18.9868 22.92 18.9068 23.1733 18.7535 23.4066C18.6001 23.64 18.3735 23.8133 18.0868 23.9266L4.08681 28.96C3.82014 29.0733 3.56681 29.0866 3.32014 29.0133C3.07348 28.94 2.86681 28.8066 2.68681 28.6266C2.50681 28.4466 2.38014 28.24 2.30014 27.9933C2.22014 27.7466 2.24014 27.4933 2.35348 27.2266L2.34681 27.22ZM29.4468 9.91998C29.2468 10.12 29.0135 10.22 28.7468 10.22C28.4801 10.22 28.2468 10.12 28.0468 9.91998L27.9468 9.81997C27.6335 9.50664 27.2468 9.35331 26.7801 9.35331C26.3135 9.35331 25.9268 9.50664 25.6135 9.81997L18.8468 16.5866C18.6468 16.7866 18.4135 16.8866 18.1468 16.8866C17.8801 16.8866 17.6468 16.7866 17.4468 16.5866C17.2468 16.3866 17.1468 16.1533 17.1468 15.8866C17.1468 15.62 17.2468 15.3866 17.4468 15.1866L24.2135 8.41998C24.9268 7.70664 25.7801 7.35331 26.7801 7.35331C27.7801 7.35331 28.6335 7.70664 29.3468 8.41998L29.4468 8.51998C29.6468 8.71997 29.7468 8.95331 29.7468 9.21997C29.7468 9.48664 29.6468 9.71998 29.4468 9.91998ZM12.0468 5.91998C12.2468 5.71997 12.4801 5.61998 12.7468 5.61998C13.0135 5.61998 13.2468 5.71997 13.4468 5.91998L13.6135 6.08664C14.3268 6.79998 14.6801 7.63998 14.6801 8.61998C14.6801 9.59998 14.3268 10.44 13.6135 11.1533L13.5135 11.2533C13.3135 11.4533 13.0801 11.5533 12.8135 11.5533C12.5468 11.5533 12.3135 11.4533 12.1135 11.2533C11.9135 11.0533 11.8135 10.82 11.8135 10.5533C11.8135 10.2866 11.9135 10.0533 12.1135 9.85331L12.2135 9.75331C12.5268 9.43998 12.6801 9.06664 12.6801 8.61998C12.6801 8.17331 12.5268 7.79997 12.2135 7.48664L12.0468 7.31997C11.8468 7.11997 11.7468 6.88664 11.7468 6.61998C11.7468 6.35331 11.8468 6.11998 12.0468 5.91998ZM17.4468 3.25331C17.6468 3.05331 17.8801 2.95331 18.1468 2.95331C18.4135 2.95331 18.6468 3.05331 18.8468 3.25331L20.2801 4.68664C20.9935 5.39998 21.3468 6.25331 21.3468 7.25331C21.3468 8.25331 20.9935 9.10664 20.2801 9.81997L16.1801 13.92C15.9801 14.12 15.7468 14.22 15.4801 14.22C15.2135 14.22 14.9801 14.12 14.7801 13.92C14.5801 13.72 14.4801 13.4866 14.4801 13.22C14.4801 12.9533 14.5801 12.72 14.7801 12.52L18.8801 8.41998C19.1935 8.10664 19.3468 7.71997 19.3468 7.25331C19.3468 6.78664 19.1935 6.39998 18.8801 6.08664L17.4468 4.65331C17.2468 4.45331 17.1468 4.21997 17.1468 3.95331C17.1468 3.68664 17.2468 3.45331 17.4468 3.25331ZM28.1135 19.2533C27.9135 19.4533 27.6801 19.5533 27.4135 19.5533C27.1468 19.5533 26.9135 19.4533 26.7135 19.2533L25.2801 17.82C24.9668 17.5066 24.5801 17.3533 24.1135 17.3533C23.6468 17.3533 23.2601 17.5066 22.9468 17.82L21.5135 19.2533C21.3135 19.4533 21.0801 19.5533 20.8135 19.5533C20.5468 19.5533 20.3135 19.4533 20.1135 19.2533C19.9135 19.0533 19.8135 18.82 19.8135 18.5533C19.8135 18.2866 19.9135 18.0533 20.1135 17.8533L21.5468 16.42C22.2601 15.7066 23.1135 15.3533 24.1135 15.3533C25.1135 15.3533 25.9668 15.7066 26.6801 16.42L28.1135 17.8533C28.3135 18.0533 28.4135 18.2866 28.4135 18.5533C28.4135 18.82 28.3135 19.0533 28.1135 19.2533Z" fill="#222343"/>
</svg>
