<svg width="32" height="32" viewBox="0 0 32 32" fill="none" xmlns="http://www.w3.org/2000/svg">
<path d="M26.6667 5.33325H10.6667C9.19333 5.33325 8 6.52659 8 7.99992V9.49992C8.42667 9.38659 8.87333 9.32659 9.33333 9.32659C9.56 9.32659 9.78 9.34659 10 9.37325C12.6267 9.69992 14.6667 11.9466 14.6667 14.6599C14.6667 16.4399 13.7867 18.0066 12.4467 18.9799C12.76 19.0799 13.0667 19.1999 13.36 19.3399C14.3467 19.8066 15.2067 20.4933 15.8667 21.3399H26.66C28.1333 21.3399 29.3267 20.1466 29.3267 18.6733V7.99992C29.3267 6.52659 28.1333 5.33325 26.66 5.33325H26.6667Z" fill="#222343"/>
<path d="M8.00004 18.42C8.42004 18.5667 8.86671 18.6533 9.33337 18.6533C9.56004 18.6533 9.78004 18.6267 10 18.5933C11.8934 18.2733 13.3334 16.6333 13.3334 14.6533C13.3334 12.6733 11.8934 11.0333 10 10.7133C9.78004 10.68 9.56004 10.6533 9.33337 10.6533C8.86671 10.6533 8.42004 10.74 8.00004 10.8867C6.44671 11.4333 5.33337 12.9133 5.33337 14.6533C5.33337 16.3933 6.44671 17.8733 8.00004 18.42Z" fill="#222343"/>
<path d="M14.0467 21.3333C13.0667 20.5 11.7934 20 10.3934 20H8.26669C5.17335 20 2.66669 22.4533 2.66669 25.5467C2.66669 26.1667 3.16669 26.6667 3.78669 26.6667H14.88C15.5 26.6667 16 26.16 16 25.5467C16 23.8467 15.24 22.3467 14.0467 21.3333Z" fill="#222343"/>
</svg>
