<svg width="32" height="32" viewBox="0 0 32 32" fill="none" xmlns="http://www.w3.org/2000/svg">
<path d="M27.3333 5.33325H4.66663C3.55996 5.33325 2.66663 6.22659 2.66663 7.33325V19.9666L9.95996 12.6533C10.3533 12.2599 10.9866 12.2599 11.3733 12.6533L15.9733 17.2533L21.88 11.3466H18.7133C18.16 11.3466 17.7133 10.8999 17.7133 10.3466C17.7133 9.79325 18.16 9.34659 18.7133 9.34659H24.32C24.8733 9.34659 25.32 9.79325 25.32 10.3466V15.8999C25.32 16.4533 24.8733 16.8999 24.32 16.8999C23.7666 16.8999 23.32 16.4533 23.32 15.8999V12.7333L16.68 19.3733C16.2866 19.7666 15.6533 19.7666 15.2666 19.3733L10.6666 14.7733L2.66663 22.7999V24.5666C2.66663 25.6732 3.55996 26.5666 4.66663 26.5666H27.3333C28.44 26.5666 29.3333 25.6732 29.3333 24.5666V7.33325C29.3333 6.22659 28.44 5.33325 27.3333 5.33325Z" fill="currentColor"/>
</svg>
