<svg width="32" height="32" viewBox="0 0 32 32" fill="none" xmlns="http://www.w3.org/2000/svg">
<path d="M26.667 10.6533C27.2801 10.6534 27.8335 10.8998 28.2334 11.293C28.5134 11.573 28.7203 11.9201 28.8203 12.3135C28.8736 12.4934 28.9004 12.6868 28.9004 12.8867C28.9004 13.0867 28.8736 13.28 28.8203 13.46C28.7203 13.8533 28.5134 14.2005 28.2334 14.4805C27.8268 14.8736 27.2801 15.12 26.667 15.1201C26.4201 15.1201 26.183 15.0779 25.9609 15.0039L20.7832 20.1816C20.7964 20.2228 20.8096 20.2644 20.8203 20.3066C20.8736 20.4866 20.9004 20.68 20.9004 20.8799C20.9004 21.0798 20.8736 21.2732 20.8203 21.4531C20.7203 21.8465 20.5134 22.1936 20.2334 22.4736C19.8268 22.8668 19.2801 23.1132 18.667 23.1133C17.4337 23.1133 16.4336 22.1132 16.4336 20.8799C16.4336 20.6352 16.4741 20.4 16.5469 20.1797L14.0322 17.666C13.8129 17.7386 13.5784 17.7803 13.333 17.7803C13.0882 17.7802 12.8532 17.7389 12.6328 17.666L7.44824 22.8506C7.46193 22.8931 7.47522 22.9358 7.48633 22.9795C7.53962 23.1594 7.56637 23.3529 7.56641 23.5527C7.56641 23.7527 7.53966 23.947 7.48633 24.127C7.38629 24.52 7.18019 24.8666 6.90039 25.1465C6.49372 25.5398 5.94634 25.7861 5.33301 25.7861C4.09987 25.7859 3.09961 24.7859 3.09961 23.5527C3.09984 22.3197 4.10001 21.3205 5.33301 21.3203C5.57979 21.3203 5.81681 21.3612 6.03809 21.4346L11.2168 16.2559C11.1421 16.0329 11.1006 15.7949 11.1006 15.5469C11.1006 14.3137 12.0999 13.3137 13.333 13.3135C13.9463 13.3135 14.5004 13.5598 14.9004 13.9531C15.1804 14.2331 15.3863 14.5803 15.4863 14.9736C15.5397 15.1536 15.5664 15.3469 15.5664 15.5469C15.5664 15.7469 15.5397 15.9401 15.4863 16.1201C15.4748 16.1654 15.4616 16.2099 15.4473 16.2539L17.957 18.7627C18.1801 18.688 18.4188 18.6465 18.667 18.6465C18.9154 18.6465 19.1535 18.6884 19.376 18.7627L24.5479 13.5898C24.4745 13.3686 24.4336 13.1325 24.4336 12.8867C24.4336 11.6534 25.4337 10.6533 26.667 10.6533Z" fill="currentColor"/>
<path d="M6.68652 12.9805C6.77314 12.9805 6.8665 13.0003 6.95312 13.0469C7.03979 13.0935 7.10665 13.1669 7.15332 13.2803L7.71973 14.5137L8.95312 15.0801C9.13312 15.1667 9.21973 15.3269 9.21973 15.5469C9.21967 15.7668 9.13306 15.927 8.95312 16.0137L7.71973 16.5801L7.15332 17.8135C7.10666 17.9267 7.03974 18.0002 6.95312 18.0469C6.86656 18.0934 6.77307 18.1133 6.68652 18.1133C6.59993 18.1132 6.5065 18.0935 6.41992 18.0469C6.33328 18.0002 6.26638 17.9268 6.21973 17.8135L5.65332 16.5801L4.41992 16.0137C4.30662 15.967 4.23318 15.9001 4.18652 15.8135C4.1399 15.7269 4.12015 15.6335 4.12012 15.5469C4.12012 15.4603 4.13999 15.3668 4.18652 15.2803C4.23316 15.1937 4.3067 15.1267 4.41992 15.0801L5.65332 14.5137L6.21973 13.2803C6.26635 13.167 6.33338 13.0935 6.41992 13.0469C6.5065 13.0003 6.59993 12.9805 6.68652 12.9805Z" fill="currentColor"/>
<path d="M20.6533 6.21973C20.74 6.21973 20.8333 6.24044 20.9199 6.28711C21.0066 6.33378 21.0735 6.40718 21.1201 6.52051L21.8867 8.18652L23.5537 8.95312C23.667 8.99979 23.7405 9.06669 23.7871 9.15332C23.8337 9.23989 23.8535 9.33334 23.8535 9.41992C23.8535 9.50644 23.8336 9.59998 23.7871 9.68652C23.7405 9.7731 23.6668 9.84006 23.5537 9.88672L21.8867 10.6533L21.1201 12.3203C21.0735 12.4336 21.0066 12.5071 20.9199 12.5537C20.8333 12.6003 20.7399 12.6201 20.6533 12.6201C20.5667 12.6201 20.4733 12.6003 20.3867 12.5537C20.3001 12.507 20.2332 12.4336 20.1865 12.3203L19.4199 10.6533L17.7529 9.88672C17.6398 9.84006 17.5671 9.77308 17.5205 9.68652C17.4739 9.59988 17.4531 9.50656 17.4531 9.41992C17.4532 9.33334 17.4739 9.23989 17.5205 9.15332C17.5672 9.06689 17.6399 8.99972 17.7529 8.95312L19.4199 8.18652L20.1865 6.52051C20.2332 6.40721 20.3001 6.33378 20.3867 6.28711C20.4734 6.24045 20.5667 6.21973 20.6533 6.21973Z" fill="currentColor"/>
</svg>
