<svg width="32" height="32" viewBox="0 0 32 32" fill="none" xmlns="http://www.w3.org/2000/svg">
<path d="M27.3333 26.6667H4.66663C3.55996 26.6667 2.66663 25.7734 2.66663 24.6667V12.0333L9.95996 19.3467C10.3533 19.74 10.9866 19.74 11.3733 19.3467L15.9733 14.7467L21.88 20.6534H18.7133C18.16 20.6534 17.7133 21.1 17.7133 21.6534C17.7133 22.2067 18.16 22.6534 18.7133 22.6534H24.32C24.8733 22.6534 25.32 22.2067 25.32 21.6534V16.1C25.32 15.5467 24.8733 15.1 24.32 15.1C23.7666 15.1 23.32 15.5467 23.32 16.1V19.2667L16.68 12.6267C16.2866 12.2334 15.6533 12.2334 15.2666 12.6267L10.6666 17.2267L2.66663 9.20002V7.43335C2.66663 6.32668 3.55996 5.43335 4.66663 5.43335H27.3333C28.44 5.43335 29.3333 6.32668 29.3333 7.43335V24.6733C29.3333 25.78 28.44 26.6733 27.3333 26.6733V26.6667Z" fill="currentColor"/>
</svg>
