<svg width="32" height="32" viewBox="0 0 32 32" fill="none" xmlns="http://www.w3.org/2000/svg">
<path d="M28.333 8C29.6216 8 30.6668 9.04449 30.667 10.333C30.667 11.6217 29.6217 12.667 28.333 12.667C28.0582 12.667 27.7957 12.6156 27.5508 12.5283L22.1953 17.8828C22.2828 18.1279 22.333 18.3909 22.333 18.666C22.333 19.9547 21.2887 21 20 21C18.7114 21 17.667 19.9547 17.667 18.666C17.667 18.3899 17.7166 18.1257 17.8047 17.8799L14.124 14.1924C13.8768 14.2816 13.611 14.334 13.333 14.334C13.0578 14.3339 12.7949 14.2828 12.5498 14.1953L5.8623 20.8838C5.94956 21.1286 5.99996 21.3913 6 21.666C6 22.9545 4.95547 23.9998 3.66699 24C2.37833 24 1.33301 22.9547 1.33301 21.666C1.33318 20.3775 2.37844 19.333 3.66699 19.333C3.94099 19.3331 4.20303 19.3829 4.44727 19.4697L11.1348 12.7783C11.0486 12.5348 11 12.273 11 12C11.0002 10.7116 12.0446 9.66717 13.333 9.66699C14.6216 9.66699 15.6668 10.7115 15.667 12C15.667 12.271 15.6172 12.5305 15.5322 12.7725L19.2188 16.4697C19.4632 16.3828 19.7257 16.333 20 16.333C20.2743 16.333 20.5368 16.3828 20.7812 16.4697L26.1348 11.1113C26.0486 10.8678 26 10.606 26 10.333C26.0002 9.0446 27.0446 8.00018 28.333 8Z" fill="currentColor"/>
</svg>
