<svg width="32" height="32" viewBox="0 0 32 32" fill="none" xmlns="http://www.w3.org/2000/svg">
<path d="M9.00002 18.7H17.4667C17.7334 18.7 17.96 18.6067 18.1467 18.42C18.3334 18.2334 18.4267 17.9934 18.4267 17.7C18.4267 17.4067 18.3334 17.1734 18.1467 16.98C17.96 16.7867 17.72 16.6934 17.4267 16.7H8.96002C8.69335 16.7 8.46669 16.7934 8.28002 16.98C8.09335 17.1667 7.99335 17.4067 7.99335 17.7C7.99335 17.9934 8.08669 18.2267 8.28002 18.42C8.46669 18.6067 8.70669 18.7 8.99335 18.7H9.00002ZM9.00002 14.3667H23.0334C23.3 14.3667 23.5267 14.2734 23.72 14.0867C23.9134 13.9 24 13.66 24 13.3667C24 13.0734 23.9067 12.84 23.72 12.6467C23.5334 12.46 23.2934 12.3667 23 12.3667H8.96669C8.70002 12.3667 8.47335 12.46 8.28669 12.6467C8.10002 12.8334 8.00002 13.0734 8.00002 13.3667C8.00002 13.66 8.09335 13.8934 8.28669 14.0867C8.47335 14.2734 8.71335 14.3667 9.00002 14.3667ZM9.00002 10.0334H23.0334C23.3 10.0334 23.5267 9.94002 23.72 9.74669C23.9067 9.56002 24 9.32002 24 9.03335C24 8.74669 23.9067 8.50669 23.72 8.32002C23.5334 8.13335 23.2934 8.03335 23 8.03335H8.96669C8.70002 8.03335 8.47335 8.12669 8.28669 8.32002C8.10002 8.50669 8.00002 8.74669 8.00002 9.03335C8.00002 9.32002 8.09335 9.56002 8.28669 9.74669C8.47335 9.93335 8.71335 10.0334 9.00002 10.0267V10.0334ZM2.66669 26.9334V4.66669C2.66669 4.15335 2.86669 3.69335 3.26669 3.28669C3.66669 2.87335 4.13335 2.66669 4.66669 2.66669H27.3334C27.8467 2.66669 28.3067 2.87335 28.72 3.28669C29.1334 3.70002 29.3334 4.16002 29.3334 4.66669V22C29.3334 22.5134 29.1267 22.9734 28.72 23.3867C28.3067 23.8 27.8467 24 27.3334 24H8.00002L4.36669 27.6334C4.05335 27.9467 3.69335 28.02 3.28669 27.8534C2.87335 27.6867 2.66669 27.38 2.66669 26.9334Z" fill="#222343"/>
</svg>
