<svg width="32" height="32" viewBox="0 0 32 32" fill="none" xmlns="http://www.w3.org/2000/svg">
<path d="M10.6666 18.6666H21.3332V18.0333C21.3332 17.1 20.8599 16.38 19.9132 15.8666C18.9666 15.3533 17.6599 15.1 15.9932 15.1C14.3266 15.1 13.0199 15.3533 12.0732 15.8666C11.1266 16.38 10.6532 17.1 10.6532 18.0333V18.6666H10.6666ZM15.9999 12.9C16.6866 12.9 17.2732 12.66 17.7532 12.18C18.2332 11.7 18.4732 11.12 18.4732 10.4266C18.4732 9.73329 18.2332 9.15329 17.7532 8.67329C17.2732 8.19329 16.6932 7.95329 15.9999 7.95329C15.3066 7.95329 14.7266 8.19329 14.2466 8.67329C13.7666 9.15329 13.5266 9.73329 13.5266 10.4266C13.5266 11.12 13.7666 11.7 14.2466 12.18C14.7266 12.66 15.3066 12.9 15.9999 12.9ZM7.99991 24L4.36658 27.6333C4.05325 27.9466 3.69325 28.02 3.27991 27.8533C2.86658 27.6866 2.65991 27.38 2.65991 26.9333V4.66663C2.65991 4.13329 2.85991 3.66663 3.25991 3.26663C3.65991 2.86663 4.12658 2.66663 4.65991 2.66663H27.3266C27.8599 2.66663 28.3266 2.86663 28.7266 3.26663C29.1266 3.66663 29.3266 4.13329 29.3266 4.66663V22C29.3266 22.5333 29.1266 23 28.7266 23.4C28.3266 23.8 27.8599 24 27.3266 24H7.99991Z" fill="currentColor"/>
</svg>
