<svg width="32" height="32" viewBox="0 0 32 32" fill="none" xmlns="http://www.w3.org/2000/svg">
<path d="M7.47531 21.5809L12.497 16.5406C12.7599 16.2777 13.0718 16.1518 13.4326 16.1629C13.7935 16.1741 14.116 16.3111 14.4 16.5739C14.6542 16.8366 14.7781 17.1453 14.7716 17.4999C14.7654 17.8546 14.6309 18.1633 14.368 18.4259L8.40131 24.3739C8.13865 24.6366 7.82687 24.7712 7.46598 24.7776C7.10509 24.7838 6.7932 24.6555 6.53031 24.3926L3.21598 21.0593C2.94065 20.7966 2.80298 20.4879 2.80298 20.1333C2.80298 19.7786 2.94065 19.4699 3.21598 19.2073C3.47865 18.9444 3.78731 18.8185 4.14198 18.8296C4.49665 18.8407 4.80531 18.9666 5.06798 19.2073L7.47531 21.5809ZM7.47531 10.9143L12.497 5.87395C12.7599 5.61106 13.0718 5.48517 13.4326 5.49628C13.7935 5.50739 14.116 5.64439 14.4 5.90728C14.6542 6.16995 14.7781 6.47861 14.7716 6.83328C14.7654 7.18795 14.6309 7.49662 14.368 7.75928L8.40131 13.7073C8.13865 13.9699 7.82687 14.1045 7.46598 14.1109C7.10509 14.1172 6.7932 13.9888 6.53031 13.7259L3.21598 10.3926C2.94065 10.1299 2.80298 9.82128 2.80298 9.46661C2.80298 9.11195 2.94065 8.80328 3.21598 8.54061C3.47865 8.27772 3.78731 8.15184 4.14198 8.16295C4.49665 8.17406 4.80531 8.29995 5.06798 8.54061L7.47531 10.9143ZM18.729 22.6536C18.3576 22.6536 18.0448 22.5258 17.7903 22.2703C17.5359 22.0147 17.4086 21.7004 17.4086 21.3273C17.4086 20.9544 17.5359 20.6422 17.7903 20.3906C18.0448 20.1388 18.3576 20.0129 18.729 20.0129H28.4086C28.78 20.0129 29.0929 20.1407 29.3473 20.3963C29.6018 20.6518 29.729 20.9662 29.729 21.3393C29.729 21.7122 29.6018 22.0244 29.3473 22.2759C29.0929 22.5277 28.78 22.6536 28.4086 22.6536H18.729ZM18.729 11.9869C18.3576 11.9869 18.0448 11.8592 17.7903 11.6036C17.5359 11.3481 17.4086 11.0337 17.4086 10.6606C17.4086 10.2877 17.5359 9.9755 17.7903 9.72395C18.0448 9.47217 18.3576 9.34628 18.729 9.34628H28.4086C28.78 9.34628 29.0929 9.47406 29.3473 9.72962C29.6018 9.98517 29.729 10.2995 29.729 10.6726C29.729 11.0455 29.6018 11.3577 29.3473 11.6093C29.0929 11.8611 28.78 11.9869 28.4086 11.9869H18.729Z" fill="currentColor"/>
</svg>
