<svg width="32" height="32" viewBox="0 0 32 32" fill="none" xmlns="http://www.w3.org/2000/svg">
<path d="M12.7334 19.5593L23.6944 8.59865C24.0488 8.24398 24.4666 8.06665 24.9477 8.06665C25.429 8.06665 25.8469 8.24398 26.2014 8.59865C26.556 8.9531 26.7334 9.37332 26.7334 9.85932C26.7334 10.3453 26.556 10.7657 26.2014 11.1203L13.987 23.3493C13.6324 23.704 13.2145 23.8813 12.7334 23.8813C12.2523 23.8813 11.8344 23.704 11.4797 23.3493L5.78404 17.6537C5.42938 17.299 5.25449 16.8787 5.25938 16.3927C5.26427 15.9067 5.44404 15.4864 5.79871 15.132C6.15316 14.7773 6.57338 14.6 7.05938 14.6C7.54538 14.6 7.96571 14.7773 8.32038 15.132L12.7334 19.5593Z" fill="#222343"/>
</svg>
