<svg width="32" height="32" viewBox="0 0 32 32" fill="none" xmlns="http://www.w3.org/2000/svg">
<path d="M14.0334 19.0334L10.7667 15.7667C10.5667 15.5667 10.32 15.4667 10.0334 15.4667C9.74669 15.4667 9.50002 15.5667 9.30002 15.7667C9.08002 15.9867 8.96669 16.2534 8.96669 16.5467C8.96669 16.8467 9.06669 17.1 9.26669 17.2934L13.3334 21.36C13.5134 21.54 13.7467 21.6267 14.0334 21.6267C14.32 21.6267 14.5534 21.54 14.7334 21.36L22.7334 13.36C22.9334 13.16 23.0334 12.9134 23.0334 12.6267C23.0334 12.34 22.92 12.08 22.7 11.86C22.5 11.66 22.2534 11.56 21.9534 11.56C21.6534 11.56 21.3934 11.6734 21.1734 11.8934L14.04 19.0267L14.0334 19.0334ZM16 29.3334C14.1134 29.3334 12.3534 28.9934 10.7334 28.3134C9.11335 27.6334 7.70002 26.7 6.50002 25.5C5.30002 24.3 4.36002 22.8867 3.68669 21.2667C3.00669 19.6467 2.66669 17.8867 2.66669 16C2.66669 14.1134 3.00669 12.3867 3.68669 10.7667C4.36669 9.14669 5.30669 7.73335 6.50002 6.53335C7.70002 5.33335 9.11335 4.38669 10.7334 3.70002C12.3534 3.01335 14.1134 2.66669 16 2.66669C17.8867 2.66669 19.6134 3.01335 21.2334 3.70002C22.8534 4.38669 24.2667 5.33335 25.4667 6.53335C26.6667 7.73335 27.6134 9.14669 28.3 10.7667C28.9867 12.3867 29.3334 14.1334 29.3334 16C29.3334 17.8667 28.9867 19.6467 28.3 21.2667C27.6134 22.8867 26.6667 24.3 25.4667 25.5C24.2667 26.7 22.8534 27.64 21.2334 28.3134C19.6134 28.9934 17.8667 29.3334 16 29.3334Z" fill="#222343"/>
</svg>
