<svg width="32" height="32" viewBox="0 0 32 32" fill="none" xmlns="http://www.w3.org/2000/svg">
<path d="M20.7172 28.6332L9.01719 16.9332C8.88385 16.7999 8.78385 16.6555 8.71719 16.4999C8.65052 16.3443 8.61719 16.1777 8.61719 15.9999C8.61719 15.8221 8.65052 15.6555 8.71719 15.4999C8.78385 15.3443 8.88385 15.1999 9.01719 15.0666L20.7172 3.36657C21.0283 3.05546 21.4172 2.8999 21.8839 2.8999C22.3505 2.8999 22.7283 3.05546 23.0172 3.36657C23.3505 3.67768 23.5172 4.06657 23.5172 4.53324C23.5172 4.9999 23.3505 5.3999 23.0172 5.73324L12.7505 15.9999L23.0172 26.2666C23.3505 26.5999 23.5172 26.9943 23.5172 27.4499C23.5172 27.9055 23.3616 28.2888 23.0505 28.5999C22.7172 28.9332 22.3227 29.0999 21.8672 29.0999C21.4116 29.0999 21.0283 28.9443 20.7172 28.6332Z" fill="#222343"/>
</svg>
