<svg width="32" height="32" viewBox="0 0 32 32" fill="none" xmlns="http://www.w3.org/2000/svg">
<path d="M15.98 20.3133C15.8467 20.3133 15.7267 20.2933 15.6133 20.2467C15.5 20.2 15.3933 20.1267 15.28 20.0133L8.67999 13.4133C8.49999 13.2333 8.41999 13 8.42665 12.6933C8.43999 12.3933 8.53332 12.1533 8.71332 11.9733C8.93332 11.7533 9.17332 11.6533 9.42665 11.6933C9.67999 11.7333 9.91332 11.8333 10.1067 12.0133L15.9733 17.88L21.84 12.0133C22.02 11.8333 22.2533 11.7333 22.56 11.7133C22.86 11.6933 23.1 11.7933 23.28 12.0133C23.5 12.1933 23.5933 12.4267 23.56 12.7133C23.5267 13 23.42 13.2467 23.2467 13.4467L16.68 20.0133C16.5667 20.1267 16.46 20.2 16.3467 20.2467C16.2333 20.2933 16.1133 20.3133 15.98 20.3133Z" fill="#222343"/>
</svg>
