<svg width="32" height="32" viewBox="0 0 32 32" fill="none" xmlns="http://www.w3.org/2000/svg">
<path d="M8.73336 19.7667C8.53336 19.5667 8.42669 19.3333 8.41336 19.0667C8.40002 18.8 8.49336 18.5667 8.70002 18.3667L15.3 11.7667C15.4134 11.6533 15.52 11.58 15.6334 11.5333C15.7467 11.4867 15.8667 11.4667 16 11.4667C16.1334 11.4667 16.2534 11.4867 16.3667 11.5333C16.48 11.58 16.5867 11.6533 16.7 11.7667L23.3 18.3333C23.5 18.5133 23.6 18.74 23.6 19.0133C23.6 19.2867 23.5 19.5333 23.3 19.7333C23.1 19.9333 22.86 20.0333 22.58 20.0333C22.3 20.0333 22.06 19.9333 21.8667 19.7333L16 13.9L10.1334 19.8C9.95336 20 9.72669 20.0933 9.45336 20.08C9.17336 20.0667 8.94002 19.96 8.74002 19.76L8.73336 19.7667Z" fill="#222343"/>
</svg>
