<svg width="32" height="32" viewBox="0 0 32 32" fill="none" xmlns="http://www.w3.org/2000/svg">
<path d="M9.26 28.3C9.01333 28.0333 8.88667 27.72 8.88 27.3667C8.86667 27.0133 9 26.7 9.26 26.4333L19.76 15.9333L9.26 5.43333C9.01333 5.18666 8.88667 4.88 8.88 4.51333C8.86667 4.14666 9 3.83333 9.26 3.56C9.50667 3.29333 9.80667 3.15333 10.18 3.14666C10.5467 3.13333 10.86 3.26666 11.1333 3.53333L22.8333 15.2333C22.9467 15.3467 23.02 15.4533 23.0667 15.5667C23.1133 15.68 23.1333 15.8 23.1333 15.9333C23.1333 16.0667 23.1133 16.1867 23.0667 16.3C23.02 16.4133 22.9467 16.52 22.8333 16.6333L11.1333 28.3333C10.8867 28.58 10.5867 28.7 10.2133 28.7C9.84 28.7 9.52667 28.5667 9.26 28.3Z" fill="#222343"/>
</svg>
