<svg width="32" height="32" viewBox="0 0 32 32" fill="none" xmlns="http://www.w3.org/2000/svg">
<path d="M20.8666 28.4L9.16664 16.7C9.0533 16.5867 8.97997 16.48 8.9333 16.3667C8.88664 16.2533 8.86664 16.1333 8.86664 16C8.86664 15.8667 8.88664 15.7467 8.9333 15.6333C8.97997 15.52 9.0533 15.4133 9.16664 15.3L20.8666 3.6C21.1133 3.35334 21.42 3.23334 21.8 3.23334C22.18 3.23334 22.4866 3.35334 22.7333 3.6C23 3.86667 23.1333 4.18667 23.1333 4.54667C23.1333 4.90667 23 5.23334 22.7333 5.5L12.2333 16L22.7333 26.5C23 26.7667 23.1266 27.0867 23.12 27.4467C23.1066 27.8133 22.98 28.12 22.7333 28.3667C22.4666 28.6333 22.1466 28.7667 21.7866 28.7667C21.4266 28.7667 21.1133 28.6467 20.8666 28.4Z" fill="#222343"/>
</svg>
