<svg width="32" height="32" viewBox="0 0 32 32" fill="none" xmlns="http://www.w3.org/2000/svg">
<path d="M16 20.3999C15.8222 20.3999 15.6556 20.3666 15.5 20.2999C15.3445 20.2333 15.2 20.1333 15.0667 19.9999L8.46669 13.3999C8.22225 13.1555 8.10558 12.8444 8.11669 12.4666C8.1278 12.0888 8.25558 11.7777 8.50002 11.5333C8.78891 11.2444 9.10558 11.1166 9.45002 11.1499C9.79447 11.1833 10.1 11.3222 10.3667 11.5666L16 17.1999L21.6334 11.5666C21.8778 11.3222 22.1945 11.1888 22.5834 11.1666C22.9722 11.1444 23.2889 11.2777 23.5334 11.5666C23.8222 11.8111 23.95 12.1166 23.9167 12.4833C23.8834 12.8499 23.7445 13.1666 23.5 13.4333L16.9334 19.9999C16.8 20.1333 16.6556 20.2333 16.5 20.2999C16.3445 20.3666 16.1778 20.3999 16 20.3999Z" fill="#222343"/>
</svg>
