<svg width="32" height="32" viewBox="0 0 32 32" fill="none" xmlns="http://www.w3.org/2000/svg">
<path d="M3.33285 8.94993C3.66618 8.63882 4.05507 8.47771 4.49951 8.4666C4.94396 8.45549 5.33285 8.6166 5.66618 8.94993L15.9328 19.2166L26.1995 8.94993C26.5106 8.63882 26.894 8.47771 27.3495 8.4666C27.8051 8.45549 28.1995 8.6166 28.5328 8.94993C28.8662 9.23882 29.0384 9.6166 29.0495 10.0833C29.0606 10.5499 28.8995 10.9388 28.5662 11.2499L16.8662 22.9833C16.7328 23.1166 16.5884 23.2166 16.4328 23.2833C16.2773 23.3499 16.1106 23.3833 15.9328 23.3833C15.7551 23.3833 15.5884 23.3499 15.4328 23.2833C15.2773 23.2166 15.1328 23.1166 14.9995 22.9833L3.29951 11.2833C2.9884 10.9722 2.83285 10.5888 2.83285 10.1333C2.83285 9.67771 2.99951 9.28327 3.33285 8.94993Z" fill="#222343"/>
</svg>
