<svg width="32" height="32" viewBox="0 0 32 32" fill="none" xmlns="http://www.w3.org/2000/svg">
<path d="M8.49997 19.9666C8.23331 19.7 8.09442 19.3889 8.08331 19.0333C8.0722 18.6777 8.19997 18.3777 8.46664 18.1333L15.0666 11.5333C15.2 11.4 15.3444 11.3 15.5 11.2333C15.6555 11.1666 15.8222 11.1333 16 11.1333C16.1778 11.1333 16.3444 11.1666 16.5 11.2333C16.6555 11.3 16.8 11.4 16.9333 11.5333L23.5333 18.1C23.8 18.3444 23.9333 18.65 23.9333 19.0166C23.9333 19.3833 23.8 19.6889 23.5333 19.9333C23.2666 20.2 22.95 20.3333 22.5833 20.3333C22.2166 20.3333 21.9 20.2 21.6333 19.9333L16 14.3333L10.3666 20C10.1222 20.2666 9.81664 20.3944 9.44997 20.3833C9.08331 20.3722 8.76664 20.2333 8.49997 19.9666Z" fill="#222343"/>
</svg>
