<svg width="32" height="32" viewBox="0 0 32 32" fill="none" xmlns="http://www.w3.org/2000/svg">
<path d="M15.9921 15.0007C16.1698 15.0007 16.3365 15.0337 16.4921 15.1003C16.6476 15.167 16.7923 15.2668 16.9257 15.4001L23.5253 21.9666C23.7919 22.211 23.9256 22.5169 23.9257 22.8835C23.9257 23.2502 23.7919 23.5561 23.5253 23.8005C23.2586 24.0671 22.9416 24.2 22.5751 24.2C22.2087 24.1999 21.8924 24.0669 21.6258 23.8005L15.9921 18.2L10.3592 23.8669C10.1148 24.1336 9.80886 24.2608 9.44225 24.2498C9.07562 24.2386 8.75871 24.1004 8.49206 23.8337C8.22539 23.5671 8.08618 23.2557 8.07507 22.9001C8.06398 22.5446 8.19222 22.2442 8.45886 21.9998L15.0585 15.4001C15.1918 15.2668 15.3365 15.167 15.4921 15.1003C15.6476 15.0337 15.8143 15.0007 15.9921 15.0007Z" fill="currentColor"/>
<path d="M15.9921 7.74976C16.1698 7.74976 16.3366 7.78275 16.4921 7.84937C16.6476 7.91603 16.7923 8.01681 16.9257 8.15015L23.5253 14.7166C23.7919 14.961 23.9257 15.2669 23.9257 15.6335C23.9255 16 23.7918 16.3052 23.5253 16.5496C23.2586 16.8162 22.9417 16.95 22.5751 16.95C22.2086 16.9499 21.8924 16.8161 21.6258 16.5496L15.9921 10.95L10.3592 16.616C10.1148 16.8826 9.80885 17.0108 9.44225 16.9998C9.07559 16.9886 8.75873 16.8494 8.49206 16.5828C8.2256 16.3162 8.08626 16.0055 8.07507 15.6501C8.06396 15.2946 8.19219 14.9942 8.45886 14.7498L15.0585 8.15015C15.1918 8.01681 15.3365 7.91603 15.4921 7.84937C15.6476 7.78274 15.8143 7.74976 15.9921 7.74976Z" fill="currentColor"/>
</svg>
