<svg width="32" height="32" viewBox="0 0 32 32" fill="none" xmlns="http://www.w3.org/2000/svg">
<path d="M17.7333 23.5L11.1333 16.9C11 16.7667 10.9 16.6222 10.8333 16.4667C10.7667 16.3111 10.7333 16.1444 10.7333 15.9667C10.7333 15.7889 10.7667 15.6222 10.8333 15.4667C10.9 15.3111 11 15.1667 11.1333 15.0333L17.7667 8.4C18.0333 8.13333 18.35 8 18.7167 8C19.0833 8 19.4 8.13333 19.6667 8.4C19.9333 8.66667 20.0611 8.98889 20.05 9.36667C20.0389 9.74444 19.9 10.0667 19.6333 10.3333L14 15.9667L19.6667 21.6333C19.9333 21.9 20.0667 22.2111 20.0667 22.5667C20.0667 22.9222 19.9333 23.2333 19.6667 23.5C19.4 23.7667 19.0778 23.9 18.7 23.9C18.3222 23.9 18 23.7667 17.7333 23.5Z" fill="#222343"/>
</svg>
