<svg width="32" height="32" viewBox="0 0 32 32" fill="none" xmlns="http://www.w3.org/2000/svg">
<path d="M28.55 22.8994C28.2167 23.2105 27.8278 23.3717 27.3834 23.3828C26.9389 23.3939 26.55 23.2328 26.2167 22.8994L15.95 12.6328L5.68336 22.8994C5.37225 23.2105 4.98892 23.3717 4.53336 23.3828C4.07781 23.3939 3.68336 23.2328 3.35003 22.8994C3.0167 22.6105 2.84447 22.2328 2.83336 21.7661C2.82225 21.2994 2.98336 20.9105 3.3167 20.5994L15.0167 8.8661C15.15 8.73276 15.2945 8.63276 15.45 8.5661C15.6056 8.49943 15.7723 8.4661 15.95 8.4661C16.1278 8.4661 16.2945 8.49943 16.45 8.5661C16.6056 8.63276 16.75 8.73276 16.8834 8.8661L28.5834 20.5661C28.8945 20.8772 29.05 21.2605 29.05 21.7161C29.05 22.1717 28.8834 22.5661 28.55 22.8994Z" fill="#222343"/>
</svg>
