<svg width="32" height="32" viewBox="0 0 32 32" fill="none" xmlns="http://www.w3.org/2000/svg">
<path d="M11.5667 23.4999C11.3222 23.2111 11.1945 22.8888 11.1833 22.5333C11.1722 22.1777 11.3 21.8666 11.5667 21.5999L17.2 15.9666L11.5333 10.2999C11.2889 10.0555 11.1722 9.73884 11.1833 9.34995C11.1945 8.96106 11.3222 8.64439 11.5667 8.39995C11.8556 8.11106 12.1722 7.97217 12.5167 7.98328C12.8611 7.99439 13.1667 8.13328 13.4333 8.39995L20.0667 15.0333C20.2 15.1666 20.3 15.3111 20.3667 15.4666C20.4333 15.6222 20.4667 15.7888 20.4667 15.9666C20.4667 16.1444 20.4333 16.3111 20.3667 16.4666C20.3 16.6222 20.2 16.7666 20.0667 16.8999L13.4667 23.4999C13.2 23.7666 12.8889 23.8944 12.5333 23.8833C12.1778 23.8722 11.8556 23.7444 11.5667 23.4999Z" fill="#222343"/>
</svg>
