<svg width="32" height="32" viewBox="0 0 32 32" fill="none" xmlns="http://www.w3.org/2000/svg">
<path d="M8.96666 28.5334C8.65555 28.2 8.49444 27.8111 8.48333 27.3667C8.47221 26.9223 8.63333 26.5334 8.96666 26.2L19.2333 15.9334L8.96666 5.6667C8.65555 5.35559 8.49444 4.97226 8.48333 4.5167C8.47221 4.06114 8.63333 3.6667 8.96666 3.33337C9.25555 3.00003 9.63333 2.82781 10.1 2.8167C10.5667 2.80559 10.9555 2.9667 11.2667 3.30003L23 15C23.1333 15.1334 23.2333 15.2778 23.3 15.4334C23.3667 15.5889 23.4 15.7556 23.4 15.9334C23.4 16.1111 23.3667 16.2778 23.3 16.4334C23.2333 16.5889 23.1333 16.7334 23 16.8667L11.3 28.5667C10.9889 28.8778 10.6055 29.0334 10.15 29.0334C9.69444 29.0334 9.29999 28.8667 8.96666 28.5334Z" fill="#222343"/>
</svg>
