<svg width="32" height="32" viewBox="0 0 32 32" fill="none" xmlns="http://www.w3.org/2000/svg">
<path d="M18.5667 23.32L11.9667 16.72C11.8534 16.6067 11.78 16.5 11.7334 16.3867C11.6867 16.2733 11.6667 16.1533 11.6667 16.02C11.6667 15.8867 11.6867 15.7667 11.7334 15.6533C11.78 15.54 11.8534 15.4333 11.9667 15.32L18.6 8.68666C18.8 8.48666 19.04 8.38666 19.32 8.38666C19.6 8.38666 19.8334 8.48666 20.04 8.68666C20.24 8.88666 20.3334 9.13332 20.32 9.41999C20.3067 9.70666 20.2067 9.95332 20 10.1533L14.1334 16.02L20.0334 21.92C20.2334 22.12 20.3334 22.3533 20.3334 22.62C20.3334 22.8867 20.2334 23.12 20.0334 23.32C19.8334 23.52 19.5867 23.62 19.3 23.62C19.0134 23.62 18.7667 23.52 18.5667 23.32Z" fill="#222343"/>
</svg>
