<svg width="32" height="32" viewBox="0 0 32 32" fill="none" xmlns="http://www.w3.org/2000/svg">
<path d="M13.4334 8.68001L20.0334 15.28C20.1467 15.3933 20.22 15.5 20.2667 15.6133C20.3134 15.7267 20.3334 15.8467 20.3334 15.98C20.3334 16.1133 20.3134 16.2333 20.2667 16.3467C20.22 16.46 20.1467 16.5667 20.0334 16.68L13.4 23.3133C13.2 23.5133 12.96 23.6133 12.68 23.6133C12.4 23.6133 12.1667 23.5133 11.96 23.3133C11.76 23.1133 11.6667 22.8667 11.68 22.58C11.6934 22.2933 11.7934 22.0467 12 21.8467L17.8667 15.98L11.9667 10.08C11.7667 9.88001 11.6667 9.64667 11.6667 9.38C11.6667 9.11334 11.7667 8.88001 11.9667 8.68001C12.1667 8.48001 12.4134 8.38 12.7 8.38C12.9867 8.38 13.2334 8.48001 13.4334 8.68001Z" fill="#222343"/>
</svg>
