<svg width="32" height="32" viewBox="0 0 32 32" fill="none" xmlns="http://www.w3.org/2000/svg">
<path d="M16 17.8666L9.23334 24.6332C8.96668 24.8999 8.65556 25.0332 8.30001 25.0332C7.94445 25.0332 7.63334 24.8999 7.36668 24.6332C7.10001 24.3666 6.96667 24.0554 6.96667 23.6999C6.96667 23.3443 7.10001 23.0332 7.36668 22.7666L14.1333 15.9999L7.36668 9.23322C7.10001 8.96655 6.96667 8.65544 6.96667 8.29989C6.96667 7.94433 7.10001 7.63322 7.36668 7.36655C7.63334 7.09989 7.94445 6.96655 8.30001 6.96655C8.65556 6.96655 8.96668 7.09989 9.23334 7.36655L16 14.1332L22.7667 7.36655C23.0333 7.09989 23.3445 6.96655 23.7 6.96655C24.0556 6.96655 24.3667 7.09989 24.6333 7.36655C24.9 7.63322 25.0333 7.94433 25.0333 8.29989C25.0333 8.65544 24.9 8.96655 24.6333 9.23322L17.8667 15.9999L24.6333 22.7666C24.9 23.0332 25.0333 23.3443 25.0333 23.6999C25.0333 24.0554 24.9 24.3666 24.6333 24.6332C24.3667 24.8999 24.0556 25.0332 23.7 25.0332C23.3445 25.0332 23.0333 24.8999 22.7667 24.6332L16 17.8666Z" fill="#222343"/>
</svg>
