<svg width="32" height="32" viewBox="0 0 32 32" fill="none" xmlns="http://www.w3.org/2000/svg">
<path d="M8.36668 26.6466C6.41334 26.6466 4.74668 25.9666 3.38668 24.5933C2.02001 23.2266 1.33334 21.5666 1.33334 19.6133C1.33334 17.88 1.88668 16.36 3.00001 15.0466C4.11334 13.7333 5.52001 12.9466 7.23334 12.68C7.68001 10.5266 8.72001 8.75997 10.3667 7.3933C12.0133 6.02663 13.9133 5.33997 16.0667 5.33997C18.5533 5.33997 20.6533 6.24663 22.3667 8.0533C24.08 9.86663 24.9333 12.04 24.9333 14.5666V15.3666C26.5333 15.32 27.8867 15.84 29 16.92C30.1133 18 30.6667 19.36 30.6667 21C30.6667 22.5333 30.1133 23.8533 29 24.9666C27.8867 26.08 26.5667 26.6333 25.0333 26.6333H8.36668V26.6466Z" fill="#222343"/>
</svg>
