<svg width="32" height="32" viewBox="0 0 32 32" fill="none" xmlns="http://www.w3.org/2000/svg">
<path d="M13.7667 19.9999L11.1 17.3333C10.92 17.1533 10.6933 17.0733 10.4133 17.0799C10.1333 17.0866 9.90666 17.1866 9.72666 17.3666C9.54666 17.5466 9.45999 17.7733 9.45999 18.0533C9.45999 18.3333 9.54666 18.5599 9.72666 18.7399L13.0267 22.0066C13.2267 22.2066 13.46 22.3066 13.7267 22.3066C13.9933 22.3066 14.2267 22.2066 14.4267 22.0066L20.7267 15.7066C20.9067 15.5266 20.9933 15.3066 20.9933 15.0399C20.9933 14.7733 20.9067 14.5533 20.7267 14.3733C20.5467 14.1933 20.3267 14.1066 20.06 14.1066C19.7933 14.1066 19.5733 14.1933 19.3933 14.3733L13.76 20.0066L13.7667 19.9999ZM8.36666 26.6666C6.41333 26.6666 4.74666 25.9799 3.37999 24.6133C2.01333 23.2466 1.32666 21.5866 1.32666 19.6266C1.32666 17.8933 1.87999 16.3733 2.99333 15.0599C4.10666 13.7466 5.51333 12.9599 7.22666 12.6933C7.67333 10.5399 8.71333 8.77327 10.36 7.4066C12.0067 6.03994 13.9067 5.35327 16.06 5.35327C18.5467 5.35327 20.6467 6.25994 22.36 8.07327C24.0733 9.8866 24.9267 12.0599 24.9267 14.5933V15.3933C26.5267 15.3466 27.88 15.8666 28.9933 16.9466C30.1067 18.0266 30.66 19.3866 30.66 21.0333C30.66 22.5666 30.1067 23.8866 28.9933 24.9999C27.88 26.1133 26.56 26.6666 25.0267 26.6666H8.36666Z" fill="currentColor"/>
</svg>
