<svg width="48" height="48" viewBox="0 0 48 48" fill="none" xmlns="http://www.w3.org/2000/svg">
<path d="M39.12 4.88C38.53 4.29 37.83 4 37 4H9.5C9.08 4 8.72 4.14 8.43 4.43C8.14 4.72 8 5.07 8 5.5V42.5C8 42.93 8.14 43.28 8.43 43.57C8.72 43.86 9.07 44 9.5 44H37C37.83 44 38.53 43.71 39.12 43.12C39.71 42.53 40 41.83 40 41V7C40 6.18 39.71 5.47 39.12 4.88ZM31.39 15.23L31.82 15.56C32 15.7 32.05 15.96 31.92 16.16L31.44 16.85C31.34 17 31.34 17.2 31.44 17.36L31.92 18.05C32.06 18.24 32.02 18.51 31.83 18.65L31.16 19.17C31.02 19.28 30.96 19.47 31.01 19.64L31.25 20.45C31.32 20.68 31.2 20.92 30.98 21L30.18 21.28C30.01 21.34 29.89 21.5 29.89 21.69L29.87 22.53C29.87 22.76 29.68 22.95 29.44 22.96L28.76 22.98L28.06 18.76C28.04 18.61 28.09 18.45 28.2 18.34L31.37 15.25C31.37 15.25 31.38 15.24 31.39 15.23ZM24.92 9.21C25.11 9.08 25.38 9.12 25.52 9.3L26.04 9.97C26.15 10.12 26.34 10.18 26.51 10.12L27.32 9.88C27.55 9.81 27.78 9.93 27.86 10.16L28.15 10.95C28.21 11.12 28.37 11.24 28.56 11.24L29.4 11.26C29.63 11.27 29.82 11.46 29.83 11.69L29.86 12.53C29.86 12.72 29.98 12.88 30.15 12.94L30.95 13.22C31.17 13.29 31.29 13.53 31.23 13.76L31.03 14.43L26.73 13.77C26.57 13.75 26.44 13.65 26.37 13.51L24.42 9.55L24.92 9.21ZM26.92 17.23C26.92 18.88 25.58 20.23 23.92 20.23C22.26 20.23 20.92 18.88 20.92 17.23C20.92 15.58 22.27 14.23 23.92 14.23C25.57 14.23 26.92 15.57 26.92 17.23ZM17.03 13.27L17.82 12.98C17.99 12.92 18.11 12.76 18.11 12.58L18.13 11.73C18.13 11.5 18.33 11.31 18.56 11.3L19.4 11.28C19.59 11.27 19.75 11.15 19.81 10.98L20.09 10.18C20.16 9.96 20.4 9.84 20.63 9.91L21.44 10.14C21.61 10.19 21.8 10.13 21.91 9.99L22.42 9.32C22.57 9.13 22.83 9.08 23.03 9.22L23.54 9.57L21.57 13.5C21.5 13.64 21.37 13.73 21.22 13.76L16.92 14.38L16.75 13.81C16.68 13.59 16.8 13.35 17.03 13.27ZM18.01 37.7C18.36 37.7 18.64 37.82 18.87 38.05C19.1 38.28 19.21 38.57 19.21 38.9C19.21 39.23 19.1 39.52 18.87 39.75C18.64 39.98 18.36 40.1 18.01 40.1H13.17C12.87 40.1 12.6 39.99 12.37 39.78C12.14 39.56 12.02 39.3 12.02 39V29.3C12.02 28.95 12.14 28.67 12.37 28.44C12.58 28.23 12.84 28.13 13.14 28.12L13.21 28.11H17.99C18.34 28.11 18.62 28.23 18.85 28.46C19.08 28.69 19.19 28.98 19.19 29.31C19.19 29.64 19.08 29.93 18.85 30.16C18.62 30.39 18.34 30.51 17.99 30.51H14.4V37.71H17.99L18.01 37.7ZM19.12 23.01H18.6C18.37 23 18.18 22.81 18.17 22.57L18.15 21.73C18.14 21.55 18.02 21.39 17.85 21.32L17.05 21.05C16.83 20.97 16.71 20.73 16.78 20.5L17.01 19.7C17.06 19.52 17 19.33 16.86 19.22L16.18 18.71C16 18.57 15.95 18.3 16.09 18.11L16.56 17.41C16.66 17.26 16.66 17.06 16.56 16.91L16.08 16.22C15.95 16.02 15.99 15.76 16.17 15.61L16.62 15.27L19.72 18.32C19.83 18.43 19.88 18.58 19.85 18.74L19.12 23.01ZM20.68 24.38C20.46 24.45 20.22 24.33 20.14 24.11L19.93 23.54L23.73 21.57C23.87 21.5 24.03 21.5 24.17 21.57L28.07 23.62L27.92 24.08C27.84 24.3 27.6 24.42 27.37 24.36L26.56 24.12C26.39 24.07 26.2 24.13 26.09 24.28L25.58 24.95C25.43 25.14 25.17 25.18 24.98 25.05L24.28 24.57C24.13 24.47 23.93 24.47 23.78 24.57L23.08 25.05C22.89 25.19 22.63 25.15 22.48 24.96L21.97 24.29C21.85 24.15 21.66 24.09 21.49 24.14L20.68 24.38ZM28.48 39.75C28.25 39.98 27.97 40.1 27.62 40.1H22.78C22.48 40.1 22.21 39.99 21.98 39.78C21.75 39.56 21.63 39.3 21.63 39V29.3C21.63 28.95 21.75 28.67 21.98 28.44C22.21 28.21 22.5 28.1 22.83 28.1C23.16 28.1 23.45 28.21 23.68 28.44C23.91 28.67 24.03 28.95 24.03 29.3V37.7H27.62C27.97 37.7 28.25 37.82 28.48 38.05C28.71 38.28 28.82 38.57 28.82 38.9C28.82 39.23 28.71 39.52 28.48 39.75ZM35.64 30.15C35.41 30.38 35.13 30.5 34.78 30.5H33.58V38.9C33.58 39.25 33.46 39.53 33.23 39.76C33 39.99 32.71 40.1 32.38 40.1C32.05 40.1 31.76 39.99 31.53 39.76C31.3 39.53 31.18 39.25 31.18 38.9V30.5H29.98C29.63 30.5 29.35 30.38 29.12 30.15C28.89 29.92 28.78 29.63 28.78 29.3C28.78 28.97 28.89 28.68 29.12 28.45C29.35 28.22 29.63 28.1 29.98 28.1H34.77C35.12 28.1 35.4 28.22 35.63 28.45C35.86 28.68 35.97 28.97 35.97 29.3C35.97 29.63 35.86 29.92 35.63 30.15H35.64Z" fill="#222343"/>
</svg>
