<svg width="32" height="32" viewBox="0 0 32 32" fill="none" xmlns="http://www.w3.org/2000/svg">
<g clip-path="url(#clip0_4024_5840)">
<path d="M5.53339 15.9333L11.4001 21.7999C11.6001 21.9999 11.6934 22.2333 11.6867 22.4999C11.6801 22.7666 11.5667 22.9999 11.3667 23.1999C11.1667 23.3999 10.9267 23.4999 10.6467 23.4999C10.3667 23.4999 10.1267 23.3999 9.92672 23.1999L3.36006 16.6333C3.24673 16.5199 3.17339 16.4133 3.12673 16.2999C3.08006 16.1866 3.06006 16.0666 3.06006 15.9333C3.06006 15.7999 3.08006 15.6799 3.12673 15.5666C3.17339 15.4533 3.24673 15.3466 3.36006 15.2333L10.0267 8.5666C10.2267 8.3666 10.4667 8.2666 10.7467 8.2666C11.0267 8.2666 11.2667 8.3666 11.4667 8.5666C11.6667 8.7666 11.7667 9.0066 11.7667 9.2866C11.7667 9.5666 11.6667 9.8066 11.4667 10.0066L5.53339 15.9399V15.9333ZM26.4667 15.9333L20.6001 10.0666C20.4001 9.8666 20.3067 9.63327 20.3134 9.3666C20.3201 9.09994 20.4334 8.8666 20.6334 8.6666C20.8334 8.4666 21.0734 8.3666 21.3534 8.3666C21.6334 8.3666 21.8734 8.4666 22.0734 8.6666L28.6401 15.2333C28.7534 15.3466 28.8267 15.4533 28.8734 15.5666C28.9201 15.6799 28.9401 15.7999 28.9401 15.9333C28.9401 16.0666 28.9201 16.1866 28.8734 16.2999C28.8267 16.4133 28.7534 16.5199 28.6401 16.6333L21.9734 23.2999C21.7734 23.4999 21.5401 23.5933 21.2734 23.5866C21.0067 23.5799 20.7734 23.4666 20.5734 23.2666C20.3734 23.0666 20.2734 22.8266 20.2734 22.5466C20.2734 22.2666 20.3734 22.0266 20.5734 21.8266L26.4734 15.9266L26.4667 15.9333Z" fill="currentColor"/>
</g>
<defs>
<clipPath id="clip0_4024_5840">
<rect width="32" height="32" fill="white"/>
</clipPath>
</defs>
</svg>
