<svg width="32" height="32" viewBox="0 0 32 32" fill="none" xmlns="http://www.w3.org/2000/svg">
<g clip-path="url(#clip0_4714_2696)">
<path d="M11 16L13.3333 13.6667C13.5333 13.4667 13.6333 13.22 13.6333 12.9333C13.6333 12.6467 13.5333 12.4 13.3333 12.2C13.1333 12 12.8867 11.9 12.6 11.9C12.3133 11.9 12.0667 12 11.8667 12.2L8.76667 15.3C8.65333 15.4133 8.58 15.52 8.53333 15.6333C8.48667 15.7467 8.46667 15.8667 8.46667 16C8.46667 16.1333 8.48667 16.2533 8.53333 16.3667C8.58 16.48 8.65333 16.5867 8.76667 16.7L11.9 19.8333C12.1 20.0333 12.3467 20.1333 12.6333 20.1333C12.92 20.1333 13.1667 20.0333 13.3667 19.8333C13.5667 19.6333 13.6667 19.3867 13.6667 19.1C13.6667 18.8133 13.5667 18.5667 13.3667 18.3667L11 16ZM21 16L18.6333 18.3667C18.4333 18.5667 18.3333 18.8133 18.3333 19.1C18.3333 19.3867 18.4333 19.6333 18.6333 19.8333C18.8333 20.0333 19.08 20.1333 19.3667 20.1333C19.6533 20.1333 19.9 20.0333 20.1 19.8333L23.2333 16.7C23.3467 16.5867 23.42 16.48 23.4667 16.3667C23.5133 16.2533 23.5333 16.1333 23.5333 16C23.5333 15.8667 23.5133 15.7467 23.4667 15.6333C23.42 15.52 23.3467 15.4133 23.2333 15.3L20.1 12.1667C20.0133 12.0533 19.9 11.98 19.7667 11.9333C19.6333 11.8867 19.5 11.8667 19.3667 11.8667C19.2333 11.8667 19.1067 11.8867 18.98 11.9333C18.8533 11.98 18.74 12.0533 18.6267 12.1667C18.4267 12.3667 18.3267 12.6133 18.3267 12.9C18.3267 13.1867 18.4267 13.4333 18.6267 13.6333L20.9933 16H21ZM6 28C5.46667 28 5 27.8 4.6 27.4C4.2 27 4 26.5333 4 26V6C4 5.46667 4.2 5 4.6 4.6C5 4.2 5.46667 4 6 4H26C26.5333 4 27 4.2 27.4 4.6C27.8 5 28 5.46667 28 6V26C28 26.5333 27.8 27 27.4 27.4C27 27.8 26.5333 28 26 28H6Z" fill="currentColor"/>
</g>
<defs>
<clipPath id="clip0_4714_2696">
<rect width="32" height="32" fill="white"/>
</clipPath>
</defs>
</svg>
