<svg width="32" height="32" viewBox="0 0 32 32" fill="none" xmlns="http://www.w3.org/2000/svg">
<path d="M5.79693 15.9144L11.4376 21.5551C11.7005 21.8304 11.8232 22.1423 11.8056 22.4907C11.7883 22.839 11.645 23.1507 11.3759 23.4261C11.1068 23.7014 10.7926 23.836 10.4333 23.8297C10.0739 23.8235 9.76282 23.689 9.49993 23.4261L2.93326 16.8784C2.79815 16.74 2.69549 16.59 2.62526 16.4284C2.55526 16.2666 2.52026 16.101 2.52026 15.9314C2.52026 15.7616 2.55526 15.5964 2.62526 15.4357C2.69549 15.2751 2.79815 15.126 2.93326 14.9884L9.59993 8.32173C9.86771 8.05907 10.1833 7.92773 10.5466 7.92773C10.9097 7.92773 11.2227 8.05907 11.4856 8.32173C11.7483 8.58462 11.8796 8.90073 11.8796 9.27007C11.8796 9.63962 11.7483 9.95829 11.4856 10.2261L5.79693 15.9144ZM26.2216 15.9524L20.5809 10.3117C20.3056 10.0364 20.1767 9.72451 20.1943 9.37607C20.2116 9.02785 20.3548 8.71607 20.6239 8.44073C20.893 8.1654 21.2073 8.03084 21.5666 8.03707C21.9259 8.04329 22.237 8.17784 22.4999 8.44073L29.0666 14.9884C29.2017 15.1268 29.3044 15.2768 29.3746 15.4384C29.4446 15.6002 29.4796 15.7658 29.4796 15.9354C29.4796 16.1052 29.4446 16.2704 29.3746 16.4311C29.3044 16.5917 29.2017 16.7408 29.0666 16.8784L22.3999 23.5451C22.1359 23.8077 21.8269 23.9367 21.4729 23.9321C21.1189 23.9272 20.8105 23.7871 20.5476 23.5117C20.2723 23.2473 20.1346 22.9326 20.1346 22.5677C20.1346 22.2028 20.2723 21.889 20.5476 21.6261L26.2216 15.9524Z" fill="currentColor"/>
</svg>
