<svg width="32" height="32" viewBox="0 0 32 32" fill="none" xmlns="http://www.w3.org/2000/svg">
<path d="M24.8333 27.3267L17.4 19.9267L19.3 18.0267L26.7333 25.46C27 25.7267 27.1333 26.04 27.1333 26.3934C27.1333 26.7467 27 27.06 26.7333 27.3267C26.4667 27.5934 26.1533 27.7267 25.7867 27.7267C25.42 27.7267 25.1 27.5934 24.84 27.3267H24.8333ZM5.46665 27.3267C5.19999 27.06 5.06665 26.74 5.06665 26.38C5.06665 26.02 5.19999 25.7 5.46665 25.4334L14.1667 16.7334L10.6 13.1667L10.5333 13.2334C10.3333 13.4334 10.1 13.5334 9.83332 13.5334C9.56665 13.5334 9.33332 13.4334 9.13332 13.2334L8.36665 12.4667V15.3L8.09999 15.5667C7.94665 15.72 7.76665 15.8 7.56665 15.8C7.36665 15.8 7.18665 15.72 7.03332 15.5667L4.03332 12.5667C3.87999 12.4134 3.79999 12.2334 3.79999 12.0334C3.79999 11.8334 3.87999 11.6534 4.03332 11.5L4.29999 11.2334H7.16665L6.26665 10.3334C6.06665 10.1334 5.96665 9.90003 5.96665 9.63336C5.96665 9.3667 6.06665 9.13336 6.26665 8.93336L9.93332 5.2667C10.3133 4.8867 10.72 4.63336 11.1667 4.50003C11.6133 4.3667 12.1 4.30003 12.6333 4.30003C13.1667 4.30003 13.6533 4.39336 14.1 4.5867C14.5467 4.77336 14.9533 5.06003 15.3333 5.44003L11.7667 9.0067L12.6667 9.9067C12.8667 10.1067 12.9667 10.34 12.9667 10.6067C12.9667 10.8734 12.8667 11.1067 12.6667 11.3067L12.5667 11.4067L16.0333 14.8734L20.1 10.8067C19.92 10.52 19.78 10.1867 19.6867 9.8067C19.5867 9.4267 19.5333 9.0267 19.5333 8.6067C19.5333 7.4267 19.96 6.41336 20.8133 5.56003C21.6667 4.7067 22.6867 4.28003 23.86 4.28003C24.1933 4.28003 24.48 4.31336 24.7133 4.38003C24.9467 4.4467 25.14 4.53336 25.3 4.6467L22.4667 7.48003L24.9667 9.98003L27.8 7.1467C27.9133 7.3267 28.0067 7.54003 28.08 7.80003C28.16 8.05336 28.1933 8.3467 28.1933 8.68003C28.1933 9.86003 27.7667 10.8734 26.9133 11.7267C26.06 12.58 25.04 13.0067 23.86 13.0067C23.46 13.0067 23.1133 12.98 22.8267 12.9267C22.54 12.8734 22.2733 12.7867 22.0267 12.6734L7.33332 27.36C7.06665 27.6267 6.75332 27.7534 6.39999 27.7467C6.04665 27.7334 5.73332 27.5934 5.46665 27.3334V27.3267Z" fill="#222343"/>
</svg>
