<svg width="32" height="32" viewBox="0 0 32 32" fill="none" xmlns="http://www.w3.org/2000/svg">
<path d="M26.6334 28.7333L16.0334 18.1333L12.1 22.0666C12.3467 22.4466 12.5 22.8133 12.5667 23.1666C12.6334 23.52 12.6667 23.9133 12.6667 24.3333C12.6667 25.7533 12.1867 26.9466 11.2334 27.9C10.28 28.8533 9.0867 29.3333 7.6667 29.3333C6.2467 29.3333 5.05337 28.8533 4.10003 27.9C3.1467 26.9466 2.6667 25.7533 2.6667 24.3333C2.6667 22.9133 3.1467 21.72 4.10003 20.7666C5.05337 19.8133 6.2467 19.3333 7.6667 19.3333C8.0667 19.3333 8.46003 19.3866 8.8467 19.5C9.23337 19.6133 9.64003 19.78 10.06 20L13.9267 16.1333L9.99337 12.2C9.61337 12.38 9.23337 12.5 8.84003 12.5666C8.45337 12.6333 8.05337 12.6666 7.66003 12.6666C6.24003 12.6666 5.0467 12.1866 4.09337 11.2333C3.14003 10.28 2.66003 9.08663 2.66003 7.66663C2.66003 6.24663 3.14003 5.05329 4.09337 4.09996C5.0467 3.14663 6.24003 2.66663 7.66003 2.66663C9.08003 2.66663 10.2734 3.14663 11.2267 4.09996C12.18 5.05329 12.66 6.24663 12.66 7.66663C12.66 8.08663 12.6334 8.48663 12.58 8.86663C12.5267 9.24663 12.4067 9.59996 12.2334 9.93329L28.8334 26.5333C29.1467 26.8466 29.3 27.2133 29.3 27.6333C29.3 28.0533 29.1467 28.42 28.8334 28.7333C28.52 29.0466 28.1534 29.2 27.7334 29.2C27.3134 29.2 26.9467 29.0466 26.6334 28.7333ZM19.9667 14.4333L17.7667 12.2333L26.6334 3.36663C26.9467 3.05329 27.3134 2.89996 27.7334 2.89996C28.1534 2.89996 28.52 3.05329 28.8334 3.36663C29.1467 3.67996 29.3 4.04663 29.3 4.46663C29.3 4.88663 29.1467 5.25329 28.8334 5.56663L19.9667 14.4333ZM7.6667 10.6666C8.4867 10.6666 9.19337 10.3733 9.7867 9.78663C10.38 9.19996 10.6667 8.49329 10.6667 7.66663C10.6667 6.83996 10.3734 6.13996 9.7867 5.54663C9.20003 4.95996 8.49337 4.66663 7.6667 4.66663C6.84003 4.66663 6.14003 4.95996 5.5467 5.54663C4.96003 6.13329 4.6667 6.83996 4.6667 7.66663C4.6667 8.49329 4.96003 9.19329 5.5467 9.78663C6.13337 10.3733 6.84003 10.6666 7.6667 10.6666ZM16.1 16.8C16.28 16.8 16.4267 16.7333 16.5467 16.6C16.6667 16.4666 16.7267 16.3133 16.7267 16.1333C16.7267 15.9533 16.6667 15.8066 16.5467 15.6866C16.4267 15.5666 16.2734 15.5066 16.1 15.5066C15.9267 15.5066 15.7667 15.5666 15.6334 15.6866C15.5 15.8066 15.4334 15.96 15.4334 16.1333C15.4334 16.3066 15.5 16.4666 15.6334 16.6C15.7667 16.7333 15.92 16.8 16.1 16.8ZM7.6667 27.3333C8.4867 27.3333 9.19337 27.04 9.7867 26.4466C10.3734 25.86 10.6667 25.1533 10.6667 24.3333C10.6667 23.5133 10.3734 22.8066 9.7867 22.22C9.20003 21.6333 8.49337 21.3333 7.6667 21.3333C6.84003 21.3333 6.14003 21.6266 5.5467 22.22C4.96003 22.8066 4.6667 23.5133 4.6667 24.3333C4.6667 25.1533 4.96003 25.86 5.5467 26.4466C6.13337 27.0333 6.84003 27.3333 7.6667 27.3333Z" fill="#222343"/>
</svg>
