<svg width="32" height="32" viewBox="0 0 32 32" fill="none" xmlns="http://www.w3.org/2000/svg">
<path d="M2 27.98C1.46667 27.98 0.993333 27.7733 0.593333 27.3733C0.193333 26.9733 0 26.5133 0 25.98V5.97998C0 5.44665 0.2 4.97998 0.6 4.57998C1 4.17998 1.46667 3.97998 2 3.97998L30 3.99998C30.5333 3.99998 31 4.19998 31.4 4.59998C31.8 4.99998 32 5.46665 32 5.99998V26C32 26.5333 31.8 27 31.4 27.4C31 27.8 30.5333 28 30 28L2 27.98ZM10.9667 18.3333C12.08 18.3333 13.0133 17.9533 13.7667 17.2C14.52 16.4466 14.9 15.5133 14.9 14.4C14.9 13.2866 14.52 12.3533 13.7667 11.6C13.0133 10.8466 12.08 10.4666 10.9667 10.4666C9.85333 10.4666 8.92 10.8466 8.16667 11.6C7.41333 12.3533 7.03333 13.2866 7.03333 14.4C7.03333 15.5133 7.41333 16.4466 8.16667 17.2C8.92 17.9533 9.85333 18.3333 10.9667 18.3333ZM19.7333 14.5333H26.6667C26.9533 14.5333 27.1933 14.44 27.3867 14.2533C27.58 14.0666 27.6667 13.8266 27.6667 13.5333V9.33331C27.6667 9.04665 27.5733 8.80665 27.3867 8.61998C27.2 8.43331 26.96 8.33331 26.6667 8.33331H19.7333C19.4467 8.33331 19.2067 8.42665 19.0133 8.61998C18.8267 8.80665 18.7333 9.04665 18.7333 9.33331V13.5333C18.7333 13.82 18.8267 14.06 19.0133 14.2533C19.2 14.44 19.44 14.5333 19.7333 14.5333ZM2.3 26H19.6333C18.6333 24.3533 17.3867 23.1133 15.8867 22.2666C14.3867 21.42 12.7467 21 10.9667 21C9.18667 21 7.54667 21.42 6.03333 22.2666C4.52 23.1133 3.28 24.3533 2.3 26ZM23.2333 13.3L19.7333 10.6666V9.33331L23.2 11.9666L26.6667 9.33331V10.6666L23.2333 13.3Z" fill="#222343"/>
</svg>
