<svg width="32" height="32" viewBox="0 0 32 32" fill="none" xmlns="http://www.w3.org/2000/svg">
<path d="M30 4H2C0.893333 4 0 4.89333 0 6V26C0 27.1067 0.893333 28 2 28H30C31.1067 28 32 27.1067 32 26V6C32 4.89333 31.1067 4 30 4ZM8.15333 11.8333C8.93333 11.0533 9.87333 10.6667 10.9867 10.6667C12.1 10.6667 13.04 11.0533 13.82 11.8333C14.6 12.6133 14.9867 13.5533 14.9867 14.6667C14.9867 15.78 14.6 16.72 13.82 17.5C13.04 18.28 12.1 18.6667 10.9867 18.6667C9.87333 18.6667 8.93333 18.28 8.15333 17.5C7.37333 16.72 6.98667 15.78 6.98667 14.6667C6.98667 13.5533 7.37333 12.6133 8.15333 11.8333ZM2.22 26C3.2 24.4667 4.46 23.2533 6 22.3667C7.54667 21.48 9.20667 21.0333 10.9867 21.0333C12.7667 21.0333 14.44 21.48 15.9533 22.3667C17.4667 23.2533 18.72 24.4667 19.72 26H2.22ZM23.14 17.62C23.22 18.1 23.36 18.6133 23.5533 19.1667H25.3533C25.5333 19.1667 25.6933 19.2 25.8333 19.2667C25.98 19.3333 26.0933 19.4467 26.1867 19.6L27.2867 21.1667C27.44 21.3667 27.5067 21.5867 27.4867 21.8333C27.4667 22.08 27.3667 22.2867 27.1867 22.4667L25.8533 23.8C25.6733 23.98 25.46 24.0733 25.2 24.0867C24.9467 24.1 24.7267 24.0133 24.5533 23.8333C23.5333 22.8333 22.74 21.6533 22.1867 20.3C21.6333 18.9467 21.3533 17.52 21.3533 16.0333C21.3533 14.5467 21.6333 13.12 22.1867 11.7667C22.74 10.4133 23.5333 9.23333 24.5533 8.23333C24.7333 8.05333 24.9467 7.97333 25.2 7.98C25.4533 7.99333 25.6733 8.08667 25.8533 8.26667L27.1867 9.6C27.3667 9.78 27.4667 9.98667 27.4867 10.2333C27.5067 10.48 27.44 10.7 27.2867 10.9L26.1867 12.4667C26.1 12.62 25.98 12.7333 25.8333 12.8C25.6867 12.8667 25.5267 12.9 25.3533 12.9H23.5533C23.3533 13.48 23.2133 14 23.14 14.4667C23.06 14.9333 23.0267 15.4533 23.0267 16.0333C23.0267 16.6133 23.0667 17.14 23.14 17.62Z" fill="#222343"/>
</svg>
