<svg width="32" height="32" viewBox="0 0 32 32" fill="none" xmlns="http://www.w3.org/2000/svg">
<path d="M17.8334 29.3333L17.5 25.6666H16.1667C12.9867 25.6666 10.28 24.5466 8.03335 22.3C5.78669 20.0533 4.66669 17.3466 4.66669 14.1666C4.66669 10.9866 5.79335 8.27996 8.04669 6.03329C10.3 3.78663 13.0334 2.66663 16.2334 2.66663C17.8134 2.66663 19.2734 2.94663 20.6134 3.51996C21.96 4.08663 23.1334 4.87996 24.1334 5.90663C25.1334 6.92663 25.9134 8.13329 26.4867 9.52663C27.0534 10.9133 27.34 12.4333 27.3334 14.0733C27.3334 17.0533 26.4934 19.92 24.8134 22.6933C23.1334 25.46 20.8067 27.6733 17.8334 29.34V29.3333ZM16.2334 21.9C16.5867 21.9 16.8867 21.78 17.1334 21.5333C17.38 21.2866 17.5 20.9866 17.5 20.6333C17.5 20.28 17.38 19.98 17.1334 19.7333C16.8867 19.4866 16.5867 19.3666 16.2334 19.3666C15.88 19.3666 15.58 19.4866 15.3334 19.7333C15.0867 19.98 14.9667 20.28 14.9667 20.6333C14.9667 20.9866 15.0867 21.2866 15.3334 21.5333C15.58 21.78 15.88 21.9 16.2334 21.9ZM16.1667 17.3666C16.3867 17.3666 16.58 17.2866 16.7534 17.1333C16.9267 16.98 17.0267 16.78 17.0734 16.5333C17.14 16.22 17.28 15.92 17.4867 15.6333C17.7 15.3466 18.0267 14.98 18.4734 14.5333C19.0734 13.9333 19.4934 13.38 19.74 12.88C19.9867 12.38 20.1067 11.84 20.1067 11.2666C20.1067 10.2666 19.7667 9.44663 19.0934 8.79996C18.4134 8.15329 17.5067 7.83329 16.3734 7.83329C15.5934 7.83329 14.88 8.00663 14.22 8.34663C13.5667 8.69329 13.04 9.17329 12.64 9.79996C12.5067 9.99996 12.4867 10.2066 12.5734 10.42C12.66 10.6333 12.8267 10.7933 13.0734 10.9066C13.2534 10.9733 13.44 10.9733 13.64 10.9066C13.84 10.84 14.0067 10.72 14.14 10.54C14.3867 10.1866 14.6867 9.91996 15.06 9.75329C15.4267 9.58663 15.8334 9.49996 16.28 9.49996C16.9467 9.49996 17.4667 9.65996 17.8467 9.98663C18.2267 10.3066 18.4134 10.7333 18.4134 11.2666C18.4134 11.6866 18.2934 12.12 18.0467 12.5466C17.8 12.98 17.3667 13.52 16.7467 14.16C16.28 14.6466 15.9467 15.0533 15.7467 15.38C15.5467 15.7 15.4267 16.0866 15.38 16.5333C15.36 16.7533 15.4267 16.9466 15.58 17.12C15.7334 17.2866 15.9334 17.3666 16.18 17.3733L16.1667 17.3666Z" fill="#222343"/>
</svg>
