<svg width="32" height="32" viewBox="0 0 32 32" fill="none" xmlns="http://www.w3.org/2000/svg">
<path d="M10 25.3334C9.46667 25.3334 9 25.1334 8.6 24.7334C8.2 24.3334 8 23.8667 8 23.3334V4.66675C8 4.13341 8.2 3.66675 8.6 3.26675C9 2.86675 9.46667 2.66675 10 2.66675H24.6667C25.2 2.66675 25.6667 2.86675 26.0667 3.26675C26.4667 3.66675 26.6667 4.13341 26.6667 4.66675V23.3334C26.6667 23.8667 26.4667 24.3334 26.0667 24.7334C25.6667 25.1334 25.2 25.3334 24.6667 25.3334H10ZM6 29.3334C5.46667 29.3334 5 29.1334 4.6 28.7334C4.2 28.3334 4 27.8667 4 27.3334V7.66675C4 7.38008 4.09333 7.14008 4.28667 6.94675C4.47333 6.76008 4.71333 6.66008 5.00667 6.66008C5.3 6.66008 5.53333 6.75342 5.72667 6.94675C5.92 7.14008 6.01333 7.37341 6.01333 7.66675V27.3334H21.68C21.9667 27.3334 22.2067 27.4267 22.4 27.6201C22.5867 27.8067 22.6867 28.0467 22.6867 28.3401C22.6867 28.6334 22.5933 28.8667 22.4 29.0601C22.2067 29.2534 21.9733 29.3467 21.68 29.3467H6V29.3334Z" fill="currentColor"/>
</svg>
