<svg width="32" height="32" viewBox="0 0 32 32" fill="none" xmlns="http://www.w3.org/2000/svg">
<path fill-rule="evenodd" clip-rule="evenodd" d="M10.8476 28.2703C12.4685 28.9681 14.1961 29.3203 16.0171 29.3203V29.3335C17.758 29.3335 19.3922 29.0212 20.9264 28.4032C22.4605 27.7786 23.8146 26.9346 25.0085 25.8581C26.2025 24.7815 27.1764 23.5256 27.9301 22.0835C28.6838 20.6415 29.1441 19.1065 29.2975 17.4651C29.3842 16.754 29.2975 16.1692 29.0307 15.7041C28.7639 15.2389 28.2836 14.8402 27.5966 14.5079C26.9496 14.1956 26.396 13.7703 25.929 13.2254C25.4621 12.6805 25.1753 12.0625 25.0619 11.378C24.9485 10.8464 24.7617 10.4344 24.4949 10.1486C24.2281 9.86286 23.8613 9.68344 23.3943 9.61698C22.127 9.43756 21.0264 8.89929 20.0926 8.00218C19.1587 7.10507 18.6051 6.00859 18.425 4.72605C18.3116 4.01501 18.0381 3.49668 17.6046 3.16441C17.171 2.83215 16.5974 2.66602 15.8837 2.66602C14.0827 2.66602 12.3818 3.01822 10.7809 3.72926C9.18007 4.44031 7.77932 5.40387 6.57868 6.61996C5.37804 7.83605 4.42419 9.25814 3.72382 10.8729C3.02344 12.4877 2.66992 14.2089 2.66992 16.023C2.66992 17.8372 3.02344 19.5517 3.72382 21.1731C4.42419 22.7946 5.37804 24.2034 6.59202 25.4128C7.806 26.6223 9.22676 27.5725 10.8476 28.2703ZM15.4945 12.85C15.0941 13.2557 14.6069 13.4552 14.033 13.4552C13.4591 13.4552 12.9653 13.2557 12.5649 12.8567C12.1578 12.4577 11.9576 11.9722 11.9576 11.4003C11.9576 10.8283 12.1578 10.3362 12.5582 9.9372C12.9586 9.53154 13.4458 9.33203 14.0197 9.33203C14.5936 9.33203 15.0874 9.53154 15.4878 9.93055C15.8949 10.3296 16.0951 10.815 16.0951 11.387C16.0951 11.9589 15.8949 12.451 15.4945 12.85ZM12.8251 19.5003C12.4247 19.9059 11.9376 20.1054 11.3637 20.1054C10.7898 20.1054 10.2959 19.9059 9.89554 19.5069C9.48847 19.1079 9.28827 18.6224 9.28827 18.0505C9.28827 17.4786 9.48847 16.9865 9.88887 16.5875C10.2893 16.1818 10.7764 15.9823 11.3503 15.9823C11.9242 15.9823 12.4181 16.1818 12.8185 16.5808C13.2255 16.9798 13.4257 17.4653 13.4257 18.0372C13.4257 18.6091 13.2255 19.1013 12.8251 19.5003ZM20.0324 21.369C20.4127 21.369 20.7264 21.2426 20.9866 20.9833C21.2469 20.7239 21.3737 20.4114 21.3737 20.0323C21.3737 19.6532 21.2469 19.3407 20.9866 19.0813C20.7264 18.8219 20.4127 18.6956 20.0324 18.6956C19.652 18.6956 19.3383 18.8219 19.0781 19.0813C18.8178 19.3407 18.691 19.6532 18.691 20.0323C18.691 20.4114 18.8178 20.7239 19.0781 20.9833C19.3383 21.2426 19.652 21.369 20.0324 21.369Z" fill="#222343"/>
</svg>
