<svg width="32" height="32" viewBox="0 0 32 32" fill="none" xmlns="http://www.w3.org/2000/svg">
<path d="M27 2.66663H26H6H5C4.44667 2.66663 4 3.11329 4 3.66663C4 4.21996 4.44667 4.66663 5 4.66663H6V29.3333H12V25.8333C12 25.28 12.4467 24.8333 13 24.8333H19C19.5533 24.8333 20 25.28 20 25.8333V29.3333H26V4.66663H27C27.5533 4.66663 28 4.21996 28 3.66663C28 3.11329 27.5533 2.66663 27 2.66663ZM12 21.6866C12 22.24 11.5533 22.6866 11 22.6866H9C8.44667 22.6866 8 22.24 8 21.6866V19.6866C8 19.1333 8.44667 18.6866 9 18.6866H11C11.5533 18.6866 12 19.1333 12 19.6866V21.6866ZM12 15.68C12 16.2333 11.5533 16.68 11 16.68H9C8.44667 16.68 8 16.2333 8 15.68V13.68C8 13.1266 8.44667 12.68 9 12.68H11C11.5533 12.68 12 13.1266 12 13.68V15.68ZM12 9.67329C12 10.2266 11.5533 10.6733 11 10.6733H9C8.44667 10.6733 8 10.2266 8 9.67329V7.67329C8 7.11996 8.44667 6.67329 9 6.67329H11C11.5533 6.67329 12 7.11996 12 7.67329V9.67329ZM18 21.6866C18 22.24 17.5533 22.6866 17 22.6866H15C14.4467 22.6866 14 22.24 14 21.6866V19.6866C14 19.1333 14.4467 18.6866 15 18.6866H17C17.5533 18.6866 18 19.1333 18 19.6866V21.6866ZM18 15.68C18 16.2333 17.5533 16.68 17 16.68H15C14.4467 16.68 14 16.2333 14 15.68V13.68C14 13.1266 14.4467 12.68 15 12.68H17C17.5533 12.68 18 13.1266 18 13.68V15.68ZM18 9.67329C18 10.2266 17.5533 10.6733 17 10.6733H15C14.4467 10.6733 14 10.2266 14 9.67329V7.67329C14 7.11996 14.4467 6.67329 15 6.67329H17C17.5533 6.67329 18 7.11996 18 7.67329V9.67329ZM24 21.6733C24 22.2266 23.5533 22.6733 23 22.6733H21C20.4467 22.6733 20 22.2266 20 21.6733V19.6733C20 19.12 20.4467 18.6733 21 18.6733H23C23.5533 18.6733 24 19.12 24 19.6733V21.6733ZM24 15.68C24 16.2333 23.5533 16.68 23 16.68H21C20.4467 16.68 20 16.2333 20 15.68V13.68C20 13.1266 20.4467 12.68 21 12.68H23C23.5533 12.68 24 13.1266 24 13.68V15.68ZM24 9.65996C24 10.2133 23.5533 10.66 23 10.66H21C20.4467 10.66 20 10.2133 20 9.65996V7.65996C20 7.10663 20.4467 6.65996 21 6.65996H23C23.5533 6.65996 24 7.10663 24 7.65996V9.65996Z" fill="#222343"/>
</svg>
