<svg width="32" height="32" viewBox="0 0 32 32" fill="none" xmlns="http://www.w3.org/2000/svg">
<path d="M20.6667 23.9999C20.6667 26.5733 18.5734 28.6666 16.0001 28.6666C13.4267 28.6666 11.3334 26.5733 11.3334 23.9999C11.3334 23.0866 11.5934 22.2066 12.0867 21.4466C12.3867 20.9866 13.0067 20.8599 13.4734 21.1599C13.9334 21.4599 14.0667 22.0799 13.7601 22.5466C13.4801 22.9733 13.3334 23.4799 13.3334 23.9999C13.3334 25.4666 14.5267 26.6666 16.0001 26.6666C17.4734 26.6666 18.6667 25.4666 18.6667 23.9999C18.6667 22.9799 18.1001 22.0666 17.1867 21.6133C15.8334 20.9199 15.0001 19.5533 15.0001 18.0466V17.9599H17.0001V18.0466C17.0001 18.7999 17.4201 19.4866 18.0934 19.8266C19.6734 20.6199 20.6667 22.2199 20.6667 23.9999Z" fill="#222343"/>
<path d="M21.3334 4.33325V7.63325C21.3334 7.84659 21.3001 8.05992 21.2334 8.26659L20.2334 11.2799C20.1001 11.6866 19.7134 11.9666 19.2867 11.9666H12.7267C12.2934 11.9666 11.9134 11.6933 11.7801 11.2799L10.7801 8.26659C10.7134 8.05992 10.6801 7.84659 10.6801 7.63325V4.33325C10.6801 3.77992 11.1267 3.33325 11.6801 3.33325H20.3467C20.9001 3.33325 21.3467 3.77992 21.3467 4.33325H21.3334Z" fill="#222343"/>
<path d="M13.1067 15.2799C13.2401 15.6866 13.6201 15.9599 14.0534 15.9599H17.9534C18.3801 15.9599 18.7601 15.6866 18.9001 15.2799C19.1134 14.6333 18.6334 13.9666 17.9534 13.9666H14.0534C13.3734 13.9666 12.8934 14.6333 13.1067 15.2799Z" fill="#222343"/>
</svg>
