<svg width="32" height="32" viewBox="0 0 32 32" fill="none" xmlns="http://www.w3.org/2000/svg">
<path d="M5.03997 10.1384L15.6733 16.285C15.88 16.405 16.1333 16.405 16.34 16.285L27.0133 10.1384C27.4533 9.885 27.46 9.245 27.0133 8.985L17.4066 3.365C16.58 2.87833 15.5533 2.87833 14.72 3.365L5.03331 8.985C4.59331 9.245 4.59331 9.885 5.03331 10.1384H5.03997Z" fill="#222343"/>
<path d="M5.02667 12.2185L14.66 17.6251C14.8733 17.7451 15 17.9651 15 18.2051V28.5185C15 29.0318 14.4467 29.3518 14 29.0985L4.33333 23.5251C4.12667 23.4051 4 23.1851 4 22.9451L4.02667 12.8051C4.02667 12.2985 4.57333 11.9785 5.02 12.2251L5.02667 12.2185Z" fill="#222343"/>
<path d="M27.0133 12.3315L17.3533 17.5115C17.14 17.6248 17 17.8515 17 18.0982V28.5115C17 29.0248 17.5533 29.3448 18 29.0915L27.62 23.5182C27.8267 23.3982 27.9533 23.1782 27.9533 22.9448L27.9933 12.9248C27.9933 12.4182 27.46 12.0982 27.0133 12.3315Z" fill="#222343"/>
</svg>
