<svg width="32" height="32" viewBox="0 0 32 32" fill="none" xmlns="http://www.w3.org/2000/svg">
<path d="M16.2667 22.2C17.1334 22.2 17.8667 22 18.4667 21.5334C19.0667 21.0667 19.3334 20.5334 19.3334 19.8C19.3334 19.0667 19.0667 18.4667 18.4667 17.9334C17.8667 17.4 16.8667 16.8667 15.4 16.2667C14.0667 15.7334 13.0667 15.1334 12.4 14.4667C11.7334 13.8 11.4 12.9334 11.4 11.8667C11.4 10.8 11.7334 10.0667 12.4 9.33336C13.0667 8.66669 13.9334 8.20002 15.0667 8.06669V7.26669C15.0667 7.00002 15.1334 6.80002 15.3334 6.60002C15.5334 6.40002 15.7334 6.33336 16 6.33336C16.2667 6.33336 16.4667 6.40002 16.6667 6.60002C16.8667 6.80002 16.9334 7.00002 16.9334 7.26669V8.06669C17.6667 8.13336 18.2667 8.33336 18.8667 8.66669C19.4667 9.00002 19.8667 9.46669 20.2667 10C20.4 10.2 20.4 10.4 20.3334 10.6C20.2667 10.8 20.0667 11 19.8667 11.1334C19.6667 11.2667 19.4 11.2667 19.2 11.2C19 11.1334 18.8 11 18.6 10.8C18.2667 10.4 17.9334 10.0667 17.4667 9.86669C17 9.66669 16.5334 9.53336 16 9.53336C15.1334 9.53336 14.4667 9.73336 13.9334 10.1334C13.4 10.5334 13.2 11.0667 13.2 11.8C13.2 12.5334 13.4667 13.0667 14.0667 13.5334C14.6667 14 15.6 14.4667 16.8667 15C18.4 15.6667 19.4667 16.3334 20.1334 17.0667C20.8 17.8 21.1334 18.7334 21.1334 19.8667C21.1334 21 21 20.9334 20.8 21.4C20.6 21.8667 20.3334 22.2667 19.9334 22.6C19.5334 22.9334 19.1334 23.2 18.6 23.4C18.0667 23.6 17.4667 23.7334 16.8 23.8V24.6667C16.8 24.9334 16.7334 25.1334 16.5334 25.3334C16.3334 25.5334 16.1334 25.6 15.8667 25.6C15.6 25.6 15.4 25.5334 15.2 25.3334C15 25.1334 14.9334 24.9334 14.9334 24.6667V23.8C14.0667 23.5334 13.3334 23.2 12.7334 22.7334C12.1334 22.2667 11.5334 21.6 11.1334 20.8667C11 20.6667 11 20.4667 11.1334 20.2667C11.2667 20.0667 11.4 19.9334 11.6667 19.8667C11.9334 19.8 12.1334 19.8 12.3334 19.8667C12.5334 19.9334 12.7334 20.1334 12.8 20.3334C13.1334 20.9334 13.6 21.4667 14.2 21.8C14.8 22.1334 15.4667 22.3334 16.2 22.3334L16.2667 22.2ZM16 30.6667C13.5334 30.6667 11.1334 29.9334 8.80004 28.4667C6.46671 27 4.66671 25.3334 3.33337 23.4V27C3.33337 27.2667 3.26671 27.5334 3.06671 27.7334C2.86671 27.9334 2.66671 28 2.33337 28C2.00004 28 1.80004 27.9334 1.60004 27.7334C1.40004 27.5334 1.33337 27.3334 1.33337 27V21C1.33337 20.7334 1.40004 20.4667 1.60004 20.2667C1.80004 20.0667 2.00004 20 2.33337 20H8.33337C8.60004 20 8.86671 20.0667 9.06671 20.2667C9.26671 20.4667 9.33337 20.6667 9.33337 21C9.33337 21.3334 9.26671 21.5334 9.06671 21.7334C8.86671 21.9334 8.66671 22 8.33337 22H4.73337C5.86671 23.7334 7.46671 25.2667 9.60004 26.6C11.7334 28 13.8 28.6667 16 28.6667C19.3334 28.6667 22.2 27.5334 24.6 25.2667C27 23 28.3334 20.2667 28.6 17C28.6 16.7334 28.7334 16.4667 28.9334 16.2667C29.1334 16.0667 29.3334 15.9334 29.6667 15.9334C30 15.9334 30.2 16 30.4 16.2C30.6 16.4 30.6667 16.6 30.6667 16.8667C30.5334 18.8 30.0667 20.6 29.2667 22.2667C28.4667 23.9334 27.4 25.4 26.0667 26.6C24.7334 27.8667 23.2667 28.8 21.5334 29.5334C19.8 30.2667 18 30.6 16.0667 30.6L16 30.6667ZM16 3.33336C12.6667 3.33336 9.80004 4.46669 7.40004 6.73336C5.00004 9.00002 3.66671 11.7334 3.40004 15C3.40004 15.2667 3.26671 15.5334 3.06671 15.7334C2.86671 15.9334 2.66671 16.0667 2.33337 16.0667C2.00004 16.0667 1.80004 16 1.60004 15.8C1.40004 15.6 1.33337 15.4 1.33337 15.1334C1.46671 13.2 1.93337 11.4 2.73337 9.73336C3.53337 8.06669 4.60004 6.60002 5.93337 5.40002C7.26671 4.20002 8.73337 3.20002 10.4667 2.46669C12.2 1.73336 14 1.40002 15.9334 1.40002C17.8667 1.40002 20.8 2.13336 23.1334 3.60002C25.4667 5.06669 27.2667 6.73336 28.6 8.66669V5.06669C28.6 4.80002 28.6667 4.53336 28.8667 4.33336C29.0667 4.13336 29.2667 4.06669 29.6 4.06669C29.9334 4.06669 30.1334 4.13336 30.3334 4.33336C30.5334 4.53336 30.6 4.73336 30.6 5.06669V11.0667C30.6 11.3334 30.5334 11.6 30.3334 11.8C30.1334 12 29.9334 12.0667 29.6 12.0667H23.6C23.3334 12.0667 23.0667 12 22.8667 11.8C22.6667 11.6 22.6 11.4 22.6 11.0667C22.6 10.7334 22.6667 10.5334 22.8667 10.3334C23.0667 10.1334 23.2667 10.0667 23.6 10.0667H27.2C26.0667 8.33336 24.4667 6.80002 22.3334 5.46669C20.2 4.13336 18.1334 3.40002 15.9334 3.40002L16 3.33336Z" fill="#222343"/>
</svg>
