<svg width="32" height="32" viewBox="0 0 32 32" fill="none" xmlns="http://www.w3.org/2000/svg">
<path d="M28.8 4.6C28.4 4.2 27.9333 4 27.4 4H4.66663C4.13329 4 3.66663 4.2 3.26663 4.6C2.86663 5 2.66663 5.46667 2.66663 6V22C2.66663 22.5333 2.86663 23 3.26663 23.4C3.66663 23.8 4.13329 24 4.66663 24H14V27.3333H12.1333C11.8666 27.3333 11.6 27.4 11.4 27.6C11.2 27.8 11.1333 28 11.1333 28.3333C11.1333 28.6667 11.2 28.8667 11.4 29.0667C11.6 29.2667 11.8 29.3333 12.1333 29.3333H19.8666C20.1333 29.3333 20.4 29.2667 20.6 29.0667C20.8 28.8667 20.8666 28.6667 20.8666 28.3333C20.8666 28 20.8 27.8 20.6 27.6C20.4 27.4 20.2 27.3333 19.8666 27.3333H18V24H27.3333C27.8666 24 28.3333 23.8 28.7333 23.4C29.1333 23 29.3333 22.5333 29.3333 22V6C29.3333 5.46667 29.1333 5 28.7333 4.6H28.8ZM8.99996 19.5333C6.53329 19.0667 4.66663 16.8667 4.66663 14.2667C4.66663 11.6667 6.53329 9.46667 8.99996 9V19.4667V19.5333ZM11 19.5333V15.2667H15.2666C14.8666 17.4 13.2 19.1333 11 19.5333ZM11 13.2667V9C13.1333 9.4 14.8666 11.0667 15.2666 13.2667H11ZM19.3333 19.6H17.3333V15.9333C17.3333 15.4 17.8 14.9333 18.3333 14.9333C18.8666 14.9333 19.3333 15.4 19.3333 15.9333V19.6ZM23.3333 19.6H21.3333V13.2667C21.3333 12.7333 21.8 12.2667 22.3333 12.2667C22.8666 12.2667 23.3333 12.7333 23.3333 13.2667V19.6ZM27.3333 19.6H25.3333V10.6C25.3333 10.0667 25.8 9.6 26.3333 9.6C26.8666 9.6 27.3333 10.0667 27.3333 10.6V19.6Z" fill="#222343"/>
</svg>
