<svg width="32" height="32" viewBox="0 0 32 32" fill="none" xmlns="http://www.w3.org/2000/svg">
<path d="M27.3334 5.33325H4.66675C3.56008 5.33325 2.66675 6.22659 2.66675 7.33325V18.0466C4.08008 16.7733 5.95341 15.9999 8.00008 15.9999C12.4134 15.9999 16.0001 19.5866 16.0001 23.9999C16.0001 24.8933 15.8534 25.7599 15.5734 26.5666H27.3334C28.4401 26.5666 29.3334 25.6733 29.3334 24.5666V7.33325C29.3334 6.22659 28.4401 5.33325 27.3334 5.33325ZM19.3134 24.5733H17.3134V20.9066C17.3134 20.3533 17.7601 19.9066 18.3134 19.9066C18.8667 19.9066 19.3134 20.3533 19.3134 20.9066V24.5733ZM19.3201 14.7933C19.0401 14.7933 18.7601 14.6733 18.5601 14.4466L14.4801 9.71325L9.23341 13.7933C8.80008 14.1333 8.16675 14.0533 7.83341 13.6199C7.49341 13.1866 7.57341 12.5533 8.00675 12.2133L14.0067 7.54658C14.4267 7.21992 15.0334 7.27992 15.3801 7.68658L19.4601 12.4199L25.7267 7.54658C26.1601 7.20658 26.7934 7.28659 27.1267 7.71992C27.4667 8.15325 27.3867 8.78658 26.9534 9.12658L19.9401 14.5799C19.7601 14.7199 19.5401 14.7933 19.3267 14.7933H19.3201ZM23.3134 24.5733H21.3134V18.2399C21.3134 17.6866 21.7601 17.2399 22.3134 17.2399C22.8667 17.2399 23.3134 17.6866 23.3134 18.2399V24.5733ZM27.3334 24.5733H25.3334V15.5733C25.3334 15.0199 25.7801 14.5733 26.3334 14.5733C26.8867 14.5733 27.3334 15.0199 27.3334 15.5733V24.5733Z" fill="#222343"/>
<path d="M2 24.0001C2 26.9734 4.16 29.4401 7 29.9201V18.0801C4.16 18.5601 2 21.0267 2 24.0001Z" fill="#222343"/>
<path d="M9 18.0801V23.0001H13.92C13.4933 20.4867 11.5133 18.5067 9 18.0801Z" fill="#222343"/>
<path d="M9 29.92C11.5133 29.4933 13.4933 27.5133 13.92 25H9V29.92Z" fill="#222343"/>
</svg>
