<svg width="32" height="32" viewBox="0 0 32 32" fill="none" xmlns="http://www.w3.org/2000/svg">
<path d="M16 14.6667C19.58 14.6667 22.4733 14.12 24.6866 13.0333C26.9 11.9467 28.0066 10.7133 28 9.33333C28 7.93333 26.8933 6.69333 24.6866 5.62C22.4733 4.54 19.58 4 16 4C12.42 4 9.52662 4.54 7.31995 5.62C5.10662 6.7 3.99995 7.94 3.99995 9.33333C3.99995 10.7267 5.10662 11.9467 7.31995 13.0333C9.53329 14.12 12.4266 14.6667 16 14.6667ZM16 18C17.1133 18 18.3533 17.9067 19.7333 17.72C21.1133 17.5333 22.4133 17.2333 23.6466 16.8333C24.88 16.4333 25.9133 15.9133 26.7466 15.28C27.58 14.6467 28 13.8867 28 13V16.3333C28 17.22 27.5866 17.9867 26.7466 18.6133C25.9133 19.2467 24.88 19.7667 23.6466 20.1667C22.4133 20.5667 21.1066 20.86 19.7266 21.0533C18.3466 21.24 17.1066 21.3333 15.9933 21.3333C14.88 21.3333 13.6666 21.24 12.2733 21.0533C10.8866 20.8667 9.57329 20.5667 8.33995 20.1533C7.10662 19.74 6.07329 19.22 5.23995 18.5867C4.40662 17.9533 3.99329 17.2067 3.99329 16.3333V13C3.99329 13.8667 4.40662 14.62 5.24662 15.2533C6.08662 15.8867 7.11329 16.4067 8.34662 16.82C9.57995 17.2333 10.8933 17.5333 12.28 17.72C13.6666 17.9067 14.9066 18 16 18ZM16 24.6667C17.1133 24.6667 18.3533 24.5733 19.7333 24.3867C21.1133 24.2 22.4133 23.9067 23.6466 23.5C24.88 23.1 25.9133 22.58 26.7466 21.9467C27.58 21.3133 28 20.5533 28 19.6667V23C28 23.8867 27.5866 24.6533 26.7466 25.28C25.9133 25.9133 24.88 26.4267 23.6466 26.8333C22.4133 27.24 21.1066 27.5267 19.7266 27.72C18.3466 27.9133 17.1066 28 15.9933 28C14.88 28 13.6666 27.9067 12.2733 27.72C10.88 27.5333 9.57329 27.2333 8.33995 26.82C7.10662 26.4067 6.07329 25.8867 5.23995 25.2533C4.40662 24.62 3.99329 23.8667 3.99329 23V19.6667C3.99329 20.5333 4.40662 21.2867 5.24662 21.92C6.07995 22.5533 7.11329 23.0733 8.34662 23.4867C9.57995 23.9 10.8933 24.2 12.28 24.3867C13.6666 24.5733 14.9066 24.6733 16 24.6733V24.6667Z" fill="#222343"/>
</svg>
