<svg width="32" height="32" viewBox="0 0 32 32" fill="none" xmlns="http://www.w3.org/2000/svg">
<path d="M11.6333 23.6666H20.3666C20.6533 23.6666 20.8933 23.5733 21.0866 23.3866C21.2733 23.2 21.3733 22.96 21.3733 22.6666C21.3733 22.3733 21.28 22.14 21.0933 21.9466C20.9066 21.76 20.6666 21.6666 20.3733 21.6666H11.64C11.3533 21.6666 11.1133 21.76 10.92 21.9466C10.7266 22.1333 10.6333 22.3733 10.6333 22.6666C10.6333 22.96 10.7266 23.1933 10.92 23.3866C11.1133 23.58 11.3466 23.6666 11.6333 23.6666ZM11.6333 18H20.3666C20.6533 18 20.8933 17.9066 21.0866 17.72C21.2733 17.5333 21.3733 17.2933 21.3733 17C21.3733 16.7066 21.28 16.4733 21.0933 16.28C20.9066 16.0933 20.6666 16 20.3733 16H11.64C11.3533 16 11.1133 16.0933 10.92 16.28C10.7333 16.4666 10.6333 16.7066 10.6333 17C10.6333 17.2933 10.7266 17.5266 10.92 17.72C11.1066 17.9066 11.3466 18 11.64 18H11.6333ZM7.33331 29.3333C6.79998 29.3333 6.33331 29.1333 5.93331 28.7333C5.53331 28.3333 5.33331 27.8666 5.33331 27.3333V4.66663C5.33331 4.13329 5.53331 3.66663 5.93331 3.26663C6.33331 2.86663 6.79998 2.66663 7.33331 2.66663H18.5333C18.8 2.66663 19.06 2.71996 19.3133 2.83329C19.5666 2.94663 19.7866 3.08663 19.9666 3.26663L26.0666 9.36663C26.2466 9.54663 26.3866 9.75996 26.5 10.02C26.6133 10.2733 26.6666 10.54 26.6666 10.8066V27.34C26.6666 27.8733 26.4666 28.34 26.0666 28.74C25.6666 29.14 25.2 29.34 24.6666 29.34H7.33331V29.3333ZM18.3666 9.86663C18.3666 10.1533 18.46 10.3933 18.6466 10.58C18.8333 10.7666 19.0733 10.8666 19.3666 10.8666H24.6666L18.3666 4.66663V9.86663Z" fill="#222343"/>
</svg>
