<svg width="32" height="32" viewBox="0 0 32 32" fill="none" xmlns="http://www.w3.org/2000/svg">
<path d="M12.1667 29.3333C11.88 29.3333 11.64 29.24 11.4467 29.0533C11.26 28.8667 11.1667 28.6267 11.1667 28.3333C11.1667 28.04 11.26 27.8067 11.4467 27.6133C11.6333 27.4267 11.8733 27.3333 12.1667 27.3333H14.0333V24H4.7C4.14667 24 3.67333 23.8067 3.28666 23.4133C2.9 23.02 2.70667 22.5533 2.70667 22V6C2.70667 5.44667 2.9 4.97333 3.29333 4.58667C3.68667 4.2 4.15333 4 4.70666 4H27.3733C27.9267 4 28.4 4.19333 28.7867 4.58667C29.1733 4.97333 29.3733 5.44667 29.3733 6V22C29.3733 22.5533 29.18 23.0267 28.7867 23.4133C28.4 23.8 27.9267 24 27.3733 24H18.04V27.3333H19.9067C20.1933 27.3333 20.4333 27.4267 20.6267 27.6133C20.82 27.8 20.9067 28.04 20.9067 28.3333C20.9067 28.6267 20.8133 28.86 20.6267 29.0533C20.44 29.24 20.2 29.3333 19.9133 29.3333H12.18H12.1667Z" fill="#222343"/>
</svg>
