<svg width="32" height="32" viewBox="0 0 32 32" fill="none" xmlns="http://www.w3.org/2000/svg">
<path d="M28.8533 12.38C28.5333 12.1267 28.1467 12 27.7 12H18.6333C18.28 12 17.9733 12.1267 17.7133 12.38C17.46 12.6333 17.3267 12.94 17.3267 13.3V27.8667C17.3267 28.3133 17.4533 28.6667 17.7133 28.9333C17.9667 29.2 18.2733 29.3333 18.6333 29.3333H27.7C28.1467 29.3333 28.5267 29.2 28.8533 28.9333C29.18 28.6667 29.3333 28.3133 29.3333 27.8667V13.3C29.3333 12.9467 29.1733 12.64 28.8533 12.38ZM27.3333 26.3333H19.3333V14H27.3333V26.3333Z" fill="#222343"/>
<path d="M29.2933 7.21992C29.2933 6.17325 28.4466 5.33325 27.4066 5.33325H4.51997C3.4733 5.33325 2.6333 6.17992 2.6333 7.21992V23.9999H4.6333V7.33325H27.3V9.99992H29.3V7.21992H29.2933Z" fill="#222343"/>
<path d="M0 24V24.6667C0 25.7733 0.893333 26.6667 2 26.6667H15.3333V24H0Z" fill="#222343"/>
</svg>
