<svg width="32" height="32" viewBox="0 0 32 32" fill="none" xmlns="http://www.w3.org/2000/svg">
<path d="M6.66667 23.8667V25.6667C6.66667 25.9534 6.57333 26.1934 6.38 26.3867C6.19333 26.5734 5.95333 26.6667 5.66667 26.6667H5C4.71333 26.6667 4.47333 26.5734 4.28667 26.3867C4.1 26.2 4 25.96 4 25.6667V14.8667L6.83333 6.33337C6.94667 6.02004 7.12667 5.78004 7.38 5.60004C7.63333 5.42004 7.92667 5.33337 8.26 5.33337H23.7267C24.06 5.33337 24.3533 5.42004 24.6133 5.60004C24.8667 5.78004 25.0533 6.02004 25.1667 6.33337L28 14.8667V25.6667C28 25.9534 27.9067 26.1934 27.72 26.3867C27.5333 26.58 27.2933 26.6667 27 26.6667H26.3C26.0133 26.6667 25.7733 26.5734 25.58 26.3867C25.3867 26.2 25.3 25.96 25.3 25.6667V23.8667H6.66667ZM6.76667 12.8667H25.2333L23.4 7.33337H8.6L6.76667 12.8667ZM9.53333 20.2C10.0467 20.2 10.4733 20.02 10.8133 19.6667C11.16 19.3134 11.3267 18.8867 11.3267 18.4C11.3267 17.9134 11.1533 17.4534 10.8133 17.08C10.4667 16.7134 10.04 16.5267 9.52667 16.5267C9.01333 16.5267 8.57333 16.7067 8.20667 17.08C7.84 17.4467 7.65333 17.8867 7.66 18.4C7.66 18.9134 7.84 19.34 8.20667 19.68C8.57333 20.0267 9.01333 20.1934 9.52667 20.1934L9.53333 20.2ZM22.5 20.2C23.0133 20.2 23.4467 20.02 23.8133 19.6667C24.18 19.3134 24.3667 18.8867 24.3667 18.4C24.3667 17.9134 24.18 17.4534 23.8133 17.08C23.4467 16.7134 23.0067 16.5267 22.5 16.5267C21.9867 16.5267 21.56 16.7067 21.22 17.08C20.8733 17.4467 20.7067 17.8867 20.7067 18.4C20.7067 18.9134 20.8867 19.34 21.24 19.68C21.5933 20.0267 22.02 20.1934 22.5067 20.1934L22.5 20.2Z" fill="#222343"/>
</svg>
