<svg width="32" height="32" viewBox="0 0 32 32" fill="none" xmlns="http://www.w3.org/2000/svg">
<path d="M5.19996 25.3333L2.73329 16.7666C2.64663 16.4999 2.65996 16.2399 2.78663 15.9799C2.91329 15.7199 3.10663 15.5533 3.37329 15.4599L5.33996 14.7933V7.32658C5.33996 6.77325 5.53329 6.30659 5.92663 5.92659C6.31996 5.54659 6.78663 5.34658 7.34663 5.32658H12.3466V2.33325C12.3466 2.04659 12.44 1.81325 12.6333 1.61992C12.8266 1.42659 13.06 1.33325 13.3466 1.33325H18.68C18.9666 1.33325 19.2 1.42659 19.3933 1.61992C19.5866 1.81325 19.68 2.04659 19.68 2.33325V5.33325H24.68C25.2333 5.33325 25.7 5.52659 26.0933 5.91992C26.4866 6.31325 26.68 6.77992 26.68 7.33325V14.8333L28.68 15.4666C28.9266 15.5533 29.1066 15.7199 29.2333 15.9666C29.36 16.2133 29.3733 16.4666 29.2866 16.7333L26.82 25.3333C25.9533 25.2466 25.1333 25.0133 24.3666 24.6333C23.6 24.2533 22.8933 23.7999 22.2466 23.2666C22.1133 23.1533 21.9733 23.0799 21.8266 23.0333C21.68 22.9866 21.5333 22.9666 21.3733 22.9666C21.2133 22.9666 21.0733 22.9999 20.9333 23.0666C20.7933 23.1332 20.66 23.2199 20.5466 23.3333C19.9 23.9133 19.2 24.3933 18.4333 24.7666C17.6666 25.1466 16.86 25.3333 16.0133 25.3333C15.1666 25.3333 14.36 25.1466 13.5933 24.7666C12.8266 24.3866 12.12 23.9133 11.48 23.3333C11.36 23.2199 11.2266 23.1332 11.08 23.0666C10.9333 22.9999 10.7866 22.9666 10.64 22.9666C10.4933 22.9666 10.34 22.9866 10.1933 23.0333C10.0466 23.0799 9.90663 23.1533 9.77329 23.2666C9.12663 23.7999 8.41996 24.2533 7.65329 24.6333C6.88663 25.0133 6.06663 25.2466 5.19996 25.3333ZM3.66663 30.6666C3.37996 30.6666 3.14663 30.5733 2.95329 30.3799C2.75996 30.1866 2.66663 29.9466 2.66663 29.6666C2.66663 29.3866 2.75996 29.1466 2.95329 28.9533C3.14663 28.7599 3.37996 28.6666 3.66663 28.6666H5.33329C6.13329 28.6666 6.91996 28.5599 7.69996 28.3466C8.47996 28.1333 9.21996 27.8266 9.93329 27.4266C10.0466 27.3799 10.16 27.3399 10.2866 27.3066C10.4066 27.2732 10.54 27.2533 10.6666 27.2533C10.7933 27.2533 10.9266 27.2732 11.0466 27.3066C11.1666 27.3399 11.2866 27.3799 11.4 27.4266C12.1133 27.8066 12.86 28.0932 13.6533 28.2932C14.4466 28.4932 15.2266 28.5932 16.0066 28.5932C16.7866 28.5932 17.5666 28.4932 18.36 28.2932C19.1533 28.0932 19.9 27.8066 20.6133 27.4266C20.7266 27.3799 20.84 27.3399 20.9666 27.3066C21.0933 27.2732 21.22 27.2533 21.3466 27.2533C21.4733 27.2533 21.6066 27.2732 21.7266 27.3066C21.8466 27.3399 21.9666 27.3799 22.08 27.4266C22.7933 27.8266 23.5333 28.1333 24.3133 28.3466C25.0933 28.5599 25.88 28.6666 26.68 28.6666H28.3466C28.6333 28.6666 28.8666 28.7599 29.06 28.9533C29.2533 29.1466 29.3466 29.3866 29.3466 29.6732C29.3466 29.9599 29.2533 30.1933 29.06 30.3866C28.8666 30.5799 28.6333 30.6732 28.3466 30.6732H26.68C25.7666 30.6732 24.8666 30.5532 23.98 30.3199C23.0933 30.0866 22.2133 29.7466 21.3466 29.2999C20.48 29.7466 19.5933 30.0866 18.68 30.3199C17.7666 30.5532 16.88 30.6732 16.0133 30.6732C15.1466 30.6732 14.26 30.5532 13.3466 30.3199C12.4333 30.0866 11.5466 29.7466 10.68 29.2999C9.81329 29.7466 8.93329 30.0866 8.04663 30.3199C7.15996 30.5532 6.25996 30.6732 5.34663 30.6732H3.67996L3.66663 30.6666ZM7.33329 14.1666L15.3666 11.5666C15.5733 11.4999 15.78 11.4666 16 11.4666C16.22 11.4666 16.4333 11.4999 16.6333 11.5666L24.6666 14.1999V7.33325H7.33329V14.1666Z" fill="currentColor"/>
</svg>
