<svg width="32" height="32" viewBox="0 0 32 32" fill="none" xmlns="http://www.w3.org/2000/svg">
<path d="M20.3666 10.8667H24.6666L18.3666 4.66675V8.86675C18.3666 9.42008 18.5599 9.89341 18.9533 10.2867C19.3466 10.6801 19.8133 10.8734 20.3733 10.8734L20.3666 10.8667ZM23.9999 25.4334L21.8999 27.5001C21.6999 27.6801 21.4666 27.7734 21.1999 27.7867C20.9333 27.8001 20.6999 27.7001 20.4999 27.5001C20.2999 27.3001 20.1999 27.0667 20.1999 26.8001C20.1999 26.5334 20.2999 26.3001 20.4999 26.1001L22.5999 24.0001L20.4999 21.9001C20.2999 21.7001 20.1999 21.4667 20.1999 21.2001C20.1999 20.9334 20.2999 20.7001 20.4999 20.5001C20.6999 20.3001 20.9333 20.2001 21.1999 20.2001C21.4666 20.2001 21.6999 20.3001 21.8999 20.5001L23.9999 22.6001L26.0999 20.5001C26.2999 20.3001 26.5333 20.2001 26.7999 20.2001C27.0666 20.2001 27.2999 20.3001 27.4999 20.5001C27.6999 20.7001 27.7933 20.9334 27.7866 21.2001C27.7799 21.4667 27.6799 21.7001 27.4999 21.9001L25.4333 24.0001L27.4999 26.1001C27.6799 26.3001 27.7733 26.5334 27.7866 26.8001C27.7999 27.0667 27.6999 27.3001 27.4999 27.5001C27.2999 27.7001 27.0666 27.7934 26.7999 27.7867C26.5333 27.7801 26.2999 27.6801 26.0999 27.5001L23.9999 25.4334ZM7.33325 29.3334C6.79992 29.3334 6.33325 29.1334 5.93325 28.7334C5.53325 28.3334 5.33325 27.8667 5.33325 27.3334V4.66675C5.33325 4.13341 5.53325 3.66675 5.93325 3.26675C6.33325 2.86675 6.79992 2.66675 7.33325 2.66675H18.5333C18.7999 2.66675 19.0599 2.72008 19.3199 2.83341C19.5799 2.94675 19.7933 3.08675 19.9733 3.26675L26.0733 9.36675C26.2533 9.54675 26.3933 9.76008 26.5066 10.0201C26.6199 10.2801 26.6733 10.5401 26.6733 10.8067V16.7067C26.6733 16.9067 26.5866 17.0667 26.4199 17.1934C26.2533 17.3201 26.0666 17.3467 25.8666 17.2801C24.6666 16.9467 23.4533 16.9267 22.2333 17.2267C21.0133 17.5267 19.9466 18.1334 19.0333 19.0467C18.3866 19.6934 17.8866 20.4334 17.5333 21.2667C17.1799 22.1001 16.9999 23.0067 16.9999 23.9867C16.9999 24.7667 17.1266 25.5134 17.3866 26.2401C17.6466 26.9667 17.9933 27.6267 18.4399 28.2267C18.6199 28.4734 18.6466 28.7201 18.5266 28.9801C18.4066 29.2401 18.2066 29.3667 17.9399 29.3667H7.33992L7.33325 29.3334Z" fill="currentColor"/>
</svg>
