<svg width="32" height="32" viewBox="0 0 32 32" fill="none" xmlns="http://www.w3.org/2000/svg">
<path d="M22 25.6667C23.0467 25.6667 23.92 25.3134 24.62 24.6134C25.32 23.9134 25.6733 23.0401 25.6733 21.9934C25.6733 20.9467 25.32 20.0734 24.62 19.3734C23.92 18.6734 23.0467 18.3201 22 18.3201C20.9533 18.3201 20.08 18.6734 19.38 19.3734C18.68 20.0734 18.3267 20.9467 18.3267 21.9934C18.3267 23.0401 18.68 23.9134 19.38 24.6134C20.08 25.3134 20.9533 25.6667 22 25.6667ZM29.5 29.5001C29.3 29.7001 29.0667 29.8001 28.8 29.8001C28.5333 29.8001 28.3 29.7001 28.1 29.5001L25.2333 26.6334C24.7667 26.9467 24.26 27.1934 23.7133 27.3867C23.1667 27.5801 22.5933 27.6734 21.9933 27.6734C20.4133 27.6734 19.0733 27.1201 17.9733 26.0201C16.8733 24.9201 16.32 23.5801 16.32 22.0001C16.32 20.4201 16.8733 19.0801 17.9733 17.9801C19.0733 16.8801 20.4133 16.3267 21.9933 16.3267C23.5733 16.3267 24.9133 16.8801 26.0133 17.9801C27.1133 19.0801 27.6667 20.4201 27.6667 22.0001C27.6667 22.6001 27.5733 23.1734 27.38 23.7201C27.1933 24.2667 26.94 24.7734 26.6267 25.2401L29.4933 28.1067C29.6933 28.3067 29.7933 28.5401 29.7933 28.8067C29.7933 29.0734 29.6933 29.3067 29.4933 29.5067L29.5 29.5001ZM6 29.3334C5.46667 29.3334 5 29.1334 4.6 28.7334C4.2 28.3334 4 27.8667 4 27.3334V4.66675C4 4.13341 4.2 3.66675 4.6 3.26675C5 2.86675 5.46667 2.66675 6 2.66675H17.2C17.4667 2.66675 17.7267 2.72008 17.9867 2.83341C18.2467 2.94675 18.46 3.08675 18.64 3.26675L24.74 9.36675C24.92 9.54675 25.06 9.76008 25.1733 10.0201C25.2867 10.2801 25.34 10.5401 25.34 10.8067V13.8401C25.34 14.1534 25.22 14.3934 24.9733 14.5601C24.7267 14.7267 24.46 14.7667 24.1733 14.6801C23.82 14.5667 23.46 14.4867 23.1067 14.4267C22.7533 14.3667 22.3867 14.3401 22.0067 14.3401C19.6267 14.3401 17.7533 15.1467 16.3867 16.7601C15.02 18.3734 14.3333 20.1534 14.3333 22.1134C14.3333 23.2934 14.6 24.4267 15.1333 25.5134C15.6667 26.6001 16.5133 27.5467 17.6667 28.3467C17.9133 28.5267 17.9933 28.7334 17.92 28.9801C17.8467 29.2267 17.68 29.3467 17.4333 29.3467H6V29.3334ZM17.0333 4.66675V9.86675C17.0333 10.1534 17.1267 10.3934 17.32 10.5867C17.5133 10.7801 17.7467 10.8734 18.04 10.8734H23.34L17.04 4.67341L17.0333 4.66675Z" fill="currentColor"/>
</svg>
