<svg width="32" height="32" viewBox="0 0 32 32" fill="none" xmlns="http://www.w3.org/2000/svg">
<path d="M26.4999 10.0134C26.3866 9.76008 26.2466 9.54008 26.0666 9.36675L19.9666 3.26675C19.7866 3.08675 19.5733 2.94675 19.3133 2.83341C19.0599 2.72008 18.7999 2.66675 18.5333 2.66675H7.33325C6.79992 2.66675 6.33325 2.86675 5.93325 3.26675C5.53325 3.66675 5.33325 4.13341 5.33325 4.66675V27.3334C5.33325 27.8667 5.53325 28.3334 5.93325 28.7334C6.33325 29.1334 6.79992 29.3334 7.33325 29.3334H24.6666C25.1999 29.3334 25.6666 29.1334 26.0666 28.7334C26.4666 28.3334 26.6666 27.8667 26.6666 27.3334V10.8001C26.6666 10.5334 26.6133 10.2734 26.4999 10.0134ZM14.1133 14.1134C14.6333 13.5934 15.2599 13.3334 15.9999 13.3334C16.7399 13.3334 17.3599 13.5934 17.8866 14.1134C18.4066 14.6334 18.6666 15.2601 18.6666 16.0001C18.6666 16.7401 18.4066 17.3601 17.8866 17.8867C17.3666 18.4067 16.7333 18.6667 15.9999 18.6667C15.2666 18.6667 14.6399 18.4067 14.1133 17.8867C13.5933 17.3667 13.3333 16.7334 13.3333 16.0001C13.3333 15.2667 13.5933 14.6401 14.1133 14.1134ZM21.3333 24.0001H10.6666V23.2334C10.6666 22.7001 10.8133 22.2134 11.0999 21.7667C11.3866 21.3201 11.7866 20.9867 12.2999 20.7667C12.8799 20.5201 13.4733 20.3334 14.0799 20.2001C14.6933 20.0667 15.3333 20.0001 15.9999 20.0001C16.6666 20.0001 17.3066 20.0667 17.9199 20.2001C18.5333 20.3334 19.1266 20.5201 19.6999 20.7667C20.2133 20.9867 20.6133 21.3201 20.8999 21.7667C21.1866 22.2134 21.3333 22.7001 21.3333 23.2334V24.0001Z" fill="currentColor"/>
</svg>
