<svg width="32" height="32" viewBox="0 0 32 32" fill="none" xmlns="http://www.w3.org/2000/svg">
<path d="M2.82609 17.845C2.56342 17.5821 2.43442 17.2679 2.43909 16.9023C2.44398 16.5365 2.57786 16.2222 2.84075 15.9593C3.10342 15.6966 3.41764 15.5653 3.78342 15.5653C4.1492 15.5653 4.46342 15.6966 4.72609 15.9593L9.80009 21.0666L10.2891 21.5556L10.7784 22.045C11.0286 22.2952 11.1569 22.5976 11.1631 22.9523C11.1693 23.3067 11.0473 23.6091 10.7971 23.8593L10.7638 23.8926C10.4884 24.1682 10.1703 24.3027 9.80942 24.2963C9.44853 24.2901 9.13675 24.1555 8.87409 23.8926L2.82609 17.845ZM15.4668 20.5956L27.3218 8.7593C27.572 8.49664 27.88 8.36208 28.2458 8.35564C28.6115 8.34941 28.9321 8.47775 29.2074 8.74064C29.4701 9.0033 29.6014 9.32064 29.6014 9.69264C29.6014 10.0646 29.4701 10.3821 29.2074 10.645L16.4118 23.4406C16.1489 23.7033 15.8339 23.8346 15.4668 23.8346C15.0996 23.8346 14.7846 23.7033 14.5218 23.4406L8.45509 17.374C8.19242 17.1111 8.06664 16.7967 8.07775 16.431C8.08886 16.0654 8.23209 15.745 8.50742 15.4696C8.77009 15.2194 9.08431 15.0943 9.45009 15.0943C9.81586 15.0943 10.1239 15.2194 10.3741 15.4696L15.4668 20.5956ZM23.1261 10.5883L16.3928 17.3216C16.1301 17.5845 15.8214 17.7104 15.4668 17.6993C15.1121 17.6882 14.8034 17.5512 14.5408 17.2883C14.2779 17.0381 14.1464 16.7301 14.1464 16.3643C14.1464 15.9987 14.2779 15.6845 14.5408 15.4216L21.2408 8.72164C21.5034 8.45897 21.8176 8.32764 22.1834 8.32764C22.5492 8.32764 22.8634 8.45897 23.1261 8.72164C23.3763 8.98453 23.5014 9.29875 23.5014 9.6643C23.5014 10.0301 23.3763 10.3381 23.1261 10.5883Z" fill="currentColor"/>
</svg>
