<svg width="32" height="32" viewBox="0 0 32 32" fill="none" xmlns="http://www.w3.org/2000/svg">
<path d="M3.03334 17.1668C2.83334 16.9668 2.74 16.7268 2.74667 16.4468C2.75334 16.1668 2.86667 15.9268 3.06667 15.7268C3.26667 15.5268 3.50667 15.4268 3.78667 15.4268C4.06667 15.4268 4.30667 15.5268 4.50667 15.7268L9.80667 21.0602L10.1733 21.4268L10.54 21.7935C10.74 21.9935 10.84 22.2268 10.84 22.4935C10.84 22.7602 10.74 22.9935 10.54 23.1935L10.5067 23.2268C10.3067 23.4268 10.0733 23.5268 9.80667 23.5268C9.54 23.5268 9.30667 23.4268 9.10667 23.2268L3.04 17.1602L3.03334 17.1668ZM15.4667 21.0668L27.5667 8.96682C27.7667 8.76682 28.0067 8.66682 28.2867 8.66682C28.5667 8.66682 28.8067 8.76682 29.0067 8.96682C29.2067 9.16682 29.3067 9.40682 29.3067 9.68682C29.3067 9.96682 29.2067 10.2068 29.0067 10.4068L16.1733 23.2402C15.9733 23.4402 15.74 23.5402 15.4733 23.5402C15.2067 23.5402 14.9733 23.4402 14.7733 23.2402L8.70667 17.1735C8.50667 16.9735 8.41334 16.7335 8.42 16.4535C8.42667 16.1735 8.54 15.9335 8.74 15.7335C8.94 15.5335 9.18 15.4335 9.46 15.4335C9.74 15.4335 9.98 15.5335 10.18 15.7335L15.48 21.0668H15.4667ZM23.3333 10.4002L16.1667 17.5668C15.9667 17.7668 15.7333 17.8602 15.4667 17.8535C15.2 17.8468 14.9667 17.7335 14.7667 17.5335C14.5667 17.3335 14.4667 17.0935 14.4667 16.8135C14.4667 16.5335 14.5667 16.2935 14.7667 16.0935L21.9 8.96016C22.1 8.76016 22.34 8.66016 22.62 8.66016C22.9 8.66016 23.14 8.76016 23.34 8.96016C23.54 9.16016 23.64 9.40016 23.64 9.68016C23.64 9.96016 23.54 10.2002 23.34 10.4002H23.3333Z" fill="currentColor"/>
</svg>
