<svg width="32" height="32" viewBox="0 0 32 32" fill="none" xmlns="http://www.w3.org/2000/svg">
<path d="M19.8133 14.6334C19.6333 14.0534 19.3267 13.5667 18.8933 13.1667C18.46 12.7667 17.9533 12.48 17.38 12.3V3.88003C17.38 3.26003 17.9467 2.78003 18.56 2.89336C21.2333 3.37336 23.54 4.58669 25.48 6.53336C27.7 8.75336 28.9667 11.4534 29.28 14.6334H19.8133ZM14.6467 28.12C14.6467 28.74 14.08 29.22 13.4667 29.1067C10.5867 28.6067 8.14 27.2467 6.12666 25.0267C3.84666 22.5134 2.70667 19.54 2.70667 16.0934C2.70667 12.6467 3.84 9.64003 6.10667 7.08003C8.10667 4.81336 10.5533 3.42003 13.4533 2.89336C14.0667 2.78003 14.64 3.25336 14.64 3.88003V12.2934C13.82 12.62 13.1667 13.16 12.68 13.9067C12.3533 14.4134 12.14 15 12.0733 15.6C11.96 16.6 12.1867 17.4867 12.76 18.26C13.24 18.9067 13.8667 19.3734 14.6467 19.66V28.1134V28.12ZM17.38 28.1134V19.6667C17.96 19.4867 18.46 19.2067 18.8933 18.82C19.3267 18.4334 19.6333 17.9467 19.8133 17.3734H28.1267C28.7467 17.3734 29.2267 17.94 29.1133 18.5534C28.6333 21.2267 27.42 23.5334 25.4733 25.4734C23.5333 27.4134 21.2267 28.6267 18.5533 29.1134C17.94 29.2267 17.3733 28.7467 17.3733 28.1267L17.38 28.1134Z" fill="#222343"/>
</svg>
