<svg width="32" height="32" viewBox="0 0 32 32" fill="none" xmlns="http://www.w3.org/2000/svg">
<path d="M27 25.8333H25.3067V8.89996C25.3067 7.66663 24.3067 6.66663 23.0733 6.66663H19.9733V6.05996C19.9733 4.77329 18.7733 3.81996 17.5133 4.11329L8.18 6.30663C7.27333 6.51996 6.64 7.32663 6.64 8.25329V25.8333H5C4.44667 25.8333 4 26.28 4 26.8333C4 27.3866 4.44667 27.8333 5 27.8333H27C27.5533 27.8333 28 27.3866 28 26.8333C28 26.28 27.5533 25.8333 27 25.8333ZM15.9867 18.1666C15.4333 18.1666 14.9867 17.72 14.9867 17.1666C14.9867 16.6133 15.4333 16.1666 15.9867 16.1666C16.54 16.1666 16.9867 16.6133 16.9867 17.1666C16.9867 17.72 16.54 18.1666 15.9867 18.1666ZM23.0733 8.89996V25.5933H19.9733V8.89996H23.0733Z" fill="#222343"/>
</svg>
