<svg width="32" height="32" viewBox="0 0 32 32" fill="none" xmlns="http://www.w3.org/2000/svg">
<path d="M11.7266 8.13331L11.74 8.15331C11.7733 8.18664 11.8066 8.22664 11.84 8.25998L11.9333 8.35998C13.5933 10.1266 15.6933 11.3266 18 11.86V9.49331C17.62 8.98664 17.2733 8.45998 16.9666 7.90664C16.22 6.55331 15.6933 5.06664 15.42 3.51331C15.2733 2.68664 14.2466 2.36664 13.6933 2.99998C12.5933 4.25998 11.7 5.73998 11.1066 7.37998C11.3 7.63331 11.5 7.87998 11.7133 8.11998L11.7266 8.13331Z" fill="#222343"/>
<path d="M29.1266 6.93998C29.6333 6.27998 29.16 5.33331 28.3333 5.33331H24C21.7933 5.33331 20 7.12664 20 9.33331V14.14C16.2466 13.9533 12.8866 12.2933 10.4733 9.72664C10.3866 9.63331 10.3 9.54664 10.22 9.45331C9.18664 8.29998 8.34664 6.96664 7.73997 5.50664C7.41997 4.73331 6.34664 4.65331 5.94664 5.38664C4.87331 7.36664 4.26664 9.63331 4.26664 12.04C4.26664 16.3 6.17331 20.1266 9.17331 22.7L3.20664 24.3666C2.43997 24.58 2.21997 25.5733 2.82664 26.0933C5.05331 28.02 7.89997 29.2533 11.0266 29.4666L15.8066 25.8466C16.5533 25.9866 17.3266 26.06 18.1133 26.0666C18.9466 26.0533 19.7466 25.9333 20.52 25.7266C24.6733 24.62 27.7666 20.9266 27.98 16.4733H27.9866V16.2666C27.9866 16.1733 28 16.08 28 15.9866C28 15.9 27.9933 15.8066 27.9866 15.72V8.43331L29.1266 6.94664V6.93998ZM23.54 10.3333C22.9866 10.3333 22.54 9.88664 22.54 9.33331C22.54 8.77998 22.9866 8.33331 23.54 8.33331C24.0933 8.33331 24.54 8.77998 24.54 9.33331C24.54 9.88664 24.0933 10.3333 23.54 10.3333Z" fill="#222343"/>
</svg>
