<svg width="32" height="32" viewBox="0 0 32 32" fill="none" xmlns="http://www.w3.org/2000/svg">
<path d="M15.9933 20.8653C15.8266 20.8653 15.663 20.8302 15.5023 20.7599C15.3416 20.6897 15.1925 20.587 15.055 20.4519L9.8143 15.2116C9.55164 14.9427 9.42586 14.6269 9.43697 14.2643C9.44808 13.9016 9.58064 13.5888 9.83464 13.3259C10.1113 13.0613 10.4312 12.9325 10.7943 12.9396C11.1574 12.9469 11.4704 13.082 11.7333 13.3449L14.6796 16.3056V6.18259C14.6796 5.81282 14.8074 5.49715 15.063 5.2356C15.3185 4.97404 15.6329 4.84326 16.006 4.84326C16.3789 4.84326 16.6911 4.97404 16.9426 5.2356C17.1944 5.49715 17.3203 5.81282 17.3203 6.18259V16.3056L20.3 13.3449C20.5584 13.082 20.8619 12.9494 21.2103 12.9469C21.559 12.9445 21.8695 13.0752 22.142 13.3389C22.4115 13.6027 22.5432 13.9195 22.537 14.2893C22.5307 14.659 22.3962 14.9776 22.1333 15.2449L16.945 20.4519C16.8065 20.587 16.655 20.6897 16.4903 20.7599C16.3256 20.8302 16.16 20.8653 15.9933 20.8653ZM7.50297 27.1376C6.78053 27.1376 6.15975 26.8782 5.64064 26.3593C5.12175 25.8402 4.8623 25.2194 4.8623 24.4969V21.0506C4.8623 20.6795 4.99008 20.3666 5.24564 20.1119C5.50119 19.8575 5.81542 19.7303 6.1883 19.7303C6.56119 19.7303 6.87353 19.8575 7.1253 20.1119C7.37708 20.3666 7.50297 20.6795 7.50297 21.0506V24.4969H24.497V21.0506C24.497 20.6795 24.6247 20.3666 24.8803 20.1119C25.1361 19.8575 25.4499 19.7303 25.8216 19.7303C26.1934 19.7303 26.5089 19.8575 26.768 20.1119C27.0271 20.3666 27.1566 20.6795 27.1566 21.0506V24.4969C27.1566 25.2194 26.8952 25.8402 26.3723 26.3593C25.8496 26.8782 25.2245 27.1376 24.497 27.1376H7.50297Z" fill="currentColor"/>
</svg>
