<svg width="32" height="32" viewBox="0 0 32 32" fill="none" xmlns="http://www.w3.org/2000/svg">
<path d="M10.3334 22.6667H21.6667C21.9534 22.6667 22.1934 22.5733 22.3867 22.38C22.58 22.1867 22.6734 21.9533 22.6734 21.66C22.6734 21.3667 22.58 21.1333 22.3867 20.94C22.1934 20.7467 21.96 20.6533 21.6667 20.6533H10.3334C10.0467 20.6533 9.8067 20.7467 9.61337 20.94C9.42003 21.1333 9.3267 21.3667 9.3267 21.66C9.3267 21.9533 9.42003 22.1867 9.61337 22.38C9.8067 22.5733 10.04 22.6667 10.3334 22.6667ZM14.9334 14.6333L12.8 12.5333C12.6 12.3533 12.3667 12.26 12.1 12.2467C11.8334 12.2333 11.6 12.3333 11.4 12.5333C11.2 12.7333 11.1 12.9667 11.1 13.2333C11.1 13.5 11.2 13.7333 11.4 13.9333L15.2 17.7667C15.4 17.9667 15.6334 18.0667 15.9 18.0667C16.1667 18.0667 16.4 17.9667 16.6 17.7667L20.4667 13.9333C20.6667 13.7333 20.7667 13.5 20.7667 13.2333C20.7667 12.9667 20.6667 12.7333 20.4667 12.5333C20.2667 12.3333 20.0334 12.24 19.7667 12.2467C19.5 12.2533 19.2667 12.3533 19.0667 12.5333L16.9334 14.6333V8.99999C16.9334 8.71332 16.84 8.47332 16.6467 8.27999C16.4534 8.08665 16.22 7.99332 15.9267 7.99332C15.6334 7.99332 15.4 8.08665 15.2067 8.27999C15.0134 8.47332 14.92 8.70665 14.92 8.99999V14.6333H14.9334ZM16 29.3333C14.18 29.3333 12.4534 28.98 10.8334 28.28C9.21337 27.58 7.79337 26.6267 6.58003 25.4133C5.3667 24.2 4.41337 22.7867 3.71337 21.16C3.01337 19.5333 2.66003 17.8133 2.66003 15.9933C2.66003 14.1733 3.01337 12.4133 3.71337 10.7933C4.41337 9.17332 5.3667 7.75999 6.58003 6.55999C7.79337 5.35999 9.2067 4.40665 10.8334 3.70665C12.4534 3.00665 14.18 2.65332 16 2.65332C17.82 2.65332 19.58 3.00665 21.2 3.70665C22.82 4.40665 24.2334 5.35999 25.4334 6.55999C26.6334 7.75999 27.5867 9.17332 28.2867 10.7933C28.9867 12.4133 29.34 14.1467 29.34 15.9933C29.34 17.84 28.9867 19.54 28.2867 21.16C27.5867 22.78 26.6334 24.2 25.4334 25.4133C24.2334 26.6267 22.82 27.58 21.2 28.28C19.58 28.98 17.8467 29.3333 16 29.3333Z" fill="#222343"/>
</svg>
