<svg width="32" height="32" viewBox="0 0 32 32" fill="none" xmlns="http://www.w3.org/2000/svg">
<path d="M15.9934 21.1666C15.86 21.1666 15.74 21.1466 15.6334 21.0999C15.5267 21.0533 15.4134 20.9799 15.3 20.8666L10.2667 15.8333C10.0667 15.6266 9.97337 15.3866 9.98004 15.1133C9.99337 14.8399 10.0934 14.5999 10.2867 14.3999C10.4934 14.1999 10.74 14.0999 11.0134 14.0999C11.2867 14.0999 11.5334 14.1999 11.7334 14.3999L15 17.6999V6.33325C15 6.04659 15.0934 5.81325 15.2867 5.61992C15.48 5.42659 15.72 5.33325 16.0067 5.33325C16.2934 5.33325 16.5267 5.42659 16.72 5.61992C16.9067 5.81325 17.0067 6.04659 17.0067 6.33325V17.6999L20.3067 14.3999C20.5 14.1999 20.7334 14.1066 21.0067 14.1133C21.2734 14.1266 21.5134 14.2333 21.72 14.4333C21.9134 14.6333 22.0067 14.8733 22.0067 15.1533C22.0067 15.4333 21.9067 15.6733 21.7067 15.8733L16.7067 20.8733C16.5934 20.9866 16.48 21.0599 16.3667 21.1066C16.2534 21.1533 16.1334 21.1733 16 21.1733L15.9934 21.1666ZM7.33337 26.6666C6.80004 26.6666 6.33337 26.4666 5.93337 26.0666C5.53337 25.6666 5.33337 25.1999 5.33337 24.6666V20.8999C5.33337 20.6133 5.42671 20.3799 5.62004 20.1866C5.81337 19.9933 6.05337 19.8999 6.34004 19.8999C6.62671 19.8999 6.86004 19.9933 7.05337 20.1866C7.24004 20.3799 7.34004 20.6133 7.34004 20.8999V24.6666H24.6734V20.8999C24.6734 20.6133 24.7667 20.3799 24.96 20.1866C25.1534 19.9933 25.3934 19.8999 25.68 19.8999C25.9667 19.8999 26.2 19.9933 26.3934 20.1866C26.58 20.3799 26.68 20.6133 26.68 20.8999V24.6666C26.68 25.1999 26.48 25.6666 26.08 26.0666C25.68 26.4666 25.2134 26.6666 24.68 26.6666H7.33337Z" fill="#222343"/>
</svg>
