<svg width="32" height="32" viewBox="0 0 32 32" fill="none" xmlns="http://www.w3.org/2000/svg">
<path d="M28.4534 10.94L28.26 10.8267L17 4.33335C16.38 3.97335 15.62 3.97335 15 4.33335L3.74002 10.8267L3.54669 10.94C3.01335 11.3 2.66669 11.9067 2.66669 12.6V25.9334C2.66669 26.76 3.16669 27.4734 3.88669 27.7734C4.12669 27.88 4.38669 27.9334 4.66669 27.9334H27.3334C27.54 27.9334 27.7334 27.9 27.92 27.84H27.9267C28.7467 27.5934 29.3334 26.8334 29.3334 25.9334V12.6C29.3334 11.9067 28.9867 11.3 28.4534 10.94ZM15 18.6334L4.66669 12.6667L15.5 6.41335C15.8067 6.23335 16.1934 6.23335 16.5 6.41335L27.3334 12.6667L17 18.6334C16.38 18.9934 15.62 18.9934 15 18.6334Z" fill="#222343"/>
</svg>
