<svg width="32" height="32" viewBox="0 0 32 32" fill="none" xmlns="http://www.w3.org/2000/svg">
<path d="M7.33331 29.3333C6.79998 29.3333 6.33331 29.1333 5.93331 28.7333C5.53331 28.3333 5.33331 27.8666 5.33331 27.3333V4.66663C5.33331 4.13329 5.53331 3.66663 5.93331 3.26663C6.33331 2.86663 6.79998 2.66663 7.33331 2.66663H18.5333C18.8 2.66663 19.06 2.71996 19.3133 2.83329C19.5666 2.94663 19.7866 3.08663 19.9666 3.26663L26.0666 9.36663C26.2466 9.54663 26.3866 9.75996 26.5 10.02C26.6133 10.2733 26.6666 10.54 26.6666 10.8066V27.34C26.6666 27.8733 26.4666 28.34 26.0666 28.74C25.6666 29.14 25.2 29.34 24.6666 29.34H7.33331V29.3333ZM18.3666 9.86663C18.3666 10.1533 18.46 10.3933 18.6466 10.58C18.8333 10.7666 19.0733 10.8666 19.3666 10.8666H24.6666L18.3666 4.66663V9.86663Z" fill="#222343"/>
</svg>
