<svg width="32" height="32" viewBox="0 0 32 32" fill="none" xmlns="http://www.w3.org/2000/svg">
<path d="M15.5133 27.3667C14.58 27.3667 13.7067 27.28 12.9 27.1C12.0867 26.92 11.34 26.6533 10.6467 26.3C11.36 23.6533 12.3267 21.0933 13.5667 18.62C14.8067 16.1467 16.46 14.0667 18.5533 12.4067C16.0667 13.6067 13.9 15.2733 12.0667 17.4067C10.2333 19.54 8.98666 21.96 8.31333 24.6733C8.22667 24.5867 8.14 24.5067 8.06 24.44C7.98 24.3733 7.9 24.2933 7.80666 24.2067C6.80666 23.2067 6.04 22.06 5.50667 20.7733C4.97333 19.4867 4.70667 18.1267 4.70667 16.7067C4.70667 15.1733 4.99333 13.6933 5.57333 12.2733C6.15333 10.8533 6.98666 9.59335 8.07333 8.50668C9.78666 6.75335 12.0067 5.61335 14.74 5.09335C17.4733 4.57335 21.56 4.50002 27.0067 4.88002C27.4267 10.1667 27.3667 14.2267 26.82 17.0467C26.2733 19.8667 25.1133 22.1667 23.34 23.9467C22.2733 25.06 21.06 25.9067 19.7067 26.5C18.3533 27.0867 16.9533 27.3867 15.5067 27.3867L15.5133 27.3667Z" fill="#222343"/>
</svg>
