<svg width="32" height="32" viewBox="0 0 32 32" fill="none" xmlns="http://www.w3.org/2000/svg">
<path d="M13 20C12.7133 20 12.4733 19.9067 12.28 19.7133C12.0867 19.52 11.9933 19.2867 11.9933 18.9933V15.16C11.9933 14.8933 12.0467 14.6333 12.16 14.3733C12.2733 14.1133 12.4133 13.9 12.5933 13.72L24.7333 1.59999C24.9333 1.39999 25.1533 1.25333 25.4 1.16666C25.6467 1.07999 25.8867 1.03333 26.1333 1.03333C26.38 1.03333 26.6267 1.08666 26.8867 1.18666C27.1467 1.28666 27.3733 1.43999 27.5733 1.63999L30.34 4.43999C30.54 4.63999 30.6933 4.85999 30.7933 5.10666C30.8933 5.35332 30.9467 5.59333 30.9467 5.83999C30.9467 6.08666 30.8933 6.33332 30.7933 6.59333C30.6933 6.85332 30.54 7.07999 30.34 7.27999L18.2733 19.4133C18.0933 19.5933 17.88 19.7333 17.62 19.8467C17.36 19.96 17.1 20.0133 16.8333 20.0133H13V20ZM26.6667 8.16666L28.9333 5.83332L26.1333 3.03333L23.8333 5.33332L26.6667 8.16666ZM6 28C5.46667 28 5 27.8 4.6 27.4C4.2 27 4 26.5333 4 26V5.99999C4 5.46666 4.2 4.99999 4.6 4.59999C5 4.19999 5.46667 3.99999 6 3.99999H17.1C17.32 3.99999 17.5133 4.05999 17.6667 4.18666C17.82 4.31333 17.9333 4.45999 18 4.63999C18.0667 4.81999 18.0867 4.99999 18.0667 5.19332C18.0467 5.38666 17.9533 5.55332 17.8 5.71332L10.6 12.9133C10.42 13.0933 10.28 13.3067 10.1667 13.5667C10.0533 13.8267 10 14.0867 10 14.3533V20.02C10 20.5733 10.1933 21.0467 10.5867 21.44C10.98 21.8333 11.4467 22.0267 12.0067 22.0267H17.5733C17.84 22.0267 18.1 21.9733 18.36 21.86C18.62 21.7467 18.8333 21.6067 19.0133 21.4267L26.3133 14.1267C26.4667 13.9733 26.64 13.88 26.8333 13.86C27.0267 13.84 27.2067 13.86 27.3867 13.9267C27.5667 13.9933 27.7133 14.1067 27.84 14.26C27.9667 14.4133 28.0267 14.6067 28.0267 14.8267V26.0267C28.0267 26.56 27.8267 27.0267 27.4267 27.4267C27.0267 27.8267 26.56 28.0267 26.0267 28.0267H6V28Z" fill="#222343"/>
</svg>
