<svg width="32" height="32" viewBox="0 0 32 32" fill="none" xmlns="http://www.w3.org/2000/svg">
<path d="M17.9334 6.86674C17.2667 6.86674 16.6934 6.62674 16.2134 6.15341C15.7334 5.68007 15.4934 5.10674 15.4934 4.43341C15.4934 3.76007 15.7334 3.19341 16.2067 2.71341C16.68 2.23341 17.2534 1.99341 17.9267 1.99341C18.6 1.99341 19.1667 2.23341 19.6467 2.70674C20.1267 3.18007 20.3667 3.75341 20.3667 4.42674C20.3667 5.10007 20.1267 5.66674 19.6534 6.14674C19.18 6.62674 18.6067 6.86674 17.9334 6.86674ZM18.8267 30.6667C18.54 30.6667 18.3067 30.5734 18.1134 30.3801C17.9267 30.1867 17.8267 29.9534 17.8267 29.6667V23.3667L14.9934 20.2001L14.6934 24.7334C14.6734 24.9267 14.6334 25.1201 14.56 25.3001C14.4934 25.4801 14.4 25.6467 14.2934 25.8001L11.26 29.8667C11.08 30.0867 10.86 30.2201 10.6 30.2667C10.34 30.3134 10.0934 30.2467 9.86003 30.0667C9.64003 29.8867 9.50669 29.6667 9.46003 29.4067C9.41336 29.1467 9.48003 28.9001 9.66003 28.6667L12.5267 24.8334L12.26 18.4667C12.2134 17.4001 12.2734 16.2201 12.4267 14.9334C12.58 13.6467 12.8467 12.4801 13.2267 11.4334L9.99336 13.3001V15.9867C9.99336 16.2867 9.90003 16.5267 9.70669 16.7201C9.51336 16.9067 9.27336 17.0067 8.98669 17.0067C8.70003 17.0067 8.46669 16.9134 8.27336 16.7201C8.08003 16.5267 7.98669 16.2934 7.98669 16.0067V13.3067C7.98669 12.9467 8.07336 12.6067 8.24669 12.3067C8.42003 12.0067 8.66669 11.7601 8.98669 11.5734L13.5534 8.94007C13.9334 8.72007 14.2934 8.55341 14.64 8.44007C14.9867 8.32674 15.3334 8.27341 15.6934 8.27341C16.2067 8.27341 16.6667 8.39341 17.08 8.64007C17.4934 8.88674 17.8067 9.26007 18.0334 9.77341L18.9 11.7401C19.3467 12.6934 20.1334 13.4801 21.2667 14.0934C22.4 14.7067 23.5334 15.0134 24.6667 15.0134C25.22 15.0134 25.6934 15.2067 26.0867 15.6001C26.48 15.9934 26.6734 16.4601 26.6734 17.0201V30.1867C26.6734 30.3201 26.62 30.4401 26.52 30.5401C26.42 30.6401 26.3 30.6934 26.1667 30.6934C26.0334 30.6934 25.9134 30.6401 25.8134 30.5401C25.7134 30.4401 25.66 30.3201 25.66 30.1867V17.0201C25.66 16.7534 25.56 16.5201 25.36 16.3201C25.16 16.1201 24.9267 16.0201 24.66 16.0201C24.3934 16.0201 24.16 16.1201 23.96 16.3201C23.76 16.5201 23.66 16.7534 23.66 17.0201V17.5201C23.66 17.6534 23.6067 17.7734 23.5067 17.8734C23.4067 17.9734 23.2867 18.0267 23.1534 18.0267C23.02 18.0267 22.9 17.9734 22.8 17.8734C22.7 17.7734 22.6467 17.6534 22.6467 17.5201V16.7867C21.6667 16.6067 20.6734 16.1667 19.66 15.4667C18.6467 14.7667 17.8734 14.0067 17.34 13.1801C17.0734 13.9601 16.8667 14.7601 16.72 15.5801C16.5734 16.4001 16.5267 17.2134 16.5667 18.0134L19.4334 22.0801C19.5467 22.2601 19.6334 22.4401 19.7 22.6334C19.7667 22.8267 19.8 23.0201 19.8 23.2134V29.6801C19.8 29.9667 19.7067 30.2001 19.5134 30.3934C19.32 30.5867 19.08 30.6801 18.7934 30.6801L18.8267 30.6667Z" fill="#222343"/>
</svg>
