<svg width="32" height="32" viewBox="0 0 32 32" fill="none" xmlns="http://www.w3.org/2000/svg">
<path d="M15.2667 3.63325C15.18 3.98659 15.1334 4.23325 15.1334 4.36659C15.1334 5.03325 15.3734 5.60659 15.8534 6.07992C16.3267 6.55992 16.9 6.79992 17.5667 6.79992C18.2334 6.79992 18.8067 6.55992 19.2867 6.07992C19.76 5.60659 20 5.03325 20 4.36659C20 3.69992 19.76 3.12659 19.2867 2.64659C18.8067 2.17325 18.2334 1.93325 17.5667 1.93325C17.4534 1.93325 17.3334 1.94659 17.2 1.96659C17.0667 1.98659 16.9467 2.01992 16.8334 2.06659C16.7467 1.84659 16.6 1.66659 16.4 1.53325C16.2 1.39992 15.98 1.33325 15.7334 1.33325C15.4 1.33325 15.12 1.44659 14.8867 1.67992C14.6534 1.91325 14.5334 2.19992 14.5334 2.53325C14.5334 2.77992 14.6 2.99992 14.7334 3.19992C14.8667 3.39992 15.0467 3.54659 15.2667 3.63325Z" fill="currentColor"/>
<path d="M24.66 15.0066C24.3267 15.0066 24.0134 15.0866 23.74 15.2333C22.52 14.8533 21.4734 14.3399 20.6067 13.6799C19.74 13.0266 19.0867 12.1866 18.64 11.1666C18.1934 10.1666 17.78 9.43325 17.3934 8.96659C17 8.49992 16.4934 8.26658 15.8734 8.26658C15.0267 8.26658 14.18 8.79325 13.3267 9.84659C12.4667 10.9066 11.6734 12.2666 10.94 13.9333C10.2067 15.5999 9.63335 17.2333 9.22669 18.8333C8.81335 20.4333 8.54002 22.1866 8.40669 24.0999C8.38669 24.4466 8.48002 24.7599 8.70669 25.0333C8.86669 25.2266 9.12002 25.3333 9.37335 25.3333H11.7734L9.27335 28.6666C9.09335 28.8866 9.02669 29.1333 9.07335 29.3999C9.12002 29.6666 9.25335 29.8866 9.47335 30.0666C9.69335 30.2466 9.94002 30.3133 10.2067 30.2666C10.4734 30.2199 10.6934 30.0866 10.8734 29.8666L14.2734 25.3333H17.6734V29.6666C17.6734 30.2199 18.12 30.6666 18.6734 30.6666C19.2267 30.6666 19.6734 30.2199 19.6734 29.6666V24.8333L16.14 16.9999L17.3734 13.0666C17.9067 13.9333 18.6734 14.7199 19.6734 15.4333C20.6734 16.1466 21.6667 16.6333 22.6667 16.8999C22.6667 16.9399 22.6667 16.9733 22.6667 17.0133V18.0066C22.6667 18.2799 22.8934 18.5066 23.1667 18.5066C23.44 18.5066 23.6667 18.2799 23.6667 18.0066V17.0133C23.6667 16.4599 24.12 16.0066 24.6734 16.0066C25.2267 16.0066 25.68 16.4599 25.68 17.0133V30.1666C25.68 30.4399 25.9067 30.6666 26.18 30.6666C26.4534 30.6666 26.68 30.4399 26.68 30.1666V17.0133C26.68 15.9066 25.78 15.0066 24.6734 15.0066H24.66Z" fill="currentColor"/>
</svg>
