<svg width="32" height="32" viewBox="0 0 32 32" fill="none" xmlns="http://www.w3.org/2000/svg">
<path d="M6.66674 19.8666V21.3333C6.66674 21.7066 6.53341 22.0199 6.27341 22.2799C6.01341 22.5399 5.69341 22.6666 5.32007 22.6666C4.94674 22.6666 4.63341 22.5399 4.38008 22.2799C4.12674 22.0199 3.99341 21.7066 3.99341 21.3333V11.1999C3.99341 11.0933 3.99341 10.9933 4.01341 10.8866C4.02674 10.7799 4.05341 10.6733 4.10008 10.5666L6.70007 2.69992C6.83341 2.27992 7.07341 1.94659 7.42674 1.69992C7.78008 1.45325 8.16674 1.33325 8.60007 1.33325H23.4001C23.8334 1.33325 24.2267 1.45325 24.5734 1.69992C24.9201 1.94659 25.1667 2.27992 25.3001 2.69992L27.9001 10.5666C27.9467 10.6799 27.9734 10.7866 27.9867 10.8866C28.0001 10.9933 28.0067 11.0933 28.0067 11.1999V21.3333C28.0067 21.7066 27.8734 22.0199 27.6134 22.2799C27.3534 22.5399 27.0334 22.6666 26.6601 22.6666C26.2867 22.6666 25.9667 22.5333 25.7001 22.2666C25.4334 21.9999 25.3001 21.6799 25.3001 21.2999V19.8666H6.66674ZM6.76674 8.86659H25.2334L23.4001 3.33325H8.60007L6.76674 8.86659ZM9.52674 16.1999C10.0401 16.1999 10.4734 16.0266 10.8201 15.6733C11.1667 15.3199 11.3401 14.8999 11.3401 14.3999C11.3401 13.8999 11.1667 13.4399 10.8134 13.0799C10.4601 12.7199 10.0401 12.5333 9.54007 12.5333C9.04007 12.5333 8.58007 12.7133 8.22007 13.0733C7.86007 13.4333 7.67341 13.8733 7.67341 14.3933C7.67341 14.9133 7.85341 15.3399 8.21341 15.6866C8.57341 16.0333 9.01341 16.2066 9.53341 16.2066L9.52674 16.1999ZM22.5001 16.1999C23.0201 16.1999 23.4601 16.0266 23.8201 15.6733C24.1801 15.3199 24.3667 14.8999 24.3667 14.3999C24.3667 13.8999 24.1867 13.4399 23.8267 13.0799C23.4667 12.7199 23.0267 12.5333 22.5067 12.5333C21.9867 12.5333 21.5601 12.7133 21.2134 13.0733C20.8667 13.4333 20.6934 13.8733 20.6934 14.3933C20.6934 14.9133 20.8667 15.3399 21.2201 15.6866C21.5734 16.0333 21.9934 16.2066 22.4934 16.2066L22.5001 16.1999ZM17.2001 27.9999V29.8333C17.2001 30.0133 17.1201 30.1533 16.9667 30.2533C16.8134 30.3533 16.6467 30.3533 16.4667 30.2666L10.6334 27.1999C10.5201 27.1333 10.4801 27.0399 10.5001 26.9133C10.5267 26.7933 10.6001 26.7266 10.7334 26.7266H14.6667V24.9933C14.6667 24.8133 14.7467 24.6733 14.9001 24.5733C15.0534 24.4733 15.2201 24.4733 15.4001 24.5599L21.3334 27.5266C21.4467 27.5933 21.4867 27.6866 21.4534 27.8066C21.4201 27.9266 21.3334 27.9933 21.2001 27.9933H17.2001V27.9999Z" fill="currentColor"/>
</svg>
