<svg width="32" height="32" viewBox="0 0 32 32" fill="none" xmlns="http://www.w3.org/2000/svg">
<path fill-rule="evenodd" clip-rule="evenodd" d="M28.4533 10.9467L28.26 10.8334L26.6666 9.91336V8.80669C26.6666 7.62669 25.7066 6.66669 24.5266 6.66669H21.04L17 4.33336C16.38 3.98003 15.62 3.98003 15 4.33336L10.96 6.66669H7.47329C6.29329 6.66669 5.33329 7.62669 5.33329 8.80669V9.91336L3.73996 10.8334L3.54663 10.9467C3.01329 11.3067 2.66663 11.9134 2.66663 12.6067V25.94C2.66663 26.7667 3.16663 27.48 3.88663 27.78C4.12663 27.8867 4.38663 27.94 4.66663 27.94H27.3333C27.54 27.94 27.7333 27.9067 27.92 27.8467H27.9266C28.7466 27.6 29.3333 26.84 29.3333 25.94V12.6067C29.3333 11.9134 28.9866 11.3067 28.4533 10.9467ZM27.3266 12.6734L17.1533 18.5467L17 18.6334C16.38 18.9934 15.62 18.9934 15 18.6334L14.8466 18.5467L5.33329 13.06L4.66663 12.6734L5.33329 12.2867L5.65996 12.0934H5.66663L7.33329 13.06V8.80669C7.33329 8.80669 7.33996 8.77336 7.34663 8.75336C7.36663 8.70669 7.41996 8.66669 7.47329 8.66669H24.5266C24.58 8.66669 24.6333 8.70669 24.6533 8.75336C24.6533 8.77336 24.6666 8.78669 24.6666 8.80669V13.0534L26.3333 12.0934L26.6666 12.2867L27.3333 12.6667H27.3266V12.6734Z" fill="#222343"/>
<path d="M21.7 10.7001H10.3C10.0133 10.7001 9.77331 10.7934 9.57998 10.9867C9.39331 11.1734 9.29998 11.4134 9.29998 11.7001C9.29998 11.9867 9.39331 12.2267 9.57998 12.4134C9.76665 12.6001 10.0066 12.7001 10.3 12.7001H21.7C21.9866 12.7001 22.2266 12.6067 22.42 12.4134C22.6133 12.2201 22.7 11.9867 22.7 11.7001C22.7 11.4134 22.6066 11.1734 22.42 10.9867C22.2333 10.8001 21.9933 10.7001 21.7 10.7001Z" fill="#222343"/>
</svg>
