<svg width="32" height="32" viewBox="0 0 32 32" fill="none" xmlns="http://www.w3.org/2000/svg">
<path d="M7.00004 26.6667V25.6667C7.00004 25.1133 7.44671 24.6667 8.00004 24.6667H9.03337L11.8334 15.4333C11.9667 15.0133 12.2067 14.6667 12.5534 14.4C12.9 14.1333 13.2934 14 13.7334 14H18.2667C18.7134 14 19.1067 14.1333 19.4467 14.4C19.7934 14.6667 20.0334 15.0133 20.1667 15.4333L22.9667 24.6667H24C24.5534 24.6667 25 25.1133 25 25.6667V26.6667H7.00004ZM15 9.00667V4.99333C15 4.44667 15.4467 4 15.9934 4H16.0067C16.5534 4 17 4.44667 17 4.99333V9.00667C17 9.55333 16.5534 10 16.0067 10H15.9934C15.4467 10 15 9.55333 15 9.00667ZM22.1267 12.56L22.1067 12.54C21.72 12.1533 21.72 11.52 22.1067 11.1333L24.96 8.3C25.3467 7.91333 25.9734 7.91333 26.36 8.3C26.7467 8.68667 26.7467 9.31333 26.36 9.7L23.5267 12.5533C23.14 12.9467 22.5067 12.9467 22.12 12.5533L22.1267 12.56ZM24.6667 18.6733V18.66C24.6667 18.1133 25.1134 17.6667 25.66 17.6667H29.6734C30.22 17.6667 30.6667 18.1133 30.6667 18.66V18.6733C30.6667 19.22 30.22 19.6667 29.6734 19.6667H25.66C25.1134 19.6667 24.6667 19.22 24.6667 18.6733ZM8.46671 12.56L5.63337 9.70667C5.24671 9.32 5.24671 8.69333 5.63337 8.30667C6.02004 7.92 6.64671 7.92 7.03337 8.30667L9.88671 11.14C10.28 11.5267 10.28 12.16 9.88671 12.5467L9.86671 12.5667C9.48004 12.9533 8.84671 12.9533 8.46004 12.5667L8.46671 12.56ZM1.33337 18.6733V18.66C1.33337 18.1133 1.78004 17.6667 2.32671 17.6667H6.34004C6.88671 17.6667 7.33337 18.1133 7.33337 18.66V18.6733C7.33337 19.22 6.88671 19.6667 6.34004 19.6667H2.32671C1.78004 19.6667 1.33337 19.22 1.33337 18.6733Z" fill="#222343"/>
</svg>
