<svg width="32" height="32" viewBox="0 0 32 32" fill="none" xmlns="http://www.w3.org/2000/svg">
<path d="M16 22.6666C16.3134 22.6666 16.5734 22.5599 16.7867 22.3532C17 22.1466 17.1067 21.8799 17.1067 21.5666C17.1067 21.2532 17 20.9932 16.7934 20.7799C16.5867 20.5666 16.32 20.4599 16.0067 20.4599C15.6934 20.4599 15.4334 20.5666 15.22 20.7732C15.0067 20.9799 14.9 21.2466 14.9 21.5599C14.9 21.8732 15.0067 22.1332 15.2134 22.3466C15.42 22.5599 15.6867 22.6666 16 22.6666ZM16.1067 17.5666C16.3934 17.5666 16.6267 17.4732 16.82 17.2799C17.0067 17.0866 17.1 16.8532 17.1 16.5666V10.1332C17.1 9.84658 17.0067 9.61325 16.8134 9.41991C16.62 9.22658 16.38 9.13325 16.0934 9.13325C15.8067 9.13325 15.5734 9.22658 15.38 9.41991C15.1934 9.61325 15.0934 9.84658 15.0934 10.1332V16.5666C15.0934 16.8532 15.1867 17.0866 15.38 17.2799C15.5734 17.4732 15.8134 17.5666 16.1 17.5666H16.1067ZM16.0067 29.3332C14.1667 29.3332 12.44 28.9799 10.82 28.2799C9.20003 27.5799 7.7867 26.6266 6.58003 25.4132C5.37337 24.1999 4.41337 22.7866 3.71337 21.1666C3.01337 19.5466 2.66003 17.8199 2.66003 15.9799C2.66003 14.1399 3.01337 12.4066 3.71337 10.7932C4.41337 9.17991 5.3667 7.76658 6.58003 6.56658C7.79337 5.36658 9.2067 4.41325 10.8267 3.71325C12.4467 3.01325 14.1734 2.65991 16.0134 2.65991C17.8534 2.65991 19.5867 3.01325 21.2 3.71325C22.82 4.41325 24.2267 5.36658 25.4267 6.56658C26.6267 7.76658 27.58 9.17991 28.28 10.7999C28.98 12.4199 29.3334 14.1532 29.3334 15.9932C29.3334 17.8332 28.98 19.5599 28.28 21.1799C27.58 22.7999 26.6267 24.2066 25.4267 25.4132C24.2267 26.6199 22.8134 27.5732 21.1934 28.2799C19.5734 28.9866 17.84 29.3332 16 29.3332H16.0067Z" fill="#222343"/>
</svg>
