<svg width="32" height="32" viewBox="0 0 32 32" fill="none" xmlns="http://www.w3.org/2000/svg">
<path d="M16.0333 21.4L13.4 24.0333C13.2 24.2333 12.9667 24.3333 12.7 24.3333C12.4333 24.3333 12.2 24.2333 12 24.0333C11.8 23.8333 11.7 23.5933 11.7 23.3133C11.7 23.0333 11.8 22.8 12 22.6L14.6 20L11.9667 17.4C11.7667 17.2 11.6667 16.9667 11.6667 16.7C11.6667 16.4333 11.7667 16.2 11.9667 16C12.1667 15.8 12.4067 15.7 12.6867 15.7C12.9667 15.7 13.2067 15.8 13.4067 16L16.0067 18.5667L18.6067 15.9667C18.8067 15.7667 19.04 15.6667 19.3067 15.6667C19.5733 15.6667 19.8067 15.7667 20.0067 15.9667C20.2067 16.1667 20.3067 16.4067 20.3067 16.6867C20.3067 16.9667 20.2067 17.2 20.0067 17.4L17.44 20L20.04 22.6C20.24 22.8 20.34 23.0333 20.34 23.3C20.34 23.5667 20.24 23.8 20.04 24C19.84 24.2 19.6 24.3 19.32 24.3C19.04 24.3 18.8067 24.2 18.6067 24L16.04 21.4H16.0333ZM6 29.3333C5.46667 29.3333 5 29.1333 4.6 28.7333C4.2 28.3333 4 27.8667 4 27.3333V6.66667C4 6.13334 4.2 5.66667 4.6 5.26667C5 4.86667 5.46667 4.66667 6 4.66667H8.16667V3.73334C8.16667 3.44667 8.27333 3.19334 8.48667 2.98667C8.7 2.77334 8.94667 2.67334 9.23333 2.67334C9.54667 2.67334 9.80667 2.78001 10.02 2.98667C10.2333 3.20001 10.34 3.44667 10.34 3.73334V4.66667H21.6733V3.73334C21.6733 3.44667 21.78 3.19334 21.9867 2.98667C22.1933 2.78001 22.4467 2.67334 22.7333 2.67334C23.0467 2.67334 23.3067 2.78001 23.5133 2.98667C23.72 3.19334 23.8267 3.44667 23.8267 3.73334V4.66667H25.9933C26.5267 4.66667 26.9933 4.86667 27.3933 5.26667C27.7933 5.66667 27.9933 6.13334 27.9933 6.66667V27.3333C27.9933 27.8667 27.7933 28.3333 27.3933 28.7333C26.9933 29.1333 26.5267 29.3333 25.9933 29.3333H6ZM6 27.3333H26V13H6V27.3333Z" fill="#222343"/>
</svg>
