<svg width="32" height="32" viewBox="0 0 32 32" fill="none" xmlns="http://www.w3.org/2000/svg">
<path d="M13.7333 23.7L10.5333 20.5333C10.3333 20.3333 10.2333 20.1 10.2333 19.8333C10.2333 19.5667 10.3333 19.3333 10.5333 19.1333C10.7333 18.9333 10.9667 18.8333 11.2333 18.8333C11.5 18.8333 11.7333 18.9333 11.9333 19.1333L14.4333 21.5667L19.8667 16.1333C20.0467 15.9533 20.2733 15.8667 20.5467 15.8667C20.82 15.8667 21.06 15.9667 21.2667 16.1667C21.4667 16.3667 21.5667 16.6 21.5667 16.8667C21.5667 17.1333 21.4667 17.3667 21.2667 17.5667L15.1333 23.7C14.9333 23.9 14.7 24 14.4333 24C14.1667 24 13.9333 23.9 13.7333 23.7ZM6 29.3333C5.46667 29.3333 5 29.1333 4.6 28.7333C4.2 28.3333 4 27.8667 4 27.3333V6.66667C4 6.13334 4.2 5.66667 4.6 5.26667C5 4.86667 5.46667 4.66667 6 4.66667H8.16667V3.73334C8.16667 3.44667 8.27333 3.19334 8.48667 2.98667C8.7 2.77334 8.94667 2.67334 9.23333 2.67334C9.54667 2.67334 9.80667 2.78001 10.02 2.98667C10.2333 3.20001 10.34 3.44667 10.34 3.73334V4.66667H21.6733V3.73334C21.6733 3.44667 21.78 3.19334 21.9867 2.98667C22.1933 2.78001 22.4467 2.67334 22.7333 2.67334C23.0467 2.67334 23.3067 2.78001 23.5133 2.98667C23.72 3.19334 23.8267 3.44667 23.8267 3.73334V4.66667H25.9933C26.5267 4.66667 26.9933 4.86667 27.3933 5.26667C27.7933 5.66667 27.9933 6.13334 27.9933 6.66667V27.3333C27.9933 27.8667 27.7933 28.3333 27.3933 28.7333C26.9933 29.1333 26.5267 29.3333 25.9933 29.3333H6ZM6 27.3333H26V13H6V27.3333Z" fill="#222343"/>
</svg>
