<svg width="32" height="32" viewBox="0 0 32 32" fill="none" xmlns="http://www.w3.org/2000/svg">
<path d="M19.9 24.76C18.9867 24.76 18.22 24.4467 17.6 23.8267C16.98 23.2067 16.6667 22.44 16.6667 21.5267C16.6667 20.6133 16.98 19.8467 17.6 19.2267C18.22 18.6067 18.9867 18.2933 19.9 18.2933C20.8133 18.2933 21.58 18.6067 22.2 19.2267C22.82 19.8467 23.1333 20.6133 23.1333 21.5267C23.1333 22.44 22.82 23.2067 22.2 23.8267C21.58 24.4467 20.8133 24.76 19.9 24.76ZM6 29.4267C5.46667 29.4267 5 29.2267 4.6 28.8267C4.2 28.4267 4 27.96 4 27.4267V6.76001C4 6.22668 4.2 5.76001 4.6 5.36001C5 4.96001 5.46667 4.76001 6 4.76001H8.16667V3.84001C8.16667 3.24001 8.65333 2.76001 9.24667 2.76001C9.84667 2.76001 10.3267 3.24668 10.3267 3.84001V4.76001H21.66V3.84001C21.66 3.24001 22.1467 2.76001 22.74 2.76001C23.34 2.76001 23.82 3.24668 23.82 3.84001V4.76001H25.9867C26.52 4.76001 26.9867 4.96001 27.3867 5.36001C27.7867 5.76001 27.9867 6.22668 27.9867 6.76001V27.4267C27.9867 27.96 27.7867 28.4267 27.3867 28.8267C26.9867 29.2267 26.52 29.4267 25.9867 29.4267H6ZM6 27.4267H26V13.0933H6V27.4267Z" fill="#222343"/>
</svg>
