<svg width="32" height="32" viewBox="0 0 32 32" fill="none" xmlns="http://www.w3.org/2000/svg">
<path d="M16.0001 25.9665L21.5927 20.3925C21.843 20.1298 22.1596 19.9985 22.5427 19.9985C22.9258 19.9985 23.2488 20.1298 23.5117 20.3925C23.762 20.6427 23.8871 20.9563 23.8871 21.3331C23.8871 21.71 23.762 22.0298 23.5117 22.2925L17.8524 27.9331C17.3364 28.4491 16.719 28.7071 16.0001 28.7071C15.2812 28.7071 14.6637 28.4491 14.1477 27.9331L8.5074 22.2925C8.24451 22.0298 8.11306 21.71 8.11306 21.3331C8.11306 20.9563 8.23818 20.6427 8.4884 20.3925C8.75129 20.1298 9.07106 19.9985 9.44773 19.9985C9.82462 19.9985 10.1445 20.1298 10.4074 20.3925L16.0001 25.9665ZM16.0001 6.03315L10.4074 11.6258C10.1445 11.8887 9.82151 12.0201 9.4384 12.0201C9.05529 12.0201 8.73862 11.8887 8.4884 11.6258C8.22573 11.3631 8.09751 11.0434 8.10373 10.6665C8.10995 10.2896 8.23818 9.97604 8.4884 9.72581L14.1477 4.06648C14.6637 3.55048 15.2812 3.29248 16.0001 3.29248C16.719 3.29248 17.3364 3.55048 17.8524 4.06648L23.5117 9.72581C23.762 9.97604 23.8902 10.2896 23.8964 10.6665C23.9026 11.0434 23.7806 11.3631 23.5304 11.6258C23.2677 11.8887 22.9448 12.0201 22.5617 12.0201C22.1786 12.0201 21.862 11.8887 21.6117 11.6258L16.0001 6.03315Z" fill="currentColor"/>
</svg>
