<svg width="32" height="32" viewBox="0 0 32 32" fill="none" xmlns="http://www.w3.org/2000/svg">
<path d="M16 26.4L21.8 20.6C22 20.4 22.2467 20.3 22.5333 20.3C22.82 20.3 23.0667 20.4 23.2667 20.6C23.4667 20.8 23.5667 21.0467 23.5667 21.3333C23.5667 21.62 23.4667 21.8667 23.2667 22.0667L17.4 27.9333C17.02 28.3133 16.5533 28.5 16 28.5C15.4467 28.5 14.98 28.3133 14.6 27.9333L8.73335 22.0667C8.53335 21.8667 8.43335 21.62 8.43335 21.3333C8.43335 21.0467 8.53335 20.8 8.73335 20.6C8.93335 20.4 9.18002 20.3 9.46668 20.3C9.75335 20.3 10 20.4 10.2 20.6L16 26.4ZM16 5.6L10.2 11.4C10 11.6 9.75335 11.7 9.46668 11.7C9.18002 11.7 8.93335 11.6 8.73335 11.4C8.53335 11.2 8.43335 10.9533 8.43335 10.6667C8.43335 10.38 8.53335 10.1333 8.73335 9.93333L14.6 4.06667C14.98 3.68667 15.4467 3.5 16 3.5C16.5533 3.5 17.02 3.68667 17.4 4.06667L23.2667 9.93333C23.4667 10.1333 23.5667 10.38 23.5667 10.6667C23.5667 10.9533 23.4667 11.2 23.2667 11.4C23.0667 11.6 22.82 11.7 22.5333 11.7C22.2467 11.7 22 11.6 21.8 11.4L16 5.6Z" fill="currentColor"/>
</svg>
