<svg width="32" height="32" viewBox="0 0 32 32" fill="none" xmlns="http://www.w3.org/2000/svg">
<path d="M29.3334 16C29.3334 8.63329 23.3667 2.66663 16 2.66663C8.63335 2.66663 2.66669 8.63329 2.66669 16C2.66669 22.6533 7.54002 28.1733 13.92 29.1733V19.8533H10.5334V16H13.92V13.06C13.92 9.71996 15.9134 7.87329 18.9534 7.87329C20.4134 7.87329 21.94 8.13329 21.94 8.13329V11.4133H20.26C18.6067 11.4133 18.0867 12.44 18.0867 13.4933V15.9933H21.7867L21.1934 19.8466H18.0867V29.1666C24.46 28.1666 29.34 22.6533 29.34 15.9933L29.3334 16Z" fill="#222343"/>
</svg>
