<svg width="32" height="32" viewBox="0 0 32 32" fill="none" xmlns="http://www.w3.org/2000/svg">
<path d="M14.8867 30.3799C13.02 30.3799 11.2733 30.0333 9.65334 29.3466C8.03334 28.6599 6.62001 27.7133 5.42001 26.5133C4.22001 25.3133 3.27334 23.8999 2.58668 22.2799C1.90001 20.6599 1.55334 18.9133 1.55334 17.0466C1.55334 15.1799 1.90001 13.4333 2.58668 11.8133C3.27334 10.1933 4.22001 8.77995 5.42001 7.57995C6.62001 6.37995 8.03334 5.43328 9.65334 4.74661C11.2733 4.05995 13.02 3.71328 14.8867 3.71328C15.82 3.71328 16.68 3.79328 17.4733 3.94661C18.26 4.09995 19.2133 4.39328 20.3267 4.81328L16.6267 6.41328L22.9267 9.07995L25.0267 13.9466C22.0733 14.3266 19.5 14.0466 17.3067 13.1133C15.12 12.1799 13.2333 10.7999 11.6533 8.97995C10.9 10.7799 9.81335 12.3533 8.40001 13.6933C6.98668 15.0399 5.37334 16.0799 3.55334 16.8133C3.55334 20.0333 4.65334 22.7666 6.85334 25.0133C9.05334 27.2599 11.7333 28.3799 14.8867 28.3799C18.04 28.3799 20.7467 27.2733 22.94 25.0666C25.1267 22.8533 26.22 20.1799 26.22 17.0466C26.22 16.5599 26.1933 16.1199 26.14 15.7266L25.9933 14.6733L27.1933 11.8399C27.5467 12.7933 27.8067 13.6533 27.9733 14.4066C28.14 15.1599 28.2267 16.0399 28.2267 17.0399C28.2267 18.8866 27.88 20.6199 27.1933 22.2399C26.5067 23.8599 25.56 25.2733 24.36 26.4733C23.16 27.6733 21.7467 28.6266 20.1267 29.3266C18.5067 30.0266 16.76 30.3799 14.8933 30.3799H14.8867ZM10.6867 20.2799C10.1733 20.2799 9.74668 20.1066 9.40001 19.7666C9.05335 19.4199 8.88001 18.9933 8.88001 18.4799C8.88001 17.9666 9.05335 17.5399 9.39335 17.1999C9.74001 16.8533 10.1667 16.6866 10.6733 16.6866C11.1867 16.6866 11.6133 16.8599 11.9533 17.1999C12.2933 17.5399 12.4667 17.9733 12.4667 18.4799C12.4667 18.9866 12.2933 19.4199 11.9533 19.7599C11.6133 20.0999 11.18 20.2733 10.6733 20.2799H10.6867ZM19.12 20.2799C18.6067 20.2799 18.18 20.1066 17.84 19.7666C17.5 19.4266 17.3267 18.9933 17.3267 18.4866C17.3267 17.9799 17.5 17.5466 17.84 17.2066C18.18 16.8666 18.6133 16.6933 19.12 16.6933C19.6267 16.6933 20.06 16.8666 20.4067 17.2066C20.7533 17.5533 20.9267 17.9799 20.9267 18.4866C20.9267 18.9933 20.7533 19.4266 20.4067 19.7666C20.06 20.1133 19.6333 20.2799 19.12 20.2799V20.2799ZM25.6867 11.1799L24.1867 7.77995L20.8867 6.37995L24.1867 5.01328L25.6867 1.61328L27.1533 5.01328L30.4533 6.37995L27.1533 7.77995L25.6867 11.1799Z" fill="#222343"/>
</svg>
