<svg width="32" height="32" viewBox="0 0 32 32" fill="none" xmlns="http://www.w3.org/2000/svg">
<path d="M8.00002 11.6667H12C12.2867 11.6667 12.5267 11.5733 12.72 11.3867C12.9067 11.2 13 10.96 13 10.6667C13 10.3733 12.9067 10.14 12.72 9.95333C12.5334 9.76667 12.2934 9.66667 12 9.66667H8.00002C7.71336 9.66667 7.47336 9.76 7.28669 9.95333C7.10002 10.14 7.00002 10.38 7.00002 10.6667C7.00002 10.9533 7.09336 11.1933 7.28669 11.3867C7.47336 11.5733 7.71336 11.6667 8.00002 11.6667ZM8.00002 17H12C12.2867 17 12.5267 16.9067 12.72 16.72C12.9067 16.5333 13 16.2933 13 16C13 15.7067 12.9067 15.4733 12.72 15.28C12.5334 15.0933 12.2934 15 12 15H8.00002C7.71336 15 7.47336 15.0933 7.28669 15.28C7.10002 15.4667 7.00002 15.7067 7.00002 16C7.00002 16.2933 7.09336 16.5267 7.28669 16.72C7.47336 16.9067 7.71336 17 8.00002 17ZM8.00002 22.3333H12C12.2867 22.3333 12.5267 22.24 12.72 22.0533C12.9067 21.8667 13 21.6267 13 21.3333C13 21.04 12.9067 20.8067 12.72 20.6133C12.5334 20.4267 12.2934 20.3333 12 20.3333H8.00002C7.71336 20.3333 7.47336 20.4267 7.28669 20.6133C7.10002 20.8 7.00002 21.04 7.00002 21.3333C7.00002 21.6267 7.09336 21.86 7.28669 22.0533C7.47336 22.24 7.71336 22.3333 8.00002 22.3333ZM19.4 19.2667C19.4867 19.2667 19.5734 19.2533 19.6534 19.2133C19.7334 19.18 19.8 19.1267 19.8734 19.06L24.8067 14.0933C25.0267 13.8733 25.1467 13.64 25.16 13.3933C25.1734 13.1467 25.0667 12.9133 24.8467 12.6933C24.6467 12.4933 24.4067 12.3933 24.1267 12.3933C23.8467 12.3933 23.6134 12.4933 23.4067 12.6933L19.4067 16.6933L18.2067 15.5267C18.0067 15.3267 17.7734 15.2267 17.5067 15.2267C17.24 15.2267 17.0067 15.3267 16.8067 15.5267C16.6067 15.7267 16.5067 15.96 16.5067 16.2267C16.5067 16.4933 16.6067 16.7267 16.8067 16.9267L18.94 19.06C19.0067 19.1267 19.08 19.18 19.16 19.2133C19.24 19.2467 19.32 19.2667 19.4067 19.2667H19.4ZM4.40002 28C3.86669 28 3.40002 27.8 3.00002 27.4C2.60002 27 2.40002 26.5333 2.40002 26V6C2.40002 5.46667 2.60002 5 3.00002 4.6C3.40002 4.2 3.86669 4 4.40002 4H27.6C28.1334 4 28.6 4.2 29 4.6C29.4 5 29.6 5.46667 29.6 6V26C29.6 26.5333 29.4 27 29 27.4C28.6 27.8 28.1334 28 27.6 28H4.40002Z" fill="#222343"/>
</svg>
