<svg width="32" height="32" viewBox="0 0 32 32" fill="none" xmlns="http://www.w3.org/2000/svg">
<path d="M7.80005 20.8001C7.14672 20.8001 6.59339 20.5667 6.12672 20.0934C5.66005 19.6201 5.43339 19.0534 5.43339 18.3934C5.43339 17.7334 5.66672 17.1667 6.12672 16.7001C6.59339 16.2334 7.14672 16.0001 7.80005 16.0001C8.45339 16.0001 9.04005 16.2334 9.52005 16.7067C9.99339 17.1801 10.2334 17.7467 10.2334 18.4067C10.2334 19.0667 9.99339 19.6334 9.52005 20.1001C9.04005 20.5667 8.47339 20.8001 7.80005 20.8001ZM24.1667 20.8001C23.5001 20.8001 22.9267 20.5667 22.4467 20.0934C21.9734 19.6201 21.7334 19.0534 21.7334 18.3934C21.7334 17.7334 21.9734 17.1667 22.4467 16.7001C22.9201 16.2334 23.4934 16.0001 24.1667 16.0001C24.8401 16.0001 25.3734 16.2334 25.8401 16.7067C26.3067 17.1801 26.5334 17.7467 26.5334 18.4067C26.5334 19.0667 26.3001 19.6334 25.8401 20.1001C25.3801 20.5667 24.8201 20.8001 24.1667 20.8001ZM16.0001 19.4001C15.1534 19.4001 14.4334 19.1001 13.8334 18.5001C13.2334 17.9001 12.9334 17.1801 12.9334 16.3334C12.9334 15.4867 13.2334 14.7667 13.8334 14.1667C14.4334 13.5667 15.1534 13.2667 16.0001 13.2667C16.8467 13.2667 17.5667 13.5667 18.1667 14.1667C18.7667 14.7667 19.0667 15.4867 19.0667 16.3334C19.0667 17.1801 18.7667 17.9001 18.1667 18.5001C17.5667 19.1001 16.8467 19.4001 16.0001 19.4001ZM9.60005 27.9667C9.75339 27.2334 10.0267 26.5467 10.4201 25.9134C10.8134 25.2801 11.2934 24.7267 11.8734 24.2601C12.4534 23.7934 13.0934 23.4334 13.7934 23.1734C14.4934 22.9201 15.2334 22.7867 16.0134 22.7867C16.7934 22.7867 17.5267 22.9134 18.2267 23.1734C18.9267 23.4334 19.5667 23.7934 20.1467 24.2601C20.7267 24.7267 21.2067 25.2801 21.6001 25.9134C21.9934 26.5467 22.2601 27.2334 22.4201 27.9667H9.60005ZM3.96672 27.9667C3.58672 27.9667 3.28005 27.8468 3.03339 27.6001C2.78672 27.3534 2.66672 27.0801 2.66672 26.7668C2.66672 25.8334 3.21339 24.9401 4.30005 24.0801C5.38672 23.2267 6.53339 22.7934 7.73339 22.7934C8.24672 22.7934 8.75339 22.8601 9.24005 22.9934C9.72672 23.1267 10.1801 23.3267 10.6001 23.5934C10.0001 24.1667 9.50005 24.8334 9.10005 25.5734C8.70005 26.3201 8.42005 27.1134 8.26672 27.9601H3.96672V27.9667ZM23.7334 27.9667C23.5801 27.1201 23.3001 26.3267 22.9001 25.5801C22.5001 24.8334 22.0001 24.1734 21.4001 23.6001C21.8201 23.3534 22.2667 23.1601 22.7334 23.0134C23.2001 22.8667 23.7001 22.7934 24.2334 22.7934C25.4334 22.7934 26.5867 23.2201 27.6867 24.0801C28.7867 24.9334 29.34 25.8334 29.34 26.7668C29.34 27.1001 29.2134 27.3801 28.9667 27.6134C28.7134 27.8467 28.4067 27.9667 28.0401 27.9667H23.7401H23.7334ZM1.94672 14.5601C1.76005 14.3334 1.68672 14.0867 1.73339 13.8267C1.78005 13.5667 1.91339 13.3467 2.13339 13.1667L14.8001 3.56675C15.1601 3.30008 15.5601 3.16675 16.0067 3.16675C16.4534 3.16675 16.8467 3.30008 17.2001 3.56675L21.9001 7.13341V5.63341C21.9001 5.16008 22.0667 4.76008 22.3934 4.42675C22.7201 4.09341 23.1201 3.93341 23.5934 3.93341C24.0667 3.93341 24.4667 4.10008 24.8001 4.42675C25.1334 4.76008 25.3001 5.16008 25.3001 5.63341V9.68675L29.8667 13.1667C30.0934 13.3334 30.2267 13.5534 30.2667 13.8267C30.3067 14.1001 30.2401 14.3467 30.0667 14.5667C29.8934 14.7867 29.6734 14.9201 29.4134 14.9534C29.1534 14.9867 28.9201 14.9134 28.6934 14.7334L16.0001 5.20008L3.30005 14.7334C3.08005 14.9134 2.84005 14.9867 2.58005 14.9534C2.32005 14.9201 2.11339 14.7934 1.94672 14.5601Z" fill="currentColor"/>
</svg>
