<svg width="32" height="32" viewBox="0 0 32 32" fill="none" xmlns="http://www.w3.org/2000/svg">
<path d="M6 28C5.46667 28 5 27.8 4.6 27.4C4.2 27 4 26.5333 4 26V6C4 5.46667 4.2 5 4.6 4.6C5 4.2 5.46667 4 6 4H21.4L28 10.6V26C28 26.5333 27.8 27 27.4 27.4C27 27.8 26.5333 28 26 28H6ZM10.3 22.3H21.7C21.9867 22.3 22.2267 22.2067 22.42 22.02C22.6133 21.8333 22.7 21.5933 22.7 21.3C22.7 21.0067 22.6067 20.7733 22.42 20.58C22.2333 20.3933 21.9933 20.3 21.7 20.3H10.3C10.0133 20.3 9.77333 20.3933 9.58667 20.58C9.4 20.7667 9.30667 21.0067 9.3 21.3C9.3 21.5867 9.39333 21.8267 9.58667 22.02C9.77333 22.2067 10.0133 22.3 10.3067 22.3H10.3ZM10.3 11.7H15C15.2867 11.7 15.5267 11.6067 15.72 11.42C15.9067 11.2333 16 10.9933 16 10.7C16 10.4067 15.9067 10.1733 15.72 9.98667C15.5333 9.8 15.2933 9.7 15 9.7H10.3C10.0133 9.7 9.77333 9.79333 9.58667 9.98667C9.4 10.1733 9.3 10.4133 9.3 10.7C9.3 10.9867 9.39333 11.2267 9.58667 11.42C9.77333 11.6067 10.0133 11.7 10.3 11.7067V11.7ZM10.3 17H21.7C21.9867 17 22.2267 16.9067 22.42 16.72C22.6067 16.5333 22.7 16.2933 22.7 16C22.7 15.7067 22.6067 15.4733 22.42 15.28C22.2333 15.0933 21.9933 15 21.7 15H10.3C10.0133 15 9.77333 15.0933 9.58667 15.28C9.4 15.4667 9.30667 15.7067 9.3 16C9.3 16.2867 9.39333 16.5267 9.58667 16.72C9.77333 16.9067 10.0133 17 10.3067 17H10.3ZM21.3 11.7H26L20.3 6V10.7C20.3 10.9867 20.3933 11.2267 20.58 11.42C20.7667 11.6067 21.0067 11.7 21.3 11.7Z" fill="#222343"/>
</svg>
