<svg width="32" height="32" viewBox="0 0 32 32" fill="none" xmlns="http://www.w3.org/2000/svg">
<path d="M26.0001 26.6666H8.66675C8.13341 26.6666 7.66675 26.4666 7.26675 26.0666C6.86675 25.6666 6.66675 25.1999 6.66675 24.6666V3.33325C6.66675 2.79992 6.86675 2.33325 7.26675 1.93325C7.66675 1.53325 8.13341 1.33325 8.66675 1.33325H19.4334C19.7001 1.33325 19.9601 1.38659 20.2201 1.49992C20.4801 1.61325 20.6934 1.75325 20.8734 1.93325L27.4067 8.46658C27.5867 8.64658 27.7267 8.85992 27.8401 9.11992C27.9534 9.37992 28.0067 9.63992 28.0067 9.90658V24.6733C28.0067 25.2066 27.8067 25.6733 27.4067 26.0733C27.0067 26.4733 26.5401 26.6733 26.0067 26.6733L26.0001 26.6666ZM26.0001 9.93325L19.2667 3.33325V8.43325C19.2667 8.85325 19.4134 9.21325 19.7001 9.49992C19.9867 9.78658 20.3467 9.93325 20.7667 9.93325H26.0001ZM4.66675 30.6666C4.13341 30.6666 3.66675 30.4666 3.26675 30.0666C2.86675 29.6666 2.66675 29.1999 2.66675 28.6666V9.03325C2.66675 8.74658 2.76008 8.50659 2.95341 8.31325C3.14675 8.11992 3.38008 8.02658 3.67341 8.02658C3.96675 8.02658 4.20008 8.11992 4.39341 8.31325C4.58008 8.49992 4.68008 8.73992 4.68008 9.03325V28.6666H20.2801C20.5667 28.6666 20.8067 28.7599 21.0001 28.9533C21.1934 29.1466 21.2867 29.3799 21.2867 29.6732C21.2867 29.9666 21.1934 30.1999 21.0001 30.3932C20.8067 30.5866 20.5734 30.6799 20.2801 30.6799H4.66675V30.6666Z" fill="currentColor"/>
</svg>
