<svg width="32" height="32" viewBox="0 0 32 32" fill="none" xmlns="http://www.w3.org/2000/svg">
<path d="M14.6667 26.6667C14.2889 26.6667 13.9722 26.5389 13.7167 26.2834C13.4611 26.0278 13.3334 25.7112 13.3334 25.3334V17.3334L5.60003 7.46671C5.26669 7.02226 5.21669 6.5556 5.45003 6.06671C5.68336 5.57782 6.08891 5.33337 6.66669 5.33337H25.3334C25.9111 5.33337 26.3167 5.57782 26.55 6.06671C26.7834 6.5556 26.7334 7.02226 26.4 7.46671L18.6667 17.3334V25.3334C18.6667 25.7112 18.5389 26.0278 18.2834 26.2834C18.0278 26.5389 17.7111 26.6667 17.3334 26.6667H14.6667Z" fill="#222343"/>
</svg>
