<svg width="32" height="32" viewBox="0 0 32 32" fill="none" xmlns="http://www.w3.org/2000/svg">
<path d="M8.66658 17.6999V26.9999C8.66658 27.2866 8.57325 27.5199 8.37991 27.7133C8.18658 27.9066 7.94658 27.9999 7.65991 27.9999C7.37325 27.9999 7.13991 27.9066 6.94658 27.7133C6.75991 27.5199 6.65991 27.2866 6.65991 26.9999V6.33325C6.65991 6.04659 6.75325 5.81325 6.94658 5.61992C7.13991 5.42659 7.37325 5.33325 7.65991 5.33325H17.2932C17.5266 5.33325 17.7332 5.40659 17.9199 5.55325C18.1066 5.69992 18.2199 5.89325 18.2599 6.13992L18.7266 8.20659H25.6599C25.9466 8.20659 26.1799 8.29992 26.3732 8.49325C26.5666 8.68658 26.6599 8.91992 26.6599 9.20659V19.5399C26.6599 19.8266 26.5666 20.0599 26.3732 20.2533C26.1799 20.4466 25.9466 20.5399 25.6599 20.5399H18.9266C18.6932 20.5399 18.4866 20.4733 18.2999 20.3399C18.1132 20.2066 17.9999 20.0199 17.9599 19.7733L17.4932 17.7066H8.65991L8.66658 17.6999Z" fill="currentColor"/>
</svg>
