<svg width="32" height="32" viewBox="0 0 32 32" fill="none" xmlns="http://www.w3.org/2000/svg">
<path d="M26.3 17C26.3 17 26.3 17 26.2933 17C25.3533 15.74 23.8933 15 22.3 15H18.8133C18.4 13.84 17.3 13 16 13C14.7 13 13.6 13.84 13.1866 15H9.66663C8.90663 15 8.19996 14.7133 7.65996 14.2267C8.27329 13.68 8.66663 12.8867 8.66663 12C8.66663 11.1133 8.27329 10.32 7.65996 9.77333C8.19996 9.28 8.90663 9 9.66663 9H20.1333C20.58 10.7267 22.14 12 24 12C26.2066 12 28 10.2067 28 8C28 5.79333 26.2066 4 24 4C22.14 4 20.5733 5.27333 20.1333 7H9.66663C8.09329 7 6.61329 7.76 5.67329 9C5.67329 9 5.67329 9 5.66663 9C4.00663 9 2.66663 10.34 2.66663 12C2.66663 13.66 4.00663 15 5.66663 15C5.66663 15 5.66663 15 5.67329 15C6.60663 16.2467 8.06663 17 9.66663 17H13.1866C13.6 18.16 14.7 19 16 19C17.3 19 18.4 18.16 18.8133 17H22.3C23.06 17 23.7666 17.28 24.3066 17.7733C23.6933 18.32 23.3 19.1133 23.3 20C23.3 20.8867 23.6933 21.6733 24.3066 22.2267C23.7666 22.7133 23.06 23 22.3 23H11.8666C11.42 21.2733 9.85996 20 7.99996 20C5.79329 20 3.99996 21.7933 3.99996 24C3.99996 26.2067 5.79329 28 7.99996 28C9.85996 28 11.4266 26.7267 11.8666 25H22.3C23.8866 25 25.36 24.2467 26.3 23C27.96 23 29.3 21.66 29.3 20C29.3 18.34 27.96 17 26.3 17ZM24 6C25.1 6 26 6.9 26 8C26 9.1 25.1 10 24 10C22.9 10 22 9.1 22 8C22 6.9 22.9 6 24 6ZM4.65996 12C4.65996 11.4467 5.10663 11 5.65996 11C6.21329 11 6.65996 11.4467 6.65996 12C6.65996 12.5533 6.21329 13 5.65996 13C5.10663 13 4.65996 12.5533 4.65996 12ZM16 17C15.4466 17 15 16.5533 15 16C15 15.4467 15.4466 15 16 15C16.5533 15 17 15.4467 17 16C17 16.5533 16.5533 17 16 17ZM7.99996 26C6.89996 26 5.99996 25.1 5.99996 24C5.99996 22.9 6.89996 22 7.99996 22C9.09996 22 9.99996 22.9 9.99996 24C9.99996 25.1 9.09996 26 7.99996 26ZM26.3 21C25.7466 21 25.3 20.5533 25.3 20C25.3 19.4467 25.7466 19 26.3 19C26.8533 19 27.3 19.4467 27.3 20C27.3 20.5533 26.8533 21 26.3 21Z" fill="#222343"/>
</svg>
