<svg width="32" height="32" viewBox="0 0 32 32" fill="none" xmlns="http://www.w3.org/2000/svg">
<path d="M4.66675 26.6667C4.13341 26.6667 3.66675 26.46 3.26675 26.0467C2.86675 25.6333 2.66675 25.1733 2.66675 24.66V7.33333C2.66675 6.81999 2.86675 6.35999 3.26675 5.94666C3.66675 5.53333 4.13341 5.32666 4.66675 5.32666H13.2001C13.4667 5.32666 13.7267 5.37999 13.9867 5.49333C14.2467 5.60666 14.4601 5.74666 14.6401 5.92666L16.0401 7.32666H27.3401C27.8534 7.32666 28.3134 7.53333 28.7267 7.94666C29.1401 8.35999 29.3467 8.81999 29.3467 9.33333V24.6667C29.3467 25.18 29.1401 25.64 28.7267 26.0533C28.3134 26.4667 27.8534 26.6733 27.3401 26.6733H4.66675V26.6667Z" fill="currentColor"/>
</svg>
