<svg width="32" height="32" viewBox="0 0 32 32" fill="none" xmlns="http://www.w3.org/2000/svg">
<path d="M13.5668 25.4002C13.2801 25.4002 13.0468 25.3068 12.8534 25.1135C12.6601 24.9202 12.5668 24.6802 12.5668 24.3935C12.5668 24.1068 12.6601 23.8735 12.8534 23.6802C13.0468 23.4935 13.2801 23.3935 13.5668 23.3935H27.0001C27.2868 23.3935 27.5201 23.4868 27.7134 23.6802C27.9068 23.8735 28.0001 24.1135 28.0001 24.4002C28.0001 24.6868 27.9068 24.9202 27.7134 25.1135C27.5201 25.3002 27.2868 25.4002 27.0001 25.4002H13.5668ZM13.5668 17.0002C13.2801 17.0002 13.0468 16.9068 12.8534 16.7135C12.6601 16.5202 12.5668 16.2802 12.5668 15.9935C12.5668 15.7068 12.6601 15.4735 12.8534 15.2802C13.0468 15.0935 13.2801 14.9935 13.5668 14.9935H27.0001C27.2868 14.9935 27.5201 15.0868 27.7134 15.2802C27.9068 15.4735 28.0001 15.7135 28.0001 16.0002C28.0001 16.2868 27.9068 16.5202 27.7134 16.7135C27.5201 16.9002 27.2868 17.0002 27.0001 17.0002H13.5668ZM13.5668 8.56683C13.2801 8.56683 13.0468 8.4735 12.8534 8.28016C12.6601 8.08683 12.5668 7.84683 12.5668 7.56016C12.5668 7.2735 12.6601 7.04016 12.8534 6.84683C13.0468 6.66016 13.2801 6.56016 13.5668 6.56016H27.0001C27.2868 6.56016 27.5201 6.6535 27.7134 6.84683C27.9068 7.04016 28.0001 7.28016 28.0001 7.56683C28.0001 7.8535 27.9068 8.08683 27.7134 8.28016C27.5201 8.46683 27.2868 8.56683 27.0001 8.56683H13.5668ZM6.30011 26.6335C5.68011 26.6335 5.14011 26.4202 4.70011 26.0002C4.25345 25.5802 4.03345 25.0468 4.03345 24.4135C4.03345 23.7802 4.25345 23.2468 4.68678 22.8135C5.12011 22.3802 5.65345 22.1602 6.28678 22.1602C6.92011 22.1602 7.44678 22.3802 7.87345 22.8268C8.29345 23.2735 8.50678 23.8068 8.50678 24.4268C8.50678 25.0468 8.29345 25.5468 7.86011 25.9802C7.42678 26.4135 6.91345 26.6268 6.30678 26.6268L6.30011 26.6335ZM6.30011 18.2335C5.68011 18.2335 5.14011 18.0135 4.70011 17.5802C4.25345 17.1402 4.03345 16.6202 4.03345 16.0002C4.03345 15.3802 4.25345 14.8602 4.70011 14.4202C5.14678 13.9802 5.68011 13.7668 6.30011 13.7668C6.92011 13.7668 7.42011 13.9868 7.85345 14.4202C8.28678 14.8602 8.50011 15.3802 8.50011 16.0002C8.50011 16.6202 8.28678 17.1402 7.85345 17.5802C7.42011 18.0202 6.90678 18.2335 6.30011 18.2335ZM6.26678 9.80016C5.65345 9.80016 5.12678 9.58016 4.68678 9.14683C4.24678 8.70683 4.03345 8.18683 4.03345 7.56683C4.03345 6.9535 4.25345 6.42683 4.68678 5.98683C5.12011 5.54683 5.64678 5.3335 6.26678 5.3335C6.88678 5.3335 7.40678 5.5535 7.84678 5.98683C8.28678 6.42016 8.50011 6.94683 8.50011 7.56683C8.50011 8.18683 8.28011 8.70683 7.84678 9.14683C7.41345 9.58683 6.88678 9.80016 6.26678 9.80016Z" fill="currentColor"/>
</svg>
