<svg width="32" height="32" viewBox="0 0 32 32" fill="none" xmlns="http://www.w3.org/2000/svg">
<path d="M13.9999 25.7206C13.6161 25.7206 13.297 25.5928 13.0425 25.3372C12.7881 25.0817 12.6609 24.7673 12.6609 24.3942C12.6609 24.0213 12.7881 23.7091 13.0425 23.4576C13.297 23.2058 13.6161 23.0799 13.9999 23.0799H27.1505C27.5203 23.0799 27.836 23.2077 28.0975 23.4632C28.3591 23.7188 28.4899 24.0331 28.4899 24.4062C28.4899 24.7791 28.3591 25.0913 28.0975 25.3429C27.836 25.5947 27.5203 25.7206 27.1505 25.7206H13.9999ZM13.9999 17.3206C13.6161 17.3206 13.297 17.1928 13.0425 16.9372C12.7881 16.6817 12.6609 16.3673 12.6609 15.9942C12.6609 15.6213 12.7881 15.3091 13.0425 15.0576C13.297 14.8058 13.6161 14.6799 13.9999 14.6799H27.1505C27.5203 14.6799 27.836 14.8077 28.0975 15.0632C28.3591 15.3188 28.4899 15.6331 28.4899 16.0062C28.4899 16.3791 28.3591 16.6913 28.0975 16.9429C27.836 17.1947 27.5203 17.3206 27.1505 17.3206H13.9999ZM13.9999 8.88723C13.6161 8.88723 13.297 8.75945 13.0425 8.50389C12.7881 8.24834 12.6609 7.934 12.6609 7.56089C12.6609 7.188 12.7881 6.87578 13.0425 6.62422C13.297 6.37245 13.6161 6.24656 13.9999 6.24656H27.1505C27.5203 6.24656 27.836 6.37434 28.0975 6.62989C28.3591 6.88545 28.4899 7.19978 28.4899 7.57289C28.4899 7.94578 28.3591 8.258 28.0975 8.50956C27.836 8.76134 27.5203 8.88723 27.1505 8.88723H13.9999ZM6.10055 26.9349C5.39655 26.9349 4.79432 26.6939 4.29388 26.2119C3.79344 25.7297 3.54321 25.1298 3.54321 24.4122C3.54321 23.7067 3.78966 23.1058 4.28255 22.6096C4.77543 22.1136 5.37888 21.8656 6.09288 21.8656C6.80688 21.8656 7.40232 22.1174 7.87921 22.6212C8.35588 23.1252 8.59421 23.7311 8.59421 24.4389C8.59421 25.1282 8.34999 25.7166 7.86155 26.2039C7.37332 26.6912 6.78632 26.9349 6.10055 26.9349ZM6.10055 18.5349C5.39655 18.5349 4.79432 18.2862 4.29388 17.7889C3.79344 17.2913 3.54321 16.6933 3.54321 15.9949C3.54321 15.2964 3.79499 14.7002 4.29855 14.2062C4.80188 13.7124 5.40555 13.4656 6.10955 13.4656C6.79532 13.4656 7.38088 13.7142 7.86621 14.2116C8.35155 14.7091 8.59421 15.3071 8.59421 16.0056C8.59421 16.704 8.34999 17.3002 7.86155 17.7942C7.37332 18.288 6.78632 18.5349 6.10055 18.5349ZM6.06721 10.1016C5.37232 10.1016 4.77799 9.85289 4.28421 9.35556C3.79021 8.858 3.54321 8.26 3.54321 7.56156C3.54321 6.86312 3.79166 6.26689 4.28855 5.77289C4.78544 5.27911 5.38132 5.03223 6.07621 5.03223C6.7711 5.03223 7.36444 5.28089 7.85621 5.77823C8.34821 6.27578 8.59421 6.87378 8.59421 7.57223C8.59421 8.27067 8.34677 8.86689 7.85188 9.36089C7.35699 9.85467 6.7621 10.1016 6.06721 10.1016Z" fill="currentColor"/>
</svg>
