<svg width="32" height="32" viewBox="0 0 32 32" fill="none" xmlns="http://www.w3.org/2000/svg">
<path d="M9.96674 15.9998L12.1667 18.1998C12.3667 18.3998 12.4667 18.6332 12.4667 18.9065C12.4667 19.1798 12.3734 19.4132 12.1801 19.6065C11.9734 19.7998 11.7267 19.8998 11.4534 19.8998C11.1801 19.8998 10.9401 19.7998 10.7334 19.5998L7.83341 16.6998C7.63341 16.4998 7.53341 16.2665 7.53341 15.9998C7.53341 15.7332 7.63341 15.4998 7.83341 15.2998L10.7667 12.3665C10.9667 12.1665 11.2001 12.0732 11.4667 12.0798C11.7334 12.0865 11.9734 12.1998 12.1801 12.3998C12.3734 12.5998 12.4667 12.8332 12.4667 13.0998C12.4667 13.3665 12.3667 13.5998 12.1667 13.7998L9.96674 15.9998ZM22.0334 15.9998L19.8334 13.7998C19.6334 13.5998 19.5334 13.3665 19.5334 13.0932C19.5334 12.8198 19.6267 12.5865 19.8201 12.3932C20.0267 12.1998 20.2734 12.0998 20.5467 12.0998C20.8201 12.0998 21.0601 12.1998 21.2667 12.3998L24.1667 15.2998C24.3667 15.4998 24.4667 15.7332 24.4667 15.9998C24.4667 16.2665 24.3667 16.4998 24.1667 16.6998L21.2334 19.6332C21.0334 19.8332 20.8001 19.9265 20.5334 19.9198C20.2667 19.9132 20.0267 19.7998 19.8201 19.5998C19.6267 19.3998 19.5334 19.1665 19.5334 18.8998C19.5334 18.6332 19.6334 18.3998 19.8334 18.1998L22.0334 15.9998ZM6.00007 27.9998C5.46674 27.9998 5.00007 27.7998 4.60008 27.3998C4.20008 26.9998 4.00008 26.5332 4.00008 25.9998V21.2665C4.00008 20.9798 4.09341 20.7465 4.28674 20.5532C4.48007 20.3598 4.72008 20.2665 5.00674 20.2665C5.29341 20.2665 5.52674 20.3598 5.72007 20.5532C5.90674 20.7465 6.00674 20.9798 6.00674 21.2665V25.9998H10.7401C11.0267 25.9998 11.2601 26.0932 11.4534 26.2865C11.6467 26.4798 11.7401 26.7198 11.7401 27.0065C11.7401 27.2932 11.6467 27.5265 11.4534 27.7198C11.2601 27.9065 11.0267 28.0065 10.7401 28.0065H6.00674L6.00007 27.9998ZM26.0001 27.9998H21.2667C20.9801 27.9998 20.7467 27.9065 20.5534 27.7132C20.3601 27.5198 20.2667 27.2798 20.2667 26.9932C20.2667 26.7065 20.3601 26.4732 20.5534 26.2798C20.7467 26.0932 20.9801 25.9932 21.2667 25.9932H26.0001V21.2598C26.0001 20.9732 26.0934 20.7398 26.2867 20.5465C26.4801 20.3532 26.7201 20.2598 27.0067 20.2598C27.2934 20.2598 27.5267 20.3532 27.7201 20.5465C27.9067 20.7398 28.0067 20.9732 28.0067 21.2598V25.9932C28.0067 26.5265 27.8067 26.9932 27.4067 27.3932C27.0067 27.7932 26.5401 27.9932 26.0067 27.9932L26.0001 27.9998ZM4.00008 10.7332V5.99983C4.00008 5.4665 4.20008 4.99983 4.60008 4.59983C5.00007 4.19983 5.46674 3.99983 6.00007 3.99983H10.7334C11.0201 3.99983 11.2534 4.09316 11.4467 4.2865C11.6401 4.47983 11.7334 4.71983 11.7334 5.0065C11.7334 5.29316 11.6401 5.5265 11.4467 5.71983C11.2534 5.9065 11.0201 6.0065 10.7334 6.0065H6.00007V10.7398C6.00007 11.0265 5.90674 11.2598 5.71341 11.4532C5.52007 11.6465 5.28007 11.7398 4.99341 11.7398C4.70674 11.7398 4.47341 11.6465 4.28008 11.4532C4.09341 11.2598 3.99341 11.0265 3.99341 10.7398L4.00008 10.7332ZM26.0001 10.7332V5.99983H21.2667C20.9801 5.99983 20.7467 5.9065 20.5534 5.71316C20.3601 5.51983 20.2667 5.27983 20.2667 4.99316C20.2667 4.7065 20.3601 4.47316 20.5534 4.27983C20.7467 4.09316 20.9801 3.99316 21.2667 3.99316H26.0001C26.5334 3.99316 27.0001 4.19316 27.4001 4.59316C27.8001 4.99316 28.0001 5.45983 28.0001 5.99316V10.7265C28.0001 11.0132 27.9067 11.2465 27.7134 11.4398C27.5201 11.6332 27.2801 11.7265 26.9934 11.7265C26.7067 11.7265 26.4734 11.6332 26.2801 11.4398C26.0934 11.2465 25.9934 11.0132 25.9934 10.7265L26.0001 10.7332Z" fill="currentColor"/>
</svg>
