<svg width="32" height="32" viewBox="0 0 32 32" fill="none" xmlns="http://www.w3.org/2000/svg">
<path d="M10.4377 15.9998L12.4117 17.9738C12.6744 18.2429 12.8026 18.5549 12.7964 18.9098C12.7902 19.2647 12.6573 19.5718 12.3977 19.8311C12.1353 20.0904 11.8206 20.2232 11.4537 20.2294C11.0871 20.2357 10.7716 20.1074 10.5074 19.8448L7.60739 16.9448C7.3445 16.6774 7.21305 16.3613 7.21305 15.9964C7.21305 15.6315 7.3445 15.3177 7.60739 15.0548L10.5217 12.1404C10.7891 11.8775 11.1052 11.7517 11.4701 11.7628C11.8349 11.7739 12.1532 11.9113 12.4247 12.1751C12.6809 12.4387 12.8054 12.7473 12.7981 13.1011C12.7907 13.4549 12.6619 13.7631 12.4117 14.0258L10.4377 15.9998ZM21.5624 15.9998L19.5884 14.0258C19.3257 13.7567 19.1975 13.4447 19.2037 13.0898C19.2099 12.7349 19.3428 12.4278 19.6024 12.1684C19.8648 11.9091 20.1795 11.7763 20.5464 11.7701C20.9131 11.7639 21.2285 11.8921 21.4927 12.1548L24.3927 15.0548C24.6556 15.3221 24.7871 15.6382 24.7871 16.0031C24.7871 16.368 24.6556 16.6819 24.3927 16.9448L21.4784 19.8591C21.2111 20.122 20.8949 20.2479 20.5301 20.2368C20.1652 20.2257 19.8469 20.0882 19.5754 19.8244C19.3192 19.5609 19.1947 19.2522 19.2021 18.8984C19.2094 18.5447 19.3382 18.2364 19.5884 17.9738L21.5624 15.9998ZM6.16972 28.4708C5.44727 28.4708 4.8265 28.2113 4.30739 27.6924C3.7885 27.1733 3.52905 26.5525 3.52905 25.8301V21.5868C3.52905 21.2154 3.65683 20.9025 3.91239 20.6481C4.16794 20.3937 4.48216 20.2664 4.85505 20.2664C5.22794 20.2664 5.54027 20.3937 5.79205 20.6481C6.04383 20.9025 6.16972 21.2154 6.16972 21.5868V25.8301H10.4131C10.7844 25.8301 11.0973 25.9579 11.3517 26.2134C11.6062 26.4692 11.7334 26.7835 11.7334 27.1564C11.7334 27.5293 11.6062 27.8415 11.3517 28.0931C11.0973 28.3449 10.7844 28.4708 10.4131 28.4708H6.16972ZM25.8304 28.4708H21.5871C21.2157 28.4708 20.9028 28.343 20.6484 28.0874C20.3939 27.8319 20.2667 27.5177 20.2667 27.1448C20.2667 26.7719 20.3939 26.4595 20.6484 26.2078C20.9028 25.956 21.2157 25.8301 21.5871 25.8301H25.8304V21.5868C25.8304 21.2154 25.9582 20.9025 26.2137 20.6481C26.4695 20.3937 26.7833 20.2664 27.1551 20.2664C27.5268 20.2664 27.8423 20.3937 28.1014 20.6481C28.3605 20.9025 28.4901 21.2154 28.4901 21.5868V25.8301C28.4901 26.5525 28.2286 27.1733 27.7057 27.6924C27.1831 28.2113 26.5579 28.4708 25.8304 28.4708ZM3.52905 10.4128V6.16943C3.52905 5.44188 3.7885 4.81677 4.30739 4.2941C4.8265 3.77121 5.44727 3.50977 6.16972 3.50977H10.4131C10.7844 3.50977 11.0973 3.64132 11.3517 3.90443C11.6062 4.16732 11.7334 4.48466 11.7334 4.85643C11.7334 5.22821 11.6062 5.53999 11.3517 5.79177C11.0973 6.04354 10.7844 6.16943 10.4131 6.16943H6.16972V10.4128C6.16972 10.7841 6.04194 11.097 5.78639 11.3514C5.53061 11.6059 5.21627 11.7331 4.84339 11.7331C4.4705 11.7331 4.15827 11.6059 3.90672 11.3514C3.65494 11.097 3.52905 10.7841 3.52905 10.4128ZM25.8304 10.4128V6.16943H21.5871C21.2157 6.16943 20.9028 6.04166 20.6484 5.7861C20.3939 5.53032 20.2667 5.21654 20.2667 4.84477C20.2667 4.47299 20.3939 4.15754 20.6484 3.89843C20.9028 3.63932 21.2157 3.50977 21.5871 3.50977H25.8304C26.5579 3.50977 27.1831 3.77121 27.7057 4.2941C28.2286 4.81677 28.4901 5.44188 28.4901 6.16943V10.4128C28.4901 10.7841 28.3585 11.097 28.0954 11.3514C27.8325 11.6059 27.5152 11.7331 27.1434 11.7331C26.7716 11.7331 26.4598 11.6059 26.2081 11.3514C25.9563 11.097 25.8304 10.7841 25.8304 10.4128Z" fill="currentColor"/>
</svg>
