<svg width="32" height="32" viewBox="0 0 32 32" fill="none" xmlns="http://www.w3.org/2000/svg">
<path d="M21.3667 29.3L18.0333 25.9667C17.8333 25.7667 17.7333 25.5333 17.7333 25.2667C17.7333 25 17.8333 24.7667 18.0333 24.5667C18.2333 24.3667 18.4667 24.2667 18.7333 24.2667C19 24.2667 19.2333 24.3667 19.4333 24.5667L22.0333 27.1667L27.4667 21.7333C27.6467 21.5533 27.8733 21.4667 28.1533 21.4667C28.4333 21.4667 28.6733 21.5667 28.8733 21.7667C29.0733 21.9667 29.1733 22.2 29.1733 22.4667C29.1733 22.7333 29.0733 22.9667 28.8733 23.1667L22.7733 29.3C22.5933 29.5 22.3667 29.6 22.0867 29.6C21.8067 29.6 21.5733 29.5 21.3667 29.3ZM12 20.0667L10.3333 21.7333C10.1333 21.9333 9.9 22.0333 9.63333 22.0333C9.36667 22.0333 9.13333 21.9333 8.93333 21.7333C8.73333 21.5333 8.63333 21.3 8.63333 21.0333C8.63333 20.7667 8.73333 20.5333 8.93333 20.3333L10.6 18.6667L8.93333 17C8.73333 16.8 8.63333 16.5667 8.63333 16.3C8.63333 16.0333 8.73333 15.8 8.93333 15.6C9.13333 15.4 9.36667 15.3 9.63333 15.3C9.9 15.3 10.1333 15.4 10.3333 15.6L12 17.2667L13.6667 15.6C13.8667 15.4 14.1 15.3 14.3667 15.3C14.6333 15.3 14.8667 15.4 15.0667 15.6C15.2667 15.8 15.3667 16.0333 15.3667 16.3C15.3667 16.5667 15.2667 16.8 15.0667 17L13.4 18.6667L15.0667 20.3333C15.2667 20.5333 15.3667 20.7667 15.3667 21.0333C15.3667 21.3 15.2667 21.5333 15.0667 21.7333C14.8667 21.9333 14.6333 22.0333 14.3667 22.0333C14.1 22.0333 13.8667 21.9333 13.6667 21.7333L12 20.0667ZM6 29.3333C5.46667 29.3333 5 29.1333 4.6 28.7333C4.2 28.3333 4 27.8667 4 27.3333V6.66667C4 6.13334 4.2 5.66667 4.6 5.26667C5 4.86667 5.46667 4.66667 6 4.66667H8.16667V3.73334C8.16667 3.44667 8.27333 3.19334 8.48667 2.98667C8.7 2.77334 8.94667 2.67334 9.23333 2.67334C9.54667 2.67334 9.80667 2.78001 10.02 2.98667C10.2333 3.20001 10.34 3.44667 10.34 3.73334V4.66667H21.6733V3.73334C21.6733 3.44667 21.78 3.19334 21.9867 2.98667C22.1933 2.78001 22.4467 2.67334 22.7333 2.67334C23.0467 2.67334 23.3067 2.78001 23.5133 2.98667C23.72 3.19334 23.8267 3.44667 23.8267 3.73334V4.66667H25.9933C26.5267 4.66667 26.9933 4.86667 27.3933 5.26667C27.7933 5.66667 27.9933 6.13334 27.9933 6.66667V18.4L25.9933 20.4V13H6V27.3333H16.5667L18.5667 29.3333H6Z" fill="#222343"/>
</svg>
