<svg width="32" height="32" viewBox="0 0 32 32" fill="none" xmlns="http://www.w3.org/2000/svg">
<g clip-path="url(#clip0_4027_6576)">
<path fill-rule="evenodd" clip-rule="evenodd" d="M0.18647 8.10065C0.419872 7.60084 1.01957 7.38808 1.51948 7.62799L8.16596 10.7813C8.36596 10.8746 8.5269 11.0343 8.6269 11.2276L11.5263 16.921L11.9863 17.0147V13.4063L10.4335 10.4942C9.96025 9.60761 10.5999 8.53442 11.6064 8.53424H27.5468C30.04 8.5344 31.1662 11.6548 29.2529 13.2481L24.8066 16.961C24.3466 17.3409 23.7467 17.5012 23.1601 17.3946L23.1533 17.3878L22.1484 17.2003L20.8915 18.8419L24.3964 19.5606C25.0492 18.2339 26.4142 17.3215 27.9931 17.3214C30.2063 17.3214 31.9997 19.1141 31.9999 21.3272C31.9999 23.5405 30.2064 25.334 27.9931 25.334C25.8472 25.3339 24.0957 23.6483 23.9912 21.5284L19.5341 20.6153L16.7665 24.2335C16.2474 24.9123 15.4826 25.2849 14.6708 25.2862C14.3849 25.2859 14.0856 25.2404 13.7998 25.1407C12.7 24.7673 11.9864 23.7741 11.9863 22.6143V19.0684L10.6464 18.794C10.3465 18.734 10.0931 18.5409 9.95307 18.2676L6.99311 12.4473L0.660102 9.43463C0.160102 9.19463 -0.0535304 8.60065 0.18647 8.10065ZM27.9931 19.3214C27.3997 19.3214 26.8666 19.5806 26.499 19.9913L28.2001 20.3409C28.7398 20.4544 29.0859 20.9808 28.9794 21.5206C28.8795 21.9938 28.4665 22.3213 27.9999 22.3214L27.9931 22.3272C27.9264 22.3272 27.8596 22.3277 27.7929 22.3077L26.0898 21.9581C26.3548 22.7564 27.1069 23.3339 27.9931 23.334C29.0998 23.334 29.9999 22.4339 29.9999 21.3272C29.9997 20.2207 29.0996 19.3214 27.9931 19.3214ZM13.9863 22.6143C13.9865 23.0473 14.3071 23.2005 14.4404 23.2471C14.5739 23.2938 14.9198 23.3668 15.1796 23.0206L17.3603 20.169L13.9863 19.4776V22.6143ZM13.9863 17.4249L18.7167 18.3956L19.9453 16.7911L13.9863 15.6827V17.4249Z" fill="currentColor"/>
<path d="M14.6738 25.2872H14.6669L14.6708 25.2862L14.6738 25.2872Z" fill="currentColor"/>
</g>
<defs>
<clipPath id="clip0_4027_6576">
<rect width="32" height="32" fill="white"/>
</clipPath>
</defs>
</svg>
