<svg width="32" height="32" viewBox="0 0 32 32" fill="none" xmlns="http://www.w3.org/2000/svg">
<path d="M24.6667 2.66675H18C16.8933 2.66675 16 3.56008 16 4.66675V6.76675H11.4933C10.96 6.76675 10.4533 6.98008 10.08 7.35341L9.52668 7.90675L8.12001 6.50008L8.13335 6.48675C8.52001 6.10008 8.52001 5.48008 8.13335 5.09341C7.74668 4.70675 7.12668 4.70675 6.74001 5.09341L3.88668 7.94675C3.50001 8.33341 3.50001 8.95341 3.88668 9.34008C4.27335 9.72675 4.89335 9.72675 5.28001 9.34008L5.29335 9.32675L6.70001 10.7334L5.92668 11.5067C5.55335 11.8801 5.34001 12.3934 5.34001 12.9201V27.3334C5.34001 28.4401 6.23335 29.3334 7.34001 29.3334H24.6733C25.78 29.3334 26.6733 28.4401 26.6733 27.3334V4.66675C26.6733 3.56008 25.78 2.66675 24.6733 2.66675H24.6667ZM22.1067 23.0401C22.5 23.4334 22.5 24.0667 22.1067 24.4534C21.9133 24.6467 21.6533 24.7467 21.4 24.7467C21.1467 24.7467 20.8867 24.6467 20.6933 24.4534L18.5867 22.3467H13.4133L11.3067 24.4534C11.1133 24.6467 10.8533 24.7467 10.6 24.7467C10.3467 24.7467 10.0867 24.6467 9.89335 24.4534C9.50001 24.0601 9.50001 23.4267 9.89335 23.0401L12 20.9334V15.7601L9.89335 13.6534C9.50001 13.2601 9.50001 12.6267 9.89335 12.2401C10.2867 11.8534 10.92 11.8467 11.3067 12.2401L13.4133 14.3467H18.5867L20.6933 12.2401C21.0867 11.8467 21.72 11.8467 22.1067 12.2401C22.4933 12.6334 22.5 13.2667 22.1067 13.6534L20 15.7601V20.9334L22.1067 23.0401ZM24.4333 5.05341C24.36 6.01341 23.5733 6.76675 22.5933 6.76675H18.24V4.90675H24.4333V5.05341Z" fill="#222343"/>
</svg>
