<svg width="32" height="32" viewBox="0 0 32 32" fill="none" xmlns="http://www.w3.org/2000/svg">
<path fill-rule="evenodd" clip-rule="evenodd" d="M16.0066 2.6665C8.62658 2.6665 2.65991 8.67317 2.65991 16.1132C2.65991 22.0532 6.47991 27.0865 11.7866 28.8665C12.4466 28.9998 12.6932 28.5798 12.6932 28.2198C12.6932 27.9065 12.6732 26.8398 12.6732 25.7265C8.95991 26.5265 8.18658 24.1265 8.18658 24.1265C7.59325 22.5665 6.70658 22.1665 6.70658 22.1665C5.49325 21.3398 6.79325 21.3398 6.79325 21.3398C8.13991 21.4265 8.84658 22.7198 8.84658 22.7198C10.0399 24.7665 11.9599 24.1865 12.7332 23.8332C12.8466 22.9665 13.1999 22.3665 13.5732 22.0332C10.6132 21.7198 7.49991 20.5665 7.49991 15.3998C7.49991 13.9332 8.02658 12.7265 8.86658 11.7932C8.73325 11.4598 8.27325 10.0798 8.99991 8.23317C8.99991 8.23317 10.1266 7.87984 12.6666 9.61317C13.7532 9.31984 14.8732 9.1665 15.9999 9.1665C17.1266 9.1665 18.2732 9.31984 19.3332 9.61317C21.8732 7.87984 22.9999 8.23317 22.9999 8.23317C23.7266 10.0798 23.2666 11.4598 23.1332 11.7932C23.9932 12.7265 24.4999 13.9265 24.4999 15.3998C24.4999 20.5665 21.3866 21.6998 18.3999 22.0332C18.8866 22.4532 19.3066 23.2598 19.3066 24.5265C19.3066 26.3265 19.2866 27.7732 19.2866 28.2198C19.2866 28.5732 19.5266 28.9998 20.1932 28.8665C25.4932 27.0865 29.3199 22.0532 29.3199 16.1132C29.3399 8.67984 23.3532 2.6665 15.9999 2.6665H16.0066Z" fill="currentColor"/>
</svg>
