<svg width="32" height="32" viewBox="0 0 32 32" fill="none" xmlns="http://www.w3.org/2000/svg">
<path d="M1.26668 23.22C1.26668 22.44 1.46668 21.7334 1.86668 21.1C2.26668 20.4667 2.82001 19.9934 3.53334 19.68C5.15334 18.9667 6.62001 18.46 7.92001 18.1467C9.22001 17.8334 10.56 17.68 11.94 17.68C13.32 17.68 14.6533 17.8334 15.94 18.1467C17.2267 18.46 18.6867 18.9667 20.3067 19.68C21.02 19.9934 21.58 20.4667 21.9933 21.1C22.4067 21.7334 22.6133 22.44 22.6133 23.22V24.3534C22.6133 24.9067 22.42 25.38 22.0267 25.7734C21.6333 26.1667 21.1667 26.36 20.6067 26.36H3.26668C2.71334 26.36 2.24001 26.1667 1.84668 25.7734C1.46001 25.3867 1.26001 24.9134 1.26001 24.3534V23.22H1.26668ZM24.1333 26.3534C24.2467 26.02 24.3533 25.6934 24.4533 25.3667C24.5533 25.04 24.6067 24.7067 24.6067 24.3467V23.2134C24.6067 21.8134 24.2867 20.6867 23.64 19.8267C22.9933 18.9667 22.0267 18.2534 20.74 17.6734C22.2733 17.8534 23.72 18.0934 25.0733 18.4067C26.4267 18.72 27.5267 19.0934 28.3733 19.54C29.1067 19.96 29.6867 20.4867 30.1067 21.1067C30.5267 21.7267 30.74 22.4267 30.74 23.2067V24.34C30.74 24.8934 30.5467 25.3667 30.1533 25.76C29.76 26.1534 29.2933 26.3467 28.7333 26.3467H24.1333V26.3534ZM11.9333 15.6467C10.4667 15.6467 9.26668 15.18 8.33334 14.2467C7.40001 13.3134 6.93334 12.1134 6.93334 10.6467C6.93334 9.18004 7.40001 7.98004 8.33334 7.04671C9.26668 6.11338 10.4667 5.64671 11.9333 5.64671C13.4 5.64671 14.6 6.11338 15.5333 7.04671C16.4667 7.98004 16.9333 9.18004 16.9333 10.6467C16.9333 12.1134 16.4667 13.3134 15.5333 14.2467C14.6 15.18 13.4 15.6467 11.9333 15.6467ZM23.9333 10.6467C23.9333 12.1134 23.4667 13.3134 22.5333 14.2467C21.6 15.18 20.4 15.6467 18.9333 15.6467C18.6867 15.6467 18.4133 15.6267 18.1133 15.5934C17.8133 15.56 17.54 15.5 17.2933 15.4067C17.8267 14.8534 18.2333 14.1667 18.5133 13.3534C18.7933 12.54 18.9333 11.6334 18.9333 10.6334C18.9333 9.63338 18.7933 8.74671 18.5133 7.98004C18.2333 7.21338 17.8267 6.50671 17.2933 5.86004C17.54 5.79338 17.8133 5.74004 18.1133 5.69338C18.4133 5.64671 18.6867 5.62671 18.9333 5.62671C20.4 5.62671 21.6 6.09338 22.5333 7.02671C23.4667 7.96004 23.9333 9.16004 23.9333 10.6267V10.6467Z" fill="#222343"/>
</svg>
