<svg width="32" height="32" viewBox="0 0 32 32" fill="none" xmlns="http://www.w3.org/2000/svg">
<path d="M1 24C0.713333 24 0.473333 23.9067 0.28 23.72C0.0933333 23.5333 0 23.2933 0 23V22.2333C0 21.3667 0.46 20.6667 1.38667 20.1333C2.30667 19.6 3.51333 19.3333 5 19.3333C5.26667 19.3333 5.52667 19.3333 5.78667 19.3467C6.04667 19.36 6.29333 19.3867 6.53333 19.4267C6.35333 19.8067 6.22 20.1933 6.13333 20.5933C6.04667 20.9933 6 21.4133 6 21.86V23.9933H1V24ZM9 24C8.71333 24 8.47333 23.9067 8.28667 23.72C8.1 23.5333 8 23.2933 8 23V21.8667C8 20.42 8.74 19.2533 10.2133 18.3533C11.6933 17.4533 13.62 17.0067 16 17.0067C18.38 17.0067 20.3333 17.46 21.8 18.3533C23.2667 19.2533 24 20.4267 24 21.8667V23C24 23.2867 23.9067 23.5267 23.72 23.72C23.5333 23.9133 23.2933 24 23 24H9ZM26 24V21.8667C26 21.42 25.9533 21 25.8667 20.6C25.78 20.2 25.6467 19.8133 25.4667 19.4333C25.7133 19.3867 25.96 19.36 26.2133 19.3533C26.4667 19.34 26.7333 19.34 26.9933 19.34C28.48 19.34 29.6867 19.6067 30.6067 20.14C31.5267 20.6733 31.9933 21.3733 31.9933 22.24V23.0067C31.9933 23.2933 31.9 23.5333 31.7133 23.7267C31.5267 23.92 31.2867 24.0067 30.9933 24.0067H25.9933L26 24ZM5 18.3333C4.35333 18.3333 3.80667 18.1067 3.35333 17.6533C2.9 17.2 2.66667 16.6467 2.66667 16C2.66667 15.3533 2.89333 14.8067 3.35333 14.3467C3.80667 13.8933 4.36 13.6667 5 13.6667C5.64 13.6667 6.19333 13.8933 6.65333 14.3467C7.10667 14.8 7.33333 15.3533 7.33333 16C7.33333 16.6467 7.10667 17.1933 6.65333 17.6533C6.2 18.1067 5.64667 18.3333 5 18.3333ZM27 18.3333C26.3533 18.3333 25.8067 18.1067 25.3533 17.6533C24.9 17.2 24.6667 16.6467 24.6667 16C24.6667 15.3533 24.8933 14.8067 25.3533 14.3467C25.8067 13.8933 26.36 13.6667 27 13.6667C27.64 13.6667 28.1933 13.8933 28.6467 14.3467C29.1 14.8 29.3333 15.3533 29.3333 16C29.3333 16.6467 29.1067 17.1933 28.6467 17.6533C28.1933 18.1067 27.64 18.3333 27 18.3333ZM16 16C14.8867 16 13.9467 15.6133 13.1667 14.8333C12.3867 14.0533 12 13.1133 12 12C12 10.8867 12.3867 9.94667 13.1667 9.16667C13.9467 8.38667 14.8867 8 16 8C17.1133 8 18.0533 8.38667 18.8333 9.16667C19.6133 9.94667 20 10.8867 20 12C20 13.1133 19.6133 14.0533 18.8333 14.8333C18.0533 15.6133 17.1133 16 16 16Z" fill="#222343"/>
</svg>
