<svg width="32" height="32" viewBox="0 0 32 32" fill="none" xmlns="http://www.w3.org/2000/svg">
<path d="M15.3067 24.3467C16.6667 23.36 18.38 22.9667 20.04 22.88H21.0467C22.5667 22.92 23.8133 21.3867 23.4467 19.9C23.1867 18.7733 22.0933 17.96 20.9467 17.96H11.82C8.56001 17.82 5.38001 20.24 4.50001 23.28C4.51334 23.28 13.5933 26.4867 13.6067 26.4933C13.96 25.6333 14.5667 24.9 15.3067 24.3533V24.3467Z" fill="#222343"/>
<path d="M28.7933 15.1933C27.7333 14.48 26.3067 14.6733 25.48 15.6533L23.78 17.84C24.24 18.32 24.58 18.9067 24.7333 19.5733C25.0067 20.6667 24.7467 21.82 24.0267 22.74C23.3067 23.66 22.2133 24.2067 21.0933 24.2067H20.0733C18.42 24.3 17.0867 24.7067 16.1133 25.4067H20.7467C20.7467 25.4067 24.6267 25.4533 27.1533 21.98C28.6267 19.9533 28.94 19.4467 28.94 19.4467L29.4733 18.64C30.2333 17.5 29.9267 15.96 28.7867 15.1933H28.7933Z" fill="#222343"/>
<path d="M12.5867 27.5467C10.6 26.8467 4.10667 24.56 4.05334 24.54L3.48001 24.34L1.89334 29.44H13.4467L13.86 27.9933L13.16 27.7467L12.5867 27.5467Z" fill="#222343"/>
<path d="M11.8133 16.6267H20.94C21.56 16.6267 22.1667 16.7733 22.7067 17.0467L24.4267 14.8333L24.44 14.8133L24.46 14.7933C24.62 14.6 24.8067 14.4267 24.9933 14.2733V9.14667C24.9933 8.71334 24.7867 8.31334 24.4333 8.06L16.7733 2.58667C16.3067 2.25334 15.6867 2.25334 15.22 2.58667L7.56001 8.06667C7.20667 8.32 7.00001 8.72 7.00001 9.15334V17.9733C7.20667 17.8467 7.41334 17.72 7.62667 17.6067C8.86001 16.9667 10.3067 16.6267 11.8133 16.6267ZM16.6667 10.0333H18V11.3667H16.6667V10.0333ZM16.6667 12.7H18V14.0333H16.6667V12.7ZM14 10.0333H15.3333V11.3667H14V10.0333ZM14 12.7H15.3333V14.0333H14V12.7Z" fill="#222343"/>
</svg>
