<svg width="32" height="32" viewBox="0 0 32 32" fill="none" xmlns="http://www.w3.org/2000/svg">
<path d="M20.48 11.0733C20.24 11.3199 19.9133 11.4799 19.5066 11.5599V11.8799C19.5066 12.0133 19.4666 12.1199 19.38 12.2066C19.2933 12.2933 19.1866 12.3333 19.0533 12.3333C18.92 12.3333 18.8066 12.2933 18.7266 12.2066C18.64 12.1266 18.6 12.0133 18.6 11.8799V11.5866C18.12 11.5266 17.7066 11.3866 17.36 11.1666C17.28 11.1199 17.2266 11.0666 17.1933 11.0066C17.16 10.9466 17.1466 10.8666 17.1466 10.7666C17.1466 10.6333 17.1866 10.5266 17.26 10.4266C17.3333 10.3266 17.4266 10.2866 17.5333 10.2866C17.5866 10.2866 17.64 10.2933 17.6866 10.3133C17.74 10.3333 17.8066 10.3599 17.8866 10.4133C18.08 10.5199 18.2533 10.5933 18.42 10.6333C18.5866 10.6799 18.76 10.6999 18.9466 10.6999C19.1733 10.6999 19.3533 10.6599 19.4733 10.5866C19.5933 10.5133 19.6533 10.3999 19.6533 10.2466C19.6533 10.1533 19.62 10.0799 19.5466 10.0199C19.4733 9.95993 19.3866 9.91326 19.28 9.87993C19.1733 9.8466 19.02 9.79993 18.8133 9.7466C18.4866 9.6666 18.22 9.57993 18.0133 9.49327C17.8066 9.4066 17.6266 9.27327 17.4733 9.09327C17.32 8.91327 17.2466 8.67326 17.2466 8.3666C17.2466 8.01993 17.3666 7.71993 17.6133 7.45993C17.86 7.19993 18.18 7.03327 18.58 6.95327V6.6266C18.58 6.49326 18.6266 6.3866 18.7133 6.3066C18.8 6.21993 18.9066 6.17993 19.04 6.17993C19.1733 6.17993 19.2866 6.21993 19.3666 6.3066C19.4533 6.3866 19.4933 6.49993 19.4933 6.63326V6.93993C19.8533 6.99326 20.2066 7.13327 20.5466 7.3466C20.6266 7.39993 20.68 7.45326 20.7133 7.51993C20.7466 7.57993 20.76 7.65993 20.76 7.75326C20.76 7.8866 20.72 7.99327 20.64 8.09327C20.56 8.1866 20.4733 8.23326 20.3666 8.23326C20.3133 8.23326 20.2666 8.2266 20.22 8.2066C20.1733 8.1866 20.1 8.15993 20.0133 8.1066C19.98 8.0866 19.9133 8.05326 19.8133 7.99993C19.7066 7.9466 19.6 7.89993 19.48 7.8666C19.36 7.83326 19.2333 7.81993 19.1 7.81993C18.9066 7.81993 18.7466 7.85993 18.6266 7.9466C18.5066 8.03326 18.4466 8.1466 18.4466 8.2866C18.4466 8.4266 18.5133 8.5266 18.6533 8.59993C18.7933 8.67326 19.0133 8.73993 19.3133 8.8066C19.6333 8.87993 19.9 8.95993 20.1066 9.03993C20.3133 9.11993 20.4933 9.25327 20.64 9.43993C20.7866 9.61993 20.8666 9.8666 20.8666 10.1733C20.8666 10.5266 20.7466 10.8266 20.5066 11.0733H20.48Z" fill="currentColor"/>
<path d="M18.9933 2.67993C15.3666 2.67993 12.4266 5.61993 12.4266 9.2466C12.4266 12.8733 15.3666 15.8133 18.9933 15.8133C22.62 15.8133 25.56 12.8733 25.56 9.2466C25.56 5.61993 22.62 2.67993 18.9933 2.67993ZM18.9933 13.8199C16.4733 13.8199 14.42 11.7666 14.42 9.2466C14.42 6.7266 16.4733 4.67326 18.9933 4.67326C21.5133 4.67326 23.5666 6.7266 23.5666 9.2466C23.5666 11.7666 21.5133 13.8199 18.9933 13.8199Z" fill="currentColor"/>
<path d="M15.3066 24.3466C16.6666 23.3599 18.38 22.9666 20.04 22.8799H21.0466C22.5666 22.9199 23.8133 21.3866 23.4466 19.8999C23.1866 18.7733 22.0933 17.9599 20.9466 17.9599H11.82C8.55998 17.8199 5.37998 20.2399 4.49998 23.2799C4.51331 23.2799 13.5933 26.4866 13.6066 26.4933C13.96 25.6333 14.5666 24.8999 15.3066 24.3533V24.3466Z" fill="currentColor"/>
<path d="M28.7933 15.1933C27.7333 14.4799 26.3066 14.6733 25.48 15.6533L23.78 17.8399C24.24 18.3199 24.58 18.9066 24.7333 19.5733C25.0066 20.6666 24.7466 21.8199 24.0266 22.7399C23.3066 23.6599 22.2133 24.2066 21.0933 24.2066H20.0733C18.42 24.2999 17.0866 24.7066 16.1133 25.4066H20.7466C20.7466 25.4066 24.6266 25.4533 27.1533 21.9799C28.6266 19.9533 28.94 19.4466 28.94 19.4466L29.4733 18.6399C30.2333 17.4999 29.9266 15.9599 28.7866 15.1933H28.7933Z" fill="currentColor"/>
<path d="M12.5866 27.5466C10.6 26.8466 4.10664 24.5599 4.05331 24.5399L3.47998 24.3399L1.89331 29.4399H13.4466L13.86 27.9933L13.16 27.7466L12.5866 27.5466Z" fill="currentColor"/>
</svg>
