<svg width="32" height="32" viewBox="0 0 32 32" fill="none" xmlns="http://www.w3.org/2000/svg">
<path d="M10.8 2.7334H21.2C21.5667 2.7334 21.8667 3.0334 21.8667 3.40007V6.04673H10.1334V3.40007C10.1334 3.0334 10.4334 2.7334 10.8 2.7334Z" fill="#222343"/>
<path d="M11.0267 7.38013V14.6668C11.0267 15.4001 11.6267 16.0001 12.36 16.0001H19.6467C20.38 16.0001 20.98 15.4001 20.98 14.6668V7.38013H11.0267ZM18.6667 11.5335H13.3333V9.53346H18.6667V11.5335Z" fill="#222343"/>
<path d="M15.3067 24.3467C16.6667 23.36 18.38 22.9667 20.04 22.88H21.0467C22.5667 22.92 23.8133 21.3867 23.4467 19.9C23.1867 18.7733 22.0933 17.96 20.9467 17.96H11.82C8.56001 17.82 5.38001 20.24 4.50001 23.28C4.51334 23.28 13.5933 26.4867 13.6067 26.4933C13.96 25.6333 14.5667 24.9 15.3067 24.3533V24.3467Z" fill="#222343"/>
<path d="M28.7933 15.1933C27.7333 14.48 26.3067 14.6733 25.48 15.6533L23.78 17.84C24.24 18.32 24.58 18.9067 24.7333 19.5733C25.0067 20.6667 24.7467 21.82 24.0267 22.74C23.3067 23.66 22.2133 24.2067 21.0933 24.2067H20.0733C18.42 24.3 17.0867 24.7067 16.1133 25.4067H20.7467C20.7467 25.4067 24.6267 25.4533 27.1533 21.98C28.6267 19.9533 28.94 19.4467 28.94 19.4467L29.4733 18.64C30.2333 17.5 29.9267 15.96 28.7867 15.1933H28.7933Z" fill="#222343"/>
<path d="M12.5867 27.5467C10.6 26.8467 4.10667 24.56 4.05334 24.54L3.48001 24.34L1.89334 29.44H13.4467L13.86 27.9933L13.16 27.7467L12.5867 27.5467Z" fill="#222343"/>
</svg>
