<svg width="32" height="32" viewBox="0 0 32 32" fill="none" xmlns="http://www.w3.org/2000/svg">
<path d="M8.77334 8.05325L7.3 7.31991C6.96 7.14658 6.54 7.29991 6.38667 7.65325L2.91334 15.7599C2.77334 16.0866 2.91334 16.4599 3.22667 16.6199L4.7 17.3532C5.04 17.5266 5.46 17.3732 5.61334 17.0199L9.08667 8.91325C9.22667 8.58658 9.08667 8.21325 8.77334 8.05325Z" fill="#222343"/>
<path d="M29.0867 15.7532L25.6133 7.64658C25.46 7.29325 25.0467 7.13991 24.7 7.31325L23.2267 8.04658C22.9133 8.20658 22.7733 8.57991 22.9133 8.90658L26.3867 17.0132C26.54 17.3666 26.9533 17.5199 27.3 17.3466L28.7733 16.6132C29.0867 16.4532 29.2267 16.0799 29.0867 15.7532Z" fill="#222343"/>
<path d="M24.8867 18.3866L24.9467 18.3066C25.2467 17.9266 25.3133 17.4199 25.1267 16.9732L22.44 10.5132C22.2333 10.0132 21.7467 9.69325 21.2067 9.69325H20.7333L17.7133 8.23991L17.7 8.25325C17.44 8.13991 17.1533 8.07325 16.86 8.06658C16.3267 8.06658 15.8267 8.28658 15.4533 8.66658L14.5333 9.59991H10.48C10.1133 9.59991 9.81334 9.89991 9.81334 10.2666C9.81334 10.6332 10.1133 10.9332 10.48 10.9332H13.22L10.9867 13.1999C10.2133 13.9866 10.2267 15.2532 11.0133 16.0266C11.3867 16.3932 11.8867 16.5999 12.4133 16.5999C12.94 16.5999 13.46 16.3866 13.84 15.9999L17.0667 12.7266C17.0667 12.7266 17.08 12.7332 17.0867 12.7399L23.26 18.6066C23.2867 18.6466 23.3067 18.6932 23.3467 18.7332L24.4733 19.8599C24.7333 20.1199 24.7333 20.5399 24.4733 20.7999C24.22 21.0532 23.78 21.0532 23.5333 20.7999L18.5667 15.8332C18.3067 15.5732 17.8867 15.5732 17.6267 15.8332C17.6267 15.8332 17.6267 15.8399 17.62 15.8466C17.62 15.8466 17.6133 15.8466 17.6067 15.8532C17.3467 16.1132 17.3467 16.5332 17.6067 16.7932L21.9067 21.0932C22.1667 21.3532 22.1667 21.7732 21.9067 22.0332C21.6533 22.2866 21.2133 22.2866 20.9667 22.0332L17.44 18.5066C17.44 18.5066 17.4333 18.5066 17.4267 18.4999L16.7067 17.7799C16.4467 17.5199 16.0267 17.5199 15.7667 17.7799C15.5067 18.0399 15.5067 18.4599 15.7667 18.7266L19.0933 22.0732C19.3533 22.3332 19.3533 22.7532 19.0933 23.0132C18.84 23.2666 18.4 23.2666 18.1533 23.0132L15.7533 20.6132C15.7533 20.6132 15.7133 20.5932 15.6933 20.5732L14.8333 19.7066C14.5733 19.4466 14.1533 19.4466 13.8933 19.7066C13.6333 19.9666 13.6333 20.3866 13.8933 20.6466L15.7533 22.5199C16.0133 22.7799 16.0133 23.1999 15.7533 23.4599C15.5 23.7132 15.06 23.7132 14.8133 23.4599L8.75334 17.3999L8.16 16.3999C7.97334 16.0866 7.56 15.9799 7.24667 16.1666C6.92667 16.3532 6.82667 16.7599 7.01334 17.0799L7.64667 18.1532C7.67334 18.1999 7.70667 18.2466 7.74667 18.2866L7.85334 18.3932L6.92 19.3266C6.14 20.1066 6.14 21.3732 6.92 22.1532C7.3 22.5332 7.8 22.7399 8.33334 22.7399C8.57334 22.7399 8.8 22.6932 9.02 22.6132C9.11334 22.8999 9.26667 23.1666 9.49334 23.3932C9.87334 23.7732 10.3733 23.9799 10.9067 23.9799C11.26 23.9799 11.5933 23.8799 11.8867 23.7199C11.9867 23.9599 12.1267 24.1799 12.3133 24.3666C12.6933 24.7466 13.1933 24.9532 13.7267 24.9532C13.98 24.9532 14.22 24.8999 14.4533 24.8132C14.7067 24.9266 14.9867 24.9932 15.2733 24.9932C15.8067 24.9932 16.3133 24.7866 16.6867 24.4066C16.86 24.2332 16.9867 24.0399 17.08 23.8332L17.2 23.9532C17.58 24.3332 18.08 24.5399 18.6133 24.5399C19.1467 24.5399 19.6533 24.3332 20.0267 23.9532C20.22 23.7599 20.36 23.5399 20.46 23.3066C20.7533 23.4732 21.0867 23.5666 21.4333 23.5666C21.9667 23.5666 22.4733 23.3599 22.8467 22.9799C23.0733 22.7532 23.2267 22.4866 23.32 22.1999C23.54 22.2799 23.7667 22.3266 24.0067 22.3266C24.54 22.3266 25.0467 22.1199 25.42 21.7399C26.2 20.9599 26.2 19.6932 25.42 18.9132L24.8867 18.3799V18.3866Z" fill="#222343"/>
</svg>
