<svg width="32" height="32" viewBox="0 0 32 32" fill="none" xmlns="http://www.w3.org/2000/svg">
<path d="M23.3333 4H8.66667C7.93334 4 7.33334 4.6 7.33334 5.33333V13.3333C7.33334 14.0667 7.93334 14.6667 8.66667 14.6667H23.3333C24.0667 14.6667 24.6667 14.0667 24.6667 13.3333V5.33333C24.6667 4.6 24.0667 4 23.3333 4ZM23.3333 11.3333C23.3333 11.7 23.0333 12 22.6667 12H22C21.6333 12 21.3333 11.7 21.3333 11.3333V10.6667C21.3333 10.3 21.6333 10 22 10H22.6667C23.0333 10 23.3333 10.3 23.3333 10.6667V11.3333ZM23.3333 7.61333H8.66667V5.61333H23.3333V7.61333Z" fill="currentColor"/>
<path d="M15.3067 24.3467C16.6667 23.36 18.38 22.9667 20.04 22.88H21.0467C22.5667 22.92 23.8133 21.3867 23.4467 19.9C23.1867 18.7733 22.0933 17.96 20.9467 17.96H11.82C8.56001 17.82 5.38001 20.24 4.50001 23.28C4.51334 23.28 13.5933 26.4867 13.6067 26.4933C13.96 25.6333 14.5667 24.9 15.3067 24.3533V24.3467Z" fill="currentColor"/>
<path d="M28.7933 15.1933C27.7333 14.48 26.3067 14.6733 25.48 15.6533L23.78 17.84C24.24 18.32 24.58 18.9067 24.7333 19.5733C25.0067 20.6667 24.7467 21.82 24.0267 22.74C23.3067 23.66 22.2133 24.2067 21.0933 24.2067H20.0733C18.42 24.3 17.0867 24.7067 16.1133 25.4067H20.7467C20.7467 25.4067 24.6267 25.4533 27.1533 21.98C28.6267 19.9533 28.94 19.4467 28.94 19.4467L29.4733 18.64C30.2333 17.5 29.9267 15.96 28.7867 15.1933H28.7933Z" fill="currentColor"/>
<path d="M12.5867 27.5467C10.6 26.8467 4.10667 24.56 4.05334 24.54L3.48001 24.34L1.89334 29.44H13.4467L13.86 27.9933L13.16 27.7467L12.5867 27.5467Z" fill="currentColor"/>
</svg>
