<svg width="32" height="32" viewBox="0 0 32 32" fill="none" xmlns="http://www.w3.org/2000/svg">
<path d="M17.0667 30.02C16.78 30.02 16.54 29.9266 16.3467 29.74C16.16 29.5533 16.0667 29.3133 16.0667 29.02C16.0667 28.7266 16.16 28.4933 16.3467 28.3C16.5333 28.1133 16.7733 28.02 17.0667 28.02H26V26.22H23.0667C22.5133 26.22 22.04 26.0266 21.6533 25.6333C21.2667 25.2466 21.0667 24.7733 21.0733 24.22V18.3533C21.0733 17.8 21.2667 17.3266 21.6533 16.94C22.04 16.5533 22.5133 16.3533 23.0667 16.3533H26V14.0866C26 11.3333 25.0333 8.95998 23.1 6.96665C21.1667 4.97998 18.82 3.97998 16.0667 3.97998C13.3133 3.97998 10.9467 4.97331 8.96667 6.95998C6.98667 8.94665 6 11.32 6 14.08V16.3466H8.93333C9.48667 16.3466 9.96 16.54 10.3467 16.9333C10.7333 17.32 10.9333 17.7933 10.9333 18.3466V24.2133C10.9333 24.7666 10.74 25.24 10.3467 25.6266C9.96 26.0133 9.48667 26.2133 8.93333 26.2133H6C5.46667 26.2133 5 26.0133 4.6 25.6133C4.2 25.2133 4 24.7466 4 24.2133V14.08C4 12.4133 4.31333 10.8466 4.95333 9.37998C5.58667 7.91331 6.44667 6.63331 7.54 5.52665C8.62667 4.42665 9.90667 3.55998 11.3733 2.92665C12.84 2.29331 14.4067 1.97998 16.0733 1.97998C17.74 1.97998 19.3 2.29998 20.7533 2.92665C22.2067 3.55998 23.4733 4.42665 24.54 5.52665C25.6067 6.62665 26.4533 7.90665 27.0733 9.37331C27.6933 10.84 28.0067 12.4066 28.0067 14.0733V28.0066C28.0067 28.54 27.8067 29.0066 27.4067 29.4066C27.0067 29.8066 26.54 30.0066 26.0067 30.0066H17.0733L17.0667 30.02Z" fill="#222343"/>
</svg>
