<svg width="32" height="32" viewBox="0 0 32 32" fill="none" xmlns="http://www.w3.org/2000/svg">
<path d="M25.3667 6.13336L23.54 5.45336L16.7 2.90002C16.2467 2.73336 15.7534 2.73336 15.3 2.90002L8.46004 5.45336L6.63337 6.13336C5.85337 6.42669 5.33337 7.17336 5.33337 8.00669V14.7267C5.33337 21.32 9.50004 26.94 15.34 29.1067C15.76 29.2667 16.2334 29.2667 16.66 29.1067C22.5 26.9467 26.6667 21.32 26.6667 14.7267V8.00669C26.6667 7.17336 26.1467 6.42669 25.3667 6.13336ZM20.2867 16.28C20.0334 16.5334 19.7134 16.66 19.34 16.66H17.34V18.66C17.34 19.04 17.2134 19.3534 16.9534 19.6134C16.7 19.8667 16.38 19.9934 16.0067 19.9934C15.6334 19.9934 15.3134 19.8667 15.06 19.6134C14.8067 19.36 14.6734 19.04 14.6734 18.66V16.66H12.6734C12.2934 16.66 11.98 16.5334 11.7267 16.28C11.4734 16.0267 11.34 15.7067 11.34 15.3267C11.34 14.9467 11.4667 14.6334 11.7267 14.38C11.98 14.1267 12.3 13.9934 12.6734 13.9934H14.6734V11.9934C14.6734 11.6134 14.8 11.3 15.06 11.0467C15.32 10.7934 15.6334 10.66 16.0067 10.66C16.38 10.66 16.7 10.7867 16.9534 11.0467C17.2067 11.3 17.34 11.62 17.34 11.9934V13.9934H19.34C19.72 13.9934 20.0334 14.12 20.2867 14.38C20.54 14.6334 20.6734 14.9534 20.6734 15.3267C20.6734 15.7 20.5467 16.02 20.2867 16.28Z" fill="#222343"/>
</svg>
