<svg width="32" height="32" viewBox="0 0 32 32" fill="none" xmlns="http://www.w3.org/2000/svg">
<path d="M25.3667 6.13336L23.54 5.45336L16.7 2.90002C16.2467 2.73336 15.7534 2.73336 15.3 2.90002L8.46004 5.45336L6.63337 6.13336C5.85337 6.42669 5.33337 7.17336 5.33337 8.00669V14.7267C5.33337 21.32 9.50004 26.9467 15.34 29.1067C15.7667 29.2667 16.2334 29.2667 16.66 29.1067C22.5 26.9467 26.6667 21.32 26.6667 14.7267V8.00669C26.6667 7.17336 26.1467 6.42669 25.3667 6.13336ZM20.6667 15.9C20.6667 16.1 20.5934 16.28 20.4467 16.4334C20.3 16.5867 20.1334 16.6667 19.9334 16.6667H17.3334V19.2334C17.3334 19.4334 17.26 19.6134 17.1134 19.7667C16.9667 19.92 16.8 20 16.6 20H15.4334C15.2334 20 15.0534 19.92 14.9 19.7667C14.7467 19.6134 14.6667 19.4334 14.6667 19.2334V16.6667H12.1C11.9 16.6667 11.72 16.5867 11.5667 16.4334C11.4134 16.28 11.3334 16.1 11.3334 15.9V14.7334C11.3334 14.5334 11.4134 14.36 11.5667 14.22C11.72 14.0734 11.9 14 12.1 14H14.6667V11.4C14.6667 11.2 14.7467 11.0267 14.9 10.8867C15.0534 10.74 15.2334 10.6667 15.4334 10.6667H16.6C16.8 10.6667 16.9734 10.74 17.1134 10.8867C17.26 11.0334 17.3334 11.2 17.3334 11.4V14H19.9334C20.1334 14 20.3067 14.0734 20.4467 14.22C20.5934 14.3667 20.6667 14.5334 20.6667 14.7334V15.9Z" fill="#222343"/>
</svg>
