<svg width="32" height="32" viewBox="0 0 32 32" fill="none" xmlns="http://www.w3.org/2000/svg">
<path d="M26.5 10.0133C26.3867 9.75996 26.2467 9.53996 26.0667 9.36663L19.9667 3.26663C19.7867 3.08663 19.5734 2.94663 19.32 2.83329C19.0667 2.71996 18.8 2.66663 18.5334 2.66663H7.33337C6.80004 2.66663 6.33337 2.86663 5.93337 3.26663C5.53337 3.66663 5.33337 4.13329 5.33337 4.66663V27.3333C5.33337 27.8666 5.53337 28.3333 5.93337 28.7333C6.33337 29.1333 6.80004 29.3333 7.33337 29.3333H24.6667C25.2 29.3333 25.6667 29.1333 26.0667 28.7333C26.4667 28.3333 26.6667 27.8666 26.6667 27.3333V10.8C26.6667 10.5333 26.6134 10.2733 26.5 10.0133ZM11 16C11 15.5333 11.1667 15.14 11.5 14.82C11.8334 14.5 12.22 14.3333 12.6667 14.3333C13.1334 14.3333 13.5267 14.4933 13.8534 14.82C14.18 15.1466 14.3334 15.54 14.3334 16C14.3334 16.46 14.1734 16.8333 13.8534 17.1666C13.5334 17.5 13.1334 17.6666 12.6667 17.6666C12.2 17.6666 11.8334 17.5 11.5 17.1666C11.1667 16.8333 11 16.4466 11 16ZM12.6 23.7333C12.3334 23.7333 12.1 23.6333 11.9 23.4333C11.7 23.2333 11.6 23 11.6 22.7333C11.6 22.4666 11.7 22.2333 11.9 22.0333L18.7 15.2333C18.9 15.0333 19.1334 14.9333 19.4 14.9333C19.6667 14.9333 19.9 15.0333 20.1 15.2333C20.3 15.4333 20.4 15.6666 20.4 15.9333C20.4 16.2 20.3 16.4333 20.1 16.6333L13.3 23.4333C13.1 23.6333 12.8667 23.7333 12.6 23.7333ZM20.52 23.8333C20.2 24.1666 19.8 24.3333 19.3334 24.3333C18.8667 24.3333 18.5 24.1666 18.1667 23.8333C17.8334 23.5 17.6667 23.1133 17.6667 22.6666C17.6667 22.2 17.8334 21.8066 18.1667 21.4866C18.5 21.1666 18.8867 21 19.3334 21C19.8 21 20.1934 21.16 20.52 21.4866C20.8467 21.8133 21 22.2066 21 22.6666C21 23.1266 20.84 23.5 20.52 23.8333ZM19.3667 10.8666C19.08 10.8666 18.84 10.7733 18.6534 10.58C18.4667 10.3933 18.3667 10.1533 18.3667 9.86663V4.66663L24.6667 10.8666H19.3667Z" fill="#222343"/>
</svg>
