<svg width="32" height="32" viewBox="0 0 32 32" fill="none" xmlns="http://www.w3.org/2000/svg">
<path d="M16.1334 23.7666C16.4867 23.7666 16.7867 23.6466 17.0334 23.4C17.28 23.1533 17.4 22.8533 17.4 22.5C17.4 22.1466 17.28 21.8466 17.0334 21.6C16.7867 21.3533 16.4867 21.2333 16.1334 21.2333C15.78 21.2333 15.48 21.3533 15.2334 21.6C14.9867 21.8466 14.8667 22.1466 14.8667 22.5C14.8667 22.8533 14.9867 23.1533 15.2334 23.4C15.48 23.6466 15.78 23.7666 16.1334 23.7666ZM16.1 9.99996C16.8534 9.99996 17.4667 10.2066 17.9334 10.62C18.4 11.0333 18.6334 11.56 18.6334 12.2C18.6334 12.6466 18.5 13.0866 18.2334 13.52C17.9667 13.9533 17.5334 14.4266 16.9334 14.9333C16.3534 15.4466 15.8934 15.98 15.5467 16.5466C15.2 17.1133 15.0334 17.6266 15.0334 18.1C15.0334 18.3466 15.1267 18.54 15.3134 18.6866C15.5 18.8333 15.72 18.9066 15.9667 18.9066C16.2334 18.9066 16.4534 18.82 16.6334 18.64C16.8134 18.46 16.92 18.24 16.9667 17.9733C17.0334 17.5266 17.18 17.1333 17.4134 16.7933C17.6467 16.4533 18.0067 16.0733 18.4934 15.68C19.16 15.1266 19.6467 14.5666 19.94 14.0133C20.24 13.46 20.3934 12.8333 20.3867 12.1466C20.3867 10.9666 20 10.0266 19.2334 9.31329C18.4667 8.59996 17.4534 8.24663 16.1867 8.24663C15.34 8.24663 14.5667 8.41329 13.8534 8.74663C13.14 9.07996 12.5534 9.56663 12.0867 10.2133C11.9067 10.46 11.8334 10.7066 11.8667 10.9666C11.9 11.2266 12.0067 11.42 12.1867 11.5533C12.4334 11.7333 12.6934 11.7866 12.9667 11.72C13.24 11.6533 13.4734 11.5 13.6467 11.2533C13.9334 10.8533 14.2867 10.5466 14.7 10.3333C15.1134 10.12 15.5734 10.0133 16.0867 10.0133L16.1 9.99996ZM16 29.3333C14.1334 29.3333 12.3867 28.9933 10.7667 28.3133C9.14669 27.6333 7.73335 26.7 6.53335 25.5C5.33335 24.3 4.38669 22.8866 3.70002 21.2666C3.01335 19.6466 2.66669 17.8866 2.66669 16C2.66669 14.1133 3.01335 12.3866 3.70002 10.7666C4.38669 9.14663 5.33335 7.73329 6.53335 6.53329C7.73335 5.33329 9.14669 4.38663 10.7667 3.69996C12.3867 3.01329 14.1334 2.66663 16 2.66663C17.8667 2.66663 19.58 3.01329 21.2 3.69996C22.82 4.38663 24.2334 5.33329 25.4334 6.53329C26.6334 7.73329 27.5867 9.14663 28.2867 10.7666C28.9867 12.3866 29.34 14.1333 29.34 16C29.34 17.8666 28.9934 19.6466 28.2867 21.2666C27.5867 22.8866 26.6334 24.3 25.4334 25.5C24.2334 26.7 22.82 27.64 21.2 28.3133C19.58 28.9933 17.8467 29.3333 16 29.3333Z" fill="#222343"/>
</svg>
