<svg width="32" height="32" viewBox="0 0 32 32" fill="none" xmlns="http://www.w3.org/2000/svg">
<path d="M9.33328 16.0001H6.33328C5.77994 16.0001 5.33328 15.5534 5.33328 15.0001V9.83341C5.33328 9.52007 5.47994 9.22008 5.73328 9.03341L10.0666 5.78674C10.4199 5.52008 10.9133 5.52008 11.2666 5.78674L15.5999 9.03341C15.8533 9.22008 15.9999 9.52007 15.9999 9.83341V15.0001C15.9999 15.5534 15.5533 16.0001 14.9999 16.0001H11.9999V12.0001H9.33328V16.0001Z" fill="#222343"/>
<path d="M19.9999 25.3467H16.9999C16.4466 25.3467 15.9999 24.9001 15.9999 24.3467V19.1801C15.9999 18.8667 16.1466 18.5667 16.3999 18.3801L20.7333 15.1334C21.0866 14.8667 21.5799 14.8667 21.9333 15.1334L26.2666 18.3801C26.5199 18.5667 26.6666 18.8667 26.6666 19.1801V24.3467C26.6666 24.9001 26.2199 25.3467 25.6666 25.3467H22.6666V21.3467H19.9999V25.3467Z" fill="#222343"/>
<path d="M15.4666 25.9867C11.5866 25.8134 8.14661 23.3467 6.67994 19.8201L8.85327 20.5667C9.11994 20.6601 9.37327 20.6467 9.61327 20.5267C9.85327 20.4067 10.0199 20.2201 10.1133 19.9534C10.1866 19.6934 10.1666 19.4467 10.0599 19.2001C9.95327 18.9534 9.76661 18.7867 9.49994 18.6934L5.03994 17.1601C4.89328 17.1067 4.75994 17.0934 4.64661 17.1134C4.53327 17.1334 4.41328 17.1734 4.29328 17.2267C4.17328 17.2867 4.07328 17.3534 3.98661 17.4334C3.89994 17.5134 3.83328 17.6267 3.77994 17.7734L2.24661 22.2334C2.16661 22.4734 2.18661 22.7134 2.30661 22.9667C2.42661 23.2134 2.61328 23.3934 2.85994 23.4934C3.12661 23.5867 3.37994 23.5734 3.61994 23.4534C3.85994 23.3334 4.02661 23.1467 4.11994 22.8734L4.87328 20.6867C6.65994 24.8601 10.7599 27.7734 15.3799 27.9801C15.3933 27.9801 15.4066 27.9801 15.4266 27.9801C15.9599 27.9801 16.3999 27.5601 16.4266 27.0267C16.4533 26.4734 16.0266 26.0067 15.4733 25.9867H15.4666Z" fill="#222343"/>
<path d="M29.7733 9.22008C29.6599 8.96674 29.4799 8.78674 29.2333 8.68008C28.9666 8.58008 28.7133 8.58674 28.4733 8.70008C28.2333 8.81341 28.0599 9.00007 27.9599 9.26674L27.1599 11.4334C25.4666 7.22007 21.4399 4.20674 16.8266 3.90008C16.2733 3.86674 15.7999 4.28008 15.7599 4.83341C15.7199 5.38674 16.1399 5.86008 16.6933 5.90008C20.5666 6.16008 23.9466 8.71341 25.3333 12.2667L23.1799 11.4667C22.9133 11.3667 22.6599 11.3734 22.4199 11.4867C22.1799 11.6001 22.0066 11.7867 21.9066 12.0534C21.8266 12.3067 21.8399 12.5601 21.9399 12.8067C22.0399 13.0534 22.2266 13.2267 22.4866 13.3267L26.9066 14.9667C27.0533 15.0201 27.1866 15.0401 27.2999 15.0267C27.4133 15.0134 27.5333 14.9734 27.6533 14.9201C27.7733 14.8667 27.8799 14.8001 27.9666 14.7201C28.0533 14.6401 28.1266 14.5334 28.1799 14.3867L29.8199 9.96674C29.9066 9.73341 29.8933 9.48674 29.7799 9.23341L29.7733 9.22008Z" fill="#222343"/>
</svg>
