<svg width="32" height="32" viewBox="0 0 32 32" fill="none" xmlns="http://www.w3.org/2000/svg">
<path d="M25.6667 2.66669H6.33337C5.78004 2.66669 5.33337 3.11335 5.33337 3.66669C5.33337 4.22002 5.78004 4.66669 6.33337 4.66669H25.6667C26.22 4.66669 26.6667 4.22002 26.6667 3.66669C26.6667 3.11335 26.22 2.66669 25.6667 2.66669Z" fill="#222343"/>
<path d="M25.6667 27.3334H6.33337C5.78004 27.3334 5.33337 27.78 5.33337 28.3334C5.33337 28.8867 5.78004 29.3334 6.33337 29.3334H25.6667C26.22 29.3334 26.6667 28.8867 26.6667 28.3334C26.6667 27.78 26.22 27.3334 25.6667 27.3334Z" fill="#222343"/>
<path d="M8.60004 21.2534C8.19337 22.3134 7.98004 23.4267 7.98004 24.56V27.3334H9.98004V24.56C9.98004 23.6734 10.1467 22.8 10.4667 21.9734C11.1134 20.3067 12.3467 18.9467 13.9467 18.14L16 17.1134L18.0534 18.14C19.6534 18.94 20.8934 20.3 21.5334 21.9734C21.8534 22.8 22.0134 23.6734 22.0134 24.56V27.3334H24.0134V24.56C24.0134 23.4267 23.8067 22.3134 23.3934 21.2534C22.5667 19.12 20.9867 17.38 18.94 16.3534L18.2267 15.9934L18.8534 15.68C20.9534 14.6267 22.5734 12.8334 23.4067 10.6334C23.8067 9.57335 24.0067 8.46669 24.0067 7.33335V4.66002H22.0067V7.33335C22.0067 8.22002 21.8467 9.09335 21.5334 9.92669C20.88 11.6534 19.6134 13.06 17.96 13.8867L15.9934 14.8734L14.0267 13.8867C12.3734 13.06 11.1067 11.6534 10.4534 9.92669C10.14 9.09335 9.98004 8.22002 9.98004 7.33335V4.66002H7.98004V7.33335C7.98004 8.46669 8.18004 9.57335 8.58004 10.6334C9.41337 12.8334 11.0267 14.6267 13.1334 15.6734L13.76 15.9867L13.0467 16.3467C11 17.3734 9.42004 19.1067 8.59337 21.2467L8.60004 21.2534Z" fill="#222343"/>
<path d="M16 21.0134C16.5523 21.0134 17 20.5656 17 20.0134C17 19.4611 16.5523 19.0134 16 19.0134C15.4478 19.0134 15 19.4611 15 20.0134C15 20.5656 15.4478 21.0134 16 21.0134Z" fill="#222343"/>
<path d="M14.48 13L16 13.76L17.52 13C18.9467 12.2867 20.0467 11.0734 20.6067 9.58002C20.8 9.06669 20.9267 8.54002 20.9734 8.00002H11.0267C11.0734 8.54002 11.2 9.06669 11.3934 9.58002C11.96 11.0734 13.0534 12.2867 14.48 13Z" fill="#222343"/>
<path d="M11.04 26.48H20.9667C20.24 24.44 18.2934 22.98 16.0067 22.98C13.72 22.98 11.7734 24.4334 11.0467 26.48H11.04Z" fill="#222343"/>
</svg>
