<svg width="32" height="32" viewBox="0 0 32 32" fill="none" xmlns="http://www.w3.org/2000/svg">
<path d="M27.8467 22.1L26.62 18.5933C26.4333 18.06 25.9267 17.7 25.36 17.7H18.5733C18 17.7 17.4867 18.0666 17.3067 18.6133L16.1333 22.1266C16.04 22.4 15.9933 22.68 15.9933 22.9666V27.36C15.9933 27.7266 16.2933 28.0266 16.66 28.0266H17.3267C17.6933 28.0266 17.9933 27.7266 17.9933 27.36V26.74H25.9933V27.36C25.9933 27.7266 26.2933 28.0266 26.66 28.0266H27.3267C27.6933 28.0266 27.9933 27.7266 27.9933 27.36V22.98C27.9933 22.68 27.94 22.38 27.8467 22.1ZM19.0533 19.7H24.8867L25.5467 21.58H18.4267L19.0533 19.7ZM19.3667 25.16C18.8133 25.16 18.3667 24.7133 18.3667 24.16C18.3667 23.6066 18.8133 23.16 19.3667 23.16C19.92 23.16 20.3667 23.6066 20.3667 24.16C20.3667 24.7133 19.92 25.16 19.3667 25.16ZM24.6667 25.16C24.1133 25.16 23.6667 24.7133 23.6667 24.16C23.6667 23.6066 24.1133 23.16 24.6667 23.16C25.22 23.16 25.6667 23.6066 25.6667 24.16C25.6667 24.7133 25.22 25.16 24.6667 25.16Z" fill="#222343"/>
<path d="M14.8733 21.7066L16.0467 18.1933C16.4067 17.1066 17.4267 16.3666 18.58 16.3666H25.3667C25.8333 16.3666 26.6733 16.3666 26.6733 16.3666V12.66C26.6733 12.2266 26.46 11.82 26.1067 11.5733L16.1 4.51331C15.64 4.18664 15.02 4.18664 14.56 4.51331L4.56667 11.5666C4.21333 11.8133 4 12.22 4 12.6533V25.36H6.66667V16.0266H12V25.36H14.6667V22.9666C14.6667 22.54 14.7333 22.1066 14.8733 21.7V21.7066Z" fill="#222343"/>
</svg>
