<svg width="32" height="32" viewBox="0 0 32 32" fill="none" xmlns="http://www.w3.org/2000/svg">
<path d="M28.4799 27.2466C27.9733 27.1799 27.6866 26.9733 27.2866 26.6866C26.6933 26.2599 25.9533 25.7266 24.5599 25.7266C23.1666 25.7266 22.4266 26.2599 21.8333 26.6866C21.3466 27.0399 21.0266 27.2666 20.2733 27.2666C19.5199 27.2666 19.1999 27.0333 18.7133 26.6866C18.1199 26.2599 17.3799 25.7266 15.9866 25.7266C14.5933 25.7266 13.8533 26.2599 13.2599 26.6866C12.7733 27.0399 12.4533 27.2666 11.7066 27.2666C10.9599 27.2666 10.6399 27.0333 10.1466 26.6866C9.55327 26.2599 8.81327 25.7266 7.41993 25.7266C6.0266 25.7266 5.2866 26.2599 4.69327 26.6866C4.29993 26.9733 4.01327 27.1799 3.51993 27.2466C2.97327 27.3199 2.59327 27.8266 2.6666 28.3733C2.73993 28.9199 3.2466 29.2933 3.79327 29.2266C4.77993 29.0933 5.37993 28.6599 5.85993 28.3066C6.3466 27.9533 6.6666 27.7266 7.41327 27.7266C8.15993 27.7266 8.4866 27.9599 8.97327 28.3066C9.5666 28.7333 10.3066 29.2666 11.6999 29.2666C13.0933 29.2666 13.8333 28.7333 14.4266 28.3066C14.9133 27.9533 15.2333 27.7266 15.9799 27.7266C16.7266 27.7266 17.0533 27.9599 17.5399 28.3066C18.1333 28.7333 18.8733 29.2666 20.2666 29.2666C21.6599 29.2666 22.3999 28.7333 22.9933 28.3066C23.4799 27.9533 23.7999 27.7266 24.5533 27.7266C25.3066 27.7266 25.6266 27.9599 26.1133 28.3066C26.5999 28.6533 27.2066 29.0933 28.2066 29.2266C28.7533 29.2999 29.2599 28.9133 29.3266 28.3666C29.3933 27.8199 29.0133 27.3133 28.4666 27.2466H28.4799Z" fill="currentColor"/>
<path d="M3.79327 22.9599C4.77993 22.8266 5.37993 22.3933 5.8666 22.0399C6.35327 21.6866 6.67327 21.4599 7.41993 21.4599C8.1666 21.4599 8.4866 21.6933 8.97327 22.0399C9.5666 22.4666 10.3066 22.9999 11.6999 22.9999C13.0933 22.9999 13.8333 22.4666 14.4266 22.0399C14.9133 21.6866 15.2333 21.4599 15.9799 21.4599C16.7266 21.4599 17.0533 21.6933 17.5399 22.0399C18.1333 22.4666 18.8733 22.9999 20.2666 22.9999C21.6599 22.9999 22.3999 22.4666 22.9933 22.0399C23.4799 21.6866 23.7999 21.4599 24.5533 21.4599C25.3066 21.4599 25.6266 21.6933 26.1133 22.0399C26.5999 22.3866 27.2066 22.8266 28.2133 22.9599C28.7599 23.0333 29.2599 22.6466 29.3333 22.0999C29.4066 21.5533 29.0199 21.0533 28.4733 20.9799C27.9733 20.9133 27.6799 20.7066 27.2799 20.4199C27.2133 20.3733 27.1466 20.3266 27.0733 20.2733L24.0599 9.03327L26.1933 9.83327C26.4399 9.94661 26.6866 9.93994 26.9399 9.81327C27.1933 9.69327 27.3799 9.50661 27.4933 9.25994C27.6066 8.99327 27.6066 8.73994 27.4933 8.49327C27.3799 8.2466 27.1933 8.07327 26.9266 7.95994L14.3933 3.19327C13.9933 3.03994 13.5799 3.01327 13.1599 3.12661C12.7399 3.23994 12.3933 3.45994 12.1266 3.79327L3.65993 14.1933C3.47993 14.4133 3.4066 14.6666 3.43993 14.9399C3.47327 15.2199 3.59993 15.4466 3.8266 15.6199C4.0466 15.7999 4.29327 15.8733 4.55993 15.8533C4.8266 15.8333 5.0466 15.7066 5.2266 15.4866L6.65993 13.6866L8.2666 19.5266C8.01327 19.4799 7.7266 19.4466 7.41327 19.4466C6.01993 19.4466 5.27993 19.9799 4.6866 20.4066C4.29327 20.6933 4.0066 20.8999 3.51327 20.9666C2.9666 21.0399 2.5866 21.5466 2.65993 22.0933C2.73327 22.6399 3.23993 23.0133 3.7866 22.9466L3.79327 22.9599ZM14.1466 15.2866C14.2266 15.1666 14.3333 15.0799 14.4666 15.0333L17.9999 14.0999C18.1333 14.0533 18.2599 14.0733 18.3866 14.1533C18.5066 14.2333 18.5933 14.3399 18.6399 14.4666L20.3399 20.9999C20.3399 20.9999 20.2999 20.9999 20.2733 20.9999C19.5266 20.9999 19.1999 20.7666 18.7133 20.4199C18.1199 19.9933 17.3799 19.4599 15.9866 19.4599C15.6799 19.4599 15.4066 19.4866 15.1599 19.5333L14.1066 15.6666C14.0599 15.5333 14.0799 15.4066 14.1533 15.2866H14.1466Z" fill="currentColor"/>
</svg>
