<svg width="32" height="32" viewBox="0 0 32 32" fill="none" xmlns="http://www.w3.org/2000/svg">
<path d="M6 28C5.46667 28 5 27.8 4.6 27.4C4.2 27 4 26.5333 4 26V6C4 5.46667 4.2 5 4.6 4.6C5 4.2 5.46667 4 6 4H26C26.5333 4 27 4.2 27.4 4.6C27.8 5 28 5.46667 28 6V26C28 26.5333 27.8 27 27.4 27.4C27 27.8 26.5333 28 26 28H6ZM8.86667 22.7667H23.1667C23.3667 22.7667 23.5133 22.68 23.6 22.5C23.6867 22.32 23.68 22.1467 23.5667 21.9667L19.6667 16.7667C19.5533 16.6333 19.42 16.5667 19.2667 16.5667C19.1133 16.5667 18.98 16.6333 18.8667 16.7667L14.8667 21.9333L12.1667 18.2333C12.0533 18.1 11.92 18.0333 11.7667 18.0333C11.6133 18.0333 11.48 18.1 11.3667 18.2333L8.5 21.9667C8.36667 22.1467 8.34667 22.32 8.43333 22.5C8.52 22.68 8.66667 22.7667 8.86667 22.7667Z" fill="#222343"/>
</svg>
