<svg width="32" height="32" viewBox="0 0 32 32" fill="none" xmlns="http://www.w3.org/2000/svg">
<path d="M17.0666 23.6667C18.18 23.1133 19.2666 22.6933 20.3333 22.4133C21.4 22.1333 22.5333 22 23.7333 22C24.58 22 25.4533 22.0667 26.3466 22.2C27.2466 22.3333 28.02 22.5133 28.66 22.7333V8.43333C27.9066 8.05333 27.1066 7.77999 26.26 7.59999C25.4133 7.41999 24.5733 7.33333 23.7266 7.33333C22.5266 7.33333 21.3666 7.51999 20.24 7.87999C19.12 8.24666 18.06 8.75999 17.06 9.42666V23.66L17.0666 23.6667ZM16.0666 26.3C15.8866 26.3 15.7266 26.28 15.58 26.2467C15.4333 26.2133 15.3066 26.1533 15.1933 26.06C14.1466 25.4133 13.04 24.9133 11.86 24.56C10.68 24.2067 9.47998 24.0267 8.25998 24.0267C7.43998 24.0267 6.63998 24.1267 5.85998 24.3267C5.07998 24.5267 4.30665 24.7733 3.52665 25.06C3.01331 25.3067 2.51998 25.2733 2.04665 24.96C1.56665 24.6467 1.33331 24.2067 1.33331 23.6267V8.19999C1.33331 7.86666 1.41331 7.55999 1.56665 7.27999C1.71998 6.99999 1.95331 6.78666 2.26665 6.62666C3.19998 6.17999 4.17331 5.85333 5.18665 5.63999C6.19998 5.42666 7.22665 5.32666 8.26665 5.32666C9.66665 5.32666 11.0266 5.51333 12.3466 5.89333C13.6666 6.27333 14.9066 6.84666 16.06 7.62666C17.1933 6.84666 18.4066 6.27333 19.7133 5.89333C21.02 5.51333 22.3533 5.32666 23.7266 5.32666C24.7733 5.32666 25.7933 5.43333 26.7933 5.64666C27.7933 5.85999 28.76 6.18666 29.6933 6.63333C30.0066 6.78666 30.2466 7.00666 30.4133 7.28666C30.58 7.56666 30.6666 7.86666 30.6666 8.19999V23.6333C30.6666 24.2533 30.4133 24.7267 29.92 25.0467C29.42 25.3667 28.9266 25.3733 28.44 25.0667C27.6866 24.7533 26.92 24.5067 26.14 24.32C25.36 24.1333 24.56 24.04 23.74 24.04C22.54 24.04 21.36 24.22 20.2066 24.5733C19.0533 24.9267 17.96 25.4267 16.94 26.0733C16.8266 26.16 16.7 26.22 16.5533 26.26C16.4066 26.2933 16.2466 26.3133 16.0666 26.3067V26.3Z" fill="#222343"/>
</svg>
