<svg width="32" height="32" viewBox="0 0 32 32" fill="none" xmlns="http://www.w3.org/2000/svg">
<path d="M16 9.33342C15.6866 9.33342 15.4266 9.44008 15.2133 9.64675C15 9.85342 14.8933 10.1201 14.8933 10.4334C14.8933 10.7467 15 11.0067 15.2066 11.2201C15.4133 11.4334 15.68 11.5401 15.9933 11.5401C16.3066 11.5401 16.5666 11.4334 16.78 11.2267C16.9933 11.0201 17.1 10.7534 17.1 10.4401C17.1 10.1267 16.9933 9.86675 16.7866 9.65341C16.58 9.44008 16.3133 9.33342 16 9.33342ZM15.8933 14.4334C15.6066 14.4334 15.3733 14.5267 15.18 14.7201C14.9933 14.9134 14.9 15.1467 14.9 15.4334V21.8667C14.9 22.1534 14.9933 22.3867 15.1866 22.5801C15.38 22.7734 15.62 22.8667 15.9066 22.8667C16.1933 22.8667 16.4266 22.7734 16.62 22.5801C16.8066 22.3867 16.9066 22.1534 16.9066 21.8667V15.4334C16.9066 15.1467 16.8133 14.9134 16.62 14.7201C16.4266 14.5267 16.1866 14.4334 15.9 14.4334H15.8933ZM15.9933 2.66675C17.8333 2.66675 19.56 3.02008 21.18 3.72008C22.8 4.42008 24.2133 5.37341 25.42 6.58675C26.6266 7.80008 27.5866 9.21341 28.2866 10.8334C28.9866 12.4534 29.34 14.1801 29.34 16.0201C29.34 17.8601 28.9866 19.5934 28.2866 21.2067C27.5866 22.8201 26.6333 24.2334 25.42 25.4334C24.2066 26.6334 22.7933 27.5867 21.1733 28.2867C19.5533 28.9867 17.8266 29.3401 15.9866 29.3401C14.1466 29.3401 12.4133 28.9867 10.8 28.2867C9.17996 27.5867 7.77329 26.6334 6.57329 25.4334C5.37329 24.2334 4.41996 22.8201 3.71996 21.2001C3.01996 19.5801 2.66663 17.8467 2.66663 16.0067C2.66663 14.1667 3.01996 12.4401 3.71996 10.8201C4.41996 9.20008 5.37329 7.79342 6.57329 6.58675C7.77329 5.38008 9.18663 4.42675 10.8066 3.72008C12.4266 3.01341 14.16 2.66675 16 2.66675H15.9933Z" fill="#222343"/>
</svg>
