<svg width="32" height="32" viewBox="0 0 32 32" fill="none" xmlns="http://www.w3.org/2000/svg">
<path d="M16.1019 22.8741C16.4443 22.8741 16.7309 22.7584 16.9616 22.5271C17.192 22.2955 17.3072 22.0088 17.3072 21.6668V15.8741C17.3072 15.5321 17.1913 15.2453 16.9596 15.0138C16.7278 14.7824 16.4406 14.6668 16.0979 14.6668C15.7554 14.6668 15.4689 14.7824 15.2382 15.0138C15.0078 15.2453 14.8926 15.5321 14.8926 15.8741V21.6668C14.8926 22.0088 15.0084 22.2955 15.2402 22.5271C15.472 22.7584 15.7592 22.8741 16.1019 22.8741ZM16.0009 12.4828C16.3929 12.4828 16.7212 12.3534 16.9859 12.0948C17.2503 11.8361 17.3826 11.5156 17.3826 11.1334C17.3826 10.7181 17.2501 10.3783 16.9852 10.1141C16.7203 9.84965 16.3921 9.71743 16.0006 9.71743C15.5948 9.71743 15.2628 9.84965 15.0046 10.1141C14.7463 10.3783 14.6172 10.715 14.6172 11.1241C14.6172 11.5141 14.7499 11.8381 15.0152 12.0961C15.2803 12.3539 15.6089 12.4828 16.0009 12.4828ZM16.0112 29.8044C14.0957 29.8044 12.3012 29.4445 10.6279 28.7248C8.95456 28.0048 7.49078 27.0176 6.23656 25.7634C4.98233 24.5092 3.99522 23.0455 3.27522 21.3724C2.55545 19.6991 2.19556 17.9036 2.19556 15.9861C2.19556 14.0685 2.55545 12.2722 3.27522 10.5971C3.99522 8.9222 4.98133 7.46287 6.23356 6.21909C7.48578 4.97531 8.949 3.99065 10.6232 3.26509C12.2974 2.53954 14.0938 2.17676 16.0122 2.17676C17.9309 2.17676 19.7284 2.53909 21.4049 3.26376C23.0816 3.9882 24.5412 4.97154 25.7839 6.21376C27.0268 7.45576 28.0107 8.91631 28.7356 10.5954C29.4607 12.2745 29.8232 14.0731 29.8232 15.9911C29.8232 17.9086 29.4604 19.704 28.7349 21.3771C28.0093 23.0502 27.0247 24.5111 25.7809 25.7598C24.5371 27.0082 23.0769 27.9944 21.4002 28.7184C19.7233 29.4424 17.927 29.8044 16.0112 29.8044Z" fill="currentColor"/>
</svg>
