<svg width="32" height="32" viewBox="0 0 32 32" fill="none" xmlns="http://www.w3.org/2000/svg">
<path fill-rule="evenodd" clip-rule="evenodd" d="M22.7733 12.6201C22.7333 11.8067 22.6 11.3667 22.4867 11.0734C22.3333 10.6867 22.1533 10.4067 21.86 10.1134C21.5667 9.82006 21.2933 9.64006 20.9 9.49339C20.6067 9.38006 20.1667 9.24672 19.3533 9.20672C18.4733 9.16672 18.2133 9.16006 15.9867 9.16672C13.76 9.16672 13.5 9.18006 12.62 9.22006C11.8067 9.26006 11.3667 9.39339 11.0733 9.50672C10.6867 9.66006 10.4067 9.84005 10.1133 10.1334C9.81999 10.4267 9.63999 10.7001 9.49333 11.0934C9.37999 11.3867 9.24666 11.8267 9.20666 12.6401C9.16666 13.5201 9.15999 13.7801 9.16666 16.0067C9.16666 18.2334 9.17999 18.4934 9.21999 19.3734C9.25999 20.1867 9.39333 20.6267 9.50666 20.9201C9.65999 21.3067 9.83999 21.5867 10.1333 21.8801C10.4267 22.1734 10.7067 22.3534 11.0933 22.5001C11.3867 22.6134 11.8267 22.7467 12.64 22.7867C13.52 22.8267 13.78 22.8334 16.0067 22.8267C18.2333 22.8267 18.4933 22.8134 19.3733 22.7734C20.1867 22.7334 20.6267 22.6001 20.92 22.4867C21.3067 22.3334 21.5867 22.1534 21.88 21.8601C22.1733 21.5667 22.3533 21.2867 22.5 20.9001C22.6133 20.6067 22.7467 20.1667 22.7867 19.3534C22.8267 18.4734 22.8333 18.2134 22.8267 15.9867C22.8267 13.7601 22.8133 13.5001 22.7733 12.6201ZM16.0067 20.2801C13.6467 20.2801 11.7267 18.3734 11.72 16.0067C11.72 13.6467 13.6267 11.7267 15.9933 11.7201C18.3533 11.7201 20.2733 13.6267 20.28 15.9934C20.28 18.3534 18.3733 20.2734 16.0067 20.2801ZM20.44 12.5467C19.8867 12.5467 19.44 12.1001 19.44 11.5467C19.44 10.9934 19.8867 10.5467 20.44 10.5467C20.9933 10.5467 21.44 10.9934 21.44 11.5467C21.44 12.1001 20.9933 12.5467 20.44 12.5467Z" fill="#222343"/>
<path d="M15.9934 13.22C14.46 13.22 13.22 14.4666 13.22 16C13.22 17.5333 14.4667 18.7733 16 18.7733C17.5334 18.7733 18.7734 17.5266 18.7734 15.9933C18.7734 14.46 17.5267 13.22 15.9934 13.22Z" fill="#222343"/>
<path d="M16 2.66663C8.63335 2.66663 2.66669 8.63329 2.66669 16C2.66669 23.3666 8.63335 29.3333 16 29.3333C23.3667 29.3333 29.3334 23.3666 29.3334 16C29.3334 8.63329 23.3667 2.66663 16 2.66663ZM24.2867 19.42C24.2467 20.3066 24.1067 20.9133 23.9 21.44C23.6867 21.9866 23.4067 22.4533 22.94 22.92C22.48 23.3866 22.0134 23.6666 21.4667 23.8866C20.94 24.0933 20.3334 24.2333 19.4467 24.28C18.56 24.32 18.2734 24.3333 16.0134 24.3333C13.7534 24.3333 13.4667 24.3333 12.58 24.2866C11.6934 24.2466 11.0867 24.1066 10.56 23.9C10.0134 23.6866 9.54669 23.4066 9.08002 22.94C8.61335 22.48 8.32669 22.0133 8.11335 21.4666C7.90669 20.94 7.76669 20.3333 7.72002 19.4466C7.68002 18.56 7.66669 18.2733 7.66002 16.0133C7.66002 13.7533 7.66002 13.4666 7.70669 12.58C7.74669 11.6933 7.88669 11.0866 8.09335 10.5533C8.30669 10.0066 8.58669 9.53996 9.05335 9.07329C9.51335 8.60663 9.98002 8.32663 10.5267 8.10663C11.0534 7.89996 11.66 7.75996 12.5467 7.71329C13.4334 7.67329 13.72 7.65996 15.98 7.65329C18.24 7.65329 18.5267 7.65329 19.4134 7.69996C20.3 7.73996 20.9067 7.87996 21.4334 8.08663C21.98 8.29996 22.4467 8.57996 22.9134 9.04663C23.38 9.50663 23.66 9.97329 23.88 10.52C24.0867 11.0466 24.2267 11.6533 24.2734 12.54C24.3134 13.4266 24.3267 13.7133 24.3334 15.9733C24.3334 18.2333 24.3334 18.52 24.2867 19.4066V19.42Z" fill="#222343"/>
</svg>
