<svg width="32" height="32" viewBox="0 0 32 32" fill="none" xmlns="http://www.w3.org/2000/svg">
<path d="M25.4334 24.0001L27.5 21.9001C27.68 21.7001 27.7734 21.4667 27.78 21.2001C27.7934 20.9334 27.7 20.7001 27.5 20.5001C27.3 20.3001 27.0667 20.2001 26.8 20.2001C26.5334 20.2001 26.3 20.3001 26.1 20.5001L24 22.6001L21.9 20.5001C21.7 20.3001 21.4667 20.2001 21.2 20.2001C20.9334 20.2001 20.7 20.3001 20.5 20.5001C20.3 20.7001 20.2 20.9334 20.2 21.2001C20.2 21.4667 20.3 21.7001 20.5 21.9001L22.6 24.0001L20.5 26.1001C20.3 26.3001 20.2 26.5334 20.2 26.8001C20.2 27.0667 20.3 27.3001 20.5 27.5001C20.7 27.7001 20.9334 27.7934 21.2 27.7801C21.4667 27.7667 21.7 27.6734 21.9 27.5001L24 25.4334L26.1 27.5001C26.3 27.6801 26.5334 27.7734 26.8 27.7801C27.0667 27.7867 27.3 27.7001 27.5 27.5001C27.7 27.3001 27.7934 27.0667 27.78 26.8001C27.7667 26.5334 27.6734 26.3001 27.5 26.1001L25.4334 24.0001Z" fill="#222343"/>
<path d="M17.6667 26.9334C17.22 26.0001 17 25.0134 17 23.9667C17 22.0334 17.68 20.3867 19.0334 19.0334C20.3867 17.6801 22.0334 17.0001 23.9667 17.0001C24.4334 17.0001 24.8867 17.0467 25.3334 17.1334C25.78 17.2201 26.22 17.3534 26.6667 17.5334V10.8001C26.6667 10.5334 26.6134 10.2734 26.5 10.0201C26.3867 9.76675 26.2467 9.54675 26.0667 9.36675L19.9667 3.26675C19.7867 3.08675 19.5734 2.94675 19.32 2.83341C19.0667 2.72008 18.8 2.66675 18.5334 2.66675H7.33337C6.80004 2.66675 6.33337 2.86675 5.93337 3.26675C5.53337 3.66675 5.33337 4.13341 5.33337 4.66675V27.3334C5.33337 27.8667 5.53337 28.3334 5.93337 28.7334C6.33337 29.1334 6.80004 29.3334 7.33337 29.3334H19.5C18.72 28.6667 18.1134 27.8667 17.6667 26.9334ZM18.3667 4.66675L24.6667 10.8667H20.3667C19.8134 10.8667 19.34 10.6734 18.9534 10.2801C18.5667 9.89341 18.3667 9.42008 18.3667 8.86675V4.66675ZM7.77337 5.11341C8.04004 4.85341 8.35337 4.72675 8.70671 4.72675C9.08004 4.72675 9.39337 4.85341 9.65337 5.11341C9.91337 5.37341 10.04 5.68675 10.04 6.06008C10.04 6.43341 9.91337 6.72675 9.65337 6.99341C9.39337 7.26008 9.08004 7.39341 8.70671 7.39341C8.33337 7.39341 8.04004 7.26008 7.77337 6.99341C7.50671 6.72675 7.37337 6.41341 7.37337 6.06008C7.37337 5.68675 7.50671 5.37341 7.77337 5.11341ZM14.6067 11.9334C14.3467 12.2001 14.0334 12.3334 13.66 12.3334C13.2867 12.3334 12.9934 12.2001 12.7267 11.9334C12.46 11.6667 12.3267 11.3534 12.3267 11.0001C12.3267 10.6267 12.46 10.3134 12.7267 10.0534C12.9934 9.79341 13.3067 9.66675 13.66 9.66675C14.0334 9.66675 14.3467 9.79341 14.6067 10.0534C14.8667 10.3134 14.9934 10.6267 14.9934 11.0001C14.9934 11.3734 14.8667 11.6667 14.6067 11.9334ZM14.7 6.43341L9.09337 12.0401C8.90004 12.2334 8.64004 12.3334 8.38671 12.3334C8.13337 12.3334 7.87337 12.2334 7.68004 12.0401C7.28671 11.6467 7.28671 11.0134 7.68004 10.6267L13.2867 5.02008C13.68 4.62675 14.3134 4.62675 14.7 5.02008C15.0867 5.41341 15.0934 6.04675 14.7 6.43341Z" fill="#222343"/>
</svg>
