<svg width="32" height="32" viewBox="0 0 32 32" fill="none" xmlns="http://www.w3.org/2000/svg">
<path d="M3.99996 10.6667V27.3334C3.99996 28.4401 4.89329 29.3334 5.99996 29.3334H26C27.1066 29.3334 28 28.4401 28 27.3334V10.6667H3.99996ZM19 17.9001H13C12.4466 17.9001 12 17.4534 12 16.9001C12 16.3467 12.4466 15.9001 13 15.9001H19C19.5533 15.9001 20 16.3467 20 16.9001C20 17.4534 19.5533 17.9001 19 17.9001Z" fill="#222343"/>
<path d="M27.3333 4.66675V8.66675H4.66663V4.66675H27.3333ZM27.3333 2.66675H4.66663C3.55996 2.66675 2.66663 3.56008 2.66663 4.66675V9.66675C2.66663 10.2201 3.11329 10.6667 3.66663 10.6667H28.3333C28.8866 10.6667 29.3333 10.2201 29.3333 9.66675V4.66675C29.3333 3.56008 28.44 2.66675 27.3333 2.66675Z" fill="#222343"/>
</svg>
