<svg width="32" height="32" viewBox="0 0 32 32" fill="none" xmlns="http://www.w3.org/2000/svg">
<path d="M19.358 16.6609L7.5303 4.81454C7.42897 4.71321 7.36086 4.61354 7.32597 4.51554C7.2913 4.41732 7.27397 4.30643 7.27397 4.18287C7.27397 3.93709 7.35708 3.71643 7.5233 3.52087C7.6893 3.32532 7.91975 3.22754 8.21464 3.22754H21.284C21.6553 3.22754 21.9713 3.36743 22.232 3.6472C22.4929 3.92676 22.6233 4.33376 22.6233 4.8682C22.6233 5.14754 22.515 5.36332 22.2983 5.51554C22.0819 5.66798 21.8569 5.78554 21.6233 5.8682V15.7349C21.6233 16.3231 21.3486 16.7305 20.7993 16.9572C20.25 17.1839 19.7695 17.0851 19.358 16.6609ZM14.6796 29.7799V21.8032H8.73197C8.24752 21.8032 7.85875 21.6415 7.56564 21.3182C7.27252 20.9951 7.12597 20.6291 7.12597 20.2202C7.12597 20.0535 7.16075 19.8805 7.2303 19.7012C7.29964 19.5219 7.41075 19.3495 7.56364 19.1842L10.1956 16.5769V13.7205L2.00564 5.53054C1.78052 5.30543 1.66797 5.04387 1.66797 4.74587C1.66797 4.44787 1.78052 4.19254 2.00564 3.97987C2.23075 3.75476 2.48919 3.64221 2.78097 3.64221C3.07275 3.64221 3.3313 3.75476 3.55664 3.97987L27.8203 28.2769C28.0327 28.4895 28.1422 28.7418 28.1486 29.0335C28.1549 29.3253 28.0454 29.5881 27.8203 29.8219C27.5952 30.0383 27.3367 30.1465 27.045 30.1465C26.7532 30.1465 26.4947 30.034 26.2696 29.8089L18.2636 21.8032L17.3203 21.8219V29.7799C17.3203 30.1512 17.1925 30.4641 16.937 30.7185C16.6814 30.973 16.3671 31.1002 15.994 31.1002C15.6211 31.1002 15.3089 30.973 15.0573 30.7185C14.8055 30.4641 14.6796 30.1512 14.6796 29.7799Z" fill="currentColor"/>
</svg>
