<svg width="32" height="32" viewBox="0 0 32 32" fill="none" xmlns="http://www.w3.org/2000/svg">
<path d="M19.4334 17.4333L7.26673 5.26667C7.18006 5.18 7.12006 5.1 7.10006 5.03333C7.08006 4.96667 7.06673 4.88 7.06673 4.76667C7.06673 4.57333 7.12673 4.39333 7.2534 4.23333C7.3734 4.07333 7.56007 4 7.80673 4H21.1401C21.4267 4 21.6601 4.09333 21.8534 4.28667C22.0467 4.48 22.1401 4.71333 22.1401 5C22.1401 5.26667 22.0201 5.45333 21.7801 5.56C21.5401 5.66667 21.3267 5.81333 21.1401 6V16.7333C21.1401 17.1733 20.9334 17.4733 20.5201 17.6467C20.1067 17.82 19.7467 17.7467 19.4334 17.4333ZM15.0001 29.6667V21.6333H9.0334C8.64673 21.6333 8.34006 21.5 8.1134 21.2333C7.88006 20.9667 7.76673 20.68 7.76673 20.3733C7.76673 20.22 7.80007 20.0667 7.86006 19.9133C7.92006 19.76 8.02673 19.6133 8.16673 19.4733L10.6667 17.0733V14.2733L2.5334 6.13333C2.3334 5.93333 2.2334 5.7 2.2334 5.43333C2.2334 5.16667 2.3334 4.93333 2.5334 4.73333C2.7334 4.53333 2.96673 4.43333 3.2334 4.43333C3.50007 4.43333 3.7334 4.53333 3.9334 4.73333L27.5001 28.3333C27.7001 28.5333 27.8001 28.7667 27.8001 29.0333C27.8001 29.3 27.7001 29.54 27.5001 29.7467C27.3001 29.94 27.0667 30.0333 26.8001 30.0333C26.5334 30.0333 26.3001 29.9333 26.1001 29.7333L18.0001 21.6333H17.0001V29.6667C17.0001 29.9533 16.9067 30.1867 16.7134 30.38C16.5201 30.5733 16.2801 30.6667 15.9934 30.6667C15.7067 30.6667 15.4734 30.5733 15.2801 30.38C15.0934 30.1867 14.9934 29.9533 14.9934 29.6667H15.0001Z" fill="currentColor"/>
</svg>
