<svg width="32" height="32" viewBox="0 0 32 32" fill="none" xmlns="http://www.w3.org/2000/svg">
<path d="M21.6234 5.81187V16.5769L24.0957 18.7495C24.2319 18.8858 24.3317 19.0349 24.3951 19.1969C24.4584 19.3589 24.4901 19.525 24.4901 19.6952V20.4935C24.4901 20.8631 24.3596 21.1738 24.0987 21.4255C23.8381 21.6773 23.5221 21.8032 23.1507 21.8032H17.3204V29.5569C17.3204 29.928 17.1926 30.2408 16.9371 30.4952C16.6815 30.7496 16.3672 30.8769 15.9941 30.8769C15.6212 30.8769 15.3089 30.7496 15.0574 30.4952C14.8056 30.2408 14.6797 29.928 14.6797 29.5569V21.8032H8.84939C8.47805 21.8032 8.16516 21.6764 7.91072 21.4229C7.65628 21.1693 7.52905 20.8575 7.52905 20.4875V19.6892C7.52905 19.5188 7.5575 19.3535 7.61439 19.1935C7.6715 19.0338 7.76816 18.8858 7.90439 18.7495L10.1957 16.5769V5.81187H9.52905C9.23305 5.74898 8.99239 5.60232 8.80705 5.37187C8.62172 5.14143 8.52905 4.86487 8.52905 4.54221C8.52905 4.16932 8.65628 3.85698 8.91072 3.60521C9.16516 3.35343 9.47805 3.22754 9.84939 3.22754H21.9507C22.3221 3.22754 22.6381 3.35543 22.8987 3.61121C23.1596 3.86676 23.2901 4.18098 23.2901 4.55387C23.2901 4.87654 23.1942 5.15121 23.0024 5.37787C22.8108 5.60432 22.5734 5.74898 22.2901 5.81187H21.6234Z" fill="currentColor"/>
</svg>
