<svg width="32" height="32" viewBox="0 0 32 32" fill="none" xmlns="http://www.w3.org/2000/svg">
<path d="M21.1334 5.99983V17.0665L23.7001 19.3332C23.8134 19.4465 23.8867 19.5598 23.9334 19.6865C23.9801 19.8132 24.0001 19.9398 24.0001 20.0732V20.6465C24.0001 20.9265 23.9067 21.1665 23.7134 21.3532C23.5201 21.5398 23.2867 21.6398 23.0001 21.6398H17.0001V29.5065C17.0001 29.7932 16.9067 30.0265 16.7134 30.2198C16.5201 30.4132 16.2801 30.5065 15.9934 30.5065C15.7067 30.5065 15.4734 30.4132 15.2801 30.2198C15.0934 30.0265 14.9934 29.7932 14.9934 29.5065V21.6398H8.99341C8.70674 21.6398 8.47341 21.5465 8.28008 21.3532C8.08674 21.1598 7.99341 20.9265 7.99341 20.6465V20.0732C7.99341 19.9398 8.01341 19.8132 8.06008 19.6932C8.10674 19.5732 8.18007 19.4532 8.29341 19.3398L10.6601 17.0732V5.99983H9.99341C9.70674 5.99983 9.47341 5.9065 9.28007 5.71316C9.08674 5.51983 8.99341 5.27983 8.99341 4.99316C8.99341 4.7065 9.08674 4.47316 9.28007 4.27983C9.47341 4.09316 9.70674 3.99316 9.99341 3.99316H21.7934C22.0801 3.99316 22.3134 4.0865 22.5067 4.27983C22.7001 4.47316 22.7934 4.71316 22.7934 4.99983C22.7934 5.2865 22.7001 5.51983 22.5067 5.71316C22.3134 5.89983 22.0801 5.99983 21.7934 5.99983H21.1267H21.1334Z" fill="currentColor"/>
</svg>
