<svg width="32" height="32" viewBox="0 0 32 32" fill="none" xmlns="http://www.w3.org/2000/svg">
<path d="M9.53333 20.3C10.7333 20.3 11.7533 19.8867 12.5867 19.0467C13.42 18.2133 13.84 17.2 13.84 15.9933C13.84 14.7867 13.4267 13.7733 12.5867 12.94C11.7467 12.1067 10.7333 11.6867 9.53333 11.6867C8.33333 11.6867 7.31999 12.1 6.48666 12.94C5.65332 13.78 5.23999 14.7867 5.23333 15.9933C5.23333 17.1933 5.64666 18.2133 6.48666 19.0467C7.31999 19.88 8.33333 20.3 9.53333 20.3ZM9.53333 24C7.31333 24 5.41999 23.22 3.86666 21.6667C2.31333 20.1133 1.53333 18.22 1.53333 16C1.53333 13.78 2.31333 11.8867 3.86666 10.3333C5.41999 8.78 7.31333 8 9.53333 8C11.42 8 13.0067 8.52 14.28 9.54667C15.56 10.58 16.4533 11.9 16.96 13.5H28.0267C28.16 13.5 28.28 13.52 28.3933 13.5667C28.5067 13.6133 28.6133 13.6867 28.7267 13.8L30.16 15.2333C30.2733 15.3467 30.3467 15.4533 30.3933 15.5667C30.44 15.68 30.46 15.8 30.46 15.9333C30.46 16.0667 30.44 16.1867 30.3933 16.3C30.3467 16.4133 30.2733 16.52 30.16 16.6333L26.6933 20.1C26.58 20.2133 26.4733 20.2867 26.36 20.3333C26.2467 20.38 26.1267 20.4 25.9933 20.4C25.86 20.4 25.74 20.38 25.6267 20.3333C25.5133 20.2867 25.4067 20.2133 25.2933 20.1L23.1933 18L21.0933 20.1C20.98 20.2133 20.8733 20.2867 20.76 20.3333C20.6467 20.38 20.5267 20.4 20.3933 20.4C20.26 20.4 20.14 20.38 20.0267 20.3333C19.9133 20.2867 19.8067 20.2133 19.6933 20.1L18.0267 18.4333H16.96C16.54 20.1 15.64 21.4467 14.28 22.4667C12.92 23.4867 11.3333 24 9.52666 24H9.53333Z" fill="#222343"/>
</svg>
