<svg width="32" height="32" viewBox="0 0 32 32" fill="none" xmlns="http://www.w3.org/2000/svg">
<path d="M6 25.3332C5.44667 25.3332 4.97333 25.1398 4.58667 24.7465C4.2 24.3532 4 23.8865 4 23.3332V8.6665C4 8.11317 4.19333 7.63984 4.58667 7.25317C4.98 6.8665 5.44667 6.6665 6 6.6665H20C20.4867 6.6665 20.9333 6.79317 21.3333 7.0465C21.7333 7.29984 22.08 7.63317 22.3667 8.03317L27.2 14.8332C27.4467 15.1865 27.5667 15.5798 27.5667 15.9998C27.5667 16.4198 27.4467 16.8132 27.2 17.1665L22.3667 23.9665C22.08 24.3665 21.7333 24.6932 21.3333 24.9465C20.9333 25.1998 20.4867 25.3332 20 25.3332H6Z" fill="#222343"/>
</svg>
