<svg width="32" height="32" viewBox="0 0 32 32" fill="none" xmlns="http://www.w3.org/2000/svg">
<path d="M27.4467 5.33325H4.55333C3.50667 5.33325 2.66667 6.17992 2.66667 7.21992V21.9999H29.3333V7.21992C29.3333 6.17325 28.4867 5.33325 27.4467 5.33325ZM19.9933 14.3599C19.8 14.5399 19.5667 14.6399 19.3 14.6533L17.02 14.6799L16.9933 16.9599C16.98 17.2266 16.88 17.4599 16.7 17.6533C16.52 17.8466 16.2867 17.9466 16.0067 17.9466C15.7267 17.9466 15.4933 17.8466 15.3133 17.6533C15.1333 17.4599 15.0333 17.2266 15.02 16.9599L14.9933 14.6799L12.7133 14.6533C12.4467 14.6399 12.2133 14.5399 12.02 14.3599C11.8267 14.1799 11.7267 13.9466 11.7267 13.6666C11.7267 13.3866 11.82 13.1466 12.0067 12.9599C12.1933 12.7733 12.4333 12.6799 12.7133 12.6799H15.0133V10.3799C15.0133 10.0999 15.1067 9.85992 15.2933 9.67325C15.48 9.48659 15.72 9.39325 16 9.39325C16.28 9.39325 16.52 9.48659 16.7067 9.67325C16.8933 9.85992 16.9867 10.0999 16.9867 10.3799V12.6799H19.2867C19.5667 12.6799 19.8067 12.7733 19.9933 12.9599C20.18 13.1466 20.2733 13.3866 20.2733 13.6666C20.2733 13.9466 20.1733 14.1799 19.98 14.3599H19.9933Z" fill="#222343"/>
<path d="M0 23.9999H32V24.6666C32 25.7733 31.1067 26.6666 30 26.6666H2C0.893333 26.6666 0 25.7733 0 24.6666V23.9999Z" fill="#222343"/>
</svg>
