<svg width="32" height="32" viewBox="0 0 32 32" fill="none" xmlns="http://www.w3.org/2000/svg">
<g clip-path="url(#clip0_4093_312)">
<path d="M29.3333 7.21998C29.3333 6.17331 28.4866 5.33331 27.4466 5.33331H4.5533C3.50663 5.33331 2.66663 6.17998 2.66663 7.21998V22H29.3333V7.21998ZM12 19.9933H7.99996V15.66C7.99996 15.1066 8.44663 14.66 8.99996 14.66H11C11.5533 14.66 12 15.1066 12 15.66V19.9933ZM18 19.9933H14V12.9933C14 12.44 14.4466 11.9933 15 11.9933H17C17.5533 11.9933 18 12.44 18 12.9933V19.9933ZM24 19.9933H20V10.3266C20 9.77331 20.4466 9.32665 21 9.32665H23C23.5533 9.32665 24 9.77331 24 10.3266V19.9933Z" fill="#222343"/>
<path d="M0.0466309 24V24.6666C0.0466309 25.7733 0.939964 26.6666 2.04663 26.6666H30.0466C31.1533 26.6666 32.0466 25.7733 32.0466 24.6666V24H0.0466309Z" fill="#222343"/>
</g>
<defs>
<clipPath id="clip0_4093_312">
<rect width="32" height="32" fill="white"/>
</clipPath>
</defs>
</svg>
