<svg width="32" height="32" viewBox="0 0 32 32" fill="none" xmlns="http://www.w3.org/2000/svg">
<path d="M6.16666 28.4667C5.45555 28.4667 4.83888 28.2056 4.31666 27.6833C3.79444 27.1611 3.53333 26.5444 3.53333 25.8333V6.16667C3.53333 5.43333 3.79444 4.80556 4.31666 4.28333C4.83888 3.76111 5.45555 3.5 6.16666 3.5H13.9667C14.3444 3.5 14.6611 3.63333 14.9167 3.9C15.1722 4.16667 15.3 4.48889 15.3 4.86667C15.3 5.22222 15.1722 5.52778 14.9167 5.78333C14.6611 6.03889 14.3444 6.16667 13.9667 6.16667H6.16666V25.8333H25.8333V18.0333C25.8333 17.6556 25.9611 17.3389 26.2167 17.0833C26.4722 16.8278 26.7889 16.7 27.1667 16.7C27.5222 16.7 27.8333 16.8278 28.1 17.0833C28.3667 17.3389 28.5 17.6556 28.5 18.0333V25.8333C28.5 26.5444 28.2389 27.1611 27.7167 27.6833C27.1944 28.2056 26.5667 28.4667 25.8333 28.4667H6.16666ZM12.2333 19.7333C11.9889 19.4889 11.8611 19.1889 11.85 18.8333C11.8389 18.4778 11.9667 18.1667 12.2333 17.9L24 6.16667H18.6333C18.2555 6.16667 17.9389 6.03889 17.6833 5.78333C17.4278 5.52778 17.3 5.21111 17.3 4.83333C17.3 4.47778 17.4278 4.16667 17.6833 3.9C17.9389 3.63333 18.2555 3.5 18.6333 3.5H27.1667C27.5222 3.5 27.8333 3.63333 28.1 3.9C28.3667 4.16667 28.5 4.47778 28.5 4.83333V13.3667C28.5 13.7444 28.3667 14.0611 28.1 14.3167C27.8333 14.5722 27.5111 14.7 27.1333 14.7C26.7778 14.7 26.4722 14.5722 26.2167 14.3167C25.9611 14.0611 25.8333 13.7444 25.8333 13.3667V8.03333L14.1 19.8C13.8555 20.0444 13.55 20.1611 13.1833 20.15C12.8167 20.1389 12.5 20 12.2333 19.7333Z" fill="#222343"/>
</svg>
