<svg width="32" height="32" viewBox="0 0 32 32" fill="none" xmlns="http://www.w3.org/2000/svg">
<path d="M19.6666 5.33325C19.1133 5.33325 18.6666 5.77992 18.6666 6.33325C18.6666 6.88659 19.1133 7.33325 19.6666 7.33325H23.2533L11.2933 19.2933C10.9 19.6866 10.9 20.3199 11.2933 20.7066C11.4866 20.8999 11.7466 20.9999 12 20.9999C12.2533 20.9999 12.5133 20.8999 12.7066 20.7066L24.6666 8.74659V12.3333C24.6666 12.8866 25.1133 13.3333 25.6666 13.3333C26.22 13.3333 26.6666 12.8866 26.6666 12.3333V5.33325H19.6666Z" fill="#222343"/>
<path d="M25.6666 15.3333C25.1133 15.3333 24.6666 15.78 24.6666 16.3333V24.6666H7.33331V7.33329H15.6666C16.22 7.33329 16.6666 6.88663 16.6666 6.33329C16.6666 5.77996 16.22 5.33329 15.6666 5.33329H7.33331C6.22665 5.33329 5.33331 6.22663 5.33331 7.33329V24.6666C5.33331 25.7733 6.22665 26.6666 7.33331 26.6666H24.6666C25.7733 26.6666 26.6666 25.7733 26.6666 24.6666V16.3333C26.6666 15.78 26.22 15.3333 25.6666 15.3333Z" fill="#222343"/>
</svg>
