<svg width="32" height="32" viewBox="0 0 32 32" fill="none" xmlns="http://www.w3.org/2000/svg">
<path d="M3.66663 28C3.37996 28 3.13996 27.9067 2.95329 27.72C2.76663 27.5333 2.66663 27.2933 2.66663 27V13C2.66663 12.7133 2.75996 12.4733 2.95329 12.28C3.13996 12.0933 3.37996 12 3.66663 12H8.33329C8.61996 12 8.85996 12.0933 9.04663 12.28C9.23329 12.4667 9.33329 12.7067 9.33329 13V27C9.33329 27.2867 9.23996 27.5267 9.04663 27.72C8.85996 27.9067 8.61996 28 8.33329 28H3.66663ZM13.6666 28C13.38 28 13.14 27.9067 12.9466 27.72C12.76 27.5333 12.6666 27.2933 12.6666 27V5C12.6666 4.71333 12.76 4.47333 12.9466 4.28667C13.1333 4.1 13.3733 4 13.6666 4H18.3333C18.62 4 18.86 4.09333 19.0533 4.28667C19.24 4.47333 19.3333 4.71333 19.3333 5V27C19.3333 27.2867 19.24 27.5267 19.0533 27.72C18.8666 27.9067 18.6266 28 18.3333 28H13.6666ZM23.6666 28C23.38 28 23.14 27.9067 22.9466 27.72C22.7533 27.5333 22.6666 27.2933 22.6666 27V15.6667C22.6666 15.38 22.76 15.14 22.9466 14.9467C23.1333 14.76 23.3733 14.6667 23.6666 14.6667H28.3333C28.62 14.6667 28.86 14.76 29.0533 14.9467C29.24 15.1333 29.3333 15.3733 29.3333 15.6667V27C29.3333 27.2867 29.24 27.5267 29.0533 27.72C28.8666 27.9133 28.6266 28 28.3333 28H23.6666Z" fill="#222343"/>
</svg>
