<svg width="32" height="32" viewBox="0 0 32 32" fill="none" xmlns="http://www.w3.org/2000/svg">
<path d="M16 29.6132C15.2467 29.6132 14.6067 29.3532 14.08 28.8332C13.5533 28.3132 13.3 27.6732 13.3 26.9199H18.7C18.7 27.6732 18.44 28.3132 17.92 28.8332C17.4 29.3532 16.76 29.6132 16 29.6132V29.6132ZM10.6 23.8465C10.6 23.2932 11.0467 22.8465 11.6 22.8465H20.4C20.9533 22.8465 21.4 23.2932 21.4 23.8465C21.4 24.3999 20.9533 24.8465 20.4 24.8465H11.6C11.0467 24.8465 10.6 24.3999 10.6 23.8465V23.8465ZM10.7667 20.8132C9.3 19.8599 8.14 18.6599 7.28 17.2265C6.42667 15.7932 6 14.1799 6 12.3799C6 9.66655 6.98667 7.32655 8.96667 5.34655C10.9467 3.36655 13.2867 2.37988 16 2.37988C18.7133 2.37988 21.0533 3.36655 23.0333 5.34655C25.0133 7.32655 26 9.66655 26 12.3799C26 14.1799 25.58 15.7932 24.7333 17.2265C23.8867 18.6599 22.72 19.8532 21.2333 20.8132H10.7667V20.8132Z" fill="currentColor"/>
</svg>
