<svg width="32" height="32" viewBox="0 0 32 32" fill="none" xmlns="http://www.w3.org/2000/svg">
<path d="M16 2.66663C8.63335 2.66663 2.66669 8.63329 2.66669 16C2.66669 23.3666 8.63335 29.3333 16 29.3333C23.3667 29.3333 29.3334 23.3666 29.3334 16C29.3334 8.63329 23.3667 2.66663 16 2.66663ZM11.86 22.82H8.74669V12.82H11.86V22.82ZM10.3067 11.4533C9.30669 11.4533 8.50002 10.6466 8.50002 9.65329C8.50002 8.65996 9.30669 7.85329 10.3067 7.85329C11.3067 7.85329 12.1067 8.65996 12.1067 9.65329C12.1067 10.6466 11.3 11.4533 10.3067 11.4533ZM20.3934 22.82V17.96C20.3934 16.8 20.3734 15.3066 18.78 15.3066C17.1867 15.3066 16.9134 16.5733 16.9134 17.8733V22.82H13.8067V12.82H16.7867V14.1866H16.8267C17.24 13.4 18.2534 12.5733 19.7667 12.5733C22.9134 12.5733 23.4934 14.64 23.4934 17.34V22.8266H20.3867L20.3934 22.82Z" fill="#222343"/>
</svg>
