<svg width="32" height="32" viewBox="0 0 32 32" fill="none" xmlns="http://www.w3.org/2000/svg">
<path d="M4.23341 4.36689C4.03341 4.16689 3.79341 4.06689 3.51341 4.06689C3.23341 4.06689 2.99341 4.16689 2.79341 4.36689C2.59341 4.56689 2.49341 4.80689 2.49341 5.08023C2.49341 5.35356 2.59341 5.59356 2.79341 5.79356L6.80007 9.79356C5.76674 10.2002 4.88007 10.8536 4.14674 11.7602C3.16007 12.9802 2.66007 14.3936 2.66007 15.9936C2.66007 17.8402 3.31341 19.4069 4.60674 20.7069C5.90674 22.0069 7.48007 22.6602 9.32674 22.6602H13.9934C14.2734 22.6602 14.5134 22.5669 14.7067 22.3736C14.9001 22.1869 14.9934 21.9469 14.9934 21.6602C14.9934 21.3736 14.9001 21.1336 14.7067 20.9402C14.5134 20.7469 14.2801 20.6536 13.9934 20.6536H9.32674C8.03341 20.6536 6.92674 20.2002 6.02007 19.2869C5.11341 18.3736 4.66007 17.2736 4.66007 15.9802C4.66007 14.6869 5.11341 13.5869 6.02007 12.6802C6.70674 11.9936 7.50674 11.5669 8.41341 11.4002L12.0067 14.9869H11.8267C11.5467 14.9869 11.3067 15.0802 11.1134 15.2736C10.9201 15.4602 10.8267 15.7002 10.8267 15.9869C10.8267 16.2736 10.9201 16.5136 11.1134 16.7002C11.3067 16.8936 11.5401 16.9869 11.8267 16.9869H14.0067L26.4267 29.3869C26.6267 29.5869 26.8667 29.6869 27.1467 29.6869C27.4267 29.6869 27.6601 29.5869 27.8601 29.3869C28.0601 29.1869 28.1601 28.9536 28.1601 28.6869C28.1601 28.4202 28.0601 28.1869 27.8601 27.9869L4.23341 4.36689Z" fill="currentColor"/>
<path d="M27.3867 11.3802C26.0867 10.0802 24.5134 9.4269 22.6667 9.4269H18.5001C18.2201 9.4269 17.9801 9.52023 17.7867 9.71356C17.5934 9.90023 17.5001 10.1402 17.5001 10.4269C17.5001 10.7136 17.5934 10.9536 17.7867 11.1469C17.9801 11.3402 18.2134 11.4336 18.5001 11.4336H22.6667C23.9601 11.4336 25.0667 11.8869 25.9734 12.7936C26.8801 13.7002 27.3334 14.8002 27.3334 16.1002C27.3334 17.0336 27.0801 17.8736 26.5667 18.6202C26.0534 19.3669 25.3801 19.9269 24.5334 20.3002C24.2867 20.4136 24.1201 20.6002 24.0201 20.8669C23.9201 21.1336 23.9267 21.3936 24.0334 21.6469C24.1467 21.9002 24.3467 22.0736 24.6334 22.1669C24.9201 22.2536 25.1867 22.2336 25.4334 22.1002C26.5867 21.5202 27.5267 20.7069 28.2467 19.6469C28.9667 18.5936 29.3267 17.4069 29.3267 16.1002C29.3267 14.2536 28.6801 12.6869 27.3801 11.3869L27.3867 11.3802Z" fill="currentColor"/>
<path d="M20.8867 16.8136C21.0734 16.6269 21.1667 16.3869 21.1667 16.1002C21.1667 15.8136 21.0734 15.5802 20.8801 15.3869C20.6867 15.1936 20.4534 15.1002 20.1667 15.1002H17.8001L19.8001 17.1002H20.1667C20.4534 17.1002 20.6934 17.0069 20.8867 16.8136Z" fill="currentColor"/>
</svg>
