<svg width="32" height="32" viewBox="0 0 32 32" fill="none" xmlns="http://www.w3.org/2000/svg">
<path d="M9.33325 22.6665C7.48658 22.6665 5.91325 22.0132 4.61325 20.7132C3.31325 19.4132 2.65991 17.8398 2.65991 15.9932C2.65991 14.1465 3.31325 12.5732 4.61325 11.2732C5.91325 9.97316 7.48658 9.31982 9.33325 9.31982H13.9999C14.2866 9.31982 14.5199 9.41316 14.7132 9.60649C14.9066 9.79982 14.9999 10.0398 14.9999 10.3265C14.9999 10.6132 14.9066 10.8465 14.7132 11.0398C14.5199 11.2265 14.2866 11.3265 13.9999 11.3265H9.33325C8.03991 11.3265 6.93325 11.7798 6.02658 12.6865C5.11991 13.5932 4.66658 14.6932 4.66658 15.9865C4.66658 17.2798 5.11991 18.3865 6.02658 19.2932C6.93325 20.2065 8.03325 20.6598 9.33325 20.6598H13.9999C14.2866 20.6598 14.5199 20.7532 14.7132 20.9465C14.9066 21.1398 14.9999 21.3798 14.9999 21.6665C14.9999 21.9532 14.9066 22.1865 14.7132 22.3798C14.5199 22.5665 14.2866 22.6665 13.9999 22.6665H9.33325ZM11.8332 16.9998C11.5466 16.9998 11.3132 16.9065 11.1199 16.7132C10.9266 16.5198 10.8332 16.2798 10.8332 15.9932C10.8332 15.7065 10.9266 15.4732 11.1199 15.2798C11.3132 15.0932 11.5466 14.9932 11.8332 14.9932H20.1666C20.4532 14.9932 20.6866 15.0865 20.8799 15.2798C21.0732 15.4732 21.1666 15.7132 21.1666 15.9998C21.1666 16.2865 21.0732 16.5198 20.8799 16.7132C20.6866 16.8998 20.4532 16.9998 20.1666 16.9998H11.8332ZM17.9999 22.6665C17.7132 22.6665 17.4799 22.5732 17.2866 22.3798C17.0932 22.1865 16.9999 21.9465 16.9999 21.6598C16.9999 21.3732 17.0932 21.1398 17.2866 20.9465C17.4799 20.7598 17.7132 20.6598 17.9999 20.6598H22.6666C23.9599 20.6598 25.0666 20.2065 25.9732 19.2998C26.8799 18.3932 27.3332 17.2932 27.3332 15.9998C27.3332 14.7065 26.8799 13.5998 25.9732 12.6932C25.0666 11.7798 23.9666 11.3265 22.6666 11.3265H17.9999C17.7132 11.3265 17.4799 11.2332 17.2866 11.0398C17.0932 10.8465 16.9999 10.6065 16.9999 10.3198C16.9999 10.0332 17.0932 9.79982 17.2866 9.60649C17.4799 9.41982 17.7132 9.31982 17.9999 9.31982H22.6666C24.5132 9.31982 26.0866 9.97316 27.3866 11.2732C28.6866 12.5732 29.3399 14.1465 29.3399 15.9932C29.3399 17.8398 28.6866 19.4132 27.3866 20.7132C26.0866 22.0132 24.5132 22.6665 22.6666 22.6665H17.9999Z" fill="currentColor"/>
</svg>
