<svg width="32" height="32" viewBox="0 0 32 32" fill="none" xmlns="http://www.w3.org/2000/svg">
<path d="M20.0638 17.3635L17.7058 14.9868H20.0348C20.4061 14.9868 20.7221 15.114 20.9828 15.3684C21.2436 15.6229 21.3741 15.9358 21.3741 16.3071C21.3741 16.596 21.2828 16.8411 21.1001 17.0424C20.9174 17.244 20.6942 17.351 20.4304 17.3635H20.0638ZM27.6408 29.3055C27.4156 29.5432 27.1516 29.6621 26.8488 29.6621C26.5459 29.6621 26.2819 29.5432 26.0568 29.3055L2.72476 6.02578C2.49965 5.80067 2.38398 5.53667 2.37776 5.23378C2.37131 4.93089 2.48698 4.66689 2.72476 4.44178C2.94987 4.20423 3.21076 4.08545 3.50742 4.08545C3.80409 4.08545 4.0712 4.20423 4.30876 4.44178L27.6408 27.7738C27.8659 27.9989 27.9784 28.2542 27.9784 28.5398C27.9784 28.8251 27.8659 29.0803 27.6408 29.3055ZM9.31442 23.1374C7.33198 23.1374 5.64676 22.4435 4.25876 21.0555C2.87076 19.6677 2.17676 17.9824 2.17676 15.9998C2.17676 14.3871 2.65554 12.9478 3.61309 11.6818C4.57065 10.4156 5.81609 9.57034 7.34942 9.14612L9.68709 11.5028H9.31442C8.06842 11.5028 7.00742 11.9369 6.13142 12.8051C5.25542 13.6733 4.81742 14.7356 4.81742 15.9918C4.81742 17.2482 5.25542 18.3132 6.13142 19.1868C7.00742 20.0601 8.06842 20.4968 9.31442 20.4968H13.4538C13.8249 20.4968 14.1378 20.6246 14.3924 20.8801C14.6469 21.1359 14.7741 21.4502 14.7741 21.8231C14.7741 22.196 14.6469 22.5082 14.3924 22.7598C14.1378 23.0116 13.8249 23.1374 13.4538 23.1374H9.31442ZM11.7581 17.1128C11.437 17.1128 11.1712 17.007 10.9608 16.7954C10.7503 16.5837 10.6451 16.3165 10.6451 15.9938C10.6451 15.6711 10.7503 15.406 10.9608 15.1984C11.1712 14.9907 11.437 14.8868 11.7581 14.8868H13.2218L15.4478 17.1128H11.7581ZM23.9958 21.8381C23.8093 21.5072 23.7661 21.1708 23.8661 20.8288C23.9661 20.4868 24.176 20.2226 24.4958 20.0361C25.29 19.6708 25.9363 19.141 26.4348 18.4468C26.9334 17.7526 27.1828 16.9702 27.1828 16.0998C27.1828 14.8538 26.7479 13.7928 25.8781 12.9168C25.0083 12.0408 23.9504 11.6028 22.7044 11.6028H18.9148C18.5434 11.6028 18.2305 11.475 17.9761 11.2195C17.7216 10.9637 17.5944 10.6493 17.5944 10.2764C17.5944 9.90356 17.7216 9.58812 17.9761 9.33011C18.2305 9.07211 18.5434 8.94312 18.9148 8.94312H22.6858C24.6682 8.94312 26.3534 9.64023 27.7414 11.0344C29.1294 12.4287 29.8234 14.1171 29.8234 16.0998C29.8234 17.436 29.4465 18.6476 28.6928 19.7345C27.9392 20.8216 26.9846 21.6728 25.8291 22.2881C25.5218 22.4843 25.1829 22.538 24.8124 22.4491C24.442 22.3602 24.1698 22.1566 23.9958 21.8381Z" fill="currentColor"/>
</svg>
