<svg width="32" height="32" viewBox="0 0 32 32" fill="none" xmlns="http://www.w3.org/2000/svg">
<path d="M9.33322 23.1376C7.34922 23.1376 5.66356 22.4442 4.27622 21.0573C2.88911 19.6704 2.19556 17.985 2.19556 16.0013C2.19556 14.0177 2.88911 12.3288 4.27622 10.9346C5.66356 9.54037 7.34922 8.84326 9.33322 8.84326H13.4722C13.8436 8.84326 14.1564 8.97426 14.4109 9.23626C14.6653 9.49804 14.7926 9.81537 14.7926 10.1883C14.7926 10.5612 14.6653 10.8735 14.4109 11.1253C14.1564 11.377 13.8436 11.5029 13.4722 11.5029H9.33322C8.07456 11.5029 7.01033 11.937 6.14056 12.8053C5.271 13.6735 4.83622 14.7357 4.83622 15.9919C4.83622 17.2484 5.271 18.3134 6.14056 19.1869C7.01033 20.0603 8.07456 20.4969 9.33322 20.4969H13.4722C13.8436 20.4969 14.1564 20.6247 14.4109 20.8803C14.6653 21.136 14.7926 21.4504 14.7926 21.8233C14.7926 22.1962 14.6653 22.5084 14.4109 22.7599C14.1564 23.0117 13.8436 23.1376 13.4722 23.1376H9.33322ZM11.6259 17.1129C11.3126 17.1129 11.0487 17.0084 10.8342 16.7993C10.62 16.5902 10.5129 16.3217 10.5129 15.9939C10.5129 15.6664 10.6169 15.3999 10.8249 15.1946C11.0329 14.9895 11.2999 14.8869 11.6259 14.8869H20.3739C20.6872 14.8869 20.9511 14.9915 21.1656 15.2006C21.3798 15.4097 21.4869 15.6782 21.4869 16.0059C21.4869 16.3335 21.3829 16.5999 21.1749 16.8053C20.9669 17.0104 20.6999 17.1129 20.3739 17.1129H11.6259ZM18.5462 23.1376C18.1624 23.1376 17.8433 23.0098 17.5889 22.7543C17.3344 22.4987 17.2072 22.1845 17.2072 21.8116C17.2072 21.4387 17.3344 21.1264 17.5889 20.8746C17.8433 20.6228 18.1624 20.4969 18.5462 20.4969H22.6666C23.9252 20.4969 24.9894 20.0628 25.8592 19.1946C26.7288 18.3264 27.1636 17.2642 27.1636 16.0079C27.1636 14.7515 26.7288 13.6865 25.8592 12.8129C24.9894 11.9396 23.9252 11.5029 22.6666 11.5029H18.5462C18.1624 11.5029 17.8433 11.3752 17.5889 11.1196C17.3344 10.8638 17.2072 10.5495 17.2072 10.1766C17.2072 9.80371 17.3344 9.48826 17.5889 9.23026C17.8433 8.97226 18.1624 8.84326 18.5462 8.84326H22.6666C24.6506 8.84326 26.3393 9.53993 27.7329 10.9333C29.1264 12.3264 29.8232 14.0148 29.8232 15.9986C29.8232 17.9822 29.1264 19.6678 27.7329 21.0556C26.3393 22.4436 24.6506 23.1376 22.6666 23.1376H18.5462Z" fill="currentColor"/>
</svg>
