<svg width="32" height="32" viewBox="0 0 32 32" fill="none" xmlns="http://www.w3.org/2000/svg">
<path d="M6 28C5.46667 28 5 27.8 4.6 27.4C4.2 27 4 26.5333 4 26V6C4 5.46667 4.2 5 4.6 4.6C5 4.2 5.46667 4 6 4H26C26.5333 4 27 4.2 27.4 4.6C27.8 5 28 5.46667 28 6V26C28 26.5333 27.8 27 27.4 27.4C27 27.8 26.5333 28 26 28H6ZM10 22.4667C10.2667 22.4667 10.5 22.3667 10.7 22.1667C10.9 21.9667 11 21.7333 11 21.4667C11 21.2 10.9 20.9667 10.7 20.7667C10.5 20.5667 10.2667 20.4667 10 20.4667C9.73333 20.4667 9.5 20.5667 9.3 20.7667C9.1 20.9667 9 21.2 9 21.4667C9 21.7333 9.1 21.9667 9.3 22.1667C9.5 22.3667 9.73333 22.4667 10 22.4667ZM10 17C10.2667 17 10.5 16.9 10.7 16.7C10.9 16.5 11 16.2667 11 16C11 15.7333 10.9 15.5 10.7 15.3C10.5 15.1 10.2667 15 10 15C9.73333 15 9.5 15.1 9.3 15.3C9.1 15.5 9 15.7333 9 16C9 16.2667 9.1 16.5 9.3 16.7C9.5 16.9 9.73333 17 10 17ZM10 11.5333C10.2667 11.5333 10.5 11.4333 10.7 11.2333C10.9 11.0333 11 10.8 11 10.5333C11 10.2667 10.9 10.0333 10.7 9.83333C10.5 9.63333 10.2667 9.53333 10 9.53333C9.73333 9.53333 9.5 9.63333 9.3 9.83333C9.1 10.0333 9 10.2667 9 10.5333C9 10.8 9.1 11.0333 9.3 11.2333C9.5 11.4333 9.73333 11.5333 10 11.5333ZM15.4 22.4667H21.5333C21.82 22.4667 22.06 22.3733 22.2533 22.1867C22.4467 22 22.5333 21.76 22.5333 21.4667C22.5333 21.1733 22.44 20.94 22.2533 20.7467C22.0667 20.56 21.8267 20.4667 21.5333 20.4667H15.4C15.1133 20.4667 14.8733 20.56 14.68 20.7467C14.4933 20.9333 14.4 21.1733 14.4 21.4667C14.4 21.76 14.4933 21.9933 14.68 22.1867C14.8667 22.3733 15.1067 22.4667 15.4 22.4667ZM15.4 17H21.5333C21.82 17 22.06 16.9067 22.2533 16.72C22.4467 16.5333 22.5333 16.2933 22.5333 16C22.5333 15.7067 22.44 15.4733 22.2533 15.28C22.0667 15.0867 21.8267 14.9933 21.5333 15H15.4C15.1133 15 14.8733 15.0933 14.68 15.28C14.4933 15.4667 14.4 15.7067 14.4 16C14.4 16.2933 14.4933 16.5267 14.68 16.72C14.8667 16.9067 15.1067 17 15.4 17ZM15.4 11.5333H21.5333C21.82 11.5333 22.06 11.44 22.2533 11.2533C22.4467 11.0667 22.5333 10.8267 22.5333 10.54C22.5333 10.2533 22.44 10.0133 22.2533 9.82667C22.0667 9.64 21.8267 9.54 21.5333 9.54H15.4C15.1133 9.54 14.8733 9.63333 14.68 9.82667C14.4867 10.02 14.4 10.2533 14.4 10.54C14.4 10.8267 14.4933 11.0667 14.68 11.2533C14.8667 11.44 15.1067 11.5333 15.4 11.5333Z" fill="#222343"/>
</svg>
