<svg width="32" height="32" viewBox="0 0 32 32" fill="none" xmlns="http://www.w3.org/2000/svg">
<path d="M5.33337 17.4377C5.33337 14.9266 6.07782 12.5154 7.56671 10.2043C9.0556 7.89323 11.1 5.871 13.7 4.13767C14.1889 3.80434 14.6945 3.78767 15.2167 4.08767C15.7389 4.38767 16 4.83767 16 5.43767V7.171C16 7.92656 16.2612 8.55989 16.7834 9.071C17.3056 9.58211 17.9445 9.83767 18.7 9.83767C19.0778 9.83767 19.4389 9.75434 19.7834 9.58767C20.1278 9.421 20.4334 9.18211 20.7 8.871C20.8778 8.64878 21.1056 8.50989 21.3834 8.45434C21.6612 8.39878 21.9223 8.45989 22.1667 8.63767C23.5667 9.63767 24.6667 10.9154 25.4667 12.471C26.2667 14.0266 26.6667 15.6821 26.6667 17.4377C26.6667 19.3932 26.1889 21.1766 25.2334 22.7877C24.2778 24.3988 23.0223 25.671 21.4667 26.6043C21.8445 26.071 22.1389 25.4877 22.35 24.8543C22.5612 24.221 22.6667 23.5488 22.6667 22.8377C22.6667 21.9488 22.5 21.1099 22.1667 20.321C21.8334 19.5321 21.3556 18.8266 20.7334 18.2043L16 13.571L11.3 18.2043C10.6556 18.8488 10.1667 19.5599 9.83337 20.3377C9.50004 21.1154 9.33337 21.9488 9.33337 22.8377C9.33337 23.5488 9.43893 24.221 9.65004 24.8543C9.86115 25.4877 10.1556 26.071 10.5334 26.6043C8.97782 25.671 7.72226 24.3988 6.76671 22.7877C5.81115 21.1766 5.33337 19.3932 5.33337 17.4377Z" fill="#222343"/>
<path d="M16 17.3042L18.8333 20.0709C19.2111 20.4486 19.5 20.8709 19.7 21.3375C19.9 21.8042 20 22.3042 20 22.8375C20 23.9264 19.6111 24.8542 18.8333 25.6209C18.0556 26.3875 17.1111 26.7709 16 26.7709C14.8889 26.7709 13.9444 26.3875 13.1667 25.6209C12.3889 24.8542 12 23.9264 12 22.8375C12 22.3264 12.1 21.832 12.3 21.3542C12.5 20.8764 12.7889 20.4486 13.1667 20.0709L16 17.3042Z" fill="#222343"/>
</svg>
