<svg width="32" height="32" viewBox="0 0 32 32" fill="none" xmlns="http://www.w3.org/2000/svg">
<path d="M7.46671 26.6335C6.38004 26.6335 5.45337 26.2535 4.68004 25.5002C3.91337 24.7468 3.53337 23.8135 3.53337 22.7002H3.33337C2.78004 22.7002 2.30671 22.5068 1.92004 22.1135C1.53337 21.7268 1.33337 21.2535 1.33337 20.7002V7.3335C1.33337 6.80016 1.53337 6.3335 1.93337 5.9335C2.33337 5.5335 2.80004 5.3335 3.33337 5.3335H20.6334C21.1867 5.3335 21.66 5.52683 22.0467 5.92016C22.4334 6.30683 22.6334 6.78016 22.6334 7.3335V10.9002H25.6334C25.8134 10.9002 25.9667 10.9335 26.1 11.0002C26.2334 11.0668 26.3467 11.1668 26.4334 11.3002L30.4667 16.6668C30.5334 16.7535 30.58 16.8468 30.6134 16.9468C30.6467 17.0468 30.6667 17.1535 30.6667 17.2668V21.7002C30.6667 21.9868 30.5734 22.2268 30.3867 22.4202C30.2 22.6135 29.96 22.7002 29.6667 22.7002H28.3C28.3 23.8135 27.9134 24.7468 27.1534 25.5002C26.3867 26.2535 25.46 26.6335 24.3734 26.6335C23.2867 26.6335 22.36 26.2535 21.5934 25.5002C20.8267 24.7468 20.44 23.8135 20.44 22.7002H11.4067C11.4067 23.8135 11.02 24.7468 10.2534 25.5002C9.48671 26.2535 8.56004 26.6335 7.46671 26.6335ZM7.46671 24.6335C8.00004 24.6335 8.45337 24.4468 8.83337 24.0668C9.21337 23.6868 9.40004 23.2335 9.40004 22.7002C9.40004 22.1668 9.21337 21.7135 8.83337 21.3335C8.45337 20.9535 8.00004 20.7668 7.46671 20.7668C6.93337 20.7668 6.48004 20.9535 6.10004 21.3335C5.72004 21.7135 5.53337 22.1668 5.53337 22.7002C5.53337 23.2335 5.72004 23.6868 6.10004 24.0668C6.48004 24.4468 6.93337 24.6335 7.46671 24.6335ZM24.3667 24.6335C24.9 24.6335 25.3534 24.4468 25.7334 24.0668C26.1134 23.6868 26.3 23.2335 26.3 22.7002C26.3 22.1668 26.1134 21.7135 25.7334 21.3335C25.3534 20.9535 24.9 20.7668 24.3667 20.7668C23.8334 20.7668 23.38 20.9535 23 21.3335C22.62 21.7135 22.4334 22.1668 22.4334 22.7002C22.4334 23.2335 22.62 23.6868 23 24.0668C23.38 24.4468 23.8334 24.6335 24.3667 24.6335ZM22.6334 17.8335H28.8334L25.1334 12.9002H22.6334V17.8335Z" fill="#222343"/>
</svg>
