<svg width="32" height="32" viewBox="0 0 32 32" fill="none" xmlns="http://www.w3.org/2000/svg">
<path d="M7.33337 29.3334C6.78004 29.3334 6.30671 29.14 5.92004 28.7467C5.53337 28.3534 5.33337 27.8867 5.33337 27.3334V12.8667C5.33337 12.3134 5.52671 11.84 5.92004 11.4534C6.31337 11.0667 6.78004 10.8667 7.33337 10.8667H20.3334V7.66671C20.3334 6.46671 19.9134 5.44671 19.0667 4.60004C18.22 3.75337 17.2 3.33337 16 3.33337C14.9534 3.33337 14.0467 3.64671 13.2667 4.26671C12.4867 4.88671 11.9867 5.68671 11.7667 6.66671C11.7 6.95337 11.5667 7.19337 11.3667 7.38004C11.1667 7.56671 10.9334 7.66671 10.6667 7.66671C10.38 7.66671 10.14 7.56671 9.95337 7.36671C9.76671 7.16671 9.69337 6.93337 9.74004 6.66671C9.98671 5.13337 10.6867 3.86004 11.8534 2.85337C13.02 1.84004 14.4067 1.33337 16.0067 1.33337C17.76 1.33337 19.26 1.94671 20.4934 3.18671C21.7267 4.42004 22.34 5.91337 22.34 7.66671V10.8667H24.6734C25.2267 10.8667 25.7 11.06 26.0867 11.4534C26.4734 11.8467 26.6734 12.3134 26.6734 12.8667V27.3334C26.6734 27.8867 26.48 28.36 26.0867 28.7467C25.6934 29.1334 25.2267 29.3334 24.6734 29.3334H7.33337ZM16 22.6667C16.7134 22.6667 17.32 22.42 17.82 21.9334C18.32 21.4467 18.5667 20.8534 18.5667 20.1667C18.5667 19.48 18.3134 18.8934 17.82 18.3467C17.3267 17.8 16.7134 17.5267 16 17.5267C15.2867 17.5267 14.68 17.8 14.18 18.3467C13.68 18.8934 13.4334 19.5 13.4334 20.1667C13.4334 20.8334 13.6867 21.4467 14.18 21.9334C14.6734 22.42 15.2867 22.6667 16 22.6667Z" fill="#222343"/>
</svg>
