<svg width="32" height="32" viewBox="0 0 32 32" fill="none" xmlns="http://www.w3.org/2000/svg">
<path d="M7.33331 29.3334C6.77998 29.3334 6.30665 29.1401 5.91998 28.7468C5.53331 28.3534 5.33331 27.8868 5.33331 27.3334V12.8668C5.33331 12.3134 5.52665 11.8401 5.91998 11.4534C6.31331 11.0668 6.77998 10.8668 7.33331 10.8668H9.66665V7.66675C9.66665 5.91342 10.2866 4.42009 11.5133 3.18675C12.7466 1.95342 14.24 1.34009 16 1.34009C17.76 1.34009 19.2533 1.95342 20.4866 3.19342C21.72 4.42675 22.3333 5.92009 22.3333 7.67342V10.8734H24.6666C25.22 10.8734 25.6933 11.0668 26.08 11.4601C26.4666 11.8534 26.6666 12.3201 26.6666 12.8734V27.3401C26.6666 27.8934 26.4733 28.3668 26.08 28.7534C25.6866 29.1401 25.22 29.3401 24.6666 29.3401H7.33331V29.3334ZM16 22.6668C16.7133 22.6668 17.32 22.4201 17.82 21.9334C18.32 21.4468 18.5666 20.8534 18.5666 20.1668C18.5666 19.4801 18.3133 18.8934 17.82 18.3468C17.3266 17.8001 16.7133 17.5268 16 17.5268C15.2866 17.5268 14.68 17.8001 14.18 18.3468C13.68 18.8934 13.4333 19.5001 13.4333 20.1668C13.4333 20.8334 13.6866 21.4468 14.18 21.9334C14.6733 22.4201 15.2866 22.6668 16 22.6668ZM11.6666 10.8668H20.3333V7.66675C20.3333 6.46675 19.9133 5.44675 19.0666 4.60009C18.22 3.75342 17.2 3.33342 16 3.33342C14.8 3.33342 13.78 3.75342 12.9333 4.60009C12.0866 5.44675 11.6666 6.46675 11.6666 7.66675V10.8668Z" fill="#222343"/>
</svg>
