<svg width="32" height="32" viewBox="0 0 32 32" fill="none" xmlns="http://www.w3.org/2000/svg">
<path d="M11.6666 10.8668H20.3333V7.76675C20.3333 6.54675 19.9133 5.50009 19.0666 4.63342C18.22 3.76675 17.2 3.33342 16 3.33342C14.8 3.33342 13.78 3.76675 12.9333 4.63342C12.0866 5.50009 11.6666 6.54675 11.6666 7.76675V10.8668ZM25.1 30.4668C23.3 30.4668 21.78 29.8468 20.5333 28.6001C19.2866 27.3534 18.6666 25.8334 18.6666 24.0334C18.6666 22.2334 19.2866 20.7134 20.5333 19.4668C21.78 18.2201 23.3 17.6001 25.1 17.6001C26.9 17.6001 28.42 18.2201 29.6666 19.4668C30.9133 20.7134 31.5333 22.2334 31.5333 24.0334C31.5333 25.8334 30.9133 27.3534 29.6666 28.6001C28.42 29.8468 26.9 30.4668 25.1 30.4668ZM18.5666 29.3334H7.33331C6.77998 29.3334 6.30665 29.1401 5.91998 28.7468C5.53331 28.3601 5.33331 27.8868 5.33331 27.3334V12.8668C5.33331 12.3134 5.52665 11.8401 5.91998 11.4534C6.31331 11.0668 6.77998 10.8668 7.33331 10.8668H9.66665V7.76675C9.66665 5.98675 10.2866 4.47342 11.5133 3.22009C12.7466 1.96675 14.24 1.34009 16 1.34009C17.76 1.34009 19.2533 1.96675 20.4866 3.22009C21.72 4.47342 22.3333 5.99342 22.3333 7.76675V10.8668H24.6666C25.22 10.8668 25.6933 11.0601 26.08 11.4534C26.4666 11.8468 26.6666 12.3134 26.6666 12.8668V15.7668C26.3333 15.6801 26 15.6201 25.6666 15.6001C25.3333 15.5801 25 15.5801 24.6666 15.6001C22.4 15.6868 20.5 16.5468 18.9666 18.1868C17.4333 19.8201 16.6666 21.7668 16.6666 24.0334C16.6666 25.0134 16.8333 25.9534 17.1666 26.8468C17.5 27.7468 17.9666 28.5734 18.5666 29.3268V29.3334ZM25.1 23.7001C25.72 23.7001 26.2533 23.4801 26.6866 23.0534C27.12 22.6268 27.3333 22.0934 27.3333 21.4734C27.3333 20.8534 27.1133 20.3268 26.6866 19.9068C26.2533 19.4868 25.7266 19.2734 25.1 19.2734C24.4733 19.2734 23.9866 19.4934 23.5466 19.9268C23.1133 20.3601 22.9 20.8801 22.9 21.4801C22.9 22.0801 23.12 22.6334 23.5466 23.0668C23.9733 23.5001 24.4933 23.7134 25.1 23.7134V23.7001ZM25.1 28.1334C25.8333 28.1334 26.52 27.9601 27.1666 27.6134C27.8133 27.2668 28.3333 26.7934 28.7333 26.2001C28.1533 25.8868 27.5666 25.6401 26.9666 25.4534C26.3666 25.2668 25.7466 25.1734 25.1 25.1734C24.4533 25.1734 23.8333 25.2668 23.2333 25.4534C22.6333 25.6401 22.0466 25.8934 21.4666 26.2001C21.8666 26.8001 22.3866 27.2734 23.0333 27.6134C23.68 27.9601 24.3666 28.1334 25.1 28.1334Z" fill="#222343"/>
</svg>
