<svg width="32" height="32" viewBox="0 0 32 32" fill="none" xmlns="http://www.w3.org/2000/svg">
<path d="M6.16972 28.4708C5.44727 28.4708 4.8265 28.2113 4.30739 27.6924C3.7885 27.1733 3.52905 26.5525 3.52905 25.8301V6.16943C3.52905 5.44188 3.7885 4.81677 4.30739 4.2941C4.8265 3.77121 5.44727 3.50977 6.16972 3.50977H14.7594C15.1307 3.50977 15.4436 3.64132 15.6981 3.90443C15.9525 4.16732 16.0797 4.48466 16.0797 4.85643C16.0797 5.22821 15.9525 5.53999 15.6981 5.79177C15.4436 6.04354 15.1307 6.16943 14.7594 6.16943H6.16972V25.8301H14.7594C15.1307 25.8301 15.4436 25.9579 15.6981 26.2134C15.9525 26.4692 16.0797 26.7835 16.0797 27.1564C16.0797 27.5293 15.9525 27.8415 15.6981 28.0931C15.4436 28.3449 15.1307 28.4708 14.7594 28.4708H6.16972ZM23.4321 17.3201H13.2074C12.8361 17.3201 12.5232 17.1923 12.2687 16.9368C12.0143 16.6812 11.8871 16.3669 11.8871 15.9938C11.8871 15.6209 12.0143 15.3087 12.2687 15.0571C12.5232 14.8053 12.8361 14.6794 13.2074 14.6794H23.3654L20.9854 12.2998C20.7227 12.0344 20.5969 11.722 20.6081 11.3624C20.6192 11.0029 20.7561 10.6948 21.0187 10.4381C21.2816 10.169 21.5937 10.0377 21.9551 10.0441C22.3164 10.0503 22.6328 10.1848 22.9044 10.4474L27.5637 15.1071C27.8139 15.3744 27.9391 15.6842 27.9391 16.0364C27.9391 16.3889 27.8139 16.6964 27.5637 16.9591L22.9377 21.5854C22.6793 21.8481 22.3717 21.977 22.0151 21.9721C21.6582 21.9674 21.3439 21.8337 21.0724 21.5708C20.8184 21.3079 20.6879 20.9944 20.6811 20.6304C20.6744 20.2662 20.8092 19.9512 21.0854 19.6854L23.4321 17.3201Z" fill="currentColor"/>
</svg>
