<svg width="32" height="32" viewBox="0 0 32 32" fill="none" xmlns="http://www.w3.org/2000/svg">
<path d="M6 28C5.46667 28 5 27.8 4.6 27.4C4.2 27 4 26.5333 4 26V6C4 5.46667 4.2 5 4.6 4.6C5 4.2 5.46667 4 6 4H14.9667C15.2533 4 15.4867 4.09333 15.68 4.28667C15.8733 4.48 15.9667 4.72 15.9667 5.00667C15.9667 5.29333 15.8733 5.52667 15.68 5.72C15.4867 5.90667 15.2533 6.00667 14.9667 6.00667H6V26.0067H14.9667C15.2533 26.0067 15.4867 26.1 15.68 26.2933C15.8733 26.4867 15.9667 26.7267 15.9667 27.0133C15.9667 27.3 15.8733 27.5333 15.68 27.7267C15.4867 27.9133 15.2533 28.0133 14.9667 28.0133H6V28ZM24.1667 17H13C12.7133 17 12.48 16.9067 12.2867 16.7133C12.0933 16.52 12 16.28 12 15.9933C12 15.7067 12.0933 15.4733 12.2867 15.28C12.48 15.0933 12.7133 14.9933 13 14.9933H24.1L21.4 12.2933C21.2 12.0933 21.1067 11.86 21.1133 11.5933C21.12 11.3267 21.2333 11.0933 21.4333 10.8933C21.6333 10.6933 21.8733 10.5933 22.1533 10.5933C22.4333 10.5933 22.6733 10.6933 22.8733 10.8933L27.3067 15.3267C27.5067 15.5267 27.6067 15.76 27.6067 16.0267C27.6067 16.2933 27.5067 16.5267 27.3067 16.7267L22.9067 21.1267C22.7133 21.3267 22.48 21.42 22.2067 21.4133C21.94 21.4 21.7 21.2933 21.4933 21.0933C21.3 20.8933 21.2067 20.6533 21.2067 20.3733C21.2067 20.0933 21.3067 19.8533 21.5067 19.6533L24.1733 16.9867L24.1667 17Z" fill="currentColor"/>
</svg>
