<svg width="32" height="32" viewBox="0 0 32 32" fill="none" xmlns="http://www.w3.org/2000/svg">
<path d="M8.66663 27.9998C8.11329 27.9998 7.63996 27.8065 7.25329 27.4132C6.86663 27.0198 6.66663 26.5532 6.66663 25.9998V10.3332C6.66663 9.6865 6.89329 9.13984 7.34663 8.67984C7.79996 8.2265 8.35329 7.99984 8.99996 7.99984H12V3.6665C12 3.35317 12.14 3.11317 12.4133 2.93317C12.6933 2.75317 13 2.6665 13.3333 2.6665H18.6666C19 2.6665 19.3066 2.75317 19.5866 2.93317C19.8666 3.11317 20 3.35317 20 3.6665V7.99984H23.3333C23.8866 7.99984 24.36 8.19317 24.7466 8.5865C25.1333 8.97984 25.3333 9.4465 25.3333 9.99984V25.9998C25.3333 26.5532 25.14 27.0265 24.7466 27.4132C24.3533 27.7998 23.8866 27.9998 23.3333 27.9998C23.3333 28.3798 23.2066 28.6932 22.9466 28.9465C22.6933 29.1998 22.3733 29.3332 22 29.3332C21.6266 29.3332 21.3066 29.2065 21.0533 28.9465C20.8 28.6932 20.6666 28.3732 20.6666 27.9998H11.3333C11.3333 28.3798 11.2066 28.6932 10.9466 28.9465C10.6933 29.1998 10.3733 29.3332 9.99996 29.3332C9.62663 29.3332 9.30663 29.2065 9.04663 28.9465C8.79329 28.6932 8.66663 28.3732 8.66663 27.9998ZM13.3333 7.99984H18.6666V3.99984H13.3333V7.99984ZM11.6666 23.9998C12.0333 23.9998 12.3333 23.6998 12.3333 23.3332V12.6665C12.3333 12.2998 12.0333 11.9998 11.6666 11.9998C11.3 11.9998 11 12.2998 11 12.6665V23.3332C11 23.6998 11.3 23.9998 11.6666 23.9998ZM16 23.9998C16.3666 23.9998 16.6666 23.6998 16.6666 23.3332V12.6665C16.6666 12.2998 16.3666 11.9998 16 11.9998C15.6333 11.9998 15.3333 12.2998 15.3333 12.6665V23.3332C15.3333 23.6998 15.6333 23.9998 16 23.9998ZM20.3333 23.9998C20.7 23.9998 21 23.6998 21 23.3332V12.6665C21 12.2998 20.7 11.9998 20.3333 11.9998C19.9666 11.9998 19.6666 12.2998 19.6666 12.6665V23.3332C19.6666 23.6998 19.9666 23.9998 20.3333 23.9998Z" fill="#222343"/>
</svg>
