<svg width="32" height="32" viewBox="0 0 32 32" fill="none" xmlns="http://www.w3.org/2000/svg">
<path d="M28.7334 5.93325C28.3334 5.53325 27.8667 5.33325 27.3334 5.33325H4.66669C4.13335 5.33325 3.66669 5.53325 3.26669 5.93325C2.86669 6.33325 2.66669 6.79992 2.66669 7.33325V24.6666C2.66669 25.1999 2.86669 25.6666 3.26669 26.0666C3.66669 26.4666 4.13335 26.6666 4.66669 26.6666H27.3334C27.8667 26.6666 28.3334 26.4666 28.7334 26.0666C29.1334 25.6666 29.3334 25.1999 29.3334 24.6666V7.33325C29.3334 6.79992 29.1334 6.33325 28.7334 5.93325ZM27.0467 10.8133L18.1267 19.7399C17.56 20.3066 16.8067 20.6199 16.0067 20.6199C15.2067 20.6199 14.4534 20.3066 13.8867 19.7399L4.97335 10.8133C4.58002 10.4199 4.58669 9.78659 4.97335 9.39992C5.36669 9.01325 6.00002 9.01325 6.38669 9.39992L15.3 18.3266C15.4867 18.5133 15.74 18.6199 16.0067 18.6199C16.2734 18.6199 16.5267 18.5133 16.7134 18.3266L25.64 9.39992C26.0267 9.00659 26.6667 9.00659 27.0534 9.39992C27.44 9.79325 27.4467 10.4266 27.0534 10.8133H27.0467Z" fill="#222343"/>
</svg>
