<svg width="32" height="32" viewBox="0 0 32 32" fill="none" xmlns="http://www.w3.org/2000/svg">
<path d="M3.49689 25.8041C3.12133 25.8041 2.81056 25.6763 2.56456 25.4208C2.31856 25.1652 2.19556 24.8494 2.19556 24.4734C2.19556 24.0974 2.31856 23.7882 2.56456 23.5458C2.81056 23.3035 3.12133 23.1824 3.49689 23.1824H14.4159C14.7846 23.1824 15.0937 23.3102 15.3432 23.5658C15.5926 23.8213 15.7172 24.1371 15.7172 24.5131C15.7172 24.8891 15.5942 25.1983 15.3482 25.4408C15.1022 25.683 14.7914 25.8041 14.4159 25.8041H3.49689ZM3.49689 18.6344C3.12133 18.6344 2.81056 18.5067 2.56456 18.2511C2.31856 17.9955 2.19556 17.6798 2.19556 17.3038C2.19556 16.9278 2.31856 16.6187 2.56456 16.3764C2.81056 16.134 3.12133 16.0128 3.49689 16.0128H8.33322C8.70722 16.0128 9.02078 16.1405 9.27389 16.3961C9.527 16.6517 9.65356 16.9674 9.65356 17.3434C9.65356 17.7194 9.527 18.0287 9.27389 18.2711C9.02078 18.5133 8.70722 18.6344 8.33322 18.6344H3.49689ZM3.49689 11.4651C3.12133 11.4651 2.81056 11.3373 2.56456 11.0818C2.31856 10.826 2.19556 10.5101 2.19556 10.1341C2.19556 9.7581 2.31856 9.44899 2.56456 9.20677C2.81056 8.96432 3.12133 8.8431 3.49689 8.8431H8.33322C8.70722 8.8431 9.02078 8.97099 9.27389 9.22677C9.527 9.48232 9.65356 9.7981 9.65356 10.1741C9.65356 10.5501 9.527 10.8592 9.27389 11.1014C9.02078 11.3439 8.70722 11.4651 8.33322 11.4651H3.49689ZM18.9492 21.4084C17.0377 21.4084 15.4141 20.7347 14.0786 19.3871C12.743 18.0395 12.0752 16.4013 12.0752 14.4724C12.0752 12.5438 12.7439 10.9012 14.0812 9.54477C15.4183 8.1881 17.0408 7.50977 18.9486 7.50977C20.8561 7.50977 22.4788 8.18732 23.8166 9.54243C25.1543 10.8975 25.8232 12.5364 25.8232 14.4591C25.8232 15.1871 25.7183 15.8865 25.5086 16.5574C25.299 17.2281 24.9782 17.8461 24.5462 18.4114L28.9912 22.9128C29.229 23.1663 29.3447 23.4477 29.3382 23.7568C29.332 24.0657 29.21 24.3421 28.9722 24.5861C28.7347 24.8301 28.4551 24.9521 28.1336 24.9521C27.812 24.9521 27.5244 24.8269 27.2709 24.5764L22.8726 20.0941C22.2888 20.5385 21.6678 20.8687 21.0096 21.0844C20.3513 21.3004 19.6646 21.4084 18.9492 21.4084ZM18.9319 18.9941C20.1779 18.9941 21.2387 18.5561 22.1142 17.6801C22.9898 16.8041 23.4276 15.7354 23.4276 14.4741C23.4276 13.213 22.9938 12.1394 22.1262 11.2534C21.2587 10.3674 20.2052 9.92443 18.9659 9.92443C17.7161 9.92443 16.6577 10.3642 15.7906 11.2438C14.9234 12.1233 14.4899 13.1914 14.4899 14.4481C14.4899 15.7192 14.92 16.7947 15.7802 17.6744C16.6407 18.5542 17.6912 18.9941 18.9319 18.9941Z" fill="currentColor"/>
</svg>
