<svg width="32" height="32" viewBox="0 0 32 32" fill="none" xmlns="http://www.w3.org/2000/svg">
<path d="M14 4.73315L21.8133 8.66649H25.18C25 8.23315 24.6733 7.86649 24.2333 7.64649L14.9 2.94649C14.62 2.80649 14.3066 2.73315 14 2.73315C13.6933 2.73315 13.38 2.80649 13.1 2.94649L3.76663 7.64649C3.09329 7.98649 2.66663 8.67982 2.66663 9.43315V20.8665C2.66663 21.9732 3.55996 22.8665 4.66663 22.8665V9.43315L14 4.73315Z" fill="#222343"/>
<path d="M27.3333 9.33322H7.33331C6.22665 9.33322 5.33331 10.2266 5.33331 11.3332V25.9999C5.33331 27.1066 6.22665 27.9999 7.33331 27.9999H27.3333C28.44 27.9999 29.3333 27.1066 29.3333 25.9999V11.3332C29.3333 10.2266 28.44 9.33322 27.3333 9.33322ZM27 13.9799L19.4533 21.5266C18.8866 22.0932 18.1333 22.4066 17.3333 22.4066C16.5333 22.4066 15.78 22.0932 15.2133 21.5266L7.67331 13.9799C7.27998 13.5866 7.28665 12.9532 7.67331 12.5666C8.06665 12.1799 8.69998 12.1799 9.08665 12.5666L16.6266 20.1132C16.8133 20.2999 17.0666 20.4066 17.3333 20.4066C17.6 20.4066 17.8533 20.2999 18.04 20.1132L25.5866 12.5666C25.98 12.1732 26.6133 12.1732 27 12.5666C27.3933 12.9532 27.3933 13.5932 27 13.9799Z" fill="#222343"/>
</svg>
