<svg width="32" height="32" viewBox="0 0 32 32" fill="none" xmlns="http://www.w3.org/2000/svg">
<path fill-rule="evenodd" clip-rule="evenodd" d="M16 14.6666C14.3467 14.6666 12.84 15.3399 11.76 16.4266C10.6733 17.5133 10 19.0066 10 20.6666C10 22.3266 10.6733 23.8199 11.76 24.9066C12.84 25.9933 14.3467 26.6666 16 26.6666C17.6533 26.6666 19.16 25.9933 20.24 24.9066C21.3267 23.8199 22 22.3266 22 20.6666C22 19.0066 21.3267 17.5133 20.24 16.4266C19.16 15.3399 17.6533 14.6666 16 14.6666ZM16 24.3199C13.98 24.3199 12.3467 22.6866 12.3467 20.6666C12.3467 18.6466 13.98 17.0133 16 17.0133C18.02 17.0133 19.6533 18.6466 19.6533 20.6666C19.6533 22.6866 18.02 24.3199 16 24.3199Z" fill="#222343"/>
<path d="M17.1333 9.66659L21.4667 5.33325H10.56L14.8933 9.66659H17.1333Z" fill="#222343"/>
<path d="M26.3467 7.49325L24.7733 5.91992C24.4 5.54659 23.8867 5.33325 23.36 5.33325C23.0533 5.33325 22.76 5.45325 22.5467 5.67325L16.7267 11.4933C16.7267 11.4933 20.94 15.7066 20.9533 15.7199L26.3533 10.3199C27.1333 9.53992 27.1333 8.27325 26.3533 7.49325H26.3467Z" fill="#222343"/>
<path d="M16 13.6666C16.58 13.6666 17.1467 13.7466 17.6933 13.8799L14.5267 10.7133L14.58 10.7666L9.50668 5.69325C9.28001 5.46659 8.96668 5.33325 8.64668 5.33325C8.11335 5.33325 7.60668 5.54659 7.23335 5.91992L5.66001 7.49325C4.88001 8.27325 4.88001 9.53992 5.66001 10.3199L11.06 15.7199C12.38 14.3933 14.1333 13.6666 16.0067 13.6666H16Z" fill="#222343"/>
</svg>
