<svg width="32" height="32" viewBox="0 0 32 32" fill="none" xmlns="http://www.w3.org/2000/svg">
<path d="M8.05814 19.7233L5.81 23.6166L10.2462 23.0633L11.9941 27.2099L14.4957 22.8766L14.449 22.8966C14.1421 23.0099 13.8219 23.0699 13.5017 23.0699C12.5944 23.0699 11.7606 22.6166 11.2669 21.8633L10.3596 20.4766L8.76527 20.0433C8.51177 19.9766 8.27828 19.8633 8.05814 19.7299V19.7233Z" fill="#222343"/>
<path d="M23.9352 19.7233C23.715 19.8566 23.4816 19.9699 23.2281 20.0433L21.6337 20.4766L20.7264 21.8633C20.2328 22.6233 19.3989 23.0699 18.4916 23.0699C18.1647 23.0699 17.8445 23.0099 17.5443 22.8966L17.5043 22.8833L20.0059 27.2166L21.7538 23.0699L26.19 23.6233L23.9419 19.7299L23.9352 19.7233Z" fill="#222343"/>
<path d="M18.4916 3.70996C18.3315 3.70996 18.1714 3.73663 18.0179 3.79663L16.4703 4.38329C16.3168 4.44329 16.1567 4.46996 15.9966 4.46996C15.8365 4.46996 15.6764 4.44329 15.523 4.38329L13.9753 3.79663C13.8219 3.73663 13.6617 3.70996 13.5016 3.70996C13.0614 3.70996 12.6344 3.92996 12.3809 4.31663L11.4736 5.70329C11.2935 5.97663 11.02 6.17663 10.7065 6.26329L9.1121 6.69663C8.50504 6.86329 8.0981 7.42329 8.13146 8.04996L8.21151 9.70329C8.22485 10.03 8.12479 10.35 7.91799 10.6033L6.8773 11.89C6.48371 12.3766 6.48371 13.0766 6.8773 13.5633L7.91799 14.85C8.12479 15.1033 8.22485 15.4233 8.21151 15.75L8.13146 17.4033C8.0981 18.03 8.51171 18.59 9.1121 18.7566L10.7065 19.19C11.02 19.2766 11.2935 19.4766 11.4736 19.75L12.3809 21.1366C12.6344 21.5233 13.0614 21.7433 13.5016 21.7433C13.6617 21.7433 13.8219 21.7166 13.9753 21.6566L15.523 21.07C15.6764 21.01 15.8365 20.9833 15.9966 20.9833C16.1567 20.9833 16.3168 21.01 16.4703 21.07L18.0179 21.6566C18.1714 21.7166 18.3315 21.7433 18.4916 21.7433C18.9319 21.7433 19.3588 21.5233 19.6123 21.1366L20.5196 19.75C20.6997 19.4766 20.9732 19.2766 21.2867 19.19L22.8811 18.7566C23.4882 18.59 23.8951 18.03 23.8618 17.4033L23.7817 15.75C23.7684 15.4233 23.8684 15.1033 24.0752 14.85L25.1159 13.5633C25.5095 13.0766 25.5095 12.3766 25.1159 11.89L24.0752 10.6033C23.8684 10.35 23.7684 10.03 23.7817 9.70329L23.8618 8.04996C23.8951 7.42329 23.4815 6.86329 22.8811 6.69663L21.2867 6.26329C20.9732 6.17663 20.6997 5.97663 20.5196 5.70329L19.6123 4.31663C19.3588 3.92996 18.9319 3.70996 18.4916 3.70996ZM15.9966 18.7233C12.6544 18.7233 9.95265 16.0366 9.95265 12.7233C9.95265 9.40996 12.6611 6.72329 15.9966 6.72329C19.3321 6.72329 22.0406 9.40996 22.0406 12.7233C22.0406 16.0366 19.3321 18.7233 15.9966 18.7233Z" fill="#222343"/>
<path d="M15.9967 17.01C15.443 17.01 14.996 16.5633 14.996 16.01V11.8433L14.9693 11.87C14.5824 12.2633 13.942 12.2633 13.5551 11.87C13.1682 11.4766 13.1615 10.8433 13.5551 10.4566L15.2896 8.7233C15.5764 8.43663 16.0034 8.34996 16.3769 8.5033C16.7505 8.65663 16.9973 9.0233 16.9973 9.42997V16.01C16.9973 16.5633 16.5504 17.01 15.9967 17.01Z" fill="#222343"/>
</svg>
