<svg width="32" height="32" viewBox="0 0 32 32" fill="none" xmlns="http://www.w3.org/2000/svg">
<path d="M13.6 19.4C13.3333 19.4 13.0667 19.3333 12.8667 19.1333C12.6667 18.9333 12.6 18.7333 12.6 18.4V13.5333C12.6 13.2667 12.6667 13 12.8667 12.8C13.0667 12.6 13.2667 12.5333 13.6 12.5333H18.4667C18.7333 12.5333 19 12.6 19.2 12.8C19.4 13 19.4667 13.2 19.4667 13.5333V18.4C19.4667 18.6667 19.4 18.9333 19.2 19.1333C19 19.3333 18.8 19.4 18.4667 19.4H13.6ZM13 28C12.7333 28 12.4667 27.9333 12.2667 27.7333C12.0667 27.5333 12 27.3333 12 27V25.3333H8.66667C8.13333 25.3333 7.66667 25.1333 7.26667 24.7333C6.86667 24.3333 6.66667 23.8667 6.66667 23.3333V20H5C4.73333 20 4.46667 19.9333 4.26667 19.7333C4.06667 19.5333 4 19.3333 4 19C4 18.6667 4.06667 18.4667 4.26667 18.2667C4.46667 18.0667 4.66667 18 5 18H6.66667V13.8667H5C4.73333 13.8667 4.46667 13.8 4.26667 13.6C4.06667 13.4 4 13.2 4 12.8667C4 12.5333 4.06667 12.3333 4.26667 12.1333C4.46667 11.9333 4.66667 11.8667 5 11.8667H6.66667V8.53333C6.66667 8 6.86667 7.53333 7.26667 7.13333C7.66667 6.73333 8.13333 6.53333 8.66667 6.53333H12V5C12 4.73333 12.0667 4.46667 12.2667 4.26667C12.4667 4.06667 12.6667 4 13 4C13.3333 4 13.5333 4.06667 13.7333 4.26667C13.9333 4.46667 14 4.66667 14 5V6.53333H18.1333V5C18.1333 4.73333 18.2 4.46667 18.4 4.26667C18.6 4.06667 18.8 4 19.1333 4C19.4667 4 19.6667 4.06667 19.8667 4.26667C20.0667 4.46667 20.1333 4.66667 20.1333 5V6.53333H23.4667C24 6.53333 24.4667 6.73333 24.8667 7.13333C25.2667 7.53333 25.4667 8 25.4667 8.53333V11.8667H27C27.2667 11.8667 27.5333 11.9333 27.7333 12.1333C27.9333 12.3333 28 12.5333 28 12.8667C28 13.2 27.9333 13.4 27.7333 13.6C27.5333 13.8 27.3333 13.8667 27 13.8667H25.4667V18H27C27.2667 18 27.5333 18.0667 27.7333 18.2667C27.9333 18.4667 28 18.6667 28 19C28 19.3333 27.9333 19.5333 27.7333 19.7333C27.5333 19.9333 27.3333 20 27 20H25.4667V23.3333C25.4667 23.8667 25.2667 24.3333 24.8667 24.7333C24.4667 25.1333 24 25.3333 23.4667 25.3333H20.1333V27C20.1333 27.2667 20.0667 27.5333 19.8667 27.7333C19.6667 27.9333 19.4667 28 19.1333 28C18.8 28 18.6 27.9333 18.4 27.7333C18.2 27.5333 18.1333 27.3333 18.1333 27V25.3333H14V27C14 27.2667 13.9333 27.5333 13.7333 27.7333C13.5333 27.9333 13.3333 28 13 28ZM8.66667 23.3333H23.4667V8.53333H8.66667V23.3333Z" fill="#222343"/>
</svg>
