<svg width="32" height="32" viewBox="0 0 32 32" fill="none" xmlns="http://www.w3.org/2000/svg">
<path d="M14.3333 15.5C13.8 15.5 13.3333 15.3 12.9333 14.9C12.5333 14.5 12.3333 14.0333 12.3333 13.5V8.66663C12.3333 8.13329 12.5333 7.66663 12.9333 7.26663C13.3333 6.86663 13.8 6.66663 14.3333 6.66663H26C26.5333 6.66663 27 6.86663 27.4 7.26663C27.8 7.66663 28 8.13329 28 8.66663V13.5C28 14.0333 27.8 14.5 27.4 14.9C27 15.3 26.5333 15.5 26 15.5H14.3333ZM22.6667 25.3333C22.1333 25.3333 21.6667 25.1333 21.2667 24.7333C20.8667 24.3333 20.6667 23.8666 20.6667 23.3333V18.5C20.6667 17.9666 20.8667 17.5 21.2667 17.1C21.6667 16.7 22.1333 16.5 22.6667 16.5H26C26.5333 16.5 27 16.7 27.4 17.1C27.8 17.5 28 17.9666 28 18.5V23.3333C28 23.8666 27.8 24.3333 27.4 24.7333C27 25.1333 26.5333 25.3333 26 25.3333H22.6667ZM14.3333 25.3333C13.8 25.3333 13.3333 25.1333 12.9333 24.7333C12.5333 24.3333 12.3333 23.8666 12.3333 23.3333V18.5C12.3333 17.9666 12.5333 17.5 12.9333 17.1C13.3333 16.7 13.8 16.5 14.3333 16.5H17.6667C18.2 16.5 18.6667 16.7 19.0667 17.1C19.4667 17.5 19.6667 17.9666 19.6667 18.5V23.3333C19.6667 23.8666 19.4667 24.3333 19.0667 24.7333C18.6667 25.1333 18.2 25.3333 17.6667 25.3333H14.3333ZM6 25.3333C5.46667 25.3333 5 25.1333 4.6 24.7333C4.2 24.3333 4 23.8666 4 23.3333V8.66663C4 8.13329 4.2 7.66663 4.6 7.26663C5 6.86663 5.46667 6.66663 6 6.66663H9.33333C9.86667 6.66663 10.3333 6.86663 10.7333 7.26663C11.1333 7.66663 11.3333 8.13329 11.3333 8.66663V23.3333C11.3333 23.8666 11.1333 24.3333 10.7333 24.7333C10.3333 25.1333 9.86667 25.3333 9.33333 25.3333H6Z" fill="currentColor"/>
</svg>
