<svg width="32" height="32" viewBox="0 0 32 32" fill="none" xmlns="http://www.w3.org/2000/svg">
<g clip-path="url(#clip0_4029_581)">
<path d="M5 23.9998C4.71333 23.9998 4.48 23.9065 4.28667 23.7132C4.09333 23.5198 4 23.2798 4 22.9932C4 22.7065 4.09333 22.4732 4.28667 22.2798C4.48 22.0932 4.71333 21.9932 5 21.9932H27C27.2867 21.9932 27.52 22.0865 27.7133 22.2798C27.9067 22.4732 28 22.7132 28 22.9998C28 23.2865 27.9067 23.5198 27.7133 23.7132C27.52 23.8998 27.2867 23.9998 27 23.9998H5ZM5 16.9998C4.71333 16.9998 4.48 16.9065 4.28667 16.7132C4.09333 16.5198 4 16.2798 4 15.9932C4 15.7065 4.09333 15.4732 4.28667 15.2798C4.48 15.0932 4.71333 14.9932 5 14.9932H27C27.2867 14.9932 27.52 15.0865 27.7133 15.2798C27.9067 15.4732 28 15.7132 28 15.9998C28 16.2865 27.9067 16.5198 27.7133 16.7132C27.52 16.8998 27.2867 16.9998 27 16.9998H5ZM5 9.99983C4.71333 9.99983 4.48 9.9065 4.28667 9.71316C4.09333 9.51983 4 9.27983 4 8.99316C4 8.7065 4.09333 8.47316 4.28667 8.27983C4.48 8.09316 4.71333 7.99316 5 7.99316H27C27.2867 7.99316 27.52 8.0865 27.7133 8.27983C27.9067 8.47316 28 8.71316 28 8.99983C28 9.2865 27.9067 9.51983 27.7133 9.71316C27.52 9.89983 27.2867 9.99983 27 9.99983H5Z" fill="currentColor"/>
</g>
<defs>
<clipPath id="clip0_4029_581">
<rect width="32" height="32" fill="white"/>
</clipPath>
</defs>
</svg>
