<svg width="32" height="32" viewBox="0 0 32 32" fill="none" xmlns="http://www.w3.org/2000/svg">
<path d="M4.84939 24.6972C4.47805 24.6972 4.16516 24.5694 3.91072 24.3139C3.65627 24.0583 3.52905 23.7378 3.52905 23.3522C3.52905 22.9793 3.65627 22.6671 3.91072 22.4156C4.16516 22.1638 4.47805 22.0379 4.84939 22.0379H27.1507C27.5221 22.0379 27.8381 22.1657 28.0987 22.4212C28.3596 22.6768 28.4901 22.9911 28.4901 23.3642C28.4901 23.7496 28.3596 24.0681 28.0987 24.3199C27.8381 24.5714 27.5221 24.6972 27.1507 24.6972H4.84939ZM4.84939 17.3206C4.47805 17.3206 4.16516 17.1928 3.91072 16.9372C3.65627 16.6817 3.52905 16.3673 3.52905 15.9942C3.52905 15.6213 3.65627 15.3091 3.91072 15.0576C4.16516 14.8058 4.47805 14.6799 4.84939 14.6799H27.1507C27.5221 14.6799 27.8381 14.8077 28.0987 15.0632C28.3596 15.3188 28.4901 15.6331 28.4901 16.0062C28.4901 16.3791 28.3596 16.6913 28.0987 16.9429C27.8381 17.1947 27.5221 17.3206 27.1507 17.3206H4.84939ZM4.84939 9.96256C4.47805 9.96256 4.16516 9.83478 3.91072 9.57922C3.65627 9.32367 3.52905 9.00311 3.52905 8.61756C3.52905 8.24467 3.65627 7.93233 3.91072 7.68055C4.16516 7.429 4.47805 7.30322 4.84939 7.30322H27.1507C27.5221 7.30322 27.8381 7.431 28.0987 7.68656C28.3596 7.94211 28.4901 8.25633 28.4901 8.62922C28.4901 9.01478 28.3596 9.33333 28.0987 9.58489C27.8381 9.83667 27.5221 9.96256 27.1507 9.96256H4.84939Z" fill="currentColor"/>
</svg>
