<svg width="32" height="32" viewBox="0 0 32 32" fill="none" xmlns="http://www.w3.org/2000/svg">
<path d="M15.0333 26C15.0333 27.1067 14.14 28 13.0333 28H6C5.46667 28 5 27.8 4.6 27.4C4.2 27 4 26.5333 4 26V6C4 5.46667 4.2 5 4.6 4.6C5 4.2 5.46667 4 6 4H13.0333C14.14 4 15.0333 4.89333 15.0333 6V26ZM17.0333 12.9667V6C17.0333 4.89333 17.9267 4 19.0333 4H26C26.5333 4 27 4.2 27.4 4.6C27.8 5 28 5.46667 28 6V12.9667C28 14.0733 27.1067 14.9667 26 14.9667H19.0333C17.9267 14.9667 17.0333 14.0733 17.0333 12.9667ZM17.0333 26V18.9667C17.0333 17.86 17.9267 16.9667 19.0333 16.9667H26C27.1067 16.9667 28 17.86 28 18.9667V26C28 26.5333 27.8 27 27.4 27.4C27 27.8 26.5333 28 26 28H19.0333C17.9267 28 17.0333 27.1067 17.0333 26Z" fill="currentColor"/>
</svg>
