<svg width="32" height="32" viewBox="0 0 32 32" fill="none" xmlns="http://www.w3.org/2000/svg">
<path d="M18.2267 14C18.6467 14.42 19.3667 14.12 19.3667 13.5267V6.65999C19.3667 5.73333 19.04 4.94666 18.38 4.29999C17.7267 3.64666 16.9333 3.32666 16 3.32666C15.0667 3.32666 14.2667 3.64666 13.6133 4.29999C12.96 4.94666 12.6333 5.73333 12.6333 6.65999V7.57333C12.6333 8.10666 12.8467 8.61333 13.22 8.98666L18.2267 13.9933V14Z" fill="currentColor"/>
<path d="M24.6667 18.4667C24.9667 17.72 25.1667 16.92 25.2667 16.0667C25.3133 15.78 25.24 15.5333 25.0467 15.3333C24.86 15.1333 24.6267 15.0333 24.34 15.0333C24.0533 15.0333 23.8133 15.1333 23.62 15.3333C23.4267 15.5333 23.3133 15.7733 23.2667 16.0667C23.18 16.6733 23.0267 17.24 22.8067 17.7667C22.66 18.1267 22.76 18.5333 23.0333 18.8067C23.54 19.3133 24.3933 19.1267 24.6667 18.4667Z" fill="currentColor"/>
<path d="M28.04 26.6267L5.37332 3.95999C4.97999 3.56666 4.34665 3.56666 3.95999 3.95999C3.57332 4.35333 3.56665 4.98666 3.95999 5.37333L19.7733 21.1867C18.6333 21.86 17.3733 22.2 15.9867 22.2C14.2067 22.2 12.62 21.6267 11.2267 20.48C9.83332 19.34 8.99999 17.8667 8.73332 16.0667C8.68665 15.7733 8.57332 15.5333 8.37999 15.3333C8.19332 15.1333 7.95332 15.0333 7.66665 15.0333C7.37999 15.0333 7.14665 15.1333 6.95332 15.3333C6.75999 15.5333 6.68665 15.78 6.73332 16.0667C6.97999 18.24 7.87999 20.0733 9.44665 21.5467C11.0133 23.0267 12.8667 23.8867 15 24.1333V27.6667C15 27.9467 15.0933 28.1867 15.28 28.38C15.4733 28.5667 15.7067 28.6667 15.9933 28.6667C16.28 28.6667 16.52 28.5667 16.7133 28.38C16.9067 28.1867 17 27.9467 17 27.6667V24.1333C18.56 23.9533 19.96 23.4467 21.2067 22.62L26.6266 28.04C26.82 28.2333 27.08 28.3333 27.3333 28.3333C27.5867 28.3333 27.8467 28.2333 28.04 28.04C28.4333 27.6467 28.4333 27.0133 28.04 26.6267Z" fill="currentColor"/>
</svg>
