<svg width="32" height="32" viewBox="0 0 32 32" fill="none" xmlns="http://www.w3.org/2000/svg">
<path d="M15.9999 18.5405C14.8937 18.5405 13.9681 18.1467 13.2233 17.3592C12.4781 16.5716 12.1056 15.6117 12.1056 14.4795V6.20719C12.1056 5.14297 12.483 4.23341 13.2379 3.47852C13.9926 2.72363 14.9126 2.34619 15.9979 2.34619C17.0833 2.34619 18.0071 2.72363 18.7696 3.47852C19.5318 4.23341 19.9129 5.14297 19.9129 6.20719V14.4795C19.9129 15.6117 19.5374 16.5716 18.7863 17.3592C18.0349 18.1467 17.1061 18.5405 15.9999 18.5405ZM14.7926 27.6405V24.2769C12.521 24.0324 10.5611 23.121 8.91292 21.5425C7.2647 19.9643 6.29948 18.0235 6.01726 15.7202C5.96037 15.3842 6.04615 15.0934 6.27459 14.8479C6.50326 14.6023 6.79248 14.4795 7.14226 14.4795C7.49181 14.4795 7.78615 14.6015 8.02526 14.8455C8.26437 15.0895 8.4187 15.3873 8.48826 15.7389C8.7927 17.5766 9.6637 19.0709 11.1013 20.2215C12.5388 21.3724 14.1678 21.9479 15.9883 21.9479C17.8463 21.9479 19.4886 21.3724 20.9153 20.2215C22.3417 19.0709 23.2134 17.5766 23.5303 15.7389C23.5874 15.3873 23.7375 15.0895 23.9806 14.8455C24.2235 14.6015 24.5188 14.4795 24.8666 14.4795C25.2144 14.4795 25.4985 14.6055 25.7189 14.8575C25.9391 15.1093 26.027 15.4031 25.9826 15.7389C25.6879 18.0075 24.7251 19.9365 23.0943 21.5259C21.4634 23.1154 19.501 24.0324 17.2073 24.2769V27.6405C17.2073 27.9865 17.0888 28.2774 16.8519 28.5132C16.6153 28.7487 16.3293 28.8665 15.9939 28.8665C15.6588 28.8665 15.3748 28.7487 15.1419 28.5132C14.909 28.2774 14.7926 27.9865 14.7926 27.6405Z" fill="currentColor"/>
</svg>
