<svg width="32" height="32" viewBox="0 0 32 32" fill="none" xmlns="http://www.w3.org/2000/svg">
<path d="M22.555 19.4882C22.2826 19.2853 22.1227 19.0254 22.0754 18.7085C22.028 18.3916 22.0996 18.0906 22.29 17.8055C22.5067 17.4566 22.6866 17.0915 22.8297 16.7102C22.9726 16.3291 23.0849 15.9363 23.1667 15.5319C23.2238 15.1801 23.3927 14.9073 23.6734 14.7135C23.954 14.52 24.262 14.4483 24.5974 14.4985C24.8949 14.5487 25.1318 14.6903 25.308 14.9232C25.4845 15.1563 25.5505 15.422 25.506 15.7202C25.4171 16.3413 25.2741 16.9541 25.077 17.5585C24.8799 18.163 24.6001 18.7241 24.2377 19.2419C24.0348 19.527 23.7725 19.6901 23.4507 19.7312C23.1289 19.7721 22.8304 19.6911 22.555 19.4882ZM17.19 13.6635L12.5304 8.98952C12.3653 8.82441 12.2303 8.62597 12.1254 8.39419C12.0205 8.16241 11.968 7.91453 11.968 7.65053V5.50552C11.968 4.58308 12.3204 3.82586 13.025 3.23386C13.7295 2.64208 14.5678 2.34619 15.54 2.34619C16.6254 2.34619 17.5493 2.72375 18.3117 3.47886C19.0739 4.23397 19.455 5.15452 19.455 6.24052V12.7229C19.455 13.3237 19.1836 13.7367 18.6407 13.9619C18.0976 14.1872 17.614 14.0877 17.19 13.6635ZM14.3347 27.6405V24.2769C12.0634 24.0324 10.1035 23.121 8.45503 21.5425C6.80681 19.9643 5.84159 18.0235 5.55936 15.7202C5.50247 15.3842 5.58825 15.0934 5.8167 14.8479C6.04536 14.6023 6.33459 14.4795 6.68436 14.4795C7.03392 14.4795 7.32825 14.6015 7.56736 14.8455C7.80647 15.0895 7.95459 15.3873 8.0117 15.7389C8.32859 17.5766 9.20347 19.0709 10.6364 20.2215C12.0693 21.3724 13.7027 21.9479 15.5367 21.9479C16.4849 21.9479 17.3794 21.7837 18.22 21.4555C19.0609 21.1275 19.8287 20.6814 20.5234 20.1172L22.277 21.8709C21.5253 22.5491 20.683 23.0919 19.7504 23.4992C18.8177 23.9065 17.8174 24.1657 16.7494 24.2769V27.6405C16.7494 27.9865 16.6309 28.2774 16.394 28.5132C16.1574 28.7487 15.8715 28.8665 15.5364 28.8665C15.1884 28.8665 14.9011 28.7487 14.6747 28.5132C14.448 28.2774 14.3347 27.9865 14.3347 27.6405ZM26.9347 29.3449L1.83336 4.26219C1.64292 4.07175 1.54459 3.83864 1.53836 3.56286C1.53214 3.28708 1.63047 3.04775 1.83336 2.84486C2.02381 2.65441 2.25692 2.55919 2.5327 2.55919C2.80847 2.55919 3.04781 2.65441 3.2507 2.84486L28.3334 27.9462C28.5238 28.1366 28.6221 28.3666 28.6284 28.6362C28.6346 28.9057 28.5363 29.142 28.3334 29.3449C28.1429 29.5351 27.9098 29.6302 27.634 29.6302C27.3583 29.6302 27.1251 29.5351 26.9347 29.3449Z" fill="currentColor"/>
</svg>
