<svg width="32" height="32" viewBox="0 0 32 32" fill="none" xmlns="http://www.w3.org/2000/svg">
<path d="M16.0001 18.5668C15.0467 18.5668 14.2467 18.2202 13.6001 17.5335C12.9534 16.8468 12.6334 16.0135 12.6334 15.0335V6.66683C12.6334 5.74016 12.9601 4.9535 13.6134 4.30683C14.2667 3.66016 15.0601 3.3335 16.0001 3.3335C16.9401 3.3335 17.7267 3.66016 18.3867 4.30683C19.0401 4.9535 19.3734 5.74016 19.3734 6.66683V15.0335C19.3734 16.0135 19.0534 16.8468 18.4067 17.5335C17.7601 18.2202 16.9601 18.5668 16.0067 18.5668H16.0001ZM15.0001 27.6668V24.1335C12.8667 23.8868 11.0134 23.0268 9.44675 21.5468C7.88008 20.0668 6.97341 18.2402 6.72675 16.0602C6.68008 15.7735 6.75341 15.5335 6.94675 15.3268C7.14008 15.1268 7.37341 15.0268 7.66675 15.0268C7.96008 15.0268 8.19341 15.1268 8.38008 15.3268C8.56675 15.5268 8.68675 15.7735 8.73341 16.0602C9.00008 17.8602 9.83341 19.3335 11.2267 20.4802C12.6201 21.6268 14.2067 22.2002 15.9934 22.2002C17.7801 22.2002 19.4001 21.6268 20.7867 20.4802C22.1734 19.3335 23.0067 17.8602 23.2734 16.0602C23.3201 15.7735 23.4334 15.5268 23.6267 15.3268C23.8201 15.1268 24.0601 15.0268 24.3467 15.0268C24.6334 15.0268 24.8667 15.1268 25.0601 15.3268C25.2467 15.5268 25.3201 15.7735 25.2801 16.0602C25.0334 18.2135 24.1334 20.0402 22.5801 21.5268C21.0267 23.0135 19.1667 23.8802 17.0134 24.1268V27.6602C17.0134 27.9468 16.9201 28.1802 16.7267 28.3735C16.5334 28.5668 16.2934 28.6602 16.0067 28.6602C15.7201 28.6602 15.4867 28.5668 15.2934 28.3735C15.1067 28.1802 15.0067 27.9468 15.0067 27.6602L15.0001 27.6668Z" fill="currentColor"/>
</svg>
