<svg width="32" height="32" viewBox="0 0 32 32" fill="none" xmlns="http://www.w3.org/2000/svg">
<path d="M28.7467 9.91997C28.3601 9.52664 27.8867 9.3333 27.3334 9.3333H19.0001V15.3466C19.6667 16.0866 20.0001 16.9733 20.0001 18C20.0001 19.1133 19.6134 20.0533 18.8334 20.8333C18.0534 21.6133 17.1134 22 16.0001 22C14.8867 22 13.9467 21.6133 13.1667 20.8333C12.3867 20.0533 12.0001 19.1133 12.0001 18C12.0001 16.8866 12.3867 15.9466 13.1667 15.1666C13.9467 14.3866 14.8867 14 16.0001 14C16.0001 14 16.0067 14 16.0134 14C16.5534 14 17.0001 13.5866 17.0001 13.0466V9.3333H4.66675C4.11341 9.3333 3.64008 9.52664 3.25341 9.91997C2.86008 10.3066 2.66675 10.78 2.66675 11.3333V24.6133C2.66675 25.1333 2.84675 25.6466 3.20008 26.0266C3.59341 26.4533 4.08675 26.6666 4.66675 26.6666H27.3001C27.8201 26.6666 28.3334 26.4866 28.7067 26.1266C29.1267 25.7266 29.3334 25.24 29.3334 24.6666V11.3333C29.3334 10.78 29.1401 10.3066 28.7467 9.91997ZM4.66675 24.6666V21.3333C5.60008 21.3333 6.38675 21.6533 7.03341 22.3C7.68008 22.9466 8.00008 23.7333 8.00008 24.6666H4.66675ZM7.03341 13.7C6.38675 14.3466 5.60008 14.6666 4.66675 14.6666V11.3333H8.00008C8.00008 12.2666 7.68008 13.0533 7.03341 13.7ZM27.3334 24.6666H24.0001C24.0001 23.7333 24.3201 22.9466 24.9667 22.3C25.6134 21.6533 26.4001 21.3333 27.3334 21.3333V24.6666ZM27.3334 14.6666C26.4001 14.6666 25.6134 14.3466 24.9667 13.7C24.3201 13.0533 24.0001 12.2666 24.0001 11.3333H27.3334V14.6666Z" fill="#222343"/>
<path d="M20.7404 8.0533C20.5404 8.26664 20.2738 8.37997 20.0005 8.37997C19.7605 8.37997 19.5138 8.2933 19.3271 8.1133L17.0004 5.98664V11.3266C17.0004 11.88 16.5538 12.3266 16.0004 12.3266C15.4471 12.3266 15.0004 11.88 15.0004 11.3266V5.98664L12.6738 8.1133C12.2671 8.48664 11.6338 8.45997 11.2604 8.0533C10.8871 7.64664 10.9204 7.0133 11.3271 6.63997L15.3271 2.97997C15.3271 2.97997 15.3404 2.9733 15.3471 2.96664C15.4338 2.8933 15.5271 2.8333 15.6338 2.78664C15.6471 2.78664 15.6538 2.77997 15.6671 2.77997C15.7738 2.73997 15.8804 2.71997 15.9938 2.71997H16.0071C16.1204 2.71997 16.2271 2.73997 16.3338 2.77997C16.3471 2.77997 16.3538 2.78664 16.3671 2.78664C16.4738 2.8333 16.5671 2.8933 16.6538 2.96664C16.6538 2.9733 16.6671 2.9733 16.6738 2.97997L20.6738 6.63997C21.0804 7.0133 21.1138 7.64664 20.7404 8.0533Z" fill="#222343"/>
</svg>
