<svg width="32" height="32" viewBox="0 0 32 32" fill="none" xmlns="http://www.w3.org/2000/svg">
<path d="M13.3333 20C13.8867 20 14.3333 19.5533 14.3333 19V18.6667H16.3333C16.62 18.6667 16.86 18.5733 17.0533 18.3867C17.24 18.2 17.3333 17.96 17.3333 17.6667V13.3333C17.3333 13.0467 17.24 12.8067 17.0533 12.6133C16.8667 12.4267 16.6267 12.3333 16.3333 12.3333H11.3333V10H16.3333C16.8867 10 17.3333 9.55334 17.3333 9.00001C17.3333 8.44667 16.8867 8.00001 16.3333 8.00001H14.3333V7.66667C14.3333 7.11334 13.8867 6.66667 13.3333 6.66667C12.78 6.66667 12.3333 7.11334 12.3333 7.66667V8.00001H10.3333C10.0467 8.00001 9.80667 8.09334 9.61334 8.28001C9.42667 8.46667 9.33334 8.70667 9.33334 9.00001V13.3333C9.33334 13.62 9.42667 13.86 9.61334 14.0533C9.80001 14.2467 10.04 14.34 10.3333 14.3333H15.3333V16.6667H10.3333C9.78001 16.6667 9.33334 17.1133 9.33334 17.6667C9.33334 18.22 9.78001 18.6667 10.3333 18.6667H12.3333V19C12.3333 19.5533 12.78 20 13.3333 20Z" fill="#222343"/>
<path d="M13.3333 22C12.0933 22 10.94 21.78 9.89334 21.34C8.84667 20.9 7.92001 20.2867 7.15334 19.52C6.38001 18.7467 5.76667 17.8267 5.33334 16.7733C4.89334 15.7267 4.67334 14.5667 4.67334 13.3333C4.67334 12.1 4.89334 10.9667 5.33334 9.92001C5.77334 8.86667 6.38667 7.94667 7.15334 7.18001C7.92667 6.40667 8.85334 5.78667 9.90667 5.34001C10.9533 4.90001 12.1067 4.67334 13.34 4.67334C14.5733 4.67334 15.7 4.90001 16.7467 5.34001C17.8 5.78667 18.7267 6.40667 19.5 7.18001C20.2733 7.95334 20.8933 8.88001 21.34 9.93334C21.78 10.9733 22.0067 12.12 22.0067 13.34C22.0067 14.2333 21.8867 15.0867 21.6533 15.8867C22.3267 15.7 23.04 15.6 23.7867 15.58C23.9333 14.86 24.0067 14.1133 24.0067 13.34C24.0067 11.8467 23.7333 10.4533 23.18 9.15334C22.6267 7.85334 21.8733 6.72667 20.9133 5.76667C19.9533 4.80667 18.8267 4.05334 17.5267 3.50001C16.2267 2.94667 14.8333 2.67334 13.34 2.67334C11.8467 2.67334 10.4267 2.94667 9.12667 3.50001C7.82667 4.05334 6.70001 4.80667 5.74001 5.76667C4.78001 6.72667 4.02667 7.85334 3.48667 9.15334C2.94667 10.4533 2.67334 11.8467 2.67334 13.34C2.67334 14.8333 2.94667 16.2533 3.48667 17.5533C4.02667 18.8533 4.78001 19.98 5.74001 20.94C6.70001 21.9 7.82667 22.6533 9.12667 23.1933C10.4267 23.7333 11.8267 24.0067 13.34 24.0067C14.1133 24.0067 14.86 23.9333 15.5867 23.7867C15.6067 23.04 15.7067 22.3267 15.8933 21.6533C15.0933 21.8867 14.24 22.0067 13.3467 22.0067L13.3333 22Z" fill="#222343"/>
<path d="M28.4133 19.58C27.18 18.3467 25.7067 17.7333 24 17.7333C22.2933 17.7333 20.7867 18.3467 19.5667 19.58C18.3467 20.8133 17.7333 22.3 17.7333 24.0333C17.7333 25.7667 18.3467 27.18 19.5667 28.4133C20.7867 29.6467 22.2667 30.26 24 30.26C25.7333 30.26 27.1867 29.6467 28.4133 28.4133C29.6467 27.18 30.2667 25.72 30.2667 24.0333C30.2667 22.3467 29.6533 20.8133 28.4133 19.58ZM27.9867 24.6933C27.7933 24.8733 27.56 24.9733 27.2933 24.9867L25.0133 25.0133L24.9867 27.2933C24.9733 27.56 24.8733 27.7933 24.6933 27.9867C24.5133 28.18 24.28 28.28 24 28.28C23.72 28.28 23.4867 28.18 23.3067 27.9867C23.1267 27.7933 23.0267 27.56 23.0133 27.2933L22.9867 25.0133L20.7067 24.9867C20.44 24.9733 20.2067 24.8733 20.0133 24.6933C19.82 24.5133 19.72 24.28 19.72 24C19.72 23.72 19.8133 23.48 20 23.2933C20.1867 23.1067 20.4267 23.0133 20.7067 23.0133H23.0067V20.7133C23.0067 20.4333 23.1 20.1933 23.2867 20.0067C23.4733 19.82 23.7133 19.7267 23.9933 19.7267C24.2733 19.7267 24.5133 19.82 24.7 20.0067C24.8867 20.1933 24.98 20.4333 24.98 20.7133V23.0133H27.28C27.56 23.0133 27.8 23.1067 27.9867 23.2933C28.1733 23.48 28.2667 23.72 28.2667 24C28.2667 24.28 28.1667 24.5133 27.9733 24.6933H27.9867Z" fill="#222343"/>
</svg>
