<svg width="32" height="32" viewBox="0 0 32 32" fill="none" xmlns="http://www.w3.org/2000/svg">
<path d="M28.7467 9.91998C28.3601 9.52665 27.8867 9.33331 27.3334 9.33331H22.5001C22.3667 9.53331 22.2134 9.71998 22.0267 9.88665L18.0267 13.5466C17.9667 13.6 17.9067 13.6533 17.8401 13.7C17.6001 13.88 17.3601 14.02 17.1067 14.12C17.0934 14.1266 17.0801 14.1333 17.0601 14.1333C17.7267 14.3066 18.3134 14.6466 18.8334 15.1666C19.6134 15.9466 20.0001 16.8866 20.0001 18C20.0001 19.1133 19.6134 20.0533 18.8334 20.8333C18.0534 21.6133 17.1134 22 16.0001 22C14.8867 22 13.9467 21.6133 13.1667 20.8333C12.3867 20.0533 12.0001 19.1133 12.0001 18C12.0001 16.8866 12.3867 15.9466 13.1667 15.1666C13.6867 14.6466 14.2734 14.3066 14.9401 14.14C14.9134 14.1266 14.8934 14.12 14.8734 14.1133C14.6201 14.0133 14.3734 13.8666 14.1401 13.68C14.0867 13.64 14.0334 13.6 13.9867 13.56L9.97341 9.88665C9.79341 9.71998 9.63341 9.53331 9.50675 9.33331H4.66675C4.11341 9.33331 3.64008 9.52665 3.25341 9.91998C2.86008 10.3066 2.66675 10.78 2.66675 11.3333V24.6666C2.66675 25.22 2.86008 25.6933 3.25341 26.0866C3.64008 26.4733 4.11341 26.6666 4.66675 26.6666H27.3334C27.8867 26.6666 28.3601 26.4733 28.7467 26.0866C29.1401 25.6933 29.3334 25.22 29.3334 24.6666V11.3333C29.3334 10.78 29.1401 10.3066 28.7467 9.91998ZM4.66675 24.6666V21.3333C5.60008 21.3333 6.38675 21.6533 7.03341 22.3C7.68008 22.9466 8.00008 23.7333 8.00008 24.6666H4.66675ZM7.03341 13.7C6.38675 14.3466 5.60008 14.6666 4.66675 14.6666V11.3333H8.00008C8.00008 12.2666 7.68008 13.0533 7.03341 13.7ZM27.3334 24.6666H24.0001C24.0001 23.7333 24.3201 22.9466 24.9667 22.3C25.6134 21.6533 26.4001 21.3333 27.3334 21.3333V24.6666ZM27.3334 14.6666C26.4001 14.6666 25.6134 14.3466 24.9667 13.7C24.3201 13.0533 24.0001 12.2666 24.0001 11.3333H27.3334V14.6666Z" fill="#222343"/>
<path d="M20.7401 6.99997C20.3667 6.5933 19.7334 6.56664 19.3267 6.93997L17.0001 9.06664V3.71997C17.0001 3.16664 16.5534 2.71997 16.0001 2.71997C15.4467 2.71997 15.0001 3.16664 15.0001 3.71997V9.05997L12.6734 6.9333C12.2667 6.55997 11.6334 6.58664 11.2601 6.9933C10.8867 7.39997 10.9134 8.0333 11.3201 8.40664L15.3201 12.0666C15.3201 12.0666 15.3334 12.0733 15.3401 12.08C15.4267 12.1533 15.5201 12.2133 15.6267 12.26C15.6401 12.26 15.6467 12.26 15.6601 12.2733C15.7667 12.3133 15.8734 12.3333 15.9934 12.3333C16.1134 12.3333 16.2201 12.3066 16.3267 12.2733C16.3401 12.2733 16.3467 12.2733 16.3601 12.26C16.4667 12.22 16.5601 12.1533 16.6467 12.08C16.6467 12.08 16.6601 12.0733 16.6667 12.0666L20.6667 8.40664C21.0734 8.0333 21.1001 7.39997 20.7267 6.9933L20.7401 6.99997Z" fill="#222343"/>
</svg>
