<svg width="32" height="32" viewBox="0 0 32 32" fill="none" xmlns="http://www.w3.org/2000/svg">
<path d="M6.49396 17.8075C6.00329 17.8075 5.5804 17.6305 5.22529 17.2765C4.87018 16.9225 4.69263 16.4971 4.69263 16.0002C4.69263 15.4929 4.87007 15.0649 5.22496 14.7162C5.57985 14.3673 6.0064 14.1929 6.50463 14.1929C6.99107 14.1929 7.41629 14.3673 7.78029 14.7162C8.14407 15.0651 8.32596 15.49 8.32596 15.9909C8.32596 16.4918 8.14329 16.9198 7.77796 17.2749C7.4124 17.63 6.9844 17.8075 6.49396 17.8075ZM16.0093 17.8075C15.5084 17.8075 15.0804 17.6305 14.7253 17.2765C14.3702 16.9225 14.1926 16.4971 14.1926 16.0002C14.1926 15.4929 14.3696 15.0649 14.7236 14.7162C15.0776 14.3673 15.5031 14.1929 16 14.1929C16.5073 14.1929 16.9353 14.3673 17.284 14.7162C17.6328 15.0651 17.8073 15.49 17.8073 15.9909C17.8073 16.4918 17.6328 16.9198 17.284 17.2749C16.9351 17.63 16.5102 17.8075 16.0093 17.8075ZM25.496 17.8075C24.9922 17.8075 24.5626 17.6305 24.2073 17.2765C23.8517 16.9225 23.674 16.4971 23.674 16.0002C23.674 15.4929 23.8533 15.0649 24.212 14.7162C24.5706 14.3673 25.0017 14.1929 25.5053 14.1929C26.0091 14.1929 26.4385 14.3673 26.7936 14.7162C27.1485 15.0651 27.326 15.49 27.326 15.9909C27.326 16.4918 27.1468 16.9198 26.7886 17.2749C26.4304 17.63 25.9995 17.8075 25.496 17.8075Z" fill="currentColor"/>
</svg>
