<svg width="32" height="32" viewBox="0 0 32 32" fill="none" xmlns="http://www.w3.org/2000/svg">
<path d="M6.92659 17.5999C6.48659 17.5999 6.10659 17.4399 5.79992 17.1266C5.49325 16.8132 5.33325 16.4332 5.33325 15.9932C5.33325 15.5532 5.49325 15.1732 5.80659 14.8666C6.11992 14.5532 6.49992 14.3999 6.93992 14.3999C7.37992 14.3999 7.75992 14.5599 8.06659 14.8732C8.37992 15.1866 8.53325 15.5666 8.53325 16.0066C8.53325 16.4466 8.37325 16.8266 8.05992 17.1332C7.74659 17.4399 7.36659 17.5999 6.92659 17.5999ZM15.9933 17.5999C15.5533 17.5999 15.1733 17.4399 14.8666 17.1266C14.5599 16.8132 14.3999 16.4332 14.3999 15.9932C14.3999 15.5532 14.5599 15.1732 14.8733 14.8666C15.1866 14.5532 15.5666 14.3999 16.0066 14.3999C16.4466 14.3999 16.8266 14.5599 17.1333 14.8732C17.4466 15.1866 17.5999 15.5666 17.5999 16.0066C17.5999 16.4466 17.4399 16.8266 17.1266 17.1332C16.8133 17.4466 16.4333 17.5999 15.9933 17.5999ZM25.0599 17.5999C24.6199 17.5999 24.2399 17.4399 23.9333 17.1266C23.6266 16.8132 23.4666 16.4332 23.4666 15.9932C23.4666 15.5532 23.6266 15.1732 23.9399 14.8666C24.2533 14.5532 24.6333 14.3999 25.0733 14.3999C25.5133 14.3999 25.8933 14.5599 26.1999 14.8732C26.5133 15.1866 26.6666 15.5666 26.6666 16.0066C26.6666 16.4466 26.5066 16.8266 26.1933 17.1332C25.8799 17.4466 25.4999 17.5999 25.0599 17.5999Z" fill="currentColor"/>
</svg>
