<svg width="32" height="32" viewBox="0 0 32 32" fill="none" xmlns="http://www.w3.org/2000/svg">
<path d="M16.0093 27.3072C15.5084 27.3072 15.0804 27.1297 14.7253 26.7748C14.3702 26.4199 14.1926 25.9934 14.1926 25.4952C14.1926 25.0087 14.3696 24.5835 14.7236 24.2195C15.0776 23.8557 15.5031 23.6738 16 23.6738C16.5073 23.6738 16.9353 23.8565 17.284 24.2218C17.6328 24.5874 17.8073 25.0154 17.8073 25.5058C17.8073 25.9965 17.6328 26.4194 17.284 26.7745C16.9351 27.1296 16.5102 27.3072 16.0093 27.3072ZM16.0093 17.8072C15.5084 17.8072 15.0804 17.6302 14.7253 17.2762C14.3702 16.9222 14.1926 16.4967 14.1926 15.9998C14.1926 15.4925 14.3696 15.0645 14.7236 14.7158C15.0776 14.3669 15.5031 14.1925 16 14.1925C16.5073 14.1925 16.9353 14.3669 17.284 14.7158C17.6328 15.0647 17.8073 15.4896 17.8073 15.9905C17.8073 16.4914 17.6328 16.9194 17.284 17.2745C16.9351 17.6296 16.5102 17.8072 16.0093 17.8072ZM16.0093 8.32583C15.5084 8.32583 15.0804 8.1465 14.7253 7.78783C14.3702 7.42916 14.1926 6.99805 14.1926 6.4945C14.1926 5.99072 14.3696 5.56127 14.7236 5.20616C15.0776 4.85127 15.5031 4.67383 16 4.67383C16.5073 4.67383 16.9353 4.85294 17.284 5.21116C17.6328 5.56939 17.8073 6.00027 17.8073 6.50383C17.8073 7.00761 17.6328 7.43716 17.284 7.7925C16.9351 8.14805 16.5102 8.32583 16.0093 8.32583Z" fill="currentColor"/>
</svg>
