<svg width="32" height="32" viewBox="0 0 32 32" fill="none" xmlns="http://www.w3.org/2000/svg">
<path d="M15.9932 26.6668C15.5532 26.6668 15.1732 26.5068 14.8666 26.1935C14.5599 25.8802 14.3999 25.5002 14.3999 25.0602C14.3999 24.6202 14.5599 24.2402 14.8732 23.9335C15.1866 23.6268 15.5666 23.4668 16.0066 23.4668C16.4466 23.4668 16.8266 23.6268 17.1332 23.9402C17.4466 24.2535 17.5999 24.6335 17.5999 25.0735C17.5999 25.5135 17.4399 25.8935 17.1266 26.2002C16.8132 26.5135 16.4332 26.6668 15.9932 26.6668ZM15.9932 17.6002C15.5532 17.6002 15.1732 17.4402 14.8666 17.1268C14.5599 16.8135 14.3999 16.4335 14.3999 15.9935C14.3999 15.5535 14.5599 15.1735 14.8732 14.8668C15.1866 14.5535 15.5666 14.4002 16.0066 14.4002C16.4466 14.4002 16.8266 14.5602 17.1332 14.8735C17.4466 15.1868 17.5999 15.5668 17.5999 16.0068C17.5999 16.4468 17.4399 16.8268 17.1266 17.1335C16.8132 17.4468 16.4332 17.6002 15.9932 17.6002ZM15.9932 8.5335C15.5532 8.5335 15.1732 8.3735 14.8666 8.06016C14.5532 7.74683 14.3999 7.36683 14.3999 6.92683C14.3999 6.48683 14.5599 6.10683 14.8732 5.80016C15.1866 5.4935 15.5666 5.3335 16.0066 5.3335C16.4466 5.3335 16.8266 5.4935 17.1332 5.80683C17.4466 6.12016 17.5999 6.50016 17.5999 6.94016C17.5999 7.38016 17.4399 7.76016 17.1266 8.06683C16.8132 8.38016 16.4332 8.5335 15.9932 8.5335Z" fill="currentColor"/>
</svg>
