<svg width="32" height="32" viewBox="0 0 32 32" fill="none" xmlns="http://www.w3.org/2000/svg">
<path d="M28.8133 13.0133C27.7267 12.08 26.54 11.2733 25.28 10.6C24.5867 10.2266 24.2867 9.38662 24.6067 8.66662C24.96 7.87329 25.9133 7.53995 26.68 7.94662C28.14 8.72662 29.5067 9.65996 30.7667 10.7333C31.4267 11.3 31.46 12.3066 30.8533 12.9266C30.3 13.4866 29.4067 13.52 28.8067 13.0066L28.8133 13.0133Z" fill="#222343"/>
<path d="M1.02666 13.0466C0.413329 12.4333 0.439995 11.42 1.09333 10.8533C5.22666 7.25329 10.46 5.28662 16 5.28662C16.3933 5.28662 16.7933 5.29995 17.1867 5.31995C18.0467 5.36662 18.6867 6.14662 18.5867 6.99995C18.4933 7.78662 17.8 8.35329 17.0067 8.31329C16.6733 8.29329 16.3333 8.28662 16 8.28662C11.1933 8.28662 6.65333 9.99329 3.06 13.12C2.46666 13.6333 1.58 13.6066 1.02 13.0533L1.02666 13.0466Z" fill="#222343"/>
<path d="M25.3733 18.0666C24.8 17.5266 24.1867 17.04 23.5333 16.6066C22.88 16.1733 22.64 15.3333 23.0067 14.6466C23.4133 13.8733 24.4067 13.5933 25.1333 14.0733C25.98 14.6266 26.7733 15.26 27.5067 15.96C28.12 16.5466 28.08 17.5466 27.44 18.1066L27.4133 18.1333C26.82 18.6533 25.9467 18.6133 25.3733 18.0733V18.0666Z" fill="#222343"/>
<path d="M5.37333 17.3C4.76 16.68 4.78666 15.6533 5.46666 15.1C8.11333 12.9333 11.3467 11.6466 14.76 11.3933C15.6267 11.3266 16.3533 12.0466 16.34 12.92C16.3267 13.7066 15.7133 14.3333 14.9333 14.3933C12.1667 14.6066 9.55333 15.6466 7.4 17.3933C6.79333 17.8866 5.92666 17.8533 5.37999 17.3H5.37333Z" fill="#222343"/>
<path d="M14.8 26.4866C14.1533 26.24 13.7067 25.78 13.4467 25.1C13.1867 24.42 13.22 23.7733 13.5333 23.1466L21.4333 6.81329C21.5 6.65995 21.62 6.54662 21.7867 6.47995C21.9533 6.41329 22.1267 6.39995 22.3067 6.44662C22.4867 6.49329 22.6267 6.59329 22.74 6.74662C22.8533 6.89995 22.8867 7.06662 22.84 7.24662L18.24 25.08C18.06 25.7266 17.62 26.1933 16.92 26.48C16.22 26.7666 15.5133 26.7666 14.8 26.48V26.4866Z" fill="#222343"/>
</svg>
