<svg width="32" height="32" viewBox="0 0 32 32" fill="none" xmlns="http://www.w3.org/2000/svg">
<path d="M11.2666 8.33341L22.2999 19.3334C22.4532 19.4867 22.6266 19.5867 22.8132 19.6134C22.9999 19.6467 23.1866 19.6134 23.3666 19.5334C23.5466 19.4467 23.6932 19.3201 23.8132 19.1667C23.9332 19.0134 23.9999 18.8334 23.9999 18.6334V13.2001C23.9999 11.3334 23.4466 9.66008 22.3532 8.18675C21.2532 6.70675 19.7999 5.78008 17.9999 5.40008V4.66675C17.9999 4.11341 17.8066 3.64008 17.4132 3.25341C17.0199 2.86675 16.5532 2.66675 15.9999 2.66675C15.4466 2.66675 14.9732 2.86008 14.5866 3.25341C14.1999 3.64675 13.9999 4.11341 13.9999 4.66675V5.40008C13.5332 5.51341 13.0799 5.65341 12.6332 5.83341C12.1866 6.01341 11.7666 6.24675 11.3666 6.53341C11.2132 6.64675 11.0932 6.78675 11.0199 6.94675C10.9399 7.11341 10.8999 7.28675 10.8999 7.46675C10.8999 7.64675 10.9332 7.80675 10.9999 7.94675C11.0666 8.08675 11.1532 8.22008 11.2666 8.33341Z" fill="currentColor"/>
<path d="M27.3999 27.3001L4.5999 4.46675C4.3999 4.26675 4.16657 4.16675 3.8999 4.16675C3.63324 4.16675 3.3999 4.26675 3.1999 4.46675C2.9999 4.66675 2.8999 4.90008 2.8999 5.16675C2.8999 5.43341 2.9999 5.66675 3.1999 5.86675L8.29324 10.9601C8.29324 10.9601 8.27324 11.0067 8.26657 11.0334C8.08657 11.7467 7.9999 12.4667 7.9999 13.2001V23.3334H6.33324C6.04657 23.3334 5.80657 23.4267 5.61324 23.6134C5.4199 23.8001 5.33324 24.0401 5.33324 24.3334C5.33324 24.6267 5.42657 24.8601 5.61324 25.0534C5.7999 25.2467 6.0399 25.3334 6.33324 25.3334H22.6332L25.9999 28.7001C26.1999 28.9001 26.4332 29.0001 26.6999 29.0001C26.9666 29.0001 27.1999 28.9001 27.3999 28.7001C27.5999 28.5001 27.6999 28.2667 27.6999 28.0001C27.6999 27.7334 27.5999 27.5001 27.3999 27.3001Z" fill="currentColor"/>
<path d="M18.0666 26.6667H13.9332C13.7799 26.6667 13.6466 26.7134 13.5466 26.8001C13.4466 26.8867 13.3932 27.0134 13.3932 27.1667C13.3932 27.8134 13.6532 28.3334 14.1799 28.7334C14.6999 29.1334 15.3066 29.3334 15.9932 29.3334C16.6799 29.3334 17.2866 29.1334 17.8066 28.7334C18.3266 28.3334 18.5932 27.8134 18.5932 27.1667C18.5932 27.0134 18.5399 26.8867 18.4399 26.8001C18.3399 26.7134 18.2132 26.6667 18.0532 26.6667H18.0666Z" fill="currentColor"/>
</svg>
