<svg width="32" height="32" viewBox="0 0 32 32" fill="none" xmlns="http://www.w3.org/2000/svg">
<path d="M6.33333 25.3333C6.04666 25.3333 5.80666 25.24 5.61333 25.0467C5.41999 24.8533 5.32666 24.62 5.32666 24.3267C5.32666 24.0333 5.41999 23.8 5.61333 23.6067C5.79999 23.42 6.03999 23.32 6.33333 23.32H7.99999V13.1867C7.99999 11.5 8.45999 9.95999 9.38666 8.56665C10.3067 7.17999 11.54 6.20665 13.0733 5.64665C13.52 5.46665 13.9133 5.57332 14.26 5.96665C14.6067 6.35999 14.7 6.81999 14.5467 7.35332C14.48 7.61999 14.4267 7.92665 14.3933 8.27332C14.36 8.61999 14.34 8.93332 14.34 9.22665C14.34 11.6467 15.1867 13.7 16.8733 15.38C18.56 17.06 20.6067 17.9 23.0067 17.9C23.2733 17.9 23.5067 17.9867 23.7067 18.1667C23.9067 18.3467 24.0067 18.5667 24.0067 18.8333V23.3333H25.6733C25.96 23.3333 26.2 23.4267 26.3933 23.62C26.58 23.8067 26.68 24.0467 26.68 24.34C26.68 24.6333 26.5867 24.8667 26.3933 25.06C26.2 25.2533 25.9667 25.3467 25.6733 25.3467H6.33333V25.3333ZM22.9 15.8C22.6533 15.8 22.44 15.7133 22.2467 15.5333C22.0533 15.3533 21.94 15.1467 21.8933 14.9L21.8267 14.2C21.36 14.0667 20.9133 13.88 20.4933 13.6333C20.0733 13.3867 19.68 13.1 19.3267 12.7667L18.76 13.0333C18.5133 13.1467 18.2733 13.16 18.0267 13.0867C17.78 13.0133 17.58 12.86 17.4267 12.6333L17.2933 12.4333C17.14 12.1867 17.08 11.94 17.1267 11.68C17.1733 11.42 17.3067 11.2067 17.5267 11.0267L18.0267 10.6267C17.8933 10.18 17.8267 9.71999 17.8267 9.23999C17.8267 8.75999 17.8933 8.29999 18.0267 7.85332L17.5267 7.45332C17.3067 7.27332 17.1733 7.05332 17.1267 6.78665C17.08 6.51999 17.14 6.26665 17.2933 6.01999L17.4267 5.81999C17.58 5.57332 17.7867 5.41999 18.0467 5.35332C18.3067 5.28665 18.5533 5.30665 18.8 5.41999L19.3333 5.68665C19.7133 5.37332 20.1067 5.09999 20.52 4.85332C20.9333 4.60665 21.3733 4.41999 21.84 4.28665L21.9067 3.55332C21.9533 3.30665 22.0667 3.09999 22.26 2.91999C22.4533 2.73999 22.6667 2.65332 22.9133 2.65332H23.1467C23.3933 2.65332 23.6 2.73999 23.78 2.90665C23.96 3.07332 24.0667 3.27999 24.1133 3.52665L24.2133 4.29332C24.68 4.42665 25.12 4.61332 25.5333 4.85999C25.9467 5.10665 26.34 5.37999 26.72 5.69332L27.2533 5.42665C27.5 5.31332 27.7467 5.29332 28.0067 5.35999C28.2667 5.42665 28.4667 5.57999 28.6267 5.82665L28.76 6.02665C28.9133 6.27332 28.9733 6.52665 28.9267 6.79332C28.88 7.05999 28.7467 7.27999 28.5267 7.45999L28.0267 7.85999C28.16 8.30665 28.2267 8.76665 28.2267 9.24665C28.2267 9.72665 28.16 10.1867 28.0267 10.6333L28.5267 11.0333C28.7467 11.2133 28.88 11.4267 28.9267 11.6867C28.9733 11.9467 28.9133 12.1933 28.76 12.44L28.6267 12.6733C28.4733 12.8933 28.2733 13.04 28.0267 13.1067C27.78 13.1733 27.54 13.1533 27.2933 13.04L26.7267 12.7733C26.3733 13.1067 25.98 13.3933 25.56 13.64C25.14 13.8867 24.6933 14.0733 24.2267 14.2067L24.1267 14.94C24.08 15.1867 23.9733 15.3933 23.7933 15.56C23.6133 15.7267 23.4067 15.8133 23.16 15.8133H22.9267L22.9 15.8ZM23 12.6333C23.9333 12.6333 24.7333 12.3 25.4 11.6333C26.0667 10.9667 26.4 10.1667 26.4 9.23332C26.4 8.29999 26.0667 7.49999 25.4 6.83332C24.7333 6.16665 23.9333 5.83332 23 5.83332C22.0667 5.83332 21.2667 6.16665 20.6 6.83332C19.9333 7.49999 19.6 8.29999 19.6 9.23332C19.6 10.1667 19.9333 10.9667 20.6 11.6333C21.2667 12.3 22.0667 12.6333 23 12.6333ZM16 29.3333C15.3133 29.3333 14.7067 29.1333 14.18 28.7333C13.6533 28.3333 13.3933 27.8133 13.3933 27.1667C13.3933 27.0133 13.4467 26.8867 13.5467 26.8C13.6467 26.7133 13.7733 26.6667 13.9333 26.6667H18.0667C18.22 26.6667 18.3533 26.7133 18.4533 26.8C18.5533 26.8867 18.6067 27.0133 18.6067 27.1667C18.6067 27.8133 18.3467 28.3333 17.82 28.7333C17.2933 29.1333 16.6933 29.3333 16 29.3333Z" fill="currentColor"/>
</svg>
