<svg width="32" height="32" viewBox="0 0 32 32" fill="none" xmlns="http://www.w3.org/2000/svg">
<path d="M6.33341 25.3332C6.04674 25.3332 5.80674 25.2399 5.61341 25.0466C5.42008 24.8532 5.32674 24.6199 5.32674 24.3266C5.32674 24.0332 5.42008 23.7999 5.61341 23.6066C5.80008 23.4199 6.04008 23.3199 6.33341 23.3199H8.00008V13.1866C8.00008 11.3199 8.55341 9.64656 9.65341 8.16656C10.7534 6.68656 12.2067 5.75989 14.0067 5.37989V4.64656C14.0067 4.09323 14.2001 3.61989 14.5934 3.22656C14.9867 2.83323 15.4534 2.63989 16.0134 2.63989C16.5734 2.63989 17.0401 2.83323 17.4334 3.22656C17.8201 3.61323 18.0201 4.08656 18.0201 4.64656V5.37989C19.8201 5.75989 21.2734 6.68656 22.3734 8.16656C23.4734 9.64656 24.0267 11.3199 24.0267 13.1866V23.3199H25.6934C25.9801 23.3199 26.2201 23.4132 26.4134 23.6066C26.6001 23.7932 26.7001 24.0332 26.7001 24.3266C26.7001 24.6199 26.6067 24.8532 26.4134 25.0466C26.2201 25.2399 25.9867 25.3332 25.6934 25.3332H6.33341ZM5.00008 13.1332C4.71341 13.1332 4.47341 13.0332 4.28008 12.8332C4.09341 12.6332 4.00674 12.3866 4.02674 12.0999C4.16008 10.5199 4.58008 9.05323 5.29341 7.69989C6.00674 6.34656 6.92674 5.16656 8.06008 4.16656C8.28008 3.96656 8.53341 3.87323 8.81341 3.87989C9.09341 3.88656 9.32008 4.01989 9.50008 4.26656C9.68008 4.51323 9.74008 4.77323 9.68674 5.05323C9.63341 5.33323 9.49341 5.57323 9.26674 5.77323C8.38008 6.57323 7.65341 7.50656 7.10008 8.57323C6.54674 9.63989 6.20008 10.8066 6.06674 12.0732C6.02008 12.3866 5.90674 12.6399 5.71341 12.8399C5.52008 13.0399 5.28674 13.1399 4.99341 13.1399L5.00008 13.1332ZM27.0001 13.1332C26.7134 13.1332 26.4734 13.0332 26.2801 12.8332C26.0867 12.6332 25.9734 12.3799 25.9267 12.0666C25.7934 10.7999 25.4467 9.63323 24.8934 8.56656C24.3401 7.49989 23.6134 6.56656 22.7267 5.76656C22.5067 5.56656 22.3667 5.32656 22.3067 5.04656C22.2467 4.76656 22.3067 4.50656 22.4934 4.25989C22.6801 4.01323 22.9001 3.88656 23.1801 3.87323C23.4601 3.85989 23.7067 3.95989 23.9334 4.15989C25.0667 5.15989 25.9867 6.33989 26.7001 7.69323C27.4134 9.04656 27.8334 10.5132 27.9667 12.0932C27.9867 12.3799 27.9067 12.6266 27.7134 12.8266C27.5201 13.0266 27.2867 13.1266 26.9934 13.1266L27.0001 13.1332ZM16.0001 29.3332C15.3134 29.3332 14.7067 29.1332 14.1801 28.7332C13.6534 28.3332 13.3934 27.8132 13.3934 27.1666C13.3934 27.0132 13.4467 26.8866 13.5467 26.7999C13.6467 26.7132 13.7734 26.6666 13.9334 26.6666H18.0667C18.2201 26.6666 18.3534 26.7132 18.4534 26.7999C18.5534 26.8866 18.6067 27.0132 18.6067 27.1666C18.6067 27.8132 18.3467 28.3332 17.8201 28.7332C17.2934 29.1332 16.6934 29.3332 16.0001 29.3332Z" fill="currentColor"/>
</svg>
