<svg width="32" height="32" viewBox="0 0 32 32" fill="none" xmlns="http://www.w3.org/2000/svg">
<path d="M16 28C13.4 28 11.1934 27.0934 9.38003 25.28C7.5667 23.4667 6.66003 21.26 6.66003 18.66C6.66003 16.44 7.3467 14.4734 8.71337 12.7734C10.08 11.0734 11.84 9.98669 14 9.52002C13.42 9.40669 12.8667 9.24669 12.3334 9.03336C11.8 8.82002 11.32 8.50669 10.9 8.08002C10.28 7.43336 9.86003 6.69336 9.6467 5.84669C9.43337 5.00002 9.3267 4.13336 9.3267 3.24669V2.64669C11.24 2.60002 12.88 3.23336 14.26 4.53336C15.64 5.83336 16.3134 7.42669 16.2934 9.32002C16.6067 8.36669 17.0467 7.47336 17.6134 6.65336C18.18 5.83336 18.82 5.06669 19.5334 4.35336C19.7334 4.15336 19.9667 4.05336 20.2334 4.05336C20.5 4.05336 20.7334 4.15336 20.9334 4.35336C21.1334 4.55336 21.2334 4.78669 21.2334 5.05336C21.2334 5.32002 21.1334 5.55336 20.9334 5.75336C20.38 6.30669 19.88 6.90669 19.4334 7.55336C18.9867 8.20002 18.6134 8.87336 18.3 9.58669C20.3867 10.12 22.0867 11.2267 23.3867 12.9067C24.6867 14.5867 25.34 16.5 25.34 18.66C25.34 21.26 24.4334 23.4667 22.62 25.28C20.8067 27.0934 18.6 28 16 28Z" fill="#222343"/>
</svg>
