<svg width="32" height="32" viewBox="0 0 32 32" fill="none" xmlns="http://www.w3.org/2000/svg">
<path d="M5 27.9998C4.71333 27.9998 4.48 27.9065 4.28667 27.7132C4.09333 27.5198 4 27.2865 4 26.9998V18.9998C4 18.7132 4.09333 18.4798 4.28667 18.2865C4.48 18.0932 4.72 17.9998 5.00667 17.9998C5.29333 17.9998 5.52667 18.0932 5.72 18.2865C5.90667 18.4798 6.00667 18.7132 6.00667 18.9998V24.5998L24.6067 5.99983H19.0067C18.72 5.99983 18.4867 5.9065 18.2933 5.71316C18.1 5.51983 18.0067 5.27983 18.0067 4.99316C18.0067 4.7065 18.1 4.47316 18.2933 4.27983C18.4867 4.09316 18.72 3.99316 19.0067 3.99316H27.0067C27.2933 3.99316 27.5267 4.0865 27.72 4.27983C27.9133 4.47316 28.0067 4.7065 28.0067 4.99316V12.9932C28.0067 13.2798 27.9133 13.5132 27.72 13.7065C27.5267 13.8998 27.2867 13.9932 27 13.9932C26.7133 13.9932 26.48 13.8998 26.2867 13.7065C26.1 13.5132 26 13.2798 26 12.9932V7.39316L7.4 25.9932H13C13.2867 25.9932 13.52 26.0865 13.7133 26.2798C13.9067 26.4732 14 26.7132 14 26.9998C14 27.2865 13.9067 27.5198 13.7133 27.7132C13.52 27.8998 13.2867 27.9998 13 27.9998H5Z" fill="currentColor"/>
</svg>
