<svg width="32" height="32" viewBox="0 0 32 32" fill="none" xmlns="http://www.w3.org/2000/svg">
<path d="M16.3333 22.7H9C8.71333 22.7 8.47333 22.6067 8.28667 22.42C8.1 22.2333 8 21.9933 8 21.7C8 21.4067 8.09333 21.1733 8.28667 20.9867C8.48 20.8 8.71333 20.7 9 20.7H17.02C17.4067 19.9267 17.9267 19.2 18.58 18.54C20.1867 16.92 22.1533 16.1 24.4333 16.1C25.72 16.1 26.9133 16.38 28 16.9067V6C28 5.44667 27.8067 4.97333 27.4133 4.58667C27.02 4.2 26.5533 4 26 4H6C5.44667 4 4.97333 4.19333 4.58667 4.58667C4.2 4.97333 4 5.44667 4 6V29.1C4.12667 29.1 4.24667 29.0467 4.35333 28.94C4.35333 28.94 4.35333 28.94 4.36 28.94L5.62667 27.6733C5.74 27.56 5.86 27.5067 5.99333 27.5067C6.12667 27.5067 6.24667 27.56 6.36 27.6733L7.62667 28.94C7.74 29.0533 7.86 29.1067 7.99333 29.1067C8.12667 29.1067 8.24667 29.0533 8.36 28.94L9.62667 27.6733C9.74 27.56 9.86 27.5067 9.99333 27.5067C10.1267 27.5067 10.2467 27.56 10.36 27.6733L11.6267 28.94C11.74 29.0533 11.86 29.1067 11.9933 29.1067C12.1267 29.1067 12.2467 29.0533 12.36 28.94L13.6267 27.6733C13.74 27.56 13.86 27.5067 13.9933 27.5067C14.1267 27.5067 14.2467 27.56 14.36 27.6733L15.6267 28.94C15.74 29.0533 15.86 29.1067 15.9933 29.1067C16.1267 29.1067 16.2467 29.0533 16.36 28.94L17.0867 28.2133C16.4667 27.06 16.1533 25.7867 16.1533 24.4067C16.1533 23.82 16.2133 23.2533 16.32 22.7067L16.3333 22.7ZM8.28667 9.58C8.47333 9.39333 8.71333 9.3 9.00667 9.3H23.0067C23.2933 9.3 23.5333 9.39333 23.7267 9.58C23.92 9.76667 24.0067 10.0067 24.0067 10.3C24.0067 10.5933 23.9133 10.8267 23.7267 11.0133C23.54 11.2 23.3 11.3 23.0067 11.3H9C8.71333 11.3 8.47333 11.2067 8.28667 11.0133C8.1 10.82 8.00667 10.5867 8.00667 10.3C8.00667 10.0133 8.1 9.77333 8.28667 9.58ZM8.28667 15.28C8.47333 15.0933 8.71333 15 9.00667 15H18.8933C19.18 15 19.42 15.0933 19.6133 15.28C19.8 15.4667 19.8933 15.7067 19.8933 16C19.8933 16.2933 19.8 16.5267 19.6133 16.72C19.4267 16.9067 19.1867 17 18.8933 17H9.00667C8.72 17 8.48 16.9067 8.29333 16.72C8.10667 16.5333 8.01333 16.2933 8.01333 16C8.01333 15.7067 8.10667 15.4733 8.29333 15.28H8.28667Z" fill="#222343"/>
<path d="M28.8533 19.9466C27.62 18.7133 26.1467 18.1 24.44 18.1C22.7333 18.1 21.2267 18.72 20.0067 19.9466C18.7867 21.18 18.1733 22.6666 18.1733 24.4C18.1733 26.1333 18.7867 27.5533 20.0067 28.78C21.2267 30.0133 22.7067 30.6333 24.44 30.6333C26.1733 30.6333 27.6267 30.0133 28.8533 28.78C30.0867 27.5466 30.7067 26.0866 30.7067 24.4C30.7067 22.7133 30.0867 21.18 28.8533 19.9466ZM27.4067 23.5L24.0067 26.8333C23.8533 26.9866 23.6733 27.0666 23.4733 27.0666C23.2733 27.0666 23.0933 26.9866 22.94 26.8333L21.4733 25.3666C21.2733 25.1666 21.1733 24.9333 21.1733 24.6666C21.1733 24.4 21.2733 24.1666 21.4733 23.9666C21.6733 23.7666 21.9133 23.6666 22.1933 23.6666C22.4733 23.6666 22.7133 23.7666 22.9133 23.9666L23.48 24.5333L25.98 22.0666C26.18 21.8666 26.42 21.7666 26.7 21.7666C26.98 21.7666 27.22 21.8666 27.42 22.0666C27.62 22.2666 27.72 22.5066 27.72 22.78C27.72 23.0533 27.62 23.3 27.42 23.5H27.4067Z" fill="#222343"/>
</svg>
