<svg width="32" height="32" viewBox="0 0 32 32" fill="none" xmlns="http://www.w3.org/2000/svg">
<path d="M25.1 24.1V21.0333C25.1 20.8533 25.0333 20.7 24.9 20.5667C24.7667 20.4333 24.6133 20.3667 24.4333 20.3667C24.2533 20.3667 24.1 20.4333 23.9667 20.5667C23.8333 20.7 23.7667 20.8533 23.7667 21.0333V24.2333C23.7667 24.3667 23.7867 24.4867 23.8333 24.6C23.88 24.7133 23.9533 24.82 24.0667 24.9333L26.2 27.0667C26.3333 27.2 26.4867 27.2667 26.6667 27.2667C26.8467 27.2667 27 27.2 27.1333 27.0667C27.2667 26.9333 27.3333 26.78 27.3333 26.6C27.3333 26.42 27.2667 26.2667 27.1333 26.1333L25.1 24.1ZM24.4333 30.6333C22.7 30.6333 21.22 30.0133 20 28.78C18.78 27.5467 18.1667 26.0867 18.1667 24.3933C18.1667 22.7 18.78 21.18 20 19.9467C21.22 18.7133 22.7 18.1 24.4333 18.1C26.1467 18.1 27.6133 18.7133 28.8467 19.9467C30.08 21.18 30.7 22.66 30.6933 24.3933C30.6933 26.08 30.08 27.54 28.84 28.78C27.6067 30.0133 26.1333 30.6333 24.4267 30.6333H24.4333ZM10.3333 11.3333H21.6667C21.9533 11.3333 22.1933 11.24 22.3867 11.0533C22.5733 10.8667 22.6667 10.6267 22.6667 10.3333C22.6667 10.04 22.5733 9.80667 22.3867 9.62C22.2 9.43333 21.96 9.33333 21.6667 9.33333H10.3333C10.0467 9.33333 9.80667 9.42667 9.62 9.62C9.43333 9.80667 9.33333 10.0467 9.33333 10.3333C9.33333 10.62 9.42667 10.86 9.62 11.0533C9.80667 11.24 10.0467 11.3333 10.3333 11.3333ZM17 28H6C5.44667 28 4.97333 27.8067 4.58667 27.4133C4.2 27.02 4 26.5533 4 26V6C4 5.44667 4.19333 4.97333 4.58667 4.58667C4.98 4.2 5.44667 4 6 4H26C26.5533 4 27.0267 4.19333 27.4133 4.58667C27.8 4.98 28 5.44667 28 6V16.9667C27.4467 16.68 26.8667 16.4667 26.2667 16.3333C25.6667 16.2 25.0533 16.1333 24.4333 16.1333C24.12 16.1333 23.82 16.1467 23.5333 16.1867C23.2467 16.22 22.9533 16.2667 22.6667 16.34V16.0067C22.6667 15.74 22.5667 15.5067 22.3667 15.3067C22.1667 15.1067 21.9333 15.0067 21.6667 15.0067H10.3333C10.0467 15.0067 9.80667 15.1 9.62 15.2867C9.43333 15.4733 9.33333 15.7133 9.33333 16.0067C9.33333 16.3 9.42667 16.5333 9.62 16.7267C9.80667 16.9133 10.0467 17.0067 10.3333 17.0067H20.8C20 17.4067 19.2867 17.9267 18.6467 18.56C18.0133 19.1933 17.4933 19.9 17.0933 20.6733H10.3267C10.04 20.6733 9.8 20.7667 9.61333 20.9533C9.42667 21.14 9.32667 21.38 9.32667 21.6733C9.32667 21.9667 9.42 22.2 9.61333 22.3933C9.8 22.58 10.04 22.6733 10.3267 22.6733H16.36C16.2933 22.96 16.2467 23.2533 16.2067 23.54C16.1733 23.8267 16.1533 24.1267 16.1533 24.44C16.1533 25.0867 16.22 25.6933 16.3533 26.2733C16.4867 26.8533 16.7 27.4267 16.9867 28.0067L17 28Z" fill="#222343"/>
</svg>
