<svg width="32" height="32" viewBox="0 0 32 32" fill="none" xmlns="http://www.w3.org/2000/svg">
<path d="M15.9666 25.5666C16.2133 25.5666 16.42 25.4733 16.6 25.2866C16.78 25.1 16.8666 24.88 16.8666 24.64V23.84C18.2 23.6866 19.2466 23.2333 20.02 22.4866C20.7866 21.74 21.1733 20.7933 21.1733 19.64C21.1733 18.4866 20.8533 17.56 20.2266 16.8733C19.5933 16.1866 18.5 15.5866 16.94 15.0733C15.54 14.6066 14.58 14.1466 14.0533 13.6866C13.5333 13.2333 13.2666 12.64 13.2666 11.9066C13.2666 11.22 13.52 10.68 14.0133 10.2866C14.5066 9.89329 15.2 9.69996 16.0666 9.69996C16.6 9.69996 17.08 9.79996 17.5 9.99996C17.92 10.2 18.2866 10.5 18.6 10.9C18.7533 11.08 18.9466 11.2 19.1666 11.2666C19.3866 11.3333 19.6 11.3133 19.8 11.2C20.0466 11.0866 20.2066 10.9133 20.2866 10.6666C20.3666 10.42 20.3266 10.2 20.1733 9.99996C19.7933 9.46663 19.3333 9.04663 18.7866 8.73329C18.24 8.41996 17.6266 8.23329 16.94 8.16663V7.36663C16.94 7.11996 16.8533 6.91329 16.6733 6.73329C16.4933 6.55329 16.2866 6.46663 16.04 6.46663C15.7933 6.46663 15.58 6.55329 15.3866 6.73329C15.1933 6.91329 15.1066 7.11996 15.1066 7.36663V8.16663C13.9733 8.31996 13.08 8.73329 12.4266 9.39996C11.7733 10.0666 11.44 10.9 11.44 11.9C11.44 12.9866 11.7266 13.8533 12.2866 14.5C12.8533 15.1466 13.9 15.7533 15.4333 16.3333C17.0133 16.9333 18.0533 17.4533 18.5666 17.9C19.08 18.3466 19.3333 18.92 19.3333 19.6333C19.3333 20.3466 19.0333 20.98 18.4333 21.4866C17.8333 21.9866 17.1 22.24 16.2333 22.2333C15.5 22.2333 14.8266 22.0533 14.22 21.7C13.6066 21.3466 13.14 20.8466 12.8066 20.2C12.6933 20.02 12.5466 19.88 12.36 19.7866C12.1733 19.6933 11.98 19.6733 11.7733 19.7333C11.4866 19.8466 11.2866 20.02 11.1866 20.2466C11.0866 20.48 11.1133 20.72 11.2666 20.9666C11.7133 21.7 12.24 22.2933 12.8533 22.7533C13.4666 23.2133 14.1933 23.5466 15.0333 23.7733V24.6733C15.0333 24.92 15.1266 25.1266 15.3133 25.3066C15.5 25.4866 15.72 25.5733 15.9666 25.5733V25.5666ZM16 29.3333C14.1133 29.3333 12.3533 28.9933 10.7333 28.3133C9.11329 27.6333 7.69996 26.7 6.49996 25.5C5.29996 24.3 4.35996 22.8866 3.68663 21.2666C3.00663 19.6466 2.66663 17.8866 2.66663 16C2.66663 14.1133 3.00663 12.3866 3.68663 10.7666C4.36663 9.14663 5.30663 7.73329 6.49996 6.53329C7.69996 5.33329 9.11329 4.38663 10.7333 3.69996C12.3533 3.01329 14.1133 2.66663 16 2.66663C17.8866 2.66663 19.6133 3.01329 21.2333 3.69996C22.8533 4.38663 24.2666 5.33329 25.4666 6.53329C26.6666 7.73329 27.6133 9.14663 28.3 10.7666C28.9866 12.3866 29.3333 14.1333 29.3333 16C29.3333 17.8666 28.9866 19.6466 28.3 21.2666C27.6133 22.8866 26.6666 24.3 25.4666 25.5C24.2666 26.7 22.8533 27.64 21.2333 28.3133C19.6133 28.9933 17.8666 29.3333 16 29.3333Z" fill="#222343"/>
</svg>
