<svg width="32" height="32" viewBox="0 0 32 32" fill="none" xmlns="http://www.w3.org/2000/svg">
<path d="M17.2867 17.8467H15.72V22.2134H17.2867V17.8467Z" fill="#222343"/>
<path d="M11.78 17.8467H10.18V19.4467H11.78V17.8467Z" fill="#222343"/>
<path d="M26.5 10.0134C26.3867 9.76008 26.2467 9.54008 26.0667 9.36675L19.9667 3.26675C19.7867 3.08675 19.5734 2.94675 19.32 2.83341C19.0667 2.72008 18.8 2.66675 18.5334 2.66675H7.33337C6.80004 2.66675 6.33337 2.86675 5.93337 3.26675C5.53337 3.66675 5.33337 4.13341 5.33337 4.66675V27.3334C5.33337 27.8667 5.53337 28.3334 5.93337 28.7334C6.33337 29.1334 6.80004 29.3334 7.33337 29.3334H24.6667C25.2 29.3334 25.6667 29.1334 26.0667 28.7334C26.4667 28.3334 26.6667 27.8667 26.6667 27.3334V10.8001C26.6667 10.5334 26.6134 10.2734 26.5 10.0134ZM13.0134 19.4467C13.0134 19.8001 12.8934 20.0934 12.66 20.3267C12.42 20.5667 12.1267 20.6801 11.78 20.6801H10.18V22.8134C10.18 22.9867 10.1267 23.1334 10.0134 23.2601C9.90004 23.3867 9.76004 23.4467 9.58004 23.4467C9.41337 23.4467 9.26671 23.3934 9.14004 23.2801C9.00671 23.1734 8.94671 23.0201 8.94671 22.8334V17.2267C8.94671 17.0401 9.00671 16.8934 9.14004 16.7801C9.26004 16.6734 9.41337 16.6134 9.58004 16.6134H11.78C12.1267 16.6134 12.42 16.7334 12.66 16.9734C12.8934 17.2067 13.0134 17.5001 13.0134 17.8467V19.4467ZM18.5134 22.2134C18.5134 22.5667 18.3934 22.8601 18.1467 23.0934C17.9 23.3334 17.6134 23.4467 17.28 23.4467H15.1134C14.9467 23.4467 14.7934 23.3867 14.6734 23.2667C14.54 23.1467 14.48 22.9867 14.48 22.8067V17.2267C14.48 17.0401 14.54 16.8934 14.6734 16.7801C14.7934 16.6734 14.9467 16.6134 15.1134 16.6134H17.28C17.6134 16.6134 17.9 16.7334 18.1467 16.9734C18.3934 17.2067 18.5134 17.5001 18.5134 17.8467V22.2134ZM22.4467 19.4467C22.6267 19.4467 22.7667 19.5067 22.88 19.6134C22.9934 19.7267 23.0467 19.8734 23.0467 20.0467C23.0467 20.2201 22.9934 20.3667 22.88 20.4934C22.7667 20.6201 22.6267 20.6801 22.4467 20.6801H21.38V22.8134C21.38 22.9867 21.3267 23.1334 21.2134 23.2601C21.1 23.3867 20.96 23.4467 20.78 23.4467C20.6134 23.4467 20.4667 23.3934 20.34 23.2801C20.2067 23.1734 20.1467 23.0201 20.1467 22.8334V17.2267C20.1467 17.0401 20.2067 16.8934 20.34 16.7801C20.4667 16.6734 20.6134 16.6134 20.78 16.6134H22.4467C22.6267 16.6134 22.7667 16.6734 22.88 16.7801C22.9934 16.8934 23.0467 17.0401 23.0467 17.2134C23.0467 17.3867 22.9934 17.5334 22.88 17.6601C22.7667 17.7867 22.6267 17.8467 22.4467 17.8467H21.38V19.4467H22.4467ZM19.3667 10.8667C19.08 10.8667 18.84 10.7734 18.6534 10.5801C18.4667 10.3934 18.3667 10.1534 18.3667 9.86675V4.66675L24.6667 10.8667H19.3667Z" fill="#222343"/>
</svg>
