<svg width="32" height="32" viewBox="0 0 32 32" fill="none" xmlns="http://www.w3.org/2000/svg">
<path d="M24.1333 4.38009C24.38 4.13343 24.6667 4.01343 25 4.01343C25.3333 4.01343 25.62 4.13343 25.8667 4.38009L28.3 6.81343C28.5467 7.06009 28.6667 7.33343 28.6667 7.64676C28.6667 7.96009 28.5467 8.23343 28.3 8.48009L26.8 9.98009L27.5667 10.7468C28.1467 11.3268 28.4267 11.8868 28.42 12.4334C28.4133 12.9801 28.1267 13.5268 27.5667 14.0868L20.7 20.9534C20.5 21.1534 20.26 21.2534 19.98 21.2534C19.7 21.2534 19.46 21.1534 19.26 20.9534C19.06 20.7534 18.9533 20.5201 18.94 20.2534C18.9267 19.9868 19.0267 19.7534 19.2267 19.5534L26.3267 12.4534L25.3267 11.4534L20.16 16.6201L16.0267 12.4868L24.1333 4.38009Z" fill="#222343"/>
<path d="M9.79333 16.8734L8.38 18.2934C7.99333 17.9734 7.63333 17.6268 7.30667 17.2668C4.76 14.4601 4.88667 11.2534 7.7 7.46676C8.02667 7.02676 8.65333 6.93343 9.09333 7.26676C9.54 7.59343 9.63333 8.22009 9.3 8.66009C6.46667 12.4801 7.54 14.5468 8.78667 15.9268C9.08667 16.2534 9.42667 16.5668 9.79333 16.8734Z" fill="#222343"/>
<path d="M4.84003 23.9001C4.7267 24.1601 4.67337 24.4201 4.67337 24.6868L4.66003 24.6734V26.9734C4.66003 27.2668 4.76003 27.5068 4.9467 27.6934C4.95411 27.7008 4.96159 27.7081 4.96914 27.7152C5.05461 27.7994 5.15675 27.8694 5.27338 27.9201L5.3069 27.934C5.59965 28.056 7.35055 28.7856 9.49331 29.28C10.64 29.5467 11.9066 29.7467 13.12 29.7467C14.1533 29.7467 15.1466 29.6001 16 29.2334C17.1733 28.7267 17.98 27.8801 18.4066 26.7001C18.9666 25.1601 18.6266 23.6934 17.4066 22.3334C17.2466 22.1534 17.0733 21.9801 16.8866 21.8067L15.48 23.2334C15.64 23.3801 15.7866 23.5267 15.92 23.6734C16.6466 24.4801 16.8266 25.1801 16.5266 26.0201C16.2933 26.6667 15.86 27.1134 15.2133 27.3934C14.1533 27.8534 12.6667 27.8201 11.1734 27.5801C10.6259 27.4894 10.0776 27.3708 9.54914 27.2377L18.74 18.0468L14.6067 13.9134L5.27337 23.2468C5.09337 23.4268 4.95337 23.6468 4.84003 23.9001Z" fill="#222343"/>
</svg>
