<svg width="32" height="32" viewBox="0 0 32 32" fill="none" xmlns="http://www.w3.org/2000/svg">
<path fill-rule="evenodd" clip-rule="evenodd" d="M10.2334 22.6999H15.8467C15.78 23.1332 15.74 23.5732 15.74 24.0333C15.74 25.4799 16.0867 26.8066 16.7667 27.9999H6.00671C5.45338 27.9999 4.98005 27.7999 4.59338 27.4132C4.20005 27.0266 4.00671 26.5533 4.00671 25.9999V5.99992C4.00671 5.44659 4.20671 4.97325 4.59338 4.58659C4.98005 4.19325 5.45338 3.99992 6.00671 3.99992H12.84C12.9534 3.21992 13.3067 2.57992 13.9067 2.07992C14.5067 1.58659 15.2067 1.33325 16.0067 1.33325C16.8067 1.33325 17.5067 1.57992 18.1067 2.07992C18.7067 2.58659 19.06 3.21992 19.1734 3.99992H26.0067C26.56 3.99992 27.0334 4.19992 27.42 4.58659C27.8134 4.97325 28.0067 5.44659 28.0067 5.99992V16.7599C26.8067 16.0799 25.4667 15.7266 24.0067 15.7266C23.5667 15.7266 23.1534 15.7666 22.74 15.8266C22.7067 15.6199 22.6334 15.4266 22.4867 15.2799C22.2934 15.0933 22.0534 14.9999 21.7667 14.9999H10.2334C9.94005 14.9999 9.70005 15.0933 9.51338 15.2799C9.32671 15.4733 9.23338 15.7133 9.23338 15.9999C9.23338 16.2866 9.32671 16.5266 9.51338 16.7133C9.70671 16.9066 9.94671 16.9999 10.2334 16.9999H19.6C19.0867 17.3266 18.6 17.7133 18.1467 18.1733C17.3867 18.9399 16.8134 19.7866 16.4134 20.6999H10.2334C9.94005 20.6999 9.70005 20.7999 9.51338 20.9866C9.32671 21.1733 9.23338 21.4066 9.23338 21.6999C9.23338 21.9932 9.32005 22.2333 9.51338 22.4199C9.70671 22.6066 9.94671 22.6999 10.2334 22.6999ZM15.9934 3.09992C15.6867 3.09992 15.4134 3.21325 15.18 3.44659C14.94 3.67992 14.8267 3.95325 14.8267 4.26659C14.8267 4.57992 14.9467 4.85325 15.18 5.08659C15.4067 5.31992 15.68 5.43325 15.9934 5.43325C16.3067 5.43325 16.58 5.31992 16.8134 5.08659C17.0467 4.85325 17.16 4.57992 17.16 4.26659C17.16 3.95325 17.0467 3.67992 16.8134 3.44659C16.58 3.21325 16.3 3.09992 15.9934 3.09992ZM10.2334 9.29325C9.94005 9.29325 9.70005 9.39325 9.51338 9.57992C9.32671 9.76658 9.23338 9.99992 9.23338 10.2933C9.23338 10.5866 9.32005 10.8266 9.51338 11.0133C9.70671 11.1999 9.94671 11.2933 10.2334 11.2933H21.7667C22.06 11.2933 22.3 11.2066 22.4867 11.0133C22.6734 10.8199 22.7667 10.5799 22.7667 10.2933C22.7667 10.0066 22.68 9.77325 22.4867 9.57992C22.2934 9.38658 22.0534 9.29325 21.7667 9.29325H10.2334Z" fill="#222343"/>
<path fill-rule="evenodd" clip-rule="evenodd" d="M23.9999 17.7334C25.7066 17.7334 27.1799 18.3467 28.4133 19.5801C29.6533 20.8134 30.2666 22.3467 30.2666 24.0334C30.2666 25.7201 29.6466 27.1801 28.4133 28.4134C27.1866 29.6467 25.7333 30.2601 23.9999 30.2601C22.2666 30.2601 20.7866 29.6467 19.5666 28.4134C18.3466 27.1801 17.7333 25.7667 17.7333 24.0334C17.7333 22.3001 18.3466 20.8134 19.5666 19.5801C20.7866 18.3467 22.2933 17.7334 23.9999 17.7334ZM26.2333 26.9001C26.4133 26.9001 26.5666 26.8334 26.6999 26.7001C26.8333 26.5667 26.8999 26.4134 26.8999 26.2334C26.8999 26.0534 26.8333 25.9001 26.6999 25.7667L24.6666 23.7334V20.6667C24.6666 20.4867 24.5999 20.3334 24.4666 20.2001C24.3333 20.0667 24.1799 20.0001 23.9999 20.0001C23.8199 20.0001 23.6666 20.0667 23.5333 20.2001C23.3999 20.3334 23.3333 20.4867 23.3333 20.6667V23.8667C23.3333 24.0001 23.3533 24.1201 23.3999 24.2334C23.4466 24.3467 23.5199 24.4534 23.6333 24.5667L25.7666 26.7001C25.8999 26.8334 26.0533 26.9001 26.2333 26.9001Z" fill="#222343"/>
</svg>
