<svg width="32" height="32" viewBox="0 0 32 32" fill="none" xmlns="http://www.w3.org/2000/svg">
<path d="M23.2667 13.6134C22.98 13.6134 22.74 13.5201 22.5467 13.3334C22.3533 13.1467 22.2667 12.9067 22.2667 12.6134C22.2667 12.3201 22.36 12.0867 22.5467 11.8934C22.7333 11.7001 22.9733 11.6134 23.2667 11.6134H29C29.2867 11.6134 29.5267 11.7067 29.72 11.8934C29.9133 12.0801 30 12.3201 30 12.6134C30 12.9067 29.9067 13.1401 29.72 13.3334C29.5333 13.5201 29.2933 13.6134 29 13.6134H23.2667ZM12.6667 15.6467C11.2 15.6467 10 15.1801 9.06667 14.2467C8.13333 13.3134 7.66667 12.1134 7.66667 10.6467C7.66667 9.18006 8.13333 7.98006 9.06667 7.04673C10 6.11339 11.2 5.64673 12.6667 5.64673C14.1333 5.64673 15.3333 6.11339 16.2667 7.04673C17.2 7.98006 17.6667 9.18006 17.6667 10.6467C17.6667 12.1134 17.2 13.3134 16.2667 14.2467C15.3333 15.1801 14.1333 15.6467 12.6667 15.6467ZM3 26.3467C2.71333 26.3467 2.47333 26.2534 2.28 26.0667C2.08667 25.8801 2 25.6401 2 25.3467V23.2134C2 22.4334 2.19333 21.7334 2.58667 21.1001C2.97333 20.4667 3.53333 19.9934 4.27333 19.6867C5.94 18.9534 7.42 18.4334 8.72667 18.1334C10.0267 17.8334 11.34 17.6867 12.6733 17.6867C14.0067 17.6867 15.32 17.8401 16.6067 18.1334C17.8933 18.4334 19.3733 18.9534 21.04 19.6867C21.7733 20.0201 22.34 20.5001 22.74 21.1201C23.14 21.7401 23.34 22.4401 23.34 23.2201V25.3534C23.34 25.6401 23.2467 25.8801 23.06 26.0734C22.8733 26.2601 22.6333 26.3534 22.34 26.3534H3V26.3467Z" fill="#222343"/>
</svg>
