<svg width="32" height="32" viewBox="0 0 32 32" fill="none" xmlns="http://www.w3.org/2000/svg">
<path d="M22.5467 13.3332C22.74 13.5198 22.98 13.6132 23.2667 13.6132H25.1333V15.4799C25.1333 15.7732 25.2267 16.0132 25.4133 16.1999C25.6067 16.3866 25.84 16.4799 26.1333 16.4799C26.4267 16.4799 26.6667 16.3932 26.8533 16.1999C27.04 16.0066 27.1333 15.7666 27.1333 15.4799V13.6132H29C29.2933 13.6132 29.5333 13.5198 29.72 13.3332C29.9067 13.1398 30 12.9065 30 12.6132C30 12.3198 29.9133 12.0798 29.72 11.8932C29.5267 11.7065 29.2867 11.6132 29 11.6132H27.1333V9.74658C27.1333 9.45325 27.0467 9.21325 26.8533 9.02658C26.66 8.83991 26.4267 8.74658 26.1333 8.74658C25.84 8.74658 25.6 8.83325 25.4133 9.02658C25.2267 9.21991 25.1333 9.45992 25.1333 9.74658V11.6132H23.2667C22.9733 11.6132 22.7333 11.6998 22.5467 11.8932C22.36 12.0865 22.2667 12.3198 22.2667 12.6132C22.2667 12.9065 22.3533 13.1465 22.5467 13.3332Z" fill="#222343"/>
<path d="M9.06667 14.2465C10 15.1798 11.2 15.6465 12.6667 15.6465C14.1333 15.6465 15.3333 15.1798 16.2667 14.2465C17.2 13.3132 17.6667 12.1132 17.6667 10.6465C17.6667 9.17982 17.2 7.97982 16.2667 7.04648C15.3333 6.11315 14.1333 5.64648 12.6667 5.64648C11.2 5.64648 10 6.11315 9.06667 7.04648C8.13333 7.97982 7.66667 9.17982 7.66667 10.6465C7.66667 12.1132 8.13333 13.3132 9.06667 14.2465Z" fill="#222343"/>
<path d="M2.28 26.0665C2.47333 26.2531 2.71333 26.3465 3 26.3465V26.3531H22.34C22.6333 26.3531 22.8733 26.2598 23.06 26.0732C23.2467 25.8798 23.34 25.6398 23.34 25.3531V23.2198C23.34 22.4398 23.14 21.7398 22.74 21.1198C22.34 20.4998 21.7733 20.0198 21.04 19.6865C19.3733 18.9532 17.8933 18.4332 16.6067 18.1332C15.32 17.8398 14.0067 17.6865 12.6733 17.6865C11.34 17.6865 10.0267 17.8332 8.72667 18.1332C7.42 18.4332 5.94 18.9532 4.27333 19.6865C3.53333 19.9932 2.97333 20.4665 2.58667 21.0998C2.19333 21.7332 2 22.4331 2 23.2132V25.3465C2 25.6398 2.08667 25.8798 2.28 26.0665Z" fill="#222343"/>
</svg>
