<svg width="32" height="32" viewBox="0 0 32 32" fill="none" xmlns="http://www.w3.org/2000/svg">
<path d="M16 15.6533C14.5333 15.6533 13.3333 15.1867 12.4 14.2533C11.4667 13.32 11 12.12 11 10.6533C11 9.18665 11.4667 7.98665 12.4 7.05332C13.3333 6.11999 14.5333 5.65332 16 5.65332C17.4667 5.65332 18.6667 6.11999 19.6 7.05332C20.5333 7.98665 21 9.18665 21 10.6533C21 12.12 20.5333 13.32 19.6 14.2533C18.6667 15.1867 17.4667 15.6533 16 15.6533ZM7.33334 26.3533C6.78001 26.3533 6.30668 26.16 5.92001 25.7667C5.53334 25.3733 5.33334 24.9067 5.33334 24.3533V23.22C5.33334 22.3733 5.54668 21.6533 5.96668 21.0533C6.38668 20.4533 6.93334 20 7.60001 19.6867C9.08668 19.02 10.52 18.52 11.8867 18.1867C13.2533 17.8533 14.6267 17.6867 16 17.6867C17.3733 17.6867 18.7467 17.86 20.1 18.2C21.4533 18.5467 22.88 19.04 24.3667 19.6867C25.0533 20 25.6133 20.4533 26.0333 21.0533C26.4533 21.6533 26.6667 22.3733 26.6667 23.22V24.3533C26.6667 24.9067 26.4733 25.38 26.08 25.7667C25.6867 26.1533 25.22 26.3533 24.6667 26.3533H7.33334Z" fill="#222343"/>
</svg>
