<svg width="32" height="32" viewBox="0 0 32 32" fill="none" xmlns="http://www.w3.org/2000/svg">
<path d="M26.4 28.9134L23.8 26.3467H7.33329C6.77996 26.3467 6.30662 26.1534 5.91329 25.76C5.51996 25.3667 5.32662 24.9 5.32662 24.34V23.2067C5.32662 22.36 5.53996 21.64 5.95996 21.04C6.37996 20.44 6.92662 19.9867 7.59329 19.6734C8.92662 19.0734 10.2133 18.6067 11.4466 18.2734C12.68 17.94 13.92 17.7534 15.1666 17.7067L2.73329 5.28004C2.53329 5.08004 2.43996 4.84004 2.44662 4.56004C2.45329 4.28004 2.56662 4.04004 2.76662 3.84004C2.96662 3.64004 3.20662 3.54004 3.48662 3.54004C3.76662 3.54004 4.00662 3.64004 4.20662 3.84004L27.84 27.5067C28.04 27.7067 28.14 27.94 28.14 28.2067C28.14 28.4734 28.04 28.7067 27.84 28.9067C27.64 29.1067 27.4 29.2067 27.12 29.2067C26.84 29.2067 26.6 29.1067 26.4 28.9067V28.9134ZM24.3666 19.68C25.0533 19.9934 25.6133 20.4467 26.0333 21.0467C26.4533 21.6467 26.6666 22.3667 26.6666 23.2134V23.48L21.9 18.7134C22.3 18.8467 22.7066 19 23.12 19.1667C23.5333 19.3334 23.9466 19.5067 24.3733 19.6867L24.3666 19.68ZM18.3333 15.1467L11.5 8.31337C11.92 7.46671 12.54 6.81337 13.3533 6.34671C14.1666 5.88004 15.0466 5.64671 16.0066 5.64671C17.4066 5.64671 18.5933 6.13337 19.56 7.10004C20.5266 8.06671 21.0133 9.25337 21.0133 10.6534C21.0133 11.6067 20.78 12.4934 20.3133 13.3067C19.8466 14.12 19.1933 14.7334 18.3466 15.16L18.3333 15.1467Z" fill="currentColor"/>
</svg>
