<svg width="32" height="32" viewBox="0 0 32 32" fill="none" xmlns="http://www.w3.org/2000/svg">
<path d="M26.8 15.7667C26.5533 15.7667 26.34 15.68 26.1533 15.5C25.9667 15.32 25.8467 15.1 25.8 14.8333C25.4867 12.5467 24.5133 10.58 22.88 8.95333C21.2467 7.32 19.2867 6.34667 16.9933 6.03333C16.7267 5.98667 16.5067 5.87333 16.3267 5.68667C16.1467 5.5 16.06 5.26667 16.06 5C16.06 4.71333 16.16 4.46667 16.36 4.26667C16.56 4.06667 16.8067 3.98667 17.0933 4.03333C19.9133 4.34667 22.3267 5.5 24.3267 7.5C26.3267 9.5 27.48 11.9133 27.7933 14.7333C27.84 15.02 27.76 15.2667 27.56 15.4667C27.36 15.6667 27.1067 15.7667 26.7933 15.7667H26.8ZM21.0667 15.7667C20.8467 15.7667 20.64 15.6933 20.4533 15.5467C20.2667 15.4 20.14 15.2067 20.0667 14.96C19.8467 14.18 19.4533 13.5133 18.8867 12.9467C18.32 12.38 17.6467 11.9867 16.8667 11.7667C16.62 11.7 16.4267 11.5867 16.28 11.42C16.1333 11.2533 16.06 11.0467 16.06 10.8067C16.06 10.4733 16.1733 10.2067 16.3933 10.0067C16.6133 9.80667 16.88 9.74 17.1933 9.80667C18.3933 10.0933 19.4267 10.6733 20.2933 11.54C21.16 12.4067 21.7467 13.44 22.06 14.64C22.1267 14.9533 22.06 15.22 21.86 15.44C21.66 15.66 21.3933 15.7733 21.06 15.7733L21.0667 15.7667ZM26.5 28C23.7867 28 21.0933 27.3333 18.42 26C15.7467 24.6667 13.3333 22.9333 11.2 20.8C9.06667 18.6667 7.33333 16.26 6 13.58C4.66667 10.9 4 8.20667 4 5.5C4 5.08 4.14667 4.72 4.43333 4.43333C4.72 4.14667 5.08 4 5.5 4H10.1667C10.48 4 10.7533 4.10667 10.9867 4.31333C11.22 4.52667 11.3733 4.80667 11.4333 5.16667L12.3333 9.36667C12.38 9.68 12.3733 9.96 12.32 10.2133C12.2667 10.4667 12.1467 10.6867 11.9733 10.86L8.64 14.2267C9.88667 16.2933 11.28 18.0933 12.82 19.6267C14.3667 21.16 16.1133 22.46 18.0733 23.5267L21.24 20.26C21.46 20.0133 21.72 19.8467 22.0067 19.7467C22.2933 19.6467 22.5867 19.6267 22.8733 19.6933L26.84 20.56C27.1733 20.6267 27.4533 20.7933 27.6733 21.06C27.8933 21.3267 28.0067 21.64 28.0067 21.9933V26.4933C28.0067 26.9133 27.86 27.2733 27.5733 27.56C27.2867 27.8467 26.9267 27.9933 26.5067 27.9933L26.5 28Z" fill="#222343"/>
</svg>
