<svg width="32" height="32" viewBox="0 0 32 32" fill="none" xmlns="http://www.w3.org/2000/svg">
<path d="M16.0001 23.1001C17.6001 23.1001 18.9467 22.5534 20.0334 21.4667C21.1201 20.3801 21.6667 19.0334 21.6667 17.4334C21.6667 15.8334 21.1201 14.4601 20.0334 13.3801C18.9467 12.3001 17.6001 11.7601 16.0001 11.7601C14.4001 11.7601 13.0267 12.3001 11.9467 13.3801C10.8667 14.4601 10.3267 15.8067 10.3267 17.4334C10.3267 19.0601 10.8667 20.3801 11.9467 21.4667C13.0267 22.5534 14.3734 23.1001 16.0001 23.1001ZM16.0001 21.1001C14.9334 21.1001 14.0534 20.7467 13.3667 20.0467C12.6801 19.3467 12.3334 18.4734 12.3334 17.4267C12.3334 16.3801 12.6801 15.4801 13.3667 14.7934C14.0534 14.1067 14.9334 13.7601 16.0001 13.7601C17.0667 13.7601 17.9201 14.1067 18.6201 14.7934C19.3201 15.4801 19.6734 16.3601 19.6734 17.4267C19.6734 18.4934 19.3201 19.3467 18.6201 20.0467C17.9201 20.7467 17.0467 21.1001 16.0001 21.1001ZM4.66675 28.0001C4.13341 28.0001 3.66675 27.8001 3.26675 27.4001C2.86675 27.0001 2.66675 26.5334 2.66675 26.0001V8.90008C2.66675 8.38674 2.86675 7.92674 3.26675 7.51341C3.66675 7.10008 4.13341 6.89341 4.66675 6.89341H9.56675L11.4001 4.69341C11.5801 4.44674 11.8001 4.27341 12.0667 4.16007C12.3334 4.04674 12.6201 3.99341 12.9334 3.99341H19.0667C19.3801 3.99341 19.6667 4.04674 19.9334 4.16007C20.2001 4.27341 20.4201 4.44674 20.6001 4.69341L22.4334 6.89341H27.3334C27.8467 6.89341 28.3067 7.10008 28.7201 7.51341C29.1334 7.92674 29.3401 8.38674 29.3401 8.90008V26.0001C29.3401 26.5334 29.1334 27.0001 28.7201 27.4001C28.3067 27.8001 27.8467 28.0001 27.3334 28.0001H4.66675Z" fill="currentColor"/>
</svg>
