<svg width="32" height="32" viewBox="0 0 32 32" fill="none" xmlns="http://www.w3.org/2000/svg">
<path d="M29.1667 13.8467C28.2534 8.21332 23.8067 3.76665 18.1734 2.85332C17.5667 2.75332 17.02 3.23332 17.02 3.84665V14C17.02 14.5533 17.4667 15 18.02 15C20.2867 15 25.8 15 28.18 15C28.7934 15 29.2667 14.4533 29.1667 13.8467Z" fill="#222343"/>
<path d="M18.1667 29.1466C23.8 28.2333 28.2467 23.7866 29.16 18.1533C29.26 17.5466 28.7867 17 28.1734 17C25.7934 17 20.28 17 18.0134 17C17.46 17 17.0134 17.4466 17.0134 18V28.1533C17.0134 28.7666 17.56 29.2466 18.1667 29.1466Z" fill="#222343"/>
<path d="M2.67999 16C2.67999 22.6267 7.51999 28.1133 13.8533 29.1467C14.46 29.2467 15.0133 28.7667 15.0133 28.1533V3.84665C15.0133 3.23332 14.46 2.75332 13.8533 2.85332C7.51999 3.88665 2.67999 9.37332 2.67999 16Z" fill="#222343"/>
</svg>
