<svg width="32" height="32" viewBox="0 0 32 32" fill="none" xmlns="http://www.w3.org/2000/svg">
<path d="M21.7999 20.0667L25.1999 16.7334C25.8666 16.0667 26.3333 15.3334 26.7333 14.4667C27.1333 13.6001 27.2666 12.6667 27.2666 11.7334C27.2666 9.80007 26.5999 8.1334 25.1999 6.80007C23.8666 5.46673 22.1999 4.7334 20.2666 4.7334C18.3333 4.7334 18.3999 4.9334 17.5333 5.26673C16.6666 5.60007 15.9333 6.1334 15.2666 6.80007L11.9333 10.2001L21.8666 20.1334L21.7999 20.0667ZM11.7999 27.2001C12.7333 27.2001 13.6666 27.0001 14.5333 26.6667C15.3999 26.3334 16.1333 25.8001 16.7999 25.1334L20.1333 21.7334L10.1999 11.8001L6.79994 15.1334C6.13328 15.8001 5.66661 16.5334 5.26661 17.4001C4.86661 18.2667 4.73328 19.2001 4.73328 20.1334C4.73328 22.0667 5.39994 23.7334 6.79994 25.0667C8.13328 26.4001 9.79994 27.1334 11.7333 27.1334L11.7999 27.2001Z" fill="#222343"/>
</svg>
