<svg width="32" height="32" viewBox="0 0 32 32" fill="none" xmlns="http://www.w3.org/2000/svg">
<g clip-path="url(#clip0_4093_363)">
<path d="M15.15 18.2812C15.4875 17.9437 16.0687 17.9437 16.4062 18.2812L21.2187 23.0937C22.1062 23.9812 23.2875 24.4687 24.5375 24.4687H25.4812L19.4125 30.5375C17.5187 32.3812 14.4437 32.3812 12.55 30.5375L6.45622 24.45H7.03747C8.28747 24.45 9.46872 23.9625 10.3562 23.075L15.15 18.2812ZM16.4062 13.6812C16.0062 14.025 15.4937 14.0312 15.15 13.6812L10.3562 8.88747C9.46872 7.94372 8.28747 7.51247 7.03747 7.51247H6.45622L12.5437 1.42247C14.4437 -0.474156 17.5187 -0.474156 19.4125 1.42247L25.4875 7.49372H24.5375C23.2875 7.49372 22.1062 7.98122 21.2187 8.86872L16.4062 13.6812ZM7.03747 8.91872C7.89997 8.91872 8.69372 9.26872 9.35622 9.88122L14.15 14.675C14.6 15.0687 15.1875 15.35 15.7812 15.35C16.3687 15.35 16.9562 15.0687 17.4062 14.675L22.2187 9.86247C22.8312 9.25622 23.675 8.90622 24.5375 8.90622H26.8937L30.5375 12.55C32.4312 14.4437 32.4312 17.5187 30.5375 19.4125L26.8937 23.0562H24.5375C23.675 23.0562 22.8312 22.7062 22.2187 22.0937L17.4062 17.2812C16.5375 16.4125 15.0187 16.4125 14.15 17.2875L9.35622 22.075C8.69372 22.6875 7.89997 23.0375 7.03747 23.0375H5.04872L1.42247 19.4125C-0.474156 17.5187 -0.474156 14.4437 1.42247 12.55L5.04872 8.91872H7.03747Z" fill="#222343"/>
</g>
<defs>
<clipPath id="clip0_4093_363">
<rect width="32" height="32" fill="white"/>
</clipPath>
</defs>
</svg>
