<svg width="32" height="32" viewBox="0 0 32 32" fill="none" xmlns="http://www.w3.org/2000/svg">
<path d="M23.4467 5.63317C21.3 3.65317 18.82 2.6665 16 2.6665C13.18 2.6665 10.6934 3.65317 8.55337 5.63317C6.40671 7.61317 5.33337 10.2665 5.33337 13.5998C5.33337 15.8198 6.22004 18.2398 7.98671 20.8532C9.64671 23.2998 12.0934 25.9398 15.3467 28.7732C15.72 29.0998 16.2867 29.0998 16.66 28.7732C19.9067 25.9465 22.36 23.3065 24.02 20.8532C25.7867 18.2398 26.6667 15.8265 26.6667 13.5998C26.6667 10.2665 25.5934 7.61317 23.4467 5.63317ZM15.9934 17.3332C13.7867 17.3332 11.9934 15.5398 11.9934 13.3332C11.9934 11.1265 13.7867 9.33317 15.9934 9.33317C18.2 9.33317 19.9934 11.1265 19.9934 13.3332C19.9934 15.5398 18.2 17.3332 15.9934 17.3332Z" fill="#222343"/>
</svg>
