<svg width="32" height="32" viewBox="0 0 32 32" fill="none" xmlns="http://www.w3.org/2000/svg">
<path d="M10.0667 28C9.51342 28 9.04675 27.8067 8.65341 27.4133C8.26008 27.02 8.06675 26.5533 8.06675 26V22.1333H4.66675C4.11341 22.1333 3.64675 21.94 3.25341 21.5467C2.86008 21.1533 2.66675 20.6867 2.66675 20.1333V13.9333C2.66675 12.9333 3.00675 12.0933 3.68675 11.4133C4.36675 10.7333 5.20675 10.4 6.20675 10.4H25.8067C26.8067 10.4 27.6467 10.74 28.3267 11.4133C29.0068 12.0933 29.3401 12.9267 29.3401 13.9333V20.1333C29.3401 20.6867 29.1467 21.1533 28.7534 21.5467C28.3601 21.94 27.8934 22.1333 27.3401 22.1333H23.9401V26C23.9401 26.5533 23.7467 27.02 23.3534 27.4133C22.9601 27.8067 22.4934 28 21.9401 28H10.0667ZM23.9334 9.4H8.06675V6C8.06675 5.44667 8.26008 4.98 8.65341 4.58667C9.04675 4.19333 9.51342 4 10.0667 4H21.9334C22.4867 4 22.9534 4.19333 23.3467 4.58667C23.7401 4.98 23.9334 5.44667 23.9334 6V9.4ZM24.6334 15.5667C24.9001 15.5667 25.1334 15.4667 25.3334 15.2667C25.5334 15.0667 25.6334 14.8333 25.6334 14.5667C25.6334 14.3 25.5334 14.0667 25.3334 13.8667C25.1334 13.6667 24.9001 13.5667 24.6334 13.5667C24.3667 13.5667 24.1334 13.6667 23.9334 13.8667C23.7334 14.0667 23.6334 14.3 23.6334 14.5667C23.6334 14.8333 23.7334 15.0667 23.9334 15.2667C24.1334 15.4667 24.3667 15.5667 24.6334 15.5667ZM10.0667 26H21.9334V19.6H10.0667V26Z" fill="currentColor"/>
</svg>
