<svg width="32" height="32" viewBox="0 0 32 32" fill="none" xmlns="http://www.w3.org/2000/svg">
<path d="M16 27.6666C15.7133 27.6666 15.4733 27.5733 15.28 27.38C15.0866 27.1866 14.9933 26.9533 14.9933 26.66V17.36H14.3266C12.9066 17.36 11.5666 17.0866 10.3066 16.54C9.05331 15.9933 7.93331 15.22 6.95331 14.22C5.97331 13.22 5.23331 12.0666 4.73331 10.7533C4.23331 9.43998 3.97998 8.07331 3.97998 6.65331V4.98665C3.97998 4.69998 4.07331 4.45998 4.26665 4.26665C4.45331 4.07998 4.69331 3.97998 4.98665 3.97998H6.58665C7.96665 3.97998 9.28665 4.25331 10.5533 4.79998C11.82 5.34665 12.9533 6.11998 13.9533 7.11998C14.6866 7.87331 15.2933 8.71998 15.7733 9.65331C16.2533 10.5866 16.5933 11.5733 16.7933 12.62C16.9733 12.3533 17.16 12.1 17.36 11.8533C17.56 11.6066 17.7733 11.3666 17.9933 11.12C18.9933 10.12 20.1266 9.34665 21.3933 8.79998C22.66 8.25331 23.9933 7.97998 25.3933 7.97998H26.9933C27.28 7.97998 27.52 8.07331 27.7133 8.26665C27.9066 8.45998 28 8.69331 28 8.98665V10.6533C28 12.0733 27.7333 13.44 27.2 14.7533C26.6666 16.0666 25.9133 17.22 24.9333 18.22C23.9333 19.22 22.8066 19.9866 21.5466 20.52C20.2866 21.0533 18.9733 21.32 17.5933 21.32H16.9933V26.6533C16.9933 26.94 16.9 27.18 16.7066 27.3733C16.5133 27.5666 16.28 27.66 15.9866 27.66L16 27.6666Z" fill="#222343"/>
</svg>
