<svg width="32" height="32" viewBox="0 0 32 32" fill="none" xmlns="http://www.w3.org/2000/svg">
<path d="M15.9999 29.3333C14.1533 29.3333 12.4199 28.98 10.7999 28.28C9.17994 27.58 7.7666 26.6267 6.5666 25.4267C5.3666 24.2267 4.41327 22.8133 3.71327 21.1933C3.01327 19.5733 2.65993 17.84 2.65993 15.9933C2.65993 14.5067 2.87993 13.0933 3.3266 11.76C3.77327 10.4267 4.4066 9.20665 5.2266 8.09332L1.5666 4.43332C1.3666 4.23332 1.2666 3.99332 1.2666 3.71332C1.2666 3.43332 1.3666 3.19332 1.5666 2.99332C1.7666 2.79332 2.0066 2.69332 2.2866 2.69332C2.5666 2.69332 2.8066 2.79332 3.0066 2.99332L28.5066 28.4933C28.7066 28.6933 28.8066 28.9267 28.8066 29.1933C28.8066 29.46 28.7066 29.6933 28.5066 29.8933C28.3066 30.0933 28.0666 30.1933 27.7866 30.1933C27.5066 30.1933 27.2666 30.0933 27.0666 29.8933L23.8999 26.76C22.7866 27.58 21.5666 28.2133 20.2333 28.66C18.8999 29.1067 17.4866 29.3267 15.9999 29.3267V29.3333ZM14.5666 27.3V24.5667C13.7866 24.5667 13.1333 24.28 12.5999 23.7C12.0666 23.12 11.7999 22.4467 11.7999 21.6667V20.2L4.9666 13.3667C4.85327 13.8133 4.77993 14.2533 4.73327 14.6867C4.6866 15.12 4.6666 15.56 4.6666 16.0067C4.6666 18.8933 5.6066 21.42 7.4866 23.5733C9.3666 25.7267 11.7266 26.9733 14.5733 27.3067L14.5666 27.3ZM29.3333 16C29.3333 17.2667 29.1733 18.4667 28.8466 19.6C28.5199 20.7333 28.0733 21.8 27.4933 22.8C27.3599 23.0467 27.1666 23.1867 26.9066 23.22C26.6466 23.2533 26.3999 23.1933 26.1533 23.0333C25.9333 22.88 25.7866 22.6667 25.7199 22.4C25.6533 22.1333 25.6866 21.88 25.8199 21.6333C26.3066 20.7667 26.6799 19.86 26.9399 18.9133C27.1999 17.9667 27.3266 16.9933 27.3266 15.9933C27.3266 13.64 26.6799 11.5 25.3933 9.57332C24.1066 7.64665 22.3799 6.24665 20.2266 5.35332V5.95332C20.2266 6.73332 19.9599 7.40665 19.4266 7.98665C18.8933 8.56665 18.2399 8.85332 17.4599 8.85332H15.2266V11.1533C15.2266 11.3733 15.1199 11.5267 14.9066 11.6067C14.6933 11.6867 14.5133 11.6467 14.3533 11.4867L9.25327 6.38665C8.93994 6.07332 8.79994 5.70665 8.83327 5.28665C8.8666 4.86665 9.07327 4.53999 9.45327 4.31999C10.4333 3.78665 11.4666 3.37332 12.5533 3.08665C13.6399 2.79999 14.7866 2.65332 15.9866 2.65332C17.8333 2.65332 19.5666 3.00665 21.1866 3.70665C22.8066 4.40665 24.2199 5.35999 25.4199 6.55999C26.6199 7.75999 27.5733 9.17332 28.2733 10.7933C28.9733 12.4133 29.3266 14.1467 29.3266 15.9933L29.3333 16Z" fill="currentColor"/>
</svg>
