<svg width="32" height="32" viewBox="0 0 32 32" fill="none" xmlns="http://www.w3.org/2000/svg">
<path d="M15.9999 29.3333C14.1532 29.3333 12.4199 28.98 10.7999 28.28C9.17991 27.58 7.76658 26.6267 6.56658 25.4267C5.36658 24.2267 4.41325 22.8133 3.71325 21.1933C3.01325 19.5733 2.65991 17.84 2.65991 15.9933C2.65991 14.1467 3.01325 12.4133 3.71325 10.7933C4.41325 9.17332 5.36658 7.75999 6.56658 6.55999C7.76658 5.35999 9.17991 4.40665 10.7999 3.70665C12.4199 3.00665 14.1532 2.65332 15.9999 2.65332C17.8466 2.65332 19.5799 3.00665 21.1999 3.70665C22.8199 4.40665 24.2332 5.35999 25.4332 6.55999C26.6332 7.75999 27.5866 9.17332 28.2866 10.7933C28.9866 12.4133 29.3399 14.1467 29.3399 15.9933C29.3399 17.84 28.9866 19.5733 28.2866 21.1933C27.5866 22.8133 26.6332 24.2267 25.4332 25.4267C24.2332 26.6267 22.8199 27.58 21.1999 28.28C19.5799 28.98 17.8466 29.3333 15.9999 29.3333ZM14.5666 27.3V24.5667C13.7866 24.5667 13.1332 24.28 12.5999 23.7C12.0666 23.12 11.7999 22.4467 11.7999 21.6667V20.2L4.96658 13.3667C4.85325 13.8133 4.77991 14.2533 4.73325 14.6867C4.68658 15.12 4.66658 15.56 4.66658 16.0067C4.66658 18.8933 5.60658 21.42 7.48658 23.5733C9.36658 25.7267 11.7266 26.9733 14.5732 27.3067L14.5666 27.3ZM24.3666 23.7C25.3466 22.6333 26.0866 21.44 26.5866 20.1133C27.0866 18.7867 27.3399 17.42 27.3399 15.9933C27.3399 13.64 26.6932 11.5 25.4066 9.57332C24.1199 7.64665 22.3932 6.24665 20.2399 5.35332V5.95332C20.2399 6.73332 19.9732 7.40665 19.4399 7.98665C18.9066 8.56665 18.2532 8.85332 17.4732 8.85332H14.5732V11.7533C14.5732 12.1333 14.4199 12.44 14.1199 12.6867C13.8199 12.9333 13.4799 13.0533 13.0999 13.0533H10.3332V15.9867H18.9332C19.3132 15.9867 19.6199 16.1333 19.8666 16.42C20.1132 16.7067 20.2332 17.04 20.2332 17.42V21.6533H21.6666C22.3132 21.6533 22.8799 21.84 23.3666 22.22C23.8532 22.6 24.1866 23.0867 24.3666 23.6867V23.7Z" fill="currentColor"/>
</svg>
