<svg width="32" height="32" viewBox="0 0 32 32" fill="none" xmlns="http://www.w3.org/2000/svg">
<path d="M3.65991 8.43349C3.37325 8.43349 3.13991 8.34016 2.94658 8.14682C2.75991 7.95349 2.65991 7.72016 2.65991 7.43349V3.66682C2.65991 3.38016 2.75325 3.14682 2.94658 2.95349C3.13991 2.76016 3.37325 2.66682 3.65991 2.66682H7.42658C7.71325 2.66682 7.94658 2.76016 8.13991 2.95349C8.33325 3.14682 8.42658 3.38682 8.42658 3.67349C8.42658 3.96016 8.33325 4.19349 8.13991 4.38682C7.94658 4.57349 7.71325 4.67349 7.42658 4.67349H4.65991V7.44016C4.65991 7.72682 4.56658 7.96016 4.37325 8.15349C4.17991 8.34682 3.93991 8.44016 3.65325 8.44016L3.65991 8.43349ZM3.66658 29.3335C3.37991 29.3335 3.14658 29.2402 2.95325 29.0468C2.75991 28.8535 2.66658 28.6202 2.66658 28.3335V24.5668C2.66658 24.2802 2.75991 24.0468 2.95325 23.8535C3.14658 23.6602 3.38658 23.5668 3.67325 23.5668C3.95991 23.5668 4.19325 23.6602 4.38658 23.8535C4.57325 24.0468 4.67325 24.2802 4.67325 24.5668V27.3335H7.43991C7.72658 27.3335 7.95991 27.4268 8.15325 27.6202C8.34658 27.8135 8.43991 28.0535 8.43991 28.3402C8.43991 28.6268 8.34658 28.8602 8.15325 29.0535C7.95991 29.2402 7.72658 29.3402 7.43991 29.3402H3.67325L3.66658 29.3335ZM24.5666 29.3335C24.2799 29.3335 24.0466 29.2402 23.8532 29.0468C23.6599 28.8535 23.5666 28.6135 23.5666 28.3268C23.5666 28.0402 23.6599 27.8068 23.8532 27.6135C24.0466 27.4268 24.2799 27.3268 24.5666 27.3268H27.3332V24.5602C27.3332 24.2735 27.4266 24.0402 27.6199 23.8468C27.8132 23.6535 28.0532 23.5602 28.3399 23.5602C28.6266 23.5602 28.8599 23.6535 29.0532 23.8468C29.2399 24.0402 29.3399 24.2735 29.3399 24.5602V28.3268C29.3399 28.6135 29.2466 28.8468 29.0532 29.0402C28.8599 29.2335 28.6266 29.3268 28.3399 29.3268H24.5732L24.5666 29.3335ZM28.3266 8.43349C28.0399 8.43349 27.8066 8.34016 27.6132 8.14682C27.4266 7.95349 27.3266 7.72016 27.3266 7.43349V4.66682H24.5599C24.2732 4.66682 24.0399 4.57349 23.8466 4.38016C23.6532 4.18682 23.5599 3.94682 23.5599 3.66016C23.5599 3.37349 23.6532 3.14016 23.8466 2.94682C24.0399 2.76016 24.2732 2.66016 24.5599 2.66016H28.3266C28.6132 2.66016 28.8466 2.75349 29.0399 2.94682C29.2332 3.14016 29.3266 3.37349 29.3266 3.66016V7.42682C29.3266 7.71349 29.2332 7.94682 29.0399 8.14016C28.8466 8.33349 28.6066 8.42682 28.3199 8.42682L28.3266 8.43349ZM23.5999 25.7335V23.6335H25.6999V25.7335H23.5999ZM23.5999 21.5335V19.4335H25.6999V21.5335H23.5999ZM21.4999 23.6335V21.5335H23.5999V23.6335H21.4999ZM19.3999 25.7335V23.6335H21.4999V25.7335H19.3999ZM17.2999 23.6335V21.5335H19.3999V23.6335H17.2999ZM21.4999 19.4335V17.3335H23.5999V19.4335H21.4999ZM19.3999 21.5335V19.4335H21.4999V21.5335H19.3999ZM17.2999 19.4335V17.3335H19.3999V19.4335H17.2999ZM18.2999 14.6668C18.0132 14.6668 17.7799 14.5735 17.5866 14.3802C17.3932 14.1868 17.2999 13.9535 17.2999 13.6668V7.26682C17.2999 6.98016 17.3932 6.74682 17.5866 6.55349C17.7799 6.36016 18.0132 6.26682 18.2999 6.26682H24.6999C24.9866 6.26682 25.2199 6.36016 25.4132 6.55349C25.6066 6.74682 25.6999 6.98016 25.6999 7.26682V13.6668C25.6999 13.9535 25.6066 14.1868 25.4132 14.3802C25.2199 14.5735 24.9866 14.6668 24.6999 14.6668H18.2999ZM7.26658 25.7335C6.97991 25.7335 6.74658 25.6402 6.55325 25.4468C6.35991 25.2535 6.26658 25.0202 6.26658 24.7335V18.3335C6.26658 18.0468 6.35991 17.8135 6.55325 17.6202C6.74658 17.4268 6.97991 17.3335 7.26658 17.3335H13.6666C13.9532 17.3335 14.1866 17.4268 14.3799 17.6202C14.5732 17.8135 14.6666 18.0468 14.6666 18.3335V24.7335C14.6666 25.0202 14.5732 25.2535 14.3799 25.4468C14.1866 25.6402 13.9532 25.7335 13.6666 25.7335H7.26658ZM7.26658 14.6668C6.97991 14.6668 6.74658 14.5735 6.55325 14.3802C6.35991 14.1868 6.26658 13.9535 6.26658 13.6668V7.26682C6.26658 6.98016 6.35991 6.74682 6.55325 6.55349C6.74658 6.36016 6.97991 6.26682 7.26658 6.26682H13.6666C13.9532 6.26682 14.1866 6.36016 14.3799 6.55349C14.5732 6.74682 14.6666 6.98016 14.6666 7.26682V13.6668C14.6666 13.9535 14.5732 14.1868 14.3799 14.3802C14.1866 14.5735 13.9532 14.6668 13.6666 14.6668H7.26658ZM7.93325 24.0668H12.9999V19.0002H7.93325V24.0668ZM7.93325 13.0002H12.9999V7.93349H7.93325V13.0002ZM18.9666 13.0002H24.0332V7.93349H18.9666V13.0002Z" fill="#222343"/>
</svg>
