<svg width="32" height="32" viewBox="0 0 32 32" fill="none" xmlns="http://www.w3.org/2000/svg">
<path d="M28.5333 29.9332L24.7666 26.1999C24.3 26.5332 23.7933 26.7866 23.2466 26.9666C22.7 27.1466 22.14 27.2332 21.56 27.2332C19.98 27.2332 18.6466 26.6799 17.5466 25.5866C16.4466 24.4866 15.9 23.1466 15.9 21.5666C15.9 19.9866 16.4533 18.6466 17.5533 17.5532C18.6533 16.4532 19.9933 15.9066 21.5666 15.9066C23.14 15.9066 24.4866 16.4599 25.5866 17.5599C26.6866 18.6599 27.2333 19.9999 27.2333 21.5732C27.2333 22.1532 27.14 22.7132 26.9533 23.2599C26.7666 23.8066 26.5133 24.3199 26.2066 24.8132L29.94 28.5466C30.14 28.7465 30.2466 28.9799 30.2533 29.2465C30.2666 29.5132 30.1733 29.7465 29.9733 29.9465C29.7733 30.1465 29.5333 30.2465 29.2533 30.2465C28.9733 30.2465 28.7333 30.1465 28.54 29.9465L28.5333 29.9332ZM21.5666 25.2332C22.5866 25.2332 23.4533 24.8799 24.1666 24.1666C24.88 23.4532 25.2333 22.5865 25.2333 21.5666C25.2333 20.5466 24.88 19.6799 24.1666 18.9666C23.4533 18.2532 22.5866 17.8999 21.5666 17.8999C20.5466 17.8999 19.68 18.2532 18.9666 18.9666C18.2533 19.6799 17.9 20.5466 17.9 21.5666C17.9 22.5865 18.2533 23.4532 18.9666 24.1666C19.68 24.8799 20.5466 25.2332 21.5666 25.2332ZM2.09998 23.0666C1.87998 22.9132 1.74665 22.6999 1.69998 22.4332C1.65331 22.1666 1.69998 21.9199 1.83331 21.6999L6.86665 13.6666C7.04665 13.3799 7.30664 13.2199 7.65331 13.1999C7.99998 13.1799 8.27998 13.2866 8.49998 13.5332L11.6 17.1666L16.1 9.89988C16.28 9.58655 16.5466 9.42655 16.92 9.41322C17.2866 9.39988 17.5733 9.55322 17.7666 9.86655L20.5333 13.9666C20.18 14.0132 19.8333 14.0866 19.5 14.1866C19.1666 14.2866 18.8333 14.3999 18.5 14.5332L17 12.2332L12.6333 19.3666C12.4533 19.6532 12.1933 19.8132 11.8533 19.8332C11.5066 19.8532 11.2266 19.7466 11.0066 19.4999L7.87331 15.8332L3.53998 22.7666C3.38665 23.0132 3.16665 23.1665 2.89331 23.2332C2.61331 23.2999 2.35331 23.2465 2.10665 23.0666H2.09998ZM24.0333 14.2999C23.7 14.1666 23.3533 14.0799 23 14.0332C22.6466 13.9866 22.28 13.9466 21.9 13.8999L28.4666 3.56655C28.62 3.31988 28.84 3.17322 29.1133 3.11322C29.3866 3.05322 29.6533 3.11322 29.8933 3.29988C30.1133 3.45322 30.2533 3.66655 30.3066 3.93322C30.36 4.19988 30.3066 4.44655 30.1533 4.66655L24.02 14.2999H24.0333Z" fill="#222343"/>
</svg>
