<svg width="32" height="32" viewBox="0 0 32 32" fill="none" xmlns="http://www.w3.org/2000/svg">
<path d="M4.37329 21.6801C3.74663 22.3067 2.66663 21.8667 2.66663 20.9734V4.78672C2.66663 4.47339 2.81329 4.16672 3.09996 3.85339C3.38663 3.54005 3.68663 3.38672 3.99996 3.38672H21.3C21.6333 3.38672 21.9466 3.53339 22.2333 3.84005C22.52 4.14005 22.6666 4.45339 22.6666 4.78672V16.6534C22.6666 16.9667 22.52 17.2734 22.2333 17.5867C21.9466 17.9001 21.6333 18.0534 21.3 18.0534H7.99996L4.37329 21.6801ZM9.36663 24.7201C9.05329 24.7201 8.74663 24.5667 8.44663 24.2534C8.14663 23.9401 7.99329 23.6334 7.99329 23.3201V20.0534H21.9933C23.4666 20.0534 24.66 18.8601 24.66 17.3867V8.72005H27.9933C28.3066 8.72005 28.6066 8.87339 28.8933 9.18672C29.18 9.50005 29.3266 9.82005 29.3266 10.1534V27.6067C29.3266 28.5001 28.2466 28.9467 27.62 28.3134L24.0266 24.7201H9.36663Z" fill="#222343"/>
</svg>
