<svg width="32" height="32" viewBox="0 0 32 32" fill="none" xmlns="http://www.w3.org/2000/svg">
<path d="M18.0667 16.4667C18.2667 16.4667 18.4467 16.3934 18.6 16.2467C18.7534 16.1001 18.8534 15.9201 18.9 15.6934C18.9667 15.3401 19.0867 15.0267 19.2667 14.7601C19.4467 14.4934 19.7534 14.1467 20.2 13.7267C20.8 13.1467 21.2134 12.6467 21.4534 12.2134C21.6867 11.7801 21.8067 11.2734 21.8067 10.7001C21.8067 9.68008 21.4534 8.84675 20.7534 8.20008C20.0534 7.55341 19.1334 7.23341 18.0067 7.23341C17.2934 7.23341 16.64 7.39341 16.04 7.72008C15.44 8.04675 14.96 8.50008 14.6067 9.10008C14.4934 9.28008 14.4867 9.47341 14.5734 9.68675C14.66 9.90008 14.82 10.0601 15.04 10.1734C15.22 10.2601 15.42 10.2667 15.64 10.1867C15.86 10.1067 16.04 9.97341 16.1734 9.77341C16.42 9.44008 16.6867 9.18675 16.9934 9.02675C17.2934 8.86008 17.6334 8.77341 18.0067 8.77341C18.6734 8.77341 19.2134 8.96008 19.62 9.34008C20.0334 9.72008 20.2334 10.1934 20.2334 10.7734C20.2334 11.2201 20.1334 11.6067 19.9334 11.9401C19.7334 12.2734 19.38 12.6267 18.8667 13.0067C18.2867 13.5401 17.8934 13.9801 17.6867 14.3267C17.48 14.6734 17.3467 15.1334 17.3 15.7134C17.28 15.9334 17.3467 16.1201 17.5 16.2667C17.6534 16.4134 17.8467 16.4867 18.0667 16.4801V16.4667ZM18.1 20.6667C18.48 20.6667 18.8 20.5334 19.0667 20.2667C19.3334 20.0001 19.4667 19.6801 19.4667 19.3001C19.4667 18.9201 19.3334 18.6001 19.0667 18.3334C18.8 18.0667 18.48 17.9334 18.1 17.9334C17.72 17.9334 17.4 18.0667 17.1334 18.3334C16.8667 18.6001 16.7334 18.9201 16.7334 19.3001C16.7334 19.6801 16.8667 20.0001 17.1334 20.2667C17.4 20.5334 17.72 20.6667 18.1 20.6667ZM8.66669 25.3334C8.13335 25.3334 7.66669 25.1334 7.26669 24.7334C6.86669 24.3334 6.66669 23.8667 6.66669 23.3334V4.66675C6.66669 4.13341 6.86669 3.66675 7.26669 3.26675C7.66669 2.86675 8.13335 2.66675 8.66669 2.66675H27.3334C27.8667 2.66675 28.3334 2.86675 28.7334 3.26675C29.1334 3.66675 29.3334 4.13341 29.3334 4.66675V23.3334C29.3334 23.8667 29.1334 24.3334 28.7334 24.7334C28.3334 25.1334 27.8667 25.3334 27.3334 25.3334H8.66669ZM4.66669 29.3334C4.13335 29.3334 3.66669 29.1334 3.26669 28.7334C2.86669 28.3334 2.66669 27.8667 2.66669 27.3334V7.66675C2.66669 7.38008 2.76002 7.14008 2.95335 6.95341C3.14002 6.76675 3.38002 6.66675 3.66669 6.66675C3.95335 6.66675 4.19335 6.76008 4.38002 6.95341C4.56669 7.14008 4.66669 7.38008 4.66669 7.66675V27.3334H24.3334C24.62 27.3334 24.86 27.4267 25.0534 27.6134C25.2467 27.8001 25.3334 28.0401 25.3334 28.3334C25.3334 28.6267 25.24 28.8601 25.0534 29.0534C24.8667 29.2467 24.6267 29.3334 24.3334 29.3334H4.66669Z" fill="#222343"/>
</svg>
