<svg width="32" height="32" viewBox="0 0 32 32" fill="none" xmlns="http://www.w3.org/2000/svg">
<g clip-path="url(#clip0_4029_1021)">
<path d="M22.8667 12.5331H13.0333C11.48 12.5331 10.14 13.0531 9.01333 14.0864C7.89333 15.1198 7.32666 16.4064 7.32666 17.9398C7.32666 19.4731 7.88666 20.7598 9.01333 21.7931C10.1333 22.8264 11.4733 23.3464 13.0333 23.3464H22.3667C22.6533 23.3464 22.8933 23.4398 23.0867 23.6331C23.2733 23.8198 23.3733 24.0598 23.3733 24.3531C23.3733 24.6464 23.28 24.8798 23.0867 25.0731C22.8933 25.2664 22.66 25.3598 22.3667 25.3598H13.0667C10.9533 25.3598 9.13999 24.6464 7.61333 23.2264C6.09333 21.8064 5.32666 20.0464 5.32666 17.9598C5.32666 15.8731 6.08666 14.1131 7.61333 12.6931C9.13333 11.2731 10.9533 10.5598 13.0667 10.5598H22.8667L19.7667 7.45976C19.5667 7.25977 19.4667 7.02643 19.4667 6.75977C19.4667 6.4931 19.5667 6.25977 19.7667 6.05977C19.9667 5.85977 20.2 5.75977 20.4667 5.75977C20.7333 5.75977 20.9667 5.85977 21.1667 6.05977L25.9667 10.8598C26.08 10.9731 26.1533 11.0798 26.2 11.1931C26.2467 11.3064 26.2667 11.4264 26.2667 11.5598C26.2667 11.6931 26.2467 11.8131 26.2 11.9264C26.1533 12.0398 26.08 12.1464 25.9667 12.2598L21.1667 17.0598C20.9667 17.2598 20.7333 17.3598 20.4667 17.3598C20.2 17.3598 19.9667 17.2598 19.7667 17.0598C19.5667 16.8598 19.4667 16.6264 19.4667 16.3598C19.4667 16.0931 19.5667 15.8598 19.7667 15.6598L22.8667 12.5598V12.5331Z" fill="currentColor"/>
</g>
<defs>
<clipPath id="clip0_4029_1021">
<rect width="32" height="32" fill="white"/>
</clipPath>
</defs>
</svg>
