<svg width="32" height="32" viewBox="0 0 32 32" fill="none" xmlns="http://www.w3.org/2000/svg">
<path d="M22.113 12.8538H12.732C11.2893 12.8538 10.0572 13.3516 9.03564 14.3472C8.01386 15.3429 7.50297 16.5635 7.50297 18.0088C7.50297 19.4542 8.01386 20.6747 9.03564 21.6705C10.0572 22.666 11.2893 23.1638 12.732 23.1638H21.8766C22.2535 23.1638 22.5679 23.2897 22.8196 23.5415C23.0712 23.7933 23.197 24.1075 23.197 24.4842C23.197 24.861 23.0712 25.1753 22.8196 25.4268C22.5679 25.6786 22.2535 25.8045 21.8766 25.8045H12.7653C10.5913 25.8045 8.73064 25.0494 7.18331 23.5392C5.63597 22.0292 4.8623 20.1857 4.8623 18.0088C4.8623 15.8446 5.63597 14.0043 7.18331 12.4878C8.73064 10.9714 10.5913 10.2132 12.7653 10.2132H22.113L19.5216 7.62182C19.259 7.35916 19.1276 7.0536 19.1276 6.70516C19.1276 6.35693 19.259 6.04516 19.5216 5.76982C19.7845 5.50693 20.0932 5.37549 20.4476 5.37549C20.8023 5.37549 21.1111 5.50693 21.374 5.76982L26.2116 10.5885C26.3479 10.7247 26.4508 10.8735 26.5203 11.0348C26.5899 11.1962 26.6246 11.3624 26.6246 11.5335C26.6246 11.7046 26.5899 11.8708 26.5203 12.0322C26.4508 12.1935 26.3479 12.3423 26.2116 12.4785L21.374 17.2785C21.1111 17.5538 20.8023 17.6915 20.4476 17.6915C20.0932 17.6915 19.7845 17.5538 19.5216 17.2785C19.259 17.0156 19.1276 16.71 19.1276 16.3618C19.1276 16.0134 19.259 15.7015 19.5216 15.4262L22.113 12.8538Z" fill="currentColor"/>
</svg>
