<svg width="32" height="32" viewBox="0 0 32 32" fill="none" xmlns="http://www.w3.org/2000/svg">
<path d="M15.9433 27.1376C12.8622 27.1376 10.2357 26.0516 8.06366 23.8796C5.89166 21.7076 4.80566 19.081 4.80566 15.9999C4.80566 12.9188 5.89166 10.2892 8.06366 8.11093C10.2357 5.93248 12.8622 4.84326 15.9433 4.84326C17.9078 4.84326 19.6356 5.23915 21.1267 6.03093C22.618 6.82271 23.9048 7.92304 24.987 9.33193V5.9566C24.987 5.63748 25.0896 5.37215 25.2947 5.1606C25.5 4.94904 25.7684 4.84326 26.1 4.84326C26.4191 4.84326 26.6843 4.94904 26.8957 5.1606C27.1072 5.37215 27.213 5.63748 27.213 5.9566V12.6869C27.213 13.0638 27.084 13.378 26.826 13.6296C26.568 13.8814 26.2507 14.0073 25.874 14.0073H19.1247C18.8109 14.0073 18.5501 13.9015 18.3423 13.6899C18.1343 13.4784 18.0303 13.2132 18.0303 12.8943C18.0303 12.5805 18.1361 12.3196 18.3477 12.1116C18.5592 11.9038 18.8244 11.7999 19.1433 11.7999H23.555C22.6981 10.5168 21.6387 9.47982 20.3767 8.68893C19.1147 7.89826 17.6369 7.50293 15.9433 7.50293C13.5716 7.50293 11.5624 8.32604 9.916 9.97226C8.26955 11.6187 7.44633 13.6279 7.44633 15.9999C7.44633 18.3719 8.26955 20.3812 9.916 22.0276C11.5624 23.6738 13.5716 24.4969 15.9433 24.4969C17.5096 24.4969 18.9772 24.0957 20.3463 23.2933C21.7154 22.491 22.7618 21.4019 23.4853 20.0259C23.6671 19.7168 23.9278 19.4922 24.2673 19.3519C24.6069 19.2119 24.9413 19.2164 25.2707 19.3653C25.6158 19.5015 25.8517 19.7287 25.9783 20.0469C26.1048 20.3654 26.0937 20.683 25.945 20.9999C25.0154 22.8793 23.6533 24.372 21.8587 25.4783C20.064 26.5845 18.0922 27.1376 15.9433 27.1376Z" fill="currentColor"/>
</svg>
