<svg width="32" height="32" viewBox="0 0 32 32" fill="none" xmlns="http://www.w3.org/2000/svg">
<path d="M16 22.6333C16.3133 22.6333 16.5866 22.5133 16.82 22.28C17.0533 22.0467 17.1733 21.7733 17.1733 21.46C17.1733 21.1467 17.0533 20.8733 16.82 20.64C16.5866 20.4067 16.3133 20.2867 16 20.2867C15.6866 20.2867 15.4133 20.4067 15.18 20.64C14.9466 20.8733 14.8266 21.1467 14.8266 21.46C14.8266 21.7733 14.9466 22.0467 15.18 22.28C15.4133 22.5133 15.6866 22.6333 16 22.6333ZM16 17.8333C16.2866 17.8333 16.5266 17.74 16.72 17.5467C16.9133 17.3533 17.0066 17.12 17.0066 16.8267V10.06C17.0066 9.77333 16.9133 9.53333 16.72 9.34C16.5266 9.14667 16.2933 9.05333 16 9.05333C15.7066 9.05333 15.4733 9.14667 15.28 9.34C15.0866 9.53333 14.9933 9.76667 14.9933 10.06V16.8267C14.9933 17.1133 15.0866 17.3533 15.28 17.5467C15.4733 17.74 15.7066 17.8333 16 17.8333ZM11.8333 28C11.5666 28 11.3066 27.9467 11.0466 27.8333C10.7933 27.72 10.5733 27.58 10.3933 27.4L4.59329 21.6C4.41329 21.42 4.27329 21.2067 4.15995 20.9467C4.04662 20.6933 3.99329 20.4267 3.99329 20.16V11.8267C3.99329 11.56 4.04662 11.3 4.15995 11.04C4.27329 10.7867 4.41329 10.5667 4.59329 10.3867L10.4 4.6C10.58 4.42 10.7933 4.28 11.0533 4.16667C11.3133 4.05333 11.5733 4 11.84 4H20.1733C20.44 4 20.7 4.05333 20.96 4.16667C21.22 4.28 21.4333 4.42 21.6133 4.6L27.4133 10.4C27.5933 10.58 27.7333 10.7933 27.8466 11.0533C27.96 11.3133 28.0133 11.5733 28.0133 11.84V20.1733C28.0133 20.44 27.96 20.7 27.8466 20.96C27.7333 21.22 27.5933 21.4333 27.4133 21.6133L21.6133 27.4133C21.4333 27.5933 21.22 27.7333 20.96 27.8467C20.7066 27.96 20.44 28.0133 20.1733 28.0133H11.84L11.8333 28Z" fill="#222343"/>
</svg>
