<svg width="32" height="32" viewBox="0 0 32 32" fill="none" xmlns="http://www.w3.org/2000/svg">
<path d="M28.6667 13.0001H27.1V12.2334C27.1 9.28675 24.7134 6.90008 21.7667 6.90008H16.9334V4.97342C17.5267 4.62675 17.9334 3.98675 17.9334 3.25342C17.9334 2.14675 17.04 1.25342 15.9334 1.25342C14.8267 1.25342 13.9334 2.14675 13.9334 3.25342C13.9334 3.99342 14.34 4.62675 14.9334 4.97342V6.90008H10.2334C7.28671 6.90008 4.90004 9.28675 4.90004 12.2334V13.0001H3.33337C2.22671 13.0001 1.33337 13.8934 1.33337 15.0001V18.1334C1.33337 19.2401 2.22671 20.1334 3.33337 20.1334H4.90004V20.6934C4.90004 25.1134 8.48004 28.6934 12.9 28.6934H19.1C23.52 28.6934 27.1 25.1134 27.1 20.6934V20.1334H28.6667C29.7734 20.1334 30.6667 19.2401 30.6667 18.1334V15.0001C30.6667 13.8934 29.7734 13.0001 28.6667 13.0001ZM10.48 14.5268C10.74 14.2601 11.0534 14.1334 11.4267 14.1334C11.8 14.1334 12.1134 14.2601 12.3734 14.5134C12.6334 14.7734 12.7667 15.0868 12.7667 15.4601C12.7667 15.8334 12.64 16.1468 12.38 16.4068C12.1267 16.6668 11.8134 16.8001 11.44 16.8001C11.0667 16.8001 10.7534 16.6734 10.4934 16.4134C10.2334 16.1601 10.1 15.8468 10.1 15.4734C10.1 15.1001 10.2267 14.7868 10.48 14.5268ZM21.3334 22.1668C19.7134 23.0334 17.88 23.4934 16.0267 23.4934C14.1734 23.4934 12.2934 23.0201 10.66 22.1334C10.1734 21.8668 9.99337 21.2601 10.26 20.7801C10.5267 20.2934 11.1334 20.1134 11.6134 20.3801C14.2867 21.8334 17.7067 21.8401 20.3867 20.4068C20.8734 20.1468 21.48 20.3268 21.74 20.8134C22 21.3001 21.82 21.9068 21.3334 22.1668ZM21.52 16.4068C21.26 16.6668 20.9467 16.8001 20.5734 16.8001C20.2 16.8001 19.8867 16.6734 19.6267 16.4134C19.3667 16.1601 19.2334 15.8468 19.2334 15.4734C19.2334 15.1001 19.36 14.7868 19.62 14.5268C19.8734 14.2601 20.1867 14.1334 20.56 14.1334C20.9334 14.1334 21.2467 14.2601 21.5067 14.5134C21.7667 14.7734 21.9 15.0868 21.9 15.4601C21.9 15.8334 21.7734 16.1468 21.52 16.4068Z" fill="#222343"/>
</svg>
