<svg width="32" height="32" viewBox="0 0 32 32" fill="none" xmlns="http://www.w3.org/2000/svg">
<path d="M8.76657 16.5001L4.5999 14.6667C4.28657 14.5334 4.0999 14.2934 4.03324 13.9467C3.96657 13.6001 4.05324 13.3067 4.2999 13.0601L8.83324 8.49339C9.14657 8.18006 9.5199 7.96006 9.95324 7.82673C10.3866 7.69339 10.8266 7.67339 11.2732 7.76006L13.8399 8.26006C12.6199 9.64006 11.6266 10.9467 10.8732 12.1801C10.1199 13.4134 9.4199 14.8534 8.77323 16.5001H8.76657ZM28.0999 3.23339C28.2332 3.25339 28.3666 3.29339 28.4999 3.35339C28.6332 3.41339 28.7532 3.49339 28.8666 3.60673C28.9799 3.72006 29.0599 3.83339 29.1199 3.96006C29.1799 4.08673 29.2132 4.21339 29.2399 4.34673C29.3932 6.46006 28.9866 8.66006 28.0066 10.9467C27.0266 13.2334 25.6399 15.2801 23.8399 17.0801C22.6399 18.2801 21.4199 19.3001 20.1732 20.1334C18.9266 20.9667 17.6066 21.6401 16.2066 22.1534C15.9599 22.2667 15.7199 22.3067 15.4866 22.2734C15.2532 22.2401 15.0666 22.1534 14.9332 22.0201L10.4332 17.5201C10.2999 17.3867 10.2132 17.2001 10.1799 16.9667C10.1466 16.7334 10.1799 16.4934 10.2999 16.2467C10.8332 14.8467 11.5199 13.5201 12.3532 12.2601C13.1866 11.0001 14.1932 9.78673 15.3732 8.60673C17.1732 6.80673 19.2199 5.42006 21.5066 4.45339C23.7932 3.48673 25.9932 3.08006 28.1066 3.23339H28.0999ZM19.5332 12.9001C19.9799 13.3467 20.5266 13.5667 21.1866 13.5667C21.8466 13.5667 22.3932 13.3467 22.8399 12.9001C23.2866 12.4534 23.5066 11.9067 23.5066 11.2467C23.5066 10.5867 23.2866 10.0401 22.8399 9.59339C22.3932 9.14673 21.8466 8.92673 21.1866 8.92673C20.5266 8.92673 19.9799 9.14673 19.5332 9.59339C19.0866 10.0401 18.8666 10.5867 18.8666 11.2467C18.8666 11.9067 19.0866 12.4534 19.5332 12.9001ZM15.9666 23.6667C17.6132 23.0201 19.0532 22.3201 20.2866 21.5667C21.5199 20.8134 22.8266 19.8201 24.2066 18.6001L24.6732 21.1667C24.7599 21.6134 24.7399 22.0534 24.6066 22.4867C24.4732 22.9201 24.2532 23.2934 23.9399 23.6067L19.4066 28.1401C19.1599 28.3867 18.8599 28.4734 18.5066 28.4067C18.1532 28.3401 17.9066 28.1534 17.7732 27.8401L15.9732 23.6734L15.9666 23.6667ZM5.3999 21.3934C6.1799 20.6201 7.12657 20.2267 8.2399 20.2201C9.35324 20.2067 10.2999 20.5934 11.0732 21.3734C11.8466 22.1534 12.2332 23.0934 12.2332 24.2067C12.2332 25.3201 11.8466 26.2601 11.0666 27.0401C10.4866 27.6201 9.59324 28.0934 8.37324 28.4734C7.15324 28.8534 5.33324 29.2067 2.8999 29.5401C3.23324 27.1201 3.58657 25.3001 3.9599 24.0867C4.33324 22.8734 4.81324 21.9801 5.3999 21.4001V21.3934Z" fill="#222343"/>
</svg>
