<svg width="32" height="32" viewBox="0 0 32 32" fill="none" xmlns="http://www.w3.org/2000/svg">
<path d="M28.06 22.9532V22.9198C27.16 18.4398 24.7533 14.3998 21.2466 11.4798L20.4266 10.7932C20.0666 10.4932 19.6133 10.3265 19.1466 10.3265H12.86C12.3933 10.3265 11.94 10.4932 11.58 10.7932L10.7666 11.4732C7.25331 14.3998 4.85331 18.4398 3.95331 22.9198V22.9532C3.28664 26.2532 5.81331 29.3332 9.17331 29.3332H22.8266C26.1933 29.3332 28.7133 26.2532 28.0533 22.9532H28.06ZM19 16.6665H14V18.9998H19C19.2866 18.9998 19.5266 19.0932 19.7133 19.2865C19.9 19.4798 20 19.7132 20 19.9998V24.3332C20 24.6198 19.9066 24.8598 19.7133 25.0532C19.52 25.2465 19.2866 25.3332 19 25.3332H17V25.6665C17 26.2198 16.5533 26.6665 16 26.6665C15.4466 26.6665 15 26.2198 15 25.6665V25.3332H13C12.4466 25.3332 12 24.8865 12 24.3332C12 23.7798 12.4466 23.3332 13 23.3332H18V20.9998H13C12.7133 20.9998 12.4733 20.9065 12.28 20.7198C12.0866 20.5332 12 20.2932 12 19.9998V15.6665C12 15.3798 12.0933 15.1398 12.28 14.9532C12.4666 14.7665 12.7066 14.6665 13 14.6665H15V14.3332C15 13.7798 15.4466 13.3332 16 13.3332C16.5533 13.3332 17 13.7798 17 14.3332V14.6665H19C19.5533 14.6665 20 15.1132 20 15.6665C20 16.2198 19.5533 16.6665 19 16.6665Z" fill="#222343"/>
<path d="M21.4533 4.6865C21.9866 3.79984 21.3466 2.6665 20.3133 2.6665H11.6933C10.66 2.6665 10.02 3.79984 10.5533 4.6865L12.74 8.33317H19.2733L21.46 4.6865H21.4533Z" fill="#222343"/>
</svg>
