<svg width="32" height="32" viewBox="0 0 32 32" fill="none" xmlns="http://www.w3.org/2000/svg">
<path d="M25.8334 25.9333C25.9667 25.7999 26.0267 25.6333 26.0201 25.4333C26.0134 25.2333 25.9334 25.0666 25.8001 24.9333L23.5667 22.6999V19.3666C23.5667 19.1866 23.5001 19.0333 23.3667 18.8999C23.2334 18.7666 23.0801 18.6999 22.9001 18.6999C22.7201 18.6999 22.5601 18.7733 22.4134 18.9199C22.2667 19.0666 22.1934 19.2266 22.1934 19.4066V22.9399C22.1934 23.0733 22.2134 23.1933 22.2601 23.3066C22.3067 23.4199 22.3801 23.5266 22.4934 23.6399L24.8267 25.9733C24.9601 26.1066 25.1267 26.1733 25.3267 26.1733C25.5267 26.1733 25.6934 26.0933 25.8267 25.9399L25.8334 25.9333ZM4.00008 25.1666V19.2666C4.00008 19.0199 4.07341 18.8133 4.22007 18.6333C4.36674 18.4533 4.54674 18.3466 4.77341 18.2999L11.1734 16.7333C11.3534 16.6866 11.4934 16.5999 11.5934 16.4666C11.6934 16.3333 11.7467 16.1799 11.7467 15.9999C11.7467 15.8199 11.6934 15.6666 11.5934 15.5333C11.4934 15.3999 11.3534 15.3133 11.1734 15.2666L4.77341 13.6333C4.55341 13.5866 4.36674 13.4799 4.22007 13.2999C4.07341 13.1199 4.00008 12.9133 4.00008 12.6666V6.83327C4.00008 6.47994 4.15341 6.20661 4.45341 6.01327C4.75341 5.81994 5.07341 5.79327 5.40674 5.92661L22.2067 12.9933C22.6267 13.1733 22.8067 13.4999 22.7401 13.9799C22.6734 14.4599 22.4067 14.7199 21.9401 14.7666C21.0534 14.8799 20.2067 15.1199 19.4067 15.4866C18.6067 15.8533 17.8867 16.3466 17.2401 16.9733C16.5934 17.5733 16.0734 18.2599 15.6734 19.0266C15.2734 19.7933 14.9867 20.5999 14.8067 21.4466C14.7601 21.6666 14.6801 21.8733 14.5534 22.0666C14.4267 22.2599 14.2601 22.3933 14.0334 22.4866L5.40008 26.0866C5.06674 26.2199 4.74674 26.1933 4.44674 25.9999C4.14674 25.8066 3.99341 25.5399 3.99341 25.1799L4.00008 25.1666ZM23.0001 29.3333C21.2467 29.3333 19.7467 28.7199 18.5134 27.4999C17.2801 26.2799 16.6601 24.7866 16.6601 23.0333C16.6601 21.2799 17.2801 19.7799 18.5134 18.5333C19.7467 17.2866 21.2401 16.6666 23.0001 16.6666C24.7601 16.6666 26.2534 17.2866 27.4867 18.5333C28.7201 19.7799 29.3401 21.2799 29.3401 23.0333C29.3401 24.7866 28.7201 26.2799 27.4867 27.4999C26.2534 28.7199 24.7601 29.3333 23.0001 29.3333Z" fill="currentColor"/>
</svg>
