<svg width="32" height="32" viewBox="0 0 32 32" fill="none" xmlns="http://www.w3.org/2000/svg">
<path d="M29.6667 22.5666C29.38 22.5666 29.14 22.4733 28.9467 22.2866C28.7533 22.0999 28.6667 21.8599 28.6667 21.5666V13.1666L16.9333 19.4999C16.78 19.5866 16.62 19.6533 16.4667 19.6799C16.3133 19.7066 16.1467 19.7333 15.9667 19.7333C15.7867 19.7333 15.6267 19.7133 15.48 19.6799C15.3333 19.6466 15.1867 19.5866 15.0333 19.4999L2.93335 12.8666C2.75335 12.7799 2.62668 12.6533 2.54668 12.4999C2.46668 12.3466 2.43335 12.1799 2.43335 11.9999C2.43335 11.8199 2.47335 11.6533 2.54668 11.4999C2.62668 11.3466 2.75335 11.2199 2.93335 11.1333L15 4.53327C15.1533 4.4466 15.3133 4.37993 15.4667 4.33327C15.62 4.2866 15.7867 4.2666 15.9667 4.2666C16.1467 4.2666 16.3133 4.2866 16.4667 4.33327C16.62 4.37993 16.78 4.4466 16.9333 4.53327L30.1333 11.6999C30.3133 11.8133 30.4467 11.9466 30.5333 12.0999C30.62 12.2533 30.6667 12.4199 30.6667 12.5999V21.5666C30.6667 21.8533 30.5733 22.0933 30.3867 22.2866C30.2 22.4799 29.96 22.5666 29.6667 22.5666ZM15.9667 27.6999C15.7867 27.6999 15.62 27.6799 15.4667 27.6466C15.3133 27.6133 15.1533 27.5533 15 27.4599L7.33335 23.2599C7.02002 23.0799 6.77335 22.8399 6.58668 22.5266C6.40002 22.2133 6.30002 21.8733 6.30002 21.4933V15.6933L14.6 20.2266L15.2667 20.5599C15.4867 20.6733 15.72 20.7266 15.9667 20.7266C16.2133 20.7266 16.4467 20.6733 16.6867 20.5599C16.92 20.4466 17.1467 20.3399 17.3667 20.2266L25.6333 15.6933V21.4933C25.6333 21.8733 25.54 22.2133 25.3533 22.5266C25.1667 22.8399 24.9133 23.0799 24.6067 23.2599L16.94 27.4599C16.7867 27.5466 16.6267 27.6133 16.4733 27.6466C16.32 27.6799 16.1533 27.6999 15.9733 27.6933L15.9667 27.6999Z" fill="#222343"/>
</svg>
