<svg width="32" height="32" viewBox="0 0 32 32" fill="none" xmlns="http://www.w3.org/2000/svg">
<path d="M14.3334 12.6667C14.9801 12.6667 15.5267 12.44 15.9867 11.98C16.4467 11.52 16.6734 10.9733 16.6734 10.3267C16.6734 9.67999 16.4467 9.13332 15.9867 8.67332C15.5267 8.21332 14.9801 7.98665 14.3334 7.98665C13.6867 7.98665 13.1401 8.21332 12.6801 8.67332C12.2201 9.13332 11.9934 9.67999 11.9934 10.3267C11.9934 10.9733 12.2201 11.52 12.6801 11.98C13.1401 12.44 13.6867 12.6667 14.3334 12.6667ZM14.3334 18C15.2001 18 16.0334 17.82 16.8334 17.4667C17.6334 17.1133 18.3334 16.6133 18.9334 15.9667C18.2201 15.52 17.4801 15.1933 16.7001 14.98C15.9201 14.7667 15.1334 14.66 14.3334 14.66C13.5334 14.66 12.7467 14.7667 11.9667 14.98C11.1867 15.1933 10.4467 15.52 9.73341 15.9667C10.3534 16.6133 11.0667 17.1133 11.8667 17.4667C12.6667 17.82 13.4867 18 14.3334 18ZM14.3334 23.3333C11.4667 23.3333 9.02674 22.3267 7.01341 20.3133C5.00008 18.3 3.99341 15.86 3.99341 12.9933C3.99341 10.1267 5.00008 7.68665 7.01341 5.67332C9.02674 3.65999 11.4667 2.65332 14.3334 2.65332C17.2001 2.65332 19.6401 3.65999 21.6534 5.67332C23.6667 7.68665 24.6734 10.1267 24.6734 12.9933C24.6734 14.1933 24.4534 15.3667 24.0201 16.5133C23.5867 17.66 23.0134 18.6733 22.3001 19.5667L28.6334 25.9C28.8334 26.1 28.9334 26.3333 28.9334 26.6C28.9334 26.8667 28.8334 27.1 28.6334 27.3C28.4334 27.5 28.2001 27.6 27.9334 27.6C27.6667 27.6 27.4334 27.5 27.2334 27.3L20.9001 20.9667C20.0134 21.68 18.9934 22.2533 17.8467 22.6867C16.7001 23.12 15.5267 23.34 14.3267 23.34L14.3334 23.3333Z" fill="currentColor"/>
</svg>
