<svg width="32" height="32" viewBox="0 0 32 32" fill="none" xmlns="http://www.w3.org/2000/svg">
<path d="M13.3333 21.9999C15.7333 21.9999 17.78 21.1532 19.4799 19.4599C21.18 17.7666 22.0333 15.7132 22.0333 13.2999C22.0333 10.8866 21.18 8.85991 19.4799 7.18658C17.78 5.50658 15.7333 4.66658 13.3333 4.66658C10.9333 4.66658 8.89328 5.50658 7.21328 7.18658C5.53328 8.86658 4.69328 10.9066 4.69328 13.2999C4.69328 15.6932 5.53328 17.7732 7.21328 19.4599C8.89328 21.1532 10.9333 21.9999 13.3333 21.9999ZM13.36 17.0666C13.0733 17.0666 12.84 16.9732 12.6466 16.7799C12.46 16.5866 12.36 16.3532 12.36 16.0666V9.16658C12.36 8.87991 12.4533 8.64658 12.6466 8.45325C12.84 8.25991 13.08 8.16658 13.3666 8.16658C13.6533 8.16658 13.8866 8.25991 14.08 8.45325C14.2666 8.64658 14.3666 8.87991 14.3666 9.16658V16.0666C14.3666 16.3532 14.2733 16.5866 14.08 16.7799C13.8866 16.9732 13.6466 17.0666 13.36 17.0666ZM8.52662 17.0666C8.23995 17.0666 8.00662 16.9732 7.81328 16.7799C7.62662 16.5866 7.52662 16.3532 7.52662 16.0666V11.9332C7.52662 11.6466 7.61995 11.4132 7.81328 11.2199C8.00662 11.0266 8.24662 10.9332 8.53328 10.9332C8.81995 10.9332 9.05328 11.0266 9.24662 11.2199C9.43328 11.4132 9.53328 11.6466 9.53328 11.9332V16.0666C9.53328 16.3532 9.43995 16.5866 9.24662 16.7799C9.05328 16.9732 8.81328 17.0666 8.52662 17.0666ZM18.1933 17.0666C17.9066 17.0666 17.6733 16.9732 17.4799 16.7799C17.2933 16.5866 17.1933 16.3532 17.1933 16.0666V13.2999C17.1933 13.0132 17.2866 12.7799 17.4799 12.5866C17.6733 12.3932 17.9133 12.2999 18.2 12.2999C18.4866 12.2999 18.72 12.3932 18.9133 12.5866C19.1 12.7799 19.2 13.0132 19.2 13.2999V16.0666C19.2 16.3532 19.1066 16.5866 18.9133 16.7799C18.72 16.9732 18.48 17.0666 18.1933 17.0666ZM13.3333 23.9999C10.38 23.9999 7.86662 22.9599 5.79995 20.8799C3.73328 18.7999 2.69995 16.2799 2.69995 13.3066C2.69995 10.3332 3.73328 7.81991 5.79328 5.75325C7.85328 3.69325 10.3733 2.65991 13.34 2.65991C16.3066 2.65991 18.8333 3.69325 20.9133 5.75991C22.9933 7.82658 24.0333 10.3399 24.0333 13.2932C24.0333 14.5932 23.8133 15.8266 23.38 16.9866C22.9466 18.1466 22.34 19.1932 21.56 20.1266L28.6266 27.1932C28.8266 27.3932 28.92 27.6266 28.9133 27.8932C28.9066 28.1599 28.8066 28.3932 28.62 28.5932C28.4333 28.7932 28.2 28.8932 27.92 28.8932C27.64 28.8932 27.3933 28.7932 27.1933 28.5932L20.16 21.5266C19.2266 22.3066 18.18 22.9132 17.02 23.3466C15.86 23.7799 14.6266 23.9999 13.3266 23.9999H13.3333Z" fill="currentColor"/>
</svg>
