<svg width="32" height="32" viewBox="0 0 32 32" fill="none" xmlns="http://www.w3.org/2000/svg">
<path d="M25.3667 6.13332L23.54 5.45332L16.7 2.89998C16.4734 2.81332 16.24 2.77332 16 2.77332C15.76 2.77332 15.5267 2.81332 15.3 2.89998L8.46004 5.45332L6.63337 6.13332C5.85337 6.42665 5.33337 7.17332 5.33337 8.00665V14.7266C5.33337 15.1533 5.35337 15.58 5.38671 16C5.88004 22.0333 9.88004 27.08 15.34 29.1066C15.5534 29.1866 15.7734 29.22 16 29.22C16.2267 29.22 16.4467 29.1866 16.66 29.1066C22.12 27.08 26.12 22.0333 26.6134 16C26.6467 15.58 26.6667 15.1533 26.6667 14.7266V8.00665C26.6667 7.17332 26.1467 6.42665 25.3667 6.13332ZM16 27.2133V16H7.40004C7.35337 15.58 7.33337 15.1533 7.33337 14.7266V8.00665L9.16004 7.32665L16 4.77332V16H24.6C24.12 21.0266 20.7867 25.4266 16 27.2133Z" fill="#222343"/>
</svg>
