<svg width="32" height="32" viewBox="0 0 32 32" fill="none" xmlns="http://www.w3.org/2000/svg">
<path d="M28.7667 15.6667L16.3333 3.23335C16.1133 3.01335 15.8667 2.86001 15.6 2.78001C15.3333 2.70001 15.0667 2.66668 14.8 2.66668H5.13333L9.38667 6.92001C9.73333 7.26668 9.90667 7.66668 9.90667 8.13335C9.90667 8.60001 9.73333 9.00668 9.38667 9.35335C9.04 9.70001 8.64 9.86668 8.16667 9.86668C7.69333 9.86668 7.29333 9.69335 6.94667 9.35335C6.6 9.00668 6.43333 8.60668 6.43333 8.13335C6.43333 8.03335 6.44667 7.94001 6.46 7.84001L7.46 8.84001C7.65333 9.03335 7.91333 9.13335 8.16667 9.13335C8.42 9.13335 8.68 9.03335 8.87333 8.84001C9.26667 8.44668 9.26667 7.81335 8.87333 7.42668L3.22 1.76668C2.82667 1.37335 2.19333 1.37335 1.80667 1.76668C1.42 2.16001 1.41333 2.79335 1.80667 3.18001L2.74 4.11335C2.7 4.28668 2.66667 4.46668 2.66667 4.66001V14.7933C2.66667 15.06 2.70667 15.3133 2.78 15.56C2.86 15.8067 3.00667 16.04 3.23333 16.26L15.7333 28.76C16.1333 29.16 16.6133 29.36 17.18 29.36C17.7467 29.36 18.2333 29.16 18.6267 28.76L28.76 18.6267C29.18 18.2067 29.3933 17.7067 29.3933 17.1467C29.3933 16.5867 29.18 16.0867 28.76 15.66L28.7667 15.6667Z" fill="#222343"/>
</svg>
