<svg width="32" height="32" viewBox="0 0 32 32" fill="none" xmlns="http://www.w3.org/2000/svg">
<path d="M5.39991 26.0664C5.06657 26.1998 4.74657 26.1731 4.44657 25.9798C4.14657 25.7864 3.99324 25.5198 3.99324 25.1598V19.2731C3.99324 18.8131 4.30657 18.4131 4.75324 18.2998L11.4866 16.6264C12.1599 16.4598 12.1599 15.5064 11.4866 15.3331L4.73991 13.6131C4.29991 13.4998 3.98657 13.0998 3.98657 12.6464V6.82644C3.98657 6.4731 4.13991 6.19977 4.43991 6.00644C4.73991 5.8131 5.05991 5.78644 5.39324 5.91977L27.1266 15.0531C27.5266 15.2331 27.7266 15.5398 27.7266 15.9864C27.7266 16.4331 27.5266 16.7398 27.1266 16.9198L5.39324 26.0531L5.39991 26.0664Z" fill="currentColor"/>
</svg>
