<svg width="32" height="32" viewBox="0 0 32 32" fill="none" xmlns="http://www.w3.org/2000/svg">
<path d="M20.8667 14.2333C21.38 14.2333 21.8067 14.06 22.1467 13.72C22.4934 13.3733 22.6667 12.9467 22.6667 12.4333C22.6667 11.92 22.4934 11.4933 22.1467 11.1533C21.8 10.8133 21.3734 10.64 20.8667 10.64C20.36 10.64 19.9267 10.8133 19.5867 11.1533C19.2467 11.4933 19.0734 11.9267 19.0734 12.4333C19.0734 12.94 19.2467 13.3733 19.5867 13.7133C19.9267 14.0533 20.36 14.2267 20.8667 14.2333ZM11.1334 14.2333C11.6467 14.2333 12.0734 14.06 12.4134 13.72C12.7534 13.38 12.9267 12.9467 12.9267 12.44C12.9267 11.9333 12.7534 11.5 12.4134 11.16C12.0734 10.82 11.64 10.64 11.1334 10.6467C10.62 10.6467 10.1934 10.82 9.84669 11.16C9.50002 11.5067 9.33335 11.9333 9.33335 12.44C9.33335 12.9467 9.50669 13.38 9.84669 13.72C10.1934 14.0667 10.62 14.2333 11.1267 14.24L11.1334 14.2333ZM16 29.3333C14.18 29.3333 12.4534 28.9867 10.8334 28.28C9.21335 27.58 7.79335 26.6267 6.58002 25.4133C5.36669 24.2 4.41335 22.7867 3.71335 21.16C3.01335 19.54 2.66669 17.8067 2.66669 15.96C2.66669 14.1133 3.02002 12.4133 3.71335 10.7933C4.41335 9.17332 5.36669 7.75999 6.58002 6.55999C7.79335 5.35999 9.20669 4.41332 10.8334 3.70665C12.4534 3.00665 14.1867 2.65332 16.0334 2.65332C17.88 2.65332 19.58 3.00665 21.2 3.69999C22.82 4.39999 24.2334 5.35332 25.4334 6.55332C26.6334 7.75332 27.5867 9.16665 28.2867 10.7867C28.9867 12.4067 29.34 14.14 29.34 15.9867C29.34 17.8333 28.9934 19.5333 28.2867 21.1533C27.5867 22.7733 26.6334 24.1933 25.4334 25.4067C24.2334 26.62 22.82 27.5733 21.2 28.2733C19.58 28.9733 17.8467 29.3267 16 29.3267V29.3333ZM10.5 22.5C10.6534 22.5 10.8067 22.4533 10.9467 22.3667C11.0934 22.28 11.2067 22.1667 11.2934 22.0333C11.8067 21.28 12.48 20.7067 13.3267 20.3133C14.1734 19.92 15.0734 19.7267 16.0267 19.7267C16.98 19.7267 17.8467 19.9267 18.68 20.3267C19.5134 20.7267 20.2 21.3067 20.7334 22.06C20.82 22.1733 20.9467 22.2733 21.1 22.36C21.2534 22.4467 21.4 22.4933 21.5334 22.4933C21.8467 22.4933 22.0667 22.3667 22.2 22.1067C22.3334 21.8533 22.3134 21.5867 22.1334 21.3267C21.4867 20.3267 20.62 19.54 19.5334 18.96C18.4467 18.38 17.2667 18.0933 16 18.0933C14.7334 18.0933 13.56 18.38 12.4867 18.94C11.4067 19.5067 10.5667 20.2533 9.96669 21.1867C9.74669 21.52 9.70669 21.82 9.84669 22.0867C9.99335 22.3533 10.2067 22.4867 10.5 22.4867V22.5Z" fill="#222343"/>
</svg>
