<svg width="32" height="32" viewBox="0 0 32 32" fill="none" xmlns="http://www.w3.org/2000/svg">
<path d="M20.8667 14.2333C21.38 14.2333 21.8067 14.06 22.1467 13.72C22.4934 13.3733 22.6667 12.9467 22.6667 12.4333C22.6667 11.92 22.4934 11.4933 22.1467 11.1533C21.8 10.8133 21.3734 10.64 20.8667 10.64C20.36 10.64 19.9267 10.8133 19.5867 11.1533C19.2467 11.4933 19.0734 11.9267 19.0734 12.4333C19.0734 12.94 19.2467 13.3733 19.5867 13.7133C19.9267 14.0533 20.36 14.2267 20.8667 14.2333ZM11.1334 14.2333C11.6467 14.2333 12.0734 14.06 12.4134 13.72C12.7534 13.38 12.9267 12.9467 12.9267 12.44C12.9267 11.9333 12.7534 11.5 12.4134 11.16C12.0734 10.82 11.64 10.64 11.1334 10.6467C10.62 10.6467 10.1934 10.82 9.84669 11.16C9.50002 11.5067 9.33335 11.9333 9.33335 12.44C9.33335 12.9467 9.50669 13.38 9.84669 13.72C10.1934 14.0667 10.62 14.2333 11.1267 14.24L11.1334 14.2333ZM16 23.3C17.2667 23.3 18.4467 23.0133 19.5334 22.4333C20.62 21.8533 21.4867 21.0667 22.1334 20.0667C22.3134 19.8 22.3334 19.54 22.2 19.2867C22.0667 19.0333 21.8467 18.9 21.5334 18.9C21.4 18.9 21.2534 18.9467 21.1 19.0333C20.9467 19.12 20.82 19.22 20.7334 19.3333C20.2 20.0867 19.5134 20.6667 18.68 21.0667C17.8467 21.4667 16.96 21.6667 16.0267 21.6667C15.0934 21.6667 14.1734 21.4733 13.3267 21.08C12.48 20.6933 11.8067 20.12 11.2934 19.36C11.2067 19.2267 11.0867 19.1133 10.9467 19.0267C10.8 18.94 10.6534 18.8933 10.4934 18.8933C10.2067 18.8933 9.98669 19.02 9.84002 19.28C9.69335 19.5333 9.73335 19.8333 9.96002 20.1667C10.56 21.1 11.4 21.8533 12.4734 22.4333C13.5534 23.0133 14.7267 23.3 15.9867 23.3H16ZM16 29.3333C14.18 29.3333 12.4534 28.9867 10.8334 28.28C9.21335 27.58 7.79335 26.6267 6.58002 25.4133C5.36669 24.2 4.41335 22.7867 3.71335 21.16C3.01335 19.54 2.66669 17.8067 2.66669 15.96C2.66669 14.1133 3.02002 12.4133 3.71335 10.7933C4.41335 9.17332 5.36669 7.75999 6.58002 6.55999C7.79335 5.35999 9.20669 4.41332 10.8334 3.70665C12.4534 3.00665 14.1867 2.65332 16.0334 2.65332C17.88 2.65332 19.58 3.00665 21.2 3.69999C22.82 4.39999 24.2334 5.35332 25.4334 6.55332C26.6334 7.75332 27.5867 9.16665 28.2867 10.7867C28.9867 12.4067 29.34 14.14 29.34 15.9867C29.34 17.8333 28.9934 19.5333 28.2867 21.1533C27.5867 22.7733 26.6334 24.1933 25.4334 25.4067C24.2334 26.62 22.82 27.5733 21.2 28.2733C19.58 28.9733 17.8467 29.3267 16 29.3267V29.3333Z" fill="#222343"/>
</svg>
