<svg width="32" height="32" viewBox="0 0 32 32" fill="none" xmlns="http://www.w3.org/2000/svg">
<path d="M9.46669 13.6333C9.64669 13.8133 9.84669 13.9 10.0667 13.9C10.2867 13.9 10.4867 13.8133 10.6667 13.6333L11.5667 12.7333L12.4667 13.6333C12.6467 13.8133 12.8467 13.9 13.0667 13.9C13.2867 13.9 13.4867 13.8133 13.6667 13.6333C13.8467 13.4533 13.9334 13.2533 13.9334 13.0333C13.9334 12.8133 13.8467 12.6133 13.6667 12.4333L12.2667 11.0333C12.1534 10.92 12.0467 10.8467 11.9334 10.8C11.82 10.7533 11.7 10.7333 11.5667 10.7333C11.4334 10.7333 11.3134 10.7533 11.2 10.8C11.0867 10.8467 10.98 10.92 10.8667 11.0333L9.46669 12.4333C9.28669 12.6133 9.20002 12.8133 9.20002 13.0333C9.20002 13.2533 9.28669 13.4533 9.46669 13.6333ZM18.3667 13.6333C18.5467 13.8133 18.7467 13.9 18.9667 13.9C19.1867 13.9 19.3867 13.8133 19.5667 13.6333L20.4667 12.7333L21.3667 13.6333C21.5467 13.8133 21.7467 13.9 21.9667 13.9C22.1867 13.9 22.3867 13.8133 22.5667 13.6333C22.7467 13.4533 22.8334 13.2533 22.8334 13.0333C22.8334 12.8133 22.7467 12.6133 22.5667 12.4333L21.1667 11.0333C21.0534 10.92 20.9467 10.8467 20.8334 10.8C20.72 10.7533 20.6 10.7333 20.4667 10.7333C20.3334 10.7333 20.2134 10.7533 20.1 10.8C19.9867 10.8467 19.88 10.92 19.7667 11.0333L18.3667 12.4333C18.1867 12.6133 18.1 12.8133 18.1 13.0333C18.1 13.2533 18.1867 13.4533 18.3667 13.6333ZM16 29.3333C14.18 29.3333 12.4534 28.9867 10.8334 28.28C9.21335 27.58 7.79335 26.6267 6.58002 25.4133C5.36669 24.2 4.41335 22.7867 3.71335 21.16C3.01335 19.54 2.66669 17.8133 2.66669 15.9933C2.66669 14.1733 3.02002 12.4133 3.71335 10.7933C4.41335 9.17332 5.36669 7.75999 6.58002 6.55999C7.79335 5.35999 9.20669 4.41332 10.8334 3.70665C12.4534 3.00665 14.18 2.65332 16 2.65332C17.82 2.65332 19.58 3.00665 21.2 3.69999C22.82 4.39999 24.2334 5.35332 25.4334 6.55332C26.6334 7.75332 27.5867 9.16665 28.2867 10.7867C28.9867 12.4067 29.34 14.14 29.34 15.9867C29.34 17.8333 28.9934 19.5333 28.2867 21.1533C27.5867 22.7733 26.6334 24.1933 25.4334 25.4067C24.2334 26.62 22.82 27.5733 21.2 28.2733C19.58 28.9733 17.8467 29.3267 16 29.3267V29.3333ZM16 23.3C17.2667 23.3 18.46 23 19.5867 22.4C20.7067 21.8 21.5934 20.9667 22.2334 19.9C22.4134 19.6333 22.4267 19.4 22.2867 19.2C22.14 19 21.9134 18.9 21.6 18.9H10.4C10.0867 18.9 9.86669 19 9.73335 19.2C9.60002 19.4 9.62002 19.6333 9.80002 19.9C10.4467 20.9667 11.32 21.8 12.4334 22.4C13.5467 23 14.7334 23.3 16 23.3Z" fill="#222343"/>
</svg>
