<svg width="32" height="32" viewBox="0 0 32 32" fill="none" xmlns="http://www.w3.org/2000/svg">
<path d="M22.9219 29.8044C21.7541 29.8044 20.7568 29.3926 19.9299 28.5691C19.1032 27.7453 18.6899 26.7523 18.6899 25.5901C18.6899 25.4123 18.7391 25.0795 18.8376 24.5918L9.36089 19.0378C8.96133 19.4231 8.51622 19.7219 8.02556 19.9341C7.53489 20.1463 7.00267 20.2524 6.42889 20.2524C5.25289 20.2524 4.25333 19.839 3.43022 19.0121C2.60711 18.1852 2.19556 17.1812 2.19556 16.0001C2.19556 14.819 2.60711 13.815 3.43022 12.9881C4.25333 12.1612 5.25289 11.7478 6.42889 11.7478C6.98733 11.7478 7.51189 11.8511 8.00256 12.0578C8.49322 12.2644 8.93633 12.55 9.33189 12.9144L18.8186 7.46809C18.7868 7.30298 18.7573 7.1322 18.7302 6.95576C18.7033 6.77954 18.6899 6.60398 18.6899 6.42909C18.6899 5.26154 19.1037 4.26098 19.9312 3.42743C20.7586 2.59365 21.7562 2.17676 22.9242 2.17676C24.092 2.17676 25.0893 2.59376 25.9162 3.42776C26.7431 4.26154 27.1566 5.26231 27.1566 6.43009C27.1566 7.59809 26.744 8.59542 25.9189 9.42209C25.094 10.249 24.0922 10.6624 22.9136 10.6624C22.3604 10.6624 21.84 10.5561 21.3522 10.3434C20.8642 10.131 20.4236 9.85176 20.0302 9.50576L10.4999 14.7624C10.5666 14.9509 10.6166 15.1556 10.6499 15.3768C10.6832 15.5979 10.6999 15.8046 10.6999 15.9971C10.6999 16.1895 10.6888 16.3784 10.6666 16.5638C10.6443 16.7493 10.6048 16.931 10.5479 17.1088L20.0449 22.4988C20.4384 22.1394 20.8784 21.8561 21.3649 21.6488C21.8516 21.4414 22.3729 21.3378 22.9289 21.3378C24.1162 21.3378 25.1177 21.7499 25.9332 22.5741C26.7488 23.3983 27.1566 24.3992 27.1566 25.5768C27.1566 26.7541 26.7428 27.7531 25.9152 28.5738C25.0877 29.3942 24.0899 29.8044 22.9219 29.8044Z" fill="currentColor"/>
</svg>
