<svg width="32" height="32" viewBox="0 0 32 32" fill="none" xmlns="http://www.w3.org/2000/svg">
<path d="M22.8667 29.3335C21.8134 29.3335 20.9134 28.9668 20.1734 28.2268C19.4334 27.4868 19.0667 26.5935 19.0667 25.5335C19.0667 25.3535 19.1201 24.9802 19.2334 24.4002L9.26675 18.5668C8.90675 18.9535 8.48675 19.2535 8.01341 19.4735C7.54008 19.6935 7.02675 19.8002 6.46675 19.8002C5.41341 19.8002 4.51341 19.4335 3.77341 18.6935C3.03341 17.9535 2.66675 17.0602 2.66675 16.0002C2.66675 14.9402 3.03341 14.0468 3.77341 13.3068C4.51341 12.5668 5.40675 12.2002 6.46675 12.2002C7.00008 12.2002 7.50008 12.3068 7.96675 12.5068C8.43341 12.7135 8.84675 13.0002 9.20008 13.3668L19.2334 7.60016C19.1867 7.42016 19.1467 7.24016 19.1134 7.04682C19.0801 6.85349 19.0601 6.66016 19.0601 6.46016C19.0601 5.40682 19.4267 4.50682 20.1667 3.76682C20.9067 3.02682 21.8001 2.66016 22.8601 2.66016C23.9201 2.66016 24.8134 3.02682 25.5534 3.76682C26.2934 4.50682 26.6601 5.40016 26.6601 6.46016C26.6601 7.52016 26.2934 8.41349 25.5534 9.15349C24.8134 9.89349 23.9201 10.2602 22.8601 10.2602C22.3401 10.2602 21.8601 10.1602 21.4067 9.96016C20.9534 9.76016 20.5534 9.49349 20.1934 9.16016L10.0601 14.7935C10.1267 14.9735 10.1801 15.1668 10.2134 15.3802C10.2467 15.5935 10.2667 15.7935 10.2667 15.9802C10.2667 16.1668 10.2534 16.3468 10.2334 16.5135C10.2134 16.6802 10.1801 16.8535 10.1334 17.0335L20.2334 22.8002C20.5867 22.4668 20.9867 22.2068 21.4334 22.0135C21.8801 21.8268 22.3601 21.7268 22.8667 21.7268C23.9267 21.7268 24.8267 22.0935 25.5601 22.8335C26.2934 23.5735 26.6601 24.4668 26.6601 25.5268C26.6601 26.5868 26.2934 27.4802 25.5534 28.2202C24.8134 28.9602 23.9201 29.3268 22.8601 29.3268L22.8667 29.3335Z" fill="currentColor"/>
</svg>
