<svg width="32" height="32" viewBox="0 0 32 32" fill="none" xmlns="http://www.w3.org/2000/svg">
<path d="M26.6733 12.4934V14.1534C26.6733 14.82 26.0399 15.3 25.3999 15.1134C24.7199 14.92 23.8266 14.7534 22.8399 14.8067C20.6133 14.8467 18.6799 15.7667 17.1999 17.28C15.1999 19.32 14.4533 21.9334 15.0133 25.0134C15.2066 26.12 15.7866 27.0734 16.4599 27.9667C16.5466 28.0934 16.5933 28.2467 16.5933 28.4134C16.5933 28.8534 16.2399 29.2067 15.7999 29.2067C15.7466 29.2067 15.6933 29.2 15.6399 29.1934C15.5399 29.1734 15.4399 29.1467 15.3466 29.1067C9.49992 26.9467 5.33325 21.3267 5.33325 14.7267V8.00669C5.33325 7.17336 5.85325 6.42669 6.63325 6.13336L15.2999 2.90002C15.7533 2.73336 16.2466 2.73336 16.6999 2.90002L25.3666 6.13336C26.1466 6.42669 26.6666 7.17336 26.6666 8.00669V12.4934H26.6733Z" fill="currentColor"/>
<path d="M15.6399 29.1934C15.6999 29.2067 15.7666 29.1934 15.8266 29.2C15.8199 29.2 15.8133 29.2 15.7999 29.2C15.7466 29.2 15.6933 29.1934 15.6399 29.1867V29.1934Z" fill="currentColor"/>
<path d="M27.5199 18.6467C26.2866 17.4134 24.8133 16.8 23.1066 16.8C21.3999 16.8 19.8933 17.4134 18.6733 18.6467C17.4533 19.88 16.8399 21.3667 16.8399 23.0934C16.8399 24.82 17.4533 26.2467 18.6733 27.48C19.8933 28.7134 21.3733 29.3334 23.1066 29.3334C24.8399 29.3334 26.2866 28.72 27.5199 27.48C28.7533 26.24 29.3666 24.7867 29.3666 23.0934C29.3666 21.4 28.7533 19.88 27.5199 18.6467ZM21.6466 19.4134C22.0666 19.0134 22.5666 18.8134 23.1466 18.8134C23.7266 18.8134 24.2133 19.0134 24.6133 19.4134C25.0133 19.8134 25.2133 20.3 25.2133 20.88C25.2133 21.46 25.0133 21.96 24.6133 22.38C24.2133 22.8 23.7266 23.0134 23.1466 23.0134C22.5666 23.0134 22.0666 22.8 21.6466 22.38C21.2266 21.96 21.0133 21.46 21.0133 20.88C21.0133 20.3 21.2266 19.8134 21.6466 19.4134ZM26.3133 25.86C25.9133 26.3067 25.4333 26.6467 24.8799 26.8934C24.3266 27.14 23.7333 27.26 23.1133 27.26C22.4933 27.26 21.8933 27.1467 21.3333 26.9067C20.7666 26.6734 20.2799 26.32 19.8866 25.8534C19.7999 25.74 19.7733 25.62 19.8199 25.4867C19.8666 25.3534 19.9399 25.2667 20.0533 25.22C20.5399 24.9734 21.0399 24.8 21.5533 24.6867C22.0666 24.5734 22.5866 24.52 23.1199 24.52C23.6533 24.52 24.1733 24.58 24.6866 24.7067C25.1999 24.8334 25.6999 25 26.1866 25.2267C26.2999 25.2734 26.3733 25.36 26.4066 25.4934C26.4399 25.6267 26.4066 25.7467 26.3266 25.86H26.3133Z" fill="currentColor"/>
</svg>
