<svg width="32" height="32" viewBox="0 0 32 32" fill="none" xmlns="http://www.w3.org/2000/svg">
<path d="M25.3666 6.13336L23.5399 5.45336L16.6999 2.90002C16.2466 2.73336 15.7533 2.73336 15.2999 2.90002L8.45992 5.45336L6.63325 6.13336C5.85325 6.42669 5.33325 7.17336 5.33325 8.00669V14.7267C5.33325 21.32 9.49992 26.9467 15.3399 29.1067C15.7666 29.2667 16.2333 29.2667 16.6599 29.1067C22.4999 26.9467 26.6666 21.32 26.6666 14.7267V8.00669C26.6666 7.17336 26.1466 6.42669 25.3666 6.13336ZM19.8666 17.9667C20.0866 18.1667 20.1999 18.4134 20.1999 18.7C20.1999 18.9867 20.0866 19.2467 19.8666 19.4667C19.6666 19.6667 19.4199 19.7667 19.1333 19.7667C18.8466 19.7667 18.5999 19.6667 18.3999 19.4667L15.9999 17.1667L13.5999 19.4667C13.3999 19.6667 13.1533 19.7667 12.8666 19.7667C12.5799 19.7667 12.3333 19.6667 12.1333 19.4667C11.9133 19.2467 11.7999 18.9867 11.7999 18.7C11.7999 18.4134 11.9133 18.1667 12.1333 17.9667L14.4666 15.6667L12.1333 13.3334C11.9133 13.1334 11.8066 12.8867 11.8199 12.5867C11.8333 12.2867 11.9333 12.0334 12.1333 11.84C12.3533 11.62 12.6066 11.5134 12.8799 11.52C13.1533 11.5267 13.3999 11.64 13.5999 11.84L15.9999 14.14L18.3999 11.84C18.5999 11.64 18.8466 11.54 19.1333 11.54C19.4199 11.54 19.6666 11.64 19.8666 11.84C20.0866 12.06 20.1999 12.32 20.1999 12.6067C20.1999 12.8934 20.0866 13.14 19.8666 13.34L17.5333 15.6734L19.8666 17.9734V17.9667Z" fill="currentColor"/>
</svg>
