<svg width="32" height="32" viewBox="0 0 32 32" fill="none" xmlns="http://www.w3.org/2000/svg">
<path d="M25.3666 6.13336L23.5399 5.45336L16.6999 2.90002C16.2466 2.73336 15.7533 2.73336 15.2999 2.90002L8.45992 5.45336L6.63325 6.13336C5.85325 6.42669 5.33325 7.17336 5.33325 8.00669V14.7267C5.33325 21.32 9.49992 26.94 15.3399 29.1067C15.7599 29.26 16.2333 29.26 16.6599 29.1067C22.4999 26.94 26.6666 21.32 26.6666 14.7267V8.00669C26.6666 7.17336 26.1466 6.42669 25.3666 6.13336ZM16.8666 22.1334C16.6199 22.38 16.3333 22.5 15.9999 22.5C15.6666 22.5 15.3799 22.38 15.1333 22.1334C14.8866 21.8867 14.7666 21.6 14.7666 21.2667C14.7666 20.9334 14.8866 20.6467 15.1333 20.4C15.3799 20.1534 15.6666 20.0334 15.9999 20.0334C16.3333 20.0334 16.6199 20.1534 16.8666 20.4C17.1133 20.6467 17.2333 20.9334 17.2333 21.2667C17.2333 21.6 17.1133 21.8867 16.8666 22.1334ZM19.1666 14.4067C18.8533 14.9134 18.4799 15.3667 18.0333 15.7667C17.8799 15.9 17.7266 16.0467 17.5866 16.2C17.4399 16.3534 17.3133 16.52 17.1999 16.7C17.1133 16.8267 17.0466 16.96 16.9999 17.1C16.9533 17.24 16.9199 17.3867 16.8999 17.5334C16.8533 17.7334 16.7533 17.9 16.5999 18.0334C16.4399 18.1667 16.2666 18.2334 16.0666 18.2334C15.8266 18.2334 15.6266 18.1534 15.4666 18C15.3133 17.8467 15.2333 17.6467 15.2333 17.4C15.2333 17.1867 15.2733 16.9734 15.3533 16.7534C15.4266 16.54 15.5199 16.3467 15.6333 16.1667C15.7866 15.92 15.9599 15.6867 16.1533 15.4667C16.3399 15.2467 16.5466 15.0334 16.7666 14.8334C17.0733 14.56 17.3466 14.26 17.5933 13.9267C17.8399 13.6 17.9666 13.2267 17.9666 12.8067C17.9666 12.3067 17.7866 11.9 17.4199 11.58C17.0533 11.26 16.6133 11.1 16.0999 11.1C15.7466 11.1 15.4133 11.1734 15.0999 11.3134C14.7866 11.46 14.5199 11.6667 14.2999 11.9334C14.1466 12.1134 13.9666 12.2467 13.7666 12.3334C13.5666 12.42 13.3666 12.42 13.1666 12.3334C12.9533 12.24 12.7999 12.0867 12.7199 11.88C12.6399 11.6734 12.6533 11.48 12.7666 11.3C13.1199 10.72 13.5933 10.28 14.1799 9.96669C14.7666 9.65336 15.4066 9.50002 16.0999 9.50002C17.0533 9.50002 17.8866 9.80669 18.5866 10.4134C19.2866 11.0267 19.6333 11.8 19.6333 12.7334C19.6333 13.34 19.4799 13.8934 19.1666 14.4067Z" fill="currentColor"/>
</svg>
