<svg width="32" height="32" viewBox="0 0 32 32" fill="none" xmlns="http://www.w3.org/2000/svg">
<path d="M25.3668 6.13324L23.5402 5.45324L16.7002 2.8999C16.2468 2.73324 15.7535 2.73324 15.3002 2.8999L8.46016 5.45324L6.6335 6.13324C5.8535 6.42657 5.3335 7.17324 5.3335 8.00657V14.7266C5.3335 21.3199 9.50016 26.9466 15.3402 29.1066C15.7668 29.2666 16.2335 29.2666 16.6602 29.1066C22.5002 26.9466 26.6668 21.3199 26.6668 14.7266V8.00657C26.6668 7.17324 26.1468 6.42657 25.3668 6.13324ZM20.6668 15.8999C20.6668 16.0999 20.5935 16.2799 20.4468 16.4332C20.3002 16.5866 20.1335 16.6666 19.9335 16.6666H17.3335V19.2332C17.3335 19.4332 17.2602 19.6132 17.1135 19.7666C16.9668 19.9199 16.8002 19.9999 16.6002 19.9999H15.4335C15.2335 19.9999 15.0535 19.9199 14.9002 19.7666C14.7468 19.6132 14.6668 19.4332 14.6668 19.2332V16.6666H12.1002C11.9002 16.6666 11.7202 16.5866 11.5668 16.4332C11.4135 16.2799 11.3335 16.0999 11.3335 15.8999V14.7332C11.3335 14.5332 11.4135 14.3599 11.5668 14.2199C11.7202 14.0732 11.9002 13.9999 12.1002 13.9999H14.6668V11.3999C14.6668 11.1999 14.7468 11.0266 14.9002 10.8866C15.0535 10.7399 15.2335 10.6666 15.4335 10.6666H16.6002C16.8002 10.6666 16.9735 10.7399 17.1135 10.8866C17.2602 11.0332 17.3335 11.1999 17.3335 11.3999V13.9999H19.9335C20.1335 13.9999 20.3068 14.0732 20.4468 14.2199C20.5935 14.3666 20.6668 14.5332 20.6668 14.7332V15.8999Z" fill="#222343"/>
</svg>
