<svg width="32" height="32" viewBox="0 0 32 32" fill="none" xmlns="http://www.w3.org/2000/svg">
<path d="M25.3666 6.13336L16.6999 2.90002C16.2466 2.73336 15.7533 2.73336 15.2999 2.90002L6.63325 6.13336C5.85325 6.42669 5.33325 7.17336 5.33325 8.00669V14.7267C5.33325 21.32 9.49992 26.9467 15.3399 29.1067C15.7666 29.2667 16.2333 29.2667 16.6599 29.1067C19.2199 28.16 21.4599 26.5467 23.1666 24.48L18.7533 20.0667C17.9666 20.5934 17.0199 20.9 15.9999 20.9C13.2399 20.9 10.9999 18.66 10.9999 15.9C10.9999 13.14 13.2399 10.9 15.9999 10.9C18.7599 10.9 20.9999 13.14 20.9999 15.9C20.9999 16.92 20.6933 17.8667 20.1666 18.6534L24.3533 22.84C25.8199 20.4867 26.6666 17.7067 26.6666 14.7267V8.00669C26.6666 7.17336 26.1466 6.42669 25.3666 6.13336ZM12.9999 15.9C12.9999 17.56 14.3399 18.9 15.9999 18.9C17.6599 18.9 18.9999 17.56 18.9999 15.9C18.9999 14.24 17.6599 12.9 15.9999 12.9C14.3399 12.9 12.9999 14.24 12.9999 15.9Z" fill="currentColor"/>
</svg>
