<svg width="32" height="32" viewBox="0 0 32 32" fill="none" xmlns="http://www.w3.org/2000/svg">
<path d="M25.3666 6.13336L23.5399 5.45336L16.6999 2.90002C16.2466 2.73336 15.7533 2.73336 15.2999 2.90002L8.45992 5.45336L6.63325 6.13336C5.85325 6.42669 5.33325 7.17336 5.33325 8.00669V14.7267C5.33325 21.32 9.49992 26.94 15.3399 29.1067C15.7599 29.26 16.2333 29.26 16.6599 29.1067C22.4999 26.94 26.6666 21.32 26.6666 14.7267V8.00669C26.6666 7.17336 26.1466 6.42669 25.3666 6.13336ZM17.9399 14.28C17.6799 14.6667 17.3199 14.96 16.8666 15.1667L17.5999 19.4C17.6466 19.5467 17.5999 19.6867 17.4933 19.8134C17.3866 19.94 17.2533 20 17.0999 20H14.8999C14.7533 20 14.6199 19.94 14.5066 19.8134C14.3933 19.6867 14.3533 19.5467 14.3999 19.4L15.1333 15.1667C14.6799 14.96 14.3199 14.6667 14.0599 14.28C13.7999 13.8934 13.6666 13.4667 13.6666 13C13.6666 12.36 13.8933 11.8067 14.3533 11.3534C14.8066 10.8934 15.3533 10.6667 15.9999 10.6667C16.6466 10.6667 17.1866 10.8934 17.6466 11.3534C18.1066 11.8067 18.3333 12.36 18.3333 13C18.3333 13.4667 18.1999 13.8934 17.9399 14.28Z" fill="currentColor"/>
</svg>
