<svg width="32" height="32" viewBox="0 0 32 32" fill="none" xmlns="http://www.w3.org/2000/svg">
<path d="M15.0133 25.0134C14.4533 21.9334 15.1999 19.32 17.1999 17.28C18.6799 15.7667 20.6133 14.8467 22.8399 14.8067C23.8266 14.7534 24.7199 14.92 25.3999 15.1134C26.0399 15.3 26.6733 14.82 26.6733 14.1534V8.00669C26.6666 7.17336 26.1466 6.42669 25.3666 6.13336L16.6999 2.90002C16.2466 2.73336 15.7533 2.73336 15.2999 2.90002L6.63325 6.13336C5.85325 6.42669 5.33325 7.17336 5.33325 8.00669V14.7267C5.33325 21.3267 9.49992 26.9467 15.3466 29.1067C15.4399 29.1467 15.5399 29.1734 15.6399 29.1934C15.6933 29.2 15.7466 29.2067 15.7999 29.2067C16.2399 29.2067 16.5933 28.8534 16.5933 28.4134C16.5933 28.2467 16.5466 28.0934 16.4599 27.9667C15.7866 27.0734 15.2066 26.12 15.0133 25.0134Z" fill="currentColor"/>
<path d="M27.5199 18.64C26.2866 17.4134 24.8133 16.8 23.1066 16.8C21.3999 16.8 19.8933 17.4134 18.6733 18.64C17.4533 19.8667 16.8399 21.3534 16.8399 23.1C16.8399 24.8467 17.4533 26.2534 18.6733 27.4867C19.8933 28.72 21.3666 29.34 23.0866 29.34C24.8066 29.34 26.2866 28.7267 27.5199 27.4867C28.7533 26.2467 29.3666 24.7934 29.3666 23.1C29.3666 21.4067 28.7533 19.8734 27.5199 18.64ZM26.5533 23.4934C26.4533 23.6067 26.3199 23.6667 26.1599 23.6667H23.7066V26.1C23.7066 26.2534 23.6533 26.3867 23.5599 26.5C23.4599 26.6134 23.3333 26.6734 23.1799 26.6734C23.0266 26.6734 22.8933 26.62 22.7799 26.52C22.6666 26.42 22.6066 26.2867 22.6066 26.1267V23.6734H20.1733C20.0199 23.6734 19.8933 23.6134 19.7799 23.5C19.6666 23.3867 19.6066 23.2534 19.6066 23.1C19.6066 22.9467 19.6533 22.82 19.7533 22.72C19.8533 22.62 19.9866 22.5667 20.1466 22.5667H22.5999V20.1134C22.5999 19.9467 22.6599 19.82 22.7733 19.72C22.8866 19.62 23.0199 19.5667 23.1733 19.5667C23.3266 19.5667 23.4533 19.62 23.5533 19.72C23.6533 19.82 23.6999 19.9534 23.6999 20.1134V22.5667H26.1533C26.3199 22.5667 26.4466 22.62 26.5466 22.72C26.6466 22.82 26.6933 22.9467 26.6933 23.1C26.6933 23.2534 26.6399 23.3867 26.5466 23.5L26.5533 23.4934Z" fill="currentColor"/>
</svg>
