<svg width="32" height="32" viewBox="0 0 32 32" fill="none" xmlns="http://www.w3.org/2000/svg">
<path d="M25.3666 6.13336L23.5399 5.45336L16.6999 2.90002C16.2466 2.73336 15.7533 2.73336 15.2999 2.90002L8.45992 5.45336L6.63325 6.13336C5.85325 6.42669 5.33325 7.17336 5.33325 8.00669V14.7267C5.33325 21.32 9.49992 26.9467 15.3399 29.1067C15.7666 29.2667 16.2333 29.2667 16.6599 29.1067C22.4999 26.9467 26.6666 21.32 26.6666 14.7267V8.00669C26.6666 7.17336 26.1466 6.42669 25.3666 6.13336ZM20.8999 13.6667L17.9999 15.7334L19.1666 19.1667C19.2133 19.28 19.1866 19.3667 19.0866 19.4334C18.9866 19.5 18.8799 19.5 18.7666 19.4334L15.9999 17.3334L13.1333 19.4667C13.0199 19.5334 12.9199 19.5267 12.8199 19.4467C12.7199 19.3734 12.6866 19.28 12.7333 19.1667L13.9333 15.7334L11.0999 13.6667C10.9866 13.6 10.9533 13.5067 10.9999 13.38C11.0466 13.26 11.1199 13.2 11.2333 13.2H14.7333L15.7666 9.83336C15.8133 9.72002 15.8866 9.66669 15.9999 9.66669C16.1133 9.66669 16.1866 9.72002 16.2333 9.83336L17.2666 13.2H20.7666C20.8799 13.2 20.9533 13.26 20.9999 13.38C21.0466 13.5067 21.0133 13.6 20.8999 13.6667Z" fill="currentColor"/>
</svg>
