<svg width="32" height="32" viewBox="0 0 32 32" fill="none" xmlns="http://www.w3.org/2000/svg">
<path d="M26.6666 8.00001V14.5333C26.6666 15.5333 26.5666 16.54 26.3666 17.5533C26.1666 18.5667 25.88 19.56 25.5 20.54C25.4133 20.74 25.2866 20.9 25.1333 21.0267C24.98 21.1533 24.8133 21.2333 24.6333 21.28C24.4533 21.3267 24.26 21.3133 24.0466 21.2467C23.8333 21.18 23.6533 21.0667 23.4933 20.9133L9.29997 6.66668C9.18664 6.55334 9.1133 6.44668 9.06664 6.33334C9.01997 6.22001 8.99997 6.10001 8.99997 5.96668C8.99997 5.76668 9.05997 5.58001 9.18664 5.41334C9.3133 5.24668 9.4733 5.12001 9.6733 5.02668L15.3066 2.89334C15.5533 2.80668 15.7866 2.76001 16.0066 2.76001C16.2266 2.76001 16.46 2.80668 16.7066 2.89334L25.3733 6.09334C25.7533 6.24668 26.06 6.50001 26.3066 6.84668C26.5533 7.19334 26.6733 7.57334 26.6733 8.00001H26.6666ZM22.3333 25.5C21.4866 26.3467 20.6133 27.06 19.7 27.6533C18.7866 28.24 17.7666 28.7267 16.6333 29.1067C16.52 29.1533 16.4133 29.18 16.3133 29.1933C16.2133 29.2067 16.1066 29.2133 15.9933 29.2133C15.84 29.2133 15.6266 29.1667 15.36 29.08C12.2466 27.9667 9.79997 26.0933 8.00664 23.4467C6.21997 20.8 5.31997 17.8333 5.31997 14.5467V8.44668L2.51997 5.64668C2.31997 5.44668 2.21997 5.20668 2.21997 4.92668C2.21997 4.64668 2.31997 4.40668 2.51997 4.20668C2.71997 4.00668 2.95997 3.90668 3.23997 3.90668C3.51997 3.90668 3.75997 4.00668 3.95997 4.20668L27.7266 27.9733C27.9266 28.1733 28.02 28.4133 28.0133 28.6933C28.0066 28.9733 27.8933 29.2133 27.6933 29.4133C27.4933 29.6133 27.26 29.7133 26.9933 29.7133C26.7266 29.7133 26.4933 29.6133 26.2933 29.4133L22.3266 25.5133L22.3333 25.5Z" fill="currentColor"/>
</svg>
