<svg width="32" height="32" viewBox="0 0 32 32" fill="none" xmlns="http://www.w3.org/2000/svg">
<path d="M6.19998 19.8333L16 12.2666L25.8 19.8666C25.22 21.7533 24.2866 23.4466 22.9866 24.9333C21.6866 26.4199 20.14 27.5866 18.3333 28.4333V21.3333C18.3333 21.0466 18.24 20.8066 18.0533 20.6133C17.8666 20.4266 17.6266 20.3333 17.3333 20.3333H14.6666C14.38 20.3333 14.14 20.4266 13.9466 20.6133C13.76 20.7999 13.6666 21.0399 13.6666 21.3333V28.3999C11.8666 27.5533 10.32 26.3866 9.01331 24.8999C7.71331 23.4133 6.77331 21.7199 6.19998 19.8333ZM5.33331 14.5666V8.03327C5.33331 7.61327 5.45331 7.2266 5.69998 6.87993C5.94665 6.53327 6.25331 6.2866 6.63331 6.13327L15.3 2.89993C15.5466 2.81327 15.78 2.7666 16 2.7666C16.22 2.7666 16.4533 2.81327 16.7 2.89993L25.3666 6.13327C25.7466 6.2866 26.0533 6.53993 26.3 6.87993C26.5466 7.2266 26.6666 7.6066 26.6666 8.03327V14.5666C26.6666 15.0533 26.64 15.5933 26.5866 16.1799C26.5333 16.7666 26.4466 17.2933 26.3333 17.7666L17.2333 10.6999C16.8533 10.4133 16.4466 10.2666 16 10.2666C15.5533 10.2666 15.1466 10.4133 14.7666 10.6999L5.66665 17.7666C5.55331 17.2999 5.47331 16.7733 5.41331 16.1799C5.35998 15.5933 5.33331 15.0533 5.33331 14.5666Z" fill="#222343"/>
</svg>
