<svg width="32" height="32" viewBox="0 0 32 32" fill="none" xmlns="http://www.w3.org/2000/svg">
<path fill-rule="evenodd" clip-rule="evenodd" d="M14.08 5.84L9.55757 13.3333H3.66663C3.11329 13.3333 2.66663 13.7799 2.66663 14.3333V14.9999C2.66663 15.5533 3.11329 15.9999 3.66663 15.9999H4.27329L6.32663 25.1066C6.53329 26.0199 7.33996 26.6666 8.27996 26.6666H23.7466C24.68 26.6666 25.4933 26.0199 25.7 25.1066L27.7533 15.9999H28.34C28.8933 15.9999 29.34 15.5533 29.34 14.9999V14.3333C29.34 13.7799 28.8933 13.3333 28.34 13.3333H22.2438L17.7133 5.84659C17.4267 5.37326 16.8133 5.21992 16.34 5.50659C16.1181 5.64099 15.9665 5.84719 15.8976 6.07711C15.8297 5.84454 15.6773 5.63568 15.4533 5.5C14.98 5.21333 14.3666 5.36666 14.08 5.84ZM15.8957 6.6438C15.8719 6.72253 15.838 6.79963 15.7933 6.87333L11.8945 13.3333H19.9051L16 6.87992C15.9541 6.80416 15.9195 6.72482 15.8957 6.6438ZM11.02 23.1199C11.02 23.6733 10.5733 24.1199 10.02 24.1199C9.46663 24.1199 9.01996 23.6733 9.01996 23.1199V18.4066C9.01996 17.8533 9.46663 17.4066 10.02 17.4066C10.5733 17.4066 11.02 17.8533 11.02 18.4066V23.1199ZM15.02 23.1199C15.02 23.6733 14.5733 24.1199 14.02 24.1199C13.4666 24.1199 13.02 23.6733 13.02 23.1199V18.4066C13.02 17.8533 13.4666 17.4066 14.02 17.4066C14.5733 17.4066 15.02 17.8533 15.02 18.4066V23.1199ZM19.02 23.1199C19.02 23.6733 18.5733 24.1199 18.02 24.1199C17.4666 24.1199 17.02 23.6733 17.02 23.1199V18.4066C17.02 17.8533 17.4666 17.4066 18.02 17.4066C18.5733 17.4066 19.02 17.8533 19.02 18.4066V23.1199ZM23.02 23.1199C23.02 23.6733 22.5733 24.1199 22.02 24.1199C21.4666 24.1199 21.02 23.6733 21.02 23.1199V18.4066C21.02 17.8533 21.4666 17.4066 22.02 17.4066C22.5733 17.4066 23.02 17.8533 23.02 18.4066V23.1199Z" fill="#222343"/>
</svg>
