<svg width="32" height="32" viewBox="0 0 32 32" fill="none" xmlns="http://www.w3.org/2000/svg">
<path d="M14.6133 20.5599L20.4466 16.7666C21.0533 16.3733 21.0533 15.4866 20.4466 15.0866L14.6133 11.2933C13.9466 10.8599 13.0666 11.3399 13.0666 12.1333V19.7133C13.0666 20.5066 13.9466 20.9866 14.6133 20.5533V20.5599ZM4.66663 26.6666C4.13329 26.6666 3.66663 26.4666 3.26663 26.0666C2.86663 25.6666 2.66663 25.1999 2.66663 24.6666V7.33325C2.66663 6.79992 2.86663 6.33325 3.26663 5.93325C3.66663 5.53325 4.13329 5.33325 4.66663 5.33325H27.3333C27.8666 5.33325 28.3333 5.53325 28.7333 5.93325C29.1333 6.33325 29.3333 6.79992 29.3333 7.33325V24.6666C29.3333 25.1999 29.1333 25.6666 28.7333 26.0666C28.3333 26.4666 27.8666 26.6666 27.3333 26.6666H4.66663Z" fill="#222343"/>
</svg>
