<svg width="32" height="32" viewBox="0 0 32 32" fill="none" xmlns="http://www.w3.org/2000/svg">
<path d="M16 2.66675C8.63329 2.66675 2.66663 8.63341 2.66663 16.0001C2.66663 23.3667 8.63329 29.3334 16 29.3334C23.3666 29.3334 29.3333 23.3667 29.3333 16.0001C29.3333 8.63341 23.3666 2.66675 16 2.66675ZM25.3333 20.3334C25.3333 20.8867 24.8866 21.3334 24.3333 21.3334H9.33329L7.63329 22.1867C7.19329 22.4067 6.66663 22.0867 6.66663 21.5934V10.3334C6.66663 9.78008 7.11329 9.33341 7.66663 9.33341H24.3333C24.8866 9.33341 25.3333 9.78008 25.3333 10.3334V20.3334Z" fill="#222343"/>
<path d="M23.2 13.4934C23.3733 13.4934 23.5133 13.4334 23.6267 13.3267C23.74 13.2134 23.8 13.0667 23.8 12.8934C23.8 12.72 23.74 12.58 23.6267 12.4667C23.5133 12.3534 23.3733 12.2934 23.2 12.2934H20.9533C20.74 12.2934 20.56 12.3667 20.42 12.5067C20.2733 12.6534 20.2067 12.8267 20.2067 13.04V15.14C20.2067 15.3534 20.28 15.5334 20.42 15.6734C20.5667 15.82 20.74 15.8867 20.9533 15.8867H22.6V17.0867H20.8C20.6267 17.0867 20.48 17.14 20.3733 17.2534C20.26 17.3667 20.2 17.5067 20.2 17.68C20.2 17.8534 20.26 17.9934 20.3733 18.1067C20.4867 18.22 20.6267 18.2734 20.8 18.2734H23.0467C23.26 18.2734 23.44 18.2 23.58 18.06C23.7267 17.9134 23.7933 17.74 23.7933 17.5267V15.4267C23.7933 15.2134 23.72 15.0334 23.58 14.8934C23.4333 14.7467 23.26 14.68 23.0467 14.68H21.4V13.48H23.2V13.4934Z" fill="#222343"/>
<path d="M18.1533 12.2934H13.8533C13.6 12.2934 13.4 12.3734 13.24 12.5334C13.08 12.6934 13 12.8934 13 13.1467V17.7001C13 17.8734 13.06 18.0134 13.1733 18.1267C13.2866 18.2401 13.4266 18.2934 13.6 18.2934C13.7733 18.2934 13.9133 18.2401 14.0266 18.1267C14.14 18.0134 14.2 17.8734 14.2 17.7001V13.5001H15.4V16.6467C15.4 16.8201 15.46 16.9667 15.5733 17.0801C15.6866 17.1934 15.8266 17.2467 16 17.2467C16.1733 17.2467 16.3133 17.1867 16.4266 17.0801C16.54 16.9667 16.6 16.8201 16.6 16.6467V13.5001H17.8V17.7001C17.8 17.8734 17.86 18.0134 17.9733 18.1267C18.0866 18.2401 18.2266 18.2934 18.4 18.2934C18.5733 18.2934 18.7133 18.2401 18.8266 18.1267C18.94 18.0134 19 17.8734 19 17.7001V13.1467C19 12.8934 18.92 12.6934 18.76 12.5334C18.6 12.3734 18.4 12.2934 18.1466 12.2934H18.1533Z" fill="#222343"/>
<path d="M11.2 13.4934C11.3733 13.4934 11.5133 13.4334 11.6267 13.3267C11.74 13.2134 11.8 13.0667 11.8 12.8934C11.8 12.72 11.74 12.58 11.6267 12.4667C11.5133 12.3534 11.3733 12.2934 11.2 12.2934H8.95333C8.73999 12.2934 8.55999 12.3667 8.41999 12.5067C8.27333 12.6534 8.20666 12.8267 8.20666 13.04V15.14C8.20666 15.3534 8.27999 15.5334 8.41999 15.6734C8.56666 15.82 8.73999 15.8867 8.95333 15.8867H10.6V17.0867H8.79999C8.62666 17.0867 8.47999 17.14 8.37333 17.2534C8.25999 17.3667 8.19999 17.5067 8.19999 17.68C8.19999 17.8534 8.25999 17.9934 8.37333 18.1067C8.48666 18.22 8.62666 18.2734 8.79999 18.2734H11.0467C11.26 18.2734 11.44 18.2 11.58 18.06C11.7267 17.9134 11.7933 17.74 11.7933 17.5267V15.4267C11.7933 15.2134 11.72 15.0334 11.58 14.8934C11.4333 14.7467 11.26 14.68 11.0467 14.68H9.39999V13.48H11.2V13.4934Z" fill="#222343"/>
</svg>
