<svg width="32" height="32" viewBox="0 0 32 32" fill="none" xmlns="http://www.w3.org/2000/svg">
<path d="M28.72 3.28675C28.3066 2.87341 27.8466 2.66675 27.3333 2.66675H4.66663C4.13329 2.66675 3.66663 2.87341 3.26663 3.28675C2.86663 3.70008 2.66663 4.16008 2.66663 4.66675V26.9334C2.66663 27.3801 2.87329 27.6801 3.27996 27.8534C3.69329 28.0201 4.05329 27.9467 4.35996 27.6401L7.99329 24.0067H27.3266C27.84 24.0067 28.3 23.8001 28.7133 23.3867C29.1266 22.9734 29.3266 22.5134 29.3266 22.0067V4.66675C29.3266 4.15341 29.12 3.69341 28.7133 3.28675H28.72ZM9.39996 12.5334C9.67996 12.5334 9.91996 12.6267 10.1133 12.8201C10.3066 13.0134 10.4 13.2467 10.4 13.5334V16.3334C10.4 16.6201 10.3066 16.8534 10.1133 17.0467C9.91996 17.2401 9.68663 17.3334 9.39996 17.3334H6.39996C6.16663 17.3334 5.97996 17.2601 5.82663 17.1067C5.67329 16.9534 5.59996 16.7667 5.59996 16.5334C5.59996 16.3001 5.67329 16.1134 5.82663 15.9601C5.97996 15.8067 6.16663 15.7334 6.39996 15.7334H8.79996V14.1334H6.59996C6.31996 14.1334 6.07996 14.0401 5.88663 13.8467C5.69329 13.6534 5.59996 13.4201 5.59996 13.1334V10.3334C5.59996 10.0467 5.69329 9.81341 5.88663 9.62008C6.07996 9.42675 6.31329 9.33341 6.59996 9.33341H9.59996C9.83329 9.33341 10.02 9.40675 10.1733 9.56008C10.3266 9.71341 10.4 9.90008 10.4 10.1334C10.4 10.3667 10.3266 10.5534 10.1733 10.7067C10.02 10.8601 9.83329 10.9334 9.59996 10.9334H7.19996V12.5334H9.39996ZM20 16.5334C20 16.7667 19.9266 16.9534 19.7733 17.1067C19.62 17.2601 19.4333 17.3334 19.2 17.3334C18.9666 17.3334 18.78 17.2601 18.6266 17.1067C18.4733 16.9534 18.4 16.7667 18.4 16.5334V10.9334H16.8V15.1334C16.8 15.3667 16.7266 15.5534 16.5733 15.7067C16.42 15.8601 16.2333 15.9334 16 15.9334C15.7666 15.9334 15.58 15.8601 15.4266 15.7067C15.2733 15.5534 15.2 15.3667 15.2 15.1334V10.9334H13.6V16.5334C13.6 16.7667 13.5266 16.9534 13.3733 17.1067C13.22 17.2601 13.0333 17.3334 12.8 17.3334C12.5666 17.3334 12.38 17.2601 12.2266 17.1067C12.0733 16.9534 12 16.7667 12 16.5334V10.4667C12 10.1334 12.1066 9.86008 12.3133 9.65341C12.5266 9.44008 12.8 9.33341 13.1333 9.33341H18.8666C19.2 9.33341 19.4733 9.44008 19.68 9.65341C19.8933 9.86675 20 10.1334 20 10.4667V16.5334ZM25.4 12.5334C25.68 12.5334 25.92 12.6267 26.1133 12.8201C26.3066 13.0134 26.4 13.2467 26.4 13.5334V16.3334C26.4 16.6201 26.3066 16.8534 26.1133 17.0467C25.92 17.2401 25.6866 17.3334 25.4 17.3334H22.4C22.1666 17.3334 21.98 17.2601 21.8266 17.1067C21.6733 16.9534 21.6 16.7667 21.6 16.5334C21.6 16.3001 21.6733 16.1134 21.8266 15.9601C21.98 15.8067 22.1666 15.7334 22.4 15.7334H24.8V14.1334H22.6C22.32 14.1334 22.08 14.0401 21.8866 13.8467C21.6933 13.6534 21.6 13.4201 21.6 13.1334V10.3334C21.6 10.0467 21.6933 9.81341 21.8866 9.62008C22.08 9.42675 22.3133 9.33341 22.6 9.33341H25.6C25.8333 9.33341 26.02 9.40675 26.1733 9.56008C26.3266 9.71341 26.4 9.90008 26.4 10.1334C26.4 10.3667 26.3266 10.5534 26.1733 10.7067C26.02 10.8601 25.8333 10.9334 25.6 10.9334H23.2V12.5334H25.4Z" fill="#222343"/>
</svg>
