<svg width="32" height="32" viewBox="0 0 32 32" fill="none" xmlns="http://www.w3.org/2000/svg">
<path d="M14.98 2.59009C14.4277 2.59009 13.98 3.0378 13.98 3.59009V6.99009C13.98 7.54237 14.4277 7.99009 14.98 7.99009C15.5323 7.99009 15.98 7.54237 15.98 6.99009V3.59009C15.98 3.0378 15.5323 2.59009 14.98 2.59009Z" fill="#222343"/>
<path d="M14.0875 18.4524C13.5566 19.3455 13.667 20.5204 14.4333 21.2867C14.8733 21.7267 15.4599 21.9733 16.0799 21.9733H16.1133C16.1066 22.58 16.3266 23.1933 16.7933 23.6533C17.2599 24.1133 17.8199 24.34 18.4399 24.34C18.5266 24.34 18.6133 24.3267 18.6933 24.3133C18.7266 24.86 18.9466 25.4 19.3599 25.82C19.5999 26.06 19.8799 26.2333 20.1799 26.3467L18.3466 28.14C16.9066 29.5466 14.6466 29.66 13.0666 28.4133L12.2266 27.7333L10.1999 25.8533C9.27328 25.0933 8.73328 23.96 8.73328 22.76V13.12C8.73994 12.0667 9.75328 11.3133 10.7666 11.6133C11.3266 11.78 11.7466 12.24 11.8599 12.8133L11.8799 12.8067L12.7198 16.9935L19.7 10.0133C20.0933 9.61993 20.7267 9.61993 21.1133 10.0133C21.5 10.4066 21.5067 11.0399 21.1133 11.4266L14.0875 18.4524Z" fill="#222343"/>
<path d="M16.0866 20.6401C15.8333 20.6401 15.5733 20.5401 15.38 20.3468C14.9866 19.9535 14.9866 19.3201 15.38 18.9335L18.7466 15.5401C19.14 15.1468 19.7733 15.1468 20.16 15.5401C20.5466 15.9335 20.5533 16.5668 20.16 16.9535L16.7933 20.3468C16.6 20.5401 16.34 20.6401 16.0866 20.6401Z" fill="#222343"/>
<path d="M17.7399 22.7132C17.9333 22.9065 18.1933 23.0065 18.4466 23.0065C18.6999 23.0065 18.9599 22.9065 19.1533 22.7132L21.8399 19.9998C22.2333 19.6132 22.2266 18.9798 21.8399 18.5865C21.4533 18.1932 20.8133 18.1932 20.4266 18.5865L17.7399 21.2998C17.3466 21.6865 17.3466 22.3198 17.7399 22.7132Z" fill="#222343"/>
<path d="M21.0266 25.1732C20.7732 25.1732 20.5132 25.0732 20.3199 24.8799C19.9266 24.4866 19.9266 23.8532 20.3199 23.4666L22.3599 21.4066C22.7532 21.0132 23.3866 21.0132 23.7732 21.4066C24.1599 21.7999 24.1666 22.4332 23.7732 22.8199L21.7332 24.8799C21.5399 25.0732 21.2799 25.1732 21.0266 25.1732Z" fill="#222343"/>
<path d="M19.1171 5.22273C19.5076 4.83221 20.1408 4.83221 20.5313 5.22273C20.9219 5.61326 20.9219 6.24642 20.5313 6.63695L17.7307 9.43758C17.3402 9.8281 16.707 9.8281 16.3165 9.43758C15.926 9.04705 15.926 8.41389 16.3165 8.02336L19.1171 5.22273Z" fill="#222343"/>
<path d="M9.31318 5.18278C8.92293 5.57358 8.92337 6.20674 9.31417 6.597L12.1559 9.43477C12.5467 9.82503 13.1798 9.82459 13.5701 9.43379C13.9603 9.043 13.9599 8.40983 13.5691 8.01958L10.7274 5.1818C10.3366 4.79155 9.70344 4.79199 9.31318 5.18278Z" fill="#222343"/>
</svg>
