<svg width="32" height="32" viewBox="0 0 32 32" fill="none" xmlns="http://www.w3.org/2000/svg">
<path d="M26.8067 6.12655C26.7267 5.64655 26.3067 5.29321 25.82 5.29321H6.18C5.69333 5.29321 5.27333 5.64655 5.19333 6.12655L2.86 20.1265C2.76 20.7332 3.22667 21.2932 3.84667 21.2932H15V24.7065H11.6667C11.1133 24.7065 10.6667 25.1532 10.6667 25.7065C10.6667 26.2599 11.1133 26.7065 11.6667 26.7065H20.3333C20.8867 26.7065 21.3333 26.2599 21.3333 25.7065C21.3333 25.1532 20.8867 24.7065 20.3333 24.7065H17V21.2932H28.1533C28.7733 21.2932 29.24 20.7399 29.14 20.1265L26.8067 6.12655V6.12655ZM25.8067 12.2932H20.2533L19.84 7.29321H24.9733L25.8067 12.2932ZM13.7533 12.2932L14.1667 7.29321H17.8267L18.24 12.2932H13.7467H13.7533ZM18.4133 14.2932L18.8333 19.2932H13.1733L13.5867 14.2932H18.4133ZM12.16 7.29321L11.7467 12.2932H6.19333L7.02667 7.29321H12.16V7.29321ZM5.86 14.2932H11.58L11.1667 19.2932H5.02667L5.86 14.2932V14.2932ZM20.8333 19.2932L20.4133 14.2932H26.1333L26.9667 19.2932H20.8333Z" fill="currentColor"/>
</svg>
