<svg width="32" height="32" viewBox="0 0 32 32" fill="none" xmlns="http://www.w3.org/2000/svg">
<path d="M14.3334 10.3667H23.0334C23.32 10.3667 23.56 10.2734 23.7534 10.0801C23.9467 9.88675 24.0334 9.65341 24.0334 9.36675C24.0334 9.08008 23.94 8.84008 23.7534 8.65341C23.5667 8.46675 23.3267 8.36675 23.0334 8.36675H14.3334C14.0467 8.36675 13.8067 8.46008 13.6134 8.65341C13.4267 8.84008 13.3334 9.08008 13.3334 9.36675C13.3334 9.65341 13.4267 9.89341 13.6134 10.0801C13.8 10.2667 14.04 10.3667 14.3334 10.3667ZM14.3334 14.3667H23.0334C23.32 14.3667 23.56 14.2734 23.7534 14.0867C23.9467 13.9001 24.0334 13.6601 24.0334 13.3667C24.0334 13.0734 23.94 12.8401 23.7534 12.6467C23.5667 12.4601 23.3267 12.3667 23.0334 12.3667H14.3334C14.0467 12.3667 13.8067 12.4601 13.6134 12.6467C13.4267 12.8334 13.3334 13.0734 13.3334 13.3667C13.3334 13.6601 13.4267 13.8934 13.6134 14.0867C13.8 14.2734 14.04 14.3667 14.3334 14.3667ZM14.3334 18.3667H19C19.2867 18.3667 19.5267 18.2734 19.72 18.0867C19.9067 17.9001 20 17.6601 20 17.3667C20 17.0734 19.9067 16.8401 19.72 16.6467C19.5334 16.4601 19.2934 16.3601 19 16.3667H14.3334C14.0467 16.3667 13.8067 16.4601 13.6134 16.6467C13.4267 16.8334 13.3334 17.0734 13.3334 17.3667C13.3334 17.6601 13.4267 17.8934 13.6134 18.0867C13.8 18.2734 14.04 18.3667 14.3334 18.3667ZM9.36669 10.7001C9.74669 10.7001 10.06 10.5734 10.32 10.3201C10.5734 10.0667 10.7067 9.74675 10.7067 9.36675C10.7067 8.98675 10.58 8.67341 10.3267 8.41341C10.0734 8.15341 9.75335 8.03341 9.37335 8.03341C8.99335 8.03341 8.68002 8.16008 8.42002 8.41341C8.16002 8.66675 8.03335 8.98675 8.04002 9.36675C8.04002 9.74675 8.16669 10.0601 8.42002 10.3201C8.67335 10.5801 8.99335 10.7001 9.36669 10.7001ZM9.36669 14.7001C9.74669 14.7001 10.06 14.5734 10.32 14.3134C10.5734 14.0601 10.7067 13.7401 10.7067 13.3667C10.7067 12.9934 10.58 12.6734 10.3267 12.4201C10.0734 12.1667 9.75335 12.0334 9.37335 12.0334C8.99335 12.0334 8.68002 12.1601 8.42002 12.4201C8.16002 12.6801 8.03335 12.9934 8.04002 13.3667C8.04002 13.7467 8.16669 14.0601 8.42002 14.3134C8.67335 14.5667 8.99335 14.6934 9.36669 14.7001ZM9.36669 18.7001C9.74669 18.7001 10.06 18.5734 10.32 18.3134C10.5734 18.0601 10.7067 17.7401 10.7067 17.3667C10.7067 16.9934 10.58 16.6734 10.3267 16.4201C10.0734 16.1667 9.75335 16.0334 9.37335 16.0334C8.99335 16.0334 8.68002 16.1601 8.42002 16.4201C8.16002 16.6801 8.03335 16.9934 8.04002 17.3667C8.04002 17.7467 8.16669 18.0601 8.42002 18.3134C8.67335 18.5667 8.99335 18.6934 9.36669 18.7001ZM2.66669 26.9334V4.66675C2.66669 4.15341 2.86669 3.69341 3.26669 3.28675C3.66669 2.87341 4.13335 2.66675 4.66669 2.66675H27.3334C27.8467 2.66675 28.3067 2.87341 28.72 3.28675C29.1334 3.70008 29.3334 4.16008 29.3334 4.66675V22.0001C29.3334 22.5134 29.1267 22.9734 28.72 23.3867C28.3067 23.8001 27.8467 24.0001 27.3334 24.0001H8.00002L4.36669 27.6334C4.05335 27.9467 3.69335 28.0201 3.28669 27.8534C2.87335 27.6867 2.66669 27.3801 2.66669 26.9334Z" fill="#222343"/>
</svg>
