<svg width="32" height="32" viewBox="0 0 32 32" fill="none" xmlns="http://www.w3.org/2000/svg">
<path d="M14.0333 20.6665C14.5667 21.1999 15.2533 21.4599 16.1 21.4465C16.9467 21.4332 17.5667 21.1266 17.9667 20.5266L23.9667 11.4932C24.12 11.2465 24.1067 11.0332 23.9133 10.8399C23.7267 10.6532 23.5067 10.6332 23.2667 10.7866L14.2333 16.7866C13.6333 17.1866 13.3133 17.7999 13.2867 18.6199C13.26 19.4399 13.5067 20.1199 14.0333 20.6532V20.6665ZM6.5 26.6665C6.12 26.6665 5.75333 26.5732 5.38 26.3866C5.01333 26.1999 4.74 25.9265 4.56666 25.5732C3.98666 24.5065 3.54666 23.4199 3.23333 22.3199C2.92 21.2199 2.76666 20.0465 2.76666 18.8065C2.76666 16.9599 3.12 15.2199 3.82 13.5932C4.52 11.9665 5.47333 10.5399 6.67333 9.32655C7.87333 8.11322 9.28 7.15322 10.8933 6.44655C12.5067 5.73322 14.22 5.37988 16.0467 5.37988C17.8733 5.37988 19.58 5.73322 21.18 6.44655C22.78 7.15988 24.18 8.11988 25.38 9.32655C26.58 10.5399 27.5267 11.9599 28.2333 13.5932C28.9333 15.2265 29.2867 16.9665 29.2867 18.8065C29.2867 20.0532 29.14 21.2399 28.8533 22.3732C28.5667 23.5066 28.12 24.5732 27.52 25.5732C27.2533 26.0865 26.9667 26.3932 26.6667 26.5065C26.3667 26.6199 25.9933 26.6732 25.5533 26.6732H6.5V26.6665Z" fill="#222343"/>
</svg>
