<svg width="32" height="32" viewBox="0 0 32 32" fill="none" xmlns="http://www.w3.org/2000/svg">
<path d="M18.9334 24.6666H6.10002C5.65336 24.6666 5.29336 24.5266 5.02002 24.2533C4.74669 23.9799 4.60669 23.6133 4.60669 23.1733C4.60669 22.3933 4.63336 21.7599 4.68669 21.2533C4.74002 20.7533 4.80669 20.2999 4.87336 19.9066H13.8734C15.16 19.9066 16.2534 19.4599 17.14 18.5599C18.0267 17.6599 18.4734 16.5466 18.4734 15.2133C18.4734 14.2133 18.2667 13.3199 17.86 12.5333C17.4467 11.7466 16.68 11.1399 15.54 10.7133L11.5067 9.21327C12.7067 8.5666 13.8534 8.09994 14.94 7.79994C16.0267 7.49994 17.1934 7.35327 18.44 7.35327C20.8867 7.35327 22.98 8.17327 24.7267 9.81994C26.4734 11.4666 27.34 13.5066 27.34 15.9533C27.34 18.3999 26.5267 20.3799 24.9067 22.1066C23.2867 23.8266 21.2934 24.6933 18.94 24.6933L18.9334 24.6666ZM5.10002 17.8999C5.50002 16.3666 6.06669 14.9866 6.80002 13.7666C7.53336 12.5466 8.45336 11.4466 9.56669 10.4666L14.7 12.5999C15.28 12.7999 15.7134 13.1199 16.02 13.5666C16.3267 14.0133 16.4667 14.5533 16.4667 15.1999C16.4667 15.9533 16.2067 16.5933 15.6867 17.1199C15.1667 17.6466 14.4934 17.8999 13.6734 17.8999H5.10002Z" fill="#222343"/>
</svg>
