<svg width="32" height="32" viewBox="0 0 32 32" fill="none" xmlns="http://www.w3.org/2000/svg">
<path d="M16 23.0334L9.79997 26.7667C9.61997 26.88 9.43331 26.9267 9.23331 26.92C9.03331 26.9134 8.85331 26.8467 8.69997 26.7334C8.54664 26.62 8.42664 26.48 8.34664 26.3C8.26664 26.12 8.25331 25.92 8.29331 25.7L9.92664 18.6334L4.45997 13.8667C4.27997 13.7134 4.17331 13.54 4.13997 13.3467C4.10664 13.1534 4.11331 12.9734 4.15997 12.7934C4.20664 12.6134 4.30664 12.4667 4.45997 12.34C4.61331 12.2134 4.80664 12.1467 5.02664 12.12L12.26 11.4867L15.06 4.82005C15.1466 4.62005 15.28 4.46671 15.46 4.36671C15.64 4.26671 15.8133 4.21338 15.9933 4.21338C16.1733 4.21338 16.3466 4.26671 16.5266 4.36671C16.7066 4.46671 16.84 4.62005 16.9266 4.82005L19.7266 11.4867L26.96 12.12C27.18 12.14 27.3733 12.2134 27.5266 12.34C27.68 12.4667 27.78 12.6134 27.8266 12.7934C27.8733 12.9734 27.88 13.1534 27.8466 13.3467C27.8133 13.54 27.7066 13.7067 27.5266 13.8667L22.06 18.6334L23.6933 25.7C23.74 25.92 23.72 26.12 23.64 26.3C23.56 26.48 23.4466 26.62 23.2866 26.7334C23.1266 26.8467 22.9533 26.9067 22.7533 26.92C22.5533 26.9334 22.3666 26.88 22.1866 26.7667L15.9866 23.0334H16Z" fill="currentColor"/>
</svg>
