<svg width="32" height="32" viewBox="0 0 32 32" fill="none" xmlns="http://www.w3.org/2000/svg">
<path d="M16 23.5608L9.76238 27.3318C9.50927 27.4805 9.25127 27.5461 8.98838 27.5288C8.72571 27.5115 8.49138 27.4284 8.28538 27.2795C8.0796 27.1308 7.92849 26.9392 7.83205 26.7048C7.73538 26.4706 7.71549 26.2047 7.77238 25.9071L9.42471 18.8028L3.92038 13.9985C3.69238 13.8051 3.54916 13.5826 3.49071 13.3308C3.43227 13.0792 3.43782 12.8331 3.50738 12.5925C3.56427 12.352 3.69882 12.1487 3.91105 11.9825C4.12305 11.8162 4.37782 11.722 4.67538 11.6998L11.9464 11.0665L14.7654 4.34313C14.8794 4.0678 15.0535 3.86447 15.2877 3.73313C15.5219 3.6018 15.7594 3.53613 16 3.53613C16.2407 3.53613 16.4782 3.6018 16.7124 3.73313C16.9466 3.86447 17.1207 4.0678 17.2347 4.34313L20.0537 11.0665L27.3434 11.6998C27.6285 11.722 27.877 11.8162 28.089 11.9825C28.3013 12.1487 28.4358 12.352 28.4927 12.5925C28.5623 12.8331 28.5678 13.0792 28.5094 13.3308C28.4509 13.5826 28.3077 13.8051 28.0797 13.9985L22.5754 18.8028L24.2277 25.9071C24.2846 26.2047 24.2647 26.4706 24.168 26.7048C24.0716 26.9392 23.9205 27.1308 23.7147 27.2795C23.5087 27.4284 23.2744 27.5115 23.0117 27.5288C22.7488 27.5461 22.4908 27.4805 22.2377 27.3318L16 23.5608Z" fill="currentColor"/>
</svg>
