<svg width="32" height="32" viewBox="0 0 32 32" fill="none" xmlns="http://www.w3.org/2000/svg">
<path d="M18 29.3C15.5133 29.3 13.4466 28.4266 11.8 26.6866C10.1533 24.94 9.33329 22.86 9.33329 20.4333V19.2666C7.44663 19.02 5.85996 18.1866 4.58663 16.7533C3.30663 15.32 2.66663 13.6266 2.66663 11.6733V4.99996C2.66663 4.71329 2.75996 4.47329 2.95329 4.28663C3.13996 4.09996 3.37996 3.99996 3.66663 3.99996H6.66663V3.66663C6.66663 3.37996 6.75996 3.13996 6.95329 2.95329C7.13996 2.76663 7.37996 2.66663 7.66663 2.66663C7.95329 2.66663 8.19329 2.75996 8.37996 2.95329C8.56663 3.13996 8.66663 3.37996 8.66663 3.66663V6.33329C8.66663 6.59996 8.57329 6.83329 8.37996 7.03329C8.19329 7.23329 7.95329 7.33329 7.66663 7.33329C7.37996 7.33329 7.13996 7.23996 6.95329 7.04663C6.76663 6.85996 6.66663 6.61996 6.66663 6.33329V5.99996H4.66663V11.6666C4.66663 13.2466 5.21996 14.5866 6.31996 15.68C7.41996 16.78 8.75996 17.3333 10.3333 17.3333C11.9066 17.3333 13.2533 16.7866 14.3466 15.68C15.4466 14.58 16 13.24 16 11.6666V5.99996H14V6.33329C14 6.59996 13.9066 6.83329 13.72 7.03329C13.5333 7.23329 13.2933 7.33329 13 7.33329C12.7066 7.33329 12.4733 7.23996 12.28 7.04663C12.0933 6.85996 12 6.61996 12 6.33329V3.66663C12 3.37996 12.0933 3.13996 12.28 2.95329C12.4666 2.76663 12.7066 2.66663 13 2.66663C13.2933 2.66663 13.5266 2.75996 13.72 2.95329C13.9066 3.13996 14 3.37996 14 3.66663V3.99996H17C17.2866 3.99996 17.5266 4.09329 17.72 4.28663C17.9066 4.47329 18 4.71329 18 4.99996V11.6666C18 13.62 17.36 15.32 16.08 16.7466C14.8 18.1733 13.22 19.02 11.3333 19.26V20.4266C11.3333 22.3133 11.96 23.9333 13.22 25.2733C14.4733 26.62 16.0666 27.2933 18 27.2933C19.8 27.2933 21.36 26.6266 22.6866 25.2933C24.0133 23.96 24.6666 22.34 24.6666 20.4266V17.86C23.8866 17.64 23.2533 17.2066 22.7466 16.56C22.24 15.9133 22 15.1733 22 14.3266C22 13.3066 22.3533 12.44 23.0666 11.7266C23.78 11.0133 24.6466 10.66 25.6666 10.66C26.6866 10.66 27.5533 11.0133 28.2666 11.7266C28.98 12.44 29.3333 13.3066 29.3333 14.3266C29.3333 15.1733 29.08 15.9133 28.5866 16.56C28.0866 17.2066 27.4466 17.64 26.6666 17.86V20.4266C26.6666 22.8933 25.82 24.9866 24.1133 26.7133C22.4133 28.4333 20.3733 29.3 18 29.3Z" fill="#222343"/>
</svg>
