<svg width="32" height="32" viewBox="0 0 32 32" fill="none" xmlns="http://www.w3.org/2000/svg">
<path d="M29.1999 10.4L27.7333 5.9C27.5533 5.32 27.2333 4.86 26.7666 4.51333C26.2999 4.16667 25.7533 4 25.1333 4H6.69995C6.11995 4 5.61328 4.16667 5.16661 4.5C4.71994 4.83333 4.41328 5.3 4.23328 5.9L2.79994 10.4C2.55328 11.18 2.53328 11.9533 2.73328 12.7333C2.93328 13.5133 3.34661 14.1667 3.96661 14.7V26C3.96661 26.5333 4.16661 27 4.56661 27.4C4.96661 27.8 5.43328 28 5.96661 28H6.66661V18.3333C6.66661 17.78 7.11328 17.3333 7.66661 17.3333H14.9999C15.5533 17.3333 15.9999 17.78 15.9999 18.3333V28H25.9999C26.5333 28 26.9999 27.8 27.3999 27.4C27.7999 27 27.9999 26.5333 27.9999 26V14.7C28.6199 14.1667 29.0399 13.5133 29.2533 12.7333C29.4666 11.9533 29.4466 11.18 29.1999 10.4ZM8.76661 11.7667C8.69994 12.3 8.47328 12.7533 8.07994 13.1133C7.69328 13.48 7.23328 13.6667 6.69328 13.6667C5.97994 13.6667 5.42661 13.3733 5.02661 12.78C4.62661 12.1933 4.53994 11.5533 4.75994 10.86L6.29328 5.99333H9.62661L8.75994 11.76L8.76661 11.7667ZM14.9999 11.5C14.9999 12.1 14.7799 12.6133 14.3533 13.0333C13.9199 13.4533 13.3933 13.6667 12.7666 13.6667C12.1866 13.6667 11.6999 13.4467 11.2999 13.0133C10.8999 12.58 10.7466 12.0733 10.8333 11.5L11.6666 6H14.9999V11.5ZM16.9999 6H20.3333L21.1666 11.5C21.2533 12.1 21.0799 12.6133 20.6333 13.0333C20.1866 13.4533 19.6466 13.6667 18.9999 13.6667C18.4199 13.6667 17.9466 13.4467 17.5666 13.0133C17.1866 12.58 16.9999 12.0733 16.9999 11.5V6ZM25.3333 23C25.3333 23.5533 24.8866 24 24.3333 24H18.3333C17.7799 24 17.3333 23.5533 17.3333 23V18.3333C17.3333 17.78 17.7799 17.3333 18.3333 17.3333H24.3333C24.8866 17.3333 25.3333 17.78 25.3333 18.3333V23ZM26.9533 12.8C26.5399 13.38 25.9799 13.6667 25.2733 13.6667C24.7599 13.6667 24.3133 13.4867 23.9199 13.1133C23.5333 12.7467 23.3066 12.3 23.2399 11.7667L22.3733 6H25.7066L27.2399 10.8667C27.4599 11.58 27.3666 12.22 26.9533 12.8Z" fill="#222343"/>
</svg>
