<svg width="32" height="32" viewBox="0 0 32 32" fill="none" xmlns="http://www.w3.org/2000/svg">
<path d="M20.0667 23.9534C19.86 24.08 19.6267 24.1334 19.4 24.1334C19.0133 24.1334 18.6267 23.9667 18.3667 23.6467L16.0267 20.7734H16.02L13.7067 23.64C13.4467 23.96 13.06 24.1334 12.6667 24.1334C12.44 24.1334 12.2133 24.08 12 23.9534L6.61334 20.84V22.56L16.02 28L25.46 22.56V20.84L20.0667 23.9534Z" fill="#222343"/>
<path d="M12.4 5.82669L14.8667 4.66003L16.0333 2.19336L17.2 4.66003L19.6667 5.82669L17.2 6.99336L16.0333 9.46003L14.8667 6.99336L12.4 5.82669ZM6.93334 10.3734L8.60001 9.60669L9.36668 7.94003L10.1333 9.60669L11.8 10.3734L10.1333 11.14L9.36668 12.8067L8.60001 11.14L6.93334 10.3734ZM20.2667 10.3734L21.9333 9.60669L22.7 7.94003L23.4667 9.60669L25.1333 10.3734L23.4667 11.14L22.7 12.8067L21.9333 11.14L20.2667 10.3734ZM13.6 13.24L15.2667 12.4734L16.0333 10.8067L16.8 12.4734L18.4667 13.24L16.8 14.0067L16.0333 15.6734L15.2667 14.0067L13.6 13.24Z" fill="#222343"/>
<path d="M28.8067 17.36L19.4 22.8L16.02 18.66L17.1733 18L25.46 13.24L28.8067 17.36Z" fill="#222343"/>
<path d="M16.02 18.66L15.1667 19.72L12.6667 22.8L3.26001 17.36L6.61334 13.24L14.8667 17.9934L16.02 18.66Z" fill="#222343"/>
</svg>
