<svg width="32" height="32" viewBox="0 0 32 32" fill="none" xmlns="http://www.w3.org/2000/svg">
<path d="M3.89999 9.00009C3.54665 9.00009 3.28665 8.87342 3.13332 8.62009C2.97999 8.36675 2.98665 8.08009 3.16665 7.77342C4.03332 6.10675 5.58665 4.62009 7.83332 3.30675C10.08 1.99342 12.7867 1.34009 15.9667 1.34009C18.12 1.34009 20.2 1.74009 22.2 2.54009C24.2 3.34009 26.0133 4.40675 27.6333 5.74009V3.67342C27.6333 3.42675 27.7133 3.22675 27.8667 3.07342C28.02 2.92009 28.22 2.84009 28.4667 2.84009C28.7133 2.84009 28.9133 2.92009 29.0667 3.07342C29.22 3.22675 29.3 3.42675 29.3 3.67342V8.17342C29.3 8.46009 29.2067 8.70009 29.02 8.88675C28.8333 9.07342 28.5933 9.17342 28.3 9.17342H23.8C23.5533 9.17342 23.3533 9.09342 23.2 8.94009C23.0467 8.78675 22.9667 8.58675 22.9667 8.34009C22.9667 8.09342 23.0467 7.89342 23.2 7.74009C23.3533 7.58675 23.5533 7.50675 23.8 7.50675H27.1C25.5667 6.17342 23.84 5.09342 21.9133 4.25342C19.9933 3.42009 18.0067 3.00009 15.9667 3.00009C12.9867 3.00009 10.5267 3.60009 8.58665 4.80009C6.63999 6.00009 5.32665 7.24675 4.63332 8.53342C4.56665 8.66675 4.45999 8.78009 4.31999 8.86675C4.17332 8.95342 4.03332 9.00009 3.90665 9.00009H3.89999ZM14.6667 30.6668C14.2867 30.6668 13.9333 30.5934 13.6 30.4468C13.2667 30.3001 12.98 30.1068 12.7333 29.8601L7.69999 24.5268C7.41332 24.2134 7.26665 23.8601 7.26665 23.4601C7.26665 23.0601 7.37999 22.7268 7.59999 22.4601C7.84665 22.1734 8.13332 21.9801 8.46665 21.8934C8.79999 21.8068 9.15332 21.8068 9.53332 21.8934L13.3333 22.7268V8.66675C13.3333 8.08675 13.52 7.61342 13.9 7.23342C14.28 6.85342 14.7533 6.66675 15.3333 6.66675C15.9133 6.66675 16.3867 6.85342 16.7667 7.23342C17.1467 7.61342 17.3333 8.08675 17.3333 8.66675V16.6668H18.5333C18.78 16.6668 18.9867 16.6801 19.1667 16.7201C19.3467 16.7534 19.5333 16.8268 19.7333 16.9401L25.1667 19.6734C25.7 19.9401 26.1 20.3268 26.3667 20.8401C26.6333 21.3534 26.72 21.8934 26.6333 22.4734L25.7667 28.4734C25.6533 29.1201 25.3467 29.6468 24.8333 30.0601C24.32 30.4734 23.7467 30.6734 23.1 30.6734H14.6667V30.6668Z" fill="currentColor"/>
</svg>
