<svg width="32" height="32" viewBox="0 0 32 32" fill="none" xmlns="http://www.w3.org/2000/svg">
<path d="M25.06 20.0001H21.4133L16.7067 15.2934C16.3133 14.9001 15.68 14.9001 15.2933 15.2934C14.9067 15.6867 14.9 16.3201 15.2933 16.7067L20 21.4134V25.0601L24 29.0601V24.0001H29.06L25.06 20.0001Z" fill="#222343"/>
<path d="M17.5467 21.7934C17.0533 21.9267 16.5333 22.0001 16 22.0001C12.6867 22.0001 9.99999 19.3134 9.99999 16.0001C9.99999 12.6867 12.6867 10.0001 16 10.0001C19.3133 10.0001 22 12.6867 22 16.0001C22 16.5334 21.92 17.0534 21.7933 17.5467L22.2467 18.0001H23.74C23.9067 17.3601 24 16.6934 24 16.0001C24 11.5867 20.4133 8.00008 16 8.00008C11.5867 8.00008 7.99999 11.5867 7.99999 16.0001C7.99999 20.4134 11.5867 24.0001 16 24.0001C16.6933 24.0001 17.36 23.9001 18 23.7401V22.2467L17.5467 21.7934Z" fill="#222343"/>
<path d="M16 27.3334C9.75332 27.3334 4.66666 22.2467 4.66666 16.0001C4.66666 9.75341 9.75332 4.66675 16 4.66675C22.2467 4.66675 27.3333 9.75341 27.3333 16.0001C27.3333 17.0467 27.18 18.0601 26.9133 19.0201L28.5 20.6067C29.0333 19.1667 29.3333 17.6201 29.3333 16.0001C29.3333 8.63341 23.3667 2.66675 16 2.66675C8.63332 2.66675 2.66666 8.63341 2.66666 16.0001C2.66666 23.3667 8.63332 29.3334 16 29.3334C17.62 29.3334 19.1733 29.0267 20.6067 28.5001L19.02 26.9134C18.0533 27.1801 17.0467 27.3334 16 27.3334Z" fill="#222343"/>
</svg>
