<svg width="32" height="32" viewBox="0 0 32 32" fill="none" xmlns="http://www.w3.org/2000/svg">
<path d="M10.3333 11.3333H21.6667C21.9533 11.3333 22.1933 11.24 22.3867 11.0533C22.5733 10.8667 22.6667 10.6267 22.6667 10.3333C22.6667 10.04 22.5733 9.80667 22.3867 9.62C22.2 9.43333 21.96 9.33333 21.6667 9.33333H10.3333C10.0467 9.33333 9.80667 9.42667 9.62 9.62C9.43333 9.80667 9.33333 10.0467 9.33333 10.3333C9.33333 10.62 9.42667 10.86 9.62 11.0533C9.80667 11.24 10.0467 11.3333 10.3333 11.3333ZM17 28H6C5.44667 28 4.97333 27.8067 4.58667 27.4133C4.2 27.02 4 26.5533 4 26V6C4 5.44667 4.19333 4.97333 4.58667 4.58667C4.98 4.2 5.44667 4 6 4H26C26.5533 4 27.0267 4.19333 27.4133 4.58667C27.8 4.98 28 5.44667 28 6V16.9667C27.4467 16.68 26.8667 16.4667 26.2667 16.3333C25.6667 16.2 25.0533 16.1333 24.4333 16.1333C24.12 16.1333 23.82 16.1467 23.5333 16.1867C23.2467 16.22 22.9533 16.2667 22.6667 16.34V16.0067C22.6667 15.74 22.5667 15.5067 22.3667 15.3067C22.1667 15.1067 21.9333 15.0067 21.6667 15.0067H10.3333C10.0467 15.0067 9.80667 15.1 9.62 15.2867C9.43333 15.4733 9.33333 15.7133 9.33333 16.0067C9.33333 16.3 9.42667 16.5333 9.62 16.7267C9.80667 16.9133 10.0467 17.0067 10.3333 17.0067H20.8C20 17.4067 19.2867 17.9267 18.6467 18.56C18.0133 19.1933 17.4933 19.9 17.0933 20.6733H10.3267C10.04 20.6733 9.8 20.7667 9.61333 20.9533C9.42667 21.14 9.32667 21.38 9.32667 21.6733C9.32667 21.9667 9.42 22.2 9.61333 22.3933C9.8 22.58 10.04 22.6733 10.3267 22.6733H16.36C16.2933 22.96 16.2467 23.2533 16.2067 23.54C16.1733 23.8267 16.1533 24.1267 16.1533 24.44C16.1533 25.0867 16.22 25.6933 16.3533 26.2733C16.4867 26.8533 16.7 27.4267 16.9867 28.0067L17 28Z" fill="#222343"/>
<path d="M26.2067 26.6933C25.8467 27.06 25.3667 27.3 24.7667 27.4133V27.8867C24.7667 28.0867 24.7067 28.2467 24.58 28.3667C24.4533 28.4867 24.2933 28.5467 24.0933 28.5467C23.8933 28.5467 23.7333 28.4867 23.6067 28.3667C23.48 28.2467 23.42 28.0867 23.42 27.8867V27.4533C22.7067 27.3667 22.0933 27.1533 21.5867 26.8267C21.4733 26.7533 21.3867 26.6733 21.34 26.5867C21.2933 26.5 21.2667 26.38 21.2667 26.2267C21.2667 26.0333 21.32 25.8667 21.4333 25.7267C21.5467 25.5867 21.68 25.5133 21.8333 25.5133C21.9133 25.5133 21.9867 25.5267 22.0667 25.5533C22.1467 25.58 22.2467 25.6267 22.3667 25.7C22.6467 25.8533 22.9133 25.9667 23.16 26.0267C23.4067 26.0867 23.6667 26.12 23.94 26.12C24.28 26.12 24.54 26.0667 24.7133 25.9533C24.8933 25.84 24.98 25.6733 24.98 25.4467C24.98 25.3133 24.9267 25.2 24.82 25.1133C24.7133 25.0267 24.58 24.96 24.4267 24.9067C24.2733 24.8533 24.04 24.7933 23.74 24.7133C23.26 24.5933 22.86 24.4667 22.5533 24.34C22.2467 24.2133 21.98 24.02 21.7533 23.7533C21.5267 23.4867 21.4133 23.1267 21.4133 22.68C21.4133 22.1667 21.5933 21.72 21.9533 21.34C22.3133 20.96 22.7867 20.7067 23.38 20.5867V20.1067C23.38 19.9133 23.4467 19.7533 23.5733 19.6267C23.7 19.5 23.86 19.44 24.0533 19.44C24.2467 19.44 24.4133 19.5 24.54 19.6267C24.6667 19.7467 24.7267 19.9067 24.7267 20.1067V20.56C25.26 20.6467 25.78 20.8467 26.2867 21.1667C26.4 21.2467 26.4867 21.3267 26.5333 21.42C26.58 21.5133 26.6067 21.6267 26.6067 21.76C26.6067 21.9533 26.5467 22.12 26.4333 22.26C26.32 22.4 26.18 22.4733 26.0267 22.4733C25.9467 22.4733 25.8733 22.46 25.8067 22.4333C25.7333 22.4067 25.6333 22.36 25.5 22.2867C25.4533 22.26 25.3533 22.2067 25.2 22.1267C25.0467 22.0467 24.88 21.98 24.7 21.9333C24.5267 21.8867 24.3333 21.86 24.1333 21.86C23.8467 21.86 23.6067 21.92 23.4267 22.0467C23.2467 22.1733 23.16 22.34 23.16 22.5533C23.16 22.7667 23.26 22.9133 23.4667 23.0133C23.6733 23.1133 23.9933 23.22 24.44 23.32C24.9133 23.4267 25.3067 23.5467 25.6133 23.6667C25.92 23.7867 26.18 23.9867 26.4067 24.2533C26.6333 24.52 26.74 24.8867 26.74 25.34C26.74 25.86 26.56 26.3067 26.2067 26.6733V26.6933Z" fill="#222343"/>
</svg>
