<svg width="32" height="32" viewBox="0 0 32 32" fill="none" xmlns="http://www.w3.org/2000/svg">
<path d="M4.66658 26.6667C4.11325 26.6667 3.63991 26.4733 3.24658 26.08C2.85325 25.6867 2.65991 25.22 2.65991 24.66V7.33333C2.65991 6.77999 2.85325 6.30666 3.24658 5.91333C3.63991 5.51999 4.10658 5.32666 4.66658 5.32666H11.3332V26.66H4.66658V26.6667ZM13.3332 26.6667V5.33333H27.3332C27.8866 5.33333 28.3599 5.52666 28.7532 5.91999C29.1466 6.31333 29.3399 6.77999 29.3399 7.33999V24.6733C29.3399 25.2267 29.1466 25.7 28.7532 26.0933C28.3599 26.4867 27.8932 26.68 27.3332 26.68H13.3332V26.6667Z" fill="currentColor"/>
</svg>
