<svg width="32" height="32" viewBox="0 0 32 32" fill="none" xmlns="http://www.w3.org/2000/svg">
<path d="M4.83622 27.1376C4.09222 27.1376 3.46611 26.8837 2.95789 26.3759C2.44967 25.8679 2.19556 25.2416 2.19556 24.4969V7.50293C2.19556 6.75315 2.44945 6.12248 2.95722 5.61093C3.46522 5.09915 4.09156 4.84326 4.83622 4.84326H11.4839V27.1376H4.83622ZM13.4839 27.1376V4.84326H27.1636C27.9133 4.84326 28.544 5.09915 29.0556 5.61093C29.5673 6.12248 29.8232 6.75315 29.8232 7.50293V24.4969C29.8232 25.2416 29.5673 25.8679 29.0556 26.3759C28.544 26.8837 27.9133 27.1376 27.1636 27.1376H13.4839Z" fill="currentColor"/>
</svg>
