<svg width="32" height="32" viewBox="0 0 32 32" fill="none" xmlns="http://www.w3.org/2000/svg">
<path d="M10.4667 28C9.91335 28 9.44002 27.8066 9.05335 27.4133C8.66669 27.0266 8.46669 26.5533 8.46669 26V11.7333C8.46669 11.4866 8.52002 11.2466 8.62002 11C8.72002 10.7533 8.86002 10.5466 9.03335 10.3666L15.9334 3.09997C16.2467 2.78664 16.62 2.59997 17.0467 2.5333C17.48 2.46664 17.8867 2.54664 18.2667 2.76664C18.6467 2.98664 18.9267 3.29997 19.1134 3.69997C19.3 4.09997 19.3534 4.5133 19.2667 4.9333L18 10.9333H28.6667C29.18 10.9333 29.64 11.14 30.0534 11.5466C30.4667 11.96 30.6667 12.42 30.6667 12.9333V15.6666C30.6667 15.9133 30.64 16.1933 30.5867 16.5133C30.5334 16.8333 30.4467 17.12 30.3334 17.36L26.4667 26.2933C26.2667 26.76 25.94 27.16 25.4867 27.4933C25.0334 27.8266 24.5467 27.9933 24.0334 27.9933H10.4667V28ZM4.56669 28C4.05335 28 3.61335 27.8133 3.23335 27.4333C2.85335 27.0533 2.66669 26.6133 2.66669 26.1V12.8333C2.66669 12.32 2.85335 11.88 3.23335 11.5C3.61335 11.12 4.05335 10.9333 4.56669 10.9333C5.08002 10.9333 5.52002 11.12 5.90002 11.5C6.28002 11.88 6.46669 12.32 6.46669 12.8333V26.1C6.46669 26.6133 6.28002 27.0533 5.90002 27.4333C5.52002 27.8133 5.08002 28 4.56669 28Z" fill="#222343"/>
</svg>
