<svg width="32" height="32" viewBox="0 0 32 32" fill="none" xmlns="http://www.w3.org/2000/svg">
<path d="M17.2999 29.0001L19.0666 27.0001L17.5666 26.2334C17.2532 26.0801 17.0666 25.8467 16.9999 25.5334C16.9332 25.2201 17.0132 24.9467 17.2332 24.7001L19.8666 21.6667C19.9799 21.5534 20.0932 21.4734 20.2199 21.4134C20.3466 21.3534 20.4799 21.3267 20.6399 21.3267C21.0866 21.3267 21.3932 21.5267 21.5599 21.9267C21.7266 22.3267 21.6666 22.6801 21.3732 22.9934L19.6066 24.9934L21.1066 25.7601C21.4199 25.9134 21.6066 26.1467 21.6732 26.4601C21.7399 26.7734 21.6599 27.0467 21.4399 27.2934L18.8066 30.3267C18.6932 30.4401 18.5799 30.5201 18.4532 30.5801C18.3332 30.6334 18.1932 30.6667 18.0332 30.6667C17.5866 30.6667 17.2799 30.4667 17.1132 30.0667C16.9466 29.6667 17.0066 29.3134 17.2999 29.0001ZM9.29991 29.0001L11.0666 27.0001L9.56658 26.2334C9.25325 26.0801 9.06658 25.8467 8.99991 25.5334C8.93325 25.2201 9.01325 24.9467 9.23325 24.7001L11.8666 21.6667C11.9799 21.5534 12.0932 21.4734 12.2199 21.4134C12.3466 21.3534 12.4799 21.3267 12.6399 21.3267C13.0866 21.3267 13.3932 21.5267 13.5599 21.9267C13.7266 22.3267 13.6666 22.6801 13.3732 22.9934L11.6066 24.9934L13.1066 25.7601C13.4199 25.9134 13.6066 26.1467 13.6732 26.4601C13.7399 26.7734 13.6599 27.0467 13.4399 27.2934L10.8066 30.3267C10.6932 30.4401 10.5799 30.5201 10.4532 30.5801C10.3332 30.6334 10.1932 30.6667 10.0332 30.6667C9.58658 30.6667 9.27991 30.4667 9.11325 30.0667C8.94658 29.6667 9.00658 29.3134 9.29991 29.0001ZM9.66658 19.3334C7.73325 19.3334 6.07991 18.6467 4.71325 17.2801C3.34658 15.9134 2.65991 14.2601 2.65991 12.3267C2.65991 10.5734 3.28658 9.00673 4.54658 7.62673C5.79991 6.24673 7.36658 5.4934 9.23325 5.36007C9.94658 4.1134 10.8866 3.1334 12.0532 2.40673C13.2199 1.68007 14.5399 1.32007 16.0066 1.32007C18.0266 1.32007 19.7266 1.96007 21.0932 3.24007C22.4599 4.52007 23.2999 6.10007 23.6132 7.9934C25.3666 8.08007 26.7666 8.68007 27.7999 9.78007C28.8332 10.8801 29.3532 12.1734 29.3532 13.6667C29.3532 15.1601 28.7999 16.5534 27.6999 17.6667C26.5999 18.7801 25.2599 19.3334 23.6799 19.3334H9.66658Z" fill="#222343"/>
</svg>
