<svg width="32" height="32" viewBox="0 0 32 32" fill="none" xmlns="http://www.w3.org/2000/svg">
<path d="M15.9999 2.66998C8.63992 2.66998 2.66992 8.63998 2.66992 16C2.66992 23.36 8.63992 29.33 15.9999 29.33C23.3599 29.33 29.3299 23.36 29.3299 16C29.3299 8.63998 23.3599 2.66998 15.9999 2.66998ZM22.9499 14.59C21.5299 14.59 20.2099 14.14 19.1399 13.37V18.92C19.1399 20.87 18.0199 22.57 16.3999 23.41C15.7099 23.77 14.9299 23.97 14.0999 23.97C11.3199 23.97 9.04992 21.71 9.04992 18.92C9.04992 16.13 11.3099 13.87 14.0999 13.87C14.3299 13.87 14.5699 13.89 14.7899 13.92V16.72C14.5699 16.65 14.3399 16.61 14.0999 16.61C12.8299 16.61 11.7999 17.64 11.7999 18.91C11.7999 20.18 12.8299 21.21 14.0999 21.21C15.3699 21.21 16.3999 20.18 16.3999 18.91V8.01998H19.1399C19.1399 10.13 20.8499 11.83 22.9499 11.83V14.58V14.59Z" fill="#222343"/>
</svg>
