<svg width="32" height="32" viewBox="0 0 32 32" fill="none" xmlns="http://www.w3.org/2000/svg">
<path d="M10.5 23.4666C11.28 24.0866 12.14 24.5532 13.0867 24.8666C14.0334 25.1799 15.0067 25.3332 16.0067 25.3332C18.6067 25.3332 20.8134 24.4266 22.6267 22.6132C24.44 20.7999 25.3467 18.5932 25.3467 15.9932C25.3467 13.5932 24.56 11.5199 22.9934 9.77325C21.4267 8.02658 19.4867 7.01325 17.1734 6.71991C16.86 6.67325 16.5867 6.76658 16.3534 6.98658C16.12 7.20658 16 7.48658 16 7.81991V15.9866L10.4334 21.8199C10.1867 22.0666 10.08 22.3466 10.1 22.6732C10.12 22.9999 10.2534 23.2599 10.5 23.4599V23.4666ZM16 29.3332C14.1134 29.3332 12.3534 28.9932 10.7334 28.3132C9.11337 27.6332 7.70003 26.6932 6.50003 25.4932C5.30003 24.2932 4.36003 22.8799 3.68003 21.2599C3.00003 19.6399 2.66003 17.8799 2.66003 15.9932C2.66003 14.1066 3.00003 12.3799 3.68003 10.7599C4.36003 9.13991 5.30003 7.72658 6.50003 6.52658C7.70003 5.32658 9.11337 4.37991 10.7334 3.69325C12.3534 3.00658 14.1134 2.65991 16 2.65991C17.8867 2.65991 19.6134 3.00658 21.2334 3.69325C22.8534 4.37991 24.2667 5.32658 25.4667 6.52658C26.6667 7.72658 27.6134 9.13991 28.3 10.7599C28.9867 12.3799 29.3334 14.1266 29.3334 15.9932C29.3334 17.8599 28.9867 19.6399 28.3 21.2599C27.6134 22.8799 26.6667 24.2932 25.4667 25.4932C24.2667 26.6932 22.8534 27.6332 21.2334 28.3132C19.6134 28.9932 17.8667 29.3332 16 29.3332Z" fill="#222343"/>
</svg>
