<svg width="32" height="32" viewBox="0 0 32 32" fill="none" xmlns="http://www.w3.org/2000/svg">
<path d="M11.7667 21.6667C10.8533 21.6667 10.0867 21.3533 9.46667 20.7333C8.84667 20.1133 8.53333 19.3467 8.53333 18.4333C8.53333 17.52 8.84667 16.7533 9.46667 16.1333C10.0867 15.5133 10.8533 15.2 11.7667 15.2C12.68 15.2 13.4467 15.5133 14.0667 16.1333C14.6867 16.7533 15 17.52 15 18.4333C15 19.3467 14.6867 20.1133 14.0667 20.7333C13.4467 21.3533 12.68 21.6667 11.7667 21.6667ZM6 29.3333C5.46667 29.3333 5 29.1333 4.6 28.7333C4.2 28.3333 4 27.8667 4 27.3333V6.66667C4 6.13334 4.2 5.66667 4.6 5.26667C5 4.86667 5.46667 4.66667 6 4.66667H8.16667V3.73334C8.16667 3.44667 8.27333 3.19334 8.48667 2.98667C8.7 2.77334 8.94667 2.67334 9.23333 2.67334C9.54667 2.67334 9.80667 2.78001 10.02 2.98667C10.2333 3.20001 10.34 3.44667 10.34 3.73334V4.66667H21.6733V3.73334C21.6733 3.44667 21.78 3.19334 21.9867 2.98667C22.1933 2.78001 22.4467 2.67334 22.7333 2.67334C23.0467 2.67334 23.3067 2.78001 23.5133 2.98667C23.72 3.19334 23.8267 3.44667 23.8267 3.73334V4.66667H25.9933C26.5267 4.66667 26.9933 4.86667 27.3933 5.26667C27.7933 5.66667 27.9933 6.13334 27.9933 6.66667V27.3333C27.9933 27.8667 27.7933 28.3333 27.3933 28.7333C26.9933 29.1333 26.5267 29.3333 25.9933 29.3333H6ZM6 27.3333H26V13H6V27.3333Z" fill="#222343"/>
</svg>
