<svg width="32" height="32" viewBox="0 0 32 32" fill="none" xmlns="http://www.w3.org/2000/svg">
<path d="M4.66663 26.6666C4.13329 26.6666 3.66663 26.4666 3.26663 26.0666C2.86663 25.6666 2.66663 25.1999 2.66663 24.6666V7.33325C2.66663 6.79992 2.86663 6.33325 3.26663 5.93325C3.66663 5.53325 4.13329 5.33325 4.66663 5.33325H13.2C13.4666 5.33325 13.7333 5.33325 14 5.53325C14.2666 5.73325 14.4666 5.79992 14.6666 5.99992L16.0666 7.39992H27.4C27.9333 7.39992 28.4 7.59992 28.8 7.99992C29.2 8.39992 29.4 8.86659 29.4 9.39992V24.7333C29.4 25.2666 29.2 25.7333 28.8 26.1333C28.4 26.5333 27.9333 26.7333 27.4 26.7333H4.66663V26.6666ZM9.33329 15.3333H22.6666C22.9333 15.3333 23.2 15.2666 23.4 15.0666C23.6 14.8666 23.6666 14.6666 23.6666 14.3333C23.6666 13.9999 23.6 13.7999 23.4 13.5999C23.2 13.3999 23 13.3333 22.6666 13.3333H9.33329C9.06663 13.3333 8.79996 13.3999 8.59996 13.5999C8.39996 13.7999 8.33329 13.9999 8.33329 14.3333C8.33329 14.6666 8.39996 14.8666 8.59996 15.0666C8.79996 15.2666 8.99996 15.3333 9.33329 15.3333ZM9.33329 20.6666H17.3333C17.6 20.6666 17.8666 20.5999 18.0666 20.3999C18.2666 20.1999 18.3333 19.9999 18.3333 19.6666C18.3333 19.3333 18.2666 19.1333 18.0666 18.9333C17.8666 18.7333 17.6666 18.6666 17.3333 18.6666H9.33329C9.06663 18.6666 8.79996 18.7333 8.59996 18.9333C8.39996 19.1333 8.33329 19.3333 8.33329 19.6666C8.33329 19.9999 8.39996 20.1999 8.59996 20.3999C8.79996 20.5999 8.99996 20.6666 9.33329 20.6666Z" fill="#222343"/>
</svg>
