<svg width="32" height="32" viewBox="0 0 32 32" fill="none" xmlns="http://www.w3.org/2000/svg">
<path d="M22.24 4.27333C21.9334 4.09333 21.5867 4 21.2334 4H19.64C19.3934 4 19.2 4.07333 19.0534 4.21333C18.9134 4.36 18.84 4.55333 18.84 4.8V5.3C18.84 6.14 18.5734 6.83333 18.04 7.36667C17.5134 7.89333 16.8334 8.16 16 8.16667C15.1667 8.16667 14.4867 7.89333 13.96 7.36667C13.4267 6.83333 13.16 6.14 13.16 5.3V4.8C13.16 4.55333 13.0867 4.36 12.9467 4.21333C12.8 4.07333 12.6067 4 12.36 4H10.7667C10.4134 4 10.0667 4.09333 9.76004 4.27333L2.30671 8.63333C1.98671 8.82 1.88004 9.23333 2.07337 9.54667L4.84671 14.22C5.03337 14.5267 5.42671 14.64 5.74004 14.46L8.32671 13.0267V26.6933C8.32671 27.0467 8.45337 27.3533 8.71337 27.6067C8.96671 27.8667 9.27337 27.9933 9.62671 27.9933H22.3734C22.7267 27.9933 23.0334 27.8667 23.2867 27.6067C23.5467 27.3533 23.6734 27.0467 23.6734 26.6933V13.0267L25.4 13.9867L26.26 14.46C26.5734 14.6333 26.9734 14.5267 27.1534 14.2133L29.9267 9.54C30.1134 9.22 30.0067 8.81333 29.6934 8.62667L22.24 4.26667V4.27333Z" fill="#222343"/>
</svg>
