<svg width="32" height="32" viewBox="0 0 32 32" fill="none" xmlns="http://www.w3.org/2000/svg">
<g clip-path="url(#clip0_4029_1117)">
<path fill-rule="evenodd" clip-rule="evenodd" d="M16.7334 6.66699C17.0467 6.66701 17.3402 6.73387 17.6201 6.86719C17.8933 7.0005 18.1199 7.18705 18.2998 7.43359L20.5664 10.3672L24.1328 8.60059C24.3126 8.51401 24.4796 8.5136 24.6328 8.61328C24.786 8.7132 24.8661 8.85342 24.8662 9.0332V11.2002C24.8662 11.3335 24.8197 11.4469 24.7197 11.5469C24.6197 11.6468 24.4995 11.7002 24.3662 11.7002H21.5996L24.4531 15.3936C25.1465 15.0402 25.9134 14.8672 26.7334 14.8672C28.1733 14.8672 29.4668 15.3938 30.4668 16.4004H30.46C31.4666 17.4004 31.9932 18.7071 31.9932 20.1338C31.9931 21.5604 31.4596 22.8405 30.4463 23.8271C29.4397 24.8137 28.1398 25.334 26.7266 25.334C25.3133 25.334 24.0402 24.8068 23.0469 23.8135C22.0536 22.8202 21.5264 21.5471 21.5264 20.1338C21.5264 18.7939 21.9864 17.5805 22.8662 16.6006L21.6934 15.0938L17.2402 21.9268C16.9936 22.3067 16.5734 22.5331 16.1201 22.5332H14.54C14.0534 22.5332 13.6064 22.2667 13.373 21.8467L12.96 21.1006L10.374 21.0996C10.1846 22.1049 9.70582 23.0183 8.95996 23.7793C7.96664 24.7926 6.63337 25.333 5.2334 25.333C3.83348 25.333 2.56035 24.8127 1.55371 23.8262C0.540393 22.8329 1.61732e-05 21.5396 0 20.0996C0 18.6596 0.533711 17.3664 1.55371 16.373C2.56036 15.3864 3.83345 14.8662 5.2334 14.8662C6.68004 14.8662 7.96664 15.3998 8.95996 16.4131C9.7061 17.1744 10.1847 18.092 10.374 19.0996H11.8525L10.7334 17.0801C9.62676 15.0802 7.52673 13.84 5.24023 13.8398H1.00684C0.453503 13.8398 0.00683594 13.3932 0.00683594 12.8398C0.00709506 12.2867 0.453663 11.8398 1.00684 11.8398L5.2334 11.834C7.12668 11.834 8.92705 12.48 10.3604 13.6133L14.2998 12.1338C14.4131 12.0871 14.5267 12.0532 14.6533 12.0332C14.7733 12.0132 14.8867 12 15 12H19.2998L16.7002 8.66699H14.7334C14.4467 8.66699 14.2062 8.57322 14.0195 8.37988C13.8265 8.19327 13.7334 7.95345 13.7334 7.66699C13.7334 7.38049 13.8264 7.14054 14.0195 6.94727C14.2062 6.7606 14.4467 6.66699 14.7334 6.66699H16.7334ZM26.7334 16.8672C25.8468 16.8672 25.0868 17.1803 24.4668 17.8135C23.8468 18.4468 23.5332 19.2471 23.5332 20.1338C23.5332 21.0204 23.8468 21.7804 24.4668 22.4004C25.0868 23.0203 25.8201 23.334 26.7334 23.334C27.6467 23.334 28.4204 23.0204 29.0537 22.4004C29.6869 21.7805 30 21.047 30 20.1338C30 19.2205 29.687 18.4468 29.0537 17.8135C28.4204 17.1802 27.62 16.8672 26.7334 16.8672ZM5.2334 16.8662C4.34673 16.8662 3.58646 17.1798 2.95312 17.7998C2.31995 18.4198 2 19.1864 2 20.0996C2.00002 21.0128 2.31992 21.7795 2.95312 22.3994C3.58646 23.0194 4.32007 23.333 5.2334 23.333C6.14659 23.333 6.91326 23.013 7.5332 22.3799C7.90593 21.9991 8.16679 21.5719 8.31641 21.0996H5.22656C4.67323 21.0996 4.22656 20.6529 4.22656 20.0996C4.22656 19.5463 4.67323 19.0996 5.22656 19.0996H8.31738C8.1679 18.6244 7.90659 18.1939 7.5332 17.8125C6.91326 17.1794 6.11992 16.8662 5.2334 16.8662Z" fill="currentColor"/>
</g>
<defs>
<clipPath id="clip0_4029_1117">
<rect width="32" height="32" fill="white"/>
</clipPath>
</defs>
</svg>
