<svg width="32" height="32" viewBox="0 0 32 32" fill="none" xmlns="http://www.w3.org/2000/svg">
<path d="M10.1232 25.8045C9.74636 25.8045 9.43202 25.6786 9.18024 25.4268C8.92869 25.1753 8.80291 24.861 8.80291 24.4842C8.80291 24.1075 8.92869 23.7933 9.18024 23.5415C9.43202 23.2897 9.74636 23.1638 10.1232 23.1638H19.2679C20.7135 23.1638 21.9464 22.6665 22.9666 21.6718C23.9868 20.6772 24.4969 19.4562 24.4969 18.0088C24.4969 16.5759 23.9868 15.3586 22.9666 14.3568C21.9464 13.3548 20.7135 12.8538 19.2679 12.8538H9.90591L12.4782 15.4262C12.7409 15.6957 12.8722 16.0062 12.8722 16.3575C12.8722 16.7086 12.7409 17.0187 12.4782 17.2878C12.2154 17.5569 11.9067 17.6915 11.5522 17.6915C11.1976 17.6915 10.8888 17.5538 10.6259 17.2785L5.78824 12.4785C5.65313 12.34 5.55058 12.19 5.48058 12.0285C5.41036 11.8667 5.37524 11.701 5.37524 11.5315C5.37524 11.3617 5.41036 11.1965 5.48058 11.0358C5.55058 10.8752 5.65313 10.726 5.78824 10.5885L10.6259 5.76982C10.8888 5.50693 11.1976 5.37549 11.5522 5.37549C11.9067 5.37549 12.2154 5.5096 12.4782 5.77782C12.7409 6.04604 12.8722 6.35471 12.8722 6.70382C12.8722 7.05315 12.7409 7.35916 12.4782 7.62182L9.90591 10.2132H19.2346C21.4057 10.2132 23.2688 10.9683 24.8239 12.4785C26.379 13.9885 27.1566 15.8288 27.1566 17.9995C27.1566 20.1699 26.379 22.0134 24.8239 23.5298C23.2688 25.0463 21.4057 25.8045 19.2346 25.8045H10.1232Z" fill="currentColor"/>
</svg>
