<svg width="32" height="32" viewBox="0 0 32 32" fill="none" xmlns="http://www.w3.org/2000/svg">
<path d="M9.6334 25.3332C9.34673 25.3332 9.10673 25.2399 8.9134 25.0465C8.72006 24.8532 8.62673 24.6199 8.62673 24.3265C8.62673 24.0332 8.72006 23.7999 8.9134 23.6065C9.10006 23.4199 9.34006 23.3199 9.6334 23.3199H18.9667C20.5201 23.3199 21.8601 22.7999 22.9867 21.7665C24.1134 20.7332 24.6734 19.4465 24.6734 17.9132C24.6734 16.3799 24.1134 15.0932 22.9867 14.0599C21.8601 13.0265 20.5267 12.5065 18.9667 12.5065H9.1334L12.2334 15.6065C12.4334 15.8065 12.5334 16.0399 12.5334 16.3065C12.5334 16.5732 12.4334 16.8065 12.2334 17.0065C12.0334 17.2065 11.8001 17.3065 11.5334 17.3065C11.2667 17.3065 11.0334 17.2065 10.8334 17.0065L6.0334 12.2065C5.92006 12.0932 5.84673 11.9865 5.80006 11.8732C5.7534 11.7599 5.7334 11.6399 5.7334 11.5065C5.7334 11.3732 5.7534 11.2532 5.80006 11.1399C5.84673 11.0265 5.92006 10.9199 6.0334 10.8065L10.8334 6.00654C11.0334 5.80654 11.2667 5.70654 11.5334 5.70654C11.8001 5.70654 12.0334 5.80654 12.2334 6.00654C12.4334 6.20654 12.5334 6.43988 12.5334 6.70654C12.5334 6.97321 12.4334 7.20654 12.2334 7.40654L9.1334 10.5065H18.9334C21.0467 10.5065 22.8601 11.2199 24.3867 12.6399C25.9134 14.0599 26.6734 15.8199 26.6734 17.9065C26.6734 19.9932 25.9134 21.7532 24.3867 23.1732C22.8667 24.5932 21.0467 25.3065 18.9334 25.3065H9.6334V25.3332Z" fill="currentColor"/>
</svg>
