<svg width="32" height="32" viewBox="0 0 32 32" fill="none" xmlns="http://www.w3.org/2000/svg">
<path d="M25.3667 6.13336L23.54 5.45336L16.7 2.90002C16.2467 2.73336 15.7534 2.73336 15.3 2.90002L8.46004 5.45336L6.63337 6.13336C5.85337 6.42669 5.33337 7.17336 5.33337 8.00669V14.7267C5.33337 21.32 9.50004 26.94 15.34 29.1067C15.76 29.2667 16.2334 29.2667 16.66 29.1067C22.5 26.9467 26.6667 21.32 26.6667 14.7267V8.00669C26.6667 7.17336 26.1467 6.42669 25.3667 6.13336ZM21.4334 13.2334L15.2667 19.4C15.0667 19.6 14.8267 19.7 14.5467 19.7C14.2667 19.7 14.0267 19.6 13.8267 19.4L10.5267 16.1C10.3267 15.9 10.2267 15.6534 10.2267 15.3667C10.2267 15.08 10.3267 14.8334 10.5267 14.6334C10.7267 14.4334 10.9734 14.3334 11.26 14.3334C11.5467 14.3334 11.7934 14.4334 11.9934 14.6334L14.6267 17.2667L20.06 11.8334C20.24 11.6534 20.4667 11.5667 20.74 11.5667C21.0134 11.5667 21.2467 11.6534 21.4267 11.8334C21.6067 12.0134 21.6934 12.2467 21.6934 12.5334C21.6934 12.82 21.6067 13.0534 21.4267 13.2334H21.4334Z" fill="#222343"/>
</svg>
