<svg width="32" height="32" viewBox="0 0 32 32" fill="none" xmlns="http://www.w3.org/2000/svg">
<path d="M10.9201 28.9533L9.30006 26.18C9.10672 25.8533 8.78672 25.62 8.42006 25.5466L5.16672 24.88C4.48672 24.74 4.03339 24.1066 4.11339 23.42L4.47339 20.3133C4.51339 19.9466 4.40006 19.5733 4.16006 19.2933L2.08672 16.8733C1.66006 16.3733 1.66006 15.6333 2.08672 15.1333L4.15339 12.7466C4.40006 12.4666 4.51339 12.0933 4.46672 11.72L4.10672 8.61329C4.02672 7.92662 4.48672 7.29329 5.16006 7.15329L8.41339 6.48662C8.78672 6.41329 9.10672 6.17996 9.30006 5.84662L10.9267 3.04662C11.2734 2.45329 12.0134 2.21329 12.6401 2.50662L15.4467 3.80662C15.8001 3.97329 16.2134 3.97329 16.5667 3.80662L19.3734 2.50662C19.9934 2.21996 20.7334 2.44662 21.0801 3.03996L22.7334 5.85329C22.9267 6.17996 23.2467 6.40662 23.6134 6.48662L26.8401 7.15329C27.5134 7.29329 27.9734 7.92662 27.8934 8.61329L27.5334 11.72C27.4934 12.0933 27.6067 12.46 27.8467 12.7466L29.9134 15.1333C30.3467 15.6333 30.3467 16.3733 29.9134 16.8733L27.8401 19.2933C27.6001 19.5733 27.4867 19.9466 27.5267 20.3133L27.8867 23.42C27.9667 24.1066 27.5067 24.74 26.8334 24.88L23.6067 25.5466C23.2401 25.62 22.9201 25.8466 22.7267 26.1733L21.0734 28.96C20.7267 29.5466 19.9867 29.78 19.3667 29.4933L16.5534 28.1933C16.2001 28.0266 15.7867 28.0266 15.4334 28.1933L12.6267 29.4933C12.0001 29.78 11.2601 29.5466 10.9134 28.9533H10.9201ZM14.5667 20.4333L21.3734 13.6866C21.7867 13.28 21.7734 12.6066 21.3401 12.22C20.9401 11.86 20.3267 11.8666 19.9467 12.2466L14.5667 17.5666L12.1401 15.04C11.7334 14.6133 11.0534 14.6066 10.6334 15.0133C10.2134 15.4266 10.2067 16.1066 10.6334 16.52L14.5734 20.4266L14.5667 20.4333Z" fill="#222343"/>
</svg>
