<svg width="32" height="32" viewBox="0 0 32 32" fill="none" xmlns="http://www.w3.org/2000/svg">
<g clip-path="url(#clip0_1191_120)">
<path d="M16.0067 21C17.5801 21 18.9201 20.4467 20.0201 19.3467C21.1201 18.2467 21.6734 16.9067 21.6734 15.3267C21.6734 13.7467 21.1201 12.4133 20.0201 11.3133C18.9201 10.2133 17.5801 9.66001 16.0001 9.66001C14.4201 9.66001 13.0867 10.2133 11.9867 11.3133C10.8867 12.4133 10.3334 13.7533 10.3334 15.3333C10.3334 16.9133 10.8867 18.2467 11.9867 19.3467C13.0867 20.4467 14.4267 21 16.0067 21ZM15.9934 19.0667C14.9534 19.0667 14.0734 18.7 13.3534 17.9733C12.6334 17.2467 12.2667 16.36 12.2667 15.32C12.2667 14.28 12.6334 13.4 13.3601 12.68C14.0867 11.96 14.9734 11.5933 16.0134 11.5933C17.0534 11.5933 17.9334 11.96 18.6534 12.6867C19.3734 13.4133 19.7401 14.3 19.7401 15.34C19.7401 16.38 19.3734 17.26 18.6467 17.98C17.9201 18.7 17.0334 19.0667 15.9934 19.0667ZM16.0001 25.3333C12.9334 25.3333 10.1401 24.5 7.61339 22.8333C5.09339 21.1667 3.14006 18.9667 1.76673 16.2333C1.70006 16.1267 1.64673 15.9867 1.61339 15.8333C1.58006 15.68 1.56006 15.5067 1.56006 15.34C1.56006 15.1733 1.58006 15.0067 1.61339 14.8467C1.64673 14.6867 1.70006 14.5533 1.76673 14.4467C3.14006 11.7133 5.08672 9.51335 7.61339 7.84668C10.1334 6.18001 12.9334 5.34668 16.0001 5.34668C19.0667 5.34668 21.8601 6.18001 24.3867 7.84668C26.9067 9.51335 28.8601 11.7133 30.2334 14.4467C30.3001 14.5533 30.3534 14.6933 30.3867 14.8467C30.4201 15 30.4401 15.1733 30.4401 15.34C30.4401 15.5067 30.4201 15.6733 30.3867 15.8333C30.3534 15.9933 30.3001 16.1267 30.2334 16.2333C28.8601 18.9667 26.9134 21.1667 24.3867 22.8333C21.8601 24.5 19.0667 25.3333 16.0001 25.3333Z" fill="currentColor"/>
</g>
<defs>
<clipPath id="clip0_1191_120">
<rect width="32" height="32" fill="white"/>
</clipPath>
</defs>
</svg>
