<svg width="32" height="32" viewBox="0 0 32 32" fill="none" xmlns="http://www.w3.org/2000/svg">
<path d="M26.4533 29.1066L21.5866 24.34C20.6733 24.6733 19.7533 24.92 18.8199 25.0733C17.8866 25.2266 16.9399 25.3066 15.9866 25.3066C12.9666 25.3066 10.2199 24.4666 7.75328 22.7866C5.28661 21.1066 3.31995 18.9333 1.85328 16.2666C1.76661 16.1133 1.69995 15.9533 1.66661 15.8C1.63328 15.6466 1.61328 15.48 1.61328 15.3C1.61328 15.12 1.63328 14.9533 1.66661 14.8C1.69995 14.6466 1.75995 14.4866 1.85328 14.3333C2.43328 13.3133 3.05328 12.32 3.71995 11.3666C4.38661 10.4133 5.16661 9.54664 6.05328 8.76664L2.54661 5.2733C2.34661 5.0733 2.24661 4.83997 2.24661 4.5733C2.24661 4.30664 2.34661 4.0733 2.54661 3.8733C2.74661 3.6733 2.98661 3.5733 3.26661 3.5733C3.54661 3.5733 3.78661 3.6733 3.98661 3.8733L27.8533 27.74C28.0333 27.92 28.12 28.1333 28.12 28.3933C28.12 28.6533 28.0333 28.88 27.8533 29.08C27.6733 29.3 27.4466 29.4133 27.1666 29.4133C26.8866 29.4133 26.6466 29.3133 26.4466 29.1133L26.4533 29.1066ZM15.9799 20.9733C16.2933 20.9733 16.6066 20.9533 16.9333 20.9066C17.2533 20.86 17.5733 20.7733 17.8866 20.64L10.6533 13.4066C10.5399 13.72 10.4599 14.0333 10.3999 14.36C10.3399 14.6866 10.3133 15 10.3133 15.3133C10.3133 16.8933 10.8666 18.2333 11.9666 19.3333C13.0666 20.4333 14.4066 20.9866 15.9866 20.9866L15.9799 20.9733ZM16.1533 5.30664C19.1533 5.30664 21.8799 6.1533 24.3399 7.83997C26.7933 9.52664 28.7333 11.7066 30.1599 14.3733C30.2466 14.5266 30.3133 14.68 30.3466 14.8266C30.3799 14.9733 30.3999 15.1333 30.3999 15.3133C30.3999 15.4933 30.3799 15.6533 30.3466 15.8C30.3133 15.9466 30.2533 16.0933 30.1599 16.2533C29.6266 17.2533 29.0333 18.2133 28.3733 19.14C27.7133 20.0666 26.9666 20.8933 26.12 21.6266C25.8733 21.8466 25.6 21.9466 25.2866 21.9266C24.9733 21.9066 24.7 21.7733 24.4533 21.5266L21.3533 18.4266C21.2399 18.3133 21.1733 18.1733 21.1533 18.0066C21.1333 17.84 21.1533 17.68 21.2199 17.52C21.3733 17.1666 21.4866 16.8 21.5533 16.4333C21.6199 16.0666 21.6533 15.6933 21.6533 15.3133C21.6533 13.7333 21.0999 12.3933 19.9999 11.2933C18.8999 10.1933 17.5599 9.63997 15.9799 9.63997C15.5999 9.63997 15.2266 9.6733 14.8599 9.73997C14.4933 9.80664 14.1333 9.91997 13.7733 10.0733C13.6199 10.14 13.4533 10.16 13.2866 10.14C13.1199 10.12 12.9799 10.0533 12.8666 9.93997L10.8999 7.93997C10.5866 7.62664 10.4799 7.2533 10.5666 6.81997C10.6533 6.38664 10.9133 6.09997 11.3333 5.96664C12.1133 5.71997 12.9066 5.54664 13.7199 5.44664C14.5333 5.34664 15.3399 5.2933 16.1399 5.2933L16.1533 5.30664ZM18.5533 12.6066C18.9999 13.0533 19.3133 13.5666 19.5066 14.16C19.6999 14.7533 19.7333 15.3533 19.6266 15.98C19.6066 16.0933 19.5399 16.1733 19.4266 16.2333C19.3133 16.2933 19.2066 16.26 19.0933 16.1466L15.1599 12.2133C15.0733 12.1266 15.0399 12.02 15.0733 11.8933C15.1066 11.7666 15.1799 11.6866 15.2933 11.64C15.8733 11.5266 16.4466 11.5533 17.0266 11.7266C17.6066 11.8933 18.1133 12.1866 18.5599 12.6133L18.5533 12.6066Z" fill="currentColor"/>
</svg>
