<svg width="32" height="32" viewBox="0 0 32 32" fill="none" xmlns="http://www.w3.org/2000/svg">
<path d="M27.3333 5.33337H4.66663C3.55996 5.33337 2.66663 6.22671 2.66663 7.33337V24.6667C2.66663 25.7734 3.55996 26.6667 4.66663 26.6667H27.3333C28.44 26.6667 29.3333 25.7734 29.3333 24.6667V7.33337C29.3333 6.22671 28.44 5.33337 27.3333 5.33337ZM27.3666 13.3334H21.8066C21.4933 13.3334 21.1933 13.4067 20.9133 13.5467L16.8933 15.5534C16.3333 15.8334 15.6666 15.8334 15.1066 15.5534L11.0933 13.5467C10.8133 13.4067 10.5066 13.3334 10.2 13.3334H4.63329V12.3334C4.63329 11.78 5.07996 11.3334 5.63329 11.3334H26.3666C26.92 11.3334 27.3666 11.78 27.3666 12.3334V13.3334ZM27.3666 9.50671C27.0533 9.39337 26.72 9.33337 26.3666 9.33337H5.63329C5.27996 9.33337 4.94663 9.39337 4.63329 9.50671V8.33337C4.63329 7.78004 5.07996 7.33337 5.63329 7.33337H26.3666C26.92 7.33337 27.3666 7.78004 27.3666 8.33337V9.50671Z" fill="#222343"/>
</svg>
