<svg width="32" height="32" viewBox="0 0 32 32" fill="none" xmlns="http://www.w3.org/2000/svg">
<path d="M3.07328 25.6667L14.2666 6.32007C15.0399 4.98674 16.9599 4.98674 17.7266 6.32007L28.9266 25.6601C29.6999 26.9934 28.7333 28.6601 27.1933 28.6601H4.79994C3.25994 28.6601 2.29994 26.9934 3.06661 25.6601L3.07328 25.6667ZM16.1333 24.7667C16.4199 24.7667 16.6599 24.6734 16.8533 24.4867C17.0466 24.3001 17.1399 24.0601 17.1333 23.7667C17.1333 23.4801 17.0399 23.2401 16.8533 23.0467C16.6666 22.8534 16.4266 22.7667 16.1333 22.7667C15.8399 22.7667 15.6066 22.8601 15.4133 23.0467C15.2266 23.2334 15.1333 23.4734 15.1333 23.7667C15.1333 24.0534 15.2266 24.2934 15.4133 24.4867C15.5999 24.6801 15.8399 24.7667 16.1333 24.7667ZM16.1333 21.0667C16.6866 21.0667 17.1333 20.6201 17.1333 20.0667V14.6001C17.1333 14.0467 16.6866 13.6001 16.1333 13.6001C15.5799 13.6001 15.1333 14.0467 15.1333 14.6001V20.0667C15.1333 20.6201 15.5799 21.0667 16.1333 21.0667Z" fill="#222343"/>
</svg>
