<svg width="32" height="32" viewBox="0 0 32 32" fill="none" xmlns="http://www.w3.org/2000/svg">
<path d="M21.66 21.6732C22.0666 21.2666 22.0733 20.5999 21.66 20.1866L17.1 15.5999V9.89991C17.1 9.34658 16.6533 8.89991 16.1 8.89991C15.5466 8.89991 15.1 9.34658 15.1 9.89991V16.3999L20.1533 21.6599C20.56 22.0866 21.24 22.0932 21.6533 21.6732H21.66ZM16 29.3332C14.18 29.3332 12.4533 28.9866 10.8333 28.2799C9.21329 27.5799 7.79329 26.6266 6.57996 25.4132C5.36663 24.1999 4.41329 22.7866 3.71329 21.1599C3.01329 19.5399 2.66663 17.8132 2.66663 15.9932C2.66663 14.1732 3.01996 12.4466 3.71329 10.8266C4.41329 9.20658 5.36663 7.78658 6.57996 6.57325C7.79329 5.35991 9.20663 4.40658 10.8333 3.70658C12.4533 3.00658 14.18 2.65991 16 2.65991C17.82 2.65991 19.5466 3.01325 21.1666 3.70658C22.7866 4.40658 24.2066 5.35991 25.42 6.57325C26.6333 7.78658 27.5866 9.19991 28.2866 10.8266C28.9866 12.4466 29.34 14.1732 29.34 15.9932C29.34 17.8132 28.9933 19.5399 28.2866 21.1599C27.5866 22.7799 26.6333 24.1999 25.42 25.4132C24.2066 26.6266 22.7933 27.5799 21.1666 28.2799C19.5466 28.9799 17.82 29.3332 16 29.3332Z" fill="#222343"/>
</svg>
