<svg width="32" height="32" viewBox="0 0 32 32" fill="none" xmlns="http://www.w3.org/2000/svg">
<path d="M16 2.66675C8.63329 2.66675 2.66663 8.63341 2.66663 16.0001C2.66663 23.3667 8.63329 29.3334 16 29.3334C23.3666 29.3334 29.3333 23.3667 29.3333 16.0001C29.3333 8.63341 23.3666 2.66675 16 2.66675ZM16.0333 24.2267C14.6466 24.2267 13.28 23.8801 12.0666 23.2201L7.66663 24.3734L8.84663 20.0734C8.11996 18.8134 7.73996 17.3867 7.73996 15.9267C7.73996 11.3534 11.4666 7.63341 16.04 7.63341C18.26 7.63341 20.3466 8.50008 21.9133 10.0667C23.48 11.6334 24.34 13.7201 24.34 15.9334C24.34 20.5067 20.6133 24.2267 16.04 24.2267H16.0333Z" fill="#222343"/>
<path d="M16.04 9.03341C12.2333 9.03341 9.13996 12.1267 9.13996 15.9267C9.13996 17.2267 9.50663 18.5001 10.1933 19.5934L10.36 19.8534L9.65996 22.4001L12.2733 21.7134L12.5266 21.8601C13.5866 22.4867 14.8 22.8201 16.04 22.8201C19.84 22.8201 22.9333 19.7267 22.94 15.9267C22.94 14.0867 22.2266 12.3534 20.92 11.0467C19.62 9.74675 17.8866 9.02675 16.0466 9.02675L16.04 9.03341ZM20.0933 18.8867C19.92 19.3734 19.0933 19.8134 18.6933 19.8734C18.3333 19.9267 17.8866 19.9467 17.3866 19.7934C17.0866 19.7001 16.7 19.5734 16.2066 19.3534C14.1266 18.4534 12.7666 16.3601 12.6666 16.2267C12.5666 16.0934 11.82 15.1001 11.82 14.0801C11.82 13.0601 12.3533 12.5601 12.5466 12.3534C12.74 12.1467 12.96 12.0934 13.1 12.0934C13.24 12.0934 13.3733 12.0934 13.5 12.1001C13.6266 12.1001 13.8 12.0534 13.9666 12.4534C14.14 12.8667 14.5533 13.8867 14.6066 13.9934C14.66 14.1001 14.6933 14.2201 14.6266 14.3534C14.56 14.4934 14.52 14.5801 14.42 14.7001C14.32 14.8201 14.2 14.9734 14.1066 15.0601C14 15.1667 13.8933 15.2734 14.0133 15.4801C14.1333 15.6867 14.5533 16.3667 15.1666 16.9134C15.96 17.6201 16.6266 17.8401 16.8333 17.9401C17.04 18.0467 17.16 18.0267 17.28 17.8867C17.4 17.7467 17.8 17.2801 17.9333 17.0734C18.0733 16.8667 18.2066 16.9001 18.4 16.9667C18.5866 17.0334 19.6066 17.5401 19.82 17.6401C20.0266 17.7467 20.1666 17.7934 20.22 17.8801C20.2733 17.9667 20.2733 18.3801 20.1 18.8667L20.0933 18.8867Z" fill="#222343"/>
</svg>
