<svg width="32" height="32" viewBox="0 0 32 32" fill="none" xmlns="http://www.w3.org/2000/svg">
<path d="M16 2.66675C8.63329 2.66675 2.66663 8.64008 2.66663 16.0001C2.66663 23.3601 8.63329 29.3334 16 29.3334C23.3666 29.3334 29.3333 23.3667 29.3333 16.0001C29.3333 8.63341 23.3666 2.66675 16 2.66675ZM16 25.3334C10.8533 25.3334 6.66663 21.1467 6.66663 16.0001C6.66663 10.8534 10.8533 6.66675 16 6.66675C21.1466 6.66675 25.3333 10.8534 25.3333 16.0001C25.3333 21.1467 21.1466 25.3334 16 25.3334Z" fill="#222343"/>
<path d="M16 17.3334C16.7363 17.3334 17.3333 16.7365 17.3333 16.0001C17.3333 15.2637 16.7363 14.6667 16 14.6667C15.2636 14.6667 14.6666 15.2637 14.6666 16.0001C14.6666 16.7365 15.2636 17.3334 16 17.3334Z" fill="#222343"/>
<path d="M17 19.1667V23.2601C18.2933 23.0801 19.48 22.5667 20.4666 21.8067L17.58 18.9201C17.3933 19.0201 17.2 19.1001 17 19.1667Z" fill="#222343"/>
<path d="M20.4666 10.1934C19.48 9.43341 18.2933 8.92008 17 8.74675V12.8401C17.2 12.9001 17.3933 12.9867 17.58 13.0867L20.4666 10.1934Z" fill="#222343"/>
<path d="M13.08 14.4201L10.1933 11.5334C9.43329 12.5201 8.91996 13.7067 8.73996 15.0001H12.8333C12.9 14.8001 12.98 14.6067 13.08 14.4201Z" fill="#222343"/>
<path d="M15 12.8401V8.74675C13.74 8.91341 12.5866 9.40675 11.62 10.1334L14.52 13.0334C14.6733 12.9534 14.8333 12.8934 15 12.8401Z" fill="#222343"/>
<path d="M18.9733 14.5201C19.0466 14.6734 19.1133 14.8334 19.16 15.0001H23.26C23.0866 13.7467 22.5933 12.5867 21.8733 11.6201L18.9733 14.5201Z" fill="#222343"/>
<path d="M12.84 17.0001H8.73996C8.91996 18.2934 9.43329 19.4801 10.1933 20.4667L13.08 17.5801C12.98 17.3934 12.9 17.2067 12.84 17.0001Z" fill="#222343"/>
<path d="M11.62 21.8734C12.5866 22.6001 13.74 23.0867 15 23.2601V19.1667C14.8333 19.1134 14.6733 19.0467 14.52 18.9734L11.62 21.8734Z" fill="#222343"/>
<path d="M18.9733 17.4867L21.8733 20.3867C22.5933 19.4134 23.0866 18.2601 23.26 17.0001H19.16C19.1133 17.1667 19.0466 17.3267 18.9733 17.4867Z" fill="#222343"/>
</svg>
