<svg width="32" height="32" viewBox="0 0 32 32" fill="none" xmlns="http://www.w3.org/2000/svg">
<path d="M4.66663 28.6666C4.13329 28.6666 3.66663 28.4666 3.26663 28.0666C2.86663 27.6666 2.66663 27.1999 2.66663 26.6666V10.6666C2.66663 10.1333 2.86663 9.66659 3.26663 9.26659C3.66663 8.86659 4.13329 8.66659 4.66663 8.66659H10.6666V5.33325C10.6666 4.79992 10.8666 4.33325 11.2666 3.93325C11.6666 3.53325 12.1333 3.33325 12.6666 3.33325H19.3333C19.8666 3.33325 20.3333 3.53325 20.7333 3.93325C21.1333 4.33325 21.3333 4.79992 21.3333 5.33325V8.66659H27.3333C27.8666 8.66659 28.3333 8.86659 28.7333 9.26659C29.1333 9.66659 29.3333 10.1333 29.3333 10.6666V26.6666C29.3333 27.1999 29.1333 27.6666 28.7333 28.0666C28.3333 28.4666 27.8666 28.6666 27.3333 28.6666H4.66663ZM12.6666 8.66659H19.3333V5.33325H12.6666V8.66659Z" fill="#222343"/>
</svg>
