<svg width="32" height="32" viewBox="0 0 32 32" fill="none" xmlns="http://www.w3.org/2000/svg">
<path fill-rule="evenodd" clip-rule="evenodd" d="M16 2.6665C8.63329 2.6665 2.66663 8.63317 2.66663 15.9998C2.66663 23.3665 8.63329 29.3332 16 29.3332C23.3666 29.3332 29.3333 23.3665 29.3333 15.9998C29.3333 8.63317 23.3666 2.6665 16 2.6665ZM23.9866 20.0132C23.7933 20.7332 23.2333 21.2932 22.5133 21.4865C21.2133 21.8332 16 21.8332 16 21.8332C16 21.8332 10.7866 21.8332 9.48663 21.4865C8.76663 21.2932 8.20663 20.7332 8.01329 20.0132C7.66663 18.7132 7.66663 15.9998 7.66663 15.9998C7.66663 15.9998 7.66663 13.2865 8.01329 11.9865C8.20663 11.2665 8.76663 10.7065 9.48663 10.5132C10.7866 10.1665 16 10.1665 16 10.1665C16 10.1665 21.2133 10.1665 22.5133 10.5132C23.2333 10.7065 23.7933 11.2665 23.9866 11.9865C24.3333 13.2865 24.3333 15.9998 24.3333 15.9998C24.3333 15.9998 24.3333 18.7132 23.9866 20.0132Z" fill="#222343"/>
<path d="M14.3333 18.4999L18.66 15.9999L14.3333 13.4999V18.4999Z" fill="#222343"/>
</svg>
