<svg width="32" height="32" viewBox="0 0 32 32" fill="none" xmlns="http://www.w3.org/2000/svg">
<path opacity="0.32" d="M6 28C5.46667 28 5 27.8 4.6 27.4C4.2 27 4 26.5333 4 26V6C4 5.46667 4.2 5 4.6 4.6C5 4.2 5.46667 4 6 4H26C26.5333 4 27 4.2 27.4 4.6C27.8 5 28 5.46667 28 6V26C28 26.5333 27.8 27 27.4 27.4C27 27.8 26.5333 28 26 28H6Z" fill="#25CBDB"/>
<path opacity="0.52" d="M25.9733 6C25.9733 6 25.98 6.00667 25.9867 6.01333L26 6.02667V25.9667C26 25.9667 25.9933 25.9733 25.9867 25.98L25.9733 25.9933H6.02667C6.02667 25.9933 6.02 25.9867 6.01333 25.98L6 25.9667V6.02667C6 6.02667 6.00667 6.02 6.01333 6.01333L6.02667 6H25.9667M25.9933 4H6C5.46667 4 5 4.2 4.6 4.6C4.2 5 4 5.46667 4 6V26C4 26.5333 4.2 27 4.6 27.4C5 27.8 5.46667 28 6 28H26C26.5333 28 27 27.8 27.4 27.4C27.8 27 28 26.5333 28 26V6C28 5.46667 27.8 5 27.4 4.6C27 4.2 26.5333 4 26 4H25.9933Z" fill="#25CBDB"/>
<path d="M16.0667 18.6333C17.3533 18.6333 18.4467 18.1867 19.3333 17.3C20.22 16.4133 20.6667 15.32 20.6667 14.0333C20.6667 12.7467 20.22 11.6533 19.3333 10.7667C18.4467 9.87999 17.3533 9.43332 16.0667 9.43332C14.78 9.43332 13.6867 9.87999 12.8 10.7667C11.9133 11.6533 11.4667 12.7467 11.4667 14.0333C11.4667 15.32 11.9133 16.4133 12.8 17.3C13.6867 18.1867 14.78 18.6333 16.0667 18.6333Z" fill="#25CBDB"/>
<path d="M6 26H26V24.7667C24.6667 23.52 23.1533 22.5133 21.4667 21.7467C19.78 20.98 17.9533 20.5933 16 20.5933C14.0467 20.5933 12.22 20.98 10.5333 21.7467C8.84667 22.5133 7.33333 23.52 6 24.7667V26Z" fill="#25CBDB"/>
</svg>
