<svg width="32" height="32" viewBox="0 0 32 32" fill="none" xmlns="http://www.w3.org/2000/svg">
<path opacity="0.32" d="M16 29.3333C23.3638 29.3333 29.3333 23.3638 29.3333 16C29.3333 8.63619 23.3638 2.66666 16 2.66666C8.63616 2.66666 2.66663 8.63619 2.66663 16C2.66663 23.3638 8.63616 29.3333 16 29.3333Z" fill="#25CBDB"/>
<path opacity="0.52" d="M15.8667 29.3333C14 29.3133 12.26 28.9533 10.6533 28.2667C9.04001 27.58 7.64667 26.6333 6.47334 25.4333C5.29334 24.2333 4.36667 22.8267 3.68667 21.2133C3.00667 19.6 2.67334 17.8667 2.67334 15.9933C2.67334 14.1067 3.02001 12.3467 3.70667 10.7267C4.39334 9.10667 5.34001 7.69334 6.54001 6.49334C7.74001 5.29334 9.15334 4.35334 10.7733 3.68C12.3933 3 14.14 2.66 16.0067 2.66C17.34 2.66 18.6533 2.85334 19.94 3.24667C21.2267 3.63334 22.4733 4.22 23.6733 4.99334C23.92 5.14667 24.06 5.36 24.0867 5.62667C24.1133 5.89334 24.0467 6.14 23.8667 6.36C23.6867 6.58 23.4667 6.71334 23.2 6.76C22.9333 6.80667 22.68 6.74667 22.4333 6.59334C21.4333 5.94667 20.3933 5.46667 19.32 5.14C18.24 4.82 17.14 4.65334 16.0067 4.65334C12.7867 4.65334 10.0867 5.73334 7.92667 7.90667C5.76667 10.08 4.67334 12.7667 4.67334 15.9867C4.67334 19.2067 5.75334 21.9067 7.92667 24.0667C10.1 26.2267 12.7867 27.32 16.0067 27.32C16.8733 27.32 17.7267 27.2333 18.5733 27.0533C19.42 26.8733 20.2267 26.6 21.0067 26.22C21.2733 26.1067 21.54 26.0733 21.8067 26.12C22.0733 26.1667 22.2867 26.3 22.44 26.52C22.62 26.7667 22.6733 27.0267 22.6067 27.3C22.54 27.58 22.3867 27.7733 22.14 27.8867C21.16 28.3733 20.1533 28.74 19.1067 28.9667C18.06 29.2 16.9867 29.32 15.8733 29.32L15.8667 29.3333Z" fill="#25CBDB"/>
<path d="M13.3333 21.3667L9.26667 17.2667C9.06667 17.0667 8.96667 16.82 8.96667 16.5333C8.96667 16.2467 9.08001 15.9867 9.30001 15.7667C9.50001 15.5667 9.75334 15.46 10.0467 15.4467C10.3467 15.4333 10.6 15.54 10.8 15.7667L14.0333 19.0333L27.1 5.96668C27.3 5.76668 27.5467 5.66001 27.8333 5.64668C28.12 5.63335 28.38 5.74001 28.6 5.96668C28.82 6.18668 28.9333 6.44668 28.9333 6.73335C28.9333 7.02001 28.82 7.28001 28.6 7.50001L14.7333 21.3667C14.5333 21.5667 14.2933 21.6667 14.0133 21.6667C13.7333 21.6667 13.5067 21.5667 13.3267 21.3667H13.3333Z" fill="#25CBDB"/>
<path d="M26.6667 26.3333C26.38 26.3333 26.14 26.24 25.9467 26.0533C25.7533 25.8667 25.6667 25.6267 25.6667 25.3333V22.3333H22.6667C22.38 22.3333 22.14 22.24 21.9467 22.0533C21.7533 21.8667 21.6667 21.6267 21.6667 21.3333C21.6667 21.04 21.76 20.8067 21.9467 20.6133C22.1333 20.4267 22.3733 20.3333 22.6667 20.3333H25.6667V17.3333C25.6667 17.0467 25.76 16.8067 25.9467 16.6133C26.1333 16.4267 26.3733 16.3333 26.6667 16.3333C26.96 16.3333 27.1933 16.4267 27.3867 16.6133C27.5733 16.8 27.6667 17.04 27.6667 17.3333V20.3333H30.6667C30.9533 20.3333 31.1933 20.4267 31.3867 20.6133C31.5733 20.8 31.6667 21.04 31.6667 21.3333C31.6667 21.6267 31.5733 21.86 31.3867 22.0533C31.2 22.2467 30.96 22.3333 30.6667 22.3333H27.6667V25.3333C27.6667 25.62 27.5733 25.86 27.3867 26.0533C27.2 26.2467 26.96 26.3333 26.6667 26.3333Z" fill="#25CBDB"/>
</svg>
