<svg width="32" height="32" viewBox="0 0 32 32" fill="none" xmlns="http://www.w3.org/2000/svg">
<path d="M28.4333 9.39998C28.0533 9.01998 27.58 8.83331 27 8.83331H17.3333V12.9C17.3333 13.8333 17.02 14.6266 16.3867 15.28C15.7533 15.9333 14.9733 16.2666 14.0333 16.2666H11.7333C11.8733 16.3866 12.02 16.5133 12.1533 16.6466C13.3867 17.88 14 19.3733 14 21.1333C14 21.48 13.9667 21.8066 13.92 22.1333H21.76C21.9333 21.2733 22.36 20.5066 23.0333 19.8333C23.9467 18.92 25.02 18.4666 26.2667 18.4666C27.32 18.4666 28.2333 18.7866 29 19.42V10.8333C29 10.2533 28.8133 9.77998 28.4333 9.39998Z" fill="#25CBDB"/>
<g opacity="0.85">
<path d="M26.1667 25.4667C27.5474 25.4667 28.6667 24.3474 28.6667 22.9667C28.6667 21.5859 27.5474 20.4667 26.1667 20.4667C24.786 20.4667 23.6667 21.5859 23.6667 22.9667C23.6667 24.3474 24.786 25.4667 26.1667 25.4667Z" fill="#25CBDB"/>
<path d="M7.66668 16.8C5.27334 16.8 3.33334 18.74 3.33334 21.1333C3.33334 23.5267 5.27334 25.4667 7.66668 25.4667C10.06 25.4667 12 23.5267 12 21.1333C12 18.74 10.06 16.8 7.66668 16.8ZM9.32001 22.78C8.86668 23.2333 8.31334 23.4667 7.66668 23.4667C7.02001 23.4667 6.47334 23.24 6.02001 22.78C5.56668 22.32 5.33334 21.7733 5.33334 21.1333C5.33334 20.4933 5.56001 19.94 6.02001 19.48C6.48001 19.02 7.02668 18.8 7.66668 18.8C8.30668 18.8 8.86001 19.0267 9.32001 19.48C9.77334 19.9333 10 20.4867 10 21.1333C10 21.78 9.77334 22.3267 9.32001 22.78Z" fill="#25CBDB"/>
</g>
<g opacity="0.52">
<path d="M29.4 19.78C29.2733 19.6467 29.14 19.5267 29 19.4133C28.2333 18.78 27.32 18.46 26.2667 18.46C25.02 18.46 23.9467 18.9133 23.0333 19.8267C22.36 20.5 21.9333 21.2667 21.76 22.1267C21.7 22.4267 21.6667 22.74 21.6667 23.06C21.6667 24.3067 22.1067 25.3467 22.9867 26.1933C23.8667 27.04 24.9267 27.46 26.1667 27.46C27.4067 27.46 28.4733 27.02 29.3533 26.14C30.2333 25.26 30.6667 24.2 30.6667 22.96C30.6667 21.72 30.2467 20.6533 29.4 19.7733V19.78ZM27.9333 24.7333C27.4467 25.22 26.8533 25.4667 26.1667 25.4667C25.48 25.4667 24.8867 25.22 24.4 24.7333C23.9133 24.2467 23.6667 23.6533 23.6667 22.9667C23.6667 22.28 23.9133 21.6867 24.4 21.2C24.8867 20.7133 25.48 20.4667 26.1667 20.4667C26.8533 20.4667 27.4467 20.7133 27.9333 21.2C28.42 21.6867 28.6667 22.28 28.6667 22.9667C28.6667 23.6533 28.42 24.2467 27.9333 24.7333Z" fill="#25CBDB"/>
<path d="M12.1533 16.6467C12.02 16.5133 11.8733 16.3867 11.7333 16.2667C10.5867 15.2933 9.23334 14.8 7.66668 14.8C5.91334 14.8 4.41334 15.4133 3.18668 16.6467C1.95334 17.88 1.33334 19.3733 1.33334 21.1333C1.33334 22.8933 1.94001 24.3867 3.15334 25.6133C4.36668 26.8467 5.84668 27.4667 7.60001 27.4667C9.35334 27.4667 10.9133 26.8467 12.1533 25.6133C13.1467 24.62 13.7333 23.46 13.9267 22.1333C13.9733 21.8067 14.0067 21.48 14.0067 21.1333C14.0067 19.38 13.3933 17.88 12.16 16.6467H12.1533ZM10.74 24.1933C9.89334 25.04 8.87334 25.46 7.67334 25.46C6.47334 25.46 5.45334 25.04 4.60668 24.1933C3.76001 23.3467 3.34001 22.3267 3.34001 21.1267C3.34001 19.9267 3.76001 18.9067 4.60668 18.06C5.45334 17.2133 6.47334 16.7933 7.67334 16.7933C8.87334 16.7933 9.89334 17.2133 10.74 18.06C11.5867 18.9067 12.0067 19.9267 12.0067 21.1267C12.0067 22.3267 11.5867 23.3467 10.74 24.1933Z" fill="#25CBDB"/>
<path d="M7.66668 18.8C7.02001 18.8 6.47334 19.0267 6.02001 19.48C5.56668 19.9333 5.33334 20.4867 5.33334 21.1333C5.33334 21.78 5.56001 22.3267 6.02001 22.78C6.48001 23.2333 7.02668 23.4667 7.66668 23.4667C8.30668 23.4667 8.86001 23.24 9.32001 22.78C9.77334 22.3267 10 21.7733 10 21.1333C10 20.4933 9.77334 19.94 9.32001 19.48C8.86668 19.0267 8.31334 18.8 7.66668 18.8Z" fill="#25CBDB"/>
</g>
<g opacity="0.32">
<path d="M17.9333 8.83333L16.3 7.19999L18.3667 5.13332L17.7667 4.53333L13.0333 9.26666L13.6667 9.86666L15.7 7.83333L17.3333 9.43332V8.83333H17.9333Z" fill="#25CBDB"/>
<path d="M4.83332 12.8333H12C11.8867 12.3 11.6533 11.8333 11.3 11.4333C10.9467 11.0333 10.4467 10.8333 9.79998 10.8333H4.83332C4.58665 10.8333 4.37999 10.9333 4.19999 11.1333C4.01999 11.3333 3.93332 11.5667 3.93332 11.8333C3.93332 12.1 4.01999 12.3333 4.19999 12.5333C4.37999 12.7333 4.58665 12.8333 4.83332 12.8333Z" fill="#25CBDB"/>
</g>
</svg>
