<svg width="32" height="32" viewBox="0 0 32 32" fill="none" xmlns="http://www.w3.org/2000/svg">
<path opacity="0.85" d="M11.7599 17.0002C11.4732 17.0002 11.2399 16.9069 11.0466 16.7136C10.8599 16.5202 10.7599 16.2869 10.7599 16.0002V6.46689L7.42656 9.80023C7.22656 10.0002 6.99323 10.1002 6.7199 10.1002C6.44656 10.1002 6.21323 10.0069 6.0199 9.81356C5.82656 9.6069 5.72656 9.36689 5.72656 9.10023C5.72656 8.83356 5.82656 8.60023 6.02656 8.40023L11.0599 3.36689C11.1732 3.25356 11.2866 3.18023 11.3999 3.13356C11.5132 3.08689 11.6332 3.06689 11.7666 3.06689C11.8999 3.06689 12.0199 3.08689 12.1266 3.13356C12.2332 3.18023 12.3466 3.25356 12.4599 3.36689L17.4932 8.40023C17.6932 8.60023 17.7932 8.83356 17.7932 9.10023C17.7932 9.36689 17.6932 9.6069 17.4932 9.81356C17.2932 10.0069 17.0599 10.1002 16.7932 10.1002C16.5266 10.1002 16.2932 10.0002 16.0932 9.80023L12.7599 6.46689V16.0002C12.7599 16.2869 12.6666 16.5202 12.4732 16.7136C12.2799 16.9069 12.0399 17.0002 11.7532 17.0002H11.7599Z" fill="currentColor"/>
<path opacity="0.52" d="M20.2266 28.9333C20.0933 28.9333 19.9733 28.9133 19.8666 28.8667C19.76 28.82 19.6466 28.7467 19.5333 28.6333L14.5 23.6C14.3 23.4 14.2 23.1667 14.2 22.9C14.2 22.6333 14.3 22.3933 14.5 22.1867C14.7 21.9933 14.9333 21.9 15.2 21.9C15.4666 21.9 15.7 22 15.9 22.2L19.2333 25.5333V16C19.2333 15.7133 19.3266 15.48 19.52 15.2867C19.7133 15.0933 19.9533 15 20.24 15C20.5266 15 20.76 15.0933 20.9533 15.2867C21.14 15.48 21.24 15.7133 21.24 16V25.5333L24.5733 22.2C24.7733 22 25.0066 21.9 25.28 21.9C25.5533 21.9 25.7866 21.9933 25.98 22.1867C26.1733 22.3933 26.2733 22.6333 26.2733 22.9C26.2733 23.1667 26.1733 23.4 25.9733 23.5933L20.94 28.6267C20.8266 28.74 20.7133 28.8133 20.6 28.86C20.4866 28.9067 20.3666 28.9267 20.2333 28.9267L20.2266 28.9333Z" fill="currentColor"/>
</svg>
