<svg width="32" height="32" viewBox="0 0 32 32" fill="none" xmlns="http://www.w3.org/2000/svg">
<path opacity="0.32" d="M20.4067 5.55335C19.0467 4.96669 17.56 4.66669 16 4.66669C14.46 4.66669 12.9867 4.96669 11.6267 5.55335C10.2467 6.14669 9.02002 6.96669 7.99335 7.98669C6.96669 9.00002 6.14669 10.2134 5.55335 11.5934C4.96669 12.9534 4.66669 14.46 4.66669 16C4.66669 17.54 4.96669 19.0134 5.55335 20.3734C6.15335 21.7534 6.97335 22.9734 8.00002 24C9.02669 25.0267 10.2467 25.8534 11.6267 26.4467C12.9867 27.0334 14.44 27.3334 16 27.3334C17.56 27.3334 19.0467 27.0334 20.4067 26.4467C21.7867 25.8467 23 25.0267 24.0134 24.0067C25.0334 22.98 25.8467 21.76 26.4467 20.3734C27.0334 19.0134 27.3334 17.56 27.3334 16C27.3334 14.44 27.0334 12.9534 26.4467 11.5934C25.8534 10.2067 25.0334 8.99335 24.02 7.98002C23.0067 6.96669 21.7867 6.14669 20.4067 5.55335Z" fill="#25CBDB"/>
<path d="M16 4.66666C17.56 4.66666 19.0467 4.96666 20.4067 5.55332C21.7867 6.14666 23 6.96666 24.02 7.97999C25.0334 8.99332 25.8534 10.2133 26.4467 11.5933C27.0334 12.9533 27.3334 14.44 27.3334 16C27.3334 17.56 27.0334 19.0133 26.4467 20.3733C25.8467 21.76 25.0334 22.98 24.0134 24.0067C23 25.0267 21.7867 25.8467 20.4067 26.4467C19.0467 27.0333 17.56 27.3333 16 27.3333C14.44 27.3333 12.9867 27.0333 11.6267 26.4467C10.2467 25.8533 9.0267 25.0267 8.00003 24C6.97337 22.9733 6.15337 21.7533 5.55337 20.3733C4.9667 19.0133 4.6667 17.54 4.6667 16C4.6667 14.46 4.9667 12.9533 5.55337 11.5933C6.1467 10.2133 6.9667 8.99999 7.99337 7.98666C9.02003 6.96666 10.2467 6.14666 11.6267 5.55332C12.9867 4.96666 14.46 4.66666 16 4.66666ZM16 2.66666C14.18 2.66666 12.4534 3.01999 10.8334 3.71999C9.21337 4.41999 7.79337 5.36666 6.58003 6.56666C5.3667 7.76666 4.41337 9.17999 3.71337 10.8C3.01337 12.42 2.66003 14.1533 2.66003 16C2.66003 17.8467 3.01337 19.5467 3.71337 21.1667C4.41337 22.7867 5.3667 24.2067 6.58003 25.42C7.79337 26.6333 9.2067 27.5867 10.8334 28.2867C12.46 28.9867 14.18 29.34 16 29.34C17.82 29.34 19.58 28.9867 21.2 28.2867C22.82 27.5867 24.2334 26.6333 25.4334 25.42C26.6334 24.2067 27.58 22.7933 28.2867 21.1667C28.9867 19.5467 29.3334 17.82 29.3334 16C29.3334 14.18 28.98 12.42 28.2867 10.8C27.5867 9.17999 26.6334 7.76666 25.4334 6.56666C24.2334 5.36666 22.82 4.41999 21.2 3.71999C19.58 3.01999 17.8467 2.66666 16 2.66666Z" fill="#25CBDB"/>
<path d="M16.7 20.1667L20.1667 16.7C20.5534 16.3133 20.5534 15.6867 20.1667 15.3L16.7 11.8333C16.3134 11.4467 15.6867 11.4467 15.3 11.8333C14.9134 12.22 14.9134 12.8467 15.3 13.2333L17.0667 15H11.9867C11.44 15 11 15.44 11 15.9867V16.0067C11 16.5533 11.44 16.9933 11.9867 16.9933H17.0667L15.3 18.76C14.9134 19.1467 14.9134 19.7733 15.3 20.16C15.6867 20.5467 16.3134 20.5467 16.7 20.16V20.1667Z" fill="#25CBDB"/>
</svg>
