<svg width="32" height="32" viewBox="0 0 32 32" fill="none" xmlns="http://www.w3.org/2000/svg">
<path fill-rule="evenodd" clip-rule="evenodd" d="M27.4133 4.58665C27.0267 4.19998 26.5533 3.99998 26 3.99998H19.1667C19.0533 3.21998 18.7 2.58665 18.1 2.07998C17.5 1.57998 16.8 1.33331 16 1.33331C15.2 1.33331 14.5 1.58665 13.9 2.07998C13.3 2.57998 12.9467 3.21998 12.8333 3.99998H6C5.44667 3.99998 4.97333 4.19331 4.58667 4.58665C4.2 4.97331 4 5.44665 4 5.99998V26C4 26.5533 4.19333 27.0266 4.58667 27.4133C4.97333 27.8 5.44667 28 6 28H26C26.5533 28 27.0267 27.8066 27.4133 27.4133C27.8 27.0266 28 26.5533 28 26V5.99998C28 5.44665 27.8067 4.97331 27.4133 4.58665ZM15.18 3.45331C15.4133 3.21998 15.6867 3.09998 15.9933 3.09998C16.3 3.09998 16.58 3.21998 16.8067 3.45331C17.04 3.68665 17.16 3.95998 17.16 4.26665C17.16 4.57331 17.0467 4.85331 16.8067 5.08665C16.5733 5.31998 16.3 5.43331 15.9933 5.43331C15.6867 5.43331 15.4067 5.31998 15.18 5.08665C14.9467 4.85331 14.8267 4.57998 14.8267 4.26665C14.8267 3.95331 14.94 3.67998 15.18 3.45331ZM18.1467 22.3866C17.96 22.5733 17.72 22.6733 17.4333 22.6733H10.3333C10.0467 22.6733 9.80667 22.58 9.61333 22.3866C9.42 22.1933 9.33333 21.96 9.33333 21.6733C9.33333 21.3866 9.42667 21.1466 9.61333 20.96C9.8 20.7733 10.04 20.6733 10.3333 20.6733H17.4333C17.72 20.6733 17.96 20.7666 18.1467 20.96C18.3333 21.1466 18.4333 21.3866 18.4333 21.6733C18.4333 21.96 18.34 22.2 18.1467 22.3866ZM22.38 16.72C22.1933 16.9066 21.9533 17.0066 21.66 17.0066H10.3333C10.0467 17.0066 9.80667 16.9133 9.61333 16.72C9.42 16.5266 9.33333 16.2933 9.33333 16.0066C9.33333 15.72 9.42667 15.48 9.61333 15.2933C9.8 15.1066 10.04 15.0066 10.3333 15.0066H21.6667C21.9533 15.0066 22.1933 15.1 22.3867 15.2933C22.5733 15.48 22.6667 15.72 22.6667 16.0066C22.6667 16.2933 22.5733 16.5333 22.3867 16.72H22.38ZM22.38 11.0533C22.1933 11.24 21.9533 11.34 21.66 11.34H10.3333C10.0467 11.34 9.80667 11.2466 9.61333 11.0533C9.42 10.86 9.33333 10.6266 9.33333 10.34C9.33333 10.0533 9.42667 9.81331 9.61333 9.62665C9.8 9.43998 10.04 9.33998 10.3333 9.33998H21.6667C21.9533 9.33998 22.1933 9.43331 22.3867 9.62665C22.5733 9.81331 22.6667 10.0533 22.6667 10.34C22.6667 10.6266 22.5733 10.8666 22.3867 11.0533H22.38Z" fill="#25CBDB"/>
<g opacity="0.2">
<path d="M17.4333 20.6666H10.3333C10.0466 20.6666 9.80659 20.76 9.61325 20.9533C9.42659 21.14 9.33325 21.38 9.33325 21.6666C9.33325 21.9533 9.42659 22.1933 9.61325 22.38C9.79992 22.5666 10.0399 22.6666 10.3333 22.6666H17.4333C17.7199 22.6666 17.9599 22.5733 18.1466 22.38C18.3333 22.1933 18.4333 21.9533 18.4333 21.6666C18.4333 21.38 18.3399 21.14 18.1466 20.9533C17.9599 20.7666 17.7199 20.6666 17.4333 20.6666Z" fill="#25CBDB"/>
<path d="M21.6666 15H10.3333C10.0466 15 9.80659 15.0933 9.61325 15.2866C9.42659 15.4733 9.33325 15.7133 9.33325 16C9.33325 16.2866 9.42659 16.5266 9.61325 16.7133C9.79992 16.9 10.0399 17 10.3333 17H21.6666C21.9533 17 22.1933 16.9066 22.3866 16.7133C22.5799 16.52 22.6666 16.2866 22.6666 16C22.6666 15.7133 22.5733 15.4733 22.3866 15.2866C22.1999 15.1 21.9599 15 21.6666 15Z" fill="#25CBDB"/>
<path d="M21.6666 9.33331H10.3333C10.0466 9.33331 9.80659 9.42665 9.61325 9.61998C9.42659 9.80665 9.33325 10.0466 9.33325 10.3333C9.33325 10.62 9.42659 10.86 9.61325 11.0466C9.79992 11.2333 10.0399 11.3333 10.3333 11.3333H21.6666C21.9533 11.3333 22.1933 11.24 22.3866 11.0466C22.5799 10.8533 22.6666 10.62 22.6666 10.3333C22.6666 10.0466 22.5733 9.80665 22.3866 9.61998C22.1999 9.43331 21.9599 9.33331 21.6666 9.33331Z" fill="#25CBDB"/>
</g>
</svg>
