<svg width="32" height="32" viewBox="0 0 32 32" fill="none" xmlns="http://www.w3.org/2000/svg">
<g opacity="0.52">
<path d="M16.6667 30.6668C20.72 30.6668 24 27.3868 24 23.3335V8.00016H22V23.3335C22 26.2802 19.6134 28.6668 16.6667 28.6668C13.72 28.6668 11.3334 26.2802 11.3334 23.3335V6.66683C11.3334 4.82683 12.8267 3.3335 14.6667 3.3335C16.5067 3.3335 18 4.82683 18 6.66683V20.6668C18 21.4002 17.4 22.0002 16.6667 22.0002C15.9334 22.0002 15.3334 21.4002 15.3334 20.6668V8.00016H13.3334V20.6668C13.3334 22.5068 14.8267 24.0002 16.6667 24.0002C18.5067 24.0002 20 22.5068 20 20.6668V6.66683C20 3.72016 17.6134 1.3335 14.6667 1.3335C11.72 1.3335 9.33337 3.72016 9.33337 6.66683V23.3335C9.33337 27.3868 12.6134 30.6668 16.6667 30.6668Z" fill="#25CBDB"/>
</g>
</svg>
