<svg width="32" height="32" viewBox="0 0 32 32" fill="none" xmlns="http://www.w3.org/2000/svg">
<path opacity="0.85" d="M5.93334 19.6C5.71334 19.02 5.55334 18.4333 5.46668 17.8333C5.38001 17.2333 5.33334 16.6333 5.33334 16.0333C5.33334 13.12 6.38001 10.6133 8.48668 8.51998C10.5867 6.41998 13.0933 5.36665 16 5.36665H17.4333L15.4 3.33332C15.22 3.15332 15.14 2.93998 15.1467 2.68665C15.16 2.43332 15.2533 2.21332 15.4267 2.03998C15.6067 1.85998 15.82 1.77332 16.08 1.77332C16.3333 1.77332 16.5533 1.85998 16.7333 2.03998L20.3333 5.67332C20.4467 5.78665 20.52 5.89332 20.5667 6.00665C20.6133 6.11998 20.6333 6.23998 20.6333 6.37332C20.6333 6.50665 20.6133 6.62665 20.5667 6.73998C20.52 6.85332 20.4467 6.95998 20.3333 7.07332L16.7333 10.6733C16.5533 10.8533 16.3333 10.94 16.0667 10.94C15.8 10.94 15.58 10.8533 15.4 10.6733C15.22 10.4933 15.1333 10.2733 15.1333 10.0066C15.1333 9.73998 15.22 9.51998 15.4 9.33998L17.3667 7.37332H16C13.62 7.37332 11.5867 8.21998 9.88001 9.91998C8.17334 11.62 7.33334 13.66 7.33334 16.0333C7.33334 16.5666 7.38001 17.08 7.46668 17.5666C7.55334 18.0533 7.66668 18.52 7.80001 18.9667C7.84668 19.12 7.84668 19.2866 7.80001 19.4667C7.75334 19.6467 7.68001 19.7866 7.56668 19.9C7.28001 20.1866 6.96668 20.3067 6.63334 20.2467C6.30001 20.1933 6.06668 19.9733 5.93334 19.6Z" fill="#25CBDB"/>
<path opacity="0.5" d="M15.2334 29.9666L11.6 26.3666C11.4867 26.2533 11.4134 26.1466 11.3667 26.0333C11.32 25.92 11.3 25.8 11.3 25.6666C11.3 25.5333 11.32 25.4133 11.3667 25.3C11.4134 25.1866 11.4867 25.08 11.6 24.9666L15.2334 21.3333C15.4134 21.1533 15.6267 21.0666 15.8867 21.0666C16.1467 21.0666 16.36 21.1533 16.54 21.3333C16.72 21.5133 16.8067 21.7266 16.8067 21.98C16.8067 22.2333 16.72 22.4533 16.54 22.6266L14.5067 24.66H16.0067C18.3867 24.66 20.42 23.8066 22.12 22.1066C23.82 20.4066 24.6733 18.3666 24.6733 15.9933C24.6733 15.46 24.6334 14.94 24.56 14.44C24.48 13.94 24.3667 13.4666 24.2067 13.0266C24.16 12.8733 24.16 12.7066 24.1867 12.54C24.22 12.3733 24.2934 12.2333 24.4067 12.1266C24.6934 11.84 25.0067 11.72 25.34 11.78C25.6733 11.8333 25.9067 12.0533 26.04 12.4333C26.26 13.0133 26.4267 13.6 26.52 14.2C26.62 14.8 26.6667 15.4 26.6667 16C26.6667 18.9133 25.62 21.42 23.52 23.5133C21.42 25.6133 18.9134 26.66 16.0067 26.66H14.5067L16.54 28.6933C16.72 28.8733 16.8067 29.08 16.8067 29.3266C16.8067 29.5733 16.72 29.78 16.54 29.96C16.36 30.14 16.1467 30.2266 15.8867 30.2266C15.6334 30.2266 15.4134 30.14 15.24 29.96L15.2334 29.9666Z" fill="#25CBDB"/>
</svg>
