<svg width="32" height="32" viewBox="0 0 32 32" fill="none" xmlns="http://www.w3.org/2000/svg">
<path opacity="0.85" fill-rule="evenodd" clip-rule="evenodd" d="M28.0734 7.49999L16.7401 2.96666C16.2601 2.77332 15.7334 2.77332 15.2534 2.96666L3.92675 7.49999C3.16675 7.80666 2.66675 8.53999 2.66675 9.35999V9.67332C2.66675 10.2267 3.11341 10.6733 3.66675 10.6733H6.00006V26H3.66675C3.11446 26 2.66675 26.4477 2.66675 27C2.66675 27.5523 3.11446 28 3.66675 28H28.3334C28.8857 28 29.3334 27.5523 29.3334 27C29.3334 26.4477 28.8857 26 28.3334 26H26.0001V10.6733H28.3334C28.8867 10.6733 29.3334 10.2267 29.3334 9.67332V9.35999C29.3334 8.53999 28.8334 7.80666 28.0734 7.49999ZM23.3334 26V10.6733H17.3334V26H23.3334ZM14.6667 26V10.6733H8.66673V26H14.6667Z" fill="#25CBDB"/>
<path d="M8.00008 12.6666H6.66675C5.56008 12.6666 4.66675 11.7733 4.66675 10.6666H10.0001C10.0001 11.7733 9.10675 12.6666 8.00008 12.6666Z" fill="#25CBDB"/>
<path d="M16.6667 12.6666H15.3334C14.2267 12.6666 13.3334 11.7733 13.3334 10.6666H18.6667C18.6667 11.7733 17.7734 12.6666 16.6667 12.6666Z" fill="#25CBDB"/>
<path d="M6.66675 24H8.00008C9.10675 24 10.0001 24.8933 10.0001 26H4.66675C4.66675 24.8933 5.56008 24 6.66675 24Z" fill="#25CBDB"/>
<path d="M15.3334 24H16.6667C17.7734 24 18.6667 24.8933 18.6667 26H13.3334C13.3334 24.8933 14.2267 24 15.3334 24Z" fill="#25CBDB"/>
<path d="M22.0001 10.6667H27.3334C27.3334 11.7733 26.4401 12.6667 25.3334 12.6667H24.0001C22.8934 12.6667 22.0001 11.7733 22.0001 10.6667Z" fill="#25CBDB"/>
<path d="M24.0001 24H25.3334C26.4401 24 27.3334 24.8933 27.3334 26H22.0001C22.0001 24.8933 22.8934 24 24.0001 24Z" fill="#25CBDB"/>
</svg>
