<svg width="32" height="32" viewBox="0 0 32 32" fill="none" xmlns="http://www.w3.org/2000/svg">
<path opacity="0.32" d="M16 29.2333C15.9133 29.2333 15.8267 29.2333 15.7467 29.2133C15.6667 29.1933 15.5933 29.1867 15.5267 29.16C12.5467 28.2733 10.1067 26.44 8.19333 23.6733C6.27999 20.9067 5.32666 17.8667 5.32666 14.56V8.03333C5.32666 7.61333 5.44666 7.22666 5.69333 6.88C5.93999 6.53333 6.24666 6.28666 6.62666 6.13333L15.2933 2.9C15.54 2.81333 15.7733 2.76666 15.9933 2.76666C16.2133 2.76666 16.4467 2.81333 16.6933 2.9L25.36 6.13333C25.74 6.28666 26.0467 6.54 26.2933 6.88C26.54 7.22666 26.66 7.60666 26.66 8.03333V14.5667C26.66 17.88 25.7067 20.9133 23.7933 23.6867C21.88 26.4533 19.44 28.28 16.46 29.1667L15.9933 29.2333H16Z" fill="#25CBDB"/>
<path d="M24.62 7.9933L16 4.77997C16 4.77997 15.9866 4.77997 15.98 4.77997L7.37998 7.98663C7.37998 7.98663 7.35331 8.00664 7.33331 8.03997V14.5666C7.33331 17.4866 8.15998 20.1 9.84665 22.5466C11.48 24.9133 13.4933 26.44 15.9866 27.2133H16.0266C18.5133 26.4333 20.52 24.9066 22.1466 22.5466C23.84 20.1 24.66 17.4866 24.66 14.5666V8.03997C24.66 8.03997 24.6266 7.99997 24.6133 7.9933H24.62ZM20.38 15.56C20.12 16.04 19.7733 16.54 19.34 17.06C18.9066 17.5733 18.4 18.1066 17.82 18.6466C17.24 19.1866 16.6333 19.7466 16 20.32C15.36 19.7466 14.7533 19.1933 14.18 18.6466C13.6 18.1066 13.1 17.5733 12.66 17.06C12.2266 16.5466 11.88 16.0466 11.62 15.56C11.36 15.08 11.2333 14.6133 11.2333 14.1666C11.2333 13.46 11.4733 12.8733 11.9466 12.3933C12.42 11.9133 13.0133 11.68 13.72 11.68C14.1266 11.68 14.5333 11.7933 14.9333 12.0133C15.3333 12.24 15.6933 12.54 16 12.92C16.3133 12.54 16.6666 12.24 17.0666 12.0133C17.4666 11.7866 17.8733 11.68 18.28 11.68C18.9866 11.68 19.5733 11.92 20.0533 12.3933C20.5333 12.8666 20.7666 13.46 20.7666 14.1666C20.7666 14.6133 20.64 15.08 20.38 15.56V15.56Z" fill="#25CBDB"/>
</svg>
