<svg width="32" height="32" viewBox="0 0 32 32" fill="none" xmlns="http://www.w3.org/2000/svg">
<g opacity="0.85">
<path d="M9.33325 20.9333V6.26665C9.33325 6.01998 9.40658 5.81332 9.55992 5.63332C9.70658 5.45998 9.89325 5.34665 10.1266 5.29332C10.1999 5.27998 10.2733 5.27332 10.3399 5.27332C10.5666 5.27332 10.7799 5.34665 10.9666 5.49998C11.2133 5.69332 11.3333 5.95332 11.3333 6.26665V20.9333C11.3333 21.18 11.2599 21.3866 11.1066 21.5666C10.9599 21.74 10.7733 21.8533 10.5399 21.9067C10.2266 21.9667 9.94658 21.9 9.69992 21.7C9.45325 21.5066 9.33325 21.2466 9.33325 20.9333Z" fill="currentColor"/>
<path d="M26.6666 7.23332V27.3333H8.99992C8.55325 27.3333 8.16659 27.2 7.83325 26.9333C7.49992 26.6666 7.33325 26.32 7.33325 25.9C7.33325 25.5333 7.45992 25.1933 7.71325 24.8866C7.96659 24.58 8.28659 24.38 8.66659 24.3L19.0999 22.0666C19.5666 21.9533 19.9466 21.72 20.2333 21.3533C20.5199 20.9866 20.6666 20.5733 20.6666 20.1V5.27332H24.7066C25.7866 5.27332 26.6666 6.15332 26.6666 7.23332Z" fill="currentColor"/>
</g>
<path opacity="0.32" d="M8.99992 27.3333C8.55325 27.3333 8.16659 27.2 7.83325 26.9333C7.49992 26.6666 7.33325 26.32 7.33325 25.9C7.33325 25.5333 7.45992 25.1933 7.71325 24.8866C7.96659 24.58 8.28659 24.38 8.66659 24.3L19.0999 22.0666C19.5666 21.9533 19.9466 21.72 20.2333 21.3533C20.5199 20.9866 20.6666 20.5733 20.6666 20.1V3.53329C20.6666 2.89329 20.4199 2.37329 19.9333 1.97329C19.4466 1.56662 18.8866 1.43329 18.2666 1.56662L7.99992 3.69995C7.20659 3.87329 6.55992 4.27995 6.07325 4.91995C5.57992 5.55995 5.33325 6.28662 5.33325 7.09995V25.7466V25.9C5.33325 26.8733 5.69325 27.6866 6.41992 28.3466C6.61325 28.52 6.81325 28.6666 7.02659 28.7933C7.17325 28.8866 7.33325 28.9666 7.49325 29.04C7.55992 29.0733 7.63325 29.1 7.70659 29.12C7.77992 29.1533 7.85325 29.1733 7.93325 29.1933C8.26659 29.2866 8.62659 29.3333 8.99992 29.3333H24.7466C24.7999 29.3333 24.8533 29.3266 24.9066 29.32C25.0266 29.3066 25.1399 29.2866 25.2533 29.2533C25.5599 29.16 25.8333 28.9933 26.0799 28.7466C26.3266 28.5 26.4933 28.2266 26.5866 27.92C26.6199 27.8066 26.6399 27.6933 26.6533 27.5733C26.6599 27.52 26.6666 27.4666 26.6666 27.4133V27.3333H8.99992ZM9.33325 6.26662C9.33325 6.01995 9.40659 5.81329 9.55992 5.63329C9.70659 5.45995 9.89325 5.34662 10.1266 5.29329C10.1999 5.27995 10.2733 5.27329 10.3399 5.27329C10.5666 5.27329 10.7799 5.34662 10.9666 5.49995C11.2133 5.69329 11.3333 5.95329 11.3333 6.26662V20.9333C11.3333 21.18 11.2599 21.3866 11.1066 21.5666C10.9599 21.74 10.7733 21.8533 10.5399 21.9066C10.2266 21.9666 9.94659 21.9 9.69992 21.7C9.45325 21.5066 9.33325 21.2466 9.33325 20.9333V6.26662Z" fill="currentColor"/>
</svg>
