<svg width="32" height="32" viewBox="0 0 32 32" fill="none" xmlns="http://www.w3.org/2000/svg">
<path opacity="0.52" d="M10.4667 26H24.8V22.6667H10.4667C9.54669 22.6667 8.80002 23.4134 8.80002 24.3334C8.80002 25.2534 9.54669 26 10.4667 26Z" fill="#25CBDB"/>
<path d="M22.8 26H10.5733C9.70001 26 8.90667 25.3734 8.82001 24.5067C8.72001 23.5067 9.50001 22.6667 10.48 22.6667H25.1333C26.0533 22.6667 26.8 21.92 26.8 21V4.33335C26.8 3.41335 26.0533 2.66669 25.1333 2.66669H9.46667C7.26001 2.66669 5.46667 4.46002 5.46667 6.66669V25.3334C5.46667 27.54 7.26001 29.3334 9.46667 29.3334H25.1333C26.0533 29.3334 26.8 28.5867 26.8 27.6667C26.8 26.7467 26.0533 26 25.1333 26H22.8ZM10.8 10.6667H21.4667V12H10.8V10.6667ZM10.8 13.3334H21.4667V14.6667H10.8V13.3334Z" fill="#25CBDB"/>
</svg>
