<svg width="32" height="32" viewBox="0 0 32 32" fill="none" xmlns="http://www.w3.org/2000/svg">
<path opacity="0.52" d="M19.5667 13.5C19.68 12.9867 19.7333 12.4667 19.7333 11.9333C19.7333 9.73333 18.96 7.86 17.4133 6.32C15.8667 4.77333 14 4 11.8 4C11.1333 4 10.48 4.09333 9.83333 4.28667C9.18666 4.47333 8.57999 4.73333 7.99999 5.06667L12.9667 10.0333L9.89999 12.9L5.06666 8.06667C4.73333 8.64667 4.47999 9.26 4.29999 9.91333C4.11999 10.5667 4.03333 11.24 4.03333 11.9267C4.03333 14.08 4.78666 15.9133 6.29999 17.4133C7.81333 18.9133 9.64666 19.6667 11.8 19.6667C12.3333 19.6667 12.8533 19.6133 13.3667 19.5C13.88 19.3867 14.3867 19.2467 14.9 19.0667L19.1333 15.0333C19.3133 14.52 19.4533 14.0133 19.5667 13.5Z" fill="#25CBDB"/>
<path opacity="0.85" d="M27.7667 23.6334L19.1334 15.0334L14.9 19.0668L23.5 27.7334C23.7467 27.9801 24.0334 28.1001 24.3667 28.1001C24.7 28.1001 24.9867 27.9801 25.2334 27.7334L27.7667 25.4001C28.0134 25.1534 28.1334 24.8601 28.1334 24.5134C28.1334 24.1668 28.0134 23.8734 27.7667 23.6334Z" fill="#25CBDB"/>
</svg>
