<svg width="32" height="32" viewBox="0 0 32 32" fill="none" xmlns="http://www.w3.org/2000/svg">
<path opacity="0.85" d="M27.4 4.6C27 4.2 26.5333 4 26 4H6C5.46667 4 5 4.2 4.6 4.6C4.2 5 4 5.46667 4 6V26C4 26.5333 4.2 27 4.6 27.4C5 27.8 5.46667 28 6 28H26C26.5333 28 27 27.8 27.4 27.4C27.8 27 28 26.5333 28 26V6C28 5.46667 27.8 5 27.4 4.6ZM18.2667 9.56667C18.0867 9.38667 18 9.18667 18 8.96667C18 8.74667 18.0867 8.54667 18.2667 8.36667C18.4467 8.18667 18.6467 8.1 18.8667 8.1C19.0867 8.1 19.28 8.18 19.4333 8.33333L20.9 9.8L22.3333 8.36667C22.5133 8.18667 22.7133 8.1 22.9333 8.1C23.1533 8.1 23.3533 8.18667 23.5333 8.36667C23.7133 8.54667 23.8 8.74667 23.8 8.96667C23.8 9.18667 23.72 9.38 23.5667 9.53333L22.1 11L23.5333 12.4333C23.7133 12.6133 23.8 12.8133 23.8 13.0333C23.8 13.2533 23.7133 13.4533 23.5333 13.6333C23.3533 13.8133 23.1533 13.9 22.9333 13.9C22.7133 13.9 22.52 13.82 22.3667 13.6667L20.9 12.2L19.4667 13.6333C19.2867 13.8133 19.0867 13.9 18.8667 13.9C18.6467 13.9 18.4467 13.8133 18.2667 13.6333C18.0867 13.4533 18 13.2533 18 13.0333C18 12.8133 18.08 12.62 18.2333 12.4667L19.7 11L18.2667 9.56667ZM8.26667 10.4C8.42 10.2467 8.62 10.1667 8.86667 10.1667H13.7333C13.98 10.1667 14.18 10.2467 14.3333 10.4C14.4867 10.5533 14.5667 10.7533 14.5667 11C14.5667 11.2467 14.4867 11.4467 14.3333 11.6C14.18 11.7533 13.98 11.8333 13.7333 11.8333H8.86667C8.62 11.8333 8.42 11.7533 8.26667 11.6C8.11333 11.4467 8.03333 11.2467 8.03333 11C8.03333 10.7533 8.11333 10.5533 8.26667 10.4ZM14.8333 21.2333C14.68 21.3867 14.48 21.4667 14.2333 21.4667H12.1333V23.5667C12.1333 23.8133 12.0533 24.0133 11.9 24.1667C11.7467 24.32 11.5467 24.4 11.3 24.4C11.0533 24.4 10.8533 24.32 10.7 24.1667C10.5467 24.0133 10.4667 23.8133 10.4667 23.5667V21.4667H8.36667C8.12 21.4667 7.92 21.3867 7.76667 21.2333C7.61333 21.08 7.53333 20.88 7.53333 20.6333C7.53333 20.3867 7.61333 20.1867 7.76667 20.0333C7.92 19.88 8.12 19.8 8.36667 19.8H10.4667V17.7C10.4667 17.4533 10.5467 17.2533 10.7 17.1C10.8533 16.9467 11.0533 16.8667 11.3 16.8667C11.5467 16.8667 11.7467 16.9467 11.9 17.1C12.0533 17.2533 12.1333 17.4533 12.1333 17.7V19.8H14.2333C14.48 19.8 14.68 19.88 14.8333 20.0333C14.9867 20.1867 15.0667 20.3867 15.0667 20.6333C15.0667 20.88 14.9867 21.08 14.8333 21.2333ZM24.1 23C23.9467 23.1533 23.7467 23.2333 23.5 23.2333H18.4667C18.22 23.2333 18.02 23.1533 17.8667 23C17.7133 22.8467 17.6333 22.6467 17.6333 22.4C17.6333 22.18 17.7133 21.9867 17.8667 21.8333C18.02 21.68 18.22 21.6 18.4667 21.6H23.5C23.7467 21.6 23.9467 21.68 24.1 21.8333C24.2533 21.9867 24.3333 22.18 24.3333 22.4C24.3333 22.6467 24.2533 22.8467 24.1 23ZM24.1 19.4333C23.9467 19.5867 23.7467 19.6667 23.5 19.6667H18.4667C18.22 19.6667 18.02 19.5867 17.8667 19.4333C17.7133 19.28 17.6333 19.08 17.6333 18.8333C17.6333 18.5867 17.7133 18.3867 17.8667 18.2333C18.02 18.08 18.22 18 18.4667 18H23.5C23.7467 18 23.9467 18.08 24.1 18.2333C24.2533 18.3867 24.3333 18.5867 24.3333 18.8333C24.3333 19.08 24.2533 19.28 24.1 19.4333Z" fill="#25CBDB"/>
<g opacity="0.2">
<path d="M8.86666 11.8333H13.7333C13.98 11.8333 14.18 11.7533 14.3333 11.6C14.4867 11.4467 14.5667 11.2467 14.5667 11C14.5667 10.7533 14.4867 10.5533 14.3333 10.4C14.18 10.2467 13.98 10.1667 13.7333 10.1667H8.86666C8.61999 10.1667 8.41999 10.2467 8.26666 10.4C8.11333 10.5533 8.03333 10.7533 8.03333 11C8.03333 11.2467 8.11333 11.4467 8.26666 11.6C8.41999 11.7533 8.61999 11.8333 8.86666 11.8333Z" fill="#25CBDB"/>
<path d="M23.5 21.6H18.4667C18.22 21.6 18.02 21.68 17.8667 21.8333C17.7133 21.9867 17.6333 22.18 17.6333 22.4C17.6333 22.6467 17.7133 22.8467 17.8667 23C18.02 23.1533 18.22 23.2333 18.4667 23.2333H23.5C23.7467 23.2333 23.9467 23.1533 24.1 23C24.2533 22.8467 24.3333 22.6467 24.3333 22.4C24.3333 22.18 24.2533 21.9867 24.1 21.8333C23.9467 21.68 23.7467 21.6 23.5 21.6Z" fill="#25CBDB"/>
<path d="M18.4667 19.6667H23.5C23.7467 19.6667 23.9467 19.5867 24.1 19.4333C24.2533 19.28 24.3333 19.08 24.3333 18.8333C24.3333 18.5867 24.2533 18.3867 24.1 18.2333C23.9467 18.08 23.7467 18 23.5 18H18.4667C18.22 18 18.02 18.08 17.8667 18.2333C17.7133 18.3867 17.6333 18.5867 17.6333 18.8333C17.6333 19.08 17.7133 19.28 17.8667 19.4333C18.02 19.5867 18.22 19.6667 18.4667 19.6667Z" fill="#25CBDB"/>
<path d="M14.2333 19.8H12.1333V17.7C12.1333 17.4533 12.0533 17.2533 11.9 17.1C11.7467 16.9467 11.5467 16.8667 11.3 16.8667C11.0533 16.8667 10.8533 16.9467 10.7 17.1C10.5467 17.2533 10.4667 17.4533 10.4667 17.7V19.8H8.36666C8.11999 19.8 7.91999 19.88 7.76666 20.0333C7.61332 20.1867 7.53333 20.3867 7.53333 20.6333C7.53333 20.88 7.61332 21.08 7.76666 21.2333C7.91999 21.3867 8.11999 21.4667 8.36666 21.4667H10.4667V23.5667C10.4667 23.8133 10.5467 24.0133 10.7 24.1667C10.8533 24.32 11.0533 24.4 11.3 24.4C11.5467 24.4 11.7467 24.32 11.9 24.1667C12.0533 24.0133 12.1333 23.8133 12.1333 23.5667V21.4667H14.2333C14.48 21.4667 14.68 21.3867 14.8333 21.2333C14.9867 21.08 15.0667 20.88 15.0667 20.6333C15.0667 20.3867 14.9867 20.1867 14.8333 20.0333C14.68 19.88 14.48 19.8 14.2333 19.8Z" fill="#25CBDB"/>
<path d="M18 13.0333C18 13.2533 18.0867 13.4533 18.2667 13.6333C18.4467 13.8133 18.6467 13.9 18.8667 13.9C19.0867 13.9 19.2867 13.8133 19.4667 13.6333L20.9 12.2L22.3667 13.6667C22.52 13.82 22.7133 13.9 22.9333 13.9C23.1533 13.9 23.3533 13.8133 23.5333 13.6333C23.7133 13.4533 23.8 13.2533 23.8 13.0333C23.8 12.8133 23.7133 12.6133 23.5333 12.4333L22.1 11L23.5667 9.53334C23.72 9.38001 23.8 9.18667 23.8 8.96667C23.8 8.74667 23.7133 8.54667 23.5333 8.36667C23.3533 8.18667 23.1533 8.10001 22.9333 8.10001C22.7133 8.10001 22.5133 8.18667 22.3333 8.36667L20.9 9.80001L19.4333 8.33334C19.28 8.18001 19.0867 8.10001 18.8667 8.10001C18.6467 8.10001 18.4467 8.18667 18.2667 8.36667C18.0867 8.54667 18 8.74667 18 8.96667C18 9.18667 18.0867 9.38667 18.2667 9.56667L19.7 11L18.2333 12.4667C18.08 12.62 18 12.8133 18 13.0333Z" fill="#25CBDB"/>
</g>
</svg>
