<svg width="32" height="32" viewBox="0 0 32 32" fill="none" xmlns="http://www.w3.org/2000/svg">
<path d="M26.5001 28C23.9201 28 21.2934 27.38 18.6134 26.1333C15.9334 24.8867 13.4534 23.12 11.1601 20.8333C8.86674 18.5467 7.10674 16.06 5.86007 13.38C4.61341 10.7 3.99341 8.07335 3.99341 5.49335C3.99341 5.07335 4.14007 4.71335 4.42674 4.42668C4.71341 4.14001 5.07341 3.99335 5.49341 3.99335H10.1601C10.4734 3.99335 10.7401 4.10668 10.9601 4.32668C11.1801 4.54668 11.3401 4.82668 11.4267 5.16001L12.3267 9.36001C12.3734 9.67335 12.3667 9.95335 12.3067 10.2133C12.2467 10.4733 12.1334 10.6867 11.9534 10.8667L8.62008 14.2333C9.20008 15.2133 9.80674 16.12 10.4534 16.9667C11.1001 17.8133 11.8067 18.6133 12.5867 19.3667C13.4067 20.2133 14.2734 20.9867 15.1867 21.6867C16.1001 22.3867 17.0534 23.0067 18.0534 23.54L21.2201 20.2733C21.4401 20.0267 21.7001 19.86 21.9867 19.7733C22.2734 19.6867 22.5667 19.66 22.8534 19.7067L26.8201 20.5733C27.1534 20.66 27.4334 20.84 27.6534 21.1067C27.8734 21.3733 27.9867 21.6733 27.9867 22.0067V26.5067C27.9867 26.9267 27.8401 27.2867 27.5534 27.5733C27.2667 27.86 26.9067 28.0067 26.4867 28.0067L26.5001 28Z" fill="currentColor"/>
<path opacity="0.85" d="M25.5666 8.63334H18.5333C18.2466 8.63334 18.0066 8.54001 17.8133 8.34668C17.6199 8.15335 17.5266 7.92001 17.5266 7.62668C17.5266 7.33334 17.6199 7.10001 17.8133 6.90668C18.0066 6.71334 18.2399 6.62001 18.5333 6.62001H25.5666L23.6999 4.75334C23.4999 4.55334 23.4066 4.32001 23.4133 4.05334C23.4199 3.78668 23.5333 3.55334 23.7333 3.35334C23.9333 3.15334 24.1666 3.05334 24.4333 3.05334C24.6999 3.05334 24.9333 3.15334 25.1333 3.35334L28.6999 6.92001C28.8999 7.12001 28.9999 7.35334 28.9999 7.62001C28.9999 7.88668 28.8999 8.12001 28.6999 8.32001L25.0333 11.9533C24.8333 12.1533 24.5866 12.2533 24.2999 12.2533C24.0133 12.2533 23.7799 12.14 23.5999 11.92C23.4199 11.72 23.3399 11.4867 23.3466 11.22C23.3533 10.9533 23.4533 10.7333 23.6333 10.5533L25.5666 8.62001V8.63334Z" fill="currentColor"/>
</svg>
