<svg width="32" height="32" viewBox="0 0 32 32" fill="none" xmlns="http://www.w3.org/2000/svg">
<path opacity="0.85" d="M22.6599 14C22.3732 14 22.1399 13.9067 21.9466 13.7133C21.7599 13.52 21.6599 13.28 21.6599 12.9933C21.6599 12.7067 21.7532 12.4733 21.9466 12.28C22.1399 12.0933 22.3799 11.9933 22.6666 11.9933C22.9532 11.9933 23.1866 12.0867 23.3799 12.28C23.5666 12.4733 23.6666 12.7133 23.6666 13C23.6666 13.2867 23.5732 13.52 23.3799 13.7133C23.1866 13.9 22.9466 14 22.6599 14Z" fill="currentColor"/>
<path opacity="0.52" d="M22.6602 9.33317C22.3735 9.33317 22.1402 9.23984 21.9468 9.0465C21.7602 8.85317 21.6602 8.61984 21.6602 8.33317V3.6665C21.6602 3.37984 21.7535 3.1465 21.9468 2.95317C22.1402 2.75984 22.3802 2.6665 22.6668 2.6665C22.9535 2.6665 23.1868 2.75984 23.3802 2.95317C23.5668 3.1465 23.6668 3.37984 23.6668 3.6665V8.33317C23.6668 8.61984 23.5735 8.85317 23.3802 9.0465C23.1868 9.23984 22.9468 9.33317 22.6602 9.33317Z" fill="currentColor"/>
<path d="M26.5067 28.0033C23.9267 28.0033 21.3 27.3833 18.62 26.1366C15.94 24.89 13.46 23.1233 11.1667 20.8366C8.87333 18.55 7.11333 16.0633 5.86667 13.3833C4.62 10.7033 4 8.07664 4 5.49664C4 5.06998 4.14 4.70998 4.42667 4.42331C4.71333 4.13664 5.06667 3.99664 5.5 3.99664H10.1667C10.48 3.99664 10.7467 4.10998 10.9667 4.32998C11.1867 4.54998 11.3467 4.82998 11.4333 5.16331L12.3333 9.34998C12.38 9.66998 12.3733 9.95664 12.32 10.21C12.2667 10.4633 12.1467 10.6833 11.96 10.87L8.63333 14.23C9.21333 15.21 9.82 16.1166 10.4667 16.9633C11.1133 17.81 11.82 18.61 12.6 19.3633C13.42 20.21 14.2867 20.9833 15.2 21.6833C16.1133 22.3833 17.0667 23.0033 18.0667 23.5366L21.2333 20.27C21.4533 20.0233 21.7133 19.8566 22.0067 19.77C22.3 19.6833 22.5867 19.6566 22.8667 19.7033L26.8333 20.57C27.1667 20.6566 27.4467 20.8366 27.6667 21.1033C27.8867 21.37 28 21.67 28 22.0033V26.5033C28 26.93 27.86 27.29 27.5733 27.5766C27.2867 27.8633 26.9333 28.0033 26.5 28.0033H26.5067Z" fill="currentColor"/>
</svg>
