<svg width="32" height="32" viewBox="0 0 32 32" fill="none" xmlns="http://www.w3.org/2000/svg">
<path opacity="0.85" d="M16.0001 17.8667L19.8667 21.7334C20.1112 21.9778 20.4223 22.1 20.8001 22.1C21.1779 22.1 21.489 21.9778 21.7334 21.7334C21.9779 21.4889 22.1001 21.1778 22.1001 20.8C22.1001 20.4222 21.9779 20.1111 21.7334 19.8667L17.8667 16L21.7334 12.1334C21.9779 11.8889 22.1001 11.5778 22.1001 11.2C22.1001 10.8222 21.9779 10.5111 21.7334 10.2667C21.489 10.0222 21.1779 9.90002 20.8001 9.90002C20.4223 9.90002 20.1112 10.0222 19.8667 10.2667L16.0001 14.1334L12.1334 10.2667C11.889 10.0222 11.5779 9.90002 11.2001 9.90002C10.8223 9.90002 10.5112 10.0222 10.2667 10.2667C10.0223 10.5111 9.90008 10.8222 9.90008 11.2C9.90008 11.5778 10.0223 11.8889 10.2667 12.1334L14.1334 16L10.2667 19.8667C10.0223 20.1111 9.90008 20.4222 9.90008 20.8C9.90008 21.1778 10.0223 21.4889 10.2667 21.7334C10.5112 21.9778 10.8223 22.1 11.2001 22.1C11.5779 22.1 11.889 21.9778 12.1334 21.7334L16.0001 17.8667ZM16.0001 29.3334C14.1556 29.3334 12.4223 28.9834 10.8001 28.2834C9.17786 27.5834 7.76675 26.6334 6.56675 25.4334C5.36675 24.2334 4.41675 22.8222 3.71675 21.2C3.01675 19.5778 2.66675 17.8445 2.66675 16C2.66675 14.1556 3.01675 12.4222 3.71675 10.8C4.41675 9.1778 5.36675 7.76669 6.56675 6.56669C7.76675 5.36669 9.17786 4.41669 10.8001 3.71669C12.4223 3.01669 14.1556 2.66669 16.0001 2.66669C17.8445 2.66669 19.5779 3.01669 21.2001 3.71669C22.8223 4.41669 24.2334 5.36669 25.4334 6.56669C26.6334 7.76669 27.5834 9.1778 28.2834 10.8C28.9834 12.4222 29.3334 14.1556 29.3334 16C29.3334 17.8445 28.9834 19.5778 28.2834 21.2C27.5834 22.8222 26.6334 24.2334 25.4334 25.4334C24.2334 26.6334 22.8223 27.5834 21.2001 28.2834C19.5779 28.9834 17.8445 29.3334 16.0001 29.3334Z" fill="#25CBDB"/>
<path opacity="0.2" fill-rule="evenodd" clip-rule="evenodd" d="M19.8668 21.7334L16.0001 17.8667L12.1335 21.7334C11.889 21.9778 11.5779 22.1 11.2001 22.1C10.8224 22.1 10.5113 21.9778 10.2668 21.7334C10.0224 21.4889 9.90015 21.1778 9.90015 20.8C9.90015 20.4222 10.0224 20.1111 10.2668 19.8667L14.1335 16L10.2668 12.1334C10.0224 11.8889 9.90015 11.5778 9.90015 11.2C9.90015 10.8222 10.0224 10.5111 10.2668 10.2667C10.5113 10.0222 10.8224 9.90002 11.2001 9.90002C11.5779 9.90002 11.889 10.0222 12.1335 10.2667L16.0001 14.1334L19.8668 10.2667C20.1113 10.0222 20.4224 9.90002 20.8001 9.90002C21.1779 9.90002 21.489 10.0222 21.7335 10.2667C21.9779 10.5111 22.1001 10.8222 22.1001 11.2C22.1001 11.5778 21.9779 11.8889 21.7335 12.1334L17.8668 16L21.7335 19.8667C21.9779 20.1111 22.1001 20.4222 22.1001 20.8C22.1001 21.1778 21.9779 21.4889 21.7335 21.7334C21.489 21.9778 21.1779 22.1 20.8001 22.1C20.4224 22.1 20.1113 21.9778 19.8668 21.7334Z" fill="#25CBDB"/>
</svg>
