<svg width="32" height="32" viewBox="0 0 32 32" fill="none" xmlns="http://www.w3.org/2000/svg">
<path opacity="0.85" d="M5.39991 26.0667C5.06657 26.2 4.74657 26.1733 4.44657 25.98C4.14657 25.7867 3.99324 25.52 3.99324 25.16V19.2733C3.99324 18.8133 4.30657 18.4133 4.75324 18.3L11.4866 16.6267C12.1599 16.46 12.1599 15.5067 11.4866 15.3333L4.73991 13.6133C4.29991 13.5 3.98657 13.1 3.98657 12.6467V6.82668C3.98657 6.47335 4.13991 6.20002 4.43991 6.00668C4.73991 5.81335 5.05991 5.78668 5.39324 5.92002L27.1266 15.0533C27.5266 15.2333 27.7266 15.54 27.7266 15.9867C27.7266 16.4333 27.5266 16.74 27.1266 16.92L5.39324 26.0533L5.39991 26.0667Z" fill="currentColor"/>
<path d="M27.4867 18.5334C26.2534 17.2867 24.7601 16.6667 23.0001 16.6667C21.2401 16.6667 19.7467 17.2867 18.5201 18.5334C17.2867 19.7801 16.6667 21.2801 16.6667 23.0334C16.6667 24.7867 17.2801 26.2801 18.5201 27.5001C19.7534 28.7201 21.2467 29.3334 23.0001 29.3334C24.7534 29.3334 26.2534 28.7201 27.4867 27.5001C28.7201 26.2801 29.3334 24.7867 29.3334 23.0334C29.3334 21.2801 28.7201 19.7801 27.4867 18.5334ZM25.6667 24.9334C25.7801 25.0467 25.8334 25.1734 25.8334 25.3134C25.8334 25.4534 25.7801 25.5867 25.6667 25.7001C25.5534 25.8134 25.4267 25.8734 25.2801 25.8801C25.1334 25.8934 25.0067 25.8401 24.9001 25.7267L23.0001 23.8267L21.0667 25.7267C20.9534 25.8401 20.8267 25.8934 20.6801 25.8934C20.5334 25.8934 20.4067 25.8401 20.2934 25.7267C20.1801 25.6134 20.1267 25.4801 20.1267 25.3267C20.1267 25.1734 20.1801 25.0401 20.2934 24.9267L22.2267 22.9934L20.2934 21.0267C20.1801 20.9134 20.1267 20.7867 20.1267 20.6401C20.1267 20.4934 20.1801 20.3667 20.2934 20.2601C20.4067 20.1534 20.5267 20.0934 20.6601 20.0934C20.7934 20.0934 20.9134 20.1467 21.0267 20.2601L22.9934 22.2267L24.9601 20.2601C25.0734 20.1467 25.2001 20.0934 25.3467 20.0934C25.4934 20.0934 25.6201 20.1467 25.7334 20.2601C25.8467 20.3734 25.9001 20.5001 25.9001 20.6401C25.9001 20.7801 25.8467 20.9134 25.7334 21.0267L23.7334 23.0267L25.6667 24.9267V24.9334Z" fill="currentColor"/>
<path opacity="0.2" d="M23 23.8333L24.9 25.7333C25.0133 25.8467 25.14 25.8933 25.2866 25.8867C25.4333 25.88 25.56 25.8133 25.6733 25.7C25.7866 25.5867 25.84 25.46 25.84 25.3133C25.84 25.1667 25.7866 25.04 25.6733 24.9267L23.74 23.0267L25.74 21.0267C25.8533 20.9133 25.9066 20.7867 25.9066 20.64C25.9066 20.4933 25.8533 20.3667 25.74 20.2533C25.6266 20.14 25.5 20.0867 25.3533 20.0867C25.2066 20.0867 25.08 20.14 24.9666 20.2533L23 22.22L21.0333 20.2533C20.92 20.14 20.8 20.0867 20.6666 20.0867C20.5333 20.0867 20.4133 20.14 20.3 20.2533C20.1866 20.3667 20.1333 20.4933 20.1333 20.64C20.1333 20.7867 20.1866 20.9133 20.3 21.0267L22.2333 22.9933L20.3 24.9267C20.1866 25.04 20.1333 25.1733 20.1333 25.3267C20.1333 25.48 20.1866 25.6133 20.3 25.7267C20.4133 25.84 20.54 25.8933 20.6866 25.8933C20.8333 25.8933 20.96 25.84 21.0733 25.7267L23.0066 23.8267L23 23.8333Z" fill="currentColor"/>
</svg>
