<svg width="32" height="32" viewBox="0 0 32 32" fill="none" xmlns="http://www.w3.org/2000/svg">
<g clip-path="url(#clip0_4027_6538)">
<path d="M23.5667 14.6666V12.6666C23.5667 12.4066 23.62 12.1532 23.72 11.9066C23.82 11.6599 23.96 11.4466 24.1333 11.2666L25.5 9.86656C25.7467 9.61989 26.0333 9.51989 26.3667 9.56656C26.7 9.61322 26.9467 9.78656 27.1 10.0999L31.2333 17.8666C31.4133 18.1999 31.4 18.5266 31.2067 18.8532C31.0133 19.1799 30.72 19.3399 30.3333 19.3399H25.5667C25.0133 19.3399 24.5467 19.1466 24.1533 18.7532C23.76 18.3599 23.5667 17.8932 23.5667 17.3399V16.6732" fill="currentColor"/>
<path d="M19.5667 8.66667V14.6667H13V7H17.9C18.3733 7 18.7667 7.16 19.0867 7.48C19.4067 7.8 19.5667 8.19333 19.5667 8.66667Z" fill="currentColor"/>
<g opacity="0.52">
<path d="M23.5666 16.6667V14.6667H21.5333V8.66667C21.5333 7.64667 21.1799 6.78 20.4666 6.06667C19.7533 5.35333 18.8999 5 17.8999 5H11.9999C11.7199 5 11.4799 5.09333 11.2866 5.28667C11.0933 5.48 10.9999 5.71333 10.9999 6V23.7H15.7333C15.9799 24.48 16.4199 25.1133 17.0533 25.6C17.6866 26.0867 18.4133 26.3333 19.2333 26.3333C20.2533 26.3333 21.1199 25.98 21.8333 25.2667C22.5466 24.5533 22.8999 23.6867 22.8999 22.6667C22.8999 22.12 22.7866 21.6 22.5533 21.1067C22.3199 20.6133 21.9799 20.1933 21.5333 19.8333V16.6667H23.5666ZM12.9999 7H17.8999C18.3733 7 18.7666 7.16 19.0866 7.48C19.4066 7.8 19.5666 8.19333 19.5666 8.66667V14.6667H12.9999V7ZM17.0199 19.7467C16.3599 20.2467 15.9199 20.8867 15.6999 21.6667H12.9999V16.6667H19.5666V19H19.2333C18.4133 19 17.6733 19.2467 17.0199 19.7467ZM20.4199 23.8533C20.0933 24.1733 19.6999 24.3333 19.2266 24.3333C18.7533 24.3333 18.3599 24.1733 18.0466 23.8467C17.7266 23.5267 17.5666 23.1333 17.5666 22.66C17.5666 22.1867 17.7266 21.7933 18.0533 21.48C18.3733 21.16 18.7666 21 19.2399 21C19.7133 21 20.1066 21.16 20.4199 21.48C20.7399 21.8067 20.8999 22.2 20.8999 22.6733C20.8999 23.1467 20.7399 23.54 20.4199 23.8533Z" fill="currentColor"/>
<path d="M4.99992 19C2.97992 19 1.33325 20.6467 1.33325 22.6667C1.33325 23.0267 1.38659 23.3733 1.48659 23.7C1.92659 25.22 3.33992 26.3333 4.99992 26.3333C6.65992 26.3333 8.07325 25.22 8.51325 23.7C8.61325 23.3733 8.66659 23.0267 8.66659 22.6667C8.66659 20.6467 7.01992 19 4.99992 19ZM4.99992 24.3333C4.47325 24.3333 3.99992 24.0867 3.69325 23.7C3.46659 23.42 3.33325 23.06 3.33325 22.6667C3.33325 21.7467 4.07992 21 4.99992 21C5.91992 21 6.66659 21.7467 6.66659 22.6667C6.66659 23.06 6.53325 23.42 6.30659 23.7C5.99992 24.0867 5.52659 24.3333 4.99992 24.3333Z" fill="currentColor"/>
</g>
<g opacity="0.85">
<path d="M19.5666 16.6667V19.0001H19.2333C18.4133 19.0001 17.6733 19.2467 17.0199 19.7467C16.3599 20.2467 15.9199 20.8867 15.6999 21.6667H12.9999V16.6667H19.5666Z" fill="currentColor"/>
<path d="M10.9999 11.6667V23.7001H8.51325C8.61325 23.3734 8.66659 23.0267 8.66659 22.6667C8.66659 20.6467 7.01992 19.0001 4.99992 19.0001C2.97992 19.0001 1.33325 20.6467 1.33325 22.6667V13.6667C1.33325 12.5601 2.22659 11.6667 3.33325 11.6667H10.9999Z" fill="currentColor"/>
</g>
</g>
<defs>
<clipPath id="clip0_4027_6538">
<rect width="32" height="32" fill="white"/>
</clipPath>
</defs>
</svg>
