<svg width="32" height="32" viewBox="0 0 32 32" fill="none" xmlns="http://www.w3.org/2000/svg">
<path opacity="0.52" d="M27.0209 5.33337H16.3876C15.9342 5.33337 15.4942 5.48671 15.1409 5.77337L3.10758 15.4C2.62758 15.78 2.35425 16.3534 2.35425 16.9667V24.6667C2.35425 25.7734 3.24758 26.6667 4.35425 26.6667H27.0209C28.1276 26.6667 29.0209 25.7734 29.0209 24.6667V7.33337C29.0209 6.23337 28.1276 5.33337 27.0209 5.33337ZM26.3542 20.3467C26.2209 20.6267 25.9342 20.8267 25.6009 20.8267H23.2676C22.8076 20.8267 22.4342 20.4534 22.4342 19.9934C22.4342 19.5334 22.8076 19.16 23.2676 19.16H25.6009C25.9342 19.16 26.2209 19.36 26.3542 19.64C26.4076 19.7467 26.4342 19.8667 26.4342 19.9934C26.4342 20.12 26.4076 20.24 26.3542 20.3467Z" fill="#25CBDB"/>
<path opacity="0.85" d="M26.4341 19.9934C26.4341 20.12 26.4074 20.24 26.3541 20.3467C26.2207 20.6267 25.9341 20.8267 25.6007 20.8267H23.2674C22.8074 20.8267 22.4341 20.4534 22.4341 19.9934C22.4341 19.5334 22.8074 19.16 23.2674 19.16H25.6007C25.9341 19.16 26.2207 19.36 26.3541 19.64C26.4074 19.7467 26.4341 19.8667 26.4341 19.9934Z" fill="#25CBDB"/>
<path d="M26.3542 9V15.9733C26.3542 16.5267 25.9076 16.9733 25.3542 16.9733H9.07422C8.52089 16.9733 8.07422 16.5267 8.07422 15.9733V15.32C8.07422 15.02 8.21422 14.7267 8.44755 14.54L16.3476 8.22C16.5276 8.08 16.7476 8 16.9742 8H25.3542C25.9076 8 26.3542 8.44667 26.3542 9Z" fill="#25CBDB"/>
</svg>
