<svg width="32" height="32" viewBox="0 0 32 32" fill="none" xmlns="http://www.w3.org/2000/svg">
<path opacity="0.52" d="M28.293 16.6825C28.293 16.5758 28.2597 16.4692 28.213 16.3625L27.3997 13.9092C26.7997 14.1958 26.1663 14.3825 25.4797 14.4692L25.5463 14.6625H7.07965L8.91299 9.12915H18.3197C18.2797 8.80915 18.2463 8.48248 18.2463 8.14248C18.2463 7.80248 18.2797 7.45582 18.3263 7.12915H8.57965C8.25965 7.12915 7.96632 7.21582 7.70632 7.39582C7.44632 7.56915 7.25965 7.81582 7.14632 8.12915L4.41299 16.3625C4.36632 16.4692 4.33966 16.5758 4.33299 16.6825C4.31966 16.7892 4.31299 16.8892 4.31299 16.9958V27.1292C4.31299 27.4958 4.43965 27.8092 4.69965 28.0692C4.95299 28.3292 5.26632 28.4625 5.63965 28.4625C6.01299 28.4625 6.32632 28.3292 6.58632 28.0692C6.84632 27.8092 6.97966 27.4958 6.97966 27.1292V25.6625H25.6463V27.1292C25.6463 27.4958 25.773 27.8092 26.033 28.0692C26.2863 28.3292 26.5997 28.4625 26.973 28.4625C27.3463 28.4625 27.6597 28.3292 27.9197 28.0692C28.1797 27.8092 28.313 27.4958 28.313 27.1292V16.9958C28.313 16.8892 28.3063 16.7892 28.293 16.6825ZM11.133 21.4692C10.7863 21.8158 10.353 21.9958 9.83965 21.9958C9.32632 21.9958 8.88632 21.8225 8.51966 21.4758C8.15966 21.1358 7.97966 20.7025 7.97966 20.1892C7.97966 19.6758 8.15965 19.2292 8.52632 18.8692C8.88632 18.5092 9.32632 18.3292 9.84632 18.3292C10.3663 18.3292 10.773 18.5092 11.1197 18.8692C11.473 19.2358 11.6463 19.6758 11.6463 20.1958C11.6463 20.7158 11.473 21.1158 11.133 21.4692ZM24.1663 21.4692C23.8197 21.8158 23.3863 21.9958 22.873 21.9958C22.3597 21.9958 21.9197 21.8225 21.553 21.4758C21.193 21.1358 21.013 20.7025 21.013 20.1892C21.013 19.6758 21.193 19.2292 21.5597 18.8692C21.9197 18.5092 22.3597 18.3292 22.8797 18.3292C23.3997 18.3292 23.8063 18.5092 24.153 18.8692C24.5063 19.2358 24.6797 19.6758 24.6797 20.1958C24.6797 20.7158 24.5063 21.1158 24.1663 21.4692Z" fill="#25CBDB"/>
<g opacity="0.85">
<path d="M25.5463 14.6625H7.07959L8.91292 9.12915H18.3196C18.5129 10.4758 19.1063 11.6558 20.1129 12.6625C21.3596 13.9025 22.8596 14.5292 24.6196 14.5292C24.9129 14.5292 25.1996 14.5025 25.4796 14.4692L25.5463 14.6625Z" fill="#25CBDB"/>
<path d="M30.9797 8.16257C30.9797 6.38257 30.3664 4.8759 29.1264 3.64257C27.8997 2.40923 26.3931 1.7959 24.6131 1.7959C22.8331 1.7959 21.3597 2.4159 20.1131 3.66257C19.1131 4.6559 18.5264 5.8159 18.3264 7.12923H24.0464C24.0464 7.12923 24.0931 7.1359 24.1131 7.1359V4.9959C24.1131 4.8159 24.1664 4.66923 24.2597 4.56257C24.3664 4.44923 24.4997 4.3959 24.6797 4.3959C24.8597 4.3959 24.9998 4.44257 25.1131 4.54257C25.2264 4.64257 25.2797 4.78257 25.2797 4.96257V7.7559C25.3597 7.86923 25.4264 7.98923 25.4797 8.12923L27.3997 13.9092C28.0198 13.6092 28.5931 13.2026 29.1197 12.6759C30.3597 11.4426 30.9797 9.9359 30.9797 8.16257Z" fill="#25CBDB"/>
</g>
<path d="M11.6464 20.1959C11.6464 20.6959 11.4731 21.1159 11.1331 21.4692C10.7864 21.8159 10.3531 21.9959 9.83974 21.9959C9.3264 21.9959 8.8864 21.8226 8.51974 21.4759C8.15974 21.1359 7.97974 20.7026 7.97974 20.1892C7.97974 19.6759 8.15974 19.2292 8.5264 18.8692C8.8864 18.5092 9.3264 18.3292 9.8464 18.3292C10.3664 18.3292 10.7731 18.5092 11.1197 18.8692C11.4731 19.2359 11.6464 19.6759 11.6464 20.1959Z" fill="#25CBDB"/>
<path d="M24.6796 20.1959C24.6796 20.6959 24.5063 21.1159 24.1663 21.4692C23.8196 21.8159 23.3863 21.9959 22.8729 21.9959C22.3596 21.9959 21.9196 21.8226 21.5529 21.4759C21.1929 21.1359 21.0129 20.7026 21.0129 20.1892C21.0129 19.6759 21.1929 19.2292 21.5596 18.8692C21.9196 18.5092 22.3596 18.3292 22.8796 18.3292C23.3996 18.3292 23.8063 18.5092 24.1529 18.8692C24.5063 19.2359 24.6796 19.6759 24.6796 20.1959Z" fill="#25CBDB"/>
<path fill-rule="evenodd" clip-rule="evenodd" d="M24.6196 14.5292C24.9129 14.5292 25.1996 14.5025 25.4796 14.4692C26.1596 14.3825 26.7997 14.1958 27.393 13.9092L25.473 8.12915C25.4212 7.99306 25.3567 7.87586 25.2797 7.76532V7.75582H25.273L25.2797 7.76532V8.56248C25.2797 8.73582 25.233 8.88248 25.1263 8.99582C25.033 9.10248 24.893 9.16248 24.713 9.16248C24.533 9.16248 24.393 9.10915 24.2797 9.00915C24.1663 8.90915 24.113 8.76915 24.113 8.59582V7.13582C24.113 7.13582 24.0663 7.12915 24.0463 7.12915H18.3263C18.2797 7.45582 18.2463 7.79582 18.2463 8.14248C18.2463 8.48915 18.2796 8.80915 18.3196 9.12915C18.5129 10.4758 19.1062 11.6558 20.1129 12.6625C21.3596 13.9025 22.8596 14.5292 24.6196 14.5292ZM24.7131 10.5292C24.9064 10.5292 25.0797 10.5958 25.2264 10.7292C25.3731 10.8625 25.4464 11.0425 25.4464 11.2625C25.4464 11.4825 25.3731 11.6625 25.2331 11.7958C25.0864 11.9292 24.9064 11.9958 24.6997 11.9958C24.6931 11.9958 24.6864 11.9942 24.6797 11.9925C24.6731 11.9908 24.6664 11.9892 24.6597 11.9892C24.4664 11.9825 24.3064 11.9225 24.1797 11.7958C24.0464 11.6625 23.9797 11.4825 23.9797 11.2758C23.9797 11.0692 24.0397 10.8958 24.1664 10.7625C24.1778 10.7473 24.1935 10.7386 24.2086 10.7303C24.22 10.7239 24.2311 10.7178 24.2397 10.7092C24.3531 10.6158 24.5064 10.5492 24.7131 10.5292Z" fill="#25CBDB"/>
<g opacity="0.2">
<path d="M25.2264 10.7292C25.0797 10.5958 24.9064 10.5292 24.7131 10.5292C24.5064 10.5492 24.3531 10.6158 24.2397 10.7092C24.2197 10.7292 24.1864 10.7358 24.1664 10.7625C24.0397 10.8958 23.9797 11.0692 23.9797 11.2758C23.9797 11.4825 24.0464 11.6625 24.1797 11.7958C24.3064 11.9225 24.4664 11.9825 24.6597 11.9892C24.6731 11.9892 24.6864 11.9958 24.6997 11.9958C24.9064 11.9958 25.0864 11.9292 25.2331 11.7958C25.3731 11.6625 25.4464 11.4825 25.4464 11.2625C25.4464 11.0425 25.3731 10.8625 25.2264 10.7292Z" fill="#25CBDB"/>
<path d="M24.713 9.16254C24.893 9.16254 25.033 9.10254 25.1264 8.99587C25.233 8.88254 25.2797 8.73587 25.2797 8.56254V4.96254C25.2797 4.78254 25.2264 4.64254 25.113 4.54254C24.9997 4.44254 24.8597 4.39587 24.6797 4.39587C24.4997 4.39587 24.3664 4.44921 24.2597 4.56254C24.1664 4.66921 24.113 4.81587 24.113 4.99587V8.59587C24.113 8.76921 24.1664 8.90921 24.2797 9.00921C24.393 9.10921 24.533 9.16254 24.713 9.16254Z" fill="#25CBDB"/>
</g>
</svg>
