<svg width="32" height="32" viewBox="0 0 32 32" fill="none" xmlns="http://www.w3.org/2000/svg">
<path d="M2.34681 27.22L7.38014 13.22C7.49348 12.9333 7.66681 12.7067 7.90014 12.5533C8.13348 12.4 8.38681 12.32 8.65348 12.32C8.83348 12.32 9.00014 12.3533 9.15348 12.42C9.30681 12.4867 9.45348 12.5867 9.58681 12.72L18.5868 21.72C18.7201 21.8533 18.8201 22 18.8868 22.1533C18.9535 22.3067 18.9868 22.4733 18.9868 22.6533C18.9868 22.92 18.9068 23.1733 18.7535 23.4067C18.6001 23.64 18.3735 23.8133 18.0868 23.9267L4.08681 28.96C3.82014 29.0733 3.56681 29.0867 3.32014 29.0133C3.07348 28.94 2.86681 28.8067 2.68681 28.6267C2.50681 28.4467 2.38014 28.24 2.30014 27.9933C2.22014 27.7467 2.24014 27.4933 2.35348 27.2267L2.34681 27.22Z" fill="#25CBDB"/>
<path d="M29.4467 9.92C29.2467 10.12 29.0134 10.22 28.7467 10.22C28.4801 10.22 28.2467 10.12 28.0467 9.92L27.9467 9.82C27.6334 9.50667 27.2467 9.35333 26.7801 9.35333C26.3134 9.35333 25.9267 9.50667 25.6134 9.82L18.8467 16.5867C18.6467 16.7867 18.4134 16.8867 18.1467 16.8867C17.8801 16.8867 17.6467 16.7867 17.4467 16.5867C17.2467 16.3867 17.1467 16.1533 17.1467 15.8867C17.1467 15.62 17.2467 15.3867 17.4467 15.1867L24.2134 8.42C24.9267 7.70667 25.7801 7.35333 26.7801 7.35333C27.7801 7.35333 28.6334 7.70667 29.3467 8.42L29.4467 8.52C29.6467 8.72 29.7467 8.95333 29.7467 9.22C29.7467 9.48667 29.6467 9.72 29.4467 9.92Z" fill="#25CBDB"/>
<path d="M12.0468 5.91999C12.2468 5.71999 12.4802 5.62 12.7468 5.62C13.0135 5.62 13.2468 5.71999 13.4468 5.91999L13.6135 6.08666C14.3268 6.79999 14.6802 7.63999 14.6802 8.61999C14.6802 9.59999 14.3268 10.44 13.6135 11.1533L13.5135 11.2533C13.3135 11.4533 13.0802 11.5533 12.8135 11.5533C12.5468 11.5533 12.3135 11.4533 12.1135 11.2533C11.9135 11.0533 11.8135 10.82 11.8135 10.5533C11.8135 10.2867 11.9135 10.0533 12.1135 9.85333L12.2135 9.75333C12.5268 9.43999 12.6802 9.06666 12.6802 8.61999C12.6802 8.17333 12.5268 7.79999 12.2135 7.48666L12.0468 7.31999C11.8468 7.11999 11.7468 6.88666 11.7468 6.62C11.7468 6.35333 11.8468 6.11999 12.0468 5.91999Z" fill="#25CBDB"/>
<g opacity="0.52">
<path d="M17.4466 3.25331C17.6466 3.05331 17.88 2.95331 18.1466 2.95331C18.4133 2.95331 18.6466 3.05331 18.8466 3.25331L20.28 4.68664C20.9933 5.39998 21.3466 6.25331 21.3466 7.25331C21.3466 8.25331 20.9933 9.10664 20.28 9.81997L16.18 13.92C15.98 14.12 15.7466 14.22 15.48 14.22C15.2133 14.22 14.98 14.12 14.78 13.92C14.58 13.72 14.48 13.4866 14.48 13.22C14.48 12.9533 14.58 12.72 14.78 12.52L18.88 8.41998C19.1933 8.10664 19.3466 7.71997 19.3466 7.25331C19.3466 6.78664 19.1933 6.39998 18.88 6.08664L17.4466 4.65331C17.2466 4.45331 17.1466 4.21997 17.1466 3.95331C17.1466 3.68664 17.2466 3.45331 17.4466 3.25331Z" fill="#25CBDB"/>
<path d="M28.1132 19.2533C27.9132 19.4533 27.6799 19.5533 27.4132 19.5533C27.1466 19.5533 26.9132 19.4533 26.7132 19.2533L25.2799 17.82C24.9666 17.5067 24.5799 17.3533 24.1132 17.3533C23.6466 17.3533 23.2599 17.5067 22.9466 17.82L21.5132 19.2533C21.3132 19.4533 21.0799 19.5533 20.8132 19.5533C20.5466 19.5533 20.3132 19.4533 20.1132 19.2533C19.9132 19.0533 19.8132 18.82 19.8132 18.5533C19.8132 18.2867 19.9132 18.0533 20.1132 17.8533L21.5466 16.42C22.2599 15.7067 23.1132 15.3533 24.1132 15.3533C25.1132 15.3533 25.9666 15.7067 26.6799 16.42L28.1132 17.8533C28.3132 18.0533 28.4132 18.2867 28.4132 18.5533C28.4132 18.82 28.3132 19.0533 28.1132 19.2533Z" fill="#25CBDB"/>
</g>
</svg>
