<svg width="32" height="32" viewBox="0 0 32 32" fill="none" xmlns="http://www.w3.org/2000/svg">
<path opacity="0.32" d="M29.3333 7.42664C29.3333 6.31997 28.44 5.42664 27.3333 5.42664H4.66663C3.55996 5.42664 2.66663 6.31997 2.66663 7.42664V24.6666C2.66663 25.7733 3.55996 26.6666 4.66663 26.6666H27.3333C28.44 26.6666 29.3333 25.7733 29.3333 24.6666V7.42664Z" fill="#25CBDB"/>
<path opacity="0.52" d="M29.3333 7.42664C29.3333 6.31997 28.44 5.42664 27.3333 5.42664H4.66663C3.55996 5.42664 2.66663 6.31997 2.66663 7.42664V24.6666C2.66663 25.7733 3.55996 26.6666 4.66663 26.6666H27.3333C28.44 26.6666 29.3333 25.7733 29.3333 24.6666V7.42664ZM27.3333 7.42664V24.6666H4.66663V7.42664H27.3333Z" fill="#25CBDB"/>
<path d="M17.72 21.6533C17.72 21.1 18.1667 20.6533 18.72 20.6533H21.8867L15.98 14.7466L11.38 19.3466C10.9867 19.74 10.3533 19.74 9.96667 19.3466L2.67334 12.0333V9.19995L10.6733 17.2266L15.2733 12.6266C15.6667 12.2333 16.3 12.2333 16.6867 12.6266L23.3267 19.2666V16.1C23.3267 15.5466 23.7733 15.1 24.3267 15.1C24.88 15.1 25.3267 15.5466 25.3267 16.1V21.6533C25.3267 22.2066 24.88 22.6533 24.3267 22.6533H18.72C18.1667 22.6533 17.72 22.2066 17.72 21.6533Z" fill="#25CBDB"/>
</svg>
