<svg width="32" height="32" viewBox="0 0 32 32" fill="none" xmlns="http://www.w3.org/2000/svg">
<path opacity="0.32" d="M29.3333 7.33325C29.3333 6.22659 28.44 5.33325 27.3333 5.33325H4.66663C3.55996 5.33325 2.66663 6.22659 2.66663 7.33325V24.5733C2.66663 25.6799 3.55996 26.5733 4.66663 26.5733H27.3333C28.44 26.5733 29.3333 25.6799 29.3333 24.5733V7.33325Z" fill="#25CBDB"/>
<path opacity="0.52" d="M29.3333 7.33325C29.3333 6.22659 28.44 5.33325 27.3333 5.33325H4.66663C3.55996 5.33325 2.66663 6.22659 2.66663 7.33325V24.5733C2.66663 25.6799 3.55996 26.5733 4.66663 26.5733H27.3333C28.44 26.5733 29.3333 25.6799 29.3333 24.5733V7.33325ZM4.66663 24.5733V7.33325H27.3333V24.5733H4.66663Z" fill="#25CBDB"/>
<path d="M17.7199 10.3466C17.7199 10.8999 18.1666 11.3466 18.7199 11.3466H21.8866L15.9799 17.2532L11.3799 12.6532C10.9866 12.2599 10.3533 12.2599 9.96661 12.6532L2.67328 19.9666V22.7999L10.6733 14.7732L15.2733 19.3732C15.6666 19.7666 16.2999 19.7666 16.6866 19.3732L23.3266 12.7332V15.8999C23.3266 16.4532 23.7733 16.8999 24.3266 16.8999C24.8799 16.8999 25.3266 16.4532 25.3266 15.8999V10.3466C25.3266 9.79322 24.8799 9.34656 24.3266 9.34656H18.7199C18.1666 9.34656 17.7199 9.79322 17.7199 10.3466Z" fill="#25CBDB"/>
</svg>
