<svg width="32" height="32" viewBox="0 0 32 32" fill="none" xmlns="http://www.w3.org/2000/svg">
<path opacity="0.52" d="M4.70679 22.0398L3.29346 20.6265L13.3401 10.5731L20.0001 17.2531L27.2935 9.95312L28.7068 11.3731L20.0001 20.0798L13.3401 13.4065L4.70679 22.0398Z" fill="currentColor"/>
<path d="M28.3333 12.6667C29.6219 12.6667 30.6666 11.622 30.6666 10.3333C30.6666 9.04467 29.6219 8 28.3333 8C27.0446 8 25.9999 9.04467 25.9999 10.3333C25.9999 11.622 27.0446 12.6667 28.3333 12.6667Z" fill="currentColor"/>
<path d="M19.9999 21C21.2886 21 22.3333 19.9553 22.3333 18.6667C22.3333 17.378 21.2886 16.3333 19.9999 16.3333C18.7113 16.3333 17.6666 17.378 17.6666 18.6667C17.6666 19.9553 18.7113 21 19.9999 21Z" fill="currentColor"/>
<path d="M13.3333 14.3333C14.6219 14.3333 15.6666 13.2887 15.6666 12C15.6666 10.7113 14.6219 9.66667 13.3333 9.66667C12.0446 9.66667 10.9999 10.7113 10.9999 12C10.9999 13.2887 12.0446 14.3333 13.3333 14.3333Z" fill="currentColor"/>
<path d="M3.66659 24C4.95525 24 5.99992 22.9553 5.99992 21.6667C5.99992 20.378 4.95525 19.3333 3.66659 19.3333C2.37792 19.3333 1.33325 20.378 1.33325 21.6667C1.33325 22.9553 2.37792 24 3.66659 24Z" fill="currentColor"/>
</svg>
