<svg width="32" height="32" viewBox="0 0 32 32" fill="none" xmlns="http://www.w3.org/2000/svg">
<path opacity="0.85" fill-rule="evenodd" clip-rule="evenodd" d="M28.7201 3.28669C28.3067 2.87335 27.8467 2.66669 27.3334 2.66669H4.66675C4.13341 2.66669 3.66675 2.87335 3.26675 3.28669C2.86675 3.70002 2.66675 4.16002 2.66675 4.66669V26.9334C2.66675 27.38 2.87341 27.68 3.28008 27.8534C3.69341 28.02 4.05341 27.9467 4.36008 27.64L7.99341 24.0067H27.3267C27.8401 24.0067 28.3001 23.8 28.7134 23.3867C29.1267 22.9734 29.3267 22.5134 29.3267 22.0067V4.66669C29.3267 4.15335 29.1201 3.69335 28.7134 3.28669H28.7201ZM18.1534 18.42C17.9667 18.6067 17.7401 18.7067 17.4734 18.7067H9.00675C8.72008 18.7067 8.48008 18.6134 8.28675 18.42C8.09342 18.2267 8.00675 17.9934 8.00675 17.7067C8.00675 17.42 8.10008 17.18 8.28675 16.9934C8.47341 16.8067 8.70008 16.7067 8.97341 16.7067H17.4401C17.7267 16.7067 17.9667 16.8 18.1534 16.9934C18.3401 17.18 18.4401 17.42 18.4401 17.7067C18.4401 17.9934 18.3467 18.2334 18.1534 18.42ZM23.7201 14.0867C23.5334 14.2734 23.3067 14.3734 23.0334 14.3734H9.00008C8.71341 14.3734 8.47341 14.28 8.28008 14.0867C8.08675 13.8934 8.00008 13.66 8.00008 13.3734C8.00008 13.0867 8.09341 12.8467 8.28008 12.66C8.46675 12.4734 8.69341 12.3734 8.96675 12.3734H23.0001C23.2867 12.3734 23.5268 12.4667 23.7201 12.66C23.9067 12.8467 24.0001 13.0867 24.0001 13.3734C24.0001 13.66 23.9067 13.9 23.7201 14.0867ZM23.7201 9.75335C23.5334 9.94002 23.3067 10.04 23.0334 10.04H9.00008C8.71341 10.04 8.47341 9.94669 8.28008 9.75335C8.08675 9.56002 8.00008 9.32669 8.00008 9.04002C8.00008 8.75335 8.09341 8.51335 8.28008 8.32669C8.46675 8.14002 8.69341 8.04002 8.96675 8.04002H23.0001C23.2867 8.04002 23.5268 8.13335 23.7201 8.32669C23.9067 8.51335 24.0001 8.75335 24.0001 9.04002C24.0001 9.32669 23.9067 9.56669 23.7201 9.75335Z" fill="currentColor"/>
<g opacity="0.2">
<path d="M17.4333 16.7H8.96667C8.7 16.7 8.47333 16.7933 8.28 16.9867C8.09333 17.1733 8 17.4133 8 17.7C8 17.9867 8.09333 18.2267 8.28 18.4133C8.46667 18.6 8.70667 18.7 9 18.7H17.4667C17.7333 18.7 17.96 18.6067 18.1467 18.4133C18.3333 18.2267 18.4333 17.9867 18.4333 17.7C18.4333 17.4133 18.34 17.1733 18.1467 16.9867C17.96 16.8 17.72 16.7 17.4333 16.7Z" fill="currentColor"/>
<path d="M23 12.3667H8.96667C8.7 12.3667 8.47333 12.46 8.28 12.6533C8.09333 12.84 8 13.08 8 13.3667C8 13.6533 8.09333 13.8933 8.28 14.08C8.46667 14.2667 8.70667 14.3667 9 14.3667H23.0333C23.3 14.3667 23.5267 14.2733 23.72 14.08C23.9133 13.8867 24 13.6533 24 13.3667C24 13.08 23.9067 12.84 23.72 12.6533C23.5333 12.4667 23.2933 12.3667 23 12.3667Z" fill="currentColor"/>
<path d="M23 8.03333H8.96667C8.7 8.03333 8.47333 8.12666 8.28 8.31999C8.09333 8.50666 8 8.74666 8 9.03333C8 9.31999 8.09333 9.55999 8.28 9.74666C8.46667 9.93333 8.70667 10.0333 9 10.0333H23.0333C23.3 10.0333 23.5267 9.93999 23.72 9.74666C23.9133 9.55333 24 9.31999 24 9.03333C24 8.74666 23.9067 8.50666 23.72 8.31999C23.5333 8.13332 23.2933 8.03333 23 8.03333Z" fill="currentColor"/>
</g>
</svg>
