<svg width="32" height="32" viewBox="0 0 32 32" fill="none" xmlns="http://www.w3.org/2000/svg">
<path d="M28.7334 3.26663C28.3334 2.86663 27.8667 2.66663 27.3334 2.66663H4.66675C4.13341 2.66663 3.66675 2.86663 3.26675 3.26663C2.86675 3.66663 2.66675 4.13329 2.66675 4.66663V26.9333C2.66675 27.38 2.87341 27.68 3.28675 27.8466C3.69341 28.0133 4.05341 27.9466 4.36675 27.6333L8.00008 24H27.3334C27.8667 24 28.3334 23.8 28.7334 23.4C29.1334 23 29.3334 22.5333 29.3334 22V4.66663C29.3334 4.13329 29.1334 3.66663 28.7334 3.26663ZM14.2534 8.67996C14.7267 8.20663 15.3134 7.96663 16.0001 7.96663C16.6867 7.96663 17.2734 8.20663 17.7534 8.67996C18.2267 9.15996 18.4667 9.74663 18.4667 10.4333C18.4667 11.12 18.2267 11.7066 17.7534 12.18C17.2734 12.66 16.6867 12.9 16.0001 12.9C15.3134 12.9 14.7267 12.66 14.2534 12.18C13.7734 11.7066 13.5334 11.12 13.5334 10.4333C13.5334 9.74663 13.7734 9.15996 14.2534 8.67996ZM21.3334 18.6666H10.6667V18.0333C10.6667 17.1 11.1401 16.38 12.0867 15.8666C13.0267 15.3533 14.3334 15.1 16.0001 15.1C17.6667 15.1 18.9734 15.3533 19.9201 15.8666C20.8601 16.38 21.3334 17.1 21.3334 18.0333V18.6666Z" fill="currentColor"/>
<g opacity="0.2">
<path d="M18.4665 10.4335C18.4665 11.1201 18.2265 11.7068 17.7532 12.1801C17.2732 12.6601 16.6865 12.9001 15.9998 12.9001C15.3132 12.9001 14.7265 12.6601 14.2532 12.1801C13.7732 11.7068 13.5332 11.1201 13.5332 10.4335C13.5332 9.7468 13.7732 9.16013 14.2532 8.68013C14.7265 8.2068 15.3132 7.9668 15.9998 7.9668C16.6865 7.9668 17.2732 8.2068 17.7532 8.68013C18.2265 9.16013 18.4665 9.7468 18.4665 10.4335Z" fill="currentColor"/>
<path d="M21.3332 18.0335V18.6668H10.6665V18.0335C10.6665 17.1001 11.1398 16.3801 12.0865 15.8668C13.0265 15.3535 14.3332 15.1001 15.9998 15.1001C17.6665 15.1001 18.9732 15.3535 19.9198 15.8668C20.8598 16.3801 21.3332 17.1001 21.3332 18.0335Z" fill="currentColor"/>
</g>
</svg>
