<svg width="32" height="32" viewBox="0 0 32 32" fill="none" xmlns="http://www.w3.org/2000/svg">
<path d="M7.39998 22.0333L12.6667 16.7667C12.8667 16.5667 13.1 16.4733 13.3666 16.48C13.6333 16.4867 13.8733 16.6 14.08 16.8C14.2733 17 14.3666 17.2333 14.3666 17.5C14.3666 17.7667 14.2667 18 14.0667 18.2L8.09998 24.1667C7.89998 24.3667 7.66665 24.4667 7.39998 24.4667C7.13332 24.4667 6.89998 24.3667 6.69998 24.1667L3.36665 20.8333C3.16665 20.6333 3.06665 20.4 3.06665 20.1333C3.06665 19.8667 3.16665 19.6333 3.36665 19.4333C3.56665 19.2333 3.79998 19.14 4.06665 19.1467C4.33332 19.1533 4.56665 19.2533 4.76665 19.4333L7.39998 22.0333Z" fill="currentColor"/>
<path d="M7.39998 11.3667L12.6667 6.09999C12.8667 5.89999 13.1 5.80665 13.3666 5.81332C13.6333 5.81999 13.8733 5.93332 14.08 6.13332C14.2733 6.33332 14.3666 6.56665 14.3666 6.83332C14.3666 7.09999 14.2667 7.33332 14.0667 7.53332L8.09998 13.5C7.89998 13.7 7.66665 13.8 7.39998 13.8C7.13332 13.8 6.89998 13.7 6.69998 13.5L3.36665 10.1667C3.16665 9.96665 3.06665 9.73332 3.06665 9.46665C3.06665 9.19999 3.16665 8.96665 3.36665 8.76665C3.56665 8.56665 3.79998 8.47332 4.06665 8.47999C4.33332 8.48665 4.56665 8.58665 4.76665 8.76665L7.39998 11.3667Z" fill="currentColor"/>
<g opacity="0.52">
<path d="M18.3333 22.3335C18.0466 22.3335 17.8133 22.2402 17.6199 22.0468C17.4266 21.8535 17.3333 21.6135 17.3333 21.3268C17.3333 21.0402 17.4266 20.8068 17.6199 20.6135C17.8133 20.4268 18.0466 20.3268 18.3333 20.3268H28.3333C28.6199 20.3268 28.8533 20.4202 29.0466 20.6135C29.2399 20.8068 29.3333 21.0468 29.3333 21.3335C29.3333 21.6202 29.2399 21.8535 29.0466 22.0468C28.8533 22.2335 28.6199 22.3335 28.3333 22.3335H18.3333Z" fill="currentColor"/>
<path d="M18.3333 11.6668C18.0466 11.6668 17.8133 11.5735 17.6199 11.3802C17.4266 11.1868 17.3333 10.9468 17.3333 10.6602C17.3333 10.3735 17.4266 10.1402 17.6199 9.94682C17.8133 9.76016 18.0466 9.66016 18.3333 9.66016H28.3333C28.6199 9.66016 28.8533 9.75349 29.0466 9.94682C29.2399 10.1402 29.3333 10.3802 29.3333 10.6668C29.3333 10.9535 29.2399 11.1868 29.0466 11.3802C28.8533 11.5668 28.6199 11.6668 28.3333 11.6668H18.3333Z" fill="currentColor"/>
</g>
</svg>
