<svg width="32" height="32" viewBox="0 0 32 32" fill="none" xmlns="http://www.w3.org/2000/svg">
<path opacity="0.32" d="M30.6666 21.0334C30.6666 22.5667 30.1133 23.8867 28.9999 25C27.8866 26.1134 26.5666 26.6667 25.0333 26.6667H16.9999V16.04L19.0933 18.1334C19.2866 18.3267 19.5466 18.4267 19.7999 18.4267C20.0533 18.4267 20.3133 18.3267 20.5066 18.1334C20.8999 17.74 20.8999 17.1067 20.5066 16.72L16.7066 12.92C16.6133 12.8267 16.4999 12.7534 16.3799 12.7C16.3733 12.7 16.3666 12.7 16.3666 12.6934C16.2533 12.6534 16.1266 12.6267 15.9999 12.6267C15.8733 12.6267 15.7466 12.6534 15.6333 12.6934C15.6333 12.7 15.6266 12.7 15.6199 12.7C15.4999 12.7534 15.3866 12.8267 15.2933 12.92L11.4933 16.72C11.0999 17.1067 11.0999 17.74 11.4933 18.1334C11.8866 18.52 12.5133 18.52 12.9066 18.1334L14.9999 16.04V26.6667H8.36659C6.41325 26.6667 4.75325 25.98 3.38659 24.6134C2.01992 23.2467 1.33325 21.5867 1.33325 19.6334C1.33325 17.9 1.88659 16.38 2.99992 15.0667C4.11325 13.7534 5.51992 12.9667 7.23325 12.7C7.67992 10.5467 8.71992 8.78003 10.3666 7.41337C12.0133 6.0467 13.9133 5.3667 16.0666 5.3667C18.5533 5.3667 20.6533 6.27337 22.3666 8.08003C24.0799 9.89337 24.9333 12.0667 24.9333 14.6V15.4C26.5333 15.3534 27.8866 15.8734 28.9999 16.9467C30.1133 18.0267 30.6666 19.3867 30.6666 21.0334Z" fill="currentColor"/>
<path opacity="0.32" d="M28.9999 16.9534C27.9333 15.9134 26.6399 15.4 25.1199 15.4H24.9333V14.6C24.9333 12.0667 24.0799 9.89337 22.3666 8.08003C20.6533 6.27337 18.5533 5.3667 16.0666 5.3667C13.9133 5.3667 12.0133 6.0467 10.3666 7.41337C8.71992 8.7867 7.67992 10.5467 7.23325 12.7C5.51992 12.9667 4.11325 13.7534 2.99992 15.0667C1.88659 16.38 1.33325 17.9 1.33325 19.6334C1.33325 21.5867 2.01992 23.2534 3.37992 24.62C4.74659 25.9867 6.41325 26.6667 8.36659 26.6667H14.9999V24.6667H8.36659C6.95325 24.6667 5.77992 24.1867 4.79992 23.2C3.81325 22.22 3.33325 21.0467 3.33325 19.6334C3.33325 18.38 3.72659 17.3067 4.52659 16.36C5.31992 15.42 6.30659 14.8667 7.53992 14.6734L8.91325 14.46L9.19325 13.1067C9.54659 11.3934 10.3466 10.0334 11.6466 8.95337C12.9333 7.8867 14.3799 7.3667 16.0666 7.3667C17.9999 7.3667 19.5866 8.05337 20.9133 9.46003C22.2733 10.8934 22.9333 12.58 22.9333 14.6V17.4534L24.9866 17.4H25.1199C26.1199 17.4 26.9133 17.7134 27.6066 18.3867C28.3333 19.0867 28.6666 19.9267 28.6666 21.0334C28.6666 22.04 28.3199 22.8467 27.5866 23.5867C26.8466 24.32 26.0399 24.6667 25.0333 24.6667H16.9999V26.6667H25.0333C26.5666 26.6667 27.8866 26.1134 28.9999 25C30.1133 23.8867 30.6666 22.5667 30.6666 21.0334C30.6666 19.3867 30.1133 18.0267 28.9999 16.9534Z" fill="currentColor"/>
<path d="M20.5066 18.1334C20.3132 18.3267 20.0532 18.4267 19.7999 18.4267C19.5466 18.4267 19.2866 18.3267 19.0932 18.1334L16.9999 16.04V28.3734C16.9999 28.92 16.5532 29.3734 15.9999 29.3734C15.4466 29.3734 14.9999 28.92 14.9999 28.3734V16.04L12.9066 18.1334C12.5132 18.52 11.8866 18.52 11.4932 18.1334C11.0999 17.74 11.0999 17.1067 11.4932 16.72L15.2932 12.92C15.3866 12.8267 15.4999 12.7534 15.6199 12.7C15.6266 12.7 15.6332 12.7 15.6332 12.6934C15.7466 12.6534 15.8732 12.6267 15.9999 12.6267C16.1266 12.6267 16.2532 12.6534 16.3666 12.6934C16.3666 12.7 16.3732 12.7 16.3799 12.7C16.4999 12.7534 16.6132 12.8267 16.7066 12.92L20.5066 16.72C20.8999 17.1067 20.8999 17.74 20.5066 18.1334Z" fill="currentColor"/>
</svg>
