<svg width="32" height="32" viewBox="0 0 32 32" fill="none" xmlns="http://www.w3.org/2000/svg">
<path opacity="0.85" d="M28.9999 16.9467C27.8866 15.8734 26.5333 15.3534 24.9333 15.4V14.6C24.9333 12.0667 24.0799 9.89337 22.3666 8.08003C20.6533 6.27337 18.5533 5.3667 16.0666 5.3667C13.9133 5.3667 12.0133 6.0467 10.3666 7.41337C8.71992 8.78003 7.67992 10.5467 7.23325 12.7C5.51992 12.9667 4.11325 13.7534 2.99992 15.0667C1.88659 16.38 1.33325 17.9 1.33325 19.6334C1.33325 21.5867 2.01992 23.2467 3.38659 24.6134C4.75325 25.98 6.41325 26.6667 8.36659 26.6667H25.0333C26.5666 26.6667 27.8866 26.1134 28.9999 25C30.1133 23.8867 30.6666 22.5667 30.6666 21.0334C30.6666 19.3867 30.1133 18.0267 28.9999 16.9467ZM20.7333 15.7L14.4333 22C14.2333 22.2 13.9999 22.3 13.7333 22.3C13.4666 22.3 13.2333 22.2 13.0333 22L9.73325 18.7334C9.55325 18.5534 9.46659 18.3267 9.46659 18.0467C9.46659 17.7667 9.55325 17.5467 9.73325 17.3667C9.91325 17.1867 10.1399 17.0934 10.4199 17.08C10.6933 17.0734 10.9199 17.1534 11.0999 17.3334L13.7666 20L19.3999 14.3667C19.5799 14.1867 19.7999 14.1 20.0666 14.1C20.3333 14.1 20.5533 14.1867 20.7333 14.3667C20.9133 14.5467 20.9999 14.7667 20.9999 15.0334C20.9999 15.3 20.9133 15.52 20.7333 15.7Z" fill="currentColor"/>
<path opacity="0.2" d="M20.9999 15.0334C20.9999 15.3001 20.9132 15.5201 20.7332 15.7001L14.4332 22.0001C14.2332 22.2001 13.9999 22.3001 13.7332 22.3001C13.4666 22.3001 13.2332 22.2001 13.0332 22.0001L9.73322 18.7334C9.55322 18.5534 9.46655 18.3268 9.46655 18.0468C9.46655 17.7668 9.55322 17.5468 9.73322 17.3668C9.91322 17.1868 10.1399 17.0934 10.4199 17.0801C10.6932 17.0734 10.9199 17.1534 11.0999 17.3334L13.7666 20.0001L19.3999 14.3668C19.5799 14.1868 19.7999 14.1001 20.0666 14.1001C20.3332 14.1001 20.5532 14.1868 20.7332 14.3668C20.9132 14.5468 20.9999 14.7668 20.9999 15.0334Z" fill="currentColor"/>
</svg>
