<svg width="48" height="48" viewBox="0 0 48 48" fill="none" xmlns="http://www.w3.org/2000/svg">
<path opacity="0.32" d="M9.5 44C9.07 44 8.72 43.86 8.43 43.57C8.14 43.28 8 42.93 8 42.5V5.5C8 5.07 8.14 4.72 8.43 4.43C8.72 4.14 9.07 4 9.5 4H37C37.83 4 38.53 4.29 39.12 4.88C39.71 5.47 40 6.17 40 7V41C40 41.83 39.71 42.53 39.12 43.12C38.53 43.71 37.83 44 37 44H9.5Z" fill="currentColor"/>
<path d="M27.6199 37.7H24.0299V29.3C24.0299 28.95 23.9099 28.67 23.6799 28.44C23.4499 28.21 23.1599 28.1 22.8299 28.1C22.4999 28.1 22.2099 28.21 21.9799 28.44C21.7499 28.67 21.6299 28.95 21.6299 29.3V39C21.6299 39.3 21.7499 39.56 21.9799 39.78C22.2099 40 22.4799 40.1 22.7799 40.1H27.6199C27.9699 40.1 28.2499 39.98 28.4799 39.75C28.7099 39.52 28.8199 39.23 28.8199 38.9C28.8199 38.57 28.7099 38.28 28.4799 38.05C28.2499 37.82 27.9699 37.7 27.6199 37.7Z" fill="currentColor"/>
<path d="M35.64 28.45C35.41 28.22 35.13 28.1 34.78 28.1H29.99C29.64 28.1 29.36 28.22 29.13 28.45C28.9 28.68 28.79 28.97 28.79 29.3C28.79 29.63 28.9 29.92 29.13 30.15C29.36 30.38 29.64 30.5 29.99 30.5H31.19V38.9C31.19 39.25 31.31 39.53 31.54 39.76C31.77 39.99 32.06 40.1 32.39 40.1C32.72 40.1 33.01 39.99 33.24 39.76C33.47 39.53 33.59 39.25 33.59 38.9V30.5H34.79C35.14 30.5 35.42 30.38 35.65 30.15C35.88 29.92 35.99 29.63 35.99 29.3C35.99 28.97 35.88 28.68 35.65 28.45H35.64Z" fill="currentColor"/>
<path d="M18.01 30.5C18.36 30.5 18.64 30.38 18.87 30.15C19.1 29.92 19.21 29.63 19.21 29.3C19.21 28.97 19.1 28.68 18.87 28.45C18.64 28.22 18.36 28.1 18.01 28.1H13.16C12.86 28.13 12.61 28.23 12.39 28.44C12.16 28.67 12.04 28.95 12.04 29.3V39C12.04 39.3 12.16 39.56 12.39 39.78C12.62 40 12.89 40.1 13.19 40.1H18.03C18.38 40.1 18.66 39.98 18.89 39.75C19.12 39.52 19.23 39.23 19.23 38.9C19.23 38.57 19.12 38.28 18.89 38.05C18.66 37.82 18.38 37.7 18.03 37.7H14.44V30.5H18.03H18.01Z" fill="currentColor"/>
<path d="M23.54 9.56999L21.57 13.5C21.5 13.64 21.37 13.73 21.22 13.76L16.92 14.38L16.75 13.81C16.68 13.59 16.8 13.35 17.03 13.27L17.82 12.98C17.99 12.92 18.11 12.76 18.11 12.58L18.13 11.73C18.13 11.5 18.33 11.31 18.56 11.3L19.4 11.28C19.59 11.27 19.75 11.15 19.81 10.98L20.09 10.18C20.16 9.95999 20.4 9.83999 20.63 9.90999L21.44 10.14C21.61 10.19 21.8 10.13 21.91 9.98999L22.42 9.31999C22.57 9.12999 22.83 9.07999 23.03 9.21999L23.54 9.56999Z" fill="currentColor"/>
<path d="M31.23 13.76L31.03 14.43L26.73 13.77C26.57 13.75 26.44 13.65 26.37 13.51L24.42 9.54999L24.92 9.20999C25.11 9.07999 25.38 9.11999 25.52 9.29999L26.04 9.96999C26.15 10.12 26.34 10.18 26.51 10.12L27.32 9.87999C27.55 9.80999 27.78 9.92999 27.86 10.16L28.15 10.95C28.21 11.12 28.37 11.24 28.56 11.24L29.4 11.26C29.63 11.27 29.82 11.46 29.83 11.69L29.86 12.53C29.86 12.72 29.98 12.88 30.15 12.94L30.95 13.22C31.17 13.29 31.29 13.53 31.23 13.76Z" fill="currentColor"/>
<path d="M31.16 19.17C31.02 19.28 30.96 19.47 31.01 19.64L31.25 20.45C31.32 20.68 31.2 20.92 30.98 21L30.18 21.28C30.01 21.34 29.89 21.5 29.89 21.69L29.87 22.53C29.87 22.76 29.68 22.95 29.44 22.96L28.76 22.98L28.06 18.76C28.04 18.61 28.09 18.45 28.2 18.34L31.37 15.25C31.37 15.25 31.38 15.24 31.39 15.23L31.82 15.56C32 15.7 32.05 15.96 31.92 16.16L31.44 16.85C31.34 17 31.34 17.2 31.44 17.36L31.92 18.05C32.06 18.24 32.02 18.51 31.83 18.65L31.16 19.17Z" fill="currentColor"/>
<path d="M28.07 23.62L27.92 24.08C27.84 24.3 27.6 24.42 27.37 24.36L26.56 24.12C26.39 24.07 26.2 24.13 26.09 24.28L25.58 24.95C25.43 25.14 25.17 25.18 24.98 25.05L24.28 24.57C24.13 24.47 23.93 24.47 23.78 24.57L23.08 25.05C22.89 25.19 22.63 25.15 22.48 24.96L21.97 24.29C21.85 24.15 21.66 24.09 21.49 24.14L20.68 24.38C20.46 24.45 20.22 24.33 20.14 24.11L19.93 23.54L23.73 21.57C23.87 21.5 24.03 21.5 24.17 21.57L28.07 23.62Z" fill="currentColor"/>
<path d="M19.85 18.74L19.12 23.01H18.6C18.37 23 18.18 22.81 18.17 22.57L18.15 21.73C18.14 21.55 18.02 21.39 17.85 21.32L17.05 21.05C16.83 20.97 16.71 20.73 16.78 20.5L17.01 19.7C17.06 19.52 17 19.33 16.86 19.22L16.18 18.71C16 18.57 15.95 18.3 16.09 18.11L16.56 17.41C16.66 17.26 16.66 17.06 16.56 16.91L16.08 16.22C15.95 16.02 15.99 15.76 16.17 15.61L16.62 15.27L19.72 18.32C19.83 18.43 19.88 18.58 19.85 18.74Z" fill="currentColor"/>
<path d="M26.92 17.23C26.92 18.88 25.58 20.23 23.92 20.23C22.26 20.23 20.92 18.88 20.92 17.23C20.92 15.58 22.27 14.23 23.92 14.23C25.57 14.23 26.92 15.57 26.92 17.23Z" fill="currentColor"/>
</svg>
