<svg width="32" height="32" viewBox="0 0 32 32" fill="none" xmlns="http://www.w3.org/2000/svg">
<path opacity="0.52" d="M6 29.3334C5.46667 29.3334 5 29.1334 4.6 28.7334C4.2 28.3334 4 27.8667 4 27.3334V8.66675C4 8.13341 4.2 7.66675 4.6 7.26675C5 6.86675 5.46667 6.66675 6 6.66675H20.6667C21.2 6.66675 21.6667 6.86675 22.0667 7.26675C22.4667 7.66675 22.6667 8.13341 22.6667 8.66675V27.3334C22.6667 27.8667 22.4667 28.3334 22.0667 28.7334C21.6667 29.1334 21.2 29.3334 20.6667 29.3334H6Z" fill="currentColor"/>
<path opacity="0.85" d="M10 25.3334C9.46667 25.3334 9 25.1334 8.6 24.7334C8.2 24.3334 8 23.8667 8 23.3334V4.66675C8 4.13341 8.2 3.66675 8.6 3.26675C9 2.86675 9.46667 2.66675 10 2.66675H24.6667C25.2 2.66675 25.6667 2.86675 26.0667 3.26675C26.4667 3.66675 26.6667 4.13341 26.6667 4.66675V23.3334C26.6667 23.8667 26.4667 24.3334 26.0667 24.7334C25.6667 25.1334 25.2 25.3334 24.6667 25.3334H10Z" fill="currentColor"/>
</svg>
