<svg width="32" height="32" viewBox="0 0 32 32" fill="none" xmlns="http://www.w3.org/2000/svg">
<path opacity="0.32" fill-rule="evenodd" clip-rule="evenodd" d="M23.8888 24.2176C21.8008 26.2911 19.1725 27.3278 16.0172 27.3278L15.9972 27.3212C12.8419 27.3212 10.1602 26.2246 7.95881 24.0315C5.75743 21.8383 4.65674 19.1667 4.65674 16.0232C4.65674 14.4946 4.95693 13.0259 5.5573 11.6169C6.15768 10.208 6.99154 8.98516 8.04553 7.94175C9.09953 6.89835 10.347 6.0809 11.7812 5.48277C13.2154 4.88464 14.7564 4.6188 16.4041 4.68526C16.5842 6.4132 17.2913 7.92846 18.5254 9.2377C19.7596 10.5469 21.2805 11.3179 23.0816 11.5638C23.2618 12.6936 23.722 13.6971 24.4692 14.5744C25.2163 15.4516 26.1903 16.1096 27.391 16.5548C27.1442 19.592 25.9768 22.144 23.8888 24.2176Z" fill="currentColor"/>
<path d="M14.0226 13.438C14.5963 13.438 15.0833 13.2387 15.4835 12.8333C15.8838 12.4345 16.0839 11.9427 16.0839 11.3712C16.0839 10.7996 15.8838 10.3145 15.4769 9.91572C15.0766 9.51696 14.583 9.31759 14.0093 9.31759C13.4356 9.31759 12.9486 9.51696 12.5484 9.92236C12.1481 10.3211 11.948 10.8129 11.948 11.3845C11.948 11.956 12.1481 12.4412 12.555 12.8399C12.9553 13.2387 13.4489 13.438 14.0226 13.438ZM11.3543 20.0839C11.928 20.0839 12.4149 19.8846 12.8152 19.4792C13.2154 19.0804 13.4156 18.5886 13.4156 18.0171C13.4156 17.4455 13.2154 16.9604 12.8085 16.5616C12.4083 16.1629 11.9146 15.9635 11.3409 15.9635C10.7672 15.9635 10.2803 16.1629 9.88002 16.5683C9.47977 16.967 9.27964 17.4588 9.27964 18.0304C9.27964 18.6019 9.47977 19.0871 9.88669 19.4858C10.2869 19.8846 10.7806 20.0839 11.3543 20.0839ZM20.0197 21.3467C20.4 21.3467 20.7135 21.2204 20.9736 20.9612C21.2338 20.702 21.3606 20.3897 21.3606 20.0108C21.3606 19.632 21.2338 19.3197 20.9736 19.0605C20.7135 18.8013 20.4 18.675 20.0197 18.675C19.6395 18.675 19.3259 18.8013 19.0658 19.0605C18.8056 19.3197 18.6789 19.632 18.6789 20.0108C18.6789 20.3897 18.8056 20.702 19.0658 20.9612C19.3259 21.2204 19.6395 21.3467 20.0197 21.3467ZM16.0172 29.3217C14.1961 29.3217 12.4683 28.9695 10.8473 28.2717C9.22627 27.5739 7.80538 26.6235 6.59129 25.414C5.37719 24.2044 4.42326 22.7955 3.72282 21.1739C3.02238 19.5523 2.66882 17.8376 2.66882 16.0233C2.66882 14.209 3.02238 12.4877 3.72282 10.8727C4.42326 9.25777 5.37719 7.83555 6.57794 6.61935C7.7787 5.40315 9.17958 4.43949 10.7806 3.72838C12.3816 3.01727 14.0827 2.66504 15.8838 2.66504C16.5976 2.66504 17.1713 2.83119 17.6049 3.16348C18.0385 3.49578 18.312 4.01416 18.4254 4.72527C18.6055 6.00793 19.1592 7.1045 20.0931 8.0017C21.027 8.89889 22.1277 9.43721 23.3952 9.61665C23.8621 9.68311 24.229 9.86255 24.4959 10.1483C24.7627 10.4341 24.9495 10.8461 25.0629 11.3778C25.1763 12.0623 25.4631 12.6804 25.9301 13.2254C26.3971 13.7703 26.9507 14.1957 27.5978 14.508C28.2849 14.8403 28.7652 15.2391 29.032 15.7043C29.2989 16.1695 29.3856 16.7543 29.2989 17.4655C29.1454 19.107 28.6852 20.6422 27.9313 22.0844C27.1775 23.5265 26.2036 24.7826 25.0095 25.8592C23.8154 26.9359 22.4612 27.7799 20.927 28.4046C19.3927 29.0227 17.7583 29.335 16.0172 29.335V29.3217ZM16.0172 27.328C19.1725 27.328 21.8008 26.2912 23.8888 24.2177C25.9768 22.1442 27.1442 19.5921 27.391 16.555C26.1903 16.1097 25.2163 15.4518 24.4692 14.5745C23.722 13.6972 23.2618 12.6937 23.0816 11.5639C21.2805 11.318 19.7596 10.5471 18.5254 9.23784C17.2913 7.92859 16.5842 6.41333 16.4041 4.68539C14.7564 4.61893 13.2154 4.88477 11.7812 5.4829C10.347 6.08103 9.09953 6.89848 8.04553 7.94188C6.99154 8.98529 6.15768 10.2081 5.5573 11.6171C4.95693 13.026 4.65674 14.4947 4.65674 16.0233C4.65674 19.1668 5.75743 21.8385 7.95881 24.0316C10.1602 26.2248 12.8419 27.3213 15.9972 27.3213L16.0172 27.328Z" fill="currentColor"/>
</svg>
