<svg width="32" height="32" viewBox="0 0 32 32" fill="none" xmlns="http://www.w3.org/2000/svg">
<path opacity="0.52" d="M6 2.66663H26V29.3333H6V2.66663Z" fill="#25CBDB"/>
<g opacity="0.52">
<path d="M11 6.68005H9C8.44772 6.68005 8 7.12777 8 7.68005V9.68005C8 10.2323 8.44772 10.6801 9 10.6801H11C11.5523 10.6801 12 10.2323 12 9.68005V7.68005C12 7.12777 11.5523 6.68005 11 6.68005Z" fill="#25CBDB"/>
<path d="M17 6.68005H15C14.4477 6.68005 14 7.12777 14 7.68005V9.68005C14 10.2323 14.4477 10.6801 15 10.6801H17C17.5523 10.6801 18 10.2323 18 9.68005V7.68005C18 7.12777 17.5523 6.68005 17 6.68005Z" fill="#25CBDB"/>
<path d="M23 6.66675H21C20.4477 6.66675 20 7.11446 20 7.66675V9.66675C20 10.219 20.4477 10.6667 21 10.6667H23C23.5523 10.6667 24 10.219 24 9.66675V7.66675C24 7.11446 23.5523 6.66675 23 6.66675Z" fill="#25CBDB"/>
<path d="M11 12.6868H9C8.44772 12.6868 8 13.1345 8 13.6868V15.6868C8 16.2391 8.44772 16.6868 9 16.6868H11C11.5523 16.6868 12 16.2391 12 15.6868V13.6868C12 13.1345 11.5523 12.6868 11 12.6868Z" fill="#25CBDB"/>
<path d="M23 12.6868H21C20.4477 12.6868 20 13.1345 20 13.6868V15.6868C20 16.2391 20.4477 16.6868 21 16.6868H23C23.5523 16.6868 24 16.2391 24 15.6868V13.6868C24 13.1345 23.5523 12.6868 23 12.6868Z" fill="#25CBDB"/>
<path d="M17 12.6868H15C14.4477 12.6868 14 13.1345 14 13.6868V15.6868C14 16.2391 14.4477 16.6868 15 16.6868H17C17.5523 16.6868 18 16.2391 18 15.6868V13.6868C18 13.1345 17.5523 12.6868 17 12.6868Z" fill="#25CBDB"/>
<path d="M11 18.6934H9C8.44772 18.6934 8 19.1411 8 19.6934V21.6934C8 22.2456 8.44772 22.6934 9 22.6934H11C11.5523 22.6934 12 22.2456 12 21.6934V19.6934C12 19.1411 11.5523 18.6934 11 18.6934Z" fill="#25CBDB"/>
<path d="M17 18.6934H15C14.4477 18.6934 14 19.1411 14 19.6934V21.6934C14 22.2456 14.4477 22.6934 15 22.6934H17C17.5523 22.6934 18 22.2456 18 21.6934V19.6934C18 19.1411 17.5523 18.6934 17 18.6934Z" fill="#25CBDB"/>
<path d="M23 18.6801H21C20.4477 18.6801 20 19.1278 20 19.6801V21.6801C20 22.2323 20.4477 22.6801 21 22.6801H23C23.5523 22.6801 24 22.2323 24 21.6801V19.6801C24 19.1278 23.5523 18.6801 23 18.6801Z" fill="#25CBDB"/>
<path d="M13 24.8334H19C19.5533 24.8334 20 25.28 20 25.8334V29.3334H12V25.8334C12 25.28 12.4467 24.8334 13 24.8334Z" fill="#25CBDB"/>
</g>
<path d="M27 2.66663H5C4.44772 2.66663 4 3.11434 4 3.66663C4 4.21891 4.44772 4.66663 5 4.66663H27C27.5523 4.66663 28 4.21891 28 3.66663C28 3.11434 27.5523 2.66663 27 2.66663Z" fill="#25CBDB"/>
<path d="M27 28.3333C26.9533 28.3333 26.9067 28.34 26.8533 28.3466C26.56 27.6066 25.84 27.08 25 27.08C24.16 27.08 23.38 27.6533 23.1133 28.44C22.98 28.3733 22.8267 28.3266 22.6667 28.3266C22.1133 28.3266 21.6667 28.7733 21.6667 29.3266H28C28 28.7733 27.5533 28.3266 27 28.3266V28.3333Z" fill="#25CBDB"/>
<path d="M4.97333 28.3333C4.43333 28.3466 4 28.7866 4 29.3333H6V27.26C5.53333 27.4733 5.16667 27.8533 4.97333 28.3333Z" fill="#25CBDB"/>
</svg>
