<svg width="32" height="32" viewBox="0 0 32 32" fill="none" xmlns="http://www.w3.org/2000/svg">
<path d="M5.04001 10.0467L15.6733 16.1933C15.88 16.3133 16.1333 16.3133 16.34 16.1933L27.0133 10.0467C27.4533 9.79332 27.46 9.15332 27.0133 8.89332L17.4067 3.27333C16.58 2.78666 15.5533 2.78666 14.72 3.27333L5.03334 8.89332C4.59334 9.15332 4.59334 9.79332 5.03334 10.0467H5.04001Z" fill="currentColor"/>
<path opacity="0.32" d="M5.02667 12.1266L14.66 17.5333C14.8733 17.6533 15 17.8733 15 18.1133V28.4266C15 28.94 14.4467 29.26 14 29.0066L4.33333 23.4333C4.12667 23.3133 4 23.0933 4 22.8533L4.02667 12.7133C4.02667 12.2066 4.57333 11.8866 5.02 12.1333L5.02667 12.1266Z" fill="currentColor"/>
<path opacity="0.52" d="M27.0133 12.24L17.3533 17.42C17.14 17.5333 17 17.76 17 18.0067V28.42C17 28.9333 17.5533 29.2533 18 29L27.62 23.4267C27.8267 23.3067 27.9533 23.0867 27.9533 22.8533L27.9933 12.8333C27.9933 12.3267 27.46 12.0067 27.0133 12.24V12.24Z" fill="currentColor"/>
</svg>
