<svg width="32" height="32" viewBox="0 0 32 32" fill="none" xmlns="http://www.w3.org/2000/svg">
<path opacity="0.5" d="M15.9999 30.6667C13.5333 30.6667 11.1333 29.9334 8.79992 28.4667C6.46659 27 4.66659 25.3333 3.33325 23.4V27C3.33325 27.2667 3.26659 27.5333 3.06659 27.7333C2.86659 27.9333 2.66659 28 2.33325 28C1.99992 28 1.79992 27.9333 1.59992 27.7333C1.39992 27.5333 1.33325 27.3334 1.33325 27V21C1.33325 20.7333 1.39992 20.4667 1.59992 20.2667C1.79992 20.0667 1.99992 20 2.33325 20H8.33325C8.59992 20 8.86659 20.0667 9.06659 20.2667C9.26659 20.4667 9.33325 20.6667 9.33325 21C9.33325 21.3334 9.26659 21.5333 9.06659 21.7333C8.86659 21.9333 8.66659 22 8.33325 22H4.73325C5.86659 23.7333 7.46659 25.2667 9.59992 26.6C11.7333 28 13.7999 28.6667 15.9999 28.6667C19.3333 28.6667 22.1999 27.5334 24.5999 25.2667C26.9999 23 28.3333 20.2667 28.5999 17C28.5999 16.7333 28.7333 16.4667 28.9333 16.2667C29.1333 16.0667 29.3333 15.9333 29.6666 15.9333C29.9999 15.9333 30.1999 16 30.3999 16.2C30.5999 16.4 30.6666 16.6 30.6666 16.8667C30.5333 18.8 30.0666 20.6 29.2666 22.2667C28.4666 23.9334 27.3999 25.4 26.0666 26.6C24.7333 27.8667 23.2666 28.8 21.5333 29.5333C19.7999 30.2667 17.9999 30.6 16.0666 30.6L15.9999 30.6667Z" fill="#25CBDB"/>
<path opacity="0.8" d="M15.9999 3.33336C12.6666 3.33336 9.79992 4.46669 7.39992 6.73336C4.99992 9.00002 3.66659 11.7334 3.39992 15C3.39992 15.2667 3.26659 15.5334 3.06659 15.7334C2.86659 15.9334 2.66659 16.0667 2.33325 16.0667C1.99992 16.0667 1.79992 16 1.59992 15.8C1.39992 15.6 1.33325 15.4 1.33325 15.1334C1.46659 13.2 1.93325 11.4 2.73325 9.73336C3.53325 8.06669 4.59992 6.60002 5.93325 5.40002C7.26659 4.20002 8.73325 3.20002 10.4666 2.46669C12.1999 1.73336 13.9999 1.40002 15.9333 1.40002C17.8666 1.40002 20.7999 2.13336 23.1333 3.60002C25.4666 5.06669 27.2666 6.73336 28.5999 8.66669V5.06669C28.5999 4.80002 28.6666 4.53336 28.8666 4.33336C29.0666 4.13336 29.2666 4.06669 29.5999 4.06669C29.9333 4.06669 30.1333 4.13336 30.3333 4.33336C30.5333 4.53336 30.5999 4.73336 30.5999 5.06669V11.0667C30.5999 11.3334 30.5333 11.6 30.3333 11.8C30.1333 12 29.9333 12.0667 29.5999 12.0667H23.5999C23.3333 12.0667 23.0666 12 22.8666 11.8C22.6666 11.6 22.5999 11.4 22.5999 11.0667C22.5999 10.7334 22.6666 10.5334 22.8666 10.3334C23.0666 10.1334 23.2666 10.0667 23.5999 10.0667H27.1999C26.0666 8.33336 24.4666 6.80002 22.3333 5.46669C20.1999 4.13336 18.1333 3.40002 15.9333 3.40002L15.9999 3.33336Z" fill="#25CBDB"/>
<path d="M16.2665 22.2C17.1332 22.2 17.8665 22 18.4665 21.5334C19.0665 21.0667 19.3332 20.5334 19.3332 19.8C19.3332 19.0667 19.0665 18.4667 18.4665 17.9334C17.8665 17.4 16.8665 16.8667 15.3999 16.2667C14.0665 15.7334 13.0665 15.1334 12.3999 14.4667C11.7332 13.8 11.3999 12.9334 11.3999 11.8667C11.3999 10.8 11.7332 10.0667 12.3999 9.33337C13.0665 8.66671 13.9332 8.20004 15.0665 8.06671V7.26671C15.0665 7.00004 15.1332 6.80004 15.3332 6.60004C15.5332 6.40004 15.7332 6.33337 15.9999 6.33337C16.2665 6.33337 16.4665 6.40004 16.6665 6.60004C16.8665 6.80004 16.9332 7.00004 16.9332 7.26671V8.06671C17.6665 8.13337 18.2665 8.33337 18.8665 8.66671C19.4665 9.00004 19.8665 9.46671 20.2665 10C20.3999 10.2 20.3999 10.4 20.3332 10.6C20.2665 10.8 20.0665 11 19.8665 11.1334C19.6665 11.2667 19.3999 11.2667 19.1999 11.2C18.9999 11.1334 18.7999 11 18.5999 10.8C18.2665 10.4 17.9332 10.0667 17.4665 9.86671C16.9999 9.66671 16.5332 9.53337 15.9999 9.53337C15.1332 9.53337 14.4665 9.73337 13.9332 10.1334C13.3999 10.5334 13.1999 11.0667 13.1999 11.8C13.1999 12.5334 13.4665 13.0667 14.0665 13.5334C14.6665 14 15.5999 14.4667 16.8665 15C18.3999 15.6667 19.4665 16.3334 20.1332 17.0667C20.7999 17.8 21.1332 18.7334 21.1332 19.8667C21.1332 21 20.9999 20.9334 20.7999 21.4C20.5999 21.8667 20.3332 22.2667 19.9332 22.6C19.5332 22.9334 19.1332 23.2 18.5999 23.4C18.0665 23.6 17.4665 23.7334 16.7999 23.8V24.6667C16.7999 24.9334 16.7332 25.1334 16.5332 25.3334C16.3332 25.5334 16.1332 25.6 15.8665 25.6C15.5999 25.6 15.3999 25.5334 15.1999 25.3334C14.9999 25.1334 14.9332 24.9334 14.9332 24.6667V23.8C14.0665 23.5334 13.3332 23.2 12.7332 22.7334C12.1332 22.2667 11.5332 21.6 11.1332 20.8667C10.9999 20.6667 10.9999 20.4667 11.1332 20.2667C11.2665 20.0667 11.3999 19.9334 11.6665 19.8667C11.9332 19.8 12.1332 19.8 12.3332 19.8667C12.5332 19.9334 12.7332 20.1334 12.7999 20.3334C13.1332 20.9334 13.5999 21.4667 14.1999 21.8C14.7999 22.1334 15.4665 22.3334 16.1999 22.3334L16.2665 22.2Z" fill="#25CBDB"/>
</svg>
