<svg width="32" height="32" viewBox="0 0 32 32" fill="none" xmlns="http://www.w3.org/2000/svg">
<path opacity="0.52" d="M2 24C2 27.3133 4.68667 30 8 30V18C4.68667 18 2 20.6867 2 24Z" fill="#25CBDB"/>
<path d="M14 24H8V30C11.3133 30 14 27.3133 14 24Z" fill="#25CBDB"/>
<path opacity="0.85" d="M27.3332 5.33325H4.6665C3.55984 5.33325 2.6665 6.22659 2.6665 7.33325V21.2533C3.65984 19.3199 5.67317 17.9999 7.99984 17.9999C11.3132 17.9999 13.9998 20.6799 13.9998 23.9999C13.9998 24.9199 13.7932 25.7866 13.4198 26.5666H27.3332C28.4398 26.5666 29.3332 25.6733 29.3332 24.5666V7.33325C29.3332 6.22659 28.4398 5.33325 27.3332 5.33325ZM19.3132 24.5666H17.3132V20.8999C17.3132 20.3466 17.7598 19.8999 18.3132 19.8999C18.8665 19.8999 19.3132 20.3466 19.3132 20.8999V24.5666ZM18.5598 14.4399L14.4798 9.70659L6.27984 16.0799C6.09984 16.2199 5.87984 16.2933 5.6665 16.2933C5.3665 16.2933 5.07317 16.1599 4.87317 15.9066C4.53317 15.4733 4.61317 14.8399 5.0465 14.4999L13.9932 7.53992C14.4132 7.21325 15.0198 7.27325 15.3665 7.67992L19.4465 12.4133L25.7132 7.53992C26.1532 7.19992 26.7798 7.27992 27.1132 7.71325C27.4532 8.14658 27.3732 8.77992 26.9398 9.11992L19.9265 14.5733C19.5065 14.8999 18.8998 14.8399 18.5532 14.4333L18.5598 14.4399ZM23.3132 24.5666H21.3132V18.2333C21.3132 17.6799 21.7598 17.2333 22.3132 17.2333C22.8665 17.2333 23.3132 17.6799 23.3132 18.2333V24.5666ZM27.3332 24.5666H25.3332V15.5666C25.3332 15.0133 25.7798 14.5666 26.3332 14.5666C26.8865 14.5666 27.3332 15.0133 27.3332 15.5666V24.5666Z" fill="#25CBDB"/>
<g opacity="0.2">
<path d="M8 18V24H14C14 20.6867 11.3133 18 8 18Z" fill="#25CBDB"/>
<path d="M26.3334 14.5667C25.78 14.5667 25.3334 15.0133 25.3334 15.5667V24.5666H27.3334V15.5667C27.3334 15.0133 26.8867 14.5667 26.3334 14.5667Z" fill="#25CBDB"/>
<path d="M22.3134 17.2332C21.76 17.2332 21.3134 17.6798 21.3134 18.2332V24.5665H23.3134V18.2332C23.3134 17.6798 22.8667 17.2332 22.3134 17.2332Z" fill="#25CBDB"/>
<path d="M18.3134 19.8999C17.76 19.8999 17.3134 20.3466 17.3134 20.8999V24.5666H19.3134V20.8999C19.3134 20.3466 18.8667 19.8999 18.3134 19.8999Z" fill="#25CBDB"/>
<path d="M27.12 7.71986C26.78 7.28653 26.1534 7.20653 25.72 7.54653L19.4534 12.4199L15.3734 7.68653C15.0267 7.27986 14.42 7.21986 14 7.54653L5.05336 14.5065C4.62002 14.8465 4.54002 15.4732 4.88002 15.9132C5.08002 16.1665 5.37336 16.2999 5.67336 16.2999C5.88669 16.2999 6.10669 16.2332 6.28669 16.0865L14.4867 9.71319L18.5667 14.4465C18.9134 14.8532 19.52 14.9132 19.94 14.5865L26.9534 9.13319C27.3867 8.79319 27.4667 8.16653 27.1267 7.72653L27.12 7.71986Z" fill="#25CBDB"/>
</g>
</svg>
