<svg width="32" height="32" viewBox="0 0 32 32" fill="none" xmlns="http://www.w3.org/2000/svg">
<path opacity="0.85" d="M21.9467 10.8C20.84 10.8 19.9467 9.90663 19.9467 8.79996V3.25329C19.5734 2.87996 19.06 2.66663 18.5334 2.66663H7.33337C6.22671 2.66663 5.33337 3.55996 5.33337 4.66663V27.3333C5.33337 28.44 6.22671 29.3333 7.33337 29.3333H24.6667C25.7734 29.3333 26.6667 28.44 26.6667 27.3333V10.8H21.9467ZM21.08 23.38C20.8934 23.5666 20.6534 23.66 20.36 23.66H11.6267C11.34 23.66 11.1 23.5666 10.9067 23.38C10.72 23.1933 10.6267 22.9533 10.6267 22.66C10.6267 22.3666 10.72 22.1333 10.9067 21.9466C11.0934 21.76 11.3334 21.66 11.6267 21.66H20.36C20.6467 21.66 20.8867 21.7533 21.08 21.9466C21.2667 22.1333 21.36 22.3733 21.36 22.66C21.36 22.9466 21.2667 23.1866 21.08 23.38ZM21.08 17.7133C20.8934 17.9 20.6534 17.9933 20.36 17.9933H11.6267C11.34 17.9933 11.1 17.9 10.9067 17.7133C10.72 17.5266 10.6267 17.2866 10.6267 16.9933C10.6267 16.7 10.72 16.4666 10.9067 16.28C11.0934 16.0933 11.3334 15.9933 11.6267 15.9933H20.36C20.6467 15.9933 20.8867 16.0866 21.08 16.28C21.2667 16.4666 21.36 16.7066 21.36 16.9933C21.36 17.28 21.2667 17.52 21.08 17.7133Z" fill="#25CBDB"/>
<g opacity="0.2">
<path d="M11.6334 23.6667H20.3668C20.6534 23.6667 20.8934 23.5733 21.0868 23.3867C21.2734 23.2 21.3734 22.96 21.3734 22.6667C21.3734 22.3733 21.2801 22.14 21.0934 21.9467C20.9068 21.76 20.6668 21.6667 20.3734 21.6667H11.6401C11.3534 21.6667 11.1134 21.76 10.9201 21.9467C10.7268 22.1333 10.6334 22.3733 10.6334 22.6667C10.6334 22.96 10.7268 23.1933 10.9201 23.3867C11.1134 23.58 11.3468 23.6667 11.6334 23.6667Z" fill="#25CBDB"/>
<path d="M11.6334 18H20.3668C20.6534 18 20.8934 17.9067 21.0868 17.72C21.2734 17.5333 21.3734 17.2933 21.3734 17C21.3734 16.7067 21.2801 16.4733 21.0934 16.28C20.9068 16.0933 20.6668 16 20.3734 16H11.6401C11.3534 16 11.1134 16.0933 10.9201 16.28C10.7334 16.4667 10.6334 16.7067 10.6334 17C10.6334 17.2933 10.7268 17.5267 10.9201 17.72C11.1068 17.9067 11.3468 18 11.6401 18H11.6334Z" fill="#25CBDB"/>
</g>
<path opacity="0.32" d="M19.9468 7.3866V8.79993C19.9468 9.9066 20.8401 10.7999 21.9468 10.7999H26.6668C26.6668 10.2666 26.4534 9.75993 26.0801 9.3866H21.9468C20.8401 9.3866 19.9468 8.49326 19.9468 7.3866Z" fill="#25CBDB"/>
<path d="M21.9468 9.38663H26.0801L19.9468 3.2533V7.38663C19.9468 8.4933 20.8401 9.38663 21.9468 9.38663Z" fill="#25CBDB"/>
</svg>
