<svg width="32" height="32" viewBox="0 0 32 32" fill="none" xmlns="http://www.w3.org/2000/svg">
<path opacity="0.52" d="M29.3666 6C29.3666 5.44667 29.1733 4.97333 28.7799 4.58667C28.3933 4.2 27.9199 4 27.3666 4H4.69995C4.14662 4 3.67328 4.19333 3.28662 4.58667C2.89995 4.97333 2.69995 5.44667 2.69995 6V20H29.3666V6Z" fill="#25CBDB"/>
<path opacity="0.32" d="M29.3333 18V20H2.66663V18H29.3333Z" fill="#25CBDB"/>
<g opacity="0.85">
<path d="M12.1666 27.3333C11.88 27.3333 11.64 27.4267 11.4466 27.6133C11.26 27.8 11.1666 28.04 11.1666 28.3333C11.1666 28.6267 11.26 28.86 11.4466 29.0467C11.6333 29.2333 11.8733 29.3333 12.1666 29.3333H19.9C20.1866 29.3333 20.4266 29.24 20.6133 29.0467C20.8 28.86 20.9 28.62 20.9 28.3333C20.9 28.0467 20.8066 27.8067 20.6133 27.6133C20.4266 27.4267 20.1866 27.3333 19.9 27.3333H12.1666Z" fill="#25CBDB"/>
<path d="M2.66663 20H29.3333V22C29.3333 23.1067 28.44 24 27.3333 24H4.66663C3.55996 24 2.66663 23.1067 2.66663 22V20Z" fill="#25CBDB"/>
</g>
<path d="M18.0333 27.3333V24H14.0333V27.3333" fill="#25CBDB"/>
</svg>
