<svg width="32" height="32" viewBox="0 0 32 32" fill="none" xmlns="http://www.w3.org/2000/svg">
<g opacity="0.32">
<path d="M8.6 7.33337L6.76666 12.8667H25.2333L23.4 7.33337H8.6Z" fill="#25CBDB"/>
<path d="M22.5 16.5334C21.9867 16.5334 21.56 16.7134 21.22 17.08C20.88 17.4467 20.7 17.8867 20.7 18.4C20.7 18.9134 20.88 19.34 21.2333 19.68C21.5867 20.0267 22.0133 20.2 22.5 20.2C22.9867 20.2 23.4467 20.02 23.8133 19.6667C24.18 19.3134 24.3667 18.8867 24.3667 18.4C24.3667 17.9134 24.1867 17.4467 23.8133 17.08C23.4467 16.7134 23.0067 16.5334 22.5 16.5334Z" fill="#25CBDB"/>
<path d="M9.53333 16.5334C9.02 16.5334 8.58666 16.7134 8.22 17.08C7.85333 17.4467 7.66666 17.8867 7.66666 18.4C7.66666 18.9134 7.85333 19.34 8.22 19.68C8.58666 20.02 9.02666 20.2 9.53333 20.2C10.04 20.2 10.4733 20.02 10.8133 19.6667C11.16 19.3134 11.3333 18.8867 11.3333 18.4C11.3333 17.9134 11.16 17.4467 10.8133 17.08C10.4667 16.7134 10.04 16.5334 9.53333 16.5334Z" fill="#25CBDB"/>
</g>
<path opacity="0.85" d="M25.1667 6.33337C25.0533 6.02004 24.8733 5.78004 24.6133 5.60004C24.36 5.42004 24.06 5.33337 23.7267 5.33337H8.26668C7.93335 5.33337 7.64001 5.42004 7.38001 5.60004C7.12668 5.78004 6.94001 6.02004 6.82668 6.33337L3.99335 14.8667V25.6667C3.99335 25.9534 4.08668 26.1934 4.27335 26.38C4.46001 26.5667 4.70001 26.6667 4.99335 26.6667H5.66001C5.94668 26.6667 6.18668 26.5734 6.38001 26.38C6.56668 26.1934 6.66001 25.9534 6.66001 25.6667V23.8667H25.2933V25.6667C25.2933 25.9534 25.3867 26.1934 25.5733 26.38C25.76 26.5667 26 26.6667 26.2933 26.6667H26.9933C27.28 26.6667 27.52 26.5734 27.7133 26.38C27.9 26.1934 27.9933 25.9534 27.9933 25.6667V14.8667L25.16 6.33337H25.1667ZM6.76668 12.8667L8.60001 7.33337H23.4L25.2333 12.8667H6.76668ZM24.3667 18.4C24.3667 18.8867 24.1867 19.3134 23.8133 19.6667C23.4467 20.02 23.0067 20.2 22.5 20.2C21.9933 20.2 21.5867 20.0267 21.2333 19.68C20.88 19.3334 20.7 18.9067 20.7 18.4C20.7 17.8934 20.8733 17.4467 21.22 17.08C21.5667 16.7134 21.9933 16.5334 22.5 16.5334C23.0067 16.5334 23.4467 16.7134 23.8133 17.08C24.18 17.4467 24.3667 17.8867 24.3667 18.4ZM11.3333 18.4C11.3333 18.8867 11.16 19.3134 10.8133 19.6667C10.4667 20.02 10.04 20.2 9.53335 20.2C9.02668 20.2 8.58668 20.0267 8.22001 19.68C7.85335 19.3334 7.66668 18.9067 7.66668 18.4C7.66668 17.8934 7.85335 17.4467 8.22001 17.08C8.58668 16.7134 9.02668 16.5334 9.53335 16.5334C10.04 16.5334 10.4733 16.7134 10.8133 17.08C11.1533 17.4467 11.3333 17.8867 11.3333 18.4Z" fill="#25CBDB"/>
</svg>
