<svg width="32" height="32" viewBox="0 0 32 32" fill="none" xmlns="http://www.w3.org/2000/svg">
<path opacity="0.52" d="M21.9466 10.8001C20.8399 10.8001 19.9466 9.90675 19.9466 8.80008V3.25341C19.5733 2.88008 19.0599 2.66675 18.5333 2.66675H7.33325C6.22659 2.66675 5.33325 3.56008 5.33325 4.66675V27.3334C5.33325 28.4401 6.22659 29.3334 7.33325 29.3334H18.6999C18.6399 29.2801 18.5799 29.2267 18.5199 29.1667C17.2866 27.9467 16.6666 26.4534 16.6666 24.7001C16.6666 24.5334 16.6733 24.3667 16.6866 24.2001C16.7933 25.7401 17.4066 27.0667 18.5199 28.1667C19.0066 28.6534 19.5466 29.0401 20.1199 29.3334H24.6666C25.7733 29.3334 26.6666 28.4401 26.6666 27.3334V10.8001H21.9466ZM25.6666 25.6001C25.7799 25.7134 25.8333 25.8401 25.8333 25.9801C25.8333 26.1201 25.7799 26.2534 25.6666 26.3667C25.5533 26.4801 25.4266 26.5401 25.2866 26.5467C25.1399 26.5601 25.0133 26.5134 24.8999 26.4001L22.9999 24.5001L21.0666 26.4001C20.9533 26.5134 20.8266 26.5667 20.6866 26.5667C20.5466 26.5667 20.4133 26.5134 20.2999 26.4001C20.1866 26.2867 20.1333 26.1534 20.1333 26.0001C20.1333 25.8467 20.1866 25.7134 20.2999 25.6001L22.2333 23.6667L20.2999 21.7001C20.1866 21.5867 20.1333 21.4601 20.1333 21.3134C20.1333 21.1667 20.1866 21.0467 20.2999 20.9334C20.4133 20.8201 20.5333 20.7667 20.6666 20.7667C20.7999 20.7667 20.9199 20.8201 21.0333 20.9334L22.9999 22.9001L24.9666 20.9334C25.0799 20.8201 25.2066 20.7667 25.3533 20.7667C25.4999 20.7667 25.6199 20.8201 25.7333 20.9334C25.8466 21.0467 25.8999 21.1734 25.8999 21.3134C25.8999 21.4534 25.8466 21.5867 25.7333 21.7001L23.7333 23.7001L25.6666 25.6001Z" fill="currentColor"/>
<path d="M21.9467 9.38675H26.0801L19.9467 3.25342V7.38675C19.9467 8.49342 20.8401 9.38675 21.9467 9.38675Z" fill="currentColor"/>
<path d="M27.4867 19.2001C27.2267 18.9334 26.9467 18.7001 26.6667 18.4868C25.6067 17.7201 24.3801 17.3334 23.0001 17.3334C21.2467 17.3334 19.7534 17.9534 18.5201 19.2001C17.2867 20.4468 16.6667 21.9468 16.6667 23.7001C16.6667 23.8668 16.6734 24.0334 16.6867 24.2001C16.7934 25.7401 17.4067 27.0668 18.5201 28.1668C19.0067 28.6534 19.5467 29.0401 20.1201 29.3334C20.9867 29.7801 21.9467 30.0001 23.0001 30.0001C24.7534 30.0001 26.2534 29.3868 27.4867 28.1668C28.7201 26.9468 29.3334 25.4534 29.3334 23.7001C29.3334 21.9468 28.7201 20.4468 27.4867 19.2001ZM20.3001 21.7001C20.1867 21.5868 20.1334 21.4601 20.1334 21.3134C20.1334 21.1667 20.1867 21.0468 20.3001 20.9334C20.4134 20.8201 20.5334 20.7668 20.6667 20.7668C20.8001 20.7668 20.9201 20.8201 21.0334 20.9334L23.0001 22.9001L24.9667 20.9334C25.0801 20.8201 25.2067 20.7668 25.3534 20.7668C25.5001 20.7668 25.6201 20.8201 25.7334 20.9334C25.8467 21.0468 25.9001 21.1734 25.9001 21.3134C25.9001 21.4534 25.8467 21.5868 25.7334 21.7001L23.7334 23.7001L25.6667 25.6001C25.7801 25.7134 25.8334 25.8401 25.8334 25.9801C25.8334 26.1201 25.7801 26.2534 25.6667 26.3668C25.5534 26.4801 25.4267 26.5401 25.2867 26.5468C25.1401 26.5601 25.0134 26.5134 24.9001 26.4001L23.0001 24.5001L21.0667 26.4001C20.9534 26.5134 20.8267 26.5668 20.6867 26.5668C20.5467 26.5668 20.4134 26.5134 20.3001 26.4001C20.1867 26.2868 20.1334 26.1534 20.1334 26.0001C20.1334 25.8468 20.1867 25.7134 20.3001 25.6001L22.2334 23.6668L20.3001 21.7001Z" fill="currentColor"/>
<g opacity="0.2">
<path d="M21.9467 9.38672C20.8401 9.38672 19.9467 8.49339 19.9467 7.38672V8.80005C19.9467 9.90672 20.8401 10.8001 21.9467 10.8001H26.6667C26.6667 10.2667 26.4534 9.76005 26.0801 9.38672H21.9467Z" fill="currentColor"/>
<path d="M20.1201 29.3334H18.7001C18.6401 29.2801 18.5801 29.2267 18.5201 29.1667C17.2867 27.9467 16.6667 26.4534 16.6667 24.7001C16.6667 24.5334 16.6734 24.3667 16.6867 24.2001C16.7934 25.74 17.4067 27.0667 18.5201 28.1667C19.0067 28.6534 19.5467 29.0401 20.1201 29.3334Z" fill="currentColor"/>
<path d="M25.6667 25.6001C25.7801 25.7134 25.8334 25.8401 25.8334 25.9801C25.8334 26.1201 25.7801 26.2534 25.6667 26.3667C25.5534 26.4801 25.4267 26.5401 25.2867 26.5467C25.1401 26.5601 25.0134 26.5134 24.9001 26.4001L23.0001 24.5001L21.0667 26.4001C20.9534 26.5134 20.8267 26.5667 20.6867 26.5667C20.5467 26.5667 20.4134 26.5134 20.3001 26.4001C20.1867 26.2867 20.1334 26.1534 20.1334 26.0001C20.1334 25.8467 20.1867 25.7134 20.3001 25.6001L22.2334 23.6667L20.3001 21.7001C20.1867 21.5867 20.1334 21.4601 20.1334 21.3134C20.1334 21.1667 20.1867 21.0467 20.3001 20.9334C20.4134 20.8201 20.5334 20.7667 20.6667 20.7667C20.8001 20.7667 20.9201 20.8201 21.0334 20.9334L23.0001 22.9001L24.9667 20.9334C25.0801 20.8201 25.2067 20.7667 25.3534 20.7667C25.5001 20.7667 25.6201 20.8201 25.7334 20.9334C25.8467 21.0467 25.9001 21.1734 25.9001 21.3134C25.9001 21.4534 25.8467 21.5867 25.7334 21.7001L23.7334 23.7001L25.6667 25.6001Z" fill="currentColor"/>
</g>
</svg>
