<svg width="32" height="32" viewBox="0 0 32 32" fill="none" xmlns="http://www.w3.org/2000/svg">
<path opacity="0.52" d="M12 16C12 13.7934 13.7933 12 16 12V2.66669C8.63329 2.66669 2.66663 8.63335 2.66663 16C2.66663 23.3667 8.63329 29.3334 16 29.3334V20C13.7933 20 12 18.2067 12 16Z" fill="#25CBDB"/>
<path d="M20 16H29.3333C29.3333 8.63335 23.3667 2.66669 16 2.66669V12C18.2067 12 20 13.7934 20 16Z" fill="#25CBDB"/>
<path opacity="0.2" d="M20 16C20 18.2067 18.2067 20 16 20V29.3333C23.3667 29.3333 29.3333 23.3667 29.3333 16H20Z" fill="#25CBDB"/>
</svg>
