<svg width="32" height="32" viewBox="0 0 32 32" fill="none" xmlns="http://www.w3.org/2000/svg">
<path opacity="0.52" d="M27 25.8333H25.3067V8.89996C25.3067 7.66663 24.3067 6.66663 23.0733 6.66663H8.9C7.66667 6.66663 6.66667 7.66663 6.66667 8.89996V25.8333H5C4.44667 25.8333 4 26.28 4 26.8333C4 27.3866 4.44667 27.8333 5 27.8333H27C27.5533 27.8333 28 27.3866 28 26.8333C28 26.28 27.5533 25.8333 27 25.8333ZM8.9 27.8333V8.89996H23.0667V27.8333H8.9V27.8333Z" fill="#25CBDB"/>
<path d="M17.52 4.11329L8.18667 6.30663C7.28 6.51996 6.64667 7.32663 6.64667 8.25329V27.8333H19.9733V6.05996C19.9733 4.77329 18.7733 3.81996 17.5133 4.11329H17.52ZM16 18.1666C15.4467 18.1666 15 17.72 15 17.1666C15 16.6133 15.4467 16.1666 16 16.1666C16.5533 16.1666 17 16.6133 17 17.1666C17 17.72 16.5533 18.1666 16 18.1666Z" fill="#25CBDB"/>
</svg>
