<svg width="32" height="32" viewBox="0 0 32 32" fill="none" xmlns="http://www.w3.org/2000/svg">
<path opacity="0.32" d="M16.0001 27.3334C22.2593 27.3334 27.3334 22.2593 27.3334 16.0001C27.3334 9.74085 22.2593 4.66675 16.0001 4.66675C9.74085 4.66675 4.66675 9.74085 4.66675 16.0001C4.66675 22.2593 9.74085 27.3334 16.0001 27.3334Z" fill="#25CBDB"/>
<path d="M22.3867 20.9534C22.1934 20.7601 21.9534 20.6667 21.6667 20.6667H10.3334C10.0467 20.6667 9.80675 20.7601 9.61341 20.9534C9.42675 21.1401 9.33341 21.3801 9.33341 21.6667C9.33341 21.9534 9.42675 22.1934 9.61341 22.3867C9.80675 22.5734 10.0467 22.6667 10.3334 22.6667H21.6667C21.9534 22.6667 22.1934 22.5734 22.3867 22.3867C22.5734 22.1934 22.6667 21.9534 22.6667 21.6667C22.6667 21.3801 22.5734 21.1401 22.3867 20.9534Z" fill="#25CBDB"/>
<path d="M15.2001 17.7667C15.4001 17.9667 15.6334 18.0667 15.9001 18.0667C16.1667 18.0667 16.4001 17.9667 16.6001 17.7667L20.4667 13.9334C20.6667 13.7334 20.7667 13.5001 20.7667 13.2334C20.7667 12.9667 20.6667 12.7334 20.4667 12.5334C20.2667 12.3334 20.0334 12.2401 19.7667 12.2534C19.5001 12.2601 19.2667 12.3534 19.0667 12.5334L16.9334 14.6334V9.00008C16.9334 8.71341 16.8401 8.47341 16.6534 8.28675C16.4601 8.09341 16.2201 8.00008 15.9334 8.00008C15.6467 8.00008 15.4067 8.09341 15.2134 8.28675C15.0267 8.47341 14.9334 8.71341 14.9334 9.00008V14.6334L12.8001 12.5334C12.6001 12.3534 12.3667 12.2601 12.1001 12.2534C11.8334 12.2401 11.6001 12.3334 11.4001 12.5334C11.2001 12.7334 11.1001 12.9667 11.1001 13.2334C11.1001 13.5001 11.2001 13.7334 11.4001 13.9334L15.2001 17.7667Z" fill="#25CBDB"/>
<path d="M16.0001 4.66675C22.2467 4.66675 27.3334 9.75341 27.3334 16.0001C27.3334 22.2467 22.2467 27.3334 16.0001 27.3334C9.75341 27.3334 4.66675 22.2467 4.66675 16.0001C4.66675 9.75341 9.75341 4.66675 16.0001 4.66675ZM16.0001 2.66675C8.63341 2.66675 2.66675 8.63341 2.66675 16.0001C2.66675 23.3667 8.63341 29.3334 16.0001 29.3334C23.3667 29.3334 29.3334 23.3667 29.3334 16.0001C29.3334 8.63341 23.3667 2.66675 16.0001 2.66675Z" fill="#25CBDB"/>
</svg>
