<svg width="32" height="32" viewBox="0 0 32 32" fill="none" xmlns="http://www.w3.org/2000/svg">
<path opacity="0.85" d="M19.9466 8.79996V3.25329C19.5733 2.87996 19.0599 2.66663 18.5333 2.66663H7.33325C6.22659 2.66663 5.33325 3.55996 5.33325 4.66663V27.3333C5.33325 28.44 6.22659 29.3333 7.33325 29.3333H24.6666C25.7733 29.3333 26.6666 28.44 26.6666 27.3333V10.8H21.9466C20.8399 10.8 19.9466 9.90663 19.9466 8.79996Z" fill="#25CBDB"/>
<path opacity="0.32" d="M21.9467 9.3866C20.84 9.3866 19.9467 8.49326 19.9467 7.3866V8.79993C19.9467 9.9066 20.84 10.7999 21.9467 10.7999H26.6667C26.6667 10.2666 26.4533 9.75993 26.08 9.3866H21.9467Z" fill="#25CBDB"/>
<path d="M21.9467 9.38663H26.08L19.9467 3.2533V7.38663C19.9467 8.4933 20.84 9.38663 21.9467 9.38663Z" fill="#25CBDB"/>
</svg>
