<svg width="32" height="32" viewBox="0 0 32 32" fill="none" xmlns="http://www.w3.org/2000/svg">
<path opacity="0.32" d="M6.96 24.2C5.98 23.2 5.22 22.0467 4.67333 20.7333C4.12667 19.42 3.86 18.08 3.86 16.7C3.86 15.08 4.14 13.5933 4.71333 12.2533C5.28 10.9067 6.13333 9.66666 7.26667 8.53333C8.04667 7.75333 9.01333 7.1 10.1667 6.56667C11.32 6.03333 12.68 5.61333 14.2467 5.31333C15.8133 5.01333 17.5867 4.82666 19.5667 4.74666C21.5467 4.66666 23.7467 4.70667 26.1667 4.86667C26.3467 7.26667 26.4067 9.46 26.3533 11.4533C26.3 13.44 26.12 15.2267 25.82 16.8C25.52 18.38 25.1 19.76 24.5533 20.9533C24.0067 22.14 23.3333 23.1333 22.5333 23.9333C21.4 25.0667 20.18 25.92 18.8667 26.5C17.5533 27.08 16.1533 27.3667 14.6667 27.3667C13.18 27.3667 11.7267 27.1067 10.4533 26.5867C9.17333 26.0667 8.01333 25.2733 6.96667 24.2067L6.96 24.2Z" fill="#25CBDB"/>
<path d="M18.6133 6.81329C16.96 6.91329 15.5 7.09328 14.2333 7.35995C12.9667 7.62662 11.88 7.96662 10.9667 8.37329C10.0533 8.78662 9.31334 9.29329 8.73334 9.89329C7.8 10.8466 7.08667 11.86 6.6 12.9266C6.11333 13.9933 5.86667 15.08 5.86667 16.1933C5.86667 17.3066 6.09334 18.3733 6.54667 19.54C7 20.7066 7.56667 21.6466 8.23334 22.36C9.41334 20.18 10.82 18.2266 12.4667 16.4933C14.1133 14.76 15.8533 13.3933 17.7 12.3933C15.7667 14.06 14.2 15.8666 13 17.8066C11.8 19.7533 10.9333 21.88 10.4 24.1866C10.9533 24.5666 11.6 24.8533 12.3333 25.0533C13.0667 25.2533 13.8467 25.3533 14.6667 25.3533C15.8467 25.3533 16.9867 25.1066 18.1 24.62C19.2133 24.1333 20.22 23.42 21.1333 22.4866C21.7333 21.8866 22.2467 21.1066 22.6667 20.14C23.0867 19.1733 23.4333 18.0266 23.7 16.7066C23.9667 15.3866 24.1467 13.8933 24.2333 12.2266C24.32 10.56 24.32 8.72662 24.2333 6.72662C22.1467 6.67995 20.2733 6.70662 18.6133 6.80662V6.81329Z" fill="#25CBDB"/>
</svg>
