<svg width="32" height="32" viewBox="0 0 32 32" fill="none" xmlns="http://www.w3.org/2000/svg">
<path d="M6 26H26V11.6267L18.2667 19.4C18.0867 19.58 17.8733 19.72 17.62 19.8333C17.3667 19.9467 17.1 20 16.8333 20H13C12.7133 20 12.4733 19.9067 12.2867 19.72C12.1 19.5333 12.0067 19.2933 12 19V15.1667C12 14.9 12.0533 14.64 12.1667 14.3867C12.28 14.1333 12.42 13.9133 12.6 13.7333L20.3333 6H6V26Z" fill="#25CBDB"/>
<path opacity="0.52" d="M12.6 13.7333C12.42 13.9133 12.28 14.1267 12.1667 14.3867C12.0533 14.64 12 14.9 12 15.1667V16.5267L15.4867 20H16.8333C17.1 20 17.36 19.9467 17.62 19.8333C17.8733 19.72 18.0933 19.58 18.2667 19.4L28.0533 9.55333L22.4133 3.91333L12.6 13.7333Z" fill="#25CBDB"/>
<g opacity="0.2">
<path d="M12.2801 19.7199C12.4667 19.9066 12.7067 19.9999 12.9934 19.9999H15.4801L11.9934 16.5266V18.9999C11.9934 19.2866 12.0867 19.5266 12.2801 19.7199Z" fill="#25CBDB"/>
<path d="M30.7866 5.09994C30.6866 4.85328 30.5333 4.63328 30.3333 4.43328L27.5666 1.63328C27.3666 1.43328 27.1399 1.27994 26.8799 1.17994C26.6266 1.07994 26.3733 1.02661 26.1333 1.02661C25.8866 1.02661 25.6466 1.07328 25.3999 1.15994C25.1533 1.24661 24.9333 1.39328 24.7333 1.59328L22.4199 3.90661L28.0599 9.54661L30.3399 7.25994C30.5399 7.05994 30.6866 6.83328 30.7866 6.57328C30.8866 6.31994 30.9399 6.06661 30.9399 5.82661C30.9399 5.57994 30.8866 5.33994 30.7866 5.09328V5.09994Z" fill="#25CBDB"/>
</g>
<path opacity="0.85" d="M26 11.6267V26H6V6H20.3333L22.3333 4H6C4.89333 4 4 4.89333 4 6V26C4 27.1067 4.89333 28 6 28H26C27.1067 28 28 27.1067 28 26V9.61333L26 11.6267Z" fill="#25CBDB"/>
</svg>
