<svg width="32" height="32" viewBox="0 0 32 32" fill="none" xmlns="http://www.w3.org/2000/svg">
<g opacity="0.32">
<path d="M14.2667 25.3335L13.5801 26.2468H11.0801L11.7667 25.3335H14.2667Z" fill="currentColor"/>
<path d="M19.6667 25.3335H17.6667V26.2468H19.6667V25.3335Z" fill="currentColor"/>
</g>
<g opacity="0.52">
<path d="M23.7333 15.2333C23.12 15.5533 22.7 16.18 22.66 16.9C21.66 16.6333 20.6667 16.1466 19.6667 15.4333C18.6667 14.72 17.9 13.9333 17.3667 13.0666C14.76 8.37331 15.7667 8.26664 15.86 8.26664C16.48 8.26664 16.9867 8.49998 17.38 8.96664C17.7667 9.43331 18.18 10.1666 18.6267 11.1666C19.0733 12.1866 19.7267 13.0266 20.5933 13.68C21.46 14.34 22.5067 14.8533 23.7267 15.2333H23.7333Z" fill="currentColor"/>
<path d="M20.0333 4.34664C20.0333 5.69998 18.9333 6.79998 17.58 6.79998C16.2267 6.79998 15.1267 5.69998 15.1267 4.34664C15.1267 4.09331 15.1667 3.85331 15.2333 3.62664C15.3867 3.69998 15.5533 3.73998 15.7333 3.73998C16.4 3.73998 16.94 3.19998 16.94 2.53331C16.94 2.34664 16.9 2.17331 16.82 2.01998C17.06 1.93331 17.3133 1.89331 17.58 1.89331C18.9333 1.89331 20.0333 2.99331 20.0333 4.34664Z" fill="currentColor"/>
<path d="M13.58 26.2466L10.8667 29.8666C10.6867 30.0866 10.4667 30.2199 10.2 30.2666C9.93332 30.3132 9.68666 30.2466 9.46666 30.0666C9.24666 29.8866 9.11332 29.6666 9.06666 29.3999C9.01999 29.1332 9.08666 28.8866 9.26666 28.6666L11.08 26.2466H13.58Z" fill="currentColor"/>
<path d="M19.6667 26.2466V29.6666C19.6667 30.2199 19.22 30.6666 18.6667 30.6666C18.1133 30.6666 17.6667 30.2199 17.6667 29.6666V26.2466H19.6667Z" fill="currentColor"/>
</g>
<path d="M19.6668 25.3333H9.36676C9.11343 25.3333 8.86009 25.2266 8.70009 25.0333C8.47343 24.7599 8.38009 24.4466 8.40009 24.0999C8.53343 22.1866 8.80676 20.4333 9.22009 18.8333C9.62676 17.2333 10.2001 15.5999 10.9334 13.9333C11.6668 12.2666 12.4601 10.9066 13.3201 9.8466C14.1734 8.79327 15.0134 8.2666 15.8601 8.2666C15.7668 8.2666 14.7601 8.37327 17.3668 13.0666L16.1334 16.9999L19.6668 24.8333V25.3333Z" fill="currentColor"/>
<g opacity="0.85">
<path d="M26.6665 17.0137V30.167C26.6665 30.4403 26.4399 30.667 26.1665 30.667C25.8932 30.667 25.6665 30.4403 25.6665 30.167V17.0137C25.6665 16.4603 25.2132 16.007 24.6599 16.007C24.1065 16.007 23.6532 16.4603 23.6532 17.0137V18.007C23.6532 18.2803 23.4332 18.507 23.1532 18.507C22.8732 18.507 22.6532 18.2803 22.6532 18.007V17.0137C22.6532 16.9737 22.6532 16.9403 22.6532 16.9003C22.6932 16.1803 23.1132 15.5537 23.7265 15.2337C23.9999 15.087 24.3132 15.007 24.6465 15.007C25.7532 15.007 26.6532 15.907 26.6532 17.0137H26.6665Z" fill="currentColor"/>
<path d="M16.9399 2.5335C16.9399 3.20016 16.3999 3.74016 15.7332 3.74016C15.5532 3.74016 15.3865 3.70016 15.2332 3.62683C14.8199 3.44016 14.5332 3.02016 14.5332 2.5335C14.5332 1.8735 15.0732 1.3335 15.7332 1.3335C16.2132 1.3335 16.6265 1.6135 16.8199 2.02016C16.8999 2.1735 16.9399 2.34683 16.9399 2.5335Z" fill="currentColor"/>
</g>
</svg>
