<svg width="32" height="32" viewBox="0 0 32 32" fill="none" xmlns="http://www.w3.org/2000/svg">
<path opacity="0.85" d="M24.6134 14.9933C23.5 14.9866 22.38 14.6799 21.2667 14.0799C20.1334 13.4666 19.3467 12.6866 18.9 11.7333L18.0334 9.7666C17.8134 9.25327 17.4934 8.87994 17.0867 8.63327C16.6734 8.3866 16.2134 8.2666 15.7 8.2666C15.3467 8.2666 14.9934 8.31993 14.6534 8.43327C14.3134 8.5466 13.9467 8.71327 13.5734 8.93327L9.00671 11.5666C8.69338 11.7466 8.44671 11.9933 8.26671 12.2999C8.09338 12.6066 8.00671 12.9399 8.00671 13.2999V15.9999C8.00671 16.2799 8.10005 16.5199 8.28671 16.7133C8.47338 16.9066 8.71338 16.9999 9.00005 16.9999C9.28671 16.9999 9.52671 16.9066 9.72005 16.7199C9.91338 16.5333 10.0067 16.2866 10.0067 15.9866V13.2999L13.24 11.4333C12.86 12.4799 12.5934 13.6466 12.44 14.9333C12.2867 16.2199 12.2267 17.3999 12.2734 18.4666L12.54 24.8333L9.67338 28.6666C9.49338 28.8933 9.42671 29.1399 9.47338 29.4066C9.52005 29.6666 9.65338 29.8866 9.87338 30.0666C10.1 30.2466 10.3467 30.3133 10.6134 30.2666C10.8734 30.2199 11.0934 30.0866 11.2734 29.8666L14.3067 25.7999C14.42 25.6466 14.5067 25.4799 14.5734 25.2999C14.64 25.1199 14.6867 24.9333 14.7067 24.7333L15.0067 20.1999L17.84 23.3666V29.6666C17.84 29.9466 17.9334 30.1866 18.12 30.3799C18.3067 30.5733 18.5467 30.6666 18.8334 30.6666C19.12 30.6666 19.36 30.5733 19.5534 30.3799C19.7467 30.1866 19.84 29.9533 19.84 29.6666V23.1999C19.84 23.0066 19.8067 22.8133 19.74 22.6199C19.6734 22.4266 19.5867 22.2399 19.4734 22.0666L16.6067 17.9999C16.56 17.1999 16.6067 16.3866 16.7534 15.5666C16.9 14.7466 17.1067 13.9466 17.3667 13.1666C17.9 13.9866 18.6734 14.7533 19.6867 15.4466C20.7 16.1466 21.6934 16.5866 22.6667 16.7666H22.6867C22.8067 15.7866 23.6134 15.0266 24.6134 14.9933Z" fill="#25CBDB"/>
<path opacity="0.52" d="M26.1734 30.6466C25.9 30.6466 25.6734 30.4199 25.6734 30.1466V16.9932C25.6734 16.4399 25.22 15.9866 24.6667 15.9866C24.1134 15.9866 23.66 16.4399 23.66 16.9932V17.4932C23.66 17.7666 23.4334 17.9932 23.16 17.9932C22.8867 17.9932 22.66 17.7666 22.66 17.4932V16.9932C22.66 15.8866 23.56 14.9866 24.6667 14.9866C25.7734 14.9866 26.6734 15.8866 26.6734 16.9932V30.1466C26.6734 30.4199 26.4467 30.6466 26.1734 30.6466Z" fill="#25CBDB"/>
<path opacity="0.85" d="M17.9333 6.86667C18.6 6.86667 19.1733 6.62667 19.6533 6.15333C20.1267 5.67333 20.3667 5.1 20.3667 4.43333C20.3667 3.76667 20.1267 3.19333 19.6467 2.71333C19.1667 2.24 18.5933 2 17.9267 2C17.26 2 16.6867 2.24 16.2133 2.72C15.74 3.2 15.5 3.77333 15.5 4.44C15.5 5.10667 15.74 5.68 16.22 6.16C16.7 6.64 17.2733 6.87333 17.94 6.87333L17.9333 6.86667Z" fill="#25CBDB"/>
</svg>
