<svg width="32" height="32" viewBox="0 0 32 32" fill="none" xmlns="http://www.w3.org/2000/svg">
<path d="M27.2201 27.9333H4.66675C3.56008 27.9333 2.66675 27.04 2.66675 25.9333V12.6C2.66675 13.36 3.08675 14.02 3.71341 14.36L14.9934 20.88C14.9934 20.88 15.0067 20.8866 15.0134 20.8933L16.0001 21.46L27.2201 27.9333Z" fill="#25CBDB"/>
<path opacity="0.32" d="M29.3334 12.6C29.3334 13.36 28.9134 14.02 28.2867 14.36L17.0001 20.88C16.3867 21.2333 15.6267 21.24 15.0134 20.8933C15.0134 20.8933 15.0001 20.8933 14.9934 20.88L3.71341 14.36C3.08675 14.02 2.66675 13.36 2.66675 12.6C2.66675 11.9133 3.01341 11.3 3.54675 10.94C3.60675 10.9 3.67341 10.86 3.73341 10.8266L15.0001 4.32665C15.6134 3.97331 16.3801 3.97331 16.9934 4.32665L28.2601 10.8266C28.3267 10.86 28.3934 10.9 28.4534 10.94C28.9801 11.3 29.3334 11.9133 29.3334 12.6Z" fill="#25CBDB"/>
<path opacity="0.85" fill-rule="evenodd" clip-rule="evenodd" d="M7.47337 6.66663H24.5267C25.7067 6.66663 26.6667 7.62663 26.6667 8.80663V15.2958L28.2867 14.36C28.9134 14.02 29.3334 13.36 29.3334 12.6V25.9333C29.3334 27.04 28.4334 27.9333 27.3334 27.9333H27.22L16 21.46L15.1353 20.9634C15.0941 20.9437 15.0534 20.9226 15.0134 20.9C15.0067 20.8866 14.9934 20.8866 14.9934 20.8866L5.33337 15.3V8.80663C5.33337 7.62663 6.29337 6.66663 7.47337 6.66663ZM15 15.7066C15.2934 15.7066 15.5334 15.6066 15.72 15.42C15.9067 15.2333 16 14.9933 16 14.7066C16 14.42 15.9067 14.18 15.72 13.9933C15.5267 13.8 15.2867 13.7066 15 13.7066H10.3C10.0067 13.7066 9.76671 13.8066 9.58004 13.9933C9.39337 14.18 9.30004 14.42 9.30004 14.7066C9.30004 14.9933 9.38671 15.2266 9.58004 15.42C9.77337 15.6133 10.0134 15.7066 10.3 15.7066H15ZM21.7 11.7066C21.9934 11.7066 22.2334 11.6066 22.42 11.42C22.6067 11.2333 22.7 10.9933 22.7 10.7066C22.7 10.42 22.6067 10.18 22.42 9.99329C22.2267 9.79996 21.9867 9.70663 21.7 9.70663H10.3C10.0067 9.70663 9.76671 9.80663 9.58004 9.99329C9.39337 10.18 9.30004 10.42 9.30004 10.7066C9.30004 10.9933 9.38671 11.2266 9.58004 11.42C9.77337 11.6133 10.0134 11.7066 10.3 11.7066H21.7Z" fill="#25CBDB"/>
</svg>
