<svg width="32" height="32" viewBox="0 0 32 32" fill="none" xmlns="http://www.w3.org/2000/svg">
<path opacity="0.32" fill-rule="evenodd" clip-rule="evenodd" d="M27.6334 15.9801L16 27.6134V27.6201L4.3667 15.9867L16 4.35339L27.6334 15.9801Z" fill="#25CBDB"/>
<path d="M17.4 29.0467C17.22 29.2267 17.0134 29.3667 16.7667 29.4601C16.52 29.5601 16.2667 29.6067 16 29.6067C15.7334 29.6067 15.48 29.5601 15.2334 29.4601C14.9867 29.3601 14.78 29.2201 14.6 29.0467L2.93336 17.3867C2.75336 17.2067 2.62002 17.0001 2.53336 16.7534C2.44669 16.5067 2.40002 16.2534 2.40002 15.9867C2.40002 15.7201 2.44669 15.4667 2.53336 15.2201C2.62002 14.9734 2.75336 14.7667 2.93336 14.5867L14.6 2.92005C14.78 2.74005 14.9867 2.60672 15.2334 2.52005C15.48 2.43339 15.7334 2.38672 16 2.38672C16.2667 2.38672 16.52 2.43339 16.7667 2.52005C17.0134 2.60672 17.22 2.74005 17.4 2.92005L29.0667 14.5867C29.2467 14.7667 29.38 14.9734 29.4667 15.2201C29.5534 15.4667 29.6 15.7201 29.6 15.9867C29.6 16.2534 29.5534 16.5067 29.4667 16.7534C29.38 17.0001 29.2467 17.2067 29.0667 17.3867L17.4 29.0534V29.0467ZM16 27.6134L27.6334 15.9801L16 4.35339L4.36669 15.9867L16 27.6201V27.6134ZM16 17.3134C16.2867 17.3134 16.5267 17.2201 16.72 17.0334C16.9067 16.8467 17 16.6067 17 16.3134V10.3134C17 10.0267 16.9067 9.78672 16.72 9.60005C16.5334 9.41339 16.2934 9.31339 16 9.31339C15.7067 9.31339 15.4734 9.40672 15.28 9.60005C15.0934 9.78672 15 10.0267 15 10.3134V16.3134C15 16.6001 15.0934 16.8401 15.28 17.0334C15.4667 17.2201 15.7067 17.3134 16 17.3134ZM16 20.9801C16.2667 20.9801 16.5 20.8801 16.7 20.6801C16.9 20.4801 17 20.2467 17 19.9801C17 19.7134 16.9 19.4801 16.7 19.2801C16.5 19.0801 16.2667 18.9801 16 18.9801C15.7334 18.9801 15.5 19.0801 15.3 19.2801C15.1 19.4801 15 19.7134 15 19.9801C15 20.2467 15.1 20.4801 15.3 20.6801C15.5 20.8801 15.7334 20.9801 16 20.9801Z" fill="#25CBDB"/>
</svg>
