<svg width="32" height="32" viewBox="0 0 32 32" fill="none" xmlns="http://www.w3.org/2000/svg">
<path opacity="0.52" d="M16 17.3134C16.7333 17.3134 17.3333 17.9134 17.3333 18.6467V24.6667H14.6666V18.6467C14.6666 17.9134 15.2666 17.3134 16 17.3134Z" fill="#25CBDB"/>
<path opacity="0.52" d="M9.03333 24.6667L11.8333 15.4333C11.9667 15.0133 12.2067 14.6667 12.5533 14.4C12.9 14.1333 13.2933 14 13.7333 14H18.2667C18.7133 14 19.1067 14.1333 19.4467 14.4C19.7933 14.6667 20.0333 15.0133 20.1667 15.4333L22.9667 24.6667H9.03333Z" fill="#25CBDB"/>
<g opacity="0.85">
<path d="M8 24.6667H24C24.5533 24.6667 25 25.1133 25 25.6667V26.6667H7V25.6667C7 25.1133 7.44667 24.6667 8 24.6667Z" fill="#25CBDB"/>
<path d="M16.0067 4H15.9934C15.4448 4 15 4.44473 15 4.99333V9.00667C15 9.55527 15.4448 10 15.9934 10H16.0067C16.5553 10 17 9.55527 17 9.00667V4.99333C17 4.44473 16.5553 4 16.0067 4Z" fill="#25CBDB"/>
<path d="M22.1267 12.56L22.1067 12.54C21.72 12.1533 21.72 11.52 22.1067 11.1333L24.96 8.3C25.3467 7.91333 25.9734 7.91333 26.36 8.3C26.7467 8.68667 26.7467 9.31333 26.36 9.7L23.5267 12.5533C23.14 12.9467 22.5067 12.9467 22.12 12.5533L22.1267 12.56Z" fill="#25CBDB"/>
<path d="M29.6734 17.6667H25.66C25.1114 17.6667 24.6667 18.1114 24.6667 18.66V18.6733C24.6667 19.2219 25.1114 19.6667 25.66 19.6667H29.6734C30.222 19.6667 30.6667 19.2219 30.6667 18.6733V18.66C30.6667 18.1114 30.222 17.6667 29.6734 17.6667Z" fill="#25CBDB"/>
<path d="M8.46671 12.56L5.63337 9.70667C5.24671 9.32 5.24671 8.69333 5.63337 8.30667C6.02004 7.92 6.64671 7.92 7.03337 8.30667L9.88671 11.14C10.28 11.5267 10.28 12.16 9.88671 12.5467L9.86671 12.5667C9.48004 12.9533 8.84671 12.9533 8.46004 12.5667L8.46671 12.56Z" fill="#25CBDB"/>
<path d="M6.34004 17.6667H2.32671C1.7781 17.6667 1.33337 18.1114 1.33337 18.66V18.6733C1.33337 19.2219 1.7781 19.6667 2.32671 19.6667H6.34004C6.88864 19.6667 7.33337 19.2219 7.33337 18.6733V18.66C7.33337 18.1114 6.88864 17.6667 6.34004 17.6667Z" fill="#25CBDB"/>
</g>
</svg>
