<svg width="32" height="32" viewBox="0 0 32 32" fill="none" xmlns="http://www.w3.org/2000/svg">
<path opacity="0.32" d="M16.0001 27.3334C22.2593 27.3334 27.3334 22.2593 27.3334 16.0001C27.3334 9.74085 22.2593 4.66675 16.0001 4.66675C9.74085 4.66675 4.66675 9.74085 4.66675 16.0001C4.66675 22.2593 9.74085 27.3334 16.0001 27.3334Z" fill="#25CBDB"/>
<path d="M16.0001 4.66675C22.2467 4.66675 27.3334 9.75341 27.3334 16.0001C27.3334 22.2467 22.2467 27.3334 16.0001 27.3334C9.75341 27.3334 4.66675 22.2467 4.66675 16.0001C4.66675 9.75341 9.75341 4.66675 16.0001 4.66675ZM16.0001 2.66675C8.63341 2.66675 2.66675 8.63341 2.66675 16.0001C2.66675 23.3667 8.63341 29.3334 16.0001 29.3334C23.3667 29.3334 29.3334 23.3667 29.3334 16.0001C29.3334 8.63341 23.3667 2.66675 16.0001 2.66675Z" fill="#25CBDB"/>
<path d="M16.0001 20.4667C15.6867 20.4667 15.4267 20.5734 15.2134 20.7867C15.0067 20.9934 14.9001 21.2601 14.9001 21.5667C14.9001 21.8734 15.0067 22.1401 15.2134 22.3534C15.4267 22.5667 15.6867 22.6667 16.0001 22.6667C16.3134 22.6667 16.5734 22.5667 16.7867 22.3534C16.9934 22.1401 17.1001 21.8801 17.1001 21.5667C17.1001 21.2534 16.9934 21.0001 16.7867 20.7867C16.5734 20.5734 16.3134 20.4667 16.0001 20.4667Z" fill="#25CBDB"/>
<path d="M16.8134 9.42008C16.6201 9.23341 16.3801 9.13341 16.0934 9.13341C15.8067 9.13341 15.5734 9.23341 15.3801 9.42008C15.1934 9.61341 15.1001 9.85341 15.1001 10.1334V16.5667C15.1001 16.8534 15.1934 17.0867 15.3867 17.2801C15.5801 17.4734 15.8201 17.5667 16.1067 17.5667C16.3934 17.5667 16.6267 17.4734 16.8201 17.2801C17.0067 17.0867 17.1001 16.8534 17.1001 16.5667V10.1334C17.1001 9.85341 17.0067 9.61341 16.8134 9.42008Z" fill="#25CBDB"/>
</svg>
