<svg width="32" height="32" viewBox="0 0 32 32" fill="none" xmlns="http://www.w3.org/2000/svg">
<g opacity="0.52">
<path d="M4 13.0001H28V27.3334C28 28.4401 27.1067 29.3334 26 29.3334H6C4.89333 29.3334 4 28.4401 4 27.3334V13.0001Z" fill="#25CBDB"/>
<path d="M22.7533 2.66675H22.7467C22.1502 2.66675 21.6667 3.15028 21.6667 3.74675V5.57341C21.6667 6.16988 22.1502 6.65341 22.7467 6.65341H22.7533C23.3498 6.65341 23.8333 6.16988 23.8333 5.57341V3.74675C23.8333 3.15028 23.3498 2.66675 22.7533 2.66675Z" fill="#25CBDB"/>
<path d="M9.24667 2.66675H9.24C8.64353 2.66675 8.16 3.15028 8.16 3.74675V5.57341C8.16 6.16988 8.64353 6.65341 9.24 6.65341H9.24667C9.84313 6.65341 10.3267 6.16988 10.3267 5.57341V3.74675C10.3267 3.15028 9.84313 2.66675 9.24667 2.66675Z" fill="#25CBDB"/>
</g>
<path d="M6 4.66675H26C27.1067 4.66675 28 5.56008 28 6.66675V13.0001H4V6.66675C4 5.56008 4.89333 4.66675 6 4.66675Z" fill="#25CBDB"/>
<path d="M22.7467 27.3601C21.8333 27.3601 21.0667 27.0467 20.4467 26.4267C19.8267 25.8067 19.5133 25.0401 19.5133 24.1267C19.5133 23.2134 19.8267 22.4467 20.4467 21.8267C21.0667 21.2067 21.8333 20.8934 22.7467 20.8934C23.66 20.8934 24.4267 21.2067 25.0467 21.8267C25.6667 22.4467 25.98 23.2134 25.98 24.1267C25.98 25.0401 25.6667 25.8067 25.0467 26.4267C24.4267 27.0467 23.66 27.3601 22.7467 27.3601Z" fill="#25CBDB"/>
</svg>
