<svg width="32" height="32" viewBox="0 0 32 32" fill="none" xmlns="http://www.w3.org/2000/svg">
<path fill-rule="evenodd" clip-rule="evenodd" d="M29 4.6C28.6 4.2 28.1334 4 27.6 4H4.40002C3.86669 4 3.40002 4.2 3.00002 4.6C2.60002 5 2.40002 5.46667 2.40002 6V26C2.40002 26.5333 2.60002 27 3.00002 27.4C3.40002 27.8 3.86669 28 4.40002 28H27.6C28.1334 28 28.6 27.8 29 27.4C29.4 27 29.6 26.5333 29.6 26V6C29.6 5.46667 29.4 5 29 4.6ZM12.72 22.0533C12.5334 22.24 12.2934 22.34 12 22.34H8.00002C7.71336 22.34 7.47336 22.2467 7.28002 22.0533C7.08669 21.86 7.00002 21.6267 7.00002 21.34C7.00002 21.0533 7.09336 20.8133 7.28002 20.6267C7.46669 20.44 7.70669 20.34 8.00002 20.34H12C12.2867 20.34 12.5267 20.4333 12.72 20.6267C12.9067 20.8133 13 21.0533 13 21.34C13 21.6267 12.9067 21.8667 12.72 22.0533ZM12.72 16.72C12.5334 16.9067 12.2934 17.0067 12 17.0067H8.00002C7.71336 17.0067 7.47336 16.9133 7.28002 16.72C7.08669 16.5267 7.00002 16.2933 7.00002 16.0067C7.00002 15.72 7.09336 15.48 7.28002 15.2933C7.46669 15.1067 7.70669 15.0067 8.00002 15.0067H12C12.2867 15.0067 12.5267 15.1 12.72 15.2933C12.9067 15.48 13 15.72 13 16.0067C13 16.2933 12.9067 16.5333 12.72 16.72ZM12.72 11.3867C12.5334 11.5733 12.2934 11.6733 12 11.6733H8.00002C7.71336 11.6733 7.47336 11.58 7.28002 11.3867C7.08669 11.1933 7.00002 10.96 7.00002 10.6733C7.00002 10.3867 7.09336 10.1467 7.28002 9.96C7.46669 9.77333 7.70669 9.67333 8.00002 9.67333H12C12.2867 9.67333 12.5267 9.76667 12.72 9.96C12.9067 10.1467 13 10.3867 13 10.6733C13 10.96 12.9067 11.2 12.72 11.3867ZM24.8 14.1L19.8667 19.0667C19.8 19.1333 19.7267 19.18 19.6467 19.2133C19.5667 19.2467 19.4867 19.26 19.3934 19.26C19.3 19.26 19.22 19.2467 19.1467 19.2133C19.0667 19.18 18.9934 19.1333 18.9267 19.0667L16.7934 16.9333C16.5934 16.7333 16.4934 16.5 16.4934 16.2333C16.4934 15.9667 16.5934 15.7333 16.7934 15.5333C16.9934 15.3333 17.2267 15.2333 17.4934 15.2333C17.76 15.2333 17.9934 15.3333 18.1934 15.5333L19.3934 16.7L23.3934 12.7C23.5934 12.5 23.8334 12.4 24.1134 12.4C24.3934 12.4 24.6334 12.5 24.8334 12.7C25.0534 12.92 25.16 13.1533 25.1467 13.4C25.1334 13.6467 25.02 13.88 24.8 14.1Z" fill="#25CBDB"/>
<g opacity="0.2">
<path d="M12 9.66663H8C7.71333 9.66663 7.47333 9.75996 7.28 9.95329C7.09333 10.14 7 10.38 7 10.6666C7 10.9533 7.09333 11.1933 7.28 11.38C7.46667 11.5666 7.70667 11.6666 8 11.6666H12C12.2867 11.6666 12.5267 11.5733 12.72 11.38C12.9133 11.1866 13 10.9533 13 10.6666C13 10.38 12.9067 10.14 12.72 9.95329C12.5333 9.76663 12.2933 9.66663 12 9.66663Z" fill="#25CBDB"/>
<path d="M12 15H8C7.71333 15 7.47333 15.0933 7.28 15.2866C7.09333 15.4733 7 15.7133 7 16C7 16.2866 7.09333 16.5266 7.28 16.7133C7.46667 16.9 7.70667 17 8 17H12C12.2867 17 12.5267 16.9066 12.72 16.7133C12.9133 16.52 13 16.2866 13 16C13 15.7133 12.9067 15.4733 12.72 15.2866C12.5333 15.1 12.2933 15 12 15Z" fill="#25CBDB"/>
<path d="M12 20.3333H8C7.71333 20.3333 7.47333 20.4266 7.28 20.62C7.09333 20.8066 7 21.0466 7 21.3333C7 21.62 7.09333 21.86 7.28 22.0466C7.46667 22.2333 7.70667 22.3333 8 22.3333H12C12.2867 22.3333 12.5267 22.24 12.72 22.0466C12.9133 21.8533 13 21.62 13 21.3333C13 21.0466 12.9067 20.8066 12.72 20.62C12.5333 20.4333 12.2933 20.3333 12 20.3333Z" fill="#25CBDB"/>
<path d="M24.1133 12.4C23.8333 12.4 23.6 12.5 23.3933 12.7L19.3933 16.7L18.1933 15.5333C17.9933 15.3333 17.76 15.2333 17.4933 15.2333C17.2267 15.2333 16.9933 15.3333 16.7933 15.5333C16.5933 15.7333 16.4933 15.9666 16.4933 16.2333C16.4933 16.5 16.5933 16.7333 16.7933 16.9333L18.9267 19.0666C18.9933 19.1333 19.0667 19.18 19.1467 19.2133C19.2267 19.2466 19.3067 19.26 19.3933 19.26C19.48 19.26 19.5667 19.2466 19.6467 19.2133C19.7267 19.18 19.8 19.1333 19.8667 19.0666L24.8 14.1C25.02 13.88 25.14 13.6466 25.1467 13.4C25.16 13.1533 25.0533 12.92 24.8333 12.7C24.6333 12.5 24.3933 12.4 24.1133 12.4Z" fill="#25CBDB"/>
</g>
</svg>
