<svg width="32" height="32" viewBox="0 0 32 32" fill="none" xmlns="http://www.w3.org/2000/svg">
<g opacity="0.52">
<path d="M7.79991 20.8C7.14658 20.8 6.59325 20.5667 6.12658 20.0933C5.65991 19.62 5.43324 19.0533 5.43324 18.3933C5.43324 17.7333 5.66658 17.1667 6.12658 16.7C6.59325 16.2333 7.14658 16 7.79991 16C8.45325 16 9.03991 16.2333 9.51991 16.7067C9.99325 17.18 10.2332 17.7467 10.2332 18.4067C10.2332 19.0667 9.99325 19.6333 9.51991 20.1C9.03991 20.5667 8.47325 20.8 7.79991 20.8Z" fill="currentColor"/>
<path d="M24.1666 20.8C23.4999 20.8 22.9266 20.5667 22.4466 20.0933C21.9732 19.62 21.7332 19.0533 21.7332 18.3933C21.7332 17.7333 21.9732 17.1667 22.4466 16.7C22.9199 16.2333 23.4932 16 24.1666 16C24.8399 16 25.3732 16.2333 25.8399 16.7067C26.3066 17.18 26.5332 17.7467 26.5332 18.4067C26.5332 19.0667 26.2999 19.6333 25.8399 20.1C25.3799 20.5667 24.8199 20.8 24.1666 20.8Z" fill="currentColor"/>
<path d="M27.6866 24.08C27.4599 23.9 27.2266 23.7467 26.9932 23.6067C26.9932 23.6067 26.9932 23.6 26.9999 23.5933C26.9532 23.5667 26.9066 23.5467 26.8599 23.5267C26.2399 23.1734 25.6066 22.9467 24.9532 22.8533C24.9399 22.8533 24.9332 22.8533 24.9199 22.8533C24.6932 22.82 24.4599 22.8 24.2332 22.8C24.2199 22.8 24.2132 22.8 24.1999 22.8C24.1866 22.8 24.1799 22.8 24.1666 22.8C23.9332 22.8 23.7066 22.82 23.4799 22.8533C23.4666 22.8533 23.4599 22.8533 23.4466 22.8533C22.7932 22.9467 22.1599 23.1734 21.5399 23.5267C21.4932 23.5534 21.4466 23.5733 21.3999 23.5933C21.3999 23.5933 21.3999 23.6 21.4066 23.6067C21.1732 23.7467 20.9399 23.9 20.7132 24.08C19.6132 24.9333 19.0666 25.8267 19.0666 26.76C19.0666 27.0933 19.1932 27.3734 19.4399 27.6067C19.6932 27.84 19.9999 27.96 20.3666 27.96H28.0332C28.3999 27.96 28.7066 27.84 28.9599 27.6067C29.2132 27.3734 29.3332 27.0867 29.3332 26.76C29.3332 25.8267 28.7799 24.9333 27.6866 24.08Z" fill="currentColor"/>
<path d="M11.2799 24.08C11.0532 23.9 10.8199 23.7467 10.5866 23.6067C10.5866 23.6067 10.5866 23.6 10.5932 23.5933C10.5466 23.5667 10.4999 23.5467 10.4532 23.5267C9.83325 23.1734 9.19991 22.9467 8.54658 22.8533C8.53325 22.8533 8.52658 22.8533 8.51325 22.8533C8.28658 22.82 8.05325 22.8 7.82658 22.8C7.81325 22.8 7.80658 22.8 7.79325 22.8C7.77991 22.8 7.77325 22.8 7.75991 22.8C7.52658 22.8 7.29991 22.82 7.07325 22.8533C7.05991 22.8533 7.05325 22.8533 7.03991 22.8533C6.38658 22.9467 5.75325 23.1734 5.13325 23.5267C5.08658 23.5534 5.03991 23.5733 4.99325 23.5933C4.99325 23.5933 4.99325 23.6 4.99991 23.6067C4.76658 23.7467 4.53325 23.9 4.30658 24.08C3.20658 24.9333 2.65991 25.8267 2.65991 26.76C2.65991 27.0933 2.78658 27.3734 3.03325 27.6067C3.28658 27.84 3.59325 27.96 3.95991 27.96H11.6266C11.9932 27.96 12.2999 27.84 12.5532 27.6067C12.8066 27.3734 12.9266 27.0867 12.9266 26.76C12.9266 25.8267 12.3732 24.9333 11.2799 24.08Z" fill="currentColor"/>
<path d="M21.8999 7.13335V5.63335C21.8999 5.16002 22.0666 4.76002 22.3932 4.42668C22.7199 4.09335 23.1199 3.93335 23.5932 3.93335C24.0666 3.93335 24.4666 4.10002 24.7999 4.42668C25.1332 4.76002 25.2999 5.16002 25.2999 5.63335V9.68668" fill="currentColor"/>
</g>
<path d="M29.8667 13.1667C30.0934 13.3334 30.2267 13.5534 30.2667 13.8267C30.3067 14.1001 30.2401 14.3467 30.0667 14.5667C29.8934 14.7867 29.6734 14.9201 29.4134 14.9534C29.1534 14.9867 28.9201 14.9134 28.6934 14.7334L16.0001 5.20008L3.30005 14.7334C3.08005 14.9134 2.84005 14.9867 2.58005 14.9534C2.32005 14.9201 2.11339 14.7934 1.94672 14.5601C1.76005 14.3334 1.68672 14.0867 1.73339 13.8267C1.78005 13.5667 1.91339 13.3467 2.13339 13.1667L14.8001 3.56675C15.1601 3.30008 15.5601 3.16675 16.0067 3.16675C16.4534 3.16675 16.8467 3.30008 17.2001 3.56675L29.8667 13.1667Z" fill="currentColor"/>
<path d="M16.0001 19.4001C15.1534 19.4001 14.4334 19.1001 13.8334 18.5001C13.2334 17.9001 12.9334 17.1801 12.9334 16.3334C12.9334 15.4867 13.2334 14.7667 13.8334 14.1667C14.4334 13.5667 15.1534 13.2667 16.0001 13.2667C16.8467 13.2667 17.5667 13.5667 18.1667 14.1667C18.7667 14.7667 19.0667 15.4867 19.0667 16.3334C19.0667 17.1801 18.7667 17.9001 18.1667 18.5001C17.5667 19.1001 16.8467 19.4001 16.0001 19.4001Z" fill="currentColor"/>
<path d="M9.60005 27.9667C9.75339 27.2334 10.0267 26.5467 10.4201 25.9134C10.8134 25.2801 11.2934 24.7267 11.8734 24.2601C12.4534 23.7934 13.0934 23.4334 13.7934 23.1734C14.4934 22.9201 15.2334 22.7867 16.0134 22.7867C16.7934 22.7867 17.5267 22.9134 18.2267 23.1734C18.9267 23.4334 19.5667 23.7934 20.1467 24.2601C20.7267 24.7267 21.2067 25.2801 21.6001 25.9134C21.9934 26.5467 22.2601 27.2334 22.4201 27.9667H9.60005Z" fill="currentColor"/>
</svg>
