<svg width="32" height="32" viewBox="0 0 32 32" fill="none" xmlns="http://www.w3.org/2000/svg">
<path opacity="0.2" d="M15.8665 5.3335H4.6665C3.55984 5.3335 2.6665 6.22683 2.6665 7.3335V28.6668C2.6665 29.7735 3.55984 30.6668 4.6665 30.6668H21.9998C23.1065 30.6668 23.9998 29.7735 23.9998 28.6668V13.4668C23.9998 12.9335 23.7865 12.4268 23.4132 12.0535L17.2798 5.92016C16.9065 5.54683 16.3932 5.3335 15.8665 5.3335Z" fill="currentColor"/>
<path opacity="0.52" d="M27.9998 9.46683V24.6668C27.9998 25.7735 27.1065 26.6668 25.9998 26.6668H8.6665C7.55984 26.6668 6.6665 25.7735 6.6665 24.6668V3.3335C6.6665 2.22683 7.55984 1.3335 8.6665 1.3335H19.8665C20.3932 1.3335 20.9065 1.54016 21.2798 1.92016V7.46683C21.2798 8.5735 22.1732 9.46683 23.2798 9.46683H27.9998Z" fill="currentColor"/>
<path opacity="0.32" d="M27.9998 9.46659H23.2798C22.1731 9.46659 21.2798 8.57326 21.2798 7.46659V1.91992L27.4131 8.05326C27.7865 8.42659 27.9998 8.93326 27.9998 9.46659Z" fill="currentColor"/>
<path d="M23.28 8.05326H27.4134L21.28 1.91992V6.05326C21.28 7.15992 22.1734 8.05326 23.28 8.05326Z" fill="currentColor"/>
</svg>
