<svg width="32" height="32" viewBox="0 0 32 32" fill="none" xmlns="http://www.w3.org/2000/svg">
<path opacity="0.52" d="M7.6665 28.0002C7.11317 28.0002 6.6665 27.5535 6.6665 27.0002V6.3335C6.6665 5.78016 7.11317 5.3335 7.6665 5.3335H8.6665V27.0002C8.6665 27.5535 8.21984 28.0002 7.6665 28.0002Z" fill="currentColor"/>
<path d="M17.5001 17.6999H8.66675V5.33325H17.3001C17.5334 5.33325 17.7401 5.40659 17.9267 5.54659C18.1067 5.69325 18.2201 5.88659 18.2667 6.13325" fill="currentColor"/>
<path opacity="0.85" d="M18.7332 8.19995H25.6666C25.9532 8.19995 26.1866 8.29328 26.3799 8.48662C26.5732 8.67995 26.6666 8.91328 26.6666 9.19995V19.5333C26.6666 19.8133 26.5732 20.0533 26.3799 20.2466C26.1866 20.4399 25.9532 20.5333 25.6666 20.5333H18.9332C18.6999 20.5333 18.4932 20.4666 18.3066 20.3333C18.1266 20.2 18.0132 20.0133 17.9666 19.7666" fill="currentColor"/>
<path opacity="0.32" d="M17.5 17.7L17.9667 19.7666L18.7333 8.19997L18.2667 6.1333L17.5 17.7Z" fill="currentColor"/>
</svg>
