<svg width="32" height="32" viewBox="0 0 32 32" fill="none" xmlns="http://www.w3.org/2000/svg">
<g opacity="0.52">
<path d="M12.9999 16C12.9999 16.3534 13.0599 16.6867 13.1732 17H9.65991C8.05991 17 6.59325 16.2534 5.65991 15C6.43325 15 7.13325 14.7134 7.65991 14.2267C8.19991 14.72 8.90658 15 9.65991 15H13.1732C13.0599 15.3134 12.9999 15.6467 12.9999 16Z" fill="#25CBDB"/>
<path d="M20.0001 8C20.0001 8.34667 20.0467 8.68 20.1334 9H9.66008C8.90675 9 8.20008 9.27333 7.66008 9.77333C7.13341 9.28667 6.44008 9 5.66675 9C6.60008 7.76 8.09341 7 9.66008 7H20.1334C20.0467 7.32 20.0001 7.65333 20.0001 8Z" fill="#25CBDB"/>
<path d="M26.3 17C25.5333 17 24.8333 17.2867 24.3067 17.7667C23.7667 17.2733 23.06 17 22.3 17H18.8267C18.94 16.6867 19 16.3533 19 16C19 15.6467 18.94 15.3133 18.8267 15H22.3C23.8933 15 25.3667 15.74 26.3 17Z" fill="#25CBDB"/>
<path d="M26.3 23C25.3666 24.2534 23.8933 25 22.3 25H11.8733C11.9533 24.68 12 24.3467 12 24C12 23.6534 11.9533 23.32 11.8733 23H22.3C23.0533 23 23.76 22.72 24.3 22.2267C24.8266 22.7134 25.5333 23 26.3 23Z" fill="#25CBDB"/>
<path d="M8 23C7.44667 23 7 23.4467 7 24C7 24.5533 7.44667 25 8 25C8.55333 25 9 24.5533 9 24C9 23.4467 8.55333 23 8 23Z" fill="#25CBDB"/>
<path d="M24 7C23.4467 7 23 7.44667 23 8C23 8.55333 23.4467 9 24 9C24.5533 9 25 8.55333 25 8C25 7.44667 24.5533 7 24 7Z" fill="#25CBDB"/>
</g>
<path d="M18.8267 15C18.42 13.8333 17.3067 13 16 13C14.6933 13 13.58 13.8333 13.1733 15C13.06 15.3133 13 15.6467 13 16C13 16.3533 13.06 16.6867 13.1733 17C13.58 18.1667 14.6933 19 16 19C17.3067 19 18.42 18.1667 18.8267 17C18.94 16.6867 19 16.3533 19 16C19 15.6467 18.94 15.3133 18.8267 15ZM16 17C15.4467 17 15 16.5533 15 16C15 15.4467 15.4467 15 16 15C16.5533 15 17 15.4467 17 16C17 16.5533 16.5533 17 16 17Z" fill="#25CBDB"/>
<path d="M26.3 17C25.5334 17 24.8334 17.2867 24.3067 17.7667C23.6867 18.3133 23.3 19.1133 23.3 20C23.3 20.8867 23.6867 21.6867 24.3 22.2267C24.8267 22.7133 25.5334 23 26.3 23C27.96 23 29.3 21.66 29.3 20C29.3 18.34 27.96 17 26.3 17ZM26.3 21C25.7534 21 25.3 20.5533 25.3 20C25.3 19.4467 25.7534 19 26.3 19C26.8467 19 27.3 19.4467 27.3 20C27.3 20.5533 26.8534 21 26.3 21Z" fill="#25CBDB"/>
<path d="M7.65991 9.77333C7.13325 9.28667 6.43991 9 5.66658 9H5.65991C4.00658 9 2.65991 10.34 2.65991 12C2.65991 13.66 4.00658 15 5.65991 15C6.43325 15 7.13325 14.7133 7.65991 14.2267C8.27325 13.6867 8.65991 12.8867 8.65991 12C8.65991 11.1133 8.27325 10.3133 7.65991 9.77333ZM4.65991 12C4.65991 11.4467 5.11325 11 5.65991 11C6.20658 11 6.65991 11.4467 6.65991 12C6.65991 12.5533 6.21325 13 5.65991 13C5.10658 13 4.65991 12.5533 4.65991 12Z" fill="#25CBDB"/>
<path d="M11.8733 23C11.4267 21.28 9.86 20 8 20C5.79333 20 4 21.7933 4 24C4 26.2067 5.79333 28 8 28C9.86 28 11.4267 26.72 11.8733 25C11.9533 24.68 12 24.3467 12 24C12 23.6533 11.9533 23.32 11.8733 23ZM8 26C6.9 26 6 25.1 6 24C6 22.9 6.9 22 8 22C9.1 22 10 22.9 10 24C10 25.1 9.1 26 8 26Z" fill="#25CBDB"/>
<path d="M24 4C22.14 4 20.5733 5.28 20.1333 7C20.0467 7.32 20 7.65333 20 8C20 8.34667 20.0467 8.68 20.1333 9C20.5733 10.72 22.14 12 24 12C26.2067 12 28 10.2067 28 8C28 5.79333 26.2067 4 24 4ZM24 10C22.9 10 22 9.1 22 8C22 6.9 22.9 6 24 6C25.1 6 26 6.9 26 8C26 9.1 25.1 10 24 10Z" fill="#25CBDB"/>
</svg>
