<svg width="32" height="32" viewBox="0 0 32 32" fill="none" xmlns="http://www.w3.org/2000/svg">
<path opacity="0.52" d="M16.0334 7.33325H4.66675C3.56008 7.33325 2.66675 8.22659 2.66675 9.33325V7.33325C2.66675 6.81992 2.86675 6.35992 3.26675 5.94659C3.66675 5.53992 4.13341 5.33325 4.66675 5.33325H13.2001C13.4667 5.33325 13.7267 5.38659 13.9867 5.49992C14.2401 5.61325 14.4534 5.75325 14.6334 5.93325L16.0334 7.33325Z" fill="currentColor"/>
<path d="M29.3334 9.33325V24.6666C29.3334 24.7333 29.3267 24.8066 29.3201 24.8733C29.3201 24.8933 29.3201 24.9133 29.3134 24.9399C29.1934 25.8199 28.5001 26.5199 27.6201 26.6399C27.5267 26.6599 27.4334 26.6666 27.3334 26.6666H4.66675C4.55341 26.6666 4.44675 26.6599 4.34008 26.6399C4.32008 26.6399 4.30008 26.6333 4.28008 26.6266C4.22675 26.6199 4.17341 26.6066 4.12008 26.5866C4.10008 26.5866 4.08675 26.5799 4.07341 26.5733C3.49341 26.3999 3.02675 25.9599 2.81341 25.3999C2.74675 25.2533 2.70675 25.0999 2.68675 24.9399C2.68008 24.9133 2.68008 24.8933 2.68008 24.8733C2.67341 24.8066 2.66675 24.7333 2.66675 24.6666V9.33325C2.66675 8.22659 3.56008 7.33325 4.66675 7.33325H27.3334C27.4334 7.33325 27.5267 7.33992 27.6201 7.35992C28.4934 7.47992 29.1867 8.17325 29.3067 9.04659C29.3267 9.13992 29.3334 9.23325 29.3334 9.33325Z" fill="currentColor"/>
</svg>
