<svg width="32" height="32" viewBox="0 0 32 32" fill="none" xmlns="http://www.w3.org/2000/svg">
<g clip-path="url(#clip0_4027_6552)">
<path d="M21.2666 18.94L11.5199 16.94L8.73328 11.4533C8.05995 10.12 9.02661 8.54663 10.5199 8.54663H27.5399C30.0333 8.54663 31.1666 11.6666 29.2466 13.2666L22.9466 18.52C22.4799 18.9066 21.8599 19.0666 21.2666 18.94Z" fill="currentColor"/>
<path opacity="0.52" d="M27.9932 17.3333C26.4132 17.3333 25.0466 18.2466 24.3932 19.5799C24.1332 20.1133 23.9866 20.7066 23.9866 21.3399C23.9866 21.4066 23.9866 21.4733 23.9866 21.5399C24.0932 23.6599 25.8399 25.3466 27.9866 25.3466C30.1332 25.3466 31.9932 23.5533 31.9932 21.3399C31.9932 19.1266 30.1999 17.3333 27.9866 17.3333H27.9932ZM27.9932 23.3466C27.1066 23.3466 26.3532 22.7733 26.0932 21.9733C26.0199 21.7733 25.9866 21.5599 25.9866 21.3399C25.9866 20.8333 26.1799 20.3666 26.4932 20.0133C26.8532 19.5999 27.3932 19.3333 27.9932 19.3333C29.0999 19.3333 29.9999 20.2333 29.9999 21.3399C29.9999 22.4466 29.0999 23.3466 27.9932 23.3466Z" fill="currentColor"/>
<path opacity="0.85" d="M19.5468 20.6266L16.7735 24.2466C16.2535 24.9266 15.4801 25.2999 14.6735 25.2999C14.3868 25.2999 14.0868 25.2532 13.8002 25.1532C12.7002 24.7799 11.9868 23.7866 11.9868 22.6266V19.0732L13.9868 19.4866V22.6266C13.9868 23.0599 14.3068 23.2132 14.4401 23.2599C14.5801 23.3066 14.9202 23.3732 15.1868 23.0332L17.3668 20.1799L19.5468 20.6266Z" fill="currentColor"/>
<path opacity="0.52" d="M0.179991 8.11309C0.420068 7.61331 1.01311 7.40053 1.513 7.64043L8.15948 10.7938C8.35948 10.8871 8.52628 11.0469 8.62628 11.2469L11.5198 16.9402L11.9866 17.033L13.9866 17.4471L26.4935 20.0135L28.1937 20.3602C28.7335 20.4736 29.0872 20.9999 28.9739 21.5398C28.8806 22.0132 28.4601 22.3397 27.9935 22.3397C27.9268 22.3397 27.8599 22.3335 27.7933 22.3201L26.0931 21.9734L23.9935 21.5398L13.9866 19.4871L11.9866 19.0731L10.6468 18.7996C10.3535 18.7396 10.1003 18.5467 9.96026 18.2801L7.0003 12.4529L0.659483 9.44707C0.159647 9.21367 -0.0533068 8.61301 0.179991 8.11309Z" fill="currentColor"/>
</g>
<defs>
<clipPath id="clip0_4027_6552">
<rect width="32" height="32" fill="white"/>
</clipPath>
</defs>
</svg>
