<svg width="32" height="32" viewBox="0 0 32 32" fill="none" xmlns="http://www.w3.org/2000/svg">
<g opacity="0.52">
<path d="M7.15338 5.53589L4.32495 8.36432L6.6914 10.7308L9.51983 7.90234L7.15338 5.53589Z" fill="#25CBDB"/>
<path d="M22.1067 13.66C22.5 13.2667 22.5 12.6333 22.1067 12.2467C21.7133 11.86 21.08 11.8533 20.6933 12.2467L18.5867 14.3533H13.4133L11.3067 12.2467C10.9133 11.8533 10.28 11.8533 9.89333 12.2467C9.50667 12.64 9.5 13.2733 9.89333 13.66L12 15.7667V20.94L9.89333 23.0467C9.5 23.44 9.5 24.0733 9.89333 24.46C10.0867 24.6533 10.3467 24.7533 10.6 24.7533C10.8533 24.7533 11.1133 24.6533 11.3067 24.46L13.4133 22.3533H18.5867L20.6933 24.46C20.8867 24.6533 21.1467 24.7533 21.4 24.7533C21.6533 24.7533 21.9133 24.6533 22.1067 24.46C22.5 24.0667 22.5 23.4333 22.1067 23.0467L20 20.94V15.7667L22.1067 13.66Z" fill="#25CBDB"/>
</g>
<g opacity="0.85">
<path d="M6.73839 5.09496L3.89161 7.94274C3.50636 8.32812 3.50541 8.95179 3.88949 9.33574C4.27358 9.71969 4.89724 9.71852 5.28249 9.33314L8.12928 6.48536C8.51453 6.09997 8.51548 5.47631 8.13139 5.09236C7.74731 4.70841 7.12364 4.70957 6.73839 5.09496Z" fill="#25CBDB"/>
<path d="M24.6667 2.66675H18C16.8933 2.66675 16 3.56008 16 4.66675V6.76675H11.4933C10.96 6.76675 10.4533 6.98008 10.08 7.35341L5.91999 11.5134C5.54665 11.8867 5.33332 12.4001 5.33332 12.9267V27.3401C5.33332 28.4467 6.22665 29.3401 7.33332 29.3401H24.6667C25.7733 29.3401 26.6667 28.4467 26.6667 27.3401V4.66675C26.6667 3.56008 25.7733 2.66675 24.6667 2.66675ZM22.1067 23.0401C22.5 23.4334 22.5 24.0667 22.1067 24.4534C21.9133 24.6467 21.6533 24.7467 21.4 24.7467C21.1467 24.7467 20.8867 24.6467 20.6933 24.4534L18.5867 22.3467H13.4133L11.3067 24.4534C11.1133 24.6467 10.8533 24.7467 10.6 24.7467C10.3467 24.7467 10.0867 24.6467 9.89332 24.4534C9.49999 24.0601 9.49999 23.4268 9.89332 23.0401L12 20.9334V15.7601L9.89332 13.6534C9.49999 13.2601 9.49999 12.6267 9.89332 12.2401C10.2867 11.8534 10.92 11.8467 11.3067 12.2401L13.4133 14.3467H18.5867L20.6933 12.2401C21.0867 11.8467 21.72 11.8467 22.1067 12.2401C22.4933 12.6334 22.5 13.2667 22.1067 13.6534L20 15.7601V20.9334L22.1067 23.0401ZM24.4333 5.05341C24.36 6.01341 23.5733 6.76675 22.5933 6.76675H18.24V4.90675H24.4333V5.05341Z" fill="#25CBDB"/>
</g>
</svg>
