<svg width="32" height="32" viewBox="0 0 32 32" fill="none" xmlns="http://www.w3.org/2000/svg">
<path opacity="0.85" d="M23.6668 7.04661C22.7335 6.11327 21.5335 5.64661 20.0668 5.64661C18.6001 5.64661 17.4001 6.11327 16.4668 7.04661C16.3268 7.18661 16.2001 7.33327 16.0801 7.48661C16.2401 7.60661 16.3935 7.73994 16.5401 7.88661C16.7135 8.05994 16.8668 8.23994 17.0068 8.43327C17.6335 9.27327 17.9401 10.2933 17.9401 11.4866C17.9401 12.6799 17.6335 13.6999 17.0068 14.5399C16.9801 14.5799 16.9535 14.6133 16.9268 14.6466C17.7868 15.3133 18.8335 15.6466 20.0668 15.6466C21.5335 15.6466 22.7335 15.1799 23.6668 14.2466C24.6001 13.3133 25.0668 12.1133 25.0668 10.6466C25.0668 9.17994 24.6001 7.97994 23.6668 7.04661ZM30.1001 21.0466C29.6801 20.4466 29.1201 19.9933 28.4335 19.6799C26.9468 19.0333 25.5201 18.5399 24.1668 18.1999C22.8135 17.8533 21.4468 17.6799 20.0668 17.6799C18.6868 17.6799 17.3201 17.8466 15.9535 18.1799L15.7135 18.2399C14.4201 18.5733 13.0668 19.0533 11.6668 19.6799C11.0001 19.9933 10.4535 20.4466 10.0335 21.0466C9.61348 21.6466 9.40015 22.3666 9.40015 23.2133V24.3466C9.40015 24.8999 9.59348 25.3733 9.98681 25.7666C10.3735 26.1533 10.8468 26.3466 11.4001 26.3466H20.6001C21.1535 26.3466 21.6268 26.1533 22.0135 25.7666C22.4068 25.3733 22.6001 24.8999 22.6001 24.3466V23.2133C22.6001 22.3666 22.3868 21.6466 21.9668 21.0466C21.5468 20.4466 20.9868 19.9933 20.3001 19.6799C20.5735 19.7866 20.8468 19.8999 21.1201 20.0199C22.1401 20.4799 22.9735 21.1666 23.6001 22.0599C24.2668 22.9999 24.6001 24.1199 24.6001 25.3799V26.3466H28.7335C29.2868 26.3466 29.7601 26.1533 30.1535 25.7666C30.5401 25.3733 30.7335 24.8999 30.7335 24.3466V23.2133C30.7335 22.3666 30.5201 21.6466 30.1001 21.0466Z" fill="#25CBDB"/>
<g opacity="0.52">
<path d="M24.6 25.3801V26.3467H20.6C21.1534 26.3467 21.6267 26.1534 22.0134 25.7667C22.4067 25.3734 22.6 24.9001 22.6 24.3467V23.2134C22.6 22.3667 22.3867 21.6467 21.9667 21.0467C21.5467 20.4467 20.9867 19.9934 20.3 19.6801C20.5734 19.7867 20.8467 19.9001 21.12 20.0201C22.14 20.4801 22.9734 21.1667 23.6 22.0601C24.2667 23.0001 24.6 24.1201 24.6 25.3801Z" fill="#25CBDB"/>
<path d="M17.94 11.4867C17.94 12.68 17.6333 13.7 17.0067 14.54C16.98 14.58 16.9533 14.6134 16.9266 14.6467C16.7666 14.5267 16.6133 14.3934 16.4667 14.2467C16.2933 14.0734 16.14 13.8934 16 13.7C15.3733 12.86 15.0667 11.84 15.0667 10.6467C15.0667 9.45336 15.3733 8.43336 16 7.59336C16.0267 7.55336 16.0533 7.52003 16.08 7.48669C16.24 7.60669 16.3933 7.74003 16.54 7.88669C16.7133 8.06003 16.8667 8.24003 17.0067 8.43336C17.6333 9.27336 17.94 10.2934 17.94 11.4867Z" fill="#25CBDB"/>
</g>
<path d="M21.9666 21.0466C21.5466 20.4466 20.9866 19.9933 20.2999 19.6799C18.8133 19.0333 17.3866 18.5399 16.0333 18.1999C16.0066 18.1933 15.9799 18.1866 15.9533 18.1799C14.6266 17.8466 13.2866 17.6799 11.9333 17.6799C10.5799 17.6799 9.17993 17.8466 7.81993 18.1799C6.6266 18.4733 5.37994 18.8933 4.0866 19.4399C4.07994 19.4399 4.07327 19.4399 4.05994 19.4533C3.8866 19.5266 3.71327 19.5999 3.53327 19.6799C2.8666 19.9933 2.31993 20.4466 1.89993 21.0466C1.47993 21.6466 1.2666 22.3666 1.2666 23.2133V24.3466C1.2666 24.8999 1.45993 25.3733 1.8466 25.7666C2.23993 26.1533 2.71327 26.3466 3.2666 26.3466H20.5999C21.1533 26.3466 21.6266 26.1533 22.0133 25.7666C22.4066 25.3733 22.5999 24.8999 22.5999 24.3466V23.2133C22.5999 22.3666 22.3866 21.6466 21.9666 21.0466ZM15.9999 7.59327C15.8599 7.39994 15.7066 7.21994 15.5333 7.04661C14.5999 6.11327 13.3999 5.64661 11.9333 5.64661C10.4666 5.64661 9.2666 6.11327 8.33327 7.04661C7.39994 7.97994 6.93327 9.17994 6.93327 10.6466C6.93327 12.1133 7.39994 13.3133 8.33327 14.2466C9.2666 15.1799 10.4666 15.6466 11.9333 15.6466C13.3999 15.6466 14.5999 15.1799 15.5333 14.2466C15.7066 14.0733 15.8599 13.8933 15.9999 13.6999C16.6266 12.8599 16.9333 11.8399 16.9333 10.6466C16.9333 9.45327 16.6266 8.43327 15.9999 7.59327Z" fill="#25CBDB"/>
</svg>
