<svg width="32" height="32" viewBox="0 0 32 32" fill="none" xmlns="http://www.w3.org/2000/svg">
<g opacity="0.52">
<path d="M18.8867 15.94C22.5133 15.94 25.4533 13 25.4533 9.37331C25.4533 5.74664 22.5133 2.80664 18.8867 2.80664C15.26 2.80664 12.32 5.74664 12.32 9.37331C12.32 13 15.26 15.94 18.8867 15.94Z" fill="#25CBDB"/>
<path d="M13.3734 27.2867C13.3734 27.2867 13.6667 25.5867 15.4534 25.5867H20.7467C20.7467 25.5867 24.6267 25.6334 27.1534 22.16C28.6267 20.1334 28.94 19.6267 28.94 19.6267L29.4734 18.82C30.2334 17.68 29.9267 16.14 28.7867 15.3733C27.7267 14.66 26.3 14.8533 25.4734 15.8333L23.3667 18.54C22.3867 19.8 20.78 20.4067 19.2067 20.1C15.3867 19.36 8.41335 18.3533 6.44002 20.26C4.72002 21.92 4.31335 24.1 4.31335 24.1C4.31335 24.1 12.1734 26.74 13.36 27.2867H13.3734Z" fill="#25CBDB"/>
</g>
<path d="M18.8867 4.13997C21.7733 4.13997 24.12 6.48664 24.12 9.37331C24.12 12.26 21.7733 14.6066 18.8867 14.6066C16 14.6066 13.6533 12.26 13.6533 9.37331C13.6533 6.48664 16 4.13997 18.8867 4.13997ZM18.8867 2.80664C15.26 2.80664 12.32 5.74664 12.32 9.37331C12.32 13 15.26 15.94 18.8867 15.94C22.5133 15.94 25.4533 13 25.4533 9.37331C25.4533 5.74664 22.5133 2.80664 18.8867 2.80664Z" fill="#25CBDB"/>
<path d="M20.7133 11.6133C20.42 11.92 20.02 12.12 19.52 12.2133V12.6066C19.52 12.7733 19.4667 12.9066 19.3667 13.0066C19.2667 13.1066 19.1267 13.16 18.96 13.16C18.7933 13.16 18.66 13.1066 18.5533 13.0066C18.4467 12.9066 18.4 12.7733 18.4 12.6066V12.2466C17.8067 12.1733 17.3 12 16.88 11.7266C16.7867 11.6666 16.7133 11.6 16.6733 11.5266C16.6333 11.4533 16.6133 11.3533 16.6133 11.2333C16.6133 11.0733 16.66 10.9333 16.7533 10.82C16.8467 10.7066 16.96 10.6466 17.0867 10.6466C17.1533 10.6466 17.2133 10.66 17.28 10.68C17.3467 10.7 17.4267 10.74 17.5267 10.8C17.76 10.9266 17.98 11.02 18.18 11.0733C18.38 11.1266 18.6 11.1533 18.8267 11.1533C19.1067 11.1533 19.3267 11.1066 19.4733 11.0133C19.62 10.92 19.6933 10.78 19.6933 10.5933C19.6933 10.48 19.6467 10.3866 19.56 10.32C19.4733 10.2466 19.36 10.1933 19.2333 10.1466C19.1 10.1066 18.9133 10.0533 18.66 9.98664C18.26 9.88664 17.9333 9.77997 17.6733 9.67997C17.4133 9.57997 17.1933 9.41331 17.0067 9.19331C16.82 8.97331 16.7267 8.67331 16.7267 8.29997C16.7267 7.87331 16.8733 7.49997 17.1733 7.18664C17.4733 6.87331 17.8667 6.66664 18.36 6.55997V6.15997C18.36 5.99997 18.4133 5.86664 18.52 5.76664C18.6267 5.65997 18.76 5.61331 18.92 5.61331C19.08 5.61331 19.22 5.66664 19.3267 5.76664C19.4333 5.86664 19.48 5.99997 19.48 6.16664V6.53997C19.92 6.60664 20.3533 6.77997 20.7733 7.04664C20.8667 7.11331 20.94 7.17997 20.98 7.25997C21.02 7.33997 21.04 7.43331 21.04 7.54664C21.04 7.70664 20.9933 7.84664 20.8933 7.95997C20.8 8.07997 20.6867 8.13331 20.56 8.13331C20.4933 8.13331 20.4333 8.11997 20.3733 8.09997C20.3133 8.07997 20.2267 8.03997 20.12 7.97997C20.08 7.95997 20 7.91331 19.8733 7.84664C19.7467 7.77997 19.6067 7.72664 19.46 7.68664C19.3133 7.64664 19.16 7.62664 18.9933 7.62664C18.7533 7.62664 18.56 7.67997 18.4067 7.77997C18.26 7.88664 18.18 8.02664 18.18 8.19997C18.18 8.37331 18.2667 8.49997 18.4333 8.58664C18.6 8.67331 18.8733 8.75997 19.24 8.83997C19.6333 8.93331 19.96 9.02664 20.2133 9.12664C20.4667 9.22664 20.6867 9.39331 20.8667 9.61331C21.0533 9.83997 21.14 10.14 21.14 10.52C21.14 10.9533 20.9933 11.32 20.6933 11.6266L20.7133 11.6133Z" fill="#25CBDB"/>
<path d="M3.68001 23.8733L1.89334 29.6066H13.4467L14.04 27.52L3.68001 23.8733Z" fill="#25CBDB"/>
<path opacity="0.52" d="M20.94 18.1333H11.8133C10.5733 18.1333 9.33999 18.3933 8.23999 18.9666C4.89999 20.7 4.32666 24.1 4.32666 24.1C4.32666 24.1 8.33333 25.5133 13.3733 27.2866C14.38 23.7533 18.2 23.14 20.04 23.0533H21.0467C22.4267 23.0533 23.5467 21.9133 23.5067 20.52C23.4667 19.1266 22.2933 18.1333 20.9467 18.1333H20.94Z" fill="#25CBDB"/>
</svg>
