<svg width="32" height="32" viewBox="0 0 32 32" fill="none" xmlns="http://www.w3.org/2000/svg">
<path d="M27.0667 9.37998C26.4467 7.91331 25.6 6.63331 24.5333 5.53331C23.4667 4.43331 22.2067 3.56665 20.7533 2.93331C19.3 2.29998 17.74 1.97998 16.0733 1.97998C14.4067 1.97998 12.84 2.29331 11.3733 2.93331C9.90665 3.56665 8.62665 4.43331 7.53999 5.53331C6.45332 6.63331 5.59332 7.91331 4.95332 9.37998C4.31999 10.8466 4.00665 12.4133 4.00665 14.08V24.2133C4.00665 24.7466 4.20665 25.2133 4.60665 25.6133C5.00665 26.0133 5.47332 26.2133 6.00665 26.2133V14.08C6.00665 11.3266 6.99332 8.95331 8.97332 6.95998C10.9533 4.97331 13.32 3.97998 16.0733 3.97998C18.8267 3.97998 21.1733 4.97331 23.1067 6.95998C25.04 8.94665 26.0067 11.32 26.0067 14.08V28.0133H17.0733C16.7867 28.0133 16.5467 28.1066 16.3533 28.2933C16.1667 28.48 16.0733 28.72 16.0733 29.0133C16.0733 29.3066 16.1667 29.54 16.3533 29.7266C16.54 29.9133 16.78 30.0133 17.0733 30.0133H26.0067C26.54 30.0133 27.0067 29.8133 27.4067 29.4133C27.8067 29.0133 28.0067 28.5466 28.0067 28.0133V14.08C28.0067 12.4133 27.6933 10.8466 27.0733 9.37998H27.0667Z" fill="#25CBDB"/>
<g opacity="0.52">
<path d="M10.3533 25.6333C10.74 25.2467 10.94 24.7733 10.94 24.22V18.3533C10.94 17.8 10.7467 17.3267 10.3533 16.94C9.96665 16.5533 9.49332 16.3533 8.93999 16.3533H6.00665V26.22H8.93999C9.49332 26.22 9.96665 26.0267 10.3533 25.6333Z" fill="#25CBDB"/>
<path d="M21.6533 16.9333C21.2667 17.32 21.0667 17.7933 21.0667 18.3467V24.2133C21.0667 24.7667 21.26 25.24 21.6533 25.6267C22.04 26.0133 22.5133 26.2133 23.0667 26.2133H26V16.3467H23.0667C22.5133 16.3467 22.04 16.54 21.6533 16.9333Z" fill="#25CBDB"/>
</g>
</svg>
