<svg width="32" height="32" viewBox="0 0 32 32" fill="none" xmlns="http://www.w3.org/2000/svg">
<path opacity="0.32" d="M25.3667 6.13336C26.1467 6.42669 26.6667 7.17336 26.6667 8.00669V14.7267C26.6667 21.32 22.5 26.94 16.66 29.1067C16.24 29.2667 15.7667 29.2667 15.34 29.1067C9.50004 26.94 5.33337 21.32 5.33337 14.7267V8.00669C5.33337 7.17336 5.85337 6.42669 6.63337 6.13336L8.46004 5.45336L15.3 2.90002C15.7534 2.73336 16.2467 2.73336 16.7 2.90002L23.54 5.45336L25.3667 6.13336Z" fill="#25CBDB"/>
<path d="M22.84 7.32665L16 4.77332L9.16004 7.32665L7.33337 8.00665V14.7266C7.33337 20.2666 10.8134 25.28 16 27.22C21.1867 25.28 24.6667 20.2666 24.6667 14.7266V8.00665L22.84 7.32665ZM20.28 16.2866C20.0267 16.54 19.7067 16.6666 19.3334 16.6666H17.3334V18.6666C17.3334 19.0466 17.2067 19.36 16.9467 19.62C16.6934 19.8733 16.3734 20 16 20C15.6267 20 15.3067 19.8733 15.0534 19.62C14.8 19.3666 14.6667 19.0466 14.6667 18.6666V16.6666H12.6667C12.2867 16.6666 11.9734 16.54 11.72 16.2866C11.4667 16.0333 11.3334 15.7133 11.3334 15.3333C11.3334 14.9533 11.46 14.64 11.72 14.3866C11.9734 14.1333 12.2934 14 12.6667 14H14.6667V12C14.6667 11.62 14.7934 11.3066 15.0534 11.0533C15.3067 10.8 15.6267 10.6666 16 10.6666C16.3734 10.6666 16.6934 10.7933 16.9467 11.0533C17.2 11.3066 17.3334 11.6266 17.3334 12V14H19.3334C19.7134 14 20.0267 14.1266 20.28 14.3866C20.5334 14.64 20.6667 14.96 20.6667 15.3333C20.6667 15.7066 20.54 16.0266 20.28 16.2866Z" fill="#25CBDB"/>
</svg>
