<svg width="32" height="32" viewBox="0 0 32 32" fill="none" xmlns="http://www.w3.org/2000/svg">
<path opacity="0.32" d="M26 6H6V26H26V6Z" fill="#25CBDB"/>
<path d="M6 28C5.46667 28 5 27.8 4.6 27.4C4.2 27 4 26.5333 4 26V6C4 5.46667 4.2 5 4.6 4.6C5 4.2 5.46667 4 6 4H26C26.5333 4 27 4.2 27.4 4.6C27.8 5 28 5.46667 28 6V26C28 26.5333 27.8 27 27.4 27.4C27 27.8 26.5333 28 26 28H6ZM6 26H26V6H6V26ZM15.9 23.8C16.2533 23.8 16.5533 23.68 16.8 23.4333C17.0467 23.1867 17.1667 22.8867 17.1667 22.5333C17.1667 22.18 17.0467 21.88 16.8 21.6333C16.5533 21.3867 16.2533 21.2667 15.9 21.2667C15.5467 21.2667 15.2467 21.3867 15 21.6333C14.7533 21.88 14.6333 22.18 14.6333 22.5333C14.6333 22.8867 14.7533 23.1867 15 23.4333C15.2467 23.68 15.5467 23.8 15.9 23.8ZM16.7667 17.8333C16.8333 17.5 16.98 17.16 17.2133 16.82C17.4467 16.4733 17.7867 16.08 18.2267 15.64C18.94 14.9267 19.44 14.2933 19.7267 13.72C20.0133 13.1467 20.16 12.5267 20.16 11.8333C20.16 10.68 19.8 9.77333 19.08 9.12C18.36 8.46667 17.3867 8.14 16.1667 8.13333C15.1667 8.13333 14.24 8.34667 13.3867 8.76667C12.5333 9.18667 11.98 9.71333 11.7333 10.3333C11.62 10.58 11.6 10.82 11.6667 11.0533C11.7333 11.2867 11.8867 11.46 12.1333 11.5667C12.38 11.68 12.6267 11.6733 12.88 11.5533C13.1333 11.4333 13.3667 11.2733 13.56 11.0667C13.8933 10.7333 14.2667 10.48 14.6733 10.3C15.0867 10.12 15.5333 10.0333 16.02 10.0333C16.6867 10.0333 17.2267 10.2067 17.6333 10.5467C18.04 10.8867 18.2533 11.3667 18.2467 11.96C18.2467 12.4067 18.1267 12.84 17.88 13.26C17.6333 13.68 17.2333 14.1467 16.68 14.66C16.06 15.26 15.5867 15.8333 15.2667 16.38C14.9467 16.9267 14.7867 17.42 14.7867 17.86C14.7867 18.1267 14.8733 18.36 15.0533 18.56C15.2333 18.76 15.44 18.86 15.6867 18.86C15.9533 18.86 16.18 18.76 16.3667 18.56C16.5533 18.36 16.6867 18.1133 16.7467 17.8267L16.7667 17.8333Z" fill="#25CBDB"/>
</svg>
