<svg width="32" height="32" viewBox="0 0 32 32" fill="none" xmlns="http://www.w3.org/2000/svg">
<path opacity="0.32" d="M16.0001 4.66663C12.8201 4.66663 10.1401 5.77996 7.94675 7.99996C5.76008 10.22 4.66675 12.8866 4.66675 16C4.66675 19.1133 5.76008 21.78 7.94675 24C10.1334 26.22 12.8201 27.3333 16.0001 27.3333C19.1801 27.3333 21.8067 26.22 24.0201 24C26.2334 21.78 27.3334 19.1133 27.3334 16C27.3334 12.8866 26.2267 10.22 24.0201 7.99996C21.8067 5.77996 19.1334 4.66663 16.0001 4.66663Z" fill="currentColor"/>
<path fill-rule="evenodd" clip-rule="evenodd" d="M16 29.3334C14.1333 29.3334 12.3866 28.9934 10.7666 28.3134C9.14663 27.6334 7.73329 26.7001 6.53329 25.5001C5.33329 24.3001 4.38663 22.8867 3.69996 21.2667C3.01329 19.6467 2.66663 17.8867 2.66663 16.0001C2.66663 14.1134 3.01329 12.3867 3.69996 10.7667C4.38663 9.14675 5.33329 7.73341 6.53329 6.53341C7.73329 5.33341 9.14663 4.38675 10.7666 3.70008C12.3866 3.01341 14.1333 2.66675 16 2.66675C17.8666 2.66675 19.58 3.01341 21.2 3.70008C22.82 4.38675 24.2333 5.33341 25.4333 6.53341C26.6333 7.73341 27.5866 9.14675 28.2866 10.7667C28.9866 12.3867 29.34 14.1334 29.34 16.0001C29.34 17.8667 28.9933 19.6467 28.2866 21.2667C27.5866 22.8867 26.6333 24.3001 25.4333 25.5001C24.2333 26.7001 22.82 27.6401 21.2 28.3134C19.58 28.9934 17.8466 29.3334 16 29.3334ZM16 27.3334C19.1333 27.3334 21.8066 26.2201 24.02 24.0001C26.2333 21.7801 27.3333 19.1134 27.3333 16.0001C27.3333 12.8867 26.2266 10.2201 24.02 8.00008C21.8066 5.78008 19.1333 4.66675 16 4.66675C12.8666 4.66675 10.14 5.78008 7.95329 8.00008C5.76663 10.2201 4.66663 12.8867 4.66663 16.0001C4.66663 19.1134 5.75996 21.7801 7.95329 24.0001C10.14 26.2201 12.8266 27.3334 16 27.3334Z" fill="currentColor"/>
<path d="M16.1333 23.7667C16.4867 23.7667 16.7867 23.6467 17.0333 23.4C17.28 23.1533 17.4 22.8533 17.4 22.5C17.4 22.1467 17.28 21.8467 17.0333 21.6C16.7867 21.3533 16.4867 21.2333 16.1333 21.2333C15.78 21.2333 15.48 21.3533 15.2333 21.6C14.9867 21.8467 14.8667 22.1467 14.8667 22.5C14.8667 22.8533 14.9867 23.1533 15.2333 23.4C15.48 23.6467 15.78 23.7667 16.1333 23.7667Z" fill="currentColor"/>
<path d="M16.1 10C16.8533 10 17.4667 10.2067 17.9333 10.62C18.4 11.0333 18.6333 11.56 18.6333 12.2C18.6333 12.6467 18.5 13.0867 18.2333 13.52C17.9667 13.9533 17.5333 14.4267 16.9333 14.9333C16.3533 15.4467 15.8933 15.98 15.5467 16.5467C15.2 17.1133 15.0333 17.6267 15.0333 18.1C15.0333 18.3467 15.1267 18.54 15.3133 18.6867C15.5 18.8333 15.72 18.9067 15.9667 18.9067C16.2333 18.9067 16.4533 18.82 16.6333 18.64C16.8133 18.46 16.92 18.24 16.9667 17.9733C17.0333 17.5267 17.18 17.1333 17.4133 16.7933C17.6467 16.4533 18.0067 16.0733 18.4933 15.68C19.16 15.1267 19.6467 14.5667 19.94 14.0133C20.24 13.46 20.3933 12.8333 20.3867 12.1467C20.3867 10.9667 20 10.0267 19.2333 9.31333C18.4667 8.6 17.4533 8.24666 16.1867 8.24666C15.34 8.24666 14.5667 8.41333 13.8533 8.74666C13.14 9.08 12.5533 9.56666 12.0867 10.2133C11.9067 10.46 11.8333 10.7067 11.8667 10.9667C11.9 11.2267 12.0067 11.42 12.1867 11.5533C12.4333 11.7333 12.6933 11.7867 12.9667 11.72C13.24 11.6533 13.4733 11.5 13.6467 11.2533C13.9333 10.8533 14.2867 10.5467 14.7 10.3333C15.1133 10.12 15.5733 10.0133 16.0867 10.0133L16.1 10Z" fill="currentColor"/>
</svg>
