<svg width="32" height="32" viewBox="0 0 32 32" fill="none" xmlns="http://www.w3.org/2000/svg">
<path opacity="0.85" d="M7.33337 28C6.78004 28 6.30671 27.8067 5.92004 27.4133C5.53337 27.02 5.33337 26.5533 5.33337 26V13C5.33337 12.6867 5.40671 12.3867 5.54671 12.1C5.69337 11.8133 5.88671 11.58 6.13337 11.4L14.8 4.9C14.98 4.76667 15.1667 4.66667 15.3667 4.6C15.5667 4.53333 15.78 4.5 16 4.5C16.22 4.5 16.4334 4.53333 16.6334 4.6C16.8334 4.66667 17.02 4.76667 17.2 4.9L25.8667 11.4C26.1134 11.58 26.3067 11.8133 26.4534 12.1C26.6 12.3867 26.6734 12.6867 26.6734 13V26C26.6734 26.5533 26.48 27.0267 26.0867 27.4133C25.7 27.8 25.2267 28 24.6667 28H18.6667V18.6667H13.3334V28H7.33337Z" fill="#25CBDB"/>
<path opacity="0.2" d="M18.6667 18.6665H13.3334V27.9998H18.6667V18.6665Z" fill="#25CBDB"/>
</svg>
