<svg width="32" height="32" viewBox="0 0 32 32" fill="none" xmlns="http://www.w3.org/2000/svg">
<g opacity="0.2">
<path d="M25.6667 2.66669H6.33337C5.78109 2.66669 5.33337 3.1144 5.33337 3.66669C5.33337 4.21897 5.78109 4.66669 6.33337 4.66669H25.6667C26.219 4.66669 26.6667 4.21897 26.6667 3.66669C26.6667 3.1144 26.219 2.66669 25.6667 2.66669Z" fill="#25CBDB"/>
<path d="M26.6667 28.3334C26.6667 28.8867 26.22 29.3334 25.6667 29.3334H6.33337C5.78004 29.3334 5.33337 28.8867 5.33337 28.3334C5.33337 27.78 5.78004 27.3334 6.33337 27.3334H25.6667C26.22 27.3334 26.6667 27.78 26.6667 28.3334Z" fill="#25CBDB"/>
</g>
<path opacity="0.52" d="M24.02 27.3334H7.97998V24.56C7.97998 23.4267 8.19331 22.3134 8.59998 21.2534C9.42665 19.12 11.0066 17.38 13.0533 16.3534L13.7666 15.9934L13.14 15.68C11.04 14.6267 9.41998 12.84 8.58665 10.64C8.18665 9.58002 7.98665 8.47335 7.98665 7.34002V4.66669H24.02V7.34002C24.02 8.47335 23.82 9.58002 23.42 10.64C22.5866 12.84 20.9733 14.6334 18.8666 15.6867L18.24 16L18.9533 16.36C21 17.3867 22.58 19.12 23.4066 21.26C23.8133 22.32 24.0266 23.4334 24.0266 24.5667V27.34L24.02 27.3334Z" fill="#25CBDB"/>
<g opacity="0.52">
<path d="M22.9867 8C22.9267 8.78 22.7534 9.54667 22.48 10.2867C21.7334 12.2467 20.2934 13.8467 18.4134 14.7867L16.4467 15.7733L16 16L15.5534 15.7733L13.5867 14.7867C11.7067 13.8467 10.26 12.2467 9.52005 10.2867C9.24671 9.54667 9.06671 8.78 9.00671 8H22.9867Z" fill="#25CBDB"/>
<path d="M16 18.8133C16.5523 18.8133 17 18.3656 17 17.8133C17 17.261 16.5523 16.8133 16 16.8133C15.4478 16.8133 15 17.261 15 17.8133C15 18.3656 15.4478 18.8133 16 18.8133Z" fill="#25CBDB"/>
<path d="M16 21.76C16.5523 21.76 17 21.3123 17 20.76C17 20.2077 16.5523 19.76 16 19.76C15.4478 19.76 15 20.2077 15 20.76C15 21.3123 15.4478 21.76 16 21.76Z" fill="#25CBDB"/>
<path d="M21.6334 26.48H10.3667C11.22 24.2 13.42 22.5733 16 22.5733C18.58 22.5733 20.78 24.2 21.6334 26.48Z" fill="#25CBDB"/>
</g>
<path d="M11.9267 11.1467C11.76 11.1467 11.5934 11.06 11.5 10.9067C10.4467 9.15334 10.4534 7.30667 10.5534 6.36C10.58 6.08667 10.8334 5.88667 11.1 5.91333C11.3734 5.94 11.5734 6.18667 11.5467 6.46C11.46 7.28 11.4534 8.88 12.36 10.38C12.5 10.62 12.4267 10.9267 12.1934 11.0667C12.1134 11.1133 12.0267 11.14 11.9334 11.14L11.9267 11.1467Z" fill="#25CBDB"/>
<path d="M13.2067 12.7133C13.4828 12.7133 13.7067 12.4895 13.7067 12.2133C13.7067 11.9372 13.4828 11.7133 13.2067 11.7133C12.9306 11.7133 12.7067 11.9372 12.7067 12.2133C12.7067 12.4895 12.9306 12.7133 13.2067 12.7133Z" fill="#25CBDB"/>
</svg>
