<svg width="32" height="32" viewBox="0 0 32 32" fill="none" xmlns="http://www.w3.org/2000/svg">
<path opacity="0.52" d="M16.0001 7.82002C17.1534 7.04002 18.3934 6.46669 19.7134 6.08669C21.0334 5.70669 22.3934 5.52002 23.8001 5.52002C24.8467 5.52002 25.8734 5.62669 26.8801 5.83335C27.8934 6.04669 28.8667 6.37335 29.7934 6.82002C30.1067 6.97335 30.3401 7.19335 30.4934 7.47335C30.6467 7.75335 30.7267 8.06002 30.7267 8.39335V23.8267C30.7267 24.4067 30.4867 24.8467 30.0134 25.16C29.5334 25.4734 29.0401 25.5067 28.5334 25.26C27.7534 24.9734 26.9801 24.7267 26.2001 24.5267C25.4201 24.3267 24.6201 24.2267 23.8001 24.2267C22.5801 24.2267 21.3801 24.4067 20.2001 24.76C19.0201 25.1134 17.9134 25.6134 16.8667 26.26C16.7534 26.3467 16.6267 26.4134 16.4801 26.4467C16.3334 26.48 16.1734 26.5 15.9934 26.5V7.82002H16.0001Z" fill="currentColor"/>
<path d="M15.9999 26.4867C15.8199 26.4867 15.6599 26.4667 15.5133 26.4334C15.3666 26.4 15.2399 26.34 15.1266 26.2467C14.0799 25.6 12.9733 25.1 11.7933 24.7467C10.6133 24.3934 9.41327 24.2134 8.19327 24.2134C7.37327 24.2134 6.57327 24.3134 5.79327 24.5134C5.01327 24.7134 4.23993 24.96 3.45993 25.2467C2.9466 25.4934 2.45327 25.46 1.97993 25.1467C1.49993 24.8334 1.2666 24.3934 1.2666 23.8134V8.38005C1.2666 8.04671 1.3466 7.74005 1.49993 7.46005C1.65327 7.18005 1.8866 6.96671 2.19993 6.80671C3.13327 6.36005 4.1066 6.03338 5.11993 5.82005C6.13327 5.60671 7.15994 5.50671 8.19994 5.50671C9.59994 5.50671 10.9599 5.69338 12.2799 6.07338C13.5999 6.45338 14.8399 7.02671 15.9933 7.80671V26.4734L15.9999 26.4867Z" fill="currentColor"/>
</svg>
