<svg width="32" height="32" viewBox="0 0 32 32" fill="none" xmlns="http://www.w3.org/2000/svg">
<g opacity="0.85">
<path d="M15.9934 13.22C14.4601 13.22 13.2201 14.4666 13.2201 16C13.2201 17.5333 14.4668 18.7733 16.0001 18.7733C17.5334 18.7733 18.7734 17.5266 18.7734 15.9933C18.7734 14.46 17.5268 13.22 15.9934 13.22Z" fill="#25CBDB"/>
<path d="M22.7734 12.62C22.7334 11.8067 22.6001 11.3667 22.4867 11.0733C22.3334 10.6867 22.1534 10.4067 21.8601 10.1133C21.5667 9.82001 21.2934 9.64001 20.9001 9.49335C20.6067 9.38001 20.1667 9.24668 19.3534 9.20668C18.4734 9.16668 18.2134 9.16001 15.9867 9.16668C13.7601 9.16668 13.5001 9.18001 12.6201 9.22001C11.8067 9.26001 11.3667 9.39335 11.0734 9.50668C10.6867 9.66001 10.4067 9.84001 10.1134 10.1333C9.82008 10.4267 9.64008 10.7 9.49341 11.0933C9.38008 11.3867 9.24674 11.8267 9.20674 12.64C9.16674 13.52 9.16008 13.78 9.16674 16.0067C9.16674 18.2333 9.18008 18.4933 9.22008 19.3733C9.26008 20.1867 9.39341 20.6267 9.50674 20.92C9.66008 21.3067 9.84008 21.5867 10.1334 21.88C10.4267 22.1733 10.7067 22.3533 11.0934 22.5C11.3867 22.6133 11.8267 22.7467 12.6401 22.7867C13.5201 22.8267 13.7801 22.8333 16.0067 22.8267C18.2334 22.8267 18.4934 22.8133 19.3734 22.7733C20.1867 22.7333 20.6267 22.6 20.9201 22.4867C21.3067 22.3333 21.5867 22.1533 21.8801 21.86C22.1734 21.5667 22.3534 21.2867 22.5001 20.9C22.6134 20.6067 22.7467 20.1667 22.7867 19.3533C22.8267 18.4733 22.8334 18.2133 22.8267 15.9867C22.8267 13.76 22.8134 13.5 22.7734 12.62ZM16.0067 20.28C13.6467 20.28 11.7267 18.3733 11.7201 16.0067C11.7201 13.6467 13.6267 11.7267 15.9934 11.72C18.3534 11.72 20.2734 13.6267 20.2801 15.9933C20.2801 18.3533 18.3734 20.2733 16.0067 20.28ZM20.4401 12.5467C19.8867 12.5467 19.4401 12.1 19.4401 11.5467C19.4401 10.9933 19.8867 10.5467 20.4401 10.5467C20.9934 10.5467 21.4401 10.9933 21.4401 11.5467C21.4401 12.1 20.9934 12.5467 20.4401 12.5467Z" fill="#25CBDB"/>
<path d="M16.0001 2.66663C8.63341 2.66663 2.66675 8.63329 2.66675 16C2.66675 23.3666 8.63341 29.3333 16.0001 29.3333C23.3667 29.3333 29.3334 23.3666 29.3334 16C29.3334 8.63329 23.3667 2.66663 16.0001 2.66663ZM24.2867 19.42C24.2467 20.3066 24.1067 20.9133 23.9001 21.44C23.6867 21.9866 23.4067 22.4533 22.9401 22.92C22.4801 23.3866 22.0134 23.6666 21.4667 23.8866C20.9401 24.0933 20.3334 24.2333 19.4467 24.28C18.5601 24.32 18.2734 24.3333 16.0134 24.3333C13.7534 24.3333 13.4667 24.3333 12.5801 24.2866C11.6934 24.2466 11.0867 24.1066 10.5601 23.9C10.0134 23.6866 9.54675 23.4066 9.08008 22.94C8.61341 22.48 8.32675 22.0133 8.11341 21.4666C7.90675 20.94 7.76675 20.3333 7.72008 19.4466C7.68008 18.56 7.66675 18.2733 7.66008 16.0133C7.66008 13.7533 7.66008 13.4666 7.70675 12.58C7.74675 11.6933 7.88675 11.0866 8.09341 10.5533C8.30675 10.0066 8.58675 9.53996 9.05341 9.07329C9.51341 8.60663 9.98008 8.32663 10.5267 8.10663C11.0534 7.89996 11.6601 7.75996 12.5467 7.71329C13.4334 7.67329 13.7201 7.65996 15.9801 7.65329C18.2401 7.65329 18.5267 7.65329 19.4134 7.69996C20.3001 7.73996 20.9067 7.87996 21.4334 8.08663C21.9801 8.29996 22.4467 8.57996 22.9134 9.04663C23.3801 9.50663 23.6601 9.97329 23.8801 10.52C24.0867 11.0466 24.2267 11.6533 24.2734 12.54C24.3134 13.4266 24.3267 13.7133 24.3334 15.9733C24.3334 18.2333 24.3334 18.52 24.2867 19.4066V19.42Z" fill="#25CBDB"/>
</g>
<g opacity="0.2">
<path d="M15.9932 11.72C13.6332 11.72 11.7199 13.6467 11.7199 16.0067C11.7199 18.3667 13.6466 20.28 16.0066 20.28C18.3666 20.28 20.2799 18.3534 20.2799 15.9934C20.2799 13.6334 18.3532 11.72 15.9932 11.72ZM16.0066 18.7734C14.4732 18.7734 13.2266 17.5334 13.2266 16C13.2266 14.4667 14.4666 13.22 15.9999 13.22C17.5332 13.22 18.7799 14.46 18.7799 15.9934C18.7799 17.5267 17.5399 18.7734 16.0066 18.7734Z" fill="#25CBDB"/>
<path d="M20.4399 10.5467C19.8866 10.5467 19.4399 10.9934 19.4399 11.5467C19.4399 12.1 19.8866 12.5467 20.4399 12.5467C20.9932 12.5467 21.4399 12.1 21.4399 11.5467C21.4399 10.9934 20.9932 10.5467 20.4399 10.5467Z" fill="#25CBDB"/>
<path d="M24.2732 12.5467C24.2332 11.66 24.0866 11.0534 23.8799 10.5267C23.6666 9.98003 23.3799 9.51337 22.9132 9.05337C22.4466 8.59337 21.9866 8.3067 21.4332 8.09337C20.8999 7.8867 20.2999 7.7467 19.4132 7.7067C18.5266 7.6667 18.2399 7.66003 15.9799 7.66003C13.7199 7.66003 13.4332 7.67337 12.5466 7.72003C11.6599 7.76003 11.0532 7.9067 10.5266 8.11337C9.97991 8.3267 9.51325 8.61337 9.05325 9.08003C8.59325 9.5467 8.30658 10.0067 8.09325 10.56C7.88658 11.0934 7.74658 11.6934 7.70658 12.5867C7.66658 13.4734 7.65991 13.76 7.65991 16.02C7.65991 18.28 7.67325 18.5667 7.71991 19.4534C7.75991 20.34 7.90658 20.9467 8.11325 21.4734C8.32658 22.02 8.61325 22.4867 9.07991 22.9467C9.54658 23.4067 10.0066 23.6934 10.5599 23.9067C11.0932 24.1134 11.6932 24.2534 12.5799 24.2934C13.4666 24.3334 13.7532 24.34 16.0132 24.34C18.2799 24.34 18.5599 24.3267 19.4466 24.2867C20.3332 24.2467 20.9399 24.1 21.4666 23.8934C22.0132 23.68 22.4799 23.3934 22.9399 22.9267C23.3999 22.46 23.6866 22 23.8999 21.4467C24.1066 20.92 24.2466 20.3134 24.2866 19.4267C24.3266 18.54 24.3332 18.2534 24.3332 15.9934C24.3332 13.7334 24.3199 13.4467 24.2732 12.56V12.5467ZM22.7866 19.3534C22.7532 20.1667 22.6132 20.6067 22.4999 20.9C22.3466 21.2867 22.1666 21.5667 21.8799 21.86C21.5866 22.1534 21.3132 22.3334 20.9199 22.4867C20.6266 22.6 20.1866 22.74 19.3732 22.7734C18.4932 22.8134 18.2332 22.8267 16.0066 22.8267C13.7799 22.8267 13.5199 22.8267 12.6399 22.7867C11.8266 22.7534 11.3866 22.6134 11.0932 22.5C10.7066 22.3467 10.4266 22.1667 10.1332 21.88C9.83991 21.5867 9.65991 21.3134 9.50658 20.92C9.39325 20.6267 9.25325 20.1867 9.21991 19.3734C9.17991 18.4934 9.16658 18.2334 9.16658 16.0067C9.16658 13.78 9.16658 13.52 9.20658 12.64C9.23991 11.8267 9.37991 11.3867 9.49325 11.0934C9.64658 10.7067 9.82658 10.4267 10.1132 10.1334C10.4066 9.84003 10.6799 9.66003 11.0732 9.5067C11.3666 9.39337 11.8066 9.25337 12.6199 9.22003C13.4999 9.18003 13.7599 9.1667 15.9866 9.1667C18.2132 9.1667 18.4732 9.1667 19.3532 9.2067C20.1666 9.24003 20.6066 9.37337 20.8999 9.49337C21.2866 9.6467 21.5666 9.8267 21.8599 10.1134C22.1532 10.4 22.3332 10.68 22.4866 11.0734C22.5999 11.3667 22.7399 11.8067 22.7732 12.62C22.8132 13.5 22.8266 13.76 22.8266 15.9867C22.8266 18.2134 22.8266 18.4734 22.7866 19.3534Z" fill="#25CBDB"/>
</g>
</svg>
