<svg width="32" height="32" viewBox="0 0 32 32" fill="none" xmlns="http://www.w3.org/2000/svg">
<path opacity="0.32" d="M19.9467 7.38672V8.80005C19.9467 9.90672 20.84 10.8001 21.9467 10.8001H26.6667C26.6667 10.2667 26.4533 9.76005 26.08 9.38672H21.9467C20.84 9.38672 19.9467 8.49339 19.9467 7.38672Z" fill="#25CBDB"/>
<path d="M21.9467 9.38675H26.08L19.9467 3.25342V7.38675C19.9467 8.49342 20.84 9.38675 21.9467 9.38675Z" fill="#25CBDB"/>
<path opacity="0.85" fill-rule="evenodd" clip-rule="evenodd" d="M24.8933 17.7933C25.5267 17.8866 26.12 18.0666 26.6667 18.3266C29.0933 19.4733 30.6 22.1066 30.1933 24.9C29.6933 28.3266 26.5133 30.7 23.0867 30.2C22.22 30.0733 21.42 29.7733 20.7133 29.34C18.64 28.0666 17.4133 25.6466 17.7867 23.0933C18.2867 19.6666 21.4667 17.2933 24.8933 17.7933ZM27.78 26.8C27.7733 26.5333 27.68 26.3 27.5 26.1V26.0933L26.6667 25.2466L26.6667 25.2532L25.4333 23.9999L26.6667 22.7466L26.6667 22.74L27.5 21.8933C27.6733 21.6933 27.7667 21.46 27.78 21.1933C27.7933 20.9266 27.7 20.6933 27.5 20.4933C27.3 20.2933 27.0667 20.1933 26.8 20.1933C26.7767 20.1933 26.755 20.2 26.7333 20.2066C26.7117 20.2133 26.69 20.22 26.6667 20.22C26.46 20.2466 26.2667 20.3266 26.1 20.4933L24 22.5933L21.9 20.4933C21.7 20.2933 21.4667 20.1933 21.2 20.1933C20.9333 20.1933 20.7 20.2933 20.5 20.4933C20.3 20.6933 20.2 20.9266 20.2 21.1933C20.2 21.46 20.3 21.6933 20.5 21.8933L22.6 23.9933L20.5 26.0933C20.3 26.2933 20.2 26.5266 20.2 26.7933C20.2 27.06 20.3 27.2933 20.5 27.4933C20.7 27.6933 20.9333 27.7866 21.2 27.7733C21.4667 27.7666 21.7 27.6733 21.9 27.4933L24 25.4266L26.1 27.4933C26.2467 27.6266 26.4267 27.7 26.62 27.74C26.64 27.7444 26.66 27.7503 26.68 27.7563C26.72 27.7681 26.76 27.78 26.8 27.78C27.0667 27.7933 27.3 27.7 27.5 27.5C27.7 27.3 27.7867 27.0666 27.78 26.8Z" fill="#25CBDB"/>
<g opacity="0.2">
<path d="M8.70662 7.39323C9.07996 7.39323 9.39329 7.2599 9.65329 6.99323C9.91329 6.72656 10.04 6.41323 10.04 6.0599C10.04 5.68656 9.91329 5.37323 9.65329 5.11323C9.39329 4.85323 9.07996 4.72656 8.70662 4.72656C8.33329 4.72656 8.03996 4.85323 7.77329 5.11323C7.50662 5.37323 7.37329 5.68656 7.37329 6.0599C7.37329 6.43323 7.50662 6.72656 7.77329 6.99323C8.03996 7.2599 8.35329 7.39323 8.70662 7.39323Z" fill="#25CBDB"/>
<path d="M13.66 9.66656C13.3066 9.66656 12.9933 9.79323 12.7266 10.0532C12.46 10.3132 12.3266 10.6266 12.3266 10.9999C12.3266 11.3732 12.46 11.6666 12.7266 11.9332C12.9933 12.1999 13.3066 12.3332 13.66 12.3332C14.0333 12.3332 14.3466 12.1999 14.6066 11.9332C14.8666 11.6666 14.9933 11.3532 14.9933 10.9999C14.9933 10.6266 14.8666 10.3132 14.6066 10.0532C14.3466 9.79323 14.0333 9.66656 13.66 9.66656Z" fill="#25CBDB"/>
<path d="M13.2866 5.0199L7.67996 10.6266C7.28662 11.0199 7.28662 11.6532 7.67996 12.0399C7.87329 12.2332 8.13329 12.3332 8.38662 12.3332C8.63996 12.3332 8.89996 12.2332 9.09329 12.0399L14.7 6.43323C15.0933 6.0399 15.0933 5.40656 14.7 5.0199C14.3066 4.63323 13.6733 4.62656 13.2866 5.0199Z" fill="#25CBDB"/>
<path d="M26.6666 25.2532L25.4333 23.9999L27.5 21.8999C27.68 21.6999 27.7733 21.4666 27.78 21.1999C27.7866 20.9332 27.7 20.6999 27.5 20.4999C27.3 20.2999 27.0666 20.1999 26.8 20.1999C26.7533 20.1999 26.7133 20.2199 26.6666 20.2266C26.46 20.2532 26.2666 20.3332 26.1 20.4999L24 22.5999L21.9 20.4999C21.7 20.2999 21.4666 20.1999 21.2 20.1999C20.9333 20.1999 20.7 20.2999 20.5 20.4999C20.3 20.6999 20.2 20.9332 20.2 21.1999C20.2 21.4666 20.3 21.6999 20.5 21.8999L22.6 23.9999L20.5 26.0999C20.3 26.2999 20.2 26.5332 20.2 26.7999C20.2 27.0666 20.3 27.2999 20.5 27.4999C20.7 27.6999 20.9333 27.7932 21.2 27.7799C21.4666 27.7666 21.7 27.6732 21.9 27.4999L24 25.4332L26.1 27.4999C26.2533 27.6332 26.4333 27.7066 26.62 27.7466C26.68 27.7599 26.7333 27.7799 26.8 27.7866C27.0666 27.7999 27.3 27.7066 27.5 27.5066C27.7 27.3066 27.7933 27.0732 27.78 26.8066C27.7666 26.5399 27.6733 26.3066 27.5 26.1066L26.6666 25.2599V25.2532Z" fill="#25CBDB"/>
</g>
<path opacity="0.85" d="M26.6667 25.2534V22.7467L25.4334 24.0001L26.6667 25.2534ZM21.9467 10.8001C20.84 10.8001 19.9467 9.90675 19.9467 8.80008V3.25341C19.5734 2.88008 19.06 2.66675 18.5334 2.66675H7.33337C6.22671 2.66675 5.33337 3.56675 5.33337 4.66675V27.3334C5.33337 28.4401 6.22671 29.3334 7.33337 29.3334H24.6667C25.6267 29.3334 26.4267 28.6601 26.62 27.7601C26.4267 27.7267 26.2534 27.6401 26.1 27.5001L24 25.4334L21.9 27.5001C21.7 27.6801 21.4667 27.7734 21.2 27.7867C20.9334 27.7934 20.7 27.7001 20.5 27.5001C20.3 27.3001 20.2 27.0667 20.2 26.8001C20.2 26.5334 20.3 26.3001 20.5 26.1001L22.6 24.0001L20.5 21.9001C20.3 21.7001 20.2 21.4667 20.2 21.2001C20.2 20.9334 20.3 20.7001 20.5 20.5001C20.7 20.3001 20.9334 20.2001 21.2 20.2001C21.4667 20.2001 21.7 20.3001 21.9 20.5001L24 22.6001L26.1 20.5001C26.2667 20.3334 26.4534 20.2401 26.6667 20.2134V10.8001H21.9467ZM7.77337 5.12008C8.04004 4.86008 8.35337 4.73341 8.70671 4.73341C9.08004 4.73341 9.40004 4.86008 9.65337 5.12008C9.91337 5.37341 10.04 5.69341 10.04 6.06675C10.04 6.42008 9.91337 6.73341 9.65337 7.00008C9.40004 7.26675 9.08004 7.40008 8.70671 7.40008C8.35337 7.40008 8.04004 7.26675 7.77337 7.00008C7.50671 6.73341 7.37337 6.42008 7.37337 6.06675C7.37337 5.69341 7.50671 5.37341 7.77337 5.12008ZM14.6067 11.9334C14.3467 12.2001 14.0334 12.3334 13.66 12.3334C13.3067 12.3334 12.9934 12.2001 12.7267 11.9334C12.46 11.6667 12.3267 11.3601 12.3267 11.0001C12.3267 10.6401 12.46 10.3134 12.7267 10.0534C12.9934 9.80008 13.3067 9.66675 13.66 9.66675C14.0334 9.66675 14.3467 9.80008 14.6067 10.0534C14.8667 10.3134 14.9934 10.6267 14.9934 11.0001C14.9934 11.3734 14.8667 11.6667 14.6067 11.9334ZM14.7 6.44008L9.09337 12.0401C8.90004 12.2401 8.64671 12.3334 8.38671 12.3334C8.12671 12.3334 7.88004 12.2401 7.68004 12.0401C7.29337 11.6534 7.29337 11.0201 7.68004 10.6267L13.2867 5.02675C13.68 4.63341 14.3134 4.63341 14.7 5.02675C15.0934 5.41341 15.0934 6.04675 14.7 6.44008Z" fill="#25CBDB"/>
</svg>
