<svg width="32" height="32" viewBox="0 0 32 32" fill="none" xmlns="http://www.w3.org/2000/svg">
<path opacity="0.52" d="M4.66663 2.66675H27.3333C28.44 2.66675 29.3333 3.56008 29.3333 4.66675V9.66675C29.3333 10.2201 28.8866 10.6667 28.3333 10.6667H3.66663C3.11329 10.6667 2.66663 10.2201 2.66663 9.66675V4.66675C2.66663 3.56008 3.55996 2.66675 4.66663 2.66675Z" fill="#25CBDB"/>
<path opacity="0.85" d="M4 10.6667V27.3334C4 28.4401 4.89333 29.3334 6 29.3334H26C27.1067 29.3334 28 28.4401 28 27.3334V10.6667H4ZM19 17.9001H13C12.4467 17.9001 12 17.4534 12 16.9001C12 16.3467 12.4467 15.9001 13 15.9001H19C19.5533 15.9001 20 16.3467 20 16.9001C20 17.4534 19.5533 17.9001 19 17.9001Z" fill="#25CBDB"/>
<g opacity="0.2">
<path d="M5.03333 4H26.9667C27.54 4 28 4.46 28 5.03333V10.6667H4V5.03333C4 4.46 4.46 4 5.03333 4Z" fill="#25CBDB"/>
<path d="M19 15.9H13C12.4467 15.9 12 16.3467 12 16.9C12 17.4533 12.4467 17.9 13 17.9H19C19.5533 17.9 20 17.4533 20 16.9C20 16.3467 19.5533 15.9 19 15.9Z" fill="#25CBDB"/>
</g>
</svg>
