<svg width="32" height="32" viewBox="0 0 32 32" fill="none" xmlns="http://www.w3.org/2000/svg">
<path d="M29.5999 22.1334L28.0333 10.9667C27.8533 9.78675 27.3066 8.78008 26.3866 7.93341C25.4666 7.08675 24.4133 6.66675 23.2333 6.66675H8.79992C7.61992 6.66675 6.57326 7.08675 5.64659 7.93341C4.72659 8.78008 4.17326 9.78675 3.99992 10.9667L2.39992 22.1334C2.26659 23.1334 2.43992 23.9134 2.91992 24.4801C3.39992 25.0467 4.05992 25.3267 4.89992 25.3267C5.41326 25.3267 5.84659 25.2467 6.19992 25.0734C6.55326 24.9001 6.85326 24.7001 7.09992 24.4601L10.5666 20.9934H21.4333L24.8999 24.4601C25.1466 24.7067 25.4466 24.9067 25.7999 25.0734C26.1533 25.2401 26.5866 25.3267 27.0999 25.3267C27.9466 25.3267 28.6066 25.0467 29.0799 24.4801C29.5533 23.9134 29.7266 23.1334 29.5999 22.1334ZM13.9333 14.4334C13.7799 14.5867 13.5799 14.6667 13.3333 14.6667H11.6666V16.3334C11.6666 16.5801 11.5866 16.7801 11.4333 16.9334C11.2799 17.0867 11.0799 17.1667 10.8333 17.1667C10.5866 17.1667 10.3866 17.0867 10.2333 16.9334C10.0799 16.7801 9.99992 16.5801 9.99992 16.3334V14.6667H8.33326C8.08659 14.6667 7.88659 14.5867 7.73326 14.4334C7.57992 14.2801 7.49992 14.0801 7.49992 13.8334C7.49992 13.5867 7.57992 13.3867 7.73326 13.2334C7.88659 13.0801 8.08659 13.0001 8.33326 13.0001H9.99992V11.3334C9.99992 11.0867 10.0799 10.8867 10.2333 10.7334C10.3866 10.5801 10.5866 10.5001 10.8333 10.5001C11.0799 10.5001 11.2799 10.5801 11.4333 10.7334C11.5866 10.8867 11.6666 11.0867 11.6666 11.3334V13.0001H13.3333C13.5799 13.0001 13.7799 13.0801 13.9333 13.2334C14.0866 13.3867 14.1666 13.5867 14.1666 13.8334C14.1666 14.0801 14.0866 14.2801 13.9333 14.4334ZM21.4333 12.6001C21.1666 12.8667 20.8533 13.0001 20.4999 13.0001C20.1466 13.0001 19.8333 12.8667 19.5666 12.6001C19.2999 12.3334 19.1666 12.0201 19.1666 11.6667C19.1666 11.3134 19.2999 11.0001 19.5666 10.7334C19.8333 10.4667 20.1466 10.3334 20.4999 10.3334C20.8533 10.3334 21.1666 10.4667 21.4333 10.7334C21.6999 11.0001 21.8333 11.3134 21.8333 11.6667C21.8333 12.0201 21.6999 12.3334 21.4333 12.6001ZM24.2666 16.9334C23.9999 17.2001 23.6866 17.3334 23.3333 17.3334C22.9799 17.3334 22.6666 17.2001 22.3999 16.9334C22.1333 16.6667 21.9999 16.3534 21.9999 16.0001C21.9999 15.6467 22.1333 15.3334 22.3999 15.0667C22.6666 14.8001 22.9799 14.6667 23.3333 14.6667C23.6866 14.6667 23.9999 14.8001 24.2666 15.0667C24.5333 15.3334 24.6666 15.6467 24.6666 16.0001C24.6666 16.3534 24.5333 16.6667 24.2666 16.9334Z" fill="#25CBDB"/>
<g opacity="0.2">
<path d="M23.3333 14.6667C22.98 14.6667 22.6667 14.8001 22.4 15.0667C22.1333 15.3334 22 15.6467 22 16.0001C22 16.3534 22.1333 16.6667 22.4 16.9334C22.6667 17.2001 22.98 17.3334 23.3333 17.3334C23.6867 17.3334 24 17.2001 24.2667 16.9334C24.5333 16.6667 24.6667 16.3534 24.6667 16.0001C24.6667 15.6467 24.5333 15.3334 24.2667 15.0667C24 14.8001 23.6867 14.6667 23.3333 14.6667Z" fill="#25CBDB"/>
<path d="M20.5001 10.3333C20.1467 10.3333 19.8334 10.4666 19.5667 10.7333C19.3001 10.9999 19.1667 11.3133 19.1667 11.6666C19.1667 12.0199 19.3001 12.3333 19.5667 12.5999C19.8334 12.8666 20.1467 12.9999 20.5001 12.9999C20.8534 12.9999 21.1667 12.8666 21.4334 12.5999C21.7001 12.3333 21.8334 12.0199 21.8334 11.6666C21.8334 11.3133 21.7001 10.9999 21.4334 10.7333C21.1667 10.4666 20.8534 10.3333 20.5001 10.3333Z" fill="#25CBDB"/>
<path d="M13.3333 13H11.6667V11.3333C11.6667 11.0867 11.5867 10.8867 11.4333 10.7333C11.28 10.58 11.08 10.5 10.8333 10.5C10.5867 10.5 10.3867 10.58 10.2333 10.7333C10.08 10.8867 10 11.0867 10 11.3333V13H8.33333C8.08667 13 7.88667 13.08 7.73333 13.2333C7.58 13.3867 7.5 13.5867 7.5 13.8333C7.5 14.08 7.58 14.28 7.73333 14.4333C7.88667 14.5867 8.08667 14.6667 8.33333 14.6667H10V16.3333C10 16.58 10.08 16.78 10.2333 16.9333C10.3867 17.0867 10.5867 17.1667 10.8333 17.1667C11.08 17.1667 11.28 17.0867 11.4333 16.9333C11.5867 16.78 11.6667 16.58 11.6667 16.3333V14.6667H13.3333C13.58 14.6667 13.78 14.5867 13.9333 14.4333C14.0867 14.28 14.1667 14.08 14.1667 13.8333C14.1667 13.5867 14.0867 13.3867 13.9333 13.2333C13.78 13.08 13.58 13 13.3333 13Z" fill="#25CBDB"/>
</g>
</svg>
