<svg width="32" height="32" viewBox="0 0 32 32" fill="none" xmlns="http://www.w3.org/2000/svg">
<g opacity="0.52">
<path d="M14.3201 17.0667H10.6667V13.4133L14.3201 17.0667Z" fill="currentColor"/>
<path d="M21.1334 6V17.0667H17.1467L10.6667 10.5867V6H21.1334Z" fill="currentColor"/>
<path d="M17.0001 21.6333V29.5C17.0001 29.7867 16.9067 30.02 16.7134 30.2133C16.5201 30.4067 16.2801 30.5 15.9934 30.5C15.7067 30.5 15.4734 30.4067 15.2801 30.2133C15.0934 30.02 14.9934 29.7867 14.9934 29.5V21.6333H17.0001Z" fill="currentColor"/>
</g>
<g opacity="0.85">
<path d="M10 5.99983C9.71333 5.99983 9.48 5.9065 9.28667 5.71316C9.09333 5.51983 9 5.27983 9 4.99316C9 4.7065 9.09333 4.47316 9.28667 4.27983C9.48 4.09316 9.71333 3.99316 10 3.99316H21.8C22.0867 3.99316 22.32 4.0865 22.5133 4.27983C22.7067 4.47316 22.8 4.71316 22.8 4.99983C22.8 5.2865 22.7067 5.51983 22.5133 5.71316C22.32 5.89983 22.0867 5.99983 21.8 5.99983H10Z" fill="currentColor"/>
<path d="M18.8867 21.6332H9C8.72 21.6332 8.48 21.5398 8.28667 21.3465C8.09333 21.1532 8 20.9198 8 20.6398V20.0665C8 19.9332 8.02 19.8065 8.06667 19.6798C8.11333 19.5598 8.18667 19.4465 8.3 19.3332L10.6667 17.0665H14.32L18.8867 21.6332Z" fill="currentColor"/>
<path d="M24 20.0732V20.6465C24 20.9265 23.9067 21.1598 23.7133 21.3465C23.52 21.5398 23.2867 21.6332 23 21.6332H21.7133L17.1467 17.0665H21.1333L23.7 19.3332C23.8133 19.4465 23.8867 19.5598 23.9333 19.6865C23.98 19.8132 24 19.9398 24 20.0732Z" fill="currentColor"/>
</g>
<path opacity="0.52" d="M21.7134 21.6336H18.8867L14.3201 17.0669H17.1467L21.7134 21.6336Z" fill="currentColor"/>
<path opacity="0.32" d="M17.1467 17.0664H14.3201L10.6667 13.4131V10.5864L17.1467 17.0664Z" fill="currentColor"/>
<path d="M27.3334 28.3333C27.08 28.3333 26.82 28.2333 26.6267 28.04L3.96004 5.37332C3.56671 4.97999 3.56671 4.34665 3.96004 3.95999C4.35337 3.57332 4.98671 3.56665 5.37337 3.95999L28.04 26.6267C28.4334 27.02 28.4334 27.6533 28.04 28.04C27.8467 28.2333 27.5867 28.3333 27.3334 28.3333Z" fill="currentColor"/>
</svg>
