<svg width="32" height="32" viewBox="0 0 32 32" fill="none" xmlns="http://www.w3.org/2000/svg">
<path opacity="0.85" d="M27.7466 13.5H12.7533C13.26 14.2067 13.56 15.0667 13.56 16C13.56 16.9333 13.28 17.74 12.8066 18.4333H17.76L19.42 20.0933C19.8133 20.4867 20.4466 20.4867 20.8333 20.0933L22.9266 18L25.6066 20.1867C26.0266 20.5267 26.64 20.4733 26.9933 20.0667L30.5933 15.9333L28.4533 13.7933C28.2666 13.6067 28.0133 13.5 27.7466 13.5Z" fill="#25CBDB"/>
<path opacity="0.52" d="M30.5933 15.9333L13.56 16C13.56 15.1 13.28 14.2267 12.7533 13.5H27.7466C28.0133 13.5 28.2666 13.6067 28.4533 13.7933L30.5933 15.9333Z" fill="#25CBDB"/>
<path opacity="0.52" d="M16.8533 13.5C15.8 10.3067 12.8 8 9.26001 8C4.84001 8 1.26001 11.58 1.26001 16C1.26001 20.42 4.84001 24 9.26001 24C12.8267 24 15.8533 21.66 16.88 18.4333C17.1267 17.6667 17.26 16.8467 17.26 16C17.26 15.1533 17.1133 14.2867 16.8533 13.5Z" fill="#25CBDB"/>
<path opacity="0.85" d="M12.7534 13.5C11.9734 12.4133 10.7 11.7 9.26002 11.7C6.88669 11.7 4.96002 13.6266 4.96002 16C4.96002 18.3733 6.88669 20.3 9.26002 20.3C10.7334 20.3 12.0267 19.56 12.8067 18.4333C13.28 17.74 13.56 16.9066 13.56 16C13.56 15.0933 13.26 14.2066 12.7534 13.5Z" fill="#25CBDB"/>
</svg>
