<svg width="32" height="32" viewBox="0 0 32 32" fill="none" xmlns="http://www.w3.org/2000/svg">
<g clip-path="url(#clip0_4093_686)">
<path opacity="0.52" d="M27.3333 5.33331H4.66663C3.55996 5.33331 2.66663 6.22665 2.66663 7.33331V24H29.3333V7.33331C29.3333 6.22665 28.44 5.33331 27.3333 5.33331ZM12 20H7.99996V15.6666C7.99996 15.1133 8.44663 14.6666 8.99996 14.6666H11C11.5533 14.6666 12 15.1133 12 15.6666V20ZM18 20H14V13C14 12.4466 14.4466 12 15 12H17C17.5533 12 18 12.4466 18 13V20ZM24 20H20V10.3333C20 9.77998 20.4466 9.33331 21 9.33331H23C23.5533 9.33331 24 9.77998 24 10.3333V20Z" fill="currentColor"/>
<path opacity="0.32" d="M29.3333 22V24H2.66663V22H29.3333Z" fill="currentColor"/>
<path opacity="0.85" d="M0.0466309 24H32.0466V24.6667C32.0466 25.7733 31.1533 26.6667 30.0466 26.6667H2.04663C0.939964 26.6667 0.0466309 25.7733 0.0466309 24.6667V24Z" fill="currentColor"/>
<path d="M18.9267 26H13.0667C12.4 26 11.7734 25.6667 11.4 25.1067L10.66 24H21.3267L20.5867 25.1067C20.2134 25.66 19.5934 26 18.92 26H18.9267Z" fill="currentColor"/>
</g>
<defs>
<clipPath id="clip0_4093_686">
<rect width="32" height="32" fill="white"/>
</clipPath>
</defs>
</svg>
