<svg width="32" height="32" viewBox="0 0 32 32" fill="none" xmlns="http://www.w3.org/2000/svg">
<g clip-path="url(#clip0_4093_722)">
<path opacity="0.52" d="M27.3333 5.33325H4.66663C3.55996 5.33325 2.66663 6.22659 2.66663 7.33325V23.9999H29.3333V7.33325C29.3333 6.22659 28.44 5.33325 27.3333 5.33325ZM20.04 14.3599C19.8466 14.5399 19.6133 14.6399 19.3466 14.6533L17.0666 14.6799L17.04 16.9599C17.0266 17.2266 16.9266 17.4599 16.7466 17.6533C16.5666 17.8466 16.3333 17.9466 16.0533 17.9466C15.7733 17.9466 15.54 17.8466 15.36 17.6533C15.18 17.4599 15.08 17.2266 15.0666 16.9599L15.04 14.6799L12.76 14.6533C12.4933 14.6399 12.26 14.5399 12.0666 14.3599C11.8733 14.1799 11.7733 13.9466 11.7733 13.6666C11.7733 13.3866 11.8666 13.1466 12.0533 12.9599C12.24 12.7733 12.48 12.6799 12.76 12.6799H15.06V10.3799C15.06 10.0999 15.1533 9.85992 15.34 9.67325C15.5266 9.48659 15.7666 9.39325 16.0466 9.39325C16.3266 9.39325 16.5666 9.48659 16.7533 9.67325C16.94 9.85992 17.0333 10.0999 17.0333 10.3799V12.6799H19.3333C19.6133 12.6799 19.8533 12.7733 20.04 12.9599C20.2266 13.1466 20.32 13.3866 20.32 13.6666C20.32 13.9466 20.22 14.1799 20.0266 14.3599H20.04Z" fill="currentColor"/>
<path opacity="0.32" d="M29.3333 22V24H2.66663V22H29.3333Z" fill="currentColor"/>
<path opacity="0.85" d="M0.0466309 24H32.0466V24.6667C32.0466 25.7733 31.1533 26.6667 30.0466 26.6667H2.04663C0.939964 26.6667 0.0466309 25.7733 0.0466309 24.6667V24Z" fill="currentColor"/>
<path d="M18.9267 26H13.0667C12.4 26 11.7734 25.6667 11.4 25.1067L10.66 24H21.3267L20.5867 25.1067C20.2134 25.66 19.5934 26 18.92 26H18.9267Z" fill="currentColor"/>
</g>
<defs>
<clipPath id="clip0_4093_722">
<rect width="32" height="32" fill="white"/>
</clipPath>
</defs>
</svg>
