<svg width="32" height="32" viewBox="0 0 32 32" fill="none" xmlns="http://www.w3.org/2000/svg">
<g clip-path="url(#clip0_4093_688)">
<path opacity="0.52" d="M27.3333 5.33331H4.66663C3.55996 5.33331 2.66663 6.22665 2.66663 7.33331V24H29.3333V7.33331C29.3333 6.22665 28.44 5.33331 27.3333 5.33331ZM19 13C19.2866 13 19.5266 13.0933 19.72 13.28C19.9133 13.4666 20 13.7066 20 14V18.3333C20 18.62 19.9066 18.86 19.72 19.0466C19.5333 19.2333 19.2933 19.3333 19 19.3333H17V19.6666C17 20.22 16.5533 20.6666 16 20.6666C15.4466 20.6666 15 20.22 15 19.6666V19.3333H13C12.4466 19.3333 12 18.8866 12 18.3333C12 17.78 12.4466 17.3333 13 17.3333H18V15H13C12.7133 15 12.4733 14.9066 12.28 14.7133C12.0866 14.52 12 14.2866 12 14V9.66665C12 9.37998 12.0933 9.13998 12.28 8.94665C12.4666 8.75331 12.7066 8.66665 13 8.66665H15V8.33331C15 7.77998 15.4466 7.33331 16 7.33331C16.5533 7.33331 17 7.77998 17 8.33331V8.66665H19C19.5533 8.66665 20 9.11331 20 9.66665C20 10.22 19.5533 10.6666 19 10.6666H14V13H19Z" fill="#25CBDB"/>
<path opacity="0.32" d="M29.3333 22V24H2.66663V22H29.3333Z" fill="#25CBDB"/>
<path opacity="0.85" d="M0.0466309 24H32.0466V24.6667C32.0466 25.7733 31.1533 26.6667 30.0466 26.6667H2.04663C0.939964 26.6667 0.0466309 25.7733 0.0466309 24.6667V24Z" fill="#25CBDB"/>
<path d="M18.9267 26H13.0667C12.4 26 11.7734 25.6667 11.4 25.1067L10.66 24H21.3267L20.5867 25.1067C20.2134 25.66 19.5934 26 18.92 26H18.9267Z" fill="#25CBDB"/>
</g>
<defs>
<clipPath id="clip0_4093_688">
<rect width="32" height="32" fill="white"/>
</clipPath>
</defs>
</svg>
