<svg width="32" height="32" viewBox="0 0 32 32" fill="none" xmlns="http://www.w3.org/2000/svg">
<path opacity="0.85" fill-rule="evenodd" clip-rule="evenodd" d="M16.0001 2.66663C8.63341 2.66663 2.66675 8.63329 2.66675 16C2.66675 23.3666 8.63341 29.3333 16.0001 29.3333C23.3667 29.3333 29.3334 23.3666 29.3334 16C29.3334 8.63329 23.3667 2.66663 16.0001 2.66663ZM11.8601 22.82H8.74675V12.82H11.8601V22.82ZM10.3067 11.4533C9.30675 11.4533 8.50008 10.6466 8.50008 9.65329C8.50008 8.65996 9.30675 7.85329 10.3067 7.85329C11.3067 7.85329 12.1067 8.65996 12.1067 9.65329C12.1067 10.6466 11.3001 11.4533 10.3067 11.4533ZM20.3934 22.82V17.96C20.3934 16.8 20.3734 15.3066 18.7801 15.3066C17.1867 15.3066 16.9134 16.5733 16.9134 17.8733V22.82H13.8067V12.82H16.7867V14.1866H16.8267C17.2401 13.4 18.2534 12.5733 19.7667 12.5733C22.9134 12.5733 23.4934 14.64 23.4934 17.34V22.8266H20.3867L20.3934 22.82Z" fill="currentColor"/>
<g opacity="0.2">
<path d="M11.86 12.82H8.74667V22.82H11.86V12.82Z" fill="currentColor"/>
<path d="M10.3067 7.84668C9.30667 7.84668 8.5 8.65335 8.5 9.64668C8.5 10.64 9.30667 11.4467 10.3067 11.4467C11.3067 11.4467 12.1067 10.64 12.1067 9.64668C12.1067 8.65335 11.3 7.84668 10.3067 7.84668Z" fill="currentColor"/>
<path d="M19.7733 12.5733C18.26 12.5733 17.2467 13.4 16.8333 14.1867H16.7933V12.82H13.8133V22.82H16.92V17.8733C16.92 16.5667 17.1667 15.3067 18.7867 15.3067C20.4067 15.3067 20.4 16.8 20.4 17.96V22.82H23.5067V17.3333C23.5067 14.64 22.9267 12.5667 19.78 12.5667L19.7733 12.5733Z" fill="currentColor"/>
</g>
</svg>
