<svg width="32" height="32" viewBox="0 0 32 32" fill="none" xmlns="http://www.w3.org/2000/svg">
<path opacity="0.85" fill-rule="evenodd" clip-rule="evenodd" d="M27.4 4.6C27 4.2 26.5333 4 26 4H6C5.46667 4 5 4.2 4.6 4.6C4.2 5 4 5.46667 4 6V26C4 26.5333 4.2 27 4.6 27.4C5 27.8 5.46667 28 6 28H26C26.5333 28 27 27.8 27.4 27.4C27.8 27 28 26.5333 28 26V6C28 5.46667 27.8 5 27.4 4.6ZM10 9.5332C9.73333 9.5332 9.5 9.6332 9.3 9.8332C9.1 10.0332 9 10.2665 9 10.5332C9 10.7999 9.1 11.0332 9.3 11.2332C9.5 11.4332 9.73333 11.5332 10 11.5332C10.2667 11.5332 10.5 11.4332 10.7 11.2332C10.9 11.0332 11 10.7999 11 10.5332C11 10.2665 10.9 10.0332 10.7 9.8332C10.5 9.6332 10.2667 9.5332 10 9.5332ZM9.3 15.2999C9.5 15.0999 9.73333 14.9999 10 14.9999C10.2667 14.9999 10.5 15.0999 10.7 15.2999C10.9 15.4999 11 15.7332 11 15.9999C11 16.2665 10.9 16.4999 10.7 16.6999C10.5 16.8999 10.2667 16.9999 10 16.9999C9.73333 16.9999 9.5 16.8999 9.3 16.6999C9.1 16.4999 9 16.2665 9 15.9999C9 15.7332 9.1 15.4999 9.3 15.2999ZM9.3 20.7665C9.5 20.5665 9.73333 20.4665 10 20.4665C10.2667 20.4665 10.5 20.5665 10.7 20.7665C10.9 20.9665 11 21.1999 11 21.4665C11 21.7332 10.9 21.9665 10.7 22.1665C10.5 22.3665 10.2667 22.4665 10 22.4665C9.73333 22.4665 9.5 22.3665 9.3 22.1665C9.1 21.9665 9 21.7332 9 21.4665C9 21.1999 9.1 20.9665 9.3 20.7665ZM15.4 20.4665H21.5333C21.8267 20.4665 22.0667 20.5665 22.2533 20.7532C22.44 20.9399 22.5333 21.1799 22.5333 21.4665C22.5333 21.7532 22.44 21.9932 22.2533 22.1799C22.06 22.3732 21.82 22.4665 21.5333 22.4665H15.4C15.1133 22.4665 14.8733 22.3665 14.6867 22.1799C14.4933 21.9932 14.4 21.7532 14.4 21.4665C14.4 21.1799 14.5 20.9399 14.6867 20.7532C14.8733 20.5599 15.1133 20.4665 15.4 20.4665ZM21.5334 9.53332H15.4C15.1134 9.53332 14.8734 9.62665 14.6867 9.81998C14.5 10.0066 14.4 10.2467 14.4 10.5333C14.4 10.82 14.4934 11.06 14.6867 11.2467C14.8734 11.4333 15.1134 11.5333 15.4 11.5333H21.5334C21.82 11.5333 22.06 11.44 22.2534 11.2467C22.4467 11.0533 22.5334 10.82 22.5334 10.5333C22.5334 10.2467 22.44 10.0066 22.2534 9.81998C22.0667 9.63332 21.8267 9.53332 21.5334 9.53332ZM15.4 14.9998H21.5334C21.8267 14.9998 22.0667 15.0998 22.2534 15.2864C22.44 15.4731 22.5334 15.7131 22.5334 15.9998C22.5334 16.2864 22.4467 16.5198 22.2534 16.7131C22.06 16.9064 21.82 16.9998 21.5334 16.9998H15.4C15.1134 16.9998 14.8734 16.8998 14.6867 16.7131C14.4934 16.5264 14.4 16.2864 14.4 15.9998C14.4 15.7131 14.5 15.4731 14.6867 15.2864C14.8734 15.0931 15.1134 14.9998 15.4 14.9998Z" fill="#25CBDB"/>
<g opacity="0.2">
<path d="M10 20.4665C9.73333 20.4665 9.5 20.5665 9.3 20.7665C9.1 20.9665 9 21.1999 9 21.4665C9 21.7332 9.1 21.9665 9.3 22.1665C9.5 22.3665 9.73333 22.4665 10 22.4665C10.2667 22.4665 10.5 22.3665 10.7 22.1665C10.9 21.9665 11 21.7332 11 21.4665C11 21.1999 10.9 20.9665 10.7 20.7665C10.5 20.5665 10.2667 20.4665 10 20.4665Z" fill="#25CBDB"/>
<path d="M10 14.9999C9.73333 14.9999 9.5 15.0999 9.3 15.2999C9.1 15.4999 9 15.7332 9 15.9999C9 16.2665 9.1 16.4999 9.3 16.6999C9.5 16.8999 9.73333 16.9999 10 16.9999C10.2667 16.9999 10.5 16.8999 10.7 16.6999C10.9 16.4999 11 16.2665 11 15.9999C11 15.7332 10.9 15.4999 10.7 15.2999C10.5 15.0999 10.2667 14.9999 10 14.9999Z" fill="#25CBDB"/>
<path d="M10 9.5332C9.73333 9.5332 9.5 9.6332 9.3 9.8332C9.1 10.0332 9 10.2665 9 10.5332C9 10.7999 9.1 11.0332 9.3 11.2332C9.5 11.4332 9.73333 11.5332 10 11.5332C10.2667 11.5332 10.5 11.4332 10.7 11.2332C10.9 11.0332 11 10.7999 11 10.5332C11 10.2665 10.9 10.0332 10.7 9.8332C10.5 9.6332 10.2667 9.5332 10 9.5332Z" fill="#25CBDB"/>
<path d="M21.5333 20.4665H15.4C15.1133 20.4665 14.8733 20.5599 14.6867 20.7532C14.5 20.9399 14.4 21.1799 14.4 21.4665C14.4 21.7532 14.4933 21.9932 14.6867 22.1799C14.8733 22.3665 15.1133 22.4665 15.4 22.4665H21.5333C21.82 22.4665 22.06 22.3732 22.2533 22.1799C22.44 21.9932 22.5333 21.7532 22.5333 21.4665C22.5333 21.1799 22.44 20.9399 22.2533 20.7532C22.0667 20.5665 21.8267 20.4665 21.5333 20.4665Z" fill="#25CBDB"/>
<path d="M21.5334 9.53332H15.4C15.1134 9.53332 14.8734 9.62665 14.6867 9.81998C14.5 10.0067 14.4 10.2467 14.4 10.5333C14.4 10.82 14.4934 11.06 14.6867 11.2467C14.8734 11.4333 15.1134 11.5333 15.4 11.5333H21.5334C21.82 11.5333 22.06 11.44 22.2534 11.2467C22.4467 11.0533 22.5334 10.82 22.5334 10.5333C22.5334 10.2467 22.44 10.0067 22.2534 9.81998C22.0667 9.63332 21.8267 9.53332 21.5334 9.53332Z" fill="#25CBDB"/>
<path d="M21.5334 14.9998H15.4C15.1134 14.9998 14.8734 15.0931 14.6867 15.2864C14.5 15.4731 14.4 15.7131 14.4 15.9998C14.4 16.2864 14.4934 16.5264 14.6867 16.7131C14.8734 16.8998 15.1134 16.9998 15.4 16.9998H21.5334C21.82 16.9998 22.06 16.9064 22.2534 16.7131C22.4467 16.5198 22.5334 16.2864 22.5334 15.9998C22.5334 15.7131 22.44 15.4731 22.2534 15.2864C22.0667 15.0998 21.8267 14.9998 21.5334 14.9998Z" fill="#25CBDB"/>
</g>
</svg>
