<svg width="32" height="32" viewBox="0 0 32 32" fill="none" xmlns="http://www.w3.org/2000/svg">
<path opacity="0.52" d="M26.6001 16.14C26.4401 14.86 26.0701 13.64 25.4701 12.47C24.6701 10.91 23.5701 9.64004 22.1701 8.64004C21.9301 8.46004 21.6701 8.40004 21.3901 8.45004C21.1101 8.51004 20.8801 8.65004 20.7101 8.87004C20.4401 9.18004 20.1301 9.42004 19.7901 9.59004C19.4401 9.75004 19.0801 9.84004 18.7101 9.84004C17.9501 9.84004 17.3101 9.58004 16.7901 9.07004C16.2701 8.56004 16.0101 7.93004 16.0101 7.17004V5.44004C16.0101 4.84004 15.7401 4.39004 15.2201 4.09004C14.7001 3.79004 14.1901 3.80004 13.7101 4.14004C11.1101 5.87004 9.0601 7.89004 7.5701 10.2C6.4201 11.98 5.7201 13.82 5.4601 15.71V15.73C5.4201 15.97 5.4001 16.2 5.3801 16.43C5.3801 16.48 5.3801 16.53 5.3801 16.58C5.3601 16.84 5.3501 17.11 5.3501 17.37C5.3501 17.58 5.3601 17.79 5.3701 17.99C5.3801 18.15 5.3901 18.3 5.4001 18.45C5.4001 18.46 5.4101 18.48 5.4001 18.49C5.5501 19.93 5.9801 21.28 6.6301 22.5C6.8801 22.96 7.1601 23.39 7.4701 23.81C7.5701 23.95 7.6701 24.08 7.7801 24.21C7.8901 24.34 8.0001 24.47 8.1101 24.6C8.3701 24.88 8.6401 25.16 8.9301 25.41C9.1001 25.56 9.2701 25.7 9.4401 25.84C9.6101 25.98 9.7901 26.11 9.9801 26.24C10.0001 26.26 10.0301 26.28 10.0501 26.29C11.7401 27.45 13.8001 28.12 16.0001 28.13C14.1101 28.13 12.4101 27.43 11.0801 26.12C9.7301 24.79 9.0201 23.09 9.0201 21.2C9.0201 20.29 9.2001 19.4 9.5501 18.56C9.9001 17.72 10.4101 16.97 11.0901 16.29L13.9201 13.52L16.0201 11.47L18.1201 13.52L20.9801 16.31C21.6301 16.96 22.1301 17.7 22.4801 18.52C22.8401 19.36 23.0201 20.26 23.0201 21.2C23.0201 23.09 22.3101 24.79 20.9601 26.12C19.6201 27.44 17.9201 28.13 16.0201 28.13C18.2301 28.13 20.2801 27.45 21.9801 26.29C22.0101 26.28 22.0301 26.26 22.0501 26.24C22.2401 26.11 22.4201 25.98 22.5901 25.84C22.7601 25.7 22.9301 25.56 23.1001 25.41C23.3901 25.16 23.6601 24.88 23.9201 24.6C24.0301 24.47 24.1401 24.34 24.2501 24.21C24.3601 24.08 24.4601 23.95 24.5601 23.81C24.8701 23.39 25.1501 22.96 25.4001 22.5C26.0501 21.28 26.4801 19.93 26.6301 18.49C26.6201 18.49 26.6301 18.46 26.6301 18.45C26.6301 18.3 26.6501 18.15 26.6601 17.99C26.6701 17.79 26.6801 17.58 26.6801 17.37C26.6801 16.95 26.6501 16.54 26.6101 16.14H26.6001Z" fill="#25CBDB"/>
<path opacity="0.85" d="M22.46 18.51C22.11 17.69 21.6 16.95 20.96 16.3L18.1 13.51L16 11.46L13.9 13.51L11.07 16.28C10.39 16.96 9.88 17.71 9.53 18.55C9.18 19.39 9 20.28 9 21.19C9 23.08 9.71 24.78 11.06 26.11C12.4 27.43 14.1 28.12 16 28.12C17.9 28.12 19.6 27.42 20.94 26.11C22.29 24.78 23 23.08 23 21.19C23 20.25 22.82 19.35 22.46 18.51ZM18.83 23.98C18.05 24.75 17.11 25.13 16 25.13C14.89 25.13 13.94 24.75 13.17 23.98C12.39 23.21 12 22.29 12 21.2C12 20.69 12.1 20.19 12.3 19.72C12.5 19.25 12.79 18.81 13.17 18.44L16 15.67L18.83 18.44C19.21 18.82 19.5 19.24 19.7 19.71C19.9 20.18 20 20.68 20 21.21C20 22.3 19.61 23.23 18.83 23.99V23.98Z" fill="#25CBDB"/>
<path d="M16 15.66L18.83 18.43C19.21 18.81 19.5 19.23 19.7 19.7C19.9 20.17 20 20.67 20 21.2C20 22.29 19.61 23.22 18.83 23.98C18.05 24.75 17.11 25.13 16 25.13C14.89 25.13 13.94 24.75 13.17 23.98C12.39 23.21 12 22.29 12 21.2C12 20.69 12.1 20.19 12.3 19.72C12.5 19.25 12.79 18.81 13.17 18.44L16 15.67V15.66Z" fill="#25CBDB"/>
</svg>
