<svg width="32" height="32" viewBox="0 0 32 32" fill="none" xmlns="http://www.w3.org/2000/svg">
<path opacity="0.52" d="M18.6666 24.0334C18.6666 22.2334 19.2866 20.7134 20.5333 19.4667C21.7799 18.22 23.2999 17.6 25.0999 17.6C25.6466 17.6 26.1666 17.6667 26.6666 17.78V12.8667C26.6666 12.2867 26.4533 11.8 26.0333 11.4C25.6599 11.0467 25.1466 10.8667 24.6266 10.8667H7.33325C6.75325 10.8667 6.26659 11.08 5.86659 11.5C5.51325 11.8734 5.33325 12.3867 5.33325 12.9067V27.3334C5.33325 27.9934 5.60659 28.5334 6.15992 28.96C6.49992 29.22 6.92659 29.3334 7.35325 29.3334H21.4066C21.0999 29.12 20.8066 28.88 20.5333 28.6C19.2866 27.3534 18.6666 25.8334 18.6666 24.0334Z" fill="#25CBDB"/>
<path d="M20.3334 10.8668V7.76683C20.3334 6.54683 19.9134 5.50016 19.0667 4.6335C18.2201 3.76683 17.2001 3.3335 16.0001 3.3335C14.8001 3.3335 13.7801 3.76683 12.9334 4.6335C12.0867 5.50016 11.6667 6.54683 11.6667 7.76683V10.8668H9.66675V7.76683C9.66675 5.98683 10.2867 4.46683 11.5201 3.2135C12.7067 2.0135 14.3134 1.3335 16.0001 1.3335C17.7534 1.3335 19.2467 1.96016 20.4801 3.2135C21.7134 4.46683 22.3267 5.98683 22.3267 7.76016V10.8602H20.3267L20.3334 10.8668Z" fill="#25CBDB"/>
<path d="M29.6667 19.4667C28.8001 18.6001 27.8001 18.0467 26.6667 17.7801C26.1667 17.6667 25.6467 17.6001 25.1001 17.6001C23.3001 17.6001 21.7801 18.2201 20.5334 19.4667C19.2867 20.7134 18.6667 22.2334 18.6667 24.0334C18.6667 25.8334 19.2867 27.3534 20.5334 28.6001C20.8134 28.8801 21.1001 29.1201 21.4067 29.3334C22.4734 30.0867 23.7001 30.4667 25.1001 30.4667C26.9001 30.4667 28.4201 29.8467 29.6667 28.6001C30.9134 27.3534 31.5334 25.8334 31.5334 24.0334C31.5334 22.2334 30.9134 20.7134 29.6667 19.4667ZM23.5534 19.9134C23.9867 19.4801 24.5001 19.2667 25.1067 19.2667C25.7134 19.2667 26.2401 19.4734 26.6734 19.8867C26.6734 19.8867 26.6867 19.8934 26.6867 19.9001C27.1201 20.3201 27.3334 20.8467 27.3334 21.4667C27.3334 22.0867 27.1134 22.6134 26.6867 23.0534C26.6867 23.0534 26.6734 23.0601 26.6734 23.0667C26.2401 23.4867 25.7201 23.7001 25.1067 23.7001C24.4934 23.7001 23.9867 23.4867 23.5534 23.0534C23.1201 22.6201 22.9001 22.0934 22.9001 21.4667C22.9001 20.8401 23.1201 20.3467 23.5534 19.9134ZM27.1667 27.6134C26.9667 27.7201 26.7601 27.8067 26.5534 27.8801C26.0867 28.0467 25.6067 28.1334 25.1001 28.1334C24.3667 28.1334 23.6801 27.9601 23.0334 27.6134C22.3867 27.2667 21.8667 26.8001 21.4667 26.2001C22.0467 25.8867 22.6334 25.6401 23.2334 25.4534C23.8334 25.2667 24.4534 25.1667 25.1001 25.1667C25.6401 25.1667 26.1601 25.2467 26.6667 25.3801C26.7667 25.4067 26.8667 25.4201 26.9667 25.4467C27.5667 25.6334 28.1534 25.8867 28.7334 26.1934C28.3334 26.7934 27.8134 27.2667 27.1667 27.6067V27.6134Z" fill="#25CBDB"/>
</svg>
