<svg width="32" height="32" viewBox="0 0 32 32" fill="none" xmlns="http://www.w3.org/2000/svg">
<path opacity="0.52" d="M24.5667 29.3334H7.35337C6.92671 29.3334 6.49337 29.22 6.16004 28.96C5.61337 28.5334 5.33337 27.9934 5.33337 27.3334V12.9067C5.33337 12.3867 5.51337 11.88 5.86671 11.5C6.26671 11.0734 6.75337 10.8667 7.33337 10.8667H24.6267C25.1467 10.8667 25.6534 11.0467 26.0334 11.4C26.46 11.8 26.6667 12.2867 26.6667 12.8667V27.2334C26.6667 28.3934 25.7267 29.3334 24.5667 29.3334Z" fill="#25CBDB"/>
<path d="M16 22.6667C16.7133 22.6667 17.32 22.42 17.82 21.9334C18.32 21.4467 18.5666 20.8534 18.5666 20.1667C18.5666 19.48 18.3133 18.8934 17.82 18.3467C17.3266 17.8 16.7133 17.5267 16 17.5267C15.2866 17.5267 14.68 17.8 14.18 18.3467C13.68 18.8934 13.4333 19.5 13.4333 20.1667C13.4333 20.8334 13.6866 21.4467 14.18 21.9334C14.6733 22.42 15.2866 22.6667 16 22.6667Z" fill="#25CBDB"/>
<path d="M20.3333 10.8667V7.66671C20.3333 6.46671 19.9133 5.44671 19.0666 4.60004C18.22 3.75337 17.2 3.33337 16 3.33337C14.9533 3.33337 14.0466 3.64671 13.2666 4.26671C12.4866 4.88671 11.9866 5.68671 11.7666 6.66671C11.7 6.95337 11.5666 7.19337 11.3666 7.38004C11.1666 7.56671 10.9333 7.66671 10.6666 7.66671C10.38 7.66671 10.14 7.56671 9.95331 7.36671C9.76665 7.16671 9.69331 6.93337 9.73998 6.66671C9.98665 5.13337 10.6866 3.86004 11.8533 2.85337C13.02 1.84004 14.4066 1.33337 16.0066 1.33337C17.76 1.33337 19.26 1.94671 20.4933 3.18671C21.7266 4.42004 22.34 5.91337 22.34 7.66671V10.8667H20.3333Z" fill="#25CBDB"/>
</svg>
