<svg width="32" height="32" viewBox="0 0 32 32" fill="none" xmlns="http://www.w3.org/2000/svg">
<path opacity="0.52" d="M24.5666 29.3334H7.35325C6.92659 29.3334 6.49325 29.22 6.15992 28.96C5.61325 28.5334 5.33325 27.9934 5.33325 27.3334V12.9067C5.33325 12.3867 5.51325 11.88 5.86659 11.5C6.26659 11.0734 6.75325 10.8667 7.33325 10.8667H24.6266C25.1466 10.8667 25.6533 11.0467 26.0333 11.4C26.4599 11.8 26.6666 12.2867 26.6666 12.8667V27.2334C26.6666 28.3934 25.7266 29.3334 24.5666 29.3334Z" fill="currentColor"/>
<path d="M20.3334 10.8668V7.76683C20.3334 6.54683 19.9134 5.50016 19.0667 4.6335C18.2201 3.76683 17.2001 3.3335 16.0001 3.3335C14.8001 3.3335 13.7801 3.76683 12.9334 4.6335C12.0867 5.50016 11.6667 6.54683 11.6667 7.76683V10.8668H9.66675V7.76683C9.66675 5.98683 10.2867 4.46683 11.5201 3.2135C12.7067 2.0135 14.3134 1.3335 16.0001 1.3335C17.7534 1.3335 19.2467 1.96016 20.4801 3.2135C21.7134 4.46683 22.3267 5.98683 22.3267 7.76016V10.8602H20.3267L20.3334 10.8668Z" fill="currentColor"/>
<path d="M16.0001 22.6667C16.7134 22.6667 17.3201 22.4201 17.8201 21.9334C18.3201 21.4467 18.5667 20.8534 18.5667 20.1667C18.5667 19.4801 18.3134 18.8934 17.8201 18.3467C17.3267 17.8001 16.7134 17.5267 16.0001 17.5267C15.2867 17.5267 14.6801 17.8001 14.1801 18.3467C13.6801 18.8934 13.4334 19.5001 13.4334 20.1667C13.4334 20.8334 13.6867 21.4467 14.1801 21.9334C14.6734 22.4201 15.2867 22.6667 16.0001 22.6667Z" fill="currentColor"/>
</svg>
