<svg width="32" height="32" viewBox="0 0 32 32" fill="none" xmlns="http://www.w3.org/2000/svg">
<path opacity="0.52" d="M23.3333 8.00684H8.66663C7.56206 8.00684 6.66663 8.90227 6.66663 10.0068V26.0068C6.66663 27.1114 7.56206 28.0068 8.66663 28.0068H23.3333C24.4379 28.0068 25.3333 27.1114 25.3333 26.0068V10.0068C25.3333 8.90227 24.4379 8.00684 23.3333 8.00684Z" fill="#25CBDB"/>
<path d="M9.99996 29.3399C10.7333 29.3399 11.3333 28.7399 11.3333 28.0066H8.66663C8.66663 28.7399 9.26663 29.3399 9.99996 29.3399Z" fill="#25CBDB"/>
<path d="M22 29.3399C22.7333 29.3399 23.3333 28.7399 23.3333 28.0066H20.6666C20.6666 28.7399 21.2666 29.3399 22 29.3399Z" fill="#25CBDB"/>
<path d="M12 8.00658V3.99325C12 3.25991 12.6 2.65991 13.3333 2.65991H18.6666C19.4 2.65991 20 3.25991 20 3.99325V8.00658H18.6666V3.99325H13.3333V8.00658H12Z" fill="#25CBDB"/>
<path opacity="0.32" d="M22.3733 9.96021H9.70663C9.15435 9.96021 8.70663 10.4079 8.70663 10.9602V24.9602C8.70663 25.5125 9.15435 25.9602 9.70663 25.9602H22.3733C22.9256 25.9602 23.3733 25.5125 23.3733 24.9602V10.9602C23.3733 10.4079 22.9256 9.96021 22.3733 9.96021Z" fill="#25CBDB"/>
<path d="M23.3733 13.3269H23.34V13.3602H23.3733V13.3269Z" fill="white"/>
<g opacity="0.85">
<path d="M12.3333 12.6735C12.3333 12.3053 12.0348 12.0068 11.6666 12.0068C11.2984 12.0068 11 12.3053 11 12.6735V23.3402C11 23.7084 11.2984 24.0068 11.6666 24.0068C12.0348 24.0068 12.3333 23.7084 12.3333 23.3402V12.6735Z" fill="#25CBDB"/>
<path d="M16.6666 12.6735C16.6666 12.3053 16.3682 12.0068 16 12.0068C15.6318 12.0068 15.3333 12.3053 15.3333 12.6735V23.3402C15.3333 23.7084 15.6318 24.0068 16 24.0068C16.3682 24.0068 16.6666 23.7084 16.6666 23.3402V12.6735Z" fill="#25CBDB"/>
<path d="M21 12.6735C21 12.3053 20.7015 12.0068 20.3333 12.0068C19.9651 12.0068 19.6666 12.3053 19.6666 12.6735V23.3402C19.6666 23.7084 19.9651 24.0068 20.3333 24.0068C20.7015 24.0068 21 23.7084 21 23.3402V12.6735Z" fill="#25CBDB"/>
</g>
</svg>
