<svg width="32" height="32" viewBox="0 0 32 32" fill="none" xmlns="http://www.w3.org/2000/svg">
<path opacity="0.32" d="M29.3333 8.13989V24.6666C29.3333 25.1999 29.1333 25.6666 28.7333 26.0666C28.3333 26.4666 27.8666 26.6666 27.3333 26.6666L17.8933 19.5799L29.3333 8.13989Z" fill="currentColor"/>
<path opacity="0.52" d="M27.3334 26.6666H4.66675C4.13341 26.6666 3.66675 26.4666 3.26675 26.0666C2.86675 25.6666 2.66675 25.1999 2.66675 24.6666V8.13989L17.8934 19.5799L27.3334 26.6666Z" fill="currentColor"/>
<path d="M29.3334 7.33325V8.13992L17.4134 20.0599C17.4134 20.0599 17.3934 20.0799 17.3867 20.0799C16.6134 20.8266 15.3867 20.8266 14.6134 20.0799C14.6067 20.0799 14.5934 20.0666 14.5867 20.0599L2.66675 8.13992V7.33325C2.66675 6.79992 2.86675 6.33325 3.26675 5.93325C3.66675 5.53325 4.13341 5.33325 4.66675 5.33325H27.3334C27.8667 5.33325 28.3334 5.53325 28.7334 5.93325C29.1334 6.33325 29.3334 6.79992 29.3334 7.33325Z" fill="currentColor"/>
</svg>
