<svg width="32" height="32" viewBox="0 0 32 32" fill="none" xmlns="http://www.w3.org/2000/svg">
<path opacity="0.52" d="M10.2533 23.0534L5.82001 23.6067L11.8733 13.1267H15V16.0067C15 16.56 15.4467 17.0067 16 17.0067C16.5534 17.0067 17 16.56 17 16.0067V13.1267H20.1267L26.18 23.6067L21.7467 23.0534L20 27.2L16.0019 20.2701L16 20.2734L15.9981 20.27L12 27.2L10.2533 23.0534Z" fill="currentColor"/>
<path opacity="0.52" d="M17 13.1267V16.0067C17 16.56 16.5534 17.0067 16 17.0067C15.4467 17.0067 15 16.56 15 16.0067V13.1267H11.8734L16 20.2734L20.1267 13.1267H17V13.1267Z" fill="currentColor"/>
<path opacity="0.85" d="M25.1067 11.8801L24.0667 10.5934C23.86 10.3401 23.76 10.0201 23.7734 9.69344L23.8534 8.0401C23.8867 7.41344 23.4734 6.85344 22.8667 6.68677L21.2734 6.25344C20.96 6.16677 20.6867 5.96677 20.5067 5.69344L19.6 4.30677C19.26 3.7801 18.5934 3.56677 18.0067 3.78677L16.46 4.37344C16.1534 4.48677 15.8134 4.48677 15.5134 4.37344L13.9667 3.78677C13.38 3.56677 12.72 3.7801 12.3734 4.30677L11.4667 5.69344C11.2867 5.96677 11.0134 6.16677 10.7 6.25344L9.10669 6.68677C8.50002 6.85344 8.09335 7.41344 8.12002 8.0401L8.20002 9.69344C8.21335 10.0201 8.11335 10.3401 7.90669 10.5934L6.86669 11.8801C6.47335 12.3668 6.47335 13.0668 6.86669 13.5534L7.90669 14.8401C8.11335 15.0934 8.21335 15.4134 8.20002 15.7401L8.12002 17.3934C8.09335 17.8734 8.33335 18.3134 8.71335 18.5668C8.83335 18.6468 8.96002 18.7068 9.10002 18.7468L10.6934 19.1801C11.0067 19.2668 11.28 19.4668 11.46 19.7401L12.3667 21.1268C12.7067 21.6534 13.3734 21.8668 13.96 21.6468L15.5067 21.0601C15.5067 21.0601 15.5267 21.0601 15.54 21.0534C15.8267 20.9534 16.1467 20.9534 16.4334 21.0534C16.44 21.0534 16.4534 21.0534 16.46 21.0601L18.0067 21.6468C18.5934 21.8668 19.2534 21.6534 19.6 21.1268L20.5067 19.7401C20.6867 19.4668 20.96 19.2668 21.2734 19.1801L22.8667 18.7468C23.0067 18.7068 23.14 18.6468 23.26 18.5668C23.64 18.3134 23.8734 17.8734 23.8534 17.3934L23.7734 15.7401C23.76 15.4134 23.86 15.0934 24.0667 14.8401L25.1067 13.5534C25.5 13.0668 25.5 12.3668 25.1067 11.8801ZM16.94 18.6334C16.6334 18.6801 16.32 18.7134 15.9934 18.7134C15.6667 18.7134 15.36 18.6801 15.0534 18.6334C13.0867 18.3201 11.44 17.0601 10.6 15.3268C10.22 14.5334 9.99335 13.6534 9.99335 12.7134C9.99335 9.4001 12.68 6.71344 15.9934 6.71344C19.3067 6.71344 21.9934 9.4001 21.9934 12.7134C21.9934 13.6468 21.7734 14.5334 21.3934 15.3201C20.5534 17.0534 18.9067 18.3201 16.94 18.6334V18.6334Z" fill="currentColor"/>
<path d="M16 6.71338C12.6867 6.71338 10 9.40005 10 12.7134C10 13.6534 10.22 14.5334 10.6067 15.3267C11.4467 17.06 13.0934 18.3267 15.06 18.6334C15.3667 18.68 15.68 18.7134 16 18.7134C16.32 18.7134 16.64 18.68 16.9467 18.6334C18.9134 18.32 20.56 17.0534 21.4 15.32C21.78 14.5334 22 13.6467 22 12.7134C22 9.40005 19.3134 6.71338 16 6.71338V6.71338ZM16 17.0067C15.4467 17.0067 15 16.56 15 16.0067V11.84L14.9734 11.8667C14.58 12.26 13.9467 12.26 13.56 11.8667C13.1667 11.48 13.1667 10.84 13.56 10.4534L15.2934 8.72005C15.58 8.43338 16.0134 8.34671 16.38 8.50005C16.7534 8.65338 17 9.02005 17 9.42671V16.0067C17 16.56 16.5534 17.0067 16 17.0067Z" fill="currentColor"/>
<path opacity="0.52" d="M16 17.0068C15.4467 17.0068 15 16.5601 15 16.0068V11.8401L14.9734 11.8668C14.5867 12.2601 13.9467 12.2601 13.56 11.8668C13.1734 11.4735 13.1667 10.8401 13.56 10.4535L15.2934 8.72012C15.58 8.43346 16.0067 8.34679 16.38 8.50012C16.7534 8.65346 17 9.02012 17 9.42679V16.0068C17 16.5601 16.5534 17.0068 16 17.0068V17.0068Z" fill="currentColor"/>
</svg>
