<svg width="32" height="32" viewBox="0 0 32 32" fill="none" xmlns="http://www.w3.org/2000/svg">
<path opacity="0.32" d="M26.3466 7.49318C27.1266 8.27318 27.1266 9.53984 26.3466 10.3198L20.2333 16.4265H20.2266L15.9933 12.1865L17.5066 10.6665L22.8333 5.33984H23.36C23.8933 5.33984 24.4 5.55318 24.7733 5.92651L26.34 7.49318H26.3466Z" fill="#25CBDB"/>
<path opacity="0.2" d="M22.84 5.33984L17.5133 10.6598H14.48L9.15332 5.33984H22.84Z" fill="#25CBDB"/>
<path opacity="0.85" d="M20.44 16.6332C20.3733 16.5665 20.3067 16.4932 20.24 16.4265C20.1733 16.3598 20.1067 16.2932 20.0333 16.2265C18.9733 15.2598 17.5467 14.6665 16 14.6665C14.4533 14.6665 13.0267 15.2598 11.9667 16.2265C11.8933 16.2932 11.8267 16.3598 11.76 16.4265C10.6733 17.5198 10 19.0132 10 20.6665C10 22.3198 10.6733 23.8265 11.76 24.9132C12.84 25.9932 14.3467 26.6665 16 26.6665C17.6533 26.6665 19.16 25.9932 20.24 24.9132C21.3267 23.8265 22 22.3265 22 20.6665C22 19.1132 21.4067 17.6998 20.44 16.6332ZM16 24.3198C13.98 24.3198 12.3467 22.6865 12.3467 20.6665C12.3467 18.6465 13.98 17.0132 16 17.0132C18.02 17.0132 19.6533 18.6465 19.6533 20.6665C19.6533 22.6865 18.02 24.3198 16 24.3198Z" fill="#25CBDB"/>
<g opacity="0.52">
<path d="M20.0334 16.2265C18.9734 15.2598 17.5467 14.6665 16 14.6665C14.4534 14.6665 13.0267 15.2598 11.9667 16.2265C11.8934 16.2932 11.8267 16.3598 11.76 16.4265H11.7534L5.65336 10.3265C4.87336 9.54651 4.87336 8.27984 5.65336 7.49984L7.22003 5.92651C7.59336 5.55318 8.10669 5.33984 8.63336 5.33984H9.15336L20.0334 16.2265Z" fill="#25CBDB"/>
<path d="M16 17.0132C13.98 17.0132 12.3467 18.6465 12.3467 20.6665C12.3467 22.6865 13.98 24.3198 16 24.3198C18.02 24.3198 19.6533 22.6865 19.6533 20.6665C19.6533 18.6465 18.02 17.0132 16 17.0132Z" fill="#25CBDB"/>
</g>
</svg>
