<svg width="32" height="32" viewBox="0 0 32 32" fill="none" xmlns="http://www.w3.org/2000/svg">
<path opacity="0.52" d="M23.3334 6.66675H8.66675C7.56218 6.66675 6.66675 7.56218 6.66675 8.66675V23.3334C6.66675 24.438 7.56218 25.3334 8.66675 25.3334H23.3334C24.438 25.3334 25.3334 24.438 25.3334 23.3334V8.66675C25.3334 7.56218 24.438 6.66675 23.3334 6.66675Z" fill="#25CBDB"/>
<path opacity="0.52" d="M23.3334 8.66675V23.3334H8.66675V8.66675H23.3334ZM23.3334 6.66675H8.66675C7.56008 6.66675 6.66675 7.56008 6.66675 8.66675V23.3334C6.66675 24.4401 7.56008 25.3334 8.66675 25.3334H23.3334C24.4401 25.3334 25.3334 24.4401 25.3334 23.3334V8.66675C25.3334 7.56008 24.4401 6.66675 23.3334 6.66675Z" fill="#25CBDB"/>
<path d="M18.6732 12.5998H13.3265C12.9252 12.5998 12.5998 12.9252 12.5998 13.3265V18.6732C12.5998 19.0745 12.9252 19.3998 13.3265 19.3998H18.6732C19.0745 19.3998 19.3998 19.0745 19.3998 18.6732V13.3265C19.3998 12.9252 19.0745 12.5998 18.6732 12.5998Z" fill="#25CBDB"/>
<path d="M25.3332 11.8667H26.6799C27.2332 11.8667 27.6799 12.3134 27.6799 12.8667C27.6799 13.42 27.2332 13.8667 26.6799 13.8667H25.3332V11.8667Z" fill="#25CBDB"/>
<path d="M25.3332 17.8667H26.6799C27.2332 17.8667 27.6799 18.3134 27.6799 18.8667C27.6799 19.42 27.2332 19.8667 26.6799 19.8667H25.3332V17.8667Z" fill="#25CBDB"/>
<path d="M6.66673 19.8667H5.32007C4.76674 19.8667 4.32007 19.42 4.32007 18.8667C4.32007 18.3134 4.76674 17.8667 5.32007 17.8667H6.66673V19.8667Z" fill="#25CBDB"/>
<path d="M6.66673 13.8667H5.32007C4.76674 13.8667 4.32007 13.42 4.32007 12.8667C4.32007 12.3134 4.76674 11.8667 5.32007 11.8667H6.66673V13.8667Z" fill="#25CBDB"/>
<path d="M20 25.3332V26.6799C20 27.2332 19.5533 27.6799 19 27.6799C18.4467 27.6799 18 27.2332 18 26.6799V25.3332H20Z" fill="#25CBDB"/>
<path d="M14 25.3332V26.6799C14 27.2332 13.5533 27.6799 13 27.6799C12.4467 27.6799 12 27.2332 12 26.6799V25.3332H14Z" fill="#25CBDB"/>
<path d="M12 6.66674V5.32007C12 4.76674 12.4467 4.32007 13 4.32007C13.5533 4.32007 14 4.76674 14 5.32007V6.66674H12Z" fill="#25CBDB"/>
<path d="M18 6.66674V5.32007C18 4.76674 18.4467 4.32007 19 4.32007C19.5533 4.32007 20 4.76674 20 5.32007V6.66674H18Z" fill="#25CBDB"/>
</svg>
