<svg width="32" height="32" viewBox="0 0 32 32" fill="none" xmlns="http://www.w3.org/2000/svg">
<path opacity="0.52" d="M17.0334 26V18.9667C17.0334 17.86 17.9268 16.9667 19.0334 16.9667H26.0001C27.1068 16.9667 28.0001 17.86 28.0001 18.9667V26C28.0001 26.5333 27.8001 27 27.4001 27.4C27.0001 27.8 26.5334 28 26.0001 28H19.0334C17.9268 28 17.0334 27.1067 17.0334 26Z" fill="currentColor"/>
<path opacity="0.85" d="M17.0332 12.9667V6C17.0332 4.89333 17.9265 4 19.0332 4H25.9999C26.5332 4 26.9999 4.2 27.3999 4.6C27.7999 5 27.9999 5.46667 27.9999 6V12.9667C27.9999 14.0733 27.1065 14.9667 25.9999 14.9667H19.0332C17.9265 14.9667 17.0332 14.0733 17.0332 12.9667Z" fill="currentColor"/>
<path d="M15.0333 26C15.0333 27.1067 14.14 28 13.0333 28H6C5.46667 28 5 27.8 4.6 27.4C4.2 27 4 26.5333 4 26V6C4 5.46667 4.2 5 4.6 4.6C5 4.2 5.46667 4 6 4H13.0333C14.14 4 15.0333 4.89333 15.0333 6V26Z" fill="currentColor"/>
</svg>
