<svg width="32" height="32" viewBox="0 0 32 32" fill="none" xmlns="http://www.w3.org/2000/svg">
<g opacity="0.52">
<path d="M25.2667 16.0668C25.02 18.2202 24.12 20.0402 22.5667 21.5335C22.14 21.9402 21.6867 22.3002 21.2133 22.6135L19.7867 21.1868C20.1267 20.9802 20.46 20.7468 20.78 20.4802C22.1733 19.3402 23 17.8668 23.2667 16.0668C23.3133 15.7735 23.4267 15.5335 23.62 15.3335C23.8133 15.1335 24.0533 15.0335 24.34 15.0335C24.6267 15.0335 24.86 15.1335 25.0467 15.3335C25.24 15.5335 25.3133 15.7802 25.2667 16.0668Z" fill="currentColor"/>
<path d="M19.7867 21.1868C19.1533 21.5602 18.48 21.8268 17.7733 22.0002C17.2 22.1335 16.6067 22.2002 15.9867 22.2002C14.2067 22.2002 12.62 21.6268 11.2267 20.4802C9.83334 19.3402 9 17.8668 8.73334 16.0668C8.68667 15.7735 8.57334 15.5335 8.38 15.3335C8.19334 15.1335 7.95334 15.0335 7.66667 15.0335C7.38 15.0335 7.14667 15.1335 6.95334 15.3335C6.76 15.5335 6.68667 15.7802 6.73334 16.0668C6.98 18.2402 7.88 20.0735 9.44667 21.5468C11.0133 23.0268 12.8667 23.8868 15 24.1335V27.6668C15 27.9468 15.0933 28.1868 15.28 28.3802C15.4733 28.5668 15.7067 28.6668 15.9933 28.6668C16.28 28.6668 16.52 28.5668 16.7133 28.3802C16.9067 28.1868 17 27.9468 17 27.6668V24.1335C17.8267 24.0335 18.6067 23.8535 19.3467 23.5735C20.0067 23.3268 20.6267 23.0135 21.2133 22.6135L19.7867 21.1868Z" fill="currentColor"/>
<path d="M18.38 4.30683C17.7267 3.6535 16.9333 3.3335 16 3.3335C15.0667 3.3335 14.2667 3.6535 13.6133 4.30683C12.96 4.9535 12.6333 5.74016 12.6333 6.66683V15.0335C12.6333 16.0135 12.9533 16.8468 13.6 17.5335C14.2467 18.2202 15.0467 18.5668 16 18.5668C16.36 18.5668 16.7 18.5202 17.0133 18.4135C17.5333 18.2535 18 17.9602 18.4 17.5335C19.0467 16.8468 19.3667 16.0135 19.3667 15.0335V6.66683C19.3667 5.74016 19.04 4.9535 18.38 4.30683Z" fill="currentColor"/>
</g>
<g opacity="0.52">
<path d="M21.2133 22.6132C20.6266 23.0132 20.0066 23.3265 19.3466 23.5732L17.7733 21.9999C18.48 21.8265 19.1533 21.5599 19.7866 21.1865L21.2133 22.6132Z" fill="currentColor"/>
<path d="M17.0133 18.4132C16.7 18.5199 16.36 18.5665 16 18.5665C15.0466 18.5665 14.2466 18.2199 13.6 17.5332C12.9533 16.8465 12.6333 16.0132 12.6333 15.0332V14.0332L17.0133 18.4132Z" fill="currentColor"/>
</g>
<path d="M27.3334 28.3333C27.08 28.3333 26.82 28.2333 26.6267 28.04L3.96004 5.37332C3.56671 4.97999 3.56671 4.34665 3.96004 3.95999C4.35337 3.57332 4.98671 3.56665 5.37337 3.95999L28.04 26.6267C28.4334 27.02 28.4334 27.6533 28.04 28.04C27.8467 28.2333 27.5867 28.3333 27.3334 28.3333Z" fill="currentColor"/>
</svg>
