<svg width="32" height="32" viewBox="0 0 32 32" fill="none" xmlns="http://www.w3.org/2000/svg">
<path opacity="0.85" d="M16.0001 22C14.8867 22 13.9467 21.6133 13.1667 20.8333C12.3867 20.0533 12.0001 19.1133 12.0001 18C12.0001 16.8866 12.3867 15.9466 13.1667 15.1666C13.9467 14.3866 14.8867 14 16.0001 14C17.1134 14 18.0534 14.3866 18.8334 15.1666C19.6134 15.9466 20.0001 16.8866 20.0001 18C20.0001 19.1133 19.6134 20.0533 18.8334 20.8333C18.0534 21.6133 17.1134 22 16.0001 22ZM4.66675 26.6666C4.11341 26.6666 3.64008 26.4733 3.25341 26.08C2.86675 25.6866 2.66675 25.22 2.66675 24.6666V11.3333C2.66675 10.78 2.86008 10.3066 3.25341 9.91998C3.64675 9.53331 4.11341 9.33331 4.66675 9.33331H27.3334C27.8867 9.33331 28.3601 9.52665 28.7467 9.91998C29.1334 10.3133 29.3334 10.78 29.3334 11.3333V24.6666C29.3334 25.22 29.1401 25.6933 28.7467 26.08C28.3534 26.4666 27.8867 26.6666 27.3334 26.6666H4.66675ZM8.00008 24.6666H24.0001C24.0001 23.7333 24.3201 22.9466 24.9667 22.3C25.6134 21.6533 26.4001 21.3333 27.3334 21.3333V14.6666C26.4001 14.6666 25.6134 14.3466 24.9667 13.7C24.3201 13.0533 24.0001 12.2666 24.0001 11.3333H8.00008C8.00008 12.2666 7.68008 13.0533 7.03341 13.7C6.38675 14.3466 5.60008 14.6666 4.66675 14.6666V21.3333C5.60008 21.3333 6.38675 21.6533 7.03341 22.3C7.68008 22.9466 8.00008 23.7333 8.00008 24.6666Z" fill="#25CBDB"/>
<path opacity="0.2" d="M24.9667 13.7C24.3201 13.0533 24.0001 12.2666 24.0001 11.3333H8.00008C8.00008 12.2666 7.68008 13.0533 7.03341 13.7C6.38675 14.3466 5.60008 14.6666 4.66675 14.6666V21.3333C5.60008 21.3333 6.38675 21.6533 7.03341 22.3C7.68008 22.9466 8.00008 23.7333 8.00008 24.6666H24.0001C24.0001 23.7333 24.3201 22.9466 24.9667 22.3C25.6134 21.6533 26.4001 21.3333 27.3334 21.3333V14.6666C26.4001 14.6666 25.6134 14.3466 24.9667 13.7ZM18.8334 20.8333C18.0534 21.6133 17.1134 22 16.0001 22C14.8867 22 13.9467 21.6133 13.1667 20.8333C12.3867 20.0533 12.0001 19.1133 12.0001 18C12.0001 16.8866 12.3867 15.9466 13.1667 15.1666C13.9467 14.3866 14.8867 14 16.0001 14C17.1134 14 18.0534 14.3866 18.8334 15.1666C19.6134 15.9466 20.0001 16.8866 20.0001 18C20.0001 19.1133 19.6134 20.0533 18.8334 20.8333Z" fill="#25CBDB"/>
<path d="M20.7404 7.00669C20.5404 6.79336 20.2737 6.68003 20.0004 6.68003C19.7604 6.68003 19.5137 6.76669 19.327 6.94669L17.0004 9.07336V3.73336C17.0004 3.18003 16.5537 2.73336 16.0004 2.73336C15.447 2.73336 15.0004 3.18003 15.0004 3.73336V9.07336L12.6737 6.94669C12.267 6.57336 11.6337 6.60003 11.2604 7.00669C10.887 7.41336 10.9204 8.04669 11.327 8.42003L15.327 12.08C15.327 12.08 15.3404 12.0867 15.347 12.0934C15.4337 12.1667 15.527 12.2267 15.6337 12.2734C15.647 12.2734 15.6537 12.28 15.667 12.28C15.7737 12.32 15.8804 12.34 15.9937 12.34H16.007C16.1204 12.34 16.227 12.32 16.3337 12.28C16.347 12.28 16.3537 12.2734 16.367 12.2734C16.4737 12.2267 16.567 12.1667 16.6537 12.0934C16.6537 12.0867 16.667 12.0867 16.6737 12.08L20.6737 8.42003C21.0804 8.04669 21.1137 7.41336 20.7404 7.00669Z" fill="#25CBDB"/>
</svg>
