<svg width="32" height="32" viewBox="0 0 32 32" fill="none" xmlns="http://www.w3.org/2000/svg">
<path opacity="0.32" d="M13.3333 24C11.82 24 10.42 23.7266 9.11996 23.1866C7.81996 22.6466 6.69329 21.8933 5.73329 20.9333C4.77329 19.9733 4.01996 18.8466 3.47996 17.5466C2.93996 16.2466 2.66663 14.8466 2.66663 13.3333C2.66663 11.82 2.93996 10.4466 3.47996 9.14663C4.01996 7.84663 4.77329 6.71996 5.73329 5.75996C6.69329 4.79996 7.81996 4.04663 9.11996 3.49329C10.42 2.93996 11.82 2.66663 13.3333 2.66663C14.8466 2.66663 16.22 2.93996 17.52 3.49329C18.82 4.04663 19.9466 4.79996 20.9066 5.75996C21.8666 6.71996 22.62 7.84663 23.1733 9.14663C23.7266 10.4466 24 11.84 24 13.3333C24 14.8266 23.7266 16.2466 23.1733 17.5466C22.62 18.8466 21.8666 19.9733 20.9066 20.9333C19.9466 21.8933 18.82 22.6466 17.52 23.1866C16.22 23.7266 14.8266 24 13.3333 24Z" fill="#25CBDB"/>
<path opacity="0.52" fill-rule="evenodd" clip-rule="evenodd" d="M13.34 2.67334C11.8267 2.67334 10.4267 2.94667 9.12667 3.50001C7.82667 4.05334 6.70001 4.80667 5.74001 5.76667C4.78001 6.72667 4.02667 7.85334 3.48667 9.15334C2.94667 10.4533 2.67334 11.8467 2.67334 13.34C2.67334 14.8333 2.94667 16.2533 3.48667 17.5533C4.02667 18.8533 4.78001 19.98 5.74001 20.94C6.70001 21.9 7.82667 22.6533 9.12667 23.1933C10.4267 23.7333 11.8267 24.0067 13.34 24.0067C14.8533 24.0067 16.2267 23.7333 17.5267 23.1933C18.8267 22.6533 19.9533 21.9 20.9133 20.94C21.8733 19.98 22.6267 18.8533 23.18 17.5533C23.7333 16.2533 24.0067 14.8533 24.0067 13.34C24.0067 11.8267 23.7333 10.4533 23.18 9.15334C22.6267 7.85334 21.8733 6.72667 20.9133 5.76667C19.9533 4.80667 18.8267 4.05334 17.5267 3.50001C16.2267 2.94667 14.8333 2.67334 13.34 2.67334ZM13.3333 4.66667C14.5467 4.66667 15.6933 4.89334 16.74 5.33334C17.7933 5.78001 18.72 6.40001 19.4933 7.17334C20.2667 7.94667 20.8867 8.87334 21.3333 9.92667C21.7733 10.9667 22 12.1133 22 13.3333C22 14.5533 21.7733 15.72 21.3333 16.7667C20.8867 17.82 20.2667 18.7467 19.4933 19.52C18.72 20.2933 17.8 20.9067 16.7467 21.34C15.7 21.78 14.5533 22 13.3333 22C12.1133 22 10.94 21.78 9.89334 21.34C8.84667 20.9 7.92001 20.2867 7.15334 19.52C6.38001 18.7467 5.76667 17.8267 5.33334 16.7733C4.89334 15.7267 4.67334 14.5667 4.67334 13.3333C4.67334 12.1 4.89334 10.9667 5.33334 9.92001C5.77334 8.86667 6.38667 7.94667 7.15334 7.18001C7.92667 6.40667 8.85334 5.78667 9.90667 5.34001C10.9533 4.90001 12.1067 4.67334 13.34 4.67334" fill="#25CBDB"/>
<g opacity="0.85">
<path d="M13.3334 20C13.8867 20 14.3334 19.5533 14.3334 19V18.6666H16.3334C16.62 18.6666 16.86 18.5733 17.0534 18.3866C17.24 18.2 17.3334 17.96 17.3334 17.6666V13.3333C17.3334 13.0466 17.24 12.8066 17.0534 12.6133C16.8667 12.4266 16.6267 12.3333 16.3334 12.3333H11.3334V9.99996H16.3334C16.8867 9.99996 17.3334 9.55329 17.3334 8.99996C17.3334 8.44663 16.8867 7.99996 16.3334 7.99996H14.3334V7.66663C14.3334 7.11329 13.8867 6.66663 13.3334 6.66663C12.78 6.66663 12.3334 7.11329 12.3334 7.66663V7.99996H10.3334C10.0467 7.99996 9.80671 8.09329 9.61337 8.27996C9.42671 8.46663 9.33337 8.70663 9.33337 8.99996V13.3333C9.33337 13.62 9.42671 13.86 9.61337 14.0533C9.80004 14.2466 10.04 14.34 10.3334 14.3333H15.3334V16.6666H10.3334C9.78004 16.6666 9.33337 17.1133 9.33337 17.6666C9.33337 18.22 9.78004 18.6666 10.3334 18.6666H12.3334V19C12.3334 19.5533 12.78 20 13.3334 20Z" fill="#25CBDB"/>
<path d="M28.4134 19.58C27.18 18.3466 25.7067 17.7333 24 17.7333C22.2934 17.7333 20.7867 18.3466 19.5667 19.58C18.3467 20.8133 17.7334 22.3 17.7334 24.0333C17.7334 25.7666 18.3467 27.18 19.5667 28.4133C20.7867 29.6466 22.2667 30.26 24 30.26C25.7334 30.26 27.1867 29.6466 28.4134 28.4133C29.6467 27.18 30.2667 25.72 30.2667 24.0333C30.2667 22.3466 29.6534 20.8133 28.4134 19.58ZM26.7 26.7C26.5667 26.8333 26.4134 26.9 26.2334 26.9C26.0534 26.9 25.9 26.8333 25.7667 26.7L23.6334 24.5666C23.52 24.4533 23.4467 24.3466 23.4 24.2333C23.3534 24.12 23.3334 24 23.3334 23.8666V20.6666C23.3334 20.4866 23.4 20.3333 23.5334 20.2C23.6667 20.0666 23.82 20 24 20C24.18 20 24.3334 20.0666 24.4667 20.2C24.6 20.3333 24.6667 20.4866 24.6667 20.6666V23.7333L26.7 25.7666C26.8334 25.9 26.9 26.0533 26.9 26.2333C26.9 26.4133 26.8334 26.5666 26.7 26.7Z" fill="#25CBDB"/>
</g>
</svg>
