<svg width="32" height="32" viewBox="0 0 32 32" fill="none" xmlns="http://www.w3.org/2000/svg">
<path opacity="0.32" d="M28.6633 17.3333L28.6667 17.3333V10.6666L28.6633 10.6666V7.33325H7.33331V9.33594H5.32666V9.33325H3.32666C2.77333 9.33325 2.29999 9.52659 1.91333 9.91992C1.52666 10.3133 1.32666 10.7799 1.32666 11.3333V24.6666C1.32666 25.2199 1.51999 25.6933 1.91333 26.0799C2.30666 26.4666 2.77333 26.6666 3.32666 26.6666H24.6667C25.22 26.6666 25.6933 26.4733 26.08 26.0799C26.4667 25.6866 26.6667 25.2199 26.6667 24.6666V20.6633H28.6633V17.3333Z" fill="#25CBDB"/>
<path d="M18 17.9999C16.8867 17.9999 15.9467 17.6133 15.1667 16.8333C14.3867 16.0533 14 15.1133 14 13.9999C14 12.8866 14.3867 11.9466 15.1667 11.1666C15.9467 10.3866 16.8867 9.99992 18 9.99992C19.1133 9.99992 20.0533 10.3866 20.8333 11.1666C21.6133 11.9466 22 12.8866 22 13.9999C22 15.1133 21.6133 16.0533 20.8333 16.8333C20.0533 17.6133 19.1133 17.9999 18 17.9999ZM7.33334 22.6666C6.78001 22.6666 6.30668 22.4733 5.92001 22.0799C5.53334 21.6866 5.33334 21.2199 5.33334 20.6666V7.33325C5.33334 6.77992 5.52668 6.30659 5.92001 5.91992C6.31334 5.53325 6.78001 5.33325 7.33334 5.33325H28.6667C29.22 5.33325 29.6933 5.52659 30.08 5.91992C30.4667 6.31325 30.6667 6.77992 30.6667 7.33325V20.6666C30.6667 21.2199 30.4733 21.6933 30.08 22.0799C29.6867 22.4666 29.22 22.6666 28.6667 22.6666H7.33334ZM10.6667 20.6666H25.3333C25.3333 19.7333 25.6533 18.9466 26.3 18.2999C26.9467 17.6533 27.7333 17.3333 28.6667 17.3333V10.6666C27.7333 10.6666 26.9467 10.3466 26.3 9.69992C25.6533 9.05325 25.3333 8.26659 25.3333 7.33325H10.6667C10.6667 8.26659 10.3467 9.05325 9.70001 9.69992C9.05334 10.3466 8.26668 10.6666 7.33334 10.6666V17.3333C8.26668 17.3333 9.05334 17.6533 9.70001 18.2999C10.3467 18.9466 10.6667 19.7333 10.6667 20.6666Z" fill="#25CBDB"/>
</svg>
