<svg width="32" height="32" viewBox="0 0 32 32" fill="none" xmlns="http://www.w3.org/2000/svg">
<path opacity="0.85" fill-rule="evenodd" clip-rule="evenodd" d="M28.2799 10.8001C27.5799 9.18008 26.6332 7.76675 25.4332 6.56675C24.2332 5.36675 22.8199 4.41341 21.1999 3.71341C19.5799 3.01341 17.8532 2.66675 16.0332 2.66675C14.2132 2.66675 12.4532 3.01341 10.8332 3.71341C9.21325 4.41341 7.79325 5.36675 6.57991 6.56675C5.36658 7.76675 4.41325 9.18008 3.71325 10.8001C3.01325 12.4201 2.65991 14.1467 2.65991 15.9667C2.65991 17.7867 3.01325 19.5467 3.71325 21.1667C4.41325 22.7867 5.36658 24.2067 6.57991 25.4201C7.79325 26.6334 9.20658 27.5867 10.8332 28.2867C12.4532 28.9867 14.1799 29.3334 15.9999 29.3334C17.8199 29.3334 19.5799 28.9867 21.1999 28.2867C22.8199 27.5867 24.2332 26.6334 25.4332 25.4201C26.6332 24.2067 27.5799 22.7934 28.2799 21.1667C28.9799 19.5467 29.3332 17.8201 29.3332 16.0001C29.3332 14.1801 28.9799 12.4201 28.2799 10.8001ZM9.84658 11.1534C10.1932 10.8067 10.6199 10.6334 11.1266 10.6334C11.6332 10.6334 12.0666 10.8067 12.4066 11.1534C12.7532 11.5001 12.9266 11.9267 12.9266 12.4334C12.9266 12.9401 12.7532 13.3734 12.4066 13.7201C12.0599 14.0667 11.6332 14.2401 11.1266 14.2401C10.6199 14.2401 10.1866 14.0667 9.84658 13.7201C9.50658 13.3734 9.32658 12.9467 9.32658 12.4334C9.32658 11.9201 9.49991 11.4934 9.84658 11.1534ZM22.2332 19.9001C21.5866 20.9667 20.7066 21.8001 19.5799 22.4001C18.4599 23.0001 17.2666 23.3001 15.9932 23.3001C14.7199 23.3001 13.5399 23.0001 12.4266 22.4001C11.3132 21.8001 10.4399 20.9667 9.79325 19.9001C9.61325 19.6334 9.59325 19.4001 9.72658 19.2001C9.85991 19.0001 10.0799 18.9001 10.3932 18.9001H21.5932C21.9066 18.9001 22.1332 19.0001 22.2732 19.2001C22.4199 19.4001 22.3999 19.6334 22.2266 19.9001H22.2332ZM22.1532 13.7134C21.8066 14.0601 21.3799 14.2334 20.8666 14.2334C20.3532 14.2334 19.9266 14.0601 19.5866 13.7134C19.2466 13.3667 19.0732 12.9401 19.0732 12.4267C19.0732 11.9134 19.2466 11.4867 19.5866 11.1467C19.9332 10.8001 20.3599 10.6267 20.8666 10.6267C21.3732 10.6267 21.8066 10.8001 22.1532 11.1467C22.4999 11.4934 22.6666 11.9201 22.6666 12.4267C22.6666 12.9334 22.4932 13.3667 22.1532 13.7134Z" fill="#25CBDB"/>
<g opacity="0.2">
<path d="M20.8666 14.2334C21.3799 14.2334 21.8066 14.06 22.1533 13.7134C22.4999 13.3667 22.6666 12.94 22.6666 12.4267C22.6666 11.9134 22.4933 11.4867 22.1533 11.1467C21.8066 10.8 21.3799 10.6267 20.8666 10.6267C20.3533 10.6267 19.9266 10.8 19.5866 11.1467C19.2399 11.4934 19.0733 11.92 19.0733 12.4267C19.0733 12.9334 19.2466 13.3667 19.5866 13.7134C19.9266 14.06 20.3599 14.2334 20.8666 14.2334Z" fill="#25CBDB"/>
<path d="M11.1333 14.2334C11.6466 14.2334 12.0733 14.06 12.4133 13.7134C12.7533 13.3667 12.9333 12.94 12.9333 12.4267C12.9333 11.9134 12.7599 11.4867 12.4133 11.1467C12.0666 10.8 11.6399 10.6267 11.1333 10.6267C10.6266 10.6267 10.1933 10.8 9.85325 11.1467C9.50659 11.4934 9.33325 11.92 9.33325 12.4267C9.33325 12.9334 9.50659 13.3667 9.85325 13.7134C10.1999 14.06 10.6266 14.2334 11.1333 14.2334Z" fill="#25CBDB"/>
<path d="M10.3999 18.9C10.0866 18.9 9.86659 19 9.73325 19.2C9.59992 19.4 9.61992 19.6334 9.79992 19.9C10.4466 20.9667 11.3199 21.8 12.4333 22.4C13.5466 23 14.7333 23.3 15.9999 23.3C17.2666 23.3 18.4599 23 19.5866 22.4C20.7066 21.8 21.5933 20.9667 22.2399 19.9C22.4199 19.6334 22.4333 19.4 22.2866 19.2C22.1399 19 21.9133 18.9 21.6066 18.9H10.3999Z" fill="#25CBDB"/>
</g>
</svg>
