<svg width="32" height="32" viewBox="0 0 32 32" fill="none" xmlns="http://www.w3.org/2000/svg">
<g opacity="0.52">
<path d="M26.3866 23.6134C26.1933 23.4267 25.9533 23.3334 25.6666 23.3334H23.9999V13.2001C23.9999 11.3334 23.4533 9.66008 22.3533 8.18008C21.2533 6.70675 19.7999 5.77341 17.9999 5.40008V4.66675C17.9999 4.10675 17.8066 3.64008 17.4199 3.24675C17.0266 2.86008 16.5533 2.66675 15.9999 2.66675C15.4466 2.66675 14.9733 2.86008 14.5799 3.24675C14.1933 3.64008 13.9999 4.10675 13.9999 4.66675V5.40008C12.1999 5.77341 10.7466 6.70675 9.64658 8.18008C9.22658 8.74675 8.87992 9.34675 8.62658 9.97341L23.9866 25.3334H25.6666C25.9533 25.3334 26.1933 25.2401 26.3866 25.0467C26.5733 24.8601 26.6666 24.6201 26.6666 24.3334C26.6666 24.0467 26.5733 23.8067 26.3866 23.6134Z" fill="currentColor"/>
<path d="M7.99992 13.2001V23.3334H6.33325C6.04659 23.3334 5.80659 23.4267 5.61325 23.6134C5.42659 23.8067 5.33325 24.0401 5.33325 24.3334C5.33325 24.6267 5.42659 24.8601 5.61325 25.0467C5.80659 25.2401 6.04659 25.3334 6.33325 25.3334H21.1599L8.05992 12.2334C8.01992 12.5467 7.99992 12.8734 7.99992 13.2001Z" fill="currentColor"/>
</g>
<path opacity="0.2" d="M8.06006 12.2334L21.1601 25.3334H23.9867L8.62672 9.97339C8.32672 10.6867 8.13339 11.4401 8.06006 12.2334Z" fill="currentColor"/>
<path d="M13.3333 25.3334V26.6667C13.3333 27.4001 13.5933 28.0267 14.1133 28.5467C14.6333 29.0667 15.26 29.3334 16 29.3334C16.74 29.3334 17.36 29.0734 17.88 28.5467C18.4 28.0267 18.6666 27.4001 18.6666 26.6667V25.3334H13.3333Z" fill="currentColor"/>
<path d="M26.6666 29.0001C26.4133 29.0001 26.1533 28.9001 25.96 28.7067L3.29329 6.04007C2.89996 5.64673 2.89996 5.0134 3.29329 4.62673C3.68662 4.24007 4.31996 4.2334 4.70662 4.62673L27.3733 27.2934C27.7666 27.6867 27.7666 28.3201 27.3733 28.7067C27.18 28.9001 26.92 29.0001 26.6666 29.0001Z" fill="currentColor"/>
</svg>
