<svg width="32" height="32" viewBox="0 0 32 32" fill="none" xmlns="http://www.w3.org/2000/svg">
<path opacity="0.52" d="M27.4 4.6C27 4.2 26.5333 4 26 4H6C5.46667 4 5 4.2 4.6 4.6C4.2 5 4 5.46667 4 6V26C4 26.5333 4.2 27 4.6 27.4C5 27.8 5.46667 28 6 28H26C26.5333 28 27 27.8 27.4 27.4C27.8 27 28 26.5333 28 26V6C28 5.46667 27.8 5 27.4 4.6ZM9.52 9.58C9.70667 9.39333 9.94667 9.3 10.2333 9.3H21.7667C22.0533 9.3 22.2933 9.39333 22.48 9.58C22.6733 9.77333 22.7667 10.0133 22.7667 10.3C22.7667 10.5867 22.6733 10.8267 22.48 11.0133C22.2933 11.2067 22.0533 11.3 21.7667 11.3H10.2333C9.94667 11.3 9.70667 11.2067 9.52 11.0133C9.32667 10.8267 9.23333 10.5867 9.23333 10.3C9.23333 10.0133 9.32667 9.77333 9.52 9.58ZM9.52 15.28C9.70667 15.0933 9.94667 15 10.2333 15H21.7667C22.0533 15 22.2933 15.0933 22.48 15.28C22.6733 15.4733 22.7667 15.7067 22.7667 16C22.7667 16.2933 22.6733 16.5267 22.48 16.7133C22.2933 16.9067 22.0533 17 21.7667 17H10.2333C9.94667 17 9.70667 16.9067 9.52 16.7133C9.32667 16.5267 9.23333 16.2867 9.23333 16C9.23333 15.7133 9.32667 15.4733 9.52 15.28ZM16.0133 22.4133C15.8267 22.6067 15.5867 22.7 15.2933 22.7H10.2333C9.94667 22.7 9.70667 22.6067 9.52 22.4133C9.32667 22.2267 9.23333 21.9867 9.23333 21.7C9.23333 21.4133 9.32667 21.1733 9.52 20.98C9.70667 20.7933 9.94667 20.7 10.2333 20.7H15.2933C15.5867 20.7 15.8267 20.7933 16.0133 20.98C16.2 21.1733 16.2933 21.4067 16.2933 21.7C16.2933 21.9933 16.2 22.2267 16.0133 22.4133ZM26.7 26.7C26.5667 26.8333 26.4133 26.9 26.2333 26.9C26.0533 26.9 25.9 26.8333 25.7667 26.7L23.6333 24.5667C23.52 24.4533 23.4467 24.34 23.4 24.2333C23.3533 24.12 23.3333 24 23.3333 23.8667V20.6667C23.3333 20.4867 23.4 20.3333 23.5333 20.2C23.6667 20.0667 23.82 20 24 20C24.18 20 24.3333 20.0667 24.4667 20.2C24.6 20.3333 24.6667 20.4867 24.6667 20.6667V23.7333L26.7 25.7667C26.8333 25.9 26.9 26.0533 26.9 26.2333C26.9 26.4133 26.8333 26.5667 26.7 26.7Z" fill="#25CBDB"/>
<path opacity="0.85" d="M28.4133 19.5799C28.2799 19.4466 28.1399 19.3199 27.9999 19.1999C26.8599 18.2199 25.5266 17.7333 23.9999 17.7333C22.2666 17.7333 20.7866 18.3466 19.5666 19.5799C18.3466 20.8133 17.7333 22.2999 17.7333 24.0333C17.7333 25.5333 18.2199 26.8599 19.1933 27.9999C19.3066 28.1399 19.4333 28.2799 19.5666 28.4133C20.7866 29.6466 22.2666 30.2666 23.9999 30.2666C25.7333 30.2666 27.1866 29.6466 28.4133 28.4133C29.6533 27.1799 30.2666 25.7199 30.2666 24.0333C30.2666 22.3466 29.6533 20.8133 28.4133 19.5799ZM23.3333 20.6666C23.3333 20.4866 23.3999 20.3333 23.5333 20.1999C23.6666 20.0666 23.8199 19.9999 23.9999 19.9999C24.1799 19.9999 24.3333 20.0666 24.4666 20.1999C24.5999 20.3333 24.6666 20.4866 24.6666 20.6666V23.7333L26.6999 25.7666C26.8333 25.8999 26.8999 26.0533 26.8999 26.2333C26.8999 26.4133 26.8333 26.5666 26.6999 26.6999C26.5666 26.8333 26.4133 26.8999 26.2333 26.8999C26.0533 26.8999 25.8999 26.8333 25.7666 26.6999L23.6333 24.5666C23.5199 24.4533 23.4466 24.3399 23.3999 24.2333C23.3533 24.1199 23.3333 23.9999 23.3333 23.8666V20.6666Z" fill="#25CBDB"/>
<g opacity="0.2">
<path d="M15.2933 20.7H10.2333C9.94667 20.7 9.70667 20.7934 9.52 20.98C9.33333 21.1667 9.23333 21.4067 9.23333 21.7C9.23333 21.9934 9.32667 22.2267 9.52 22.4134C9.70667 22.6 9.94667 22.7 10.2333 22.7H15.2933C15.58 22.7 15.82 22.6067 16.0133 22.4134C16.2 22.2267 16.2933 21.9867 16.2933 21.7C16.2933 21.4134 16.2 21.1734 16.0133 20.98C15.8267 20.7934 15.5867 20.7 15.2933 20.7Z" fill="#25CBDB"/>
<path d="M21.7666 15H10.2333C9.94661 15 9.70661 15.0934 9.51994 15.2867C9.33328 15.48 9.23328 15.7134 9.23328 16C9.23328 16.2867 9.32661 16.5267 9.51994 16.72C9.71328 16.9134 9.94661 17 10.2333 17H21.7666C22.0533 17 22.2933 16.9067 22.4799 16.72C22.6666 16.5334 22.7666 16.2934 22.7666 16C22.7666 15.7067 22.6733 15.4734 22.4799 15.2867C22.2933 15.1 22.0533 15 21.7666 15Z" fill="#25CBDB"/>
<path d="M21.7666 9.30005H10.2333C9.94661 9.30005 9.70661 9.39338 9.51994 9.58005C9.33328 9.76672 9.23328 10.0067 9.23328 10.3C9.23328 10.5934 9.32661 10.8267 9.51994 11.02C9.70661 11.2067 9.94661 11.3 10.2333 11.3H21.7666C22.0533 11.3 22.2933 11.2067 22.4799 11.02C22.6666 10.8334 22.7666 10.5934 22.7666 10.3C22.7666 10.0067 22.6733 9.77338 22.4799 9.58005C22.2933 9.39338 22.0533 9.30005 21.7666 9.30005Z" fill="#25CBDB"/>
<path d="M26.9 26.2333C26.9 26.4067 26.8333 26.5667 26.7 26.7C26.5667 26.8333 26.4133 26.9 26.2333 26.9C26.0533 26.9 25.9 26.8333 25.7667 26.7L23.6333 24.5667C23.52 24.4533 23.4467 24.34 23.4 24.2333C23.3533 24.12 23.3333 24 23.3333 23.8667V20.6667C23.3333 20.4867 23.4 20.3333 23.5333 20.2C23.6667 20.0667 23.82 20 24 20C24.18 20 24.3333 20.0667 24.4667 20.2C24.6 20.3333 24.6667 20.4867 24.6667 20.6667V23.7333L26.7 25.7667C26.8333 25.9 26.9 26.0533 26.9 26.2333Z" fill="#25CBDB"/>
</g>
</svg>
