<svg width="32" height="32" viewBox="0 0 32 32" fill="none" xmlns="http://www.w3.org/2000/svg">
<g opacity="0.52">
<path d="M13.1202 29.7401C9.53351 29.7401 5.49351 28.0068 5.27351 27.9135C4.76684 27.6935 4.53351 27.1068 4.75351 26.6001C4.97351 26.0935 5.56017 25.8601 6.06684 26.0801C7.76017 26.8135 12.7002 28.4735 15.2068 27.3935C15.8602 27.1135 16.2868 26.6668 16.5202 26.0201C17.1935 24.1668 15.2935 22.8668 12.1468 20.9068C9.35351 19.1668 6.19351 17.2001 5.59351 14.0335C5.21351 12.0268 5.90017 9.88012 7.69351 7.46679C8.02017 7.02012 8.65351 6.93346 9.09351 7.26012C9.54017 7.58679 9.62684 8.21346 9.30017 8.66012C7.86017 10.6001 7.28684 12.2401 7.56017 13.6601C8.00017 15.9668 10.6468 17.6135 13.2068 19.2068C16.3802 21.1801 19.6602 23.2268 18.4068 26.7001C17.9802 27.8735 17.1735 28.7268 16.0068 29.2268C15.1535 29.5935 14.1535 29.7401 13.1202 29.7401Z" fill="#25CBDB"/>
<path d="M20.1668 16.6134L16.0334 12.4801L24.1334 4.38009C24.3801 4.13343 24.6668 4.01343 25.0001 4.01343C25.3334 4.01343 25.6201 4.13343 25.8668 4.38009L28.3001 6.81343C28.5468 7.06009 28.6668 7.33343 28.6668 7.64676C28.6668 7.96009 28.5468 8.23343 28.3001 8.48009L20.1668 16.6134Z" fill="#25CBDB"/>
</g>
<g opacity="0.85">
<path d="M20.1667 16.62L9.40008 27.3867C9.22008 27.56 9.00675 27.7067 8.74675 27.82C8.49341 27.9267 8.23341 27.9867 7.96675 27.9867H5.66675C5.38008 27.9867 5.14008 27.8933 4.94675 27.7C4.76008 27.5133 4.66675 27.2733 4.66675 26.9867V24.6867C4.66675 24.42 4.72008 24.16 4.83341 23.9C4.94675 23.6467 5.08675 23.4267 5.26675 23.2533L16.0334 12.4867L20.1667 16.62Z" fill="#25CBDB"/>
<path d="M26.8001 9.97998L27.5667 10.7466C28.1467 11.3266 28.4267 11.8866 28.4201 12.4333C28.4134 12.98 28.1267 13.5266 27.5667 14.0866L20.7001 20.9533C20.5001 21.1533 20.2601 21.2533 19.9801 21.2533C19.7001 21.2533 19.4601 21.1533 19.2601 20.9533C19.0601 20.7533 18.9534 20.52 18.9401 20.2533C18.9267 19.9866 19.0267 19.7533 19.2267 19.5533L26.3267 12.4533L25.3267 11.4533L26.8001 9.97998Z" fill="#25CBDB"/>
</g>
<path d="M20.1668 16.6201L16.0334 12.4801L17.4468 11.0601L21.5801 15.1934L20.1668 16.6201Z" fill="#25CBDB"/>
</svg>
