<svg width="32" height="32" viewBox="0 0 32 32" fill="none" xmlns="http://www.w3.org/2000/svg">
<g opacity="0.2">
<path d="M26.8999 26.2334C26.8999 26.4067 26.8333 26.5667 26.6999 26.7C26.5666 26.8334 26.4133 26.9 26.2333 26.9C26.0533 26.9 25.8999 26.8334 25.7666 26.7L23.6333 24.5667C23.5199 24.4534 23.4466 24.34 23.3999 24.2334C23.3533 24.12 23.3333 24 23.3333 23.8667V20.6667C23.3333 20.4867 23.3999 20.3334 23.5333 20.2C23.6666 20.0667 23.8199 20 23.9999 20C24.1799 20 24.3333 20.0667 24.4666 20.2C24.5999 20.3334 24.6666 20.4867 24.6666 20.6667V23.7334L26.6999 25.7667C26.8333 25.9 26.8999 26.0534 26.8999 26.2334Z" fill="#25CBDB"/>
<path d="M15.2933 20.7H10.2333C9.94661 20.7 9.70661 20.7934 9.51994 20.98C9.33328 21.1667 9.23328 21.4067 9.23328 21.7C9.23328 21.9934 9.32661 22.2267 9.51994 22.4134C9.70661 22.6 9.94661 22.7 10.2333 22.7H15.2933C15.5799 22.7 15.8199 22.6067 16.0133 22.4134C16.1999 22.2267 16.2933 21.9867 16.2933 21.7C16.2933 21.4134 16.1999 21.1734 16.0133 20.98C15.8266 20.7934 15.5866 20.7 15.2933 20.7Z" fill="#25CBDB"/>
<path d="M21.7666 15H10.2333C9.94661 15 9.70661 15.0934 9.51994 15.2867C9.33328 15.48 9.23328 15.7134 9.23328 16C9.23328 16.2867 9.32661 16.5267 9.51994 16.72C9.71328 16.9134 9.94661 17 10.2333 17H21.7666C22.0533 17 22.2933 16.9067 22.4799 16.72C22.6666 16.5334 22.7666 16.2934 22.7666 16C22.7666 15.7067 22.6733 15.4734 22.4799 15.2867C22.2933 15.1 22.0533 15 21.7666 15Z" fill="#25CBDB"/>
<path d="M21.7666 9.30005H10.2333C9.94661 9.30005 9.70661 9.39338 9.51994 9.58005C9.33328 9.76672 9.23328 10.0067 9.23328 10.3C9.23328 10.5934 9.32661 10.8267 9.51994 11.02C9.70661 11.2067 9.94661 11.3 10.2333 11.3H21.7666C22.0533 11.3 22.2933 11.2067 22.4799 11.02C22.6666 10.8334 22.7666 10.5934 22.7666 10.3C22.7666 10.0067 22.6733 9.77338 22.4799 9.58005C22.2933 9.39338 22.0533 9.30005 21.7666 9.30005Z" fill="#25CBDB"/>
</g>
<path opacity="0.52" d="M17.7334 24.0334C17.7334 22.3001 18.3467 20.8134 19.5667 19.5801C19.88 19.2668 20.2134 18.9868 20.56 18.7534C19.7067 19.0534 18.9267 19.5468 18.2334 20.2468C17.0134 21.4801 16.4 22.9668 16.4 24.7001C16.4 25.9201 16.7267 27.0201 17.36 28.0001H19.1934C18.22 26.8601 17.7334 25.5334 17.7334 24.0334Z" fill="#25CBDB"/>
<path opacity="0.85" fill-rule="evenodd" clip-rule="evenodd" d="M18.2333 20.2533C18.9247 19.5552 19.6957 19.0627 20.5528 18.7624C20.2072 18.9967 19.8784 19.2715 19.5666 19.5867C18.3466 20.82 17.7333 22.3067 17.7333 24.04C17.7333 25.54 18.2199 26.8667 19.1933 28.0067H19.1988C19.3107 28.1444 19.4355 28.2821 19.5667 28.4133C20.7867 29.6466 22.2667 30.2666 24 30.2666C25.7334 30.2666 27.1867 29.6466 28.4134 28.4133C29.6534 27.18 30.2667 25.72 30.2667 24.0333C30.2667 22.3466 29.6534 20.8133 28.4134 19.58C28.28 19.4466 28.14 19.32 28 19.2L28 5.99992C28 5.44659 27.8067 4.97325 27.4133 4.58659C27.0267 4.19992 26.5533 3.99992 26 3.99992H19.1667C19.0533 3.21992 18.7 2.58659 18.1 2.07992C17.5 1.57992 16.8 1.33325 16 1.33325C15.2 1.33325 14.5 1.58659 13.9 2.07992C13.3 2.57992 12.9467 3.21992 12.8333 3.99992H6C5.44667 3.99992 4.97333 4.19325 4.58667 4.58659C4.2 4.97325 4 5.44659 4 5.99992V25.9999C4 26.5533 4.19333 27.0266 4.58667 27.4132C4.97333 27.7999 5.44667 27.9999 6 27.9999H17.36C16.72 27.0199 16.4 25.9199 16.4 24.6999C16.4 22.9666 17.0133 21.4799 18.2333 20.2466V20.2533ZM15.1867 3.44659C15.42 3.21325 15.6933 3.09992 16 3.09992C16.3067 3.09992 16.5867 3.21325 16.8133 3.44659C17.0467 3.67992 17.1667 3.95325 17.1667 4.26659C17.1667 4.57992 17.0533 4.85325 16.8133 5.08659C16.58 5.31992 16.3067 5.43325 16 5.43325C15.6933 5.43325 15.4133 5.31992 15.1867 5.08659C14.9533 4.85325 14.8333 4.57992 14.8333 4.26659C14.8333 3.95325 14.9467 3.67992 15.1867 3.44659ZM9.61333 9.61325C9.8 9.42659 10.04 9.33325 10.3333 9.33325H21.6667C21.9533 9.33325 22.1933 9.42659 22.3867 9.61325C22.58 9.79992 22.6667 10.0399 22.6667 10.3333C22.6667 10.6266 22.5733 10.8599 22.3867 11.0466C22.2 11.2333 21.96 11.3333 21.6667 11.3333H10.3333C10.0467 11.3333 9.80667 11.2399 9.61333 11.0466C9.42667 10.8599 9.33333 10.6199 9.33333 10.3333C9.33333 10.0466 9.42667 9.80658 9.61333 9.61325ZM9.61333 15.2799C9.8 15.0933 10.04 14.9999 10.3333 14.9999H21.6667C21.9533 14.9999 22.1933 15.0933 22.3867 15.2799C22.58 15.4666 22.6667 15.7066 22.6667 15.9999C22.6667 16.2933 22.5733 16.5266 22.3867 16.7133C22.2 16.8999 21.96 16.9999 21.6667 16.9999H10.3333C10.0467 16.9999 9.80667 16.9066 9.61333 16.7133C9.42667 16.5266 9.33333 16.2866 9.33333 15.9999C9.33333 15.7133 9.42667 15.4733 9.61333 15.2799ZM16.0133 22.3799C15.8267 22.5666 15.5867 22.6666 15.3 22.6666H10.34C10.0533 22.6666 9.81333 22.5732 9.62 22.3799C9.43333 22.1933 9.34 21.9533 9.34 21.6666C9.34 21.3799 9.43333 21.1399 9.62 20.9466C9.80667 20.7533 10.0467 20.6666 10.34 20.6666H15.3C15.5867 20.6666 15.8267 20.7599 16.0133 20.9466C16.2 21.1333 16.3 21.3733 16.3 21.6666C16.3 21.9599 16.2067 22.1933 16.0133 22.3799ZM23.3999 24.2333C23.4466 24.34 23.5199 24.4533 23.6333 24.5667L25.7666 26.7C25.8999 26.8333 26.0533 26.9 26.2333 26.9C26.4133 26.9 26.5666 26.8333 26.6999 26.7C26.8333 26.5667 26.8999 26.4133 26.8999 26.2333C26.8999 26.0533 26.8333 25.9 26.6999 25.7667L24.6666 23.7333V20.6667C24.6666 20.4867 24.5999 20.3333 24.4666 20.2C24.3333 20.0667 24.1799 20 23.9999 20C23.8199 20 23.6666 20.0667 23.5333 20.2C23.3999 20.3333 23.3333 20.4867 23.3333 20.6667V23.8667C23.3333 24 23.3533 24.12 23.3999 24.2333Z" fill="#25CBDB"/>
<path d="M27.4133 27.42C27.7999 27.0333 27.9999 26.56 27.9999 26.0067V19.2067C26.8599 18.2267 25.5266 17.74 23.9999 17.74C22.2666 17.74 20.7866 18.3533 19.5666 19.5867C18.3466 20.82 17.7333 22.3067 17.7333 24.04C17.7333 25.54 18.2199 26.8667 19.1933 28.0067H25.9999C26.5533 28.0067 27.0266 27.8133 27.4133 27.42ZM23.6333 24.5667C23.5199 24.4533 23.4466 24.34 23.3999 24.2333C23.3533 24.12 23.3333 24 23.3333 23.8667V20.6667C23.3333 20.4867 23.3999 20.3333 23.5333 20.2C23.6666 20.0667 23.8199 20 23.9999 20C24.1799 20 24.3333 20.0667 24.4666 20.2C24.5999 20.3333 24.6666 20.4867 24.6666 20.6667V23.7333L26.6999 25.7667C26.8333 25.9 26.8999 26.0533 26.8999 26.2333C26.8999 26.4133 26.8333 26.5667 26.6999 26.7C26.5666 26.8333 26.4133 26.9 26.2333 26.9C26.0533 26.9 25.8999 26.8333 25.7666 26.7L23.6333 24.5667Z" fill="#25CBDB"/>
</svg>
