<svg width="32" height="32" viewBox="0 0 32 32" fill="none" xmlns="http://www.w3.org/2000/svg">
<path opacity="0.2" d="M20.0333 13.3799C18.9466 12.3066 17.5999 11.7666 15.9999 11.7666C14.3999 11.7666 13.0266 12.3066 11.9533 13.3799C10.8733 14.4599 10.3333 15.8133 10.3333 17.4333C10.3333 19.0533 10.8733 20.3799 11.9533 21.4666C13.0266 22.5533 14.3799 23.0999 15.9999 23.0999C17.6199 23.0999 18.9466 22.5533 20.0333 21.4666C21.1199 20.3799 21.6666 19.0333 21.6666 17.4333C21.6666 15.8333 21.1199 14.4599 20.0333 13.3799ZM18.6199 20.0466C17.9199 20.7466 17.0466 21.0999 15.9999 21.0999C14.9533 21.0999 14.0533 20.7466 13.3666 20.0466C12.6799 19.3466 12.3333 18.4799 12.3333 17.4333C12.3333 16.3866 12.6799 15.4866 13.3666 14.7999C14.0533 14.1133 14.9333 13.7666 15.9999 13.7666C17.0666 13.7666 17.9199 14.1133 18.6199 14.7999C19.3199 15.4866 19.6666 16.3666 19.6666 17.4333C19.6666 18.4999 19.3199 19.3466 18.6199 20.0466Z" fill="currentColor"/>
<path opacity="0.85" d="M28.7201 7.51324C28.3067 7.10657 27.8467 6.8999 27.3334 6.8999H4.66675C4.13341 6.8999 3.66675 7.10657 3.26675 7.51324C2.86675 7.92657 2.66675 8.38657 2.66675 8.8999V25.9999C2.66675 26.5332 2.86675 26.9999 3.26675 27.3999C3.66675 27.7999 4.13341 27.9999 4.66675 27.9999H27.3334C27.8467 27.9999 28.3067 27.7999 28.7201 27.3999C29.1267 26.9999 29.3334 26.5332 29.3334 25.9999V8.8999C29.3334 8.38657 29.1267 7.92657 28.7201 7.51324ZM20.0334 21.4666C18.9467 22.5532 17.6001 23.0999 16.0001 23.0999C14.4001 23.0999 13.0267 22.5532 11.9534 21.4666C10.8734 20.3799 10.3334 19.0332 10.3334 17.4332C10.3334 15.8332 10.8734 14.4599 11.9534 13.3799C13.0267 12.3066 14.3801 11.7666 16.0001 11.7666C17.6201 11.7666 18.9467 12.3066 20.0334 13.3799C21.1201 14.4599 21.6667 15.8132 21.6667 17.4332C21.6667 19.0532 21.1201 20.3799 20.0334 21.4666Z" fill="currentColor"/>
<g opacity="0.32">
<path d="M19.6667 17.4333C19.6667 18.48 19.32 19.3467 18.62 20.0467C17.92 20.7467 17.0467 21.1 16 21.1C14.9533 21.1 14.0533 20.7467 13.3666 20.0467C12.68 19.3467 12.3333 18.48 12.3333 17.4333C12.3333 16.3867 12.68 15.4867 13.3666 14.8C14.0533 14.1133 14.9333 13.7667 16 13.7667C17.0667 13.7667 17.92 14.1133 18.62 14.8C19.32 15.4867 19.6667 16.3667 19.6667 17.4333Z" fill="currentColor"/>
<path d="M9.56665 6.9L11.4 4.7C11.58 4.45333 11.8 4.28 12.0667 4.16667C12.3333 4.05333 12.62 4 12.9333 4H19.0667C19.38 4 19.6667 4.05333 19.9333 4.16667C20.2 4.28 20.42 4.45333 20.6 4.7L22.4333 6.9" fill="currentColor"/>
</g>
</svg>
