<svg width="32" height="32" viewBox="0 0 32 32" fill="none" xmlns="http://www.w3.org/2000/svg">
<path d="M20.9333 20.9334L25.1333 16.7334C25.8 16.0667 26.2667 15.3334 26.6 14.4667C26.9333 13.6001 27.1333 12.6667 27.1333 11.7334C27.1333 9.80006 26.4667 8.1334 25.0667 6.80006C23.7333 5.46673 22.0667 4.7334 20.1333 4.7334C19.2 4.7334 18.3333 4.9334 17.4667 5.26673C16.6 5.60007 15.8667 6.1334 15.2 6.80006L11 11.0001L20.9333 20.8667V20.9334Z" fill="#25CBDB"/>
<path opacity="0.2" d="M11.8 27.2C12.7334 27.2 13.6 27 14.4667 26.6667C15.3334 26.3333 16.0667 25.8 16.7334 25.1333L20.9334 20.9333L11 11.0667L6.80005 15.2667C6.13338 15.9333 5.66672 16.6666 5.33338 17.5333C5.00005 18.4 4.80005 19.3333 4.80005 20.2667C4.80005 22.2 5.46672 23.8666 6.86672 25.2C8.20005 26.5333 9.86672 27.2667 11.8 27.2667V27.2Z" fill="#25CBDB"/>
</svg>
