<svg width="32" height="32" viewBox="0 0 32 32" fill="none" xmlns="http://www.w3.org/2000/svg">
<g clip-path="url(#clip0_4093_737)">
<path opacity="0.52" d="M9.35622 9.88125C8.69372 9.26875 7.89997 8.91875 7.03747 8.91875H5.04872L1.42247 12.55C-0.474156 14.4438 -0.474156 17.5188 1.42247 19.4125L5.04872 23.0375H7.03747C7.89997 23.0375 8.69372 22.6875 9.35622 22.075L14.15 17.2875C15.0187 16.4125 16.5375 16.4125 17.4062 17.2813L22.2187 22.0938C22.8312 22.7063 23.675 23.0563 24.5375 23.0563H26.8937L30.5375 19.4125C32.4312 17.5188 32.4312 14.4438 30.5375 12.55L26.8937 8.90625H24.5375C23.675 8.90625 22.8312 9.25625 22.2187 9.8625L17.4062 14.675C16.9562 15.0688 16.3687 15.35 15.7812 15.35C15.1875 15.35 14.6 15.0688 14.15 14.675L9.35622 9.88125Z" fill="currentColor"/>
<path d="M16.4061 18.2805C16.0686 17.943 15.4873 17.943 15.1498 18.2805L10.3561 23.0742C9.46855 23.9617 8.2873 24.4492 7.0373 24.4492H6.45605L12.5498 30.5367C14.4436 32.3805 17.5186 32.3805 19.4123 30.5367L25.4811 24.468H24.5373C23.2873 24.468 22.1061 23.9805 21.2186 23.093L16.4061 18.2805Z" fill="currentColor"/>
<path d="M16.4062 13.6812C16.0062 14.025 15.4937 14.0312 15.15 13.6812L10.3562 8.88747C9.46872 7.94372 8.28747 7.51247 7.03747 7.51247H6.45622L12.5437 1.42247C14.4437 -0.474156 17.5187 -0.474156 19.4125 1.42247L25.4875 7.49372H24.5375C23.2875 7.49372 22.1062 7.98122 21.2187 8.86872L16.4062 13.6812Z" fill="currentColor"/>
</g>
<defs>
<clipPath id="clip0_4093_737">
<rect width="32" height="32" fill="white"/>
</clipPath>
</defs>
</svg>
