<svg width="32" height="32" viewBox="0 0 32 32" fill="none" xmlns="http://www.w3.org/2000/svg">
<path opacity="0.32" d="M22.0267 7.1065C20.2467 5.4665 18.2534 4.6665 15.9334 4.6665C13.6134 4.6665 11.6201 5.4665 9.84006 7.1065C8.10672 8.69984 7.26672 10.8265 7.26672 13.5998C7.26672 15.3998 8.04006 17.4665 9.57339 19.7265C11.0134 21.8598 13.1467 24.1932 15.9334 26.6798C18.7134 24.1932 20.8534 21.8532 22.2934 19.7265C23.8267 17.4665 24.6001 15.4065 24.6001 13.5998C24.6001 10.8265 23.7601 8.69984 22.0267 7.1065Z" fill="#25CBDB"/>
<path d="M15.9334 4.6665C18.2534 4.6665 20.2467 5.4665 22.0267 7.1065C23.7601 8.69984 24.6001 10.8265 24.6001 13.5998C24.6001 15.4065 23.8267 17.4665 22.2934 19.7265C20.8534 21.8532 18.7134 24.1932 15.9334 26.6798C13.1467 24.1932 11.0134 21.8598 9.57339 19.7265C8.04006 17.4665 7.26672 15.3998 7.26672 13.5998C7.26672 10.8265 8.10672 8.69984 9.84006 7.1065C11.6201 5.4665 13.6134 4.6665 15.9334 4.6665ZM15.9334 2.6665C13.1134 2.6665 10.6267 3.65317 8.48672 5.63317C6.34006 7.61317 5.26672 10.2665 5.26672 13.5998C5.26672 15.8198 6.15339 18.2398 7.92006 20.8532C9.58006 23.2998 12.0267 25.9398 15.2801 28.7732C15.6534 29.0998 16.2201 29.0998 16.5934 28.7732C19.8401 25.9465 22.2934 23.3065 23.9534 20.8532C25.7201 18.2398 26.6001 15.8265 26.6001 13.5998C26.6001 10.2665 25.5267 7.61317 23.3801 5.63317C21.2334 3.65317 18.7534 2.6665 15.9334 2.6665Z" fill="#25CBDB"/>
<path d="M19.8823 13.9763C20.2362 11.7957 18.7555 9.74104 16.5749 9.38708C14.3943 9.03312 12.3396 10.5139 11.9856 12.6945C11.6317 14.8751 13.1125 16.9298 15.293 17.2837C17.4736 17.6377 19.5283 16.1569 19.8823 13.9763Z" fill="#25CBDB"/>
</svg>
