<svg width="32" height="32" viewBox="0 0 32 32" fill="none" xmlns="http://www.w3.org/2000/svg">
<path opacity="0.52" d="M28.0934 8.97998V10.6466C28.0934 12.0666 27.8467 13.4333 27.3467 14.7466C26.8467 16.0533 26.1067 17.2133 25.1267 18.2133C24.1534 19.2133 23.0334 19.98 21.78 20.5266C20.5267 21.0733 19.1867 21.3466 17.7601 21.3466H17.0001V14.7666C17.0001 14.2533 16.6067 13.82 16.0934 13.7733C16.5734 12.7866 17.1934 11.9 17.9667 11.1133C18.9467 10.1133 20.0601 9.33998 21.3201 8.79331C22.5734 8.24665 23.9134 7.97998 25.3334 7.97998H27.0934C27.3867 7.97998 27.6267 8.07331 27.8134 8.25998C28.0001 8.44665 28.0934 8.68665 28.0934 8.97998Z" fill="#25CBDB"/>
<path opacity="0.85" d="M17 14.7666V26.6666C17 27.2199 16.5533 27.6666 16 27.6666C15.4467 27.6666 15 27.2199 15 26.6666V14.7666C15 14.2199 15.4467 13.7666 16 13.7666C16.0333 13.7666 16.0667 13.7666 16.0933 13.7733C16.6067 13.8199 17 14.2533 17 14.7666Z" fill="#25CBDB"/>
<path opacity="0.85" d="M16.2467 10.6C15.7467 9.28667 15.0067 8.13333 14.0267 7.13333C13.0467 6.13333 11.9334 5.36 10.6734 4.82C9.42002 4.27333 8.08002 4 6.66002 4H4.90002C4.61336 4 4.37336 4.09333 4.18002 4.28C3.99336 4.46667 3.90002 4.70667 3.90002 5V6.66667C3.90002 8.08667 4.15336 9.45333 4.64669 10.7667C5.14002 12.08 5.88669 13.2333 6.86669 14.2333C7.84669 15.2333 8.96002 16.0067 10.22 16.5467C11.4734 17.0933 12.8134 17.3667 14.2334 17.3667H15.9934C16.28 17.3667 16.52 17.2733 16.7134 17.0867C16.9 16.9 16.9934 16.66 16.9934 16.3667V14.7C16.9934 13.28 16.74 11.9133 16.2467 10.6Z" fill="#25CBDB"/>
</svg>
