<svg width="32" height="32" viewBox="0 0 32 32" fill="none" xmlns="http://www.w3.org/2000/svg">
<g opacity="0.85">
<path d="M12.6001 23.7C13.1334 24.28 13.7867 24.5667 14.5667 24.5667V29.2534C7.88008 28.54 2.66675 22.88 2.66675 16C2.66675 14.52 2.92008 13.1 3.36675 11.7667L11.8001 20.2V21.6667C11.8001 22.4467 12.0667 23.12 12.6001 23.7Z" fill="currentColor"/>
<path d="M29.3334 16C29.3334 20.2 27.3867 23.9467 24.3467 26.3867V24.3334C24.3467 22.86 23.1534 21.6667 21.6801 21.6667H20.2334V17.4334C20.2334 17.0534 20.1134 16.72 19.8667 16.4334C19.6201 16.1467 19.3134 16 18.9334 16H10.3334V13.0667H13.1001C13.4801 13.0667 13.8201 12.9467 14.1201 12.7C14.4201 12.4534 14.5667 12.1467 14.5667 11.7667V8.8667H17.4667C18.2467 8.8667 18.9001 8.58003 19.4334 8.00003C19.9667 7.42003 20.2334 6.7467 20.2334 5.9667V3.3667C25.5201 5.13337 29.3334 10.12 29.3334 16Z" fill="currentColor"/>
</g>
<path opacity="0.2" d="M24.3467 24.3334V26.3867C22.06 28.2267 19.16 29.3334 16 29.3334C15.5134 29.3334 15.04 29.3067 14.5667 29.2534V24.5667C13.7867 24.5667 13.1334 24.2801 12.6 23.7001C12.0667 23.1201 11.8 22.4467 11.8 21.6667V20.2001L3.3667 11.7667C5.13337 6.48008 10.12 2.66675 16 2.66675C17.48 2.66675 18.9 2.92008 20.2334 3.36675V5.96675C20.2334 6.74675 19.9667 7.42008 19.4334 8.00008C18.9 8.58008 18.2467 8.86675 17.4667 8.86675H14.5667V11.7667C14.5667 12.1467 14.42 12.4534 14.12 12.7001C13.82 12.9467 13.48 13.0667 13.1 13.0667H10.3334V16.0001H18.9334C19.3134 16.0001 19.62 16.1467 19.8667 16.4334C20.1134 16.7201 20.2334 17.0534 20.2334 17.4334V21.6667H21.68C23.1534 21.6667 24.3467 22.8601 24.3467 24.3334Z" fill="currentColor"/>
</svg>
