<svg width="32" height="32" viewBox="0 0 32 32" fill="none" xmlns="http://www.w3.org/2000/svg">
<g opacity="0.85">
<path d="M12.6001 23.7C13.1334 24.28 13.7867 24.5667 14.5667 24.5667V29.2534C7.88008 28.54 2.66675 22.88 2.66675 16C2.66675 14.52 2.92008 13.1 3.36675 11.7667L11.8001 20.2V21.6667C11.8001 22.4467 12.0667 23.12 12.6001 23.7Z" fill="currentColor"/>
<path d="M29.3334 16C29.3334 20.2 27.3867 23.9467 24.3467 26.3867V24.3334C24.3467 22.86 23.1534 21.6667 21.6801 21.6667H20.2334V17.4334C20.2334 17.0534 20.1134 16.72 19.8667 16.4334C19.6201 16.1467 19.3134 16 18.9334 16H13.1601L10.2267 13.0667H13.1001C13.4801 13.0667 13.8201 12.9467 14.1201 12.7C14.4201 12.4534 14.5667 12.1467 14.5667 11.7667V8.8667H17.4667C18.2467 8.8667 18.9001 8.58003 19.4334 8.00003C19.9667 7.42003 20.2334 6.7467 20.2334 5.9667V3.3667C25.5201 5.13337 29.3334 10.12 29.3334 16Z" fill="currentColor"/>
</g>
<g opacity="0.32">
<path d="M13.1 13.067C13.48 13.067 13.82 12.947 14.12 12.7003C14.42 12.4537 14.5667 12.147 14.5667 11.767V8.86699H17.4667C18.2467 8.86699 18.9 8.58033 19.4334 8.00033C19.9667 7.42033 20.2334 6.74699 20.2334 5.96699V3.36699C18.9 2.92033 17.48 2.66699 16 2.66699C11.9667 2.66699 8.3467 4.46033 5.9067 7.30033L11.6734 13.067H13.1Z" fill="currentColor"/>
<path d="M14.6067 16.0003L20.2334 21.6203V17.4337C20.2334 17.0537 20.1134 16.7203 19.8667 16.4337C19.62 16.147 19.3134 16.0003 18.9334 16.0003H14.6067Z" fill="currentColor"/>
<path d="M3.3667 11.767L11.8 20.2003V21.667C11.8 22.447 12.0667 23.1203 12.6 23.7003C13.1334 24.2803 13.7867 24.567 14.5667 24.567V29.2537C15.04 29.307 15.5134 29.3337 16 29.3337C18.6 29.3337 21.0267 28.587 23.0734 27.287L4.7067 8.92699C4.15337 9.80699 3.7067 10.7603 3.3667 11.767Z" fill="currentColor"/>
<path d="M21.68 21.667H20.28L24.3467 25.7337V24.3337C24.3467 22.8603 23.1534 21.667 21.68 21.667Z" fill="currentColor"/>
</g>
<g opacity="0.2">
<path d="M20.2329 21.6201L20.2798 21.666L24.3462 25.7334V26.3867C24.1463 26.5466 23.9334 26.7069 23.7202 26.8535C23.5069 27.0002 23.2928 27.1461 23.0728 27.2861L4.70654 8.92676C5.06654 8.35342 5.46674 7.81314 5.90674 7.2998L20.2329 21.6201Z" fill="currentColor"/>
<path d="M24.3462 25.7334L24.6997 26.0869C24.5865 26.1868 24.466 26.2935 24.3462 26.3867V25.7334Z" fill="currentColor"/>
</g>
<path d="M27.7732 30.1934C27.5199 30.1934 27.2599 30.0934 27.0666 29.9001L1.55989 4.40677C1.16656 4.01343 1.16656 3.3801 1.55989 2.99343C1.95323 2.60677 2.58656 2.6001 2.97323 2.99343L28.4799 28.4868C28.8732 28.8801 28.8732 29.5134 28.4799 29.9001C28.2866 30.0934 28.0266 30.1934 27.7732 30.1934Z" fill="currentColor"/>
</svg>
