<svg width="32" height="32" viewBox="0 0 32 32" fill="none" xmlns="http://www.w3.org/2000/svg">
<path opacity="0.32" d="M4.66663 29.3334C4.13329 29.3334 3.66663 29.1334 3.26663 28.7334C2.86663 28.3334 2.66663 27.8667 2.66663 27.3334V8.66675C2.66663 8.13341 2.86663 7.66675 3.26663 7.26675C3.66663 6.86675 4.13329 6.66675 4.66663 6.66675H23.3333C23.8666 6.66675 24.3333 6.86675 24.7333 7.26675C25.1333 7.66675 25.3333 8.13341 25.3333 8.66675V27.3334C25.3333 27.8667 25.1333 28.3334 24.7333 28.7334C24.3333 29.1334 23.8666 29.3334 23.3333 29.3334H4.66663Z" fill="#25CBDB"/>
<path d="M18.0666 16.4667C18.2666 16.4667 18.4466 16.3934 18.6 16.2467C18.7533 16.1001 18.8533 15.9201 18.9 15.6934C18.9666 15.3401 19.0866 15.0267 19.2666 14.7601C19.4466 14.4934 19.7533 14.1467 20.2 13.7267C20.8 13.1467 21.2133 12.6467 21.4533 12.2134C21.6866 11.7801 21.8066 11.2734 21.8066 10.7001C21.8066 9.68008 21.4533 8.84675 20.7533 8.20008C20.0533 7.55341 19.1333 7.23341 18.0066 7.23341C17.2933 7.23341 16.64 7.39341 16.04 7.72008C15.44 8.04675 14.96 8.50008 14.6066 9.10008C14.4933 9.28008 14.4866 9.47341 14.5733 9.68675C14.66 9.90008 14.82 10.0601 15.04 10.1734C15.22 10.2601 15.42 10.2667 15.64 10.1867C15.86 10.1067 16.04 9.97341 16.1733 9.77341C16.42 9.44008 16.6866 9.18675 16.9933 9.02675C17.2933 8.86008 17.6333 8.77341 18.0066 8.77341C18.6733 8.77341 19.2133 8.96008 19.62 9.34008C20.0333 9.72008 20.2333 10.1934 20.2333 10.7734C20.2333 11.2201 20.1333 11.6067 19.9333 11.9401C19.7333 12.2734 19.38 12.6267 18.8666 13.0067C18.2866 13.5401 17.8933 13.9801 17.6866 14.3267C17.48 14.6734 17.3466 15.1334 17.3 15.7134C17.28 15.9334 17.3466 16.1201 17.5 16.2667C17.6533 16.4134 17.8466 16.4867 18.0666 16.4801V16.4667ZM18.1 20.6667C18.48 20.6667 18.8 20.5334 19.0666 20.2667C19.3333 20.0001 19.4666 19.6801 19.4666 19.3001C19.4666 18.9201 19.3333 18.6001 19.0666 18.3334C18.8 18.0667 18.48 17.9334 18.1 17.9334C17.72 17.9334 17.4 18.0667 17.1333 18.3334C16.8666 18.6001 16.7333 18.9201 16.7333 19.3001C16.7333 19.6801 16.8666 20.0001 17.1333 20.2667C17.4 20.5334 17.72 20.6667 18.1 20.6667ZM8.66663 25.3334C8.13329 25.3334 7.66663 25.1334 7.26663 24.7334C6.86663 24.3334 6.66663 23.8667 6.66663 23.3334V4.66675C6.66663 4.13341 6.86663 3.66675 7.26663 3.26675C7.66663 2.86675 8.13329 2.66675 8.66663 2.66675H27.3333C27.8666 2.66675 28.3333 2.86675 28.7333 3.26675C29.1333 3.66675 29.3333 4.13341 29.3333 4.66675V23.3334C29.3333 23.8667 29.1333 24.3334 28.7333 24.7334C28.3333 25.1334 27.8666 25.3334 27.3333 25.3334H8.66663Z" fill="#25CBDB"/>
</svg>
