<svg width="32" height="32" viewBox="0 0 32 32" fill="none" xmlns="http://www.w3.org/2000/svg">
<path opacity="0.32" d="M20.1467 6.00008C20.1467 6.00008 20.1533 6.00008 20.16 6.00008C20.18 6.01341 20.1933 6.02007 20.2067 6.02674L25.9733 11.7934C25.9733 11.7934 25.98 11.8067 26 11.8467V20.1334C26 20.1334 25.9867 20.1734 25.98 20.1867L20.1667 25.9934H11.8267L11.8133 25.9801L6.01333 20.1801C6.01333 20.1801 6.00667 20.1667 6 20.1601V11.8467L6.02 11.8001L11.7933 6.02674C11.7933 6.02674 11.82 6.00674 11.84 5.99341C11.84 5.99341 11.84 5.99341 11.8467 5.99341H20.1467" fill="#25CBDB"/>
<path d="M20.1467 6C20.1467 6 20.1533 6 20.16 6C20.18 6.01333 20.1933 6.02 20.2067 6.02667L25.9733 11.7933C25.9733 11.7933 25.98 11.8067 26 11.8467V20.1333C26 20.1333 25.9867 20.1733 25.98 20.1867L20.1667 25.9933H11.8267L6.01333 20.18C6.01333 20.18 6.00667 20.1667 6 20.16V11.8467L6.02 11.8L11.7933 6.02667C11.7933 6.02667 11.82 6.00667 11.84 5.99333C11.84 5.99333 11.84 5.99333 11.8467 5.99333H20.1467M20.1667 4H11.8333C11.5667 4 11.3067 4.06 11.0467 4.16667C10.7933 4.28 10.58 4.42667 10.4 4.6L4.6 10.4C4.42 10.58 4.28 10.7933 4.16667 11.0533C4.05333 11.3067 4 11.5667 4 11.8333V20.1667C4 20.4333 4.05333 20.7 4.16667 20.9533C4.28 21.2067 4.42 21.4267 4.6 21.6L10.4 27.4C10.58 27.58 10.7933 27.7267 11.0467 27.8333C11.3067 27.9467 11.5667 28 11.8333 28H20.1667C20.4333 28 20.6933 27.9467 20.9533 27.8333C21.2067 27.7267 21.42 27.58 21.6 27.4L27.4 21.6C27.58 21.4267 27.72 21.2067 27.8333 20.9533C27.9467 20.7 28 20.4333 28 20.1667V11.8333C28 11.5667 27.9467 11.3067 27.8333 11.0533C27.72 10.7933 27.58 10.58 27.4 10.4L21.6 4.6C21.42 4.42667 21.2067 4.28 20.9533 4.16667C20.6933 4.06 20.4333 4 20.1667 4Z" fill="#25CBDB"/>
<path d="M16.82 20.6533C16.5867 20.42 16.3133 20.3 16 20.3C15.6867 20.3 15.4133 20.42 15.18 20.6533C14.9467 20.8867 14.8333 21.16 14.8333 21.4667C14.8333 21.7733 14.9467 22.0533 15.18 22.2867C15.4133 22.52 15.6867 22.6333 16 22.6333C16.3133 22.6333 16.5867 22.52 16.82 22.2867C17.0533 22.0533 17.1667 21.78 17.1667 21.4667C17.1667 21.1533 17.0533 20.8867 16.82 20.6533Z" fill="#25CBDB"/>
<path d="M16 17.8333C16.2867 17.8333 16.5267 17.74 16.72 17.5533C16.9067 17.3667 17 17.1267 17 16.8333V10.0667C17 9.78 16.9067 9.54 16.72 9.35333C16.5267 9.16 16.2867 9.06667 16 9.06667C15.7133 9.06667 15.4733 9.16 15.28 9.35333C15.0933 9.54 15 9.78 15 10.0667V16.8333C15 17.1267 15.0933 17.3667 15.28 17.5533C15.4733 17.74 15.7133 17.8333 16 17.8333Z" fill="#25CBDB"/>
</svg>
