<svg width="32" height="32" viewBox="0 0 32 32" fill="none" xmlns="http://www.w3.org/2000/svg">
<g opacity="0.52">
<path d="M27.0999 13H28.6666C29.7733 13 30.6666 13.8933 30.6666 15V18.1333C30.6666 19.24 29.7733 20.1333 28.6666 20.1333H27.0999V13Z" fill="#25CBDB"/>
<path d="M3.33325 13H4.89992V20.1333H3.33325C2.22659 20.1333 1.33325 19.24 1.33325 18.1333V15C1.33325 13.8933 2.22659 13 3.33325 13Z" fill="#25CBDB"/>
<path d="M16.9333 4.97998V6.89998H14.9333V4.97998C15.2266 5.14665 15.5666 5.24665 15.9333 5.24665C16.2999 5.24665 16.6399 5.14665 16.9333 4.97998Z" fill="#25CBDB"/>
</g>
<g opacity="0.85">
<path d="M21.7666 6.89992H10.2332C7.28657 6.89992 4.8999 9.28658 4.8999 12.2332V20.6932C4.8999 25.1132 8.4799 28.6933 12.8999 28.6933H19.0999C23.5199 28.6933 27.0999 25.1132 27.0999 20.6932V12.2332C27.0999 9.28658 24.7132 6.89992 21.7666 6.89992ZM10.4799 14.5266C10.7399 14.2599 11.0532 14.1332 11.4266 14.1332C11.7999 14.1332 12.1132 14.2599 12.3732 14.5132C12.6332 14.7732 12.7666 15.0866 12.7666 15.4599C12.7666 15.8332 12.6399 16.1466 12.3799 16.4066C12.1266 16.6666 11.8132 16.7999 11.4399 16.7999C11.0666 16.7999 10.7532 16.6732 10.4932 16.4132C10.2332 16.1599 10.0999 15.8466 10.0999 15.4732C10.0999 15.0999 10.2266 14.7866 10.4799 14.5266ZM21.3332 22.1666C19.7132 23.0332 17.8799 23.4932 16.0266 23.4932C14.1732 23.4932 12.2999 23.0199 10.6599 22.1332C10.1732 21.8666 9.99324 21.2599 10.2599 20.7799C10.5266 20.2932 11.1332 20.1132 11.6132 20.3799C14.2866 21.8332 17.7066 21.8466 20.3866 20.4066C20.8732 20.1466 21.4799 20.3266 21.7399 20.8199C21.9999 21.3066 21.8199 21.9132 21.3266 22.1732L21.3332 22.1666ZM21.5199 16.4066C21.2599 16.6666 20.9466 16.7999 20.5732 16.7999C20.1999 16.7999 19.8866 16.6732 19.6266 16.4132C19.3666 16.1599 19.2332 15.8466 19.2332 15.4732C19.2332 15.0999 19.3599 14.7866 19.6199 14.5266C19.8732 14.2599 20.1866 14.1332 20.5599 14.1332C20.9332 14.1332 21.2466 14.2599 21.5066 14.5132C21.7666 14.7732 21.8999 15.0866 21.8999 15.4599C21.8999 15.8332 21.7732 16.1466 21.5199 16.4066Z" fill="#25CBDB"/>
<path d="M17.9332 3.24658C17.9332 3.98658 17.5332 4.63325 16.9332 4.97992C16.6399 5.14658 16.2999 5.24658 15.9332 5.24658C15.5666 5.24658 15.2266 5.14658 14.9332 4.97992C14.3332 4.63325 13.9332 3.98658 13.9332 3.24658C13.9332 2.14658 14.8266 1.24658 15.9332 1.24658C17.0399 1.24658 17.9332 2.14658 17.9332 3.24658Z" fill="#25CBDB"/>
</g>
<g opacity="0.2">
<path d="M12.7668 15.46C12.7668 15.8333 12.6401 16.1466 12.3801 16.4066C12.1268 16.6666 11.8134 16.8 11.4401 16.8C11.0668 16.8 10.7534 16.6733 10.4934 16.4133C10.2334 16.16 10.1001 15.8466 10.1001 15.4733C10.1001 15.1 10.2268 14.7866 10.4801 14.5266C10.7401 14.26 11.0534 14.1333 11.4268 14.1333C11.8001 14.1333 12.1134 14.26 12.3734 14.5133C12.6334 14.7733 12.7668 15.0866 12.7668 15.46Z" fill="#25CBDB"/>
<path d="M21.9001 15.46C21.9001 15.8333 21.7734 16.1466 21.5201 16.4066C21.2601 16.6666 20.9468 16.8 20.5734 16.8C20.2001 16.8 19.8868 16.6733 19.6268 16.4133C19.3668 16.16 19.2334 15.8466 19.2334 15.4733C19.2334 15.1 19.3601 14.7866 19.6201 14.5266C19.8734 14.26 20.1868 14.1333 20.5601 14.1333C20.9334 14.1333 21.2468 14.26 21.5068 14.5133C21.7668 14.7733 21.9001 15.0866 21.9001 15.46Z" fill="#25CBDB"/>
<path d="M16.0267 23.4933C14.1533 23.4933 12.3 23.02 10.66 22.1333C10.1733 21.8666 9.99332 21.26 10.26 20.78C10.5267 20.2933 11.1333 20.1133 11.6133 20.38C14.2867 21.8333 17.7067 21.8466 20.3867 20.4066C20.8733 20.1466 21.48 20.3266 21.74 20.82C22 21.3066 21.82 21.9133 21.3267 22.1733C19.7067 23.04 17.8733 23.5 16.02 23.5L16.0267 23.4933Z" fill="#25CBDB"/>
</g>
</svg>
