<svg width="32" height="32" viewBox="0 0 32 32" fill="none" xmlns="http://www.w3.org/2000/svg">
<path opacity="0.32" d="M21.1867 8.93335C20.5334 8.93335 19.98 9.15335 19.5334 9.60002C19.0867 10.0467 18.8667 10.5933 18.8667 11.2533C18.8667 11.9133 19.0867 12.46 19.5334 12.9067C19.98 13.3534 20.5267 13.5734 21.1867 13.5734C21.8467 13.5734 22.3934 13.3534 22.8334 12.9067C23.2734 12.46 23.5 11.9133 23.5 11.2533C23.5 10.5933 23.28 10.0467 22.8334 9.60002C22.3867 9.15335 21.84 8.93335 21.1867 8.93335Z" fill="#25CBDB"/>
<g opacity="0.52">
<path d="M15.3934 8.5734C15.3934 8.5734 15.3734 8.5934 15.3667 8.60006C14.1867 9.78006 13.1867 11.0001 12.3534 12.2534C11.5201 13.5067 10.8334 14.8334 10.3001 16.2334C10.1867 16.4801 10.1534 16.7201 10.1867 16.9534C10.1934 17.0201 10.2134 17.0867 10.2267 17.1467L4.60006 14.6667C4.28672 14.5334 4.10006 14.3001 4.03339 13.9534C3.96672 13.6067 4.05339 13.3134 4.30006 13.0667L8.83339 8.50006C9.14672 8.1934 9.52006 7.96673 9.95339 7.8334C10.3867 7.70006 10.8201 7.68006 11.2667 7.76673L15.3934 8.5734Z" fill="#25CBDB"/>
<path d="M24.6 22.4866C24.4667 22.9199 24.2467 23.2932 23.9333 23.5999L19.4 28.1332C19.1533 28.3799 18.8533 28.4666 18.5 28.3999C18.1467 28.3332 17.9 28.1466 17.7667 27.8332L15.3467 22.2266C15.3933 22.2399 15.44 22.2466 15.4867 22.2532C15.72 22.2866 15.9533 22.2466 16.2 22.1332C17.6 21.6266 18.92 20.9532 20.1667 20.1199C21.4133 19.2866 22.6333 18.2666 23.8333 17.0666C23.86 17.0399 23.8867 17.0132 23.9067 16.9866L24.6667 21.1666C24.7533 21.6132 24.7333 22.0532 24.6 22.4866Z" fill="#25CBDB"/>
</g>
<g opacity="0.85">
<path d="M29.2332 4.33339C29.2132 4.20006 29.1732 4.07339 29.1198 3.95339C29.0598 3.83339 28.9798 3.71339 28.8665 3.60006C28.7532 3.49339 28.6332 3.40673 28.4998 3.35339C28.3665 3.30006 28.2332 3.26006 28.0998 3.23339C25.9865 3.08006 23.7865 3.48673 21.4998 4.45339C19.2265 5.41339 17.1865 6.78673 15.3932 8.57339C15.3865 8.57339 15.3732 8.59339 15.3665 8.60006C14.1865 9.78006 13.1865 11.0001 12.3532 12.2534C11.5198 13.5067 10.8332 14.8334 10.2998 16.2334C10.1865 16.4801 10.1532 16.7201 10.1865 16.9534C10.1932 17.0201 10.2132 17.0867 10.2265 17.1467C10.2732 17.2867 10.3398 17.4067 10.4332 17.5001L14.9332 22.0001C15.0398 22.1067 15.1798 22.1801 15.3465 22.2267C15.3932 22.2401 15.4398 22.2467 15.4865 22.2534C15.7198 22.2867 15.9532 22.2467 16.1998 22.1334C17.5998 21.6267 18.9198 20.9534 20.1665 20.1201C21.4132 19.2867 22.6332 18.2667 23.8332 17.0667C23.8598 17.0401 23.8865 17.0134 23.9065 16.9867C25.6732 15.2067 27.0332 13.1934 27.9998 10.9334C28.9798 8.64673 29.3865 6.44673 29.2332 4.33339ZM22.8332 12.9001C22.3865 13.3467 21.8398 13.5667 21.1865 13.5667C20.5332 13.5667 19.9798 13.3467 19.5332 12.9001C19.0865 12.4534 18.8665 11.9067 18.8665 11.2467C18.8665 10.5867 19.0865 10.0401 19.5332 9.59339C19.9798 9.14673 20.5265 8.92673 21.1865 8.92673C21.8465 8.92673 22.3932 9.14673 22.8332 9.59339C23.2798 10.0401 23.4998 10.5867 23.4998 11.2467C23.4998 11.9067 23.2798 12.4534 22.8332 12.9001Z" fill="#25CBDB"/>
<path d="M5.3999 21.3934C6.1799 20.6201 7.12657 20.2267 8.2399 20.2201C9.35324 20.2067 10.2999 20.5934 11.0732 21.3734C11.8466 22.1534 12.2332 23.0934 12.2332 24.2067C12.2332 25.3201 11.8466 26.2601 11.0666 27.0401C10.4866 27.6201 9.59324 28.0934 8.37324 28.4734C7.15324 28.8534 5.33324 29.2067 2.8999 29.5401C3.23324 27.1201 3.58657 25.3001 3.9599 24.0867C4.33324 22.8734 4.81324 21.9801 5.3999 21.4001V21.3934Z" fill="#25CBDB"/>
</g>
</svg>
