<svg width="32" height="32" viewBox="0 0 32 32" fill="none" xmlns="http://www.w3.org/2000/svg">
<path opacity="0.32" d="M7.49999 26.6669H11.3333V24.0002H18V26.6669H21.8333L23.9333 19.6669L27.3333 18.5002V12.6669H25.6L21.3333 8.4002C21.3533 8.0202 21.4133 7.5602 21.52 7.0202C21.62 6.47353 21.76 5.87353 21.9333 5.2002C20.98 5.44686 20.1333 5.81353 19.4 6.3002C18.6667 6.78686 18.1333 7.35353 17.8 8.0002H9.99999C8.53332 8.0002 7.27999 8.5202 6.23332 9.56686C5.18666 10.6135 4.66666 11.8669 4.66666 13.3335C4.66666 14.2669 4.91332 15.8935 5.39999 18.2202C5.88666 20.5469 6.58666 23.3602 7.49999 26.6669Z" fill="currentColor"/>
<path d="M21.3333 15.3334C21.7133 15.3334 22.0267 15.2068 22.28 14.9468C22.5333 14.6934 22.6667 14.3734 22.6667 14.0001C22.6667 13.6268 22.54 13.3068 22.28 13.0534C22.0267 12.8001 21.7067 12.6668 21.3333 12.6668C20.96 12.6668 20.64 12.7934 20.3867 13.0534C20.1333 13.3068 20 13.6268 20 14.0001C20 14.3734 20.1267 14.6934 20.3867 14.9468C20.64 15.2001 20.96 15.3334 21.3333 15.3334ZM11.6667 12.0001H16.3333C16.62 12.0001 16.86 11.9068 17.0533 11.7201C17.24 11.5334 17.3333 11.2934 17.3333 11.0001C17.3333 10.7068 17.24 10.4734 17.0533 10.2868C16.8667 10.1001 16.6267 10.0001 16.3333 10.0001H11.6667C11.38 10.0001 11.14 10.0934 10.9467 10.2868C10.76 10.4734 10.6667 10.7134 10.6667 11.0001C10.6667 11.2868 10.76 11.5268 10.9467 11.7201C11.1333 11.9068 11.3733 12.0001 11.6667 12.0001ZM7.66666 28.6668C7.19999 28.6668 6.75999 28.5134 6.34666 28.2001C5.93332 27.8868 5.66666 27.5134 5.53332 27.0668C4.97999 25.1534 4.51332 23.5068 4.15332 22.1201C3.78666 20.7334 3.49332 19.5134 3.26666 18.4734C3.04666 17.4268 2.88666 16.5001 2.79999 15.6934C2.71332 14.8868 2.66666 14.1001 2.66666 13.3401C2.66666 11.2934 3.37999 9.56009 4.79999 8.14009C6.21999 6.72009 7.95332 6.00675 9.99999 6.00675H16.6667C17.2667 5.20675 18.0267 4.56009 18.9467 4.07342C19.8667 3.58675 20.8867 3.34009 22 3.34009C22.5533 3.34009 23.0267 3.53342 23.4133 3.92675C23.8 4.32009 24 4.78675 24 5.34009C24 5.47342 23.9867 5.60675 23.9467 5.74009C23.9133 5.87342 23.8733 5.99342 23.8333 6.10675C23.7467 6.35342 23.66 6.59342 23.58 6.84009C23.5 7.08675 23.44 7.35342 23.3933 7.64009L26.4267 10.6734H28.3267C28.6133 10.6734 28.8533 10.7668 29.0467 10.9601C29.2333 11.1468 29.3267 11.3868 29.3267 11.6734V19.2401C29.3267 19.4601 29.2667 19.6601 29.14 19.8401C29.02 20.0201 28.8467 20.1401 28.62 20.2068L25.5533 21.2068L23.7533 27.2401C23.62 27.6868 23.3733 28.0334 23.02 28.2934C22.6667 28.5468 22.2667 28.6801 21.82 28.6801H17.9867C17.4333 28.6801 16.96 28.4868 16.5733 28.0934C16.1867 27.7001 15.9867 27.2334 15.9867 26.6801V26.0134H13.32V26.6801C13.32 27.2334 13.1267 27.7068 12.7333 28.0934C12.34 28.4801 11.8733 28.6801 11.32 28.6801H7.65332L7.66666 28.6668ZM7.49999 26.6668H11.3333V24.0001H18V26.6668H21.8333L23.9333 19.6668L27.3333 18.5001V12.6668H25.6L21.3333 8.40009C21.3533 8.02009 21.4133 7.56009 21.52 7.02009C21.62 6.47342 21.76 5.87342 21.9333 5.20009C20.98 5.44675 20.1333 5.81342 19.4 6.30009C18.6667 6.78675 18.1333 7.35342 17.8 8.00009H9.99999C8.53332 8.00009 7.27999 8.52009 6.23332 9.56675C5.18666 10.6134 4.66666 11.8668 4.66666 13.3334C4.66666 14.2668 4.91332 15.8934 5.39999 18.2201C5.88666 20.5468 6.58666 23.3601 7.49999 26.6668Z" fill="currentColor"/>
</svg>
