<svg width="32" height="32" viewBox="0 0 32 32" fill="none" xmlns="http://www.w3.org/2000/svg">
<path opacity="0.2" d="M19.4799 19.4601C17.78 21.1534 15.7333 22.0001 13.3333 22.0001C10.9333 22.0001 8.89328 21.1534 7.21995 19.4601C5.53995 17.7667 4.69995 15.7134 4.69995 13.3001C4.69995 10.8867 5.53995 8.86008 7.21995 7.18675C8.89995 5.50675 10.94 4.66675 13.3333 4.66675C15.7266 4.66675 17.78 5.50675 19.4799 7.18675C21.18 8.86675 22.0333 10.9067 22.0333 13.3001C22.0333 15.6934 21.1866 17.7734 19.4799 19.4601Z" fill="currentColor"/>
<path d="M21.5666 20.1334C22.3466 19.2001 22.9533 18.1534 23.3866 16.9934C23.82 15.8334 24.0333 14.6001 24.0333 13.3001C24.0333 10.3467 22.9933 7.83341 20.92 5.76675C18.84 3.70008 16.32 2.66675 13.3466 2.66675C10.3733 2.66675 7.85995 3.70008 5.79328 5.76008C3.73328 7.82008 2.69995 10.3401 2.69995 13.3134C2.69995 16.2867 3.73328 18.8067 5.79995 20.8867C7.86662 22.9667 10.38 24.0067 13.3333 24.0067C14.6333 24.0067 15.8666 23.7934 17.0266 23.3534C18.1866 22.9201 19.2333 22.3134 20.1666 21.5401L27.2 28.6067C27.4 28.8067 27.64 28.9067 27.9266 28.9067C28.2133 28.9067 28.44 28.8067 28.6266 28.6067C28.8133 28.4067 28.9066 28.1734 28.92 27.9067C28.9333 27.6401 28.84 27.4067 28.64 27.2067L21.5666 20.1334ZM19.4799 19.4601C17.78 21.1534 15.7333 22.0001 13.3333 22.0001C10.9333 22.0001 8.89328 21.1534 7.21995 19.4601C5.53995 17.7667 4.69995 15.7134 4.69995 13.3001C4.69995 10.8867 5.53995 8.86008 7.21995 7.18675C8.89995 5.50675 10.94 4.66675 13.3333 4.66675C15.7266 4.66675 17.78 5.50675 19.4799 7.18675C21.18 8.86675 22.0333 10.9067 22.0333 13.3001C22.0333 15.6934 21.1866 17.7734 19.4799 19.4601Z" fill="currentColor"/>
<path d="M13.36 17.0667C13.0733 17.0667 12.84 16.9734 12.6466 16.7801C12.46 16.5867 12.36 16.3534 12.36 16.0667V9.16675C12.36 8.88008 12.4533 8.64675 12.6466 8.45342C12.84 8.26008 13.08 8.16675 13.3666 8.16675C13.6533 8.16675 13.8866 8.26008 14.08 8.45342C14.2666 8.64675 14.3666 8.88008 14.3666 9.16675V16.0667C14.3666 16.3534 14.2733 16.5867 14.08 16.7801C13.8866 16.9734 13.6466 17.0667 13.36 17.0667Z" fill="currentColor"/>
<path opacity="0.52" d="M8.52661 17.0667C8.23994 17.0667 8.00661 16.9733 7.81328 16.78C7.62661 16.5867 7.52661 16.3533 7.52661 16.0667V11.9333C7.52661 11.6467 7.61994 11.4133 7.81328 11.22C8.00661 11.0267 8.24661 10.9333 8.53328 10.9333C8.81994 10.9333 9.05328 11.0267 9.24661 11.22C9.43328 11.4133 9.53328 11.6467 9.53328 11.9333V16.0667C9.53328 16.3533 9.43994 16.5867 9.24661 16.78C9.05328 16.9733 8.81328 17.0667 8.52661 17.0667Z" fill="currentColor"/>
<path opacity="0.85" d="M18.1934 17.0667C17.9067 17.0667 17.6734 16.9734 17.48 16.78C17.2934 16.5867 17.1934 16.3534 17.1934 16.0667V13.3C17.1934 13.0134 17.2867 12.78 17.48 12.5867C17.6734 12.3934 17.9134 12.3 18.2 12.3C18.4867 12.3 18.72 12.3934 18.9134 12.5867C19.1 12.78 19.2 13.0134 19.2 13.3V16.0667C19.2 16.3534 19.1067 16.5867 18.9134 16.78C18.72 16.9734 18.48 17.0667 18.1934 17.0667Z" fill="currentColor"/>
</svg>
