<svg width="32" height="32" viewBox="0 0 32 32" fill="none" xmlns="http://www.w3.org/2000/svg">
<path opacity="0.32" d="M25.3667 6.13336C26.1467 6.42669 26.6667 7.17336 26.6667 8.00669V14.7267C26.6667 21.32 22.5 26.94 16.66 29.1067C16.24 29.2667 15.7667 29.2667 15.34 29.1067C9.50004 26.94 5.33337 21.32 5.33337 14.7267V8.00669C5.33337 7.17336 5.85337 6.42669 6.63337 6.13336L8.46004 5.45336L15.3 2.90002C15.7534 2.73336 16.2467 2.73336 16.7 2.90002L23.54 5.45336L25.3667 6.13336Z" fill="#25CBDB"/>
<g opacity="0.32">
<path d="M15.9999 4.78003V16.0067H7.39992C7.35325 15.5867 7.33325 15.16 7.33325 14.7334V8.01336L15.9999 4.78003Z" fill="#25CBDB"/>
<path d="M24.6 16.0067C24.12 21.0334 20.7866 25.4334 16 27.2201L15.9999 16.0067L24.6 16.0067Z" fill="#25CBDB"/>
</g>
<path d="M16 16V27.2133C11.2134 25.4266 7.88002 21.0266 7.40002 16H16Z" fill="#25CBDB"/>
<path d="M24.6667 8.00665V14.7266C24.6667 15.1533 24.6467 15.58 24.6 16L16 16L16 4.77332L24.6667 8.00665Z" fill="#25CBDB"/>
</svg>
