<svg width="32" height="32" viewBox="0 0 32 32" fill="none" xmlns="http://www.w3.org/2000/svg">
<path d="M28.7666 15.6667L16.3333 3.23341C16.1133 3.01341 15.8666 2.86008 15.6 2.78008C15.3333 2.70008 15.0666 2.66675 14.8 2.66675H4.66663C4.49329 2.66675 4.32663 2.68675 4.17329 2.72675L7.87329 6.42675C7.96663 6.41341 8.06663 6.40008 8.16663 6.40008C8.63329 6.40008 9.03996 6.57341 9.38663 6.91341C9.73329 7.25341 9.89996 7.66008 9.89996 8.12675C9.89996 8.59341 9.72663 9.00008 9.38663 9.34675C9.04663 9.69341 8.63996 9.86008 8.16663 9.86008C7.69329 9.86008 7.29329 9.68675 6.94663 9.34675L2.66663 5.06675V14.8001C2.66663 15.0667 2.70663 15.3201 2.77996 15.5667C2.85996 15.8134 3.00663 16.0467 3.22663 16.2667L15.7266 28.7667C16.1266 29.1667 16.6133 29.3667 17.18 29.3667C17.7466 29.3667 18.2266 29.1667 18.6266 28.7667L28.76 18.6334C29.18 18.2134 29.3933 17.7134 29.3933 17.1534C29.3933 16.5934 29.18 16.0934 28.76 15.6667H28.7666Z" fill="currentColor"/>
<path opacity="0.32" d="M8.87333 7.42661L7.87333 6.42661L4.17333 2.7266L3.22 1.77327C2.82667 1.37994 2.19333 1.37994 1.80667 1.77327C1.42 2.1666 1.41333 2.79994 1.80667 3.1866L2.73333 4.11327H2.74L5.40667 6.78661L6.46 7.83994L7.46 8.83994C7.65333 9.03327 7.91333 9.13327 8.16667 9.13327C8.42 9.13327 8.68 9.03327 8.87333 8.83994C9.26667 8.44661 9.26667 7.81327 8.87333 7.42661Z" fill="currentColor"/>
<path opacity="0.85" d="M6.95334 9.34669L2.67334 5.06669V4.66669C2.67334 4.46669 2.69334 4.28002 2.74001 4.10669L6.46667 7.84002C6.44667 7.93336 6.44001 8.03336 6.44001 8.13336C6.44001 8.60002 6.61334 9.00002 6.96001 9.34669H6.95334Z" fill="currentColor"/>
</svg>
