<svg width="32" height="32" viewBox="0 0 32 32" fill="none" xmlns="http://www.w3.org/2000/svg">
<path d="M16 18.6667C15.2667 18.6667 14.64 18.4067 14.1133 17.8801C13.5867 17.3534 13.3267 16.7267 13.3267 15.9934C13.3267 15.2601 13.5867 14.6334 14.1133 14.1067C14.64 13.5801 15.2667 13.3201 16 13.3201C16.7333 13.3201 17.36 13.5801 17.8867 14.1067C18.4133 14.6334 18.6733 15.2601 18.6733 15.9934C18.6733 16.7267 18.4133 17.3534 17.8867 17.8801C17.36 18.4067 16.7333 18.6667 16 18.6667Z" fill="#25CBDB"/>
<g opacity="0.85">
<path d="M10 15.9999C10 16.6466 10.0933 17.2666 10.2867 17.8666C10.48 18.4666 10.76 19.0199 11.14 19.5333C11.32 19.7533 11.3933 20.0066 11.3733 20.2866C11.3533 20.5666 11.24 20.7933 11.04 20.9733C10.84 21.1733 10.6067 21.2666 10.34 21.2599C10.0733 21.2533 9.85333 21.1333 9.67333 20.9066C9.16 20.2399 8.75333 19.4866 8.45333 18.6533C8.15333 17.8199 8 16.9333 8 15.9999C8 15.0666 8.15333 14.1799 8.45333 13.3466C8.75333 12.5133 9.16 11.7599 9.67333 11.0933C9.85333 10.8733 10.0733 10.7533 10.34 10.7399C10.6067 10.7266 10.84 10.8266 11.04 11.0266C11.24 11.2266 11.3467 11.4666 11.36 11.7466C11.3733 12.0266 11.2867 12.2866 11.1067 12.5333C10.7533 13.0199 10.48 13.5599 10.2867 14.1533C10.0933 14.7466 10 15.3599 10 16.0066V15.9999Z" fill="#25CBDB"/>
<path d="M22 15.9999C22 15.3533 21.9067 14.7333 21.7133 14.1333C21.52 13.5333 21.24 12.9799 20.86 12.4666C20.68 12.2466 20.6067 11.9933 20.6267 11.7133C20.6467 11.4333 20.76 11.2066 20.96 11.0266C21.16 10.8266 21.3933 10.7333 21.66 10.7399C21.9267 10.7466 22.1467 10.8666 22.3267 11.0933C22.84 11.7599 23.2467 12.5133 23.5467 13.3466C23.8467 14.1799 24 15.0666 24 15.9999C24 16.9333 23.8467 17.8199 23.5467 18.6533C23.2467 19.4866 22.8267 20.2466 22.2933 20.9399C22.1133 21.1599 21.9 21.2666 21.64 21.2599C21.38 21.2533 21.1533 21.1399 20.9533 20.9399C20.7533 20.7399 20.6467 20.5066 20.6333 20.2399C20.62 19.9733 20.7067 19.7199 20.8867 19.4733C21.24 18.9866 21.5133 18.4466 21.7067 17.8533C21.9 17.2599 21.9933 16.6466 21.9933 15.9999H22Z" fill="#25CBDB"/>
</g>
<g opacity="0.52">
<path d="M4.66665 16C4.66665 17.4 4.89999 18.7133 5.36665 19.9333C5.83332 21.1533 6.47999 22.2666 7.29999 23.2666C7.47999 23.4866 7.57332 23.7399 7.58665 24.0199C7.59999 24.2999 7.49999 24.5399 7.29999 24.74C7.09999 24.94 6.84665 25.0266 6.54665 25.0066C6.24665 24.9866 5.99332 24.8533 5.79332 24.6066C4.79332 23.4533 4.01999 22.1466 3.47332 20.6866C2.92665 19.2266 2.65332 17.6666 2.65332 16C2.65332 14.3333 2.92665 12.7733 3.47332 11.3133C4.01999 9.85328 4.79332 8.55329 5.79332 7.39329C5.97332 7.14662 6.21332 7.01995 6.51332 7.00662C6.81332 6.99329 7.06665 7.09329 7.26665 7.29329C7.46665 7.49329 7.55999 7.73329 7.55332 8.01329C7.54665 8.29329 7.44665 8.53995 7.26665 8.76662C6.44665 9.76662 5.80665 10.8733 5.34665 12.0866C4.88665 13.3 4.65999 14.6066 4.65999 16.0066L4.66665 16Z" fill="#25CBDB"/>
<path d="M27.3333 16C27.3333 14.6 27.1 13.2866 26.6333 12.0666C26.1667 10.8466 25.52 9.73329 24.7 8.73329C24.52 8.51329 24.4267 8.25995 24.4133 7.97995C24.4 7.69995 24.5 7.45995 24.7 7.25995C24.9 7.05995 25.1533 6.97329 25.4667 6.99329C25.78 7.01329 26.02 7.14662 26.2 7.39329C27.2 8.57329 27.9733 9.88662 28.52 11.3466C29.0667 12.8066 29.34 14.3533 29.34 16C29.34 17.6466 29.0533 19.2333 28.4867 20.7C27.92 22.1666 27.1333 23.4866 26.1333 24.6666C25.9533 24.8866 25.7267 25 25.4467 25C25.1667 25 24.9267 24.9 24.7267 24.7C24.5267 24.5 24.4333 24.26 24.44 23.98C24.4467 23.7 24.5467 23.4533 24.7267 23.2266C25.5467 22.2266 26.1867 21.12 26.6467 19.9066C27.1067 18.6933 27.3333 17.3866 27.3333 15.9866V16Z" fill="#25CBDB"/>
</g>
</svg>
