<svg width="32" height="32" viewBox="0 0 32 32" fill="none" xmlns="http://www.w3.org/2000/svg">
<path opacity="0.85" fill-rule="evenodd" clip-rule="evenodd" d="M28.2799 10.8C27.5799 9.18001 26.6332 7.76667 25.4332 6.56667C24.2332 5.36667 22.8199 4.42001 21.1999 3.72001C19.5799 3.02001 17.8532 2.67334 16.0332 2.67334C14.2132 2.67334 12.4532 3.02001 10.8332 3.72001C9.21325 4.42001 7.79325 5.37334 6.57991 6.56667C5.36658 7.76667 4.41325 9.18001 3.71325 10.8C3.01325 12.42 2.65991 14.1467 2.65991 15.9667C2.65991 17.7867 3.01325 19.5467 3.71325 21.1667C4.41325 22.7867 5.36658 24.2067 6.57991 25.42C7.79325 26.6333 9.20658 27.5867 10.8332 28.2867C12.4532 28.9867 14.1799 29.3333 15.9999 29.3333C17.8199 29.3333 19.5799 28.98 21.1999 28.2867C22.8199 27.5867 24.2332 26.6333 25.4332 25.42C26.6332 24.2067 27.5799 22.7933 28.2799 21.1667C28.9799 19.5467 29.3332 17.82 29.3332 16C29.3332 14.18 28.9799 12.42 28.2799 10.8ZM9.84658 11.1467C10.1932 10.8 10.6199 10.6333 11.1266 10.6333C11.6332 10.6333 12.0666 10.8067 12.4066 11.1467C12.7532 11.4933 12.9266 11.92 12.9266 12.4333C12.9266 12.9467 12.7532 13.3733 12.4066 13.72C12.0599 14.0667 11.6332 14.2333 11.1266 14.2333C10.6199 14.2333 10.1866 14.06 9.84658 13.72C9.50658 13.38 9.32658 12.9467 9.32658 12.4333C9.32658 11.92 9.49991 11.4933 9.84658 11.1467ZM22.1266 20.0667C21.4799 21.0667 20.6132 21.8533 19.5266 22.4333C18.4399 23.0133 17.2599 23.3 15.9932 23.3C14.7266 23.3 13.5532 23.0133 12.4732 22.4333C11.3932 21.8533 10.5532 21.1 9.95991 20.1667C9.73991 19.8333 9.69991 19.54 9.84658 19.2867C9.99325 19.0333 10.2066 18.9 10.4932 18.9C10.6466 18.9 10.7999 18.9467 10.9399 19.0333C11.0799 19.12 11.1999 19.2333 11.2932 19.3667C11.8066 20.12 12.4799 20.6933 13.3266 21.08C14.1732 21.4667 15.0732 21.6667 16.0266 21.6667C16.9799 21.6667 17.8466 21.4667 18.6799 21.0667C19.5132 20.6667 20.1932 20.0867 20.7266 19.3333C20.8132 19.22 20.9399 19.12 21.0932 19.0333C21.2466 18.9467 21.3932 18.9 21.5266 18.9C21.8399 18.9 22.0599 19.0267 22.1932 19.2867C22.3266 19.5467 22.3066 19.8 22.1266 20.0667ZM22.1399 13.72C21.7932 14.0667 21.3666 14.2333 20.8599 14.2333C20.3532 14.2333 19.9199 14.06 19.5799 13.72C19.2399 13.38 19.0599 12.9467 19.0599 12.4333C19.0599 11.92 19.2332 11.4933 19.5799 11.1467C19.9266 10.8 20.3532 10.6333 20.8599 10.6333C21.3666 10.6333 21.7999 10.8067 22.1399 11.1467C22.4866 11.4933 22.6599 11.92 22.6599 12.4333C22.6599 12.9467 22.4866 13.3733 22.1399 13.72Z" fill="#25CBDB"/>
<g opacity="0.2">
<path d="M20.8666 10.6333C20.3533 10.6333 19.9266 10.8066 19.5866 11.1466C19.2399 11.4933 19.0666 11.92 19.0666 12.4333C19.0666 12.9466 19.2399 13.3733 19.5866 13.72C19.9333 14.0666 20.3599 14.2333 20.8666 14.2333C21.3733 14.2333 21.8066 14.06 22.1466 13.72C22.4866 13.38 22.6666 12.9466 22.6666 12.4333C22.6666 11.92 22.4933 11.4933 22.1466 11.1466C21.7999 10.8 21.3733 10.6333 20.8666 10.6333Z" fill="#25CBDB"/>
<path d="M11.1333 14.2333C11.6466 14.2333 12.0733 14.06 12.4133 13.72C12.7533 13.38 12.9333 12.9466 12.9333 12.4333C12.9333 11.92 12.7599 11.4933 12.4133 11.1466C12.0666 10.8 11.6399 10.6333 11.1333 10.6333C10.6266 10.6333 10.1933 10.8066 9.85325 11.1466C9.50659 11.4933 9.33325 11.92 9.33325 12.4333C9.33325 12.9466 9.50659 13.3733 9.85325 13.72C10.1999 14.0666 10.6266 14.2333 11.1333 14.2333Z" fill="#25CBDB"/>
<path d="M21.5333 18.9C21.3999 18.9 21.2533 18.9466 21.0999 19.0333C20.9466 19.12 20.8199 19.22 20.7333 19.3333C20.1999 20.0866 19.5199 20.6666 18.6866 21.0666C17.8533 21.4666 16.9666 21.6666 16.0333 21.6666C15.0999 21.6666 14.1799 21.4733 13.3333 21.08C12.4866 20.6933 11.8133 20.12 11.2999 19.3666C11.2133 19.2333 11.0933 19.12 10.9466 19.0333C10.7999 18.9466 10.6533 18.9 10.4999 18.9C10.2133 18.9 9.99325 19.0266 9.85325 19.2866C9.70659 19.54 9.74659 19.8333 9.96659 20.1666C10.5666 21.1 11.4066 21.8533 12.4799 22.4333C13.5599 23.0133 14.7333 23.3 15.9999 23.3C17.2666 23.3 18.4466 23.0133 19.5333 22.4333C20.6199 21.8533 21.4866 21.0666 22.1333 20.0666C22.3133 19.8 22.3333 19.54 22.1999 19.2866C22.0666 19.0333 21.8466 18.9 21.5333 18.9Z" fill="#25CBDB"/>
</g>
</svg>
