<svg width="32" height="32" viewBox="0 0 32 32" fill="none" xmlns="http://www.w3.org/2000/svg">
<g opacity="0.52">
<path d="M20.2 22.8271C19.72 23.3004 19.3666 23.8938 19.2 24.5604L9.1333 18.7071C9.6133 18.2338 9.96663 17.6404 10.1333 16.9738L20.2 22.8271Z" fill="currentColor"/>
<path d="M20.2066 9.17376L10.1333 15.0271C9.96663 14.3604 9.6133 13.7671 9.1333 13.2938L19.2066 7.44043C19.3733 8.1071 19.7266 8.70043 20.2066 9.17376Z" fill="currentColor"/>
</g>
<path d="M26.6732 6.46699C26.6732 8.56699 24.9732 10.267 22.8732 10.267C21.8332 10.267 20.8932 9.84699 20.2065 9.17366C19.7265 8.70033 19.3732 8.10699 19.2065 7.44033C19.1198 7.13366 19.0732 6.80699 19.0732 6.46699C19.0732 4.36699 20.7732 2.66699 22.8732 2.66699C24.9732 2.66699 26.6732 4.36699 26.6732 6.46699Z" fill="currentColor"/>
<path d="M10.2665 16.0003C10.2665 16.3403 10.2198 16.667 10.1332 16.9737C9.9665 17.6403 9.61317 18.2337 9.13317 18.707C8.4465 19.3803 7.51317 19.8003 6.4665 19.8003C4.3665 19.8003 2.6665 18.1003 2.6665 16.0003C2.6665 13.9003 4.3665 12.2003 6.4665 12.2003C7.51317 12.2003 8.4465 12.6203 9.13317 13.2937C9.61317 13.767 9.9665 14.3603 10.1332 15.027C10.2198 15.3337 10.2665 15.6603 10.2665 16.0003Z" fill="currentColor"/>
<path d="M26.6665 25.5337C26.6665 27.6337 24.9665 29.3337 22.8665 29.3337C20.7665 29.3337 19.0665 27.6337 19.0665 25.5337C19.0665 25.1937 19.1132 24.867 19.1998 24.5603C19.3665 23.8937 19.7198 23.3003 20.1998 22.827C20.8865 22.1537 21.8198 21.7337 22.8665 21.7337C24.9665 21.7337 26.6665 23.4337 26.6665 25.5337Z" fill="currentColor"/>
</svg>
