<svg width="32" height="32" viewBox="0 0 32 32" fill="none" xmlns="http://www.w3.org/2000/svg">
<path opacity="0.32" d="M25.3666 6.13336C26.1466 6.42669 26.6666 7.17336 26.6666 8.00669V14.7267C26.6666 21.32 22.4999 26.94 16.6599 29.1067C16.2399 29.2667 15.7666 29.2667 15.3399 29.1067C9.49992 26.94 5.33325 21.32 5.33325 14.7267V8.00669C5.33325 7.17336 5.85325 6.42669 6.63325 6.13336L8.45992 5.45336L15.2999 2.90002C15.7533 2.73336 16.2466 2.73336 16.6999 2.90002L23.5399 5.45336L25.3666 6.13336Z" fill="currentColor"/>
<path d="M22.8399 7.32665L15.9999 4.77332L9.15992 7.32665L7.33325 8.00665V14.7266C7.33325 20.2666 10.8133 25.28 15.9999 27.22C21.1866 25.2866 24.6666 20.2666 24.6666 14.7266V8.00665L22.8399 7.32665ZM16.8666 22.1333C16.6199 22.38 16.3333 22.5 15.9999 22.5C15.6666 22.5 15.3799 22.38 15.1333 22.1333C14.8866 21.8867 14.7666 21.6 14.7666 21.2666C14.7666 20.9333 14.8866 20.6466 15.1333 20.4C15.3799 20.1533 15.6666 20.0333 15.9999 20.0333C16.3333 20.0333 16.6199 20.1533 16.8666 20.4C17.1133 20.6466 17.2333 20.9333 17.2333 21.2666C17.2333 21.6 17.1133 21.8867 16.8666 22.1333ZM19.1666 14.4066C18.8533 14.9133 18.4799 15.3666 18.0333 15.7666C17.8799 15.9 17.7266 16.0466 17.5866 16.2C17.4399 16.3533 17.3133 16.52 17.1999 16.7C17.1133 16.8266 17.0466 16.96 16.9999 17.1C16.9533 17.24 16.9199 17.3866 16.8999 17.5333C16.8533 17.7333 16.7533 17.9 16.5999 18.0333C16.4399 18.1666 16.2666 18.2333 16.0666 18.2333C15.8266 18.2333 15.6266 18.1533 15.4666 18C15.3133 17.8466 15.2333 17.6466 15.2333 17.4C15.2333 17.1866 15.2733 16.9733 15.3533 16.7533C15.4266 16.54 15.5199 16.3466 15.6333 16.1666C15.7866 15.92 15.9599 15.6866 16.1533 15.4667C16.3399 15.2466 16.5466 15.0333 16.7666 14.8333C17.0733 14.56 17.3466 14.26 17.5933 13.9266C17.8399 13.6 17.9666 13.2266 17.9666 12.8066C17.9666 12.3066 17.7866 11.9 17.4199 11.58C17.0533 11.26 16.6133 11.1 16.0999 11.1C15.7466 11.1 15.4133 11.1733 15.0999 11.3133C14.7866 11.46 14.5199 11.6666 14.2999 11.9333C14.1466 12.1133 13.9666 12.2466 13.7666 12.3333C13.5666 12.42 13.3666 12.42 13.1666 12.3333C12.9533 12.24 12.7999 12.0866 12.7199 11.88C12.6399 11.6733 12.6533 11.48 12.7666 11.3C13.1199 10.72 13.5933 10.28 14.1799 9.96665C14.7666 9.65332 15.4066 9.49998 16.0999 9.49998C17.0533 9.49998 17.8866 9.80665 18.5866 10.4133C19.2866 11.0266 19.6333 11.8 19.6333 12.7333C19.6333 13.34 19.4799 13.8933 19.1666 14.4066Z" fill="currentColor"/>
</svg>
