<svg width="32" height="32" viewBox="0 0 32 32" fill="none" xmlns="http://www.w3.org/2000/svg">
<path opacity="0.32" d="M25.3666 6.13336C26.1466 6.42669 26.6666 7.17336 26.6666 8.00669V14.7267C26.6666 21.32 22.4999 26.94 16.6599 29.1067C16.2399 29.2667 15.7666 29.2667 15.3399 29.1067C9.49992 26.94 5.33325 21.32 5.33325 14.7267V8.00669C5.33325 7.17336 5.85325 6.42669 6.63325 6.13336L8.45992 5.45336L15.2999 2.90002C15.7533 2.73336 16.2466 2.73336 16.6999 2.90002L23.5399 5.45336L25.3666 6.13336Z" fill="currentColor"/>
<path d="M22.8399 7.32665L15.9999 4.77332L9.15992 7.32665L7.33325 8.00665V14.7266C7.33325 20.2666 10.8133 25.28 15.9999 27.22C21.1866 25.2866 24.6666 20.2666 24.6666 14.7266V8.00665L22.8399 7.32665ZM17.9399 14.28C17.6799 14.6666 17.3199 14.96 16.8666 15.1666L17.5999 19.4C17.6466 19.5466 17.6066 19.6866 17.4933 19.8133C17.3799 19.94 17.2533 20 17.0999 20H14.8999C14.7533 20 14.6199 19.94 14.5066 19.8133C14.3933 19.6866 14.3533 19.5466 14.3999 19.4L15.1333 15.1666C14.6799 14.96 14.3199 14.6666 14.0599 14.28C13.7999 13.8933 13.6666 13.4666 13.6666 13C13.6666 12.36 13.8933 11.8066 14.3533 11.3533C14.8066 10.8933 15.3533 10.6666 15.9999 10.6666C16.6466 10.6666 17.1866 10.8933 17.6466 11.3533C18.1066 11.8066 18.3333 12.36 18.3333 13C18.3333 13.4666 18.1999 13.8933 17.9399 14.28Z" fill="currentColor"/>
</svg>
