<svg width="32" height="32" viewBox="0 0 32 32" fill="none" xmlns="http://www.w3.org/2000/svg">
<path opacity="0.32" d="M25.3668 6.13324C26.1468 6.42657 26.6668 7.17324 26.6668 8.00657V14.7266C26.6668 21.3199 22.5002 26.9399 16.6602 29.1066C16.2402 29.2666 15.7668 29.2666 15.3402 29.1066C9.50016 26.9399 5.3335 21.3199 5.3335 14.7266V8.00657C5.3335 7.17324 5.8535 6.42657 6.6335 6.13324L8.46016 5.45324L15.3002 2.8999C15.7535 2.73324 16.2468 2.73324 16.7002 2.8999L23.5402 5.45324L25.3668 6.13324Z" fill="#25CBDB"/>
<path d="M22.8402 7.32677L16.0002 4.77344L9.16016 7.32677L7.3335 8.00677V14.7268C7.3335 20.2668 10.8135 25.2801 16.0002 27.2201C21.1868 25.2868 24.6668 20.2668 24.6668 14.7268V8.00677L22.8402 7.32677ZM20.6668 15.9001C20.6668 16.1001 20.5935 16.2801 20.4468 16.4334C20.3002 16.5868 20.1335 16.6668 19.9335 16.6668H17.3335V19.2334C17.3335 19.4334 17.2602 19.6134 17.1135 19.7668C16.9668 19.9201 16.8002 20.0001 16.6002 20.0001H15.4335C15.2335 20.0001 15.0535 19.9201 14.9002 19.7668C14.7468 19.6134 14.6668 19.4334 14.6668 19.2334V16.6668H12.1002C11.9002 16.6668 11.7202 16.5868 11.5668 16.4334C11.4135 16.2801 11.3335 16.1001 11.3335 15.9001V14.7334C11.3335 14.5334 11.4135 14.3601 11.5668 14.2201C11.7202 14.0734 11.9002 14.0001 12.1002 14.0001H14.6668V11.4001C14.6668 11.2001 14.7468 11.0268 14.9002 10.8868C15.0535 10.7401 15.2335 10.6668 15.4335 10.6668H16.6002C16.8002 10.6668 16.9735 10.7401 17.1135 10.8868C17.2602 11.0334 17.3335 11.2001 17.3335 11.4001V14.0001H19.9335C20.1335 14.0001 20.3068 14.0734 20.4468 14.2201C20.5935 14.3668 20.6668 14.5334 20.6668 14.7334V15.9001Z" fill="#25CBDB"/>
</svg>
