<svg width="32" height="32" viewBox="0 0 32 32" fill="none" xmlns="http://www.w3.org/2000/svg">
<path opacity="0.32" d="M25.3666 6.13336L23.5399 5.45336L16.6999 2.90002C16.2466 2.73336 15.7533 2.73336 15.2999 2.90002L8.45992 5.45336L6.63325 6.13336C5.85325 6.42669 5.33325 7.17336 5.33325 8.00669V14.7267C5.33325 21.32 9.49992 26.9467 15.3399 29.1067C15.7666 29.2667 16.2333 29.2667 16.6599 29.1067C17.2066 28.9 17.7466 28.6667 18.2599 28.4C17.7599 27.8934 17.3733 27.34 17.0933 26.7534C16.6999 25.94 16.4999 25.0534 16.4999 24.1C16.4999 23.1467 16.6666 22.34 17.0066 21.5667C16.9999 21.6 16.9933 21.6334 16.9866 21.6667C16.9666 21.7534 16.9466 21.8467 16.9333 21.9334C16.9133 22.06 16.8933 22.1867 16.8799 22.3134C16.8599 22.44 16.8533 22.5734 16.8466 22.7C16.8399 22.8334 16.8333 22.9667 16.8333 23.1C16.8333 23.2667 16.8399 23.4267 16.8533 23.5934C16.8533 23.7134 16.8733 23.8267 16.8866 23.94C16.8866 23.9667 16.8933 23.9934 16.8999 24.0267C16.9199 24.1534 16.9399 24.2734 16.9599 24.4C16.9666 24.42 16.9733 24.44 16.9799 24.46C16.9866 24.48 16.9866 24.5067 16.9933 24.5267C17.0133 24.6267 17.0399 24.7334 17.0733 24.8334C17.1066 24.9467 17.1399 25.06 17.1866 25.1667C17.1866 25.2 17.2066 25.2334 17.2199 25.2667C17.2666 25.3934 17.3133 25.5134 17.3733 25.6334C17.4266 25.76 17.4866 25.88 17.5533 26C17.5533 26.0067 17.5599 26.0134 17.5666 26.02C17.6266 26.1334 17.6933 26.2467 17.7599 26.3534C17.7666 26.36 17.7733 26.3734 17.7799 26.38C17.7799 26.38 17.7799 26.3934 17.7866 26.3934C18.0333 26.7734 18.3266 27.14 18.6666 27.48C18.8199 27.64 18.9799 27.7867 19.1466 27.92C19.7599 27.5534 20.3533 27.1467 20.9066 26.7067C20.5199 26.4867 20.1733 26.2067 19.8799 25.86C19.7933 25.7467 19.7666 25.6267 19.8133 25.4934C19.8599 25.36 19.9333 25.2667 20.0466 25.2267C20.5333 24.98 21.0333 24.8 21.5466 24.6934C22.0599 24.58 22.5799 24.5267 23.1133 24.5267H23.1199C23.6866 23.8534 24.1933 23.1267 24.6333 22.36L24.6133 22.38C24.2133 22.8067 23.7266 23.0134 23.1466 23.0134C22.7266 23.0134 22.3533 22.9067 22.0133 22.6867C21.8866 22.6 21.7599 22.5 21.6466 22.38C21.2266 21.96 21.0133 21.46 21.0133 20.88C21.0133 20.3 21.2266 19.82 21.6466 19.4134C22.0666 19.0134 22.5666 18.82 23.1466 18.82C23.4466 18.82 23.7199 18.8734 23.9666 18.9734C24.2066 19.0734 24.4199 19.22 24.6133 19.4134C25.0133 19.82 25.2133 20.3067 25.2133 20.88C25.2133 21.04 25.1999 21.2 25.1599 21.3467C25.7133 20.2134 26.1199 19 26.3733 17.7267C26.5666 16.76 26.6666 15.7534 26.6666 14.7267V8.00669C26.6666 7.17336 26.1466 6.42669 25.3666 6.13336Z" fill="currentColor"/>
<path opacity="0.85" d="M22.8399 7.32665L15.9999 4.77332L9.15992 7.32665L7.33325 8.00665V14.7266C7.33325 20.2666 10.8133 25.28 15.9999 27.22C16.3733 27.08 16.7399 26.9267 17.0933 26.7533C16.6999 25.94 16.4999 25.0533 16.4999 24.1C16.4999 23.1467 16.6666 22.34 17.0066 21.5666C16.9999 21.6 16.9933 21.6333 16.9866 21.6666C16.9666 21.7533 16.9466 21.8467 16.9333 21.9333C16.9133 22.06 16.8933 22.1866 16.8799 22.3133C16.8599 22.44 16.8533 22.5733 16.8466 22.7C16.8399 22.8333 16.8333 22.9667 16.8333 23.1C16.8333 23.2667 16.8399 23.4266 16.8533 23.5933C16.8533 23.7133 16.8733 23.8266 16.8866 23.94C16.8866 23.9667 16.8933 23.9933 16.8999 24.0266C16.9199 24.1533 16.9399 24.2733 16.9599 24.4C16.9666 24.42 16.9733 24.44 16.9799 24.46C16.9866 24.48 16.9866 24.5067 16.9933 24.5266C17.0133 24.6266 17.0399 24.7333 17.0733 24.8333C17.1066 24.9466 17.1399 25.06 17.1866 25.1666C17.1866 25.2 17.2066 25.2333 17.2199 25.2667C17.2666 25.3933 17.3133 25.5133 17.3733 25.6333C17.4266 25.76 17.4866 25.88 17.5533 26C17.5533 26.0066 17.5599 26.0133 17.5666 26.02C17.6266 26.1333 17.6933 26.2466 17.7599 26.3533C17.7666 26.36 17.7733 26.3733 17.7799 26.38C17.7799 26.38 17.7799 26.3933 17.7866 26.3933C19.4599 25.4667 20.8999 24.1933 22.0133 22.6866C21.8866 22.6 21.7599 22.5 21.6466 22.38C21.2266 21.96 21.0133 21.46 21.0133 20.88C21.0133 20.3 21.2266 19.82 21.6466 19.4133C22.0666 19.0133 22.5666 18.82 23.1466 18.82C23.4466 18.82 23.7199 18.8733 23.9666 18.9733C24.1866 18.3133 24.3599 17.64 24.4799 16.9466C24.5999 16.22 24.6666 15.48 24.6666 14.7266V8.00665L22.8399 7.32665Z" fill="currentColor"/>
<path opacity="0.2" d="M19.1466 27.92C18.8599 28.0933 18.5599 28.2533 18.2599 28.4C17.7599 27.8933 17.3733 27.34 17.0933 26.7533C17.3266 26.64 17.5599 26.52 17.7866 26.3933C18.0333 26.7733 18.3266 27.14 18.6666 27.48C18.8199 27.64 18.9799 27.7866 19.1466 27.92Z" fill="currentColor"/>
<path opacity="0.52" d="M17.7867 26.3933C17.56 26.52 17.3267 26.64 17.0933 26.7533C16.7 25.94 16.5 25.0533 16.5 24.1C16.5 23.1467 16.6667 22.34 17.0067 21.5667C16.8933 22.0533 16.8333 22.56 16.8333 23.1C16.8333 24.3133 17.1533 25.4133 17.7867 26.3933Z" fill="currentColor"/>
<path d="M27.5199 18.6467C27.1599 18.2867 26.7733 17.9734 26.3733 17.7267C25.7866 17.3534 25.1533 17.0934 24.4799 16.9467C24.0399 16.8467 23.5799 16.8 23.0999 16.8C21.3666 16.8 19.8866 17.4134 18.6666 18.6467C17.8199 19.5067 17.2666 20.48 17.0066 21.5667C16.9999 21.6 16.9933 21.6334 16.9866 21.6667C16.9666 21.7534 16.9466 21.8467 16.9333 21.9334C16.9133 22.06 16.8933 22.1867 16.8799 22.3134C16.8599 22.44 16.8533 22.5734 16.8466 22.7C16.8399 22.8334 16.8333 22.9667 16.8333 23.1C16.8333 23.2667 16.8399 23.4267 16.8533 23.5934C16.8533 23.7134 16.8733 23.8267 16.8866 23.94C16.8866 23.9667 16.8933 23.9934 16.8999 24.0267C16.9199 24.1534 16.9399 24.2734 16.9599 24.4C16.9666 24.42 16.9733 24.44 16.9799 24.46C16.9866 24.48 16.9866 24.5067 16.9933 24.5267C17.0133 24.6267 17.0399 24.7334 17.0733 24.8334C17.1066 24.9467 17.1399 25.06 17.1866 25.1667C17.1866 25.2 17.2066 25.2334 17.2199 25.2667C17.2666 25.3934 17.3133 25.5134 17.3733 25.6334C17.4266 25.76 17.4866 25.88 17.5533 26C17.5533 26.0067 17.5599 26.0134 17.5666 26.02C17.6266 26.1334 17.6933 26.2467 17.7599 26.3534C17.7666 26.36 17.7733 26.3734 17.7799 26.38C17.7799 26.38 17.7799 26.3934 17.7866 26.3934C18.0333 26.7734 18.3266 27.14 18.6666 27.48C18.8199 27.64 18.9799 27.7867 19.1466 27.92C20.2666 28.8667 21.5866 29.3334 23.0999 29.3334C24.8133 29.3334 26.2799 28.72 27.5199 27.48C28.7466 26.2534 29.3666 24.7867 29.3666 23.1C29.3666 21.4134 28.7466 19.8867 27.5199 18.6467ZM21.6466 19.4134C22.0666 19.0134 22.5666 18.82 23.1466 18.82C23.4466 18.82 23.7199 18.8734 23.9666 18.9734C24.2066 19.0734 24.4199 19.22 24.6133 19.4134C25.0133 19.82 25.2133 20.3067 25.2133 20.88C25.2133 21.04 25.1999 21.2 25.1599 21.3467C25.0866 21.7267 24.9133 22.06 24.6399 22.3534C24.6333 22.3534 24.6333 22.36 24.6333 22.36L24.6133 22.38C24.2133 22.8067 23.7266 23.0134 23.1466 23.0134C22.7266 23.0134 22.3533 22.9067 22.0133 22.6867C21.8866 22.6 21.7599 22.5 21.6466 22.38C21.2266 21.96 21.0133 21.46 21.0133 20.88C21.0133 20.3 21.2266 19.82 21.6466 19.4134ZM26.3133 25.86C25.9133 26.3 25.4333 26.6467 24.8799 26.8934C24.3266 27.1334 23.7333 27.26 23.1133 27.26C22.4933 27.26 21.8933 27.14 21.3266 26.9067C21.1799 26.8467 21.0399 26.78 20.9066 26.7067C20.5199 26.4867 20.1733 26.2067 19.8799 25.86C19.7933 25.7467 19.7666 25.6267 19.8133 25.4934C19.8599 25.36 19.9333 25.2667 20.0466 25.2267C20.5333 24.98 21.0333 24.8 21.5466 24.6934C22.0599 24.58 22.5799 24.5267 23.1133 24.5267H23.1199C23.6533 24.5267 24.1666 24.5867 24.6799 24.7067C25.1933 24.8267 25.6933 25 26.1799 25.2267C26.2933 25.2667 26.3599 25.36 26.3933 25.4934C26.4266 25.6267 26.3933 25.7467 26.3133 25.86Z" fill="currentColor"/>
<g opacity="0.2">
<path d="M26.3935 25.4933C26.3602 25.3599 26.2935 25.2666 26.1802 25.2266C25.6935 24.9999 25.1935 24.8266 24.6802 24.7066C24.1668 24.5866 23.6535 24.5266 23.1202 24.5266H23.1135C22.5802 24.5266 22.0602 24.5799 21.5468 24.6933C21.0335 24.7999 20.5335 24.9799 20.0468 25.2266C19.9335 25.2666 19.8602 25.3599 19.8135 25.4933C19.7668 25.6266 19.7935 25.7466 19.8802 25.8599C20.1735 26.2066 20.5202 26.4866 20.9068 26.7066C21.0402 26.7799 21.1802 26.8466 21.3268 26.9066C21.8935 27.1399 22.4935 27.2599 23.1135 27.2599C23.7335 27.2599 24.3268 27.1333 24.8802 26.8933C25.4335 26.6466 25.9135 26.2999 26.3135 25.8599C26.4002 25.7466 26.4268 25.6266 26.3935 25.4933Z" fill="currentColor"/>
<path d="M22.0135 22.6866C22.3535 22.9066 22.7268 23.0133 23.1468 23.0133C23.7268 23.0133 24.2135 22.8066 24.6135 22.3799L24.6335 22.3599C24.6335 22.3599 24.6335 22.3533 24.6402 22.3533C24.9135 22.0599 25.0868 21.7266 25.1602 21.3533C25.2002 21.1999 25.2135 21.0399 25.2135 20.8799C25.2135 20.3066 25.0135 19.8199 24.6135 19.4133C24.4202 19.2199 24.2068 19.0733 23.9668 18.9733C23.7202 18.8733 23.4468 18.8199 23.1468 18.8199C22.5668 18.8199 22.0668 19.0133 21.6468 19.4133C21.2268 19.8199 21.0135 20.3066 21.0135 20.8799C21.0135 21.4533 21.2268 21.9599 21.6468 22.3799C21.7602 22.4999 21.8868 22.5999 22.0135 22.6866Z" fill="currentColor"/>
</g>
</svg>
