<svg width="32" height="32" viewBox="0 0 32 32" fill="none" xmlns="http://www.w3.org/2000/svg">
<path opacity="0.32" d="M25.3666 6.13336L23.5399 5.45336L16.6999 2.90002C16.2466 2.73336 15.7533 2.73336 15.2999 2.90002L8.45992 5.45336L6.63325 6.13336C6.18659 6.30002 5.81992 6.62002 5.59992 7.02002L7.33325 8.75336L21.6933 23.1L23.1199 24.5334C25.3333 21.8734 26.6666 18.4534 26.6666 14.7267V8.00669C26.6666 7.17336 26.1466 6.42669 25.3666 6.13336ZM7.33325 10.16L5.33325 8.16669V14.7267C5.33325 21.32 9.49992 26.9467 15.3399 29.1067C15.7666 29.2667 16.2333 29.2667 16.6599 29.1067C18.8799 28.2867 20.8599 26.96 22.4599 25.2734L21.0399 23.8534L7.33325 10.16Z" fill="currentColor"/>
<path opacity="0.52" d="M22.8399 7.32665L15.9999 4.77332L9.15992 7.32665L7.33325 8.00665V8.75332L21.6933 23.1C23.5733 20.7733 24.6666 17.8333 24.6666 14.7266V8.00665L22.8399 7.32665ZM7.33325 14.7266C7.33325 20.2666 10.8133 25.28 15.9999 27.22C17.9533 26.4933 19.6666 25.3266 21.0399 23.8533L7.33325 10.16V14.7266Z" fill="currentColor"/>
<path d="M28.7132 28.7066C28.5866 28.8333 28.4332 28.92 28.2666 28.96C28.1799 28.9866 28.0932 29 28.0066 29C27.7532 29 27.4999 28.9 27.2999 28.7066L23.1199 24.5333L21.6932 23.1L7.33323 8.75329L5.59989 7.01996L3.28656 4.70662C3.01989 4.44662 2.93323 4.07996 3.03323 3.74662C3.07323 3.57996 3.15989 3.42662 3.28656 3.29329C3.67323 2.89996 4.30656 2.89996 4.69989 3.29329L7.29323 5.88662L8.85323 7.43996L22.8466 21.4333L24.3132 22.8933L28.7132 27.2933C29.1066 27.68 29.1066 28.3133 28.7132 28.7066Z" fill="currentColor"/>
<path opacity="0.32" d="M21.6933 23.1C21.4866 23.36 21.2666 23.6133 21.0399 23.8533L7.33325 10.16V8.7533L21.6933 23.1Z" fill="currentColor"/>
<g opacity="0.2">
<path d="M23.1199 24.5334C23.1199 24.5334 23.0999 24.56 23.0866 24.5734C22.8799 24.8134 22.6733 25.0467 22.4599 25.2734L21.0399 23.8534C21.2666 23.6134 21.4866 23.36 21.6933 23.1L23.1199 24.5334Z" fill="currentColor"/>
<path d="M7.33325 8.75335V10.16L5.33325 8.16669V8.00669C5.33325 7.88669 5.34659 7.76669 5.37325 7.65335C5.37992 7.58002 5.39325 7.50669 5.41992 7.44002C5.42659 7.40002 5.43992 7.36669 5.45325 7.33335C5.46659 7.28669 5.48659 7.24669 5.51325 7.20002C5.52659 7.14669 5.55325 7.10002 5.58659 7.05335C5.58659 7.04002 5.59325 7.03335 5.59992 7.02002L7.33325 8.75335Z" fill="currentColor"/>
</g>
</svg>
