<svg width="32" height="32" viewBox="0 0 32 32" fill="none" xmlns="http://www.w3.org/2000/svg">
<path fill-rule="evenodd" clip-rule="evenodd" d="M4.27332 16.0066L6.33332 25.1133C6.53998 26.0199 7.34665 26.6666 8.27998 26.6666H23.7533C24.6866 26.6666 25.4933 26.0199 25.7 25.1133L27.76 16.0066H4.27332ZM11.02 23.6933C11.02 24.2466 10.5733 24.6933 10.02 24.6933C9.46665 24.6933 9.01998 24.2466 9.01998 23.6933V18.9799C9.01998 18.4266 9.46665 17.9799 10.02 17.9799C10.5733 17.9799 11.02 18.4266 11.02 18.9799V23.6933ZM15.02 23.6933C15.02 24.2466 14.5733 24.6933 14.02 24.6933C13.4666 24.6933 13.02 24.2466 13.02 23.6933V18.9799C13.02 18.4266 13.4666 17.9799 14.02 17.9799C14.5733 17.9799 15.02 18.4266 15.02 18.9799V23.6933ZM19.02 23.6933C19.02 24.2466 18.5733 24.6933 18.02 24.6933C17.4666 24.6933 17.02 24.2466 17.02 23.6933V18.9799C17.02 18.4266 17.4666 17.9799 18.02 17.9799C18.5733 17.9799 19.02 18.4266 19.02 18.9799V23.6933ZM23.02 23.6933C23.02 24.2466 22.5733 24.6933 22.02 24.6933C21.4666 24.6933 21.02 24.2466 21.02 23.6933V18.9799C21.02 18.4266 21.4666 17.9799 22.02 17.9799C22.5733 17.9799 23.02 18.4266 23.02 18.9799V23.6933Z" fill="#25CBDB"/>
<g opacity="0.2">
<path d="M10.02 17.9734C9.46669 17.9734 9.02002 18.4201 9.02002 18.9734V23.6867C9.02002 24.2401 9.46669 24.6867 10.02 24.6867C10.5734 24.6867 11.02 24.2401 11.02 23.6867V18.9734C11.02 18.4201 10.5734 17.9734 10.02 17.9734Z" fill="#25CBDB"/>
<path d="M14.02 17.9734C13.4667 17.9734 13.02 18.4201 13.02 18.9734V23.6867C13.02 24.2401 13.4667 24.6867 14.02 24.6867C14.5734 24.6867 15.02 24.2401 15.02 23.6867V18.9734C15.02 18.4201 14.5734 17.9734 14.02 17.9734Z" fill="#25CBDB"/>
<path d="M18.02 17.9734C17.4667 17.9734 17.02 18.4201 17.02 18.9734V23.6867C17.02 24.2401 17.4667 24.6867 18.02 24.6867C18.5734 24.6867 19.02 24.2401 19.02 23.6867V18.9734C19.02 18.4201 18.5734 17.9734 18.02 17.9734Z" fill="#25CBDB"/>
<path d="M22.02 17.9734C21.4667 17.9734 21.02 18.4201 21.02 18.9734V23.6867C21.02 24.2401 21.4667 24.6867 22.02 24.6867C22.5734 24.6867 23.02 24.2401 23.02 23.6867V18.9734C23.02 18.4201 22.5734 17.9734 22.02 17.9734Z" fill="#25CBDB"/>
</g>
<path opacity="0.52" d="M29.3466 14.3333V15.0066C29.3466 15.5533 28.9 16.0066 28.3466 16.0066H3.66663C3.11329 16.0066 2.66663 15.5533 2.66663 15.0066V14.3333C2.66663 13.7866 3.11329 13.3333 3.66663 13.3333H28.3466C28.9 13.3333 29.3466 13.7866 29.3466 14.3333Z" fill="#25CBDB"/>
<path d="M9.48001 15.52C9.64001 15.62 9.82001 15.6667 9.99334 15.6667V15.66C10.3333 15.66 10.6667 15.4933 10.8533 15.18L15.8667 6.87333C16.1533 6.4 16 5.78666 15.5267 5.5C15.0533 5.21333 14.44 5.36666 14.1533 5.84L9.14001 14.1467C8.85334 14.62 9.00668 15.2333 9.48001 15.52Z" fill="#25CBDB"/>
<path d="M21.1867 15.1866C21.3734 15.4933 21.7 15.6666 22.04 15.6666L22.0467 15.6733C22.22 15.6733 22.4 15.6266 22.56 15.5266C23.0334 15.2399 23.1867 14.6266 22.9 14.1533L17.8734 5.84659C17.5867 5.37326 16.9734 5.21992 16.5 5.50659C16.0267 5.79325 15.8734 6.40659 16.16 6.87992L21.1867 15.1866Z" fill="#25CBDB"/>
</svg>
