<svg width="32" height="32" viewBox="0 0 32 32" fill="none" xmlns="http://www.w3.org/2000/svg">
<rect opacity="0.52" x="8.66647" y="3.33545" width="14.6656" height="25.3286" fill="#25CBDB"/>
<path d="M8.66666 30.6666C8.13332 30.6666 7.66666 30.4666 7.26666 30.0666C6.86666 29.6666 6.66666 29.1999 6.66666 28.6666V3.33325C6.66666 2.79992 6.86666 2.33325 7.26666 1.93325C7.66666 1.53325 8.13332 1.33325 8.66666 1.33325H23.3333C23.8667 1.33325 24.3333 1.53325 24.7333 1.93325C25.1333 2.33325 25.3333 2.79992 25.3333 3.33325V28.6666C25.3333 29.1999 25.1333 29.6666 24.7333 30.0666C24.3333 30.4666 23.8667 30.6666 23.3333 30.6666H8.66666ZM8.66666 27.6666V28.6666H23.3333V27.6666H8.66666ZM8.66666 25.6666H23.3333V6.33325H8.66666V25.6666ZM8.66666 4.33325H23.3333V3.33325H8.66666V4.33325Z" fill="#25CBDB"/>
</svg>
