<svg width="32" height="32" viewBox="0 0 32 32" fill="none" xmlns="http://www.w3.org/2000/svg">
<path opacity="0.2" d="M24.3334 9.33333H7.66675C7.11341 9.33333 6.66675 9.77999 6.66675 10.3333V21.5867C6.66675 22.08 7.18675 22.4067 7.63341 22.18L9.33341 21.3267H24.3334C24.8867 21.3267 25.3334 20.88 25.3334 20.3267V10.3267C25.3334 9.77333 24.8867 9.32666 24.3334 9.32666V9.33333ZM11.0534 14.6933C11.2667 14.6933 11.4467 14.7667 11.5867 14.9067C11.7334 15.0533 11.8001 15.2267 11.8001 15.44V17.54C11.8001 17.7533 11.7267 17.9333 11.5867 18.0733C11.4401 18.22 11.2667 18.2867 11.0534 18.2867H8.80008C8.62675 18.2867 8.48008 18.2333 8.37341 18.12C8.26675 18.0067 8.20008 17.86 8.20008 17.6867C8.20008 17.5133 8.26008 17.3733 8.37341 17.2533C8.48675 17.1333 8.62675 17.0867 8.80008 17.0867H10.6001V15.8867H8.94675C8.73341 15.8867 8.55341 15.8133 8.41341 15.6733C8.26675 15.5267 8.20008 15.3533 8.20008 15.14V13.04C8.20008 12.8267 8.27341 12.6467 8.41341 12.5067C8.56008 12.36 8.73341 12.2933 8.94675 12.2933H11.2001C11.3734 12.2933 11.5134 12.3533 11.6334 12.4667C11.7467 12.58 11.8067 12.7267 11.8067 12.8933C11.8067 13.06 11.7467 13.2067 11.6334 13.3267C11.5201 13.44 11.3734 13.4933 11.2001 13.4933H9.40008V14.6933H11.0467H11.0534ZM19.0001 17.6933C19.0001 17.8667 18.9401 18.0067 18.8267 18.1267C18.7134 18.24 18.5667 18.2933 18.3934 18.2933C18.2201 18.2933 18.0734 18.24 17.9667 18.1267C17.8601 18.0133 17.7934 17.8667 17.7934 17.6933V13.4933H16.5934V16.64C16.5934 16.8133 16.5334 16.9533 16.4201 17.0733C16.3067 17.1867 16.1601 17.24 15.9867 17.24C15.8134 17.24 15.6734 17.1867 15.5601 17.0733C15.4467 16.96 15.3867 16.8133 15.3867 16.64V13.4933H14.1867V17.6933C14.1867 17.8667 14.1267 18.0067 14.0134 18.1267C13.9001 18.24 13.7534 18.2933 13.5801 18.2933C13.4067 18.2933 13.2667 18.24 13.1534 18.1267C13.0401 18.0133 12.9801 17.8667 12.9801 17.6933V13.14C12.9801 12.8867 13.0601 12.6867 13.2201 12.5267C13.3801 12.3667 13.5801 12.2867 13.8334 12.2867H18.1334C18.3867 12.2867 18.5867 12.3667 18.7467 12.5267C18.9067 12.6867 18.9867 12.8867 18.9867 13.14V17.6933H19.0001ZM23.0534 14.6933C23.2668 14.6933 23.4468 14.7667 23.5868 14.9067C23.7334 15.0533 23.8001 15.2267 23.8001 15.44V17.54C23.8001 17.7533 23.7267 17.9333 23.5868 18.0733C23.4401 18.22 23.2668 18.2867 23.0534 18.2867H20.8001C20.6267 18.2867 20.4801 18.2333 20.3734 18.12C20.2667 18.0067 20.2001 17.86 20.2001 17.6867C20.2001 17.5133 20.2601 17.3733 20.3734 17.2533C20.4867 17.1333 20.6267 17.0867 20.8001 17.0867H22.6001V15.8867H20.9467C20.7334 15.8867 20.5534 15.8133 20.4134 15.6733C20.2667 15.5267 20.2001 15.3533 20.2001 15.14V13.04C20.2001 12.8267 20.2734 12.6467 20.4134 12.5067C20.5601 12.36 20.7334 12.2933 20.9467 12.2933H23.2001C23.3734 12.2933 23.5134 12.3533 23.6334 12.4667C23.7467 12.58 23.8067 12.7267 23.8067 12.8933C23.8067 13.06 23.7467 13.2067 23.6334 13.3267C23.5201 13.44 23.3734 13.4933 23.2001 13.4933H21.4001V14.6933H23.0467H23.0534Z" fill="#25CBDB"/>
<path d="M16.0001 2.66675C8.63341 2.66675 2.66675 8.63341 2.66675 16.0001C2.66675 23.3667 8.63341 29.3334 16.0001 29.3334C23.3667 29.3334 29.3334 23.3667 29.3334 16.0001C29.3334 8.63341 23.3667 2.66675 16.0001 2.66675ZM25.3334 20.3334C25.3334 20.8867 24.8867 21.3334 24.3334 21.3334H9.33342L7.63341 22.1867C7.19341 22.4067 6.66675 22.0867 6.66675 21.5934V10.3334C6.66675 9.78008 7.11341 9.33342 7.66675 9.33342H24.3334C24.8867 9.33342 25.3334 9.78008 25.3334 10.3334V20.3334Z" fill="#25CBDB"/>
<path d="M23.2001 13.4934C23.3734 13.4934 23.5134 13.44 23.6334 13.3267C23.7468 13.2134 23.8068 13.0667 23.8068 12.8934C23.8068 12.72 23.7468 12.58 23.6334 12.4667C23.5201 12.3534 23.3734 12.2934 23.2001 12.2934H20.9468C20.7334 12.2934 20.5534 12.3667 20.4134 12.5067C20.2668 12.6534 20.2001 12.8267 20.2001 13.04V15.14C20.2001 15.3534 20.2734 15.5334 20.4134 15.6734C20.5601 15.82 20.7334 15.8867 20.9468 15.8867H22.6001V17.0867H20.8001C20.6268 17.0867 20.4801 17.14 20.3734 17.2534C20.2668 17.3667 20.2001 17.5134 20.2001 17.6867C20.2001 17.86 20.2601 18 20.3734 18.12C20.4868 18.24 20.6268 18.2867 20.8001 18.2867H23.0534C23.2668 18.2867 23.4468 18.2134 23.5868 18.0734C23.7334 17.9267 23.8001 17.7534 23.8001 17.54V15.44C23.8001 15.2267 23.7268 15.0467 23.5868 14.9067C23.4401 14.76 23.2668 14.6934 23.0534 14.6934H21.4068V13.4934H23.2068H23.2001Z" fill="#25CBDB"/>
<path d="M13.8534 12.2934C13.6001 12.2934 13.4001 12.3734 13.2401 12.5334C13.0801 12.6934 13.0001 12.8934 13.0001 13.1467V17.7C13.0001 17.8734 13.0534 18.0134 13.1734 18.1334C13.2867 18.2467 13.4267 18.3 13.6001 18.3C13.7734 18.3 13.9134 18.2467 14.0334 18.1334C14.1467 18.02 14.2067 17.8734 14.2067 17.7V13.5H15.4067V16.6467C15.4067 16.82 15.4601 16.96 15.5801 17.08C15.6934 17.1934 15.8334 17.2467 16.0067 17.2467C16.1801 17.2467 16.3201 17.1934 16.4401 17.08C16.5534 16.9667 16.6134 16.82 16.6134 16.6467V13.5H17.8134V17.7C17.8134 17.8734 17.8734 18.0134 17.9867 18.1334C18.1001 18.2534 18.2401 18.3 18.4134 18.3C18.5867 18.3 18.7267 18.2467 18.8467 18.1334C18.9601 18.02 19.0201 17.8734 19.0201 17.7V13.1467C19.0201 12.8934 18.9401 12.6934 18.7801 12.5334C18.6201 12.3734 18.4201 12.2934 18.1667 12.2934H13.8534Z" fill="#25CBDB"/>
<path d="M11.2001 13.4934C11.3734 13.4934 11.5134 13.44 11.6334 13.3267C11.7468 13.2134 11.8068 13.0667 11.8068 12.8934C11.8068 12.72 11.7468 12.58 11.6334 12.4667C11.5201 12.3534 11.3734 12.2934 11.2001 12.2934H8.94678C8.73345 12.2934 8.55345 12.3667 8.41345 12.5067C8.26678 12.6534 8.20011 12.8267 8.20011 13.04V15.14C8.20011 15.3534 8.27345 15.5334 8.41345 15.6734C8.56011 15.82 8.73345 15.8867 8.94678 15.8867H10.6001V17.0867H8.80011C8.62678 17.0867 8.48011 17.14 8.37345 17.2534C8.26678 17.3667 8.20011 17.5134 8.20011 17.6867C8.20011 17.86 8.26011 18 8.37345 18.12C8.48678 18.24 8.62678 18.2867 8.80011 18.2867H11.0534C11.2668 18.2867 11.4468 18.2134 11.5868 18.0734C11.7334 17.9267 11.8001 17.7534 11.8001 17.54V15.44C11.8001 15.2267 11.7268 15.0467 11.5868 14.9067C11.4401 14.76 11.2668 14.6934 11.0534 14.6934H9.40678V13.4934H11.2068H11.2001Z" fill="#25CBDB"/>
</svg>
