<svg width="32" height="32" viewBox="0 0 32 32" fill="none" xmlns="http://www.w3.org/2000/svg">
<path opacity="0.85" d="M28.7201 3.28675C28.3067 2.87341 27.8467 2.66675 27.3334 2.66675H4.66675C4.13341 2.66675 3.66675 2.87341 3.26675 3.28675C2.86675 3.70008 2.66675 4.16008 2.66675 4.66675V26.9334C2.66675 27.3801 2.87341 27.6801 3.28008 27.8534C3.69341 28.0201 4.05341 27.9467 4.36008 27.6401L7.99341 24.0067H27.3267C27.8401 24.0067 28.3001 23.8001 28.7134 23.3867C29.1267 22.9734 29.3267 22.5134 29.3267 22.0067V4.66675C29.3267 4.15341 29.1201 3.69341 28.7134 3.28675H28.7201ZM9.40008 12.5334C9.68008 12.5334 9.92008 12.6267 10.1134 12.8201C10.3067 13.0134 10.4001 13.2467 10.4001 13.5334V16.3334C10.4001 16.6201 10.3067 16.8534 10.1134 17.0467C9.92008 17.2401 9.68675 17.3334 9.40008 17.3334H6.40008C6.16675 17.3334 5.98008 17.2601 5.82675 17.1067C5.67341 16.9534 5.60008 16.7667 5.60008 16.5334C5.60008 16.3001 5.67341 16.1134 5.82675 15.9601C5.98008 15.8067 6.16675 15.7334 6.40008 15.7334H8.80008V14.1334H6.60008C6.32008 14.1334 6.08008 14.0401 5.88675 13.8467C5.69341 13.6534 5.60008 13.4201 5.60008 13.1334V10.3334C5.60008 10.0467 5.69341 9.81341 5.88675 9.62008C6.08008 9.42675 6.31341 9.33341 6.60008 9.33341H9.60008C9.83341 9.33341 10.0201 9.40675 10.1734 9.56008C10.3267 9.71341 10.4001 9.90008 10.4001 10.1334C10.4001 10.3667 10.3267 10.5534 10.1734 10.7067C10.0201 10.8601 9.83341 10.9334 9.60008 10.9334H7.20008V12.5334H9.40008ZM20.0001 16.5334C20.0001 16.7667 19.9267 16.9534 19.7734 17.1067C19.6201 17.2601 19.4334 17.3334 19.2001 17.3334C18.9667 17.3334 18.7801 17.2601 18.6267 17.1067C18.4734 16.9534 18.4001 16.7667 18.4001 16.5334V10.9334H16.8001V15.1334C16.8001 15.3667 16.7267 15.5534 16.5734 15.7067C16.4201 15.8601 16.2334 15.9334 16.0001 15.9334C15.7667 15.9334 15.5801 15.8601 15.4267 15.7067C15.2734 15.5534 15.2001 15.3667 15.2001 15.1334V10.9334H13.6001V16.5334C13.6001 16.7667 13.5267 16.9534 13.3734 17.1067C13.2201 17.2601 13.0334 17.3334 12.8001 17.3334C12.5667 17.3334 12.3801 17.2601 12.2267 17.1067C12.0734 16.9534 12.0001 16.7667 12.0001 16.5334V10.4667C12.0001 10.1334 12.1067 9.86008 12.3134 9.65341C12.5267 9.44008 12.8001 9.33341 13.1334 9.33341H18.8667C19.2001 9.33341 19.4734 9.44008 19.6801 9.65341C19.8934 9.86675 20.0001 10.1334 20.0001 10.4667V16.5334ZM25.4001 12.5334C25.6801 12.5334 25.9201 12.6267 26.1134 12.8201C26.3067 13.0134 26.4001 13.2467 26.4001 13.5334V16.3334C26.4001 16.6201 26.3067 16.8534 26.1134 17.0467C25.9201 17.2401 25.6867 17.3334 25.4001 17.3334H22.4001C22.1667 17.3334 21.9801 17.2601 21.8267 17.1067C21.6734 16.9534 21.6001 16.7667 21.6001 16.5334C21.6001 16.3001 21.6734 16.1134 21.8267 15.9601C21.9801 15.8067 22.1667 15.7334 22.4001 15.7334H24.8001V14.1334H22.6001C22.3201 14.1334 22.0801 14.0401 21.8867 13.8467C21.6934 13.6534 21.6001 13.4201 21.6001 13.1334V10.3334C21.6001 10.0467 21.6934 9.81341 21.8867 9.62008C22.0801 9.42675 22.3134 9.33341 22.6001 9.33341H25.6001C25.8334 9.33341 26.0201 9.40675 26.1734 9.56008C26.3267 9.71341 26.4001 9.90008 26.4001 10.1334C26.4001 10.3667 26.3267 10.5534 26.1734 10.7067C26.0201 10.8601 25.8334 10.9334 25.6001 10.9334H23.2001V12.5334H25.4001Z" fill="#25CBDB"/>
<g opacity="0.2">
<path d="M25.5999 10.9335C25.8332 10.9335 26.0198 10.8602 26.1732 10.7068C26.3265 10.5535 26.3999 10.3668 26.3999 10.1335C26.3999 9.90016 26.3265 9.7135 26.1732 9.56016C26.0198 9.40683 25.8332 9.3335 25.5999 9.3335H22.5999C22.3199 9.3335 22.0799 9.42683 21.8865 9.62016C21.6932 9.8135 21.5999 10.0468 21.5999 10.3335V13.1335C21.5999 13.4202 21.6932 13.6535 21.8865 13.8468C22.0799 14.0402 22.3132 14.1335 22.5999 14.1335H24.7999V15.7335H22.3999C22.1665 15.7335 21.9799 15.8068 21.8265 15.9602C21.6732 16.1135 21.5999 16.3002 21.5999 16.5335C21.5999 16.7668 21.6732 16.9535 21.8265 17.1068C21.9799 17.2602 22.1665 17.3335 22.3999 17.3335H25.3999C25.6799 17.3335 25.9198 17.2402 26.1132 17.0468C26.3065 16.8535 26.3999 16.6202 26.3999 16.3335V13.5335C26.3999 13.2468 26.3065 13.0135 26.1132 12.8202C25.9198 12.6268 25.6865 12.5335 25.3999 12.5335H23.1999V10.9335H25.5999Z" fill="#25CBDB"/>
<path d="M18.8667 9.3335H13.1333C12.8 9.3335 12.5267 9.44016 12.3133 9.6535C12.1 9.86683 12 10.1335 12 10.4668V16.5335C12 16.7668 12.0733 16.9535 12.2267 17.1068C12.38 17.2602 12.5667 17.3335 12.8 17.3335C13.0333 17.3335 13.22 17.2602 13.3733 17.1068C13.5267 16.9535 13.6 16.7668 13.6 16.5335V10.9335H15.2V15.1335C15.2 15.3668 15.2733 15.5535 15.4267 15.7068C15.58 15.8602 15.7667 15.9335 16 15.9335C16.2333 15.9335 16.42 15.8602 16.5733 15.7068C16.7267 15.5535 16.8 15.3668 16.8 15.1335V10.9335H18.4V16.5335C18.4 16.7668 18.4733 16.9535 18.6267 17.1068C18.78 17.2602 18.9667 17.3335 19.2 17.3335C19.4333 17.3335 19.62 17.2602 19.7733 17.1068C19.9267 16.9535 20 16.7668 20 16.5335V10.4668C20 10.1335 19.8933 9.86016 19.68 9.6535C19.4667 9.44016 19.2 9.3335 18.8667 9.3335Z" fill="#25CBDB"/>
<path d="M9.59985 10.9335C9.83319 10.9335 10.0199 10.8602 10.1732 10.7068C10.3265 10.5535 10.3999 10.3668 10.3999 10.1335C10.3999 9.90016 10.3265 9.7135 10.1732 9.56016C10.0199 9.40683 9.83319 9.3335 9.59985 9.3335H6.59985C6.31985 9.3335 6.07985 9.42683 5.88652 9.62016C5.69319 9.8135 5.59985 10.0468 5.59985 10.3335V13.1335C5.59985 13.4202 5.69319 13.6535 5.88652 13.8468C6.07985 14.0402 6.31319 14.1335 6.59985 14.1335H8.79985V15.7335H6.39985C6.16652 15.7335 5.97985 15.8068 5.82652 15.9602C5.67319 16.1135 5.59985 16.3002 5.59985 16.5335C5.59985 16.7668 5.67319 16.9535 5.82652 17.1068C5.97985 17.2602 6.16652 17.3335 6.39985 17.3335H9.39985C9.67985 17.3335 9.91985 17.2402 10.1132 17.0468C10.3065 16.8535 10.3999 16.6202 10.3999 16.3335V13.5335C10.3999 13.2468 10.3065 13.0135 10.1132 12.8202C9.91985 12.6268 9.68652 12.5335 9.39985 12.5335H7.19985V10.9335H9.59985Z" fill="#25CBDB"/>
</g>
</svg>
