<svg width="32" height="32" viewBox="0 0 32 32" fill="none" xmlns="http://www.w3.org/2000/svg">
<path opacity="0.72" d="M23.3266 21.2931C23.04 21.0065 22.6666 20.8531 22.2666 20.8531C21.8666 20.8531 21.4933 21.0065 21.2133 21.2865L21.6533 20.8398C21.9333 20.5598 22.0933 20.1798 22.0933 19.7798C22.0933 19.3798 21.94 18.9998 21.6533 18.7198C21.3666 18.4398 20.9933 18.2798 20.5933 18.2798C20.1933 18.2798 19.84 18.4265 19.56 18.6998L20.18 18.0798C20.72 17.5331 20.8333 16.6465 20.36 16.0398C20.0666 15.6665 19.64 15.4598 19.1733 15.4598C18.8 15.4598 18.4533 15.5998 18.18 15.8465L21.9933 12.0331C22.28 11.7465 22.4333 11.3731 22.4333 10.9731C22.4333 10.5731 22.28 10.1931 21.9933 9.91314C21.7066 9.63314 21.3333 9.47314 20.9333 9.47314C20.5333 9.47314 20.1533 9.62648 19.8733 9.91314L11.1733 18.6131C10.2866 19.4998 9.63331 20.6131 9.39331 21.8465C9.31998 22.2131 9.27998 22.6065 9.29331 23.0131C9.29331 24.2131 9.83331 25.3465 10.76 26.1065L12.4933 27.7065L13.3333 28.3865C14.9133 29.6398 17.1733 29.5198 18.6133 28.1131L21.1333 25.6131C21.1933 25.5665 21.2533 25.5265 21.3066 25.4731L23.3466 23.4065C23.6266 23.1265 23.7866 22.7465 23.7866 22.3465C23.7866 21.9465 23.6333 21.5665 23.3466 21.2865L23.3266 21.2931Z" fill="#25CBDB"/>
<path opacity="0.32" d="M21.6467 18.72C21.36 18.4334 20.9867 18.28 20.5867 18.28C20.1867 18.28 19.8067 18.4334 19.5267 18.72L16.84 21.4334C16.26 22.0134 16.26 22.9667 16.84 23.5534C17.1267 23.84 17.5 23.9934 17.9 23.9934C18.3 23.9934 18.68 23.84 18.96 23.5534L21.6467 20.84C21.9267 20.56 22.0867 20.18 22.0867 19.78C22.0867 19.38 21.9333 19 21.6467 18.72Z" fill="#25CBDB"/>
<path opacity="0.52" d="M23.3267 21.2933C23.04 21.0066 22.6667 20.8533 22.2667 20.8533C21.8667 20.8533 21.4867 21.0066 21.2067 21.2933L19.1667 23.3599C18.8867 23.6399 18.7267 24.0199 18.7267 24.4199C18.7267 24.8199 18.88 25.1999 19.1667 25.4799C19.4533 25.7599 19.8267 25.9199 20.2267 25.9199C20.6267 25.9199 21.0067 25.7666 21.2867 25.4799L23.3267 23.4133C23.6067 23.1333 23.7667 22.7533 23.7667 22.3533C23.7667 21.9533 23.6133 21.5733 23.3267 21.2933Z" fill="#25CBDB"/>
<g opacity="0.52">
<path d="M20.2267 15.9001C19.94 15.6134 19.5667 15.4601 19.1667 15.4601C18.7667 15.4601 18.3867 15.6134 18.1067 15.9001L14.7333 19.2934C14.1467 19.8801 14.1467 20.8267 14.7333 21.4134C15.02 21.7001 15.3933 21.8534 15.7933 21.8534C16.1933 21.8534 16.5733 21.7001 16.8533 21.4134L20.2267 18.0201C20.8133 17.4334 20.8133 16.4867 20.2267 15.9001Z" fill="#25CBDB"/>
<path d="M11.3067 11.8667C11.8667 12.0334 12.2867 12.4934 12.4 13.0667L13.2933 17.5201C13.2933 17.5201 15.24 27.0001 10.74 26.1067C9.81335 25.3467 9.27335 24.2134 9.27335 23.0134V13.3734C9.28001 12.3201 10.2933 11.5667 11.3067 11.8667Z" fill="#25CBDB"/>
</g>
<g opacity="0.85">
<path d="M14.1933 8.12658C13.64 8.12658 13.1933 7.67991 13.1933 7.12658V3.74658C13.1933 3.19325 13.64 2.74658 14.1933 2.74658C14.7467 2.74658 15.1933 3.19325 15.1933 3.74658V7.12658C15.1933 7.67991 14.7467 8.12658 14.1933 8.12658Z" fill="#25CBDB"/>
<path d="M16.24 9.89329C15.9866 9.89329 15.7266 9.79329 15.5333 9.59996C15.14 9.20663 15.14 8.57329 15.5333 8.18663L18.34 5.37996C18.7333 4.98663 19.3666 4.98663 19.7533 5.37996C20.14 5.77329 20.1466 6.40663 19.7533 6.79329L16.9466 9.59996C16.7533 9.79329 16.4933 9.89329 16.24 9.89329Z" fill="#25CBDB"/>
<path d="M12.08 9.88661C11.8267 9.88661 11.5667 9.78661 11.3733 9.59328L8.52666 6.74661C8.13333 6.35328 8.13333 5.71994 8.52666 5.33328C8.91999 4.94661 9.55333 4.93994 9.93999 5.33328L12.7867 8.17994C13.18 8.57328 13.18 9.20661 12.7867 9.59328C12.5933 9.78661 12.3333 9.88661 12.08 9.88661Z" fill="#25CBDB"/>
</g>
</svg>
