<svg width="32" height="32" viewBox="0 0 32 32" fill="none" xmlns="http://www.w3.org/2000/svg">
<path opacity="0.32" d="M6.49993 26.6668C6.11993 26.6668 5.75327 26.5735 5.37993 26.3868C5.01327 26.2001 4.73993 25.9268 4.5666 25.5735C3.9866 24.5068 3.5466 23.4201 3.23327 22.3201C2.91993 21.2201 2.7666 20.0468 2.7666 18.8068C2.7666 16.9601 3.11993 15.2201 3.81993 13.5935C4.51993 11.9668 5.47327 10.5401 6.67327 9.32679C7.87327 8.11346 9.27993 7.15346 10.8933 6.44679C12.5066 5.73346 14.2199 5.38013 16.0466 5.38013C17.8733 5.38013 19.5799 5.73346 21.1799 6.44679C22.7799 7.16013 24.1799 8.12013 25.3799 9.32679C26.5799 10.5401 27.5266 11.9601 28.2333 13.5935C28.9333 15.2268 29.2866 16.9668 29.2866 18.8068C29.2866 20.0535 29.1399 21.2401 28.8533 22.3735C28.5666 23.5068 28.1199 24.5735 27.5199 25.5735C27.2533 26.0868 26.9666 26.3935 26.6666 26.5068C26.3666 26.6201 25.9933 26.6735 25.5533 26.6735H6.49993V26.6668Z" fill="currentColor"/>
<path d="M14.0333 20.6669C14.5666 21.2002 15.2533 21.4602 16.1 21.4469C16.9466 21.4336 17.5666 21.1269 17.9666 20.5269L23.9666 11.4936C24.12 11.2469 24.1066 11.0336 23.9133 10.8402C23.7266 10.6536 23.5066 10.6336 23.2666 10.7869L14.2333 16.7869C13.6333 17.1869 13.3133 17.8002 13.2866 18.6202C13.26 19.4402 13.5066 20.1202 14.0333 20.6536V20.6669Z" fill="currentColor"/>
<path d="M16.0333 7.36677C17.5666 7.36677 19.0199 7.66677 20.3533 8.26011C20.7799 8.45344 21.1933 8.66011 21.5933 8.89344C22.0733 9.18011 22.6933 9.02677 22.9733 8.54011C23.2466 8.06677 23.0933 7.45344 22.6199 7.17344C22.1466 6.89344 21.6733 6.65344 21.1666 6.42677C19.5666 5.71344 17.8533 5.36011 16.0333 5.36011C14.2133 5.36011 12.4933 5.71344 10.8866 6.42677C9.27327 7.14011 7.87327 8.10011 6.6666 9.31344C5.4666 10.5268 4.51327 11.9468 3.81993 13.5801C3.1266 15.2134 2.7666 16.9534 2.7666 18.7934C2.7666 20.0401 2.91993 21.2068 3.23327 22.3134C3.5466 23.4134 3.9866 24.4934 4.5666 25.5668C4.7466 25.9201 5.01327 26.1934 5.3866 26.3801C5.75327 26.5668 6.1266 26.6668 6.49993 26.6668H25.5333C25.9799 26.6668 26.3466 26.6134 26.6466 26.5001C26.9466 26.3868 27.2333 26.0801 27.4999 25.5668C28.0999 24.5668 28.5466 23.5001 28.8333 22.3668C29.1199 21.2334 29.2666 20.0468 29.2666 18.8001C29.2666 16.9534 28.9199 15.2134 28.2199 13.5868C28.0466 13.1868 27.8599 12.7934 27.6599 12.4201C27.3799 11.9001 26.7199 11.7334 26.2266 12.0534C25.7933 12.3334 25.6466 12.9001 25.8933 13.3534C26.0733 13.6801 26.2333 14.0201 26.3866 14.3734C26.9733 15.7468 27.2733 17.2401 27.2733 18.8001C27.2733 19.8734 27.1466 20.9068 26.8999 21.8734C26.6599 22.8134 26.2866 23.7068 25.7866 24.5401L25.7533 24.5934L25.7266 24.6468C25.7266 24.6468 25.7199 24.6601 25.7133 24.6668C25.6599 24.6668 25.5999 24.6668 25.5333 24.6668H6.49993C6.49993 24.6668 6.4266 24.6668 6.3266 24.6201C5.81993 23.6801 5.4266 22.7268 5.15993 21.7734C4.89993 20.8534 4.7666 19.8534 4.7666 18.8001C4.7666 17.2334 5.0666 15.7468 5.65327 14.3734C6.25327 12.9801 7.0666 11.7534 8.0866 10.7268C9.1066 9.70011 10.3133 8.87344 11.6933 8.26677C13.0399 7.67344 14.4999 7.37344 16.0333 7.37344" fill="currentColor"/>
</svg>
