<svg width="32" height="32" viewBox="0 0 32 32" fill="none" xmlns="http://www.w3.org/2000/svg">
<path opacity="0.32" d="M16 29.3334C23.3638 29.3334 29.3333 23.3639 29.3333 16.0001C29.3333 8.63628 23.3638 2.66675 16 2.66675C8.63619 2.66675 2.66666 8.63628 2.66666 16.0001C2.66666 23.3639 8.63619 29.3334 16 29.3334Z" fill="#25CBDB"/>
<g opacity="0.52">
<path d="M16 10C19.3133 10 22 12.6867 22 16C22 19.3133 19.3133 22 16 22C12.6867 22 10 19.3133 10 16C10 12.6867 12.6867 10 16 10ZM16 8C11.5867 8 8 11.5867 8 16C8 20.4133 11.5867 24 16 24C20.4133 24 24 20.4133 24 16C24 11.5867 20.4133 8 16 8Z" fill="#25CBDB"/>
<path d="M16 4.66675C22.2467 4.66675 27.3333 9.75341 27.3333 16.0001C27.3333 22.2467 22.2467 27.3334 16 27.3334C9.75332 27.3334 4.66666 22.2467 4.66666 16.0001C4.66666 9.75341 9.75332 4.66675 16 4.66675ZM16 2.66675C8.63332 2.66675 2.66666 8.63341 2.66666 16.0001C2.66666 23.3667 8.63332 29.3334 16 29.3334C23.3667 29.3334 29.3333 23.3667 29.3333 16.0001C29.3333 8.63341 23.3667 2.66675 16 2.66675Z" fill="#25CBDB"/>
</g>
<path d="M21.4134 20H25.06L29.06 24H24V29.06L20 25.06V21.4133L15.2933 16.7066C14.9 16.3132 14.9 15.6799 15.2933 15.2932C15.6867 14.9066 16.32 14.8999 16.7067 15.2932L21.4134 20Z" fill="#25CBDB"/>
</svg>
