<svg width="32" height="32" viewBox="0 0 32 32" fill="none" xmlns="http://www.w3.org/2000/svg">
<g opacity="0.85">
<path d="M17.3001 29L19.0668 27L17.5668 26.2333C17.2534 26.08 17.0668 25.8467 17.0001 25.5333C16.9334 25.22 17.0134 24.9467 17.2334 24.7L19.8668 21.6667C19.9801 21.5533 20.0934 21.4733 20.2201 21.4133C20.3468 21.3533 20.4801 21.3267 20.6401 21.3267C21.0868 21.3267 21.3934 21.5267 21.5601 21.9267C21.7268 22.3267 21.6668 22.68 21.3734 22.9933L19.6068 24.9933L21.1068 25.76C21.4201 25.9133 21.6068 26.1467 21.6734 26.46C21.7401 26.7733 21.6601 27.0467 21.4401 27.2933L18.8068 30.3267C18.6934 30.44 18.5801 30.52 18.4534 30.58C18.3334 30.6333 18.1934 30.6667 18.0334 30.6667C17.5868 30.6667 17.2801 30.4667 17.1134 30.0667C16.9468 29.6667 17.0068 29.3133 17.3001 29Z" fill="#25CBDB"/>
<path d="M9.3001 29L11.0668 27L9.56677 26.2333C9.25343 26.08 9.06677 25.8467 9.0001 25.5333C8.93343 25.22 9.01343 24.9467 9.23343 24.7L11.8668 21.6667C11.9801 21.5533 12.0934 21.4733 12.2201 21.4133C12.3468 21.3533 12.4801 21.3267 12.6401 21.3267C13.0868 21.3267 13.3934 21.5267 13.5601 21.9267C13.7268 22.3267 13.6668 22.68 13.3734 22.9933L11.6068 24.9933L13.1068 25.76C13.4201 25.9133 13.6068 26.1467 13.6734 26.46C13.7401 26.7733 13.6601 27.0467 13.4401 27.2933L10.8068 30.3267C10.6934 30.44 10.5801 30.52 10.4534 30.58C10.3334 30.6333 10.1934 30.6667 10.0334 30.6667C9.58677 30.6667 9.2801 30.4667 9.11343 30.0667C8.94677 29.6667 9.00677 29.3133 9.3001 29Z" fill="#25CBDB"/>
</g>
<path opacity="0.52" d="M9.66658 19.3334C7.73325 19.3334 6.07991 18.6467 4.71325 17.2801C3.34658 15.9134 2.65991 14.2601 2.65991 12.3267C2.65991 10.5734 3.28658 9.00673 4.54658 7.62673C5.79991 6.24673 7.36658 5.4934 9.23325 5.36007C9.94658 4.1134 10.8866 3.1334 12.0532 2.40673C13.2199 1.68007 14.5399 1.32007 16.0066 1.32007C18.0266 1.32007 19.7266 1.96007 21.0932 3.24007C22.4599 4.52007 23.2999 6.10007 23.6132 7.9934C25.3666 8.08007 26.7666 8.68007 27.7999 9.78007C28.8332 10.8801 29.3532 12.1734 29.3532 13.6667C29.3532 15.1601 28.7999 16.5534 27.6999 17.6667C26.5999 18.7801 25.2599 19.3334 23.6799 19.3334H9.66658Z" fill="#25CBDB"/>
</svg>
