<svg width="32" height="32" viewBox="0 0 32 32" fill="none" xmlns="http://www.w3.org/2000/svg">
<path opacity="0.85" d="M16.0002 2.66998C8.64017 2.66998 2.67017 8.63998 2.67017 16C2.67017 23.36 8.64017 29.33 16.0002 29.33C23.3602 29.33 29.3302 23.36 29.3302 16C29.3302 8.63998 23.3602 2.66998 16.0002 2.66998ZM22.9502 14.59C21.5302 14.59 20.2102 14.14 19.1402 13.37V18.92C19.1402 20.87 18.0202 22.57 16.4002 23.41C15.7102 23.77 14.9302 23.97 14.1002 23.97C11.3202 23.97 9.05017 21.71 9.05017 18.92C9.05017 16.13 11.3102 13.87 14.1002 13.87C14.3302 13.87 14.5702 13.89 14.7902 13.92V16.72C14.5702 16.65 14.3402 16.61 14.1002 16.61C12.8302 16.61 11.8002 17.64 11.8002 18.91C11.8002 20.18 12.8302 21.21 14.1002 21.21C15.3702 21.21 16.4002 20.18 16.4002 18.91V8.01998H19.1402C19.1402 10.13 20.8502 11.83 22.9502 11.83V14.58V14.59Z" fill="#25CBDB"/>
<path opacity="0.2" d="M19.14 8.03003H16.4V18.92C16.4 20.19 15.37 21.22 14.1 21.22C12.83 21.22 11.8 20.19 11.8 18.92C11.8 17.65 12.83 16.62 14.1 16.62C14.34 16.62 14.57 16.66 14.79 16.73V13.93C14.56 13.9 14.33 13.88 14.1 13.88C11.32 13.88 9.05005 16.14 9.05005 18.93C9.05005 21.72 11.31 23.98 14.1 23.98C14.93 23.98 15.71 23.78 16.4 23.42C18.03 22.58 19.14 20.88 19.14 18.93V13.38C20.21 14.15 21.5301 14.6 22.9501 14.6V11.85C20.8501 11.85 19.14 10.14 19.14 8.04003V8.03003Z" fill="#25CBDB"/>
</svg>
