<svg width="32" height="32" viewBox="0 0 32 32" fill="none" xmlns="http://www.w3.org/2000/svg">
<path opacity="0.85" d="M28.3 10.7667C27.6133 9.14675 26.6666 7.73341 25.4666 6.53341C24.2666 5.33341 22.8533 4.38675 21.2333 3.70008C19.6133 3.01341 17.8666 2.66675 16 2.66675C14.1333 2.66675 12.3533 3.01341 10.7333 3.70008C9.11329 4.38675 7.69996 5.33341 6.49996 6.53341C5.29996 7.73341 4.35996 9.14675 3.68663 10.7667C3.00663 12.3867 2.66663 14.1334 2.66663 16.0001C2.66663 17.8667 3.00663 19.6467 3.68663 21.2667C4.36663 22.8867 5.29996 24.3001 6.49996 25.5001C7.69996 26.7001 9.11329 27.6401 10.7333 28.3201C12.3533 29.0001 14.1133 29.3334 16 29.3334C17.8866 29.3334 19.6133 28.9934 21.2333 28.3201C22.8533 27.6401 24.2666 26.7067 25.4666 25.5001C26.6666 24.3001 27.6133 22.8867 28.3 21.2667C28.9866 19.6467 29.3333 17.8867 29.3333 16.0001C29.3333 14.1134 28.9866 12.3867 28.3 10.7667ZM22.6133 22.6134C20.8 24.4267 18.6 25.3267 16 25.3267C15 25.3267 14.0266 25.1734 13.08 24.8601C12.1333 24.5467 11.2733 24.0801 10.4933 23.4601C10.2466 23.2601 10.1133 23.0001 10.0933 22.6801C10.0733 22.3601 10.18 22.0734 10.4266 21.8267L15.9933 15.9934V7.82675C15.9933 7.49341 16.1066 7.21341 16.3466 6.99341C16.58 6.77341 16.8533 6.68008 17.16 6.72675C19.4733 7.01341 21.4133 8.03341 22.9733 9.78008C24.54 11.5267 25.3266 13.6001 25.3266 15.9934C25.3266 18.5934 24.42 20.8001 22.6066 22.6134H22.6133Z" fill="#25CBDB"/>
<path opacity="0.2" d="M17.1667 6.73341C16.8534 6.68674 16.58 6.78008 16.3534 7.00008C16.12 7.22008 16 7.50008 16 7.83341V16.0001L10.4334 21.8334C10.1867 22.0801 10.08 22.3601 10.1 22.6867C10.12 23.0067 10.2534 23.2734 10.5 23.4667C11.28 24.0867 12.14 24.5534 13.0867 24.8667C14.0334 25.1801 15.0067 25.3334 16.0067 25.3334C18.6067 25.3334 20.8134 24.4267 22.62 22.6201C24.4267 20.8134 25.34 18.6067 25.34 16.0001C25.34 13.6001 24.56 11.5267 22.9867 9.78674C21.42 8.04008 19.48 7.02674 17.1734 6.73341H17.1667Z" fill="#25CBDB"/>
</svg>
