<svg width="32" height="32" viewBox="0 0 32 32" fill="none" xmlns="http://www.w3.org/2000/svg">
<g opacity="0.52">
<path d="M4 13.0001H28V27.3334C28 28.4401 27.1067 29.3334 26 29.3334H6C4.89333 29.3334 4 28.4401 4 27.3334V13.0001Z" fill="#25CBDB"/>
<path d="M22.7533 2.66675H22.7467C22.1502 2.66675 21.6667 3.15028 21.6667 3.74675V5.57341C21.6667 6.16988 22.1502 6.65341 22.7467 6.65341H22.7533C23.3498 6.65341 23.8333 6.16988 23.8333 5.57341V3.74675C23.8333 3.15028 23.3498 2.66675 22.7533 2.66675Z" fill="#25CBDB"/>
<path d="M9.24667 2.66675H9.24C8.64353 2.66675 8.16 3.15028 8.16 3.74675V5.57341C8.16 6.16988 8.64353 6.65341 9.24 6.65341H9.24667C9.84313 6.65341 10.3267 6.16988 10.3267 5.57341V3.74675C10.3267 3.15028 9.84313 2.66675 9.24667 2.66675Z" fill="#25CBDB"/>
</g>
<path d="M6 4.66675H26C27.1067 4.66675 28 5.56008 28 6.66675V13.0001H4V6.66675C4 5.56008 4.89333 4.66675 6 4.66675Z" fill="#25CBDB"/>
<path d="M9.23333 21.4667C8.32 21.4667 7.55333 21.1534 6.93333 20.5334C6.31333 19.9134 6 19.1467 6 18.2334C6 17.3201 6.31333 16.5534 6.93333 15.9334C7.55333 15.3134 8.32 15.0001 9.23333 15.0001C10.1467 15.0001 10.9133 15.3134 11.5333 15.9334C12.1533 16.5534 12.4667 17.3201 12.4667 18.2334C12.4667 19.1467 12.1533 19.9134 11.5333 20.5334C10.9133 21.1534 10.1467 21.4667 9.23333 21.4667Z" fill="#25CBDB"/>
</svg>
