<svg width="32" height="32" viewBox="0 0 32 32" fill="none" xmlns="http://www.w3.org/2000/svg">
<path opacity="0.52" d="M15.9998 7.33325H2.6665C2.6665 6.79992 2.8665 6.33325 3.2665 5.93325C3.6665 5.53325 4.13317 5.33325 4.6665 5.33325H13.1998C13.4665 5.33325 13.7332 5.33325 13.9998 5.46659C14.2665 5.59992 14.4665 5.73325 14.6665 5.93325L16.0665 7.33325H15.9998Z" fill="#25CBDB"/>
<path opacity="0.85" d="M28.7332 7.93325C28.3332 7.53325 27.8665 7.33325 27.3332 7.33325H2.6665V24.6666C2.6665 25.1999 2.8665 25.6666 3.2665 26.0666C3.6665 26.4666 4.13317 26.6666 4.6665 26.6666H27.3332C27.8665 26.6666 28.3332 26.4666 28.7332 26.0666C29.1332 25.6666 29.3332 25.1999 29.3332 24.6666V9.33325C29.3332 8.79992 29.1332 8.33325 28.7332 7.93325ZM18.0665 20.3999C17.8665 20.5999 17.6665 20.6666 17.3332 20.6666H9.33317C9.0665 20.6666 8.79984 20.5999 8.59984 20.3999C8.39984 20.1999 8.33317 19.9999 8.33317 19.6666C8.33317 19.3333 8.39984 19.1333 8.59984 18.9333C8.79984 18.7333 8.99984 18.6666 9.33317 18.6666H17.3332C17.5998 18.6666 17.8665 18.7333 18.0665 18.9333C18.2665 19.1333 18.3332 19.3333 18.3332 19.6666C18.3332 19.9999 18.2665 20.1999 18.0665 20.3999ZM23.3998 15.0666C23.1998 15.2666 22.9998 15.3333 22.6665 15.3333H9.33317C9.0665 15.3333 8.79984 15.2666 8.59984 15.0666C8.39984 14.8666 8.33317 14.6666 8.33317 14.3333C8.33317 13.9999 8.39984 13.7999 8.59984 13.5999C8.79984 13.3999 8.99984 13.3333 9.33317 13.3333H22.6665C22.9332 13.3333 23.1998 13.3999 23.3998 13.5999C23.5998 13.7999 23.6665 13.9999 23.6665 14.3333C23.6665 14.6666 23.5998 14.8666 23.3998 15.0666Z" fill="#25CBDB"/>
<g opacity="0.2">
<path d="M23.4002 15.0666C23.2002 15.2666 23.0002 15.3333 22.6668 15.3333H9.3335C9.06683 15.3333 8.80016 15.2666 8.60016 15.0666C8.40016 14.8666 8.3335 14.6666 8.3335 14.3333C8.3335 13.9999 8.40016 13.7999 8.60016 13.5999C8.80016 13.3999 9.00016 13.3333 9.3335 13.3333H22.6668C22.9335 13.3333 23.2002 13.3999 23.4002 13.5999C23.6002 13.7999 23.6668 13.9999 23.6668 14.3333C23.6668 14.6666 23.6002 14.8666 23.4002 15.0666Z" fill="#25CBDB"/>
<path d="M18.0668 20.4001C17.8668 20.6001 17.6668 20.6667 17.3335 20.6667H9.3335C9.06683 20.6667 8.80016 20.6001 8.60016 20.4001C8.40016 20.2001 8.3335 20.0001 8.3335 19.6667C8.3335 19.3334 8.40016 19.1334 8.60016 18.9334C8.80016 18.7334 9.00016 18.6667 9.3335 18.6667H17.3335C17.6002 18.6667 17.8668 18.7334 18.0668 18.9334C18.2668 19.1334 18.3335 19.3334 18.3335 19.6667C18.3335 20.0001 18.2668 20.2001 18.0668 20.4001Z" fill="#25CBDB"/>
</g>
</svg>
