<svg width="32" height="32" viewBox="0 0 32 32" fill="none" xmlns="http://www.w3.org/2000/svg">
<path d="M26.1 9.32001L24.02 26.6733C24.02 28.1467 22.8133 29.3533 21.3333 29.3533H10.6667C9.18666 29.3533 7.98 28.1467 7.98 26.6733L5.91333 9.32001H26.1Z" fill="#25CBDB"/>
<path d="M5.53336 4.64667H26.4667C27.2067 4.64667 27.8067 5.25333 27.8067 5.98667V7.31333H4.19336V5.98667C4.19336 5.24667 4.80003 4.64667 5.53336 4.64667Z" fill="#25CBDB"/>
<g opacity="0.52">
<path d="M19.4668 2.64667C20.2068 2.64667 20.8068 3.25333 20.8068 3.98667V4.66H11.1868V3.98667C11.1868 3.24667 11.7934 2.64667 12.5268 2.64667H19.4668Z" fill="#25CBDB"/>
<path d="M26.34 7.32001L26.1 9.32001H5.91334L5.67334 7.32001H26.34Z" fill="#25CBDB"/>
</g>
</svg>
