<svg width="32" height="32" viewBox="0 0 32 32" fill="none" xmlns="http://www.w3.org/2000/svg">
<g clip-path="url(#clip0_4029_1111)">
<path d="M20.4001 13.42L15.7601 20.5334H14.9334L12.4801 16.1067C11.9401 15.1267 11.2134 14.28 10.3601 13.6134L14.3001 12.1334C14.4134 12.0867 14.5268 12.0534 14.6534 12.0334C14.7734 12.0134 14.8868 12 15.0001 12H19.3001L20.4001 13.42Z" fill="currentColor"/>
<path d="M21.6001 11.7H24.3668C24.5001 11.7 24.6201 11.6467 24.7201 11.5467C24.8201 11.4467 24.8668 11.3334 24.8668 11.2V9.03338C24.8668 8.85338 24.7868 8.71338 24.6334 8.61338C24.4801 8.51338 24.3134 8.51338 24.1334 8.60004L20.5668 10.3667L21.6001 11.7Z" fill="currentColor"/>
<g opacity="0.85">
<path d="M5.23333 16.8667C6.14667 16.8667 6.91333 17.18 7.53333 17.8134C8.15333 18.4467 8.46667 19.2134 8.46667 20.1C8.46667 20.9867 8.15333 21.7467 7.53333 22.38C6.91333 23.0134 6.14667 23.3334 5.23333 23.3334C4.32 23.3334 3.58667 23.02 2.95333 22.4C2.32 21.78 2 21.0134 2 20.1C2 19.1867 2.32 18.42 2.95333 17.8C3.58667 17.18 4.34667 16.8667 5.23333 16.8667ZM5.23333 14.8667C3.83333 14.8667 2.56 15.3867 1.55333 16.3734C0.533333 17.3667 0 18.66 0 20.1C0 21.54 0.54 22.8334 1.55333 23.8267C2.56 24.8134 3.83333 25.3334 5.23333 25.3334C6.63333 25.3334 7.96667 24.7934 8.96 23.78C9.94667 22.7734 10.4667 21.5 10.4667 20.1C10.4667 18.7 9.94667 17.42 8.96 16.4134C7.96667 15.4 6.68 14.8667 5.23333 14.8667Z" fill="currentColor"/>
<path d="M30.4667 16.4C29.4667 15.3934 28.1733 14.8667 26.7333 14.8667C25.9133 14.8667 25.1467 15.04 24.4533 15.3934C24.4533 15.3934 24.44 15.4 24.4333 15.4C24.4133 15.4067 24.4 15.42 24.38 15.4267C23.8867 15.6734 23.44 16 23.04 16.4134C22.98 16.4734 22.92 16.54 22.8733 16.6H22.8667C21.9933 17.5867 21.5333 18.7934 21.5333 20.1334C21.5333 21.5467 22.06 22.82 23.0533 23.8134C24.0467 24.8067 25.32 25.3334 26.7333 25.3334C28.1467 25.3334 29.4467 24.8134 30.4533 23.8267C31.4667 22.84 32 21.56 32 20.1334C32 18.7067 31.4733 17.4 30.4667 16.4ZM29.0533 22.4C28.42 23.02 27.6467 23.3334 26.7333 23.3334C25.82 23.3334 25.0867 23.02 24.4667 22.4C23.8467 21.78 23.5333 21.02 23.5333 20.1334C23.5333 19.4267 23.72 18.8067 24.0933 18.2667C24.2 18.1067 24.3267 17.96 24.4667 17.8134C24.8267 17.4467 25.2267 17.1934 25.6733 17.04C26.0067 16.92 26.36 16.8667 26.7333 16.8667C27.6467 16.8667 28.42 17.18 29.0533 17.8134C29.6867 18.4467 30 19.22 30 20.1334C30 21.0467 29.6867 21.78 29.0533 22.4Z" fill="currentColor"/>
</g>
<g opacity="0.52">
<path d="M27.3733 20.8934C27.1933 21.0334 26.9799 21.1 26.7666 21.1C26.4666 21.1 26.1733 20.9667 25.9733 20.7067L24.0933 18.2667C24.1999 18.1067 24.3266 17.96 24.4666 17.8134C24.8266 17.4467 25.2266 17.1934 25.6733 17.04L27.5599 19.4934C27.8933 19.9267 27.8133 20.5534 27.3733 20.8934Z" fill="currentColor"/>
<path d="M16.7402 6.66699C17.0536 6.66699 17.347 6.73385 17.627 6.86719C17.9002 7.00049 18.1267 7.18705 18.3066 7.43359L24.46 15.3936H24.4531C24.4511 15.3946 24.4397 15.4004 24.4336 15.4004C23.9203 15.6471 23.4534 15.9874 23.04 16.4141C22.9802 16.474 22.9206 16.5407 22.874 16.6006L21.7002 15.1006L21.6943 15.0928L17.2402 21.9268C16.9936 22.3067 16.5733 22.5331 16.1201 22.5332H14.54C14.0534 22.5332 13.6064 22.2667 13.373 21.8467L12.96 21.0996H5.22656C4.67323 21.0996 4.22656 20.6529 4.22656 20.0996C4.22656 19.5463 4.67323 19.0996 5.22656 19.0996H11.8535L10.7334 17.0801C9.62679 15.0802 7.52675 13.8398 5.24023 13.833L1.01367 13.8398C0.460339 13.8398 0.0126953 13.3865 0.0126953 12.8398C0.0127231 12.2932 0.460356 11.8398 1.01367 11.8398H5.24023C7.13336 11.8333 8.933 12.4801 10.3662 13.6133C11.2195 14.2799 11.9463 15.1265 12.4863 16.1064L14.9395 20.5332H15.7666L20.4062 13.4199L19.3066 12L16.707 8.66699H14.7402C14.4536 8.66699 14.214 8.57322 14.0273 8.37988C13.834 8.19322 13.7402 7.95366 13.7402 7.66699C13.7402 7.38033 13.834 7.1406 14.0273 6.94727C14.214 6.76066 14.4536 6.66699 14.7402 6.66699H16.7402Z" fill="currentColor"/>
</g>
</g>
<defs>
<clipPath id="clip0_4029_1111">
<rect width="32" height="32" fill="white"/>
</clipPath>
</defs>
</svg>
