<svg width="32" height="32" viewBox="0 0 32 32" fill="none" xmlns="http://www.w3.org/2000/svg">
<path opacity="0.85" d="M6.85998 8.36665C6.99332 8.26665 7.13332 8.17331 7.27332 8.07331C7.13332 8.16665 6.99332 8.26665 6.85998 8.36665ZM30.3867 14.84C30.3533 14.68 30.3 14.5466 30.2267 14.44C28.8533 11.7 26.9067 9.49998 24.3867 7.83331C21.86 6.16665 19.0667 5.33331 16 5.33331C12.9333 5.33331 10.14 6.16665 7.61332 7.83331C7.49998 7.91331 7.38665 7.99331 7.27332 8.07331L11.3267 12.1133C11.5133 11.8333 11.7333 11.5733 11.9867 11.32C13.08 10.22 14.42 9.66665 15.9933 9.66665C17.5667 9.66665 18.9133 10.22 20.0133 11.32C21.1133 12.42 21.6667 13.7533 21.6667 15.3333C21.6667 16.9133 21.1133 18.2466 20.02 19.3466C19.7667 19.6 19.5 19.82 19.2267 20.0133L22.9133 23.6933C23.4133 23.44 23.9067 23.1533 24.3867 22.8333C26.9067 21.1666 28.8533 18.9666 30.2267 16.2333C30.3 16.12 30.3533 15.9866 30.3867 15.8266C30.4133 15.6666 30.4333 15.5066 30.4333 15.3333C30.4333 15.16 30.4133 15 30.3867 14.84ZM16.0067 21C14.4267 21 13.0867 20.4533 11.9867 19.3533C10.8867 18.2533 10.3333 16.9133 10.3333 15.34C10.3333 14.9066 10.3733 14.4866 10.4667 14.0933L5.68665 9.31998C4.07332 10.74 2.77332 12.4466 1.77332 14.44C1.69998 14.5466 1.65332 14.68 1.61332 14.84C1.58665 15 1.56665 15.1666 1.56665 15.3333C1.56665 15.5 1.58665 15.6666 1.61332 15.8266C1.65332 15.9866 1.69998 16.12 1.77332 16.2333C3.14665 18.9666 5.09332 21.1666 7.61332 22.8333C10.14 24.5 12.9333 25.3333 16 25.3333C17.7267 25.3333 19.3667 25.0666 20.92 24.5333L17.2467 20.8666C16.8533 20.96 16.44 21 16.0067 21Z" fill="#25CBDB"/>
<path opacity="0.32" d="M21.6667 15.3334C21.6667 16.9067 21.12 18.2467 20.02 19.3467C19.7667 19.6 19.5 19.82 19.2267 20.0134L17.8267 18.6067L12.7267 13.5134L11.3267 12.1134C11.5133 11.8334 11.7333 11.5734 11.9867 11.32C13.0867 10.22 14.42 9.66669 15.9933 9.66669C17.5667 9.66669 18.9133 10.22 20.0133 11.32C21.1133 12.42 21.6667 13.7534 21.6667 15.3334Z" fill="#25CBDB"/>
<path opacity="0.32" d="M15.3999 19.02L17.2466 20.8667C16.8533 20.96 16.4399 21 16.0066 21C14.4266 21 13.0866 20.4533 11.9866 19.3533C10.8866 18.2533 10.3333 16.9133 10.3333 15.34C10.3333 14.9067 10.3733 14.4867 10.4666 14.0933L12.3133 15.94L15.3999 19.02Z" fill="#25CBDB"/>
<path opacity="0.52" d="M15.9933 19.0667C14.9533 19.0667 14.0733 18.7 13.3533 17.9733C12.6333 17.2467 12.2666 16.36 12.2666 15.32C12.2666 14.28 12.6333 13.4 13.3599 12.68C14.0866 11.96 14.9733 11.5933 16.0133 11.5933C17.0533 11.5933 17.9333 11.96 18.6533 12.6867C19.3733 13.4133 19.7399 14.3 19.7399 15.34C19.7399 16.38 19.3733 17.26 18.6466 17.98C17.9199 18.7 17.0333 19.0667 15.9933 19.0667Z" fill="#25CBDB"/>
<path opacity="0.32" d="M11.3268 12.1133C11.1668 12.34 11.0268 12.5733 10.9068 12.8133C10.8401 12.94 10.7868 13.0666 10.7334 13.1933C10.6801 13.3266 10.6334 13.4666 10.5868 13.6066C10.5668 13.66 10.5534 13.72 10.5401 13.78C10.5134 13.88 10.4868 13.9866 10.4668 14.0933L5.68677 9.31997C6.0601 8.98664 6.45343 8.66664 6.8601 8.36664C6.99343 8.26664 7.13343 8.16664 7.27343 8.0733L11.3268 12.1133Z" fill="#25CBDB"/>
<path opacity="0.2" d="M12.2666 15.3267C12.2666 15.54 12.2799 15.74 12.3132 15.94L10.4666 14.0933C10.6066 13.3733 10.8999 12.7133 11.3266 12.1133L12.7266 13.5133C12.4199 14.0467 12.2666 14.6533 12.2666 15.3267Z" fill="#25CBDB"/>
<path opacity="0.2" d="M19.2268 20.0133C18.6268 20.44 17.9668 20.7266 17.2468 20.8666L15.4001 19.02C15.5935 19.0533 15.7868 19.0666 15.9935 19.0666C16.6735 19.0666 17.2801 18.9133 17.8268 18.6066L19.2268 20.0133Z" fill="#25CBDB"/>
<path opacity="0.32" d="M22.9135 23.6934C22.7335 23.7867 22.5602 23.8734 22.3802 23.9534C21.9002 24.1734 21.4135 24.3667 20.9202 24.5334L17.2468 20.8667C17.3468 20.8467 17.4402 20.8267 17.5335 20.8C17.6135 20.7867 17.6935 20.76 17.7735 20.7334C17.8868 20.7 18.0002 20.66 18.1068 20.62C18.1602 20.6 18.2068 20.58 18.2602 20.5534C18.2668 20.5534 18.2735 20.5534 18.2802 20.5467C18.4135 20.4934 18.5335 20.4334 18.6602 20.36C18.6735 20.36 18.6802 20.3534 18.6935 20.3467C18.8335 20.2734 18.9668 20.1867 19.1002 20.1C19.1402 20.0734 19.1868 20.04 19.2268 20.0134L22.9135 23.6934Z" fill="#25CBDB"/>
<path d="M27.1265 28.9334C26.8732 28.9334 26.6132 28.8334 26.4199 28.64L2.53987 4.79336C2.14654 4.40002 2.14654 3.76669 2.53987 3.38002C2.93321 2.98669 3.56654 2.98669 3.95321 3.38002L27.8265 27.2267C28.2199 27.62 28.2199 28.2534 27.8265 28.64C27.6332 28.8334 27.3732 28.9334 27.1199 28.9334H27.1265Z" fill="#25CBDB"/>
</svg>
