<svg width="32" height="32" viewBox="0 0 32 32" fill="none" xmlns="http://www.w3.org/2000/svg">
<path opacity="0.85" d="M30.3867 14.8401C30.3534 14.6801 30.3001 14.5468 30.2334 14.4401C28.8601 11.7068 26.9134 9.50675 24.3867 7.84009C21.8601 6.17342 19.0667 5.34009 16.0001 5.34009C12.9334 5.34009 10.1401 6.17342 7.61339 7.84009C5.08672 9.50675 3.14006 11.7068 1.76673 14.4401C1.70006 14.5468 1.64673 14.6868 1.61339 14.8401C1.58006 15.0001 1.56006 15.1668 1.56006 15.3334C1.56006 15.5001 1.58006 15.6668 1.61339 15.8268C1.64673 15.9868 1.70006 16.1201 1.76673 16.2268C3.14006 18.9601 5.08672 21.1601 7.61339 22.8268C10.1401 24.4934 12.9334 25.3268 16.0001 25.3268C19.0667 25.3268 21.8601 24.4934 24.3867 22.8268C26.9134 21.1601 28.8601 18.9601 30.2334 16.2268C30.3001 16.1201 30.3534 15.9801 30.3867 15.8268C30.4201 15.6734 30.4401 15.5001 30.4401 15.3334C30.4401 15.1668 30.4201 15.0001 30.3867 14.8401ZM20.0201 19.3468C18.9201 20.4468 17.5801 21.0001 16.0067 21.0001C14.4334 21.0001 13.0934 20.4468 11.9867 19.3468C10.8801 18.2468 10.3334 16.9068 10.3334 15.3334C10.3334 13.7601 10.8867 12.4201 11.9801 11.3134C13.0801 10.2134 14.4201 9.66009 15.9934 9.66009C17.5667 9.66009 18.9067 10.2068 20.0134 11.3068C21.1134 12.4068 21.6667 13.7468 21.6667 15.3201C21.6667 16.8934 21.1134 18.2334 20.0201 19.3334V19.3468Z" fill="#25CBDB"/>
<path opacity="0.2" d="M16.0067 11.5999C14.9667 11.5999 14.0867 11.9599 13.3533 12.6799C12.6267 13.3999 12.26 14.2799 12.26 15.3199C12.26 16.3599 12.62 17.2399 13.34 17.9666C14.06 18.6933 14.94 19.0599 15.98 19.0599C17.02 19.0599 17.9 18.6999 18.6267 17.9799C19.3533 17.2599 19.72 16.3799 19.72 15.3399C19.72 14.2999 19.36 13.4199 18.64 12.6866C17.92 11.9599 17.04 11.5933 16 11.5933L16.0067 11.5999Z" fill="#25CBDB"/>
<path opacity="0.32" d="M15.9933 9.66675C14.4199 9.66675 13.0799 10.2201 11.9799 11.3201C10.8799 12.4201 10.3333 13.7601 10.3333 15.3401C10.3333 16.9201 10.8866 18.2534 11.9866 19.3534C13.0866 20.4534 14.4266 21.0067 16.0066 21.0067C17.5866 21.0067 18.9199 20.4534 20.0199 19.3534C21.1199 18.2534 21.6666 16.9134 21.6666 15.3401C21.6666 13.7667 21.1133 12.4267 20.0133 11.3267C18.9133 10.2267 17.5733 9.68008 15.9933 9.68008V9.66675ZM18.6399 17.9801C17.9133 18.7001 17.0266 19.0601 15.9933 19.0601C14.9599 19.0601 14.0733 18.6934 13.3533 17.9667C12.6333 17.2401 12.2733 16.3534 12.2733 15.3201C12.2733 14.2867 12.6399 13.4001 13.3666 12.6801C14.0933 11.9601 14.9799 11.6001 16.0199 11.6001C17.0599 11.6001 17.9399 11.9667 18.6599 12.6934C19.3799 13.4201 19.7399 14.3067 19.7399 15.3467C19.7399 16.3867 19.3733 17.2667 18.6466 17.9867L18.6399 17.9801Z" fill="#25CBDB"/>
</svg>
