<svg width="32" height="32" viewBox="0 0 32 32" fill="none" xmlns="http://www.w3.org/2000/svg">
<path opacity="0.52" d="M27.3333 5.33337H4.66663C3.55996 5.33337 2.66663 6.22671 2.66663 7.33337V24.6667C2.66663 25.7734 3.55996 26.6667 4.66663 26.6667H27.3333C28.44 26.6667 29.3333 25.7734 29.3333 24.6667V7.33337C29.3333 6.22671 28.44 5.33337 27.3333 5.33337ZM27.3666 13.3334H21.8066C21.4933 13.3334 21.1866 13.4067 20.9133 13.5467L16.8933 15.5534C16.3333 15.84 15.6666 15.84 15.1066 15.5534L11.0866 13.5467C10.8133 13.4067 10.5066 13.3334 10.1933 13.3334H4.63329V12.3334C4.63329 11.7867 5.07996 11.3334 5.63329 11.3334H26.3666C26.92 11.3334 27.3666 11.7867 27.3666 12.3334V13.3334ZM27.3666 9.50671C27.0533 9.39337 26.72 9.33337 26.3666 9.33337H5.63329C5.27996 9.33337 4.94663 9.39337 4.63329 9.50671V8.33337C4.63329 7.78004 5.07996 7.33337 5.63329 7.33337H26.3666C26.92 7.33337 27.3666 7.78004 27.3666 8.33337V9.50671Z" fill="#25CBDB"/>
<path opacity="0.32" d="M27.3666 9.50671V12.3334C27.3666 11.7867 26.92 11.3334 26.3666 11.3334H5.6333C5.07997 11.3334 4.6333 11.7867 4.6333 12.3334V9.50671C4.94663 9.39337 5.27997 9.33337 5.6333 9.33337H26.3666C26.72 9.33337 27.0533 9.39337 27.3666 9.50671Z" fill="#25CBDB"/>
<path opacity="0.52" d="M27.3666 13.3334V23.6067C27.3666 24.1934 26.8933 24.6667 26.3066 24.6667H5.6933C5.10663 24.6667 4.6333 24.1934 4.6333 23.6067V13.3334H10.1933C10.5066 13.3334 10.8133 13.4067 11.0866 13.5467L15.1066 15.5534C15.6666 15.84 16.3333 15.84 16.8933 15.5534L20.9133 13.5467C21.1866 13.4067 21.4933 13.3334 21.8066 13.3334H27.3666Z" fill="#25CBDB"/>
<g opacity="0.2">
<path d="M26.3666 11.3334H5.6333C5.07997 11.3334 4.6333 11.7867 4.6333 12.3334V13.3334H10.1933C10.5066 13.3334 10.8133 13.4067 11.0866 13.5467L15.1066 15.5534C15.6666 15.84 16.3333 15.84 16.8933 15.5534L20.9133 13.5467C21.1866 13.4067 21.4933 13.3334 21.8066 13.3334H27.3666V12.3334C27.3666 11.7867 26.92 11.3334 26.3666 11.3334Z" fill="#25CBDB"/>
<path d="M26.3666 7.33337H5.6333C5.07997 7.33337 4.6333 7.78004 4.6333 8.33337V9.50671C4.94663 9.39337 5.27997 9.33337 5.6333 9.33337H26.3666C26.72 9.33337 27.0533 9.39337 27.3666 9.50671V8.33337C27.3666 7.78004 26.92 7.33337 26.3666 7.33337Z" fill="#25CBDB"/>
</g>
</svg>
