<svg width="32" height="32" viewBox="0 0 32 32" fill="none" xmlns="http://www.w3.org/2000/svg">
<path opacity="0.5" d="M24.0033 23.9998C21.7833 26.2198 19.1166 27.3332 16.0033 27.3332C12.89 27.3332 10.2233 26.2198 8.00332 23.9998C5.78332 21.7798 4.66998 19.1132 4.66998 15.9998C4.66998 12.8865 5.78332 10.2198 8.00332 7.99984C10.2233 5.77984 12.89 4.6665 16.0033 4.6665C19.1166 4.6665 21.7833 5.77984 24.0033 7.99984C26.2233 10.2198 27.3367 12.8865 27.3367 15.9998C27.3367 19.1132 26.2233 21.7798 24.0033 23.9998Z" fill="#25CBDB"/>
<path d="M16.0033 29.3301C14.1833 29.3301 12.4566 28.9834 10.8366 28.2767C9.21665 27.5767 7.79665 26.6234 6.58332 25.4101C5.36998 24.1967 4.41665 22.7834 3.71665 21.1567C3.01665 19.5367 2.66998 17.8101 2.66998 15.9901C2.66998 14.1701 3.02332 12.4434 3.71665 10.8234C4.41665 9.2034 5.36998 7.7834 6.58332 6.57007C7.79665 5.35674 9.20998 4.4034 10.8366 3.7034C12.4566 3.0034 14.1833 2.65674 16.0033 2.65674C17.8233 2.65674 19.55 3.01007 21.17 3.7034C22.79 4.4034 24.21 5.35674 25.4233 6.57007C26.6367 7.7834 27.59 9.19674 28.29 10.8234C28.99 12.4434 29.3433 14.1701 29.3433 15.9901C29.3433 17.8101 28.9967 19.5367 28.29 21.1567C27.59 22.7767 26.6367 24.1967 25.4233 25.4101C24.21 26.6234 22.7966 27.5767 21.17 28.2767C19.55 28.9767 17.8233 29.3301 16.0033 29.3301ZM16.0033 27.3301C19.1166 27.3301 21.7833 26.2167 24.0033 23.9967C26.2233 21.7767 27.3367 19.1101 27.3367 15.9967C27.3367 12.8834 26.2233 10.2167 24.0033 7.99674C21.7833 5.77674 19.1166 4.6634 16.0033 4.6634C12.89 4.6634 10.2233 5.77674 8.00332 7.99674C5.78332 10.2167 4.66998 12.8834 4.66998 15.9967C4.66998 19.1101 5.78332 21.7767 8.00332 23.9967C10.2233 26.2167 12.89 27.3301 16.0033 27.3301Z" fill="#25CBDB"/>
<path d="M21.6633 21.6701C22.07 21.2634 22.0766 20.5967 21.6633 20.1834L17.1033 15.5967V9.89673C17.1033 9.3434 16.6566 8.89673 16.1033 8.89673C15.55 8.89673 15.1033 9.3434 15.1033 9.89673V16.3967L20.1566 21.6567C20.5633 22.0834 21.2433 22.0901 21.6566 21.6701H21.6633Z" fill="#25CBDB"/>
</svg>
