<svg width="32" height="32" viewBox="0 0 32 32" fill="none" xmlns="http://www.w3.org/2000/svg">
<path opacity="0.52" d="M5.70008 19.75C5.98897 19.4722 6.45564 19.3333 7.10008 19.3333C7.94453 19.3333 8.56675 19.5555 8.96675 20C9.36675 20.4444 10.2223 20.6666 11.5334 20.6666C12.8445 20.6666 13.7056 20.4444 14.1167 20C14.5279 19.5555 15.1445 19.3333 15.9667 19.3333C16.789 19.3333 17.4279 19.5555 17.8834 20C18.339 20.4444 19.2112 20.6666 20.5001 20.6666C21.789 20.6666 22.639 20.4444 23.0501 20C23.4612 19.5555 24.0779 19.3333 24.9001 19.3333C25.5223 19.3333 25.9834 19.4722 26.2834 19.75C26.5834 20.0277 26.989 20.2222 27.5001 20.3333C28.0112 20.4444 28.4445 20.3944 28.8001 20.1833C29.1556 19.9722 29.3334 19.6555 29.3334 19.2333C29.3334 18.9222 29.2001 18.6111 28.9334 18.3C28.6667 17.9888 28.2556 17.6888 27.7001 17.4C27.2112 17.1555 26.7279 16.9722 26.2501 16.85C25.7723 16.7277 25.2779 16.6666 24.7667 16.6666C23.5001 16.6666 22.6779 16.8888 22.3001 17.3333C21.9223 17.7777 21.3223 18 20.5001 18C19.6779 18 19.039 17.7777 18.5834 17.3333C18.1279 16.8888 17.2556 16.6666 15.9667 16.6666C14.6779 16.6666 13.8279 16.8888 13.4167 17.3333C13.0056 17.7777 12.389 18 11.5667 18C10.7445 18 10.1223 17.7777 9.70008 17.3333C9.27786 16.8888 8.45564 16.6666 7.23341 16.6666C6.45564 16.6666 5.82786 16.7611 5.35008 16.95C4.8723 17.1388 4.57786 17.2666 4.46675 17.3333C3.84453 17.6444 3.38897 17.9555 3.10008 18.2666C2.81119 18.5777 2.66675 18.9 2.66675 19.2333C2.66675 19.6555 2.84453 19.9722 3.20008 20.1833C3.55564 20.3944 3.98897 20.4444 4.50008 20.3333C5.01119 20.2222 5.41119 20.0277 5.70008 19.75Z" fill="#25CBDB"/>
<path opacity="0.2" d="M5.70008 25.0833C5.98897 24.8056 6.45564 24.6667 7.10008 24.6667C7.94453 24.6667 8.56675 24.8889 8.96675 25.3333C9.36675 25.7778 10.2223 26 11.5334 26C12.8445 26 13.7056 25.7778 14.1167 25.3333C14.5279 24.8889 15.1445 24.6667 15.9667 24.6667C16.789 24.6667 17.4279 24.8889 17.8834 25.3333C18.339 25.7778 19.2112 26 20.5001 26C21.789 26 22.639 25.7778 23.0501 25.3333C23.4612 24.8889 24.0779 24.6667 24.9001 24.6667C25.5223 24.6667 25.9834 24.8056 26.2834 25.0833C26.5834 25.3611 26.989 25.5556 27.5001 25.6667C28.0112 25.7778 28.4445 25.7278 28.8001 25.5167C29.1556 25.3056 29.3334 24.9889 29.3334 24.5667C29.3334 24.2556 29.2001 23.9444 28.9334 23.6333C28.6667 23.3222 28.2556 23.0222 27.7001 22.7333C27.2112 22.4889 26.7279 22.3056 26.2501 22.1833C25.7723 22.0611 25.2779 22 24.7667 22C23.5001 22 22.6779 22.2222 22.3001 22.6667C21.9223 23.1111 21.3223 23.3333 20.5001 23.3333C19.6779 23.3333 19.039 23.1111 18.5834 22.6667C18.1279 22.2222 17.2556 22 15.9667 22C14.6779 22 13.8279 22.2222 13.4167 22.6667C13.0056 23.1111 12.389 23.3333 11.5667 23.3333C10.7445 23.3333 10.1223 23.1111 9.70008 22.6667C9.27786 22.2222 8.45564 22 7.23341 22C6.45564 22 5.82786 22.0944 5.35008 22.2833C4.8723 22.4722 4.57786 22.6 4.46675 22.6667C3.84453 22.9778 3.38897 23.2889 3.10008 23.6C2.81119 23.9111 2.66675 24.2333 2.66675 24.5667C2.66675 24.9889 2.84453 25.3056 3.20008 25.5167C3.55564 25.7278 3.98897 25.7778 4.50008 25.6667C5.01119 25.5556 5.41119 25.3611 5.70008 25.0833Z" fill="#25CBDB"/>
<path opacity="0.85" d="M5.70008 14.4167C5.98897 14.1389 6.45564 14 7.10008 14C7.94453 14 8.56675 14.2223 8.96675 14.6667C9.36675 15.1112 10.2223 15.3334 11.5334 15.3334C12.8445 15.3334 13.7056 15.1112 14.1167 14.6667C14.5279 14.2223 15.1445 14 15.9667 14C16.789 14 17.4279 14.2223 17.8834 14.6667C18.339 15.1112 19.2112 15.3334 20.5001 15.3334C21.789 15.3334 22.639 15.1112 23.0501 14.6667C23.4612 14.2223 24.0779 14 24.9001 14C25.5223 14 25.9834 14.1389 26.2834 14.4167C26.5834 14.6945 26.989 14.8889 27.5001 15C28.0112 15.1112 28.4445 15.0612 28.8001 14.85C29.1556 14.6389 29.3334 14.3223 29.3334 13.9C29.3334 13.5889 29.2001 13.2778 28.9334 12.9667C28.6667 12.6556 28.2556 12.3556 27.7001 12.0667C27.2112 11.8223 26.7279 11.6389 26.2501 11.5167C25.7723 11.3945 25.2779 11.3334 24.7667 11.3334C23.5001 11.3334 22.6779 11.5556 22.3001 12C21.9223 12.4445 21.3223 12.6667 20.5001 12.6667C19.6779 12.6667 19.039 12.4445 18.5834 12C18.1279 11.5556 17.2556 11.3334 15.9667 11.3334C14.6779 11.3334 13.8279 11.5556 13.4167 12C13.0056 12.4445 12.389 12.6667 11.5667 12.6667C10.7445 12.6667 10.1223 12.4445 9.70008 12C9.27786 11.5556 8.45564 11.3334 7.23341 11.3334C6.45564 11.3334 5.82786 11.4278 5.35008 11.6167C4.8723 11.8056 4.57786 11.9334 4.46675 12C3.84453 12.3112 3.38897 12.6223 3.10008 12.9334C2.81119 13.2445 2.66675 13.5667 2.66675 13.9C2.66675 14.3223 2.84453 14.6389 3.20008 14.85C3.55564 15.0612 3.98897 15.1112 4.50008 15C5.01119 14.8889 5.41119 14.6945 5.70008 14.4167Z" fill="#25CBDB"/>
<path d="M5.70008 9.08333C5.98897 8.80556 6.45564 8.66667 7.10008 8.66667C7.94453 8.66667 8.56675 8.88889 8.96675 9.33333C9.36675 9.77778 10.2223 10 11.5334 10C12.8445 10 13.7056 9.77778 14.1167 9.33333C14.5279 8.88889 15.1445 8.66667 15.9667 8.66667C16.789 8.66667 17.4279 8.88889 17.8834 9.33333C18.339 9.77778 19.2112 10 20.5001 10C21.789 10 22.639 9.77778 23.0501 9.33333C23.4612 8.88889 24.0779 8.66667 24.9001 8.66667C25.5223 8.66667 25.9834 8.80556 26.2834 9.08333C26.5834 9.36111 26.989 9.55556 27.5001 9.66667C28.0112 9.77778 28.4445 9.72778 28.8001 9.51667C29.1556 9.30556 29.3334 8.98889 29.3334 8.56667C29.3334 8.25556 29.2001 7.94445 28.9334 7.63333C28.6667 7.32222 28.2556 7.02222 27.7001 6.73333C27.2112 6.48889 26.7279 6.30556 26.2501 6.18333C25.7723 6.06111 25.2779 6 24.7667 6C23.5001 6 22.6779 6.22222 22.3001 6.66667C21.9223 7.11111 21.3223 7.33333 20.5001 7.33333C19.6779 7.33333 19.039 7.11111 18.5834 6.66667C18.1279 6.22222 17.2556 6 15.9667 6C14.6779 6 13.8279 6.22222 13.4167 6.66667C13.0056 7.11111 12.389 7.33333 11.5667 7.33333C10.7445 7.33333 10.1223 7.11111 9.70008 6.66667C9.27786 6.22222 8.45564 6 7.23341 6C6.45564 6 5.82786 6.09445 5.35008 6.28333C4.8723 6.47222 4.57786 6.6 4.46675 6.66667C3.84453 6.97778 3.38897 7.28889 3.10008 7.6C2.81119 7.91111 2.66675 8.23333 2.66675 8.56667C2.66675 8.98889 2.84453 9.30556 3.20008 9.51667C3.55564 9.72778 3.98897 9.77778 4.50008 9.66667C5.01119 9.55556 5.41119 9.36111 5.70008 9.08333Z" fill="#25CBDB"/>
</svg>
