<svg width="32" height="32" viewBox="0 0 32 32" fill="none" xmlns="http://www.w3.org/2000/svg">
<path opacity="0.85" d="M20.9134 11.0534C19.6134 9.74675 17.8801 9.02675 16.0401 9.02675C12.2334 9.02675 9.14008 12.1201 9.14008 15.9201C9.14008 17.2267 9.50008 18.4934 10.1934 19.5934L10.3534 19.8534L9.66008 22.4001L12.2667 21.7134L12.5201 21.8601C13.5801 22.4934 14.7934 22.8201 16.0334 22.8267C19.8334 22.8267 22.9334 19.7334 22.9334 15.9267C22.9334 14.0867 22.2134 12.3534 20.9134 11.0534ZM20.0934 18.8867C19.9201 19.3734 19.0934 19.8134 18.6934 19.8734C18.3401 19.9267 17.8867 19.9467 17.3867 19.7934C17.0867 19.6934 16.7001 19.5667 16.2067 19.3534C14.1267 18.4534 12.7667 16.3601 12.6667 16.2267C12.5601 16.0867 11.8201 15.1001 11.8201 14.0801C11.8201 13.0601 12.3534 12.5601 12.5467 12.3534C12.7334 12.1401 12.9601 12.0934 13.1001 12.0934C13.2401 12.0934 13.3734 12.0934 13.4934 12.1001C13.6201 12.1001 13.7934 12.0534 13.9601 12.4534C14.1334 12.8667 14.5467 13.8867 14.6001 13.9934C14.6534 14.1001 14.6867 14.2201 14.6201 14.3534C14.5467 14.4934 14.5134 14.5801 14.4067 14.7001C14.3067 14.8267 14.1934 14.9734 14.1001 15.0667C13.9934 15.1667 13.8867 15.2801 14.0067 15.4867C14.1267 15.6934 14.5467 16.3734 15.1601 16.9267C15.9534 17.6334 16.6201 17.8467 16.8267 17.9534C17.0334 18.0601 17.1601 18.0401 17.2801 17.9001C17.4001 17.7601 17.7934 17.2934 17.9334 17.0867C18.0734 16.8801 18.2134 16.9134 18.4001 16.9867C18.5934 17.0534 19.6134 17.5534 19.8201 17.6601C20.0267 17.7667 20.1667 17.8134 20.2134 17.9001C20.2667 17.9867 20.2667 18.4001 20.0934 18.8867ZM20.9134 11.0534C19.6134 9.74675 17.8801 9.02675 16.0401 9.02675C12.2334 9.02675 9.14008 12.1201 9.14008 15.9201C9.14008 17.2267 9.50008 18.4934 10.1934 19.5934L10.3534 19.8534L9.66008 22.4001L12.2667 21.7134L12.5201 21.8601C13.5801 22.4934 14.7934 22.8201 16.0334 22.8267C19.8334 22.8267 22.9334 19.7334 22.9334 15.9267C22.9334 14.0867 22.2134 12.3534 20.9134 11.0534ZM20.0934 18.8867C19.9201 19.3734 19.0934 19.8134 18.6934 19.8734C18.3401 19.9267 17.8867 19.9467 17.3867 19.7934C17.0867 19.6934 16.7001 19.5667 16.2067 19.3534C14.1267 18.4534 12.7667 16.3601 12.6667 16.2267C12.5601 16.0867 11.8201 15.1001 11.8201 14.0801C11.8201 13.0601 12.3534 12.5601 12.5467 12.3534C12.7334 12.1401 12.9601 12.0934 13.1001 12.0934C13.2401 12.0934 13.3734 12.0934 13.4934 12.1001C13.6201 12.1001 13.7934 12.0534 13.9601 12.4534C14.1334 12.8667 14.5467 13.8867 14.6001 13.9934C14.6534 14.1001 14.6867 14.2201 14.6201 14.3534C14.5467 14.4934 14.5134 14.5801 14.4067 14.7001C14.3067 14.8267 14.1934 14.9734 14.1001 15.0667C13.9934 15.1667 13.8867 15.2801 14.0067 15.4867C14.1267 15.6934 14.5467 16.3734 15.1601 16.9267C15.9534 17.6334 16.6201 17.8467 16.8267 17.9534C17.0334 18.0601 17.1601 18.0401 17.2801 17.9001C17.4001 17.7601 17.7934 17.2934 17.9334 17.0867C18.0734 16.8801 18.2134 16.9134 18.4001 16.9867C18.5934 17.0534 19.6134 17.5534 19.8201 17.6601C20.0267 17.7667 20.1667 17.8134 20.2134 17.9001C20.2667 17.9867 20.2667 18.4001 20.0934 18.8867ZM16.0001 2.66675C8.63341 2.66675 2.66675 8.63341 2.66675 16.0001C2.66675 23.3667 8.63341 29.3334 16.0001 29.3334C23.3667 29.3334 29.3334 23.3601 29.3334 16.0001C29.3334 8.64008 23.3667 2.66675 16.0001 2.66675ZM21.9001 21.7934C20.3934 23.2934 18.3201 24.2267 16.0334 24.2267C14.6401 24.2267 13.2801 23.8734 12.0667 23.2134L7.66675 24.3667L8.84675 20.0667C8.12008 18.8134 7.73342 17.3867 7.73342 15.9201C7.73342 11.3467 11.4601 7.62675 16.0334 7.62675C18.2534 7.62675 20.3401 8.49342 21.9067 10.0601C23.4734 11.6267 24.3334 13.7134 24.3334 15.9267C24.3334 18.1401 23.4001 20.2867 21.9001 21.7934ZM16.0401 9.02675C12.2334 9.02675 9.14008 12.1201 9.14008 15.9201C9.14008 17.2267 9.50008 18.4934 10.1934 19.5934L10.3534 19.8534L9.66008 22.4001L12.2667 21.7134L12.5201 21.8601C13.5801 22.4934 14.7934 22.8201 16.0334 22.8267C19.8334 22.8267 22.9334 19.7334 22.9334 15.9267C22.9334 14.0867 22.2134 12.3534 20.9134 11.0534C19.6134 9.74675 17.8801 9.02675 16.0401 9.02675ZM20.0934 18.8867C19.9201 19.3734 19.0934 19.8134 18.6934 19.8734C18.3401 19.9267 17.8867 19.9467 17.3867 19.7934C17.0867 19.6934 16.7001 19.5667 16.2067 19.3534C14.1267 18.4534 12.7667 16.3601 12.6667 16.2267C12.5601 16.0867 11.8201 15.1001 11.8201 14.0801C11.8201 13.0601 12.3534 12.5601 12.5467 12.3534C12.7334 12.1401 12.9601 12.0934 13.1001 12.0934C13.2401 12.0934 13.3734 12.0934 13.4934 12.1001C13.6201 12.1001 13.7934 12.0534 13.9601 12.4534C14.1334 12.8667 14.5467 13.8867 14.6001 13.9934C14.6534 14.1001 14.6867 14.2201 14.6201 14.3534C14.5467 14.4934 14.5134 14.5801 14.4067 14.7001C14.3067 14.8267 14.1934 14.9734 14.1001 15.0667C13.9934 15.1667 13.8867 15.2801 14.0067 15.4867C14.1267 15.6934 14.5467 16.3734 15.1601 16.9267C15.9534 17.6334 16.6201 17.8467 16.8267 17.9534C17.0334 18.0601 17.1601 18.0401 17.2801 17.9001C17.4001 17.7601 17.7934 17.2934 17.9334 17.0867C18.0734 16.8801 18.2134 16.9134 18.4001 16.9867C18.5934 17.0534 19.6134 17.5534 19.8201 17.6601C20.0267 17.7667 20.1667 17.8134 20.2134 17.9001C20.2667 17.9867 20.2667 18.4001 20.0934 18.8867Z" fill="#25CBDB"/>
<g opacity="0.2">
<path d="M21.9067 10.06C20.3401 8.49338 18.2534 7.62671 16.0334 7.62671C11.4601 7.62671 7.74008 11.3467 7.73341 15.92C7.73341 17.3867 8.12008 18.8134 8.84675 20.0667L7.66675 24.3667L12.0667 23.2134C13.2801 23.8734 14.6401 24.2267 16.0334 24.2267C18.3201 24.2267 20.3934 23.2934 21.9001 21.7934C23.4001 20.2867 24.3334 18.2134 24.3334 15.9267C24.3334 13.64 23.4734 11.6267 21.9067 10.06ZM16.0334 22.8267C14.7934 22.82 13.5801 22.4934 12.5201 21.86L12.2667 21.7134L9.66008 22.4L10.3534 19.8534L10.1934 19.5934C9.50008 18.4934 9.14008 17.2267 9.14008 15.92C9.14008 12.12 12.2334 9.02671 16.0401 9.02671C17.8801 9.02671 19.6134 9.74671 20.9134 11.0534C22.2134 12.3534 22.9334 14.0867 22.9334 15.9267C22.9334 19.7334 19.8334 22.8267 16.0334 22.8267Z" fill="#25CBDB"/>
<path d="M20.0934 18.8866C19.9201 19.3733 19.0934 19.8133 18.6934 19.8733C18.3401 19.9266 17.8867 19.9466 17.3867 19.7933C17.0867 19.6933 16.7001 19.5666 16.2067 19.3533C14.1267 18.4533 12.7667 16.3599 12.6667 16.2266C12.5601 16.0866 11.8201 15.0999 11.8201 14.0799C11.8201 13.0599 12.3534 12.5599 12.5467 12.3533C12.7334 12.1399 12.9601 12.0933 13.1001 12.0933C13.2401 12.0933 13.3734 12.0933 13.4934 12.0999C13.6201 12.0999 13.7934 12.0533 13.9601 12.4533C14.1334 12.8666 14.5467 13.8866 14.6001 13.9933C14.6534 14.0999 14.6867 14.2199 14.6201 14.3533C14.5467 14.4933 14.5134 14.5799 14.4067 14.6999C14.3067 14.8266 14.1934 14.9733 14.1001 15.0666C13.9934 15.1666 13.8867 15.2799 14.0067 15.4866C14.1267 15.6933 14.5467 16.3733 15.1601 16.9266C15.9534 17.6333 16.6201 17.8466 16.8267 17.9533C17.0334 18.0599 17.1601 18.0399 17.2801 17.8999C17.4001 17.7599 17.7934 17.2933 17.9334 17.0866C18.0734 16.8799 18.2134 16.9133 18.4001 16.9866C18.5934 17.0533 19.6134 17.5533 19.8201 17.6599C20.0267 17.7666 20.1667 17.8133 20.2134 17.8999C20.2667 17.9866 20.2667 18.3999 20.0934 18.8866Z" fill="#25CBDB"/>
</g>
</svg>
