<svg width="32" height="32" viewBox="0 0 32 32" fill="none" xmlns="http://www.w3.org/2000/svg">
<path opacity="0.52" fill-rule="evenodd" clip-rule="evenodd" d="M16 2.66675C8.63329 2.66675 2.66663 8.64008 2.66663 16.0001C2.66663 23.3601 8.63329 29.3334 16 29.3334C23.3666 29.3334 29.3333 23.3667 29.3333 16.0001C29.3333 8.63341 23.3666 2.66675 16 2.66675ZM16 25.3334C10.8533 25.3334 6.66663 21.1467 6.66663 16.0001C6.66663 10.8534 10.8533 6.66675 16 6.66675C21.1466 6.66675 25.3333 10.8534 25.3333 16.0001C25.3333 21.1467 21.1466 25.3334 16 25.3334Z" fill="#25CBDB"/>
<path opacity="0.2" fill-rule="evenodd" clip-rule="evenodd" d="M16 8.6499C11.939 8.6499 8.64978 11.9428 8.64978 16.0001C8.64978 20.0574 11.939 23.3503 16 23.3503C20.0609 23.3503 23.3501 20.0611 23.3501 16.0001C23.3501 11.9391 20.0609 8.6499 16 8.6499Z" fill="#25CBDB"/>
<path d="M16 6.66675C10.8533 6.66675 6.66663 10.8534 6.66663 16.0001C6.66663 21.1467 10.8533 25.3334 16 25.3334C21.1466 25.3334 25.3333 21.1467 25.3333 16.0001C25.3333 10.8534 21.1466 6.66675 16 6.66675ZM23.26 15.0001H19.16C19.1133 14.8334 19.0466 14.6734 18.9733 14.5201L21.8733 11.6201C22.5933 12.5867 23.0866 13.7467 23.26 15.0001ZM17 8.74675C18.2933 8.92008 19.48 9.43341 20.4666 10.1934L17.58 13.0867C17.3933 12.9867 17.2 12.9001 17 12.8401V8.74675ZM15 8.74675V12.8401C14.8333 12.8934 14.6733 12.9534 14.52 13.0334L11.62 10.1334C12.5866 9.40675 13.74 8.91341 15 8.74675ZM10.1933 11.5334L13.08 14.4201C12.98 14.6067 12.9 14.8001 12.8333 15.0001H8.73996C8.91996 13.7067 9.43329 12.5201 10.1933 11.5334ZM8.73996 17.0001H12.84C12.9 17.2067 12.98 17.3934 13.08 17.5801L10.1933 20.4667C9.43329 19.4801 8.91996 18.2934 8.73996 17.0001ZM15 23.2601C13.74 23.0867 12.5866 22.6001 11.62 21.8734L14.52 18.9734C14.6733 19.0467 14.8333 19.1134 15 19.1667V23.2601ZM16 17.3334C15.2666 17.3334 14.6666 16.7401 14.6666 16.0001C14.6666 15.2601 15.2666 14.6667 16 14.6667C16.7333 14.6667 17.3333 15.2667 17.3333 16.0001C17.3333 16.7334 16.7333 17.3334 16 17.3334ZM17 23.2601V19.1667C17.2 19.1001 17.3933 19.0201 17.58 18.9201L20.4666 21.8067C19.48 22.5667 18.2933 23.0801 17 23.2601ZM21.8733 20.3867L18.9733 17.4867C19.0466 17.3267 19.1133 17.1667 19.16 17.0001H23.26C23.0866 18.2601 22.5933 19.4134 21.8733 20.3867Z" fill="#25CBDB"/>
</svg>
