<svg width="32" height="32" viewBox="0 0 32 32" fill="none" xmlns="http://www.w3.org/2000/svg">
<path d="M15.9933 27.22C15.1933 27.22 14.4933 26.92 13.8933 26.32C13.2933 25.72 12.9933 25.02 12.9933 24.22C12.9933 23.42 13.2933 22.72 13.8933 22.12C14.4933 21.52 15.1933 21.22 15.9933 21.22C16.7933 21.22 17.4933 21.52 18.0933 22.12C18.6933 22.72 18.9933 23.42 18.9933 24.22C18.9933 25.02 18.6933 25.72 18.0933 26.32C17.4933 26.92 16.7933 27.22 15.9933 27.22Z" fill="#25CBDB"/>
<path opacity="0.85" d="M6.69333 18.5134C6.40666 18.2267 6.25333 17.8734 6.24 17.46C6.22666 17.0467 6.38 16.7134 6.69333 16.4467C8.09333 15.2267 9.56 14.3067 11.0933 13.7C12.6267 13.0867 14.26 12.78 15.9933 12.78C17.7267 12.78 19.36 13.0867 20.8933 13.7C22.4267 14.3134 23.8933 15.2267 25.2933 16.4467C25.6067 16.7134 25.76 17.0467 25.76 17.4467C25.76 17.8467 25.6067 18.2 25.2933 18.5134C25.0067 18.8 24.66 18.9467 24.26 18.9467C23.86 18.9467 23.5067 18.8134 23.1933 18.5467C21.9933 17.5467 20.8 16.8334 19.6067 16.4134C18.42 15.9934 17.2133 15.78 15.9867 15.78C14.76 15.78 13.56 15.9934 12.3733 16.4134C11.1867 16.8334 9.98666 17.5467 8.78666 18.5467C8.47333 18.8134 8.12 18.9467 7.72 18.9467C7.32 18.9467 6.97333 18.8 6.68666 18.5134H6.69333Z" fill="#25CBDB"/>
<path opacity="0.52" d="M1.06 12.88C0.773333 12.5934 0.619999 12.2334 0.606666 11.8134C0.593333 11.3934 0.746666 11.0467 1.06 10.78C3.08 8.96003 5.36667 7.50003 7.90667 6.41336C10.4533 5.3267 13.1467 4.78003 15.9867 4.78003C18.8267 4.78003 21.5267 5.3267 24.0667 6.41336C26.6133 7.50003 28.8933 8.96003 30.92 10.78C31.2333 11.0467 31.3867 11.3867 31.3867 11.7934C31.3867 12.2 31.2333 12.5667 30.92 12.8734C30.6333 13.16 30.28 13.3067 29.8667 13.3067C29.4533 13.3067 29.0933 13.1734 28.7867 12.9067C26.94 11.3267 24.9533 10.08 22.82 9.16003C20.6867 8.24003 18.4067 7.78003 15.9867 7.78003C13.5667 7.78003 11.2867 8.24003 9.15333 9.16003C7.02 10.08 5.03333 11.3334 3.18667 12.9134C2.87333 13.18 2.51333 13.3134 2.10667 13.3134C1.7 13.3134 1.34667 13.1667 1.05333 12.88H1.06Z" fill="#25CBDB"/>
</svg>
