<svg width="32" height="32" viewBox="0 0 32 32" fill="none" xmlns="http://www.w3.org/2000/svg">
<path opacity="0.52" d="M4.70666 28.6667C4.17333 28.6667 3.70667 28.4667 3.30667 28.0667C2.90667 27.6667 2.70667 27.2001 2.70667 26.6667V10.6667C2.70667 10.1334 2.90667 9.66675 3.30667 9.26675C3.70667 8.86675 4.17333 8.66675 4.70666 8.66675H27.3733C27.9067 8.66675 28.3733 8.86675 28.7733 9.26675C29.1733 9.66675 29.3733 10.1334 29.3733 10.6667V26.6667C29.3733 27.2001 29.1733 27.6667 28.7733 28.0667C28.3733 28.4667 27.9067 28.6667 27.3733 28.6667H4.70666Z" fill="#25CBDB"/>
<path opacity="0.52" d="M5.70667 26.6666H26.3733C26.9267 26.6666 27.3733 26.2199 27.3733 25.6666V13.3333H4.70667V25.6666C4.70667 26.2199 5.15333 26.6666 5.70667 26.6666Z" fill="#25CBDB"/>
<g opacity="0.85">
<path d="M10.7067 19.6667C10.7067 20.22 11.1533 20.6667 11.7067 20.6667C12.26 20.6667 12.7067 20.22 12.7067 19.6667V18.6667H10.7067V19.6667Z" fill="#25CBDB"/>
<path d="M19.3733 19.6667C19.3733 20.22 19.82 20.6667 20.3733 20.6667C20.9266 20.6667 21.3733 20.22 21.3733 19.6667V18.6667H19.3733V19.6667Z" fill="#25CBDB"/>
<path fill-rule="evenodd" clip-rule="evenodd" d="M21.3733 8.66675H27.3733C27.9067 8.66675 28.3733 8.86675 28.7733 9.26675C29.1733 9.66675 29.3733 10.1334 29.3733 10.6667V15.2867C29.3733 16.1734 29.0267 17.0201 28.4 17.6467L28.3533 17.6934C27.7267 18.3134 26.88 18.6667 25.9933 18.6667L21.3733 18.6667L21.3733 17.6667C21.3733 17.1134 20.9267 16.6667 20.3733 16.6667C19.82 16.6667 19.3733 17.1134 19.3733 17.6667L19.3733 18.6667H12.7067L12.7067 17.6667C12.7067 17.1134 12.26 16.6667 11.7067 16.6667C11.1533 16.6667 10.7067 17.1134 10.7067 17.6667V18.6667L6.08667 18.6667C5.2 18.6667 4.35333 18.3201 3.72667 17.6934L3.68 17.6467C3.06 17.0201 2.70667 16.1734 2.70667 15.2867V10.6667C2.70667 10.1334 2.90667 9.66675 3.30667 9.26675C3.70667 8.86675 4.17333 8.66675 4.70667 8.66675H10.7067V5.33325C10.7067 4.79992 10.9067 4.33325 11.3067 3.93325C11.7067 3.53325 12.1733 3.33325 12.7067 3.33325H19.3733C19.9067 3.33325 20.3733 3.53325 20.7733 3.93325C21.1733 4.33325 21.3733 4.79992 21.3733 5.33325V8.66675ZM19.3733 8.66675V5.33325H12.7067V8.66675H19.3733Z" fill="#25CBDB"/>
</g>
</svg>
