<svg width="32" height="32" viewBox="0 0 32 32" fill="none" xmlns="http://www.w3.org/2000/svg">
<path opacity="0.2" d="M22.5134 10.5134C21.2134 10.1667 16.0001 10.1667 16.0001 10.1667C16.0001 10.1667 10.7867 10.1667 9.48675 10.5134C8.76675 10.7067 8.20675 11.2667 8.01341 11.9867C7.66675 13.2867 7.66675 16.0001 7.66675 16.0001C7.66675 16.0001 7.66675 18.7134 8.01341 20.0134C8.20675 20.7334 8.76675 21.2934 9.48675 21.4867C10.7867 21.8334 16.0001 21.8334 16.0001 21.8334C16.0001 21.8334 21.2134 21.8334 22.5134 21.4867C23.2334 21.2934 23.7934 20.7334 23.9867 20.0134C24.3334 18.7134 24.3334 16.0001 24.3334 16.0001C24.3334 16.0001 24.3334 13.2867 23.9867 11.9867C23.7934 11.2667 23.2334 10.7067 22.5134 10.5134Z" fill="currentColor"/>
<g opacity="0.85">
<path fill-rule="evenodd" clip-rule="evenodd" d="M16.0001 2.66675C8.63341 2.66675 2.66675 8.63341 2.66675 16.0001C2.66675 23.3667 8.63341 29.3334 16.0001 29.3334C23.3667 29.3334 29.3334 23.3667 29.3334 16.0001C29.3334 8.63341 23.3667 2.66675 16.0001 2.66675ZM23.9867 20.0134C23.7934 20.7334 23.2334 21.2934 22.5134 21.4867C21.2134 21.8334 16.0001 21.8334 16.0001 21.8334C16.0001 21.8334 10.7867 21.8334 9.48675 21.4867C8.76675 21.2934 8.20675 20.7334 8.01341 20.0134C7.66675 18.7134 7.66675 16.0001 7.66675 16.0001C7.66675 16.0001 7.66675 13.2867 8.01341 11.9867C8.20675 11.2667 8.76675 10.7067 9.48675 10.5134C10.7867 10.1667 16.0001 10.1667 16.0001 10.1667C16.0001 10.1667 21.2134 10.1667 22.5134 10.5134C23.2334 10.7067 23.7934 11.2667 23.9867 11.9867C24.3334 13.2867 24.3334 16.0001 24.3334 16.0001C24.3334 16.0001 24.3334 18.7134 23.9867 20.0134Z" fill="currentColor"/>
<path d="M14.3334 18.5L18.6601 16L14.3334 13.5V18.5Z" fill="currentColor"/>
</g>
</svg>
